<?xml version="1.0" encoding="UTF-8"?>
<svg id="Layer_2" data-name="Layer 2" xmlns="http://www.w3.org/2000/svg" viewBox="0 0 83.86 112.64">
  <defs>
    <style>
      .cls-1 {
        fill: #ddd666;
      }
    </style>
  </defs>
  <g id="Layer_1-2" data-name="Layer 1">
    <path class="cls-1" d="M80.38,49.52c-1.05-.66-1.91-1.04-2.95-1.02s-1.88,.53-2.91,1.15c-.86,.52-1.9,.91-2.73,1.8-.59,.63-1.09,1.55-1.8,2.35-.64,.73-1.68,1.16-2.32,1.91-.68,.8-1.37,1.56-1.94,2.24-1.11,1.33-.78,1.27-1.76,2.37-1.16,1.24-2.32,1.87-3.18,1.57-1-.35-1.18-1.78-1.1-3.22,.04-1.17-.31-2.26-.25-3.29,.07-1.11,.42-2.16,.51-3.24s.36-2.09,.48-3.24c.11-1.01-.43-2.16-.28-3.33,.09-.77,.9-1.84,1.12-3.28,.15-1-.1-2.2,.1-3.42,.17-1.06,.25-2.21,.45-3.37,.18-1.09,.43-2.21,.62-3.35s.64-2.2,.83-3.31-.11-2.36,.08-3.44c.2-1.18,.34-2.32,.53-3.37,.22-1.25,.65-2.34,.82-3.31,.36-2.06,.46-1.64,.74-3.32,.15-1.03-.24-1.93-.58-2.85s-.75-1.77-1.52-2.41-1.57-1.1-2.61-1.25c-1.03-.15-2.15-.47-3.07-.13s-1.88,1.1-2.52,1.87-.69,1.87-.85,2.91c-.27,1.7-.61,1.64-.89,3.33s-.37,1.68-.65,3.37-.02,1.74-.3,3.43-.52,1.65-.8,3.35-.17,1.71-.45,3.41-.33,1.69-.61,3.38-.45,1.67-.73,3.36,.22,1.78-.06,3.48-.29,1.7-.58,3.4c-.16,.79-.9,1.62-1.85,1.62-.31,0-.31-.33-.63-.33-1.1,0-1.66-.67-1.66-1.77,.07-1.7-.45-1.72-.35-3.41s0-1.7,.09-3.39,.49-1.67,.58-3.37,.1-1.69,.19-3.39-.13-1.71-.03-3.4,.25-1.68,.34-3.38-.04-1.7,.06-3.4-.06-1.7,.04-3.4,.09-1.7,.18-3.39,.35-1.68,.45-3.38-.08-1.71,.02-3.4c.05-1.06,.44-2.23-.01-3.11s-1.72-1.16-2.58-1.73c-.82-.53-1.57-1.33-2.64-1.43-1.06-.05-2.06,.33-2.94,.79s-1.77,1.07-2.33,1.94c-.53,.82-.66,1.86-.76,2.92-.11,1.62,.2,1.63,.11,3.25s-.81,1.58-.9,3.2,.58,1.66,.49,3.27-.74,1.58-.83,3.2,.3,1.64,.21,3.26,.21,1.64,.12,3.26-.79,1.58-.89,3.19,.37,1.65,.28,3.26-.5,1.6-.59,3.22-.11,1.62-.2,3.24-.08,1.62-.17,3.25,.35,1.64,.28,3.27c0,.94-1.03,1.25-1.97,1.41-.94,0-1.85-.32-1.85-1.42-.05-1.67-.19-1.67-.26-3.34s.06-1.68-.01-3.35,.18-1.69,.11-3.36-.06-1.68-.13-3.35-.05-1.67-.13-3.35-.06-1.68-.13-3.35-.28-1.67-.35-3.34-.07-1.68-.14-3.35-.26-1.67-.33-3.35,.19-1.69,.11-3.37c-.05-1.03-.62-1.94-1.15-2.77s-1.25-1.56-2.12-2.04-1.84-.41-2.85-.36c-1.04,.05-1.97,.12-2.8,.64s-1.88,1.07-2.35,1.95-.02,1.98,.03,3.02c.09,1.67-.05,1.68,.04,3.35s.13,1.67,.22,3.35-.09,1.68,0,3.36-.36,1.7-.27,3.37,.6,1.65,.69,3.32-.25,1.69-.17,3.37,.11,1.67,.19,3.35,.39,1.66,.48,3.34-.52,1.71-.43,3.39,.79,1.65,.85,3.33c0,.94-.91,1.94-2.01,1.94-.08,0-.08-.03-.16-.03-.94,0-2.14-.59-2.29-1.54-.22-1.61,.18-1.66-.03-3.28s.22-1.67,0-3.28-.55-1.57-.76-3.18-.32-1.6-.53-3.21-.02-1.64-.23-3.25-.06-1.63-.27-3.24-.11-1.63-.31-3.24-.44-1.59-.66-3.2c-.16-1.04-.69-1.95-1.29-2.73s-1.3-1.71-2.23-2.11-2.01-.17-3.05-.06c-1.04,.16-1.82,.67-2.59,1.27s-1.22,1.37-1.62,2.3S-.08,19.83,.02,20.87c.19,1.62-.17,1.23,.1,3.27,.12,.92,0,2.04,.17,3.26,.13,.99,.27,2.08,.42,3.23,.14,1.02,.84,2.03,.99,3.15,.14,1.04-.33,2.2-.18,3.31s1.02,2.03,1.17,3.13-.05,2.19,.09,3.28,.36,2.14,.5,3.22,.17,2.17,.32,3.25,0,2.21,.14,3.27,.56,2.14,.7,3.2,.62,2.14,.76,3.19c.16,1.12,.05,2.24,.19,3.27,.16,1.14,.47,2.2,.61,3.21,.17,1.18-.09,2.32,.05,3.28,.17,1.2,.92,2.29,1.13,3.45s.03,2.45,.3,3.6,.77,2.29,1.11,3.42,.98,2.2,1.42,3.28c.46,1.14,.69,2.33,1.26,3.34,.6,1.07,.99,2.23,1.73,3.13,0,.31,.18,.37,.18,.69,.24,1.14,.67,2.27,.89,3.44s.78,2.27,.96,3.43,.26,2.38,.36,3.54,0,2.4,0,3.56c0,2.48-.18,2.48-.18,4.96,0,1.57,1.45,2.6,3.02,2.6s1.63,.02,3.27,.02,1.64,.51,3.27,.51,1.64-.38,3.27-.38,1.64,.58,3.27,.58,1.63-.75,3.27-.75,1.64,.34,3.27,.34,1.64,.41,3.27,.41,1.64-.58,3.27-.58,1.64,.66,3.28,.66,1.64-.3,3.28-.3,2.97-1.52,2.97-3.09c0-2.4,.13-2.4,.13-4.8,0-1.25,.14-2.51,.31-3.81s.42-2.49,.7-3.76,.72-2.45,1.08-3.68c.02-.08-.55-.41-.49-.46,1.15-.77,2.48-1.39,3.52-2.31s1.87-2.18,2.76-3.15c.72-.8,1.41-1.74,2.2-2.73,.7-.87,1.51-1.73,2.24-2.71,.69-.91,1.26-1.95,1.95-2.93s1.34-1.91,2.02-2.88,1.32-1.94,1.97-2.91,1.78-1.67,2.41-2.63c.67-1.02,1.5-1.89,2.11-2.84,.67-1.05,.93-2.29,1.52-3.21,.7-1.12,1.39-2.09,1.92-2.95,1.15-1.86,.95-1.47,1.93-2.93,.75-1.01,1.47-2.14,1.61-3.26,.15-1.2-.68-2.32-1.19-3.38s-1.06-1.94-2.12-2.58c-.17-.05-.15,.17-.15,.17Z"/>
  </g>
</svg>