<?xml version="1.0" encoding="UTF-8"?>
<svg id="Layer_2" data-name="Layer 2" xmlns="http://www.w3.org/2000/svg" viewBox="0 0 105.85 105.67">
  <defs>
    <style>
      .cls-1 {
        fill: #ddd666;
      }
    </style>
  </defs>
  <g id="Layer_1-2" data-name="Layer 1">
    <polygon class="cls-1" points="104.3 51.17 104.37 50.96 102.43 50.31 100.65 49.3 98.7 48.66 96.83 47.87 95.05 46.83 93.07 46.27 91.15 45.55 89.31 44.35 87.64 42.96 86.48 41.12 85.36 39.28 84.74 37.21 84.64 35.07 84.79 32.94 85.36 30.89 85.98 28.95 86.6 27 87.46 25.15 88.02 23.18 89.03 21.38 89.73 19.45 90.41 17.52 90.25 15.37 88.16 15.35 86.21 15.97 84.36 16.84 82.45 17.56 80.53 18.25 78.6 18.92 76.62 19.48 74.81 20.48 74.81 20.47 72.67 20.74 70.55 21.15 68.43 20.8 66.41 20.08 64.48 19.17 62.75 17.89 61.29 16.3 60.29 14.37 59.53 12.49 58.5 10.72 58.05 8.69 56.86 6.98 56.02 5.12 55.4 3.17 54.71 1.24 52.89 0 51 1.21 50.39 3.16 49.62 5.04 48.56 6.81 47.86 8.72 47.1 10.62 46.42 12.55 45.64 14.44 44.36 16.2 42.95 17.81 41.27 19.13 39.44 20.25 37.35 20.76 35.23 21 33.05 21.15 30.96 20.51 29.14 19.56 27.26 18.77 25.39 17.95 23.38 17.49 21.45 16.8 19.59 15.96 17.79 14.97 15.6 15.44 15.12 17.63 15.93 19.49 16.65 21.4 17.51 23.25 18.27 25.15 19.01 27.05 19.87 28.91 20.67 30.8 20.41 30.89 21.32 32.89 21.18 35.07 21.03 37.21 20.56 39.34 19.51 41.26 17.98 42.8 16.42 44.29 14.62 45.53 12.74 46.31 10.73 46.79 9.02 47.97 7.11 48.68 5.28 49.6 3.36 50.32 1.41 50.94 0 52.73 1.45 54.41 3.23 55.42 5.26 55.87 7.11 56.73 8.93 57.65 10.79 58.49 12.73 59.16 14.58 60.04 16.42 61.18 18.15 62.49 19.3 64.34 20.57 66.12 21.11 68.23 21.23 70.39 21.15 72.55 20.43 74.58 19.68 76.47 19.1 78.43 18.19 80.26 17.47 82.17 16.82 84.11 16.18 86.06 15.11 87.83 15.5 90.13 17.78 90.48 19.57 89.48 21.5 88.82 23.4 88.08 25.29 87.33 27.14 86.45 29.04 85.66 31.03 85.15 30.98 85.02 32.95 84.67 34.91 84.14 37.22 84.44 39.4 85.19 41.43 86.05 42.87 87.71 44.57 89.11 45.48 91.1 46.17 93.02 47.06 94.86 47.84 96.74 48.54 98.66 49.34 100.54 50.55 102.24 51 104.27 51.18 104.2 52.87 105.67 54.49 104.16 55.39 102.34 56.24 100.48 57.06 98.62 57.68 96.67 58.57 94.83 59.42 92.97 60.2 91.07 60.43 91.18 61.39 89.28 62.71 87.57 64.47 86.32 66.25 85.06 68.36 84.48 70.53 84.47 72.7 84.42 74.83 84.91 76.66 85.84 78.59 86.5 80.38 87.52 82.4 87.95 84.18 89.02 86.18 89.53 88 90.49 90.12 89.96 90.5 87.91 89.7 86.03 89.02 84.11 88.06 82.29 87.48 80.33 86.71 78.44 86.1 76.48 85.37 74.57 85.04 74.69 84.79 72.52 84.38 70.39 84.75 68.25 85.44 66.21 86.24 64.18 87.79 62.64 89.49 61.36 91.24 60.11 93.03 59.13 95.03 58.63 96.92 57.85 98.64 56.71 100.54 55.95 102.44 55.21 104.28 54.28 105.85 52.73 104.3 51.17"/>
  </g>
</svg>