<?xml version="1.0" encoding="UTF-8"?>
<svg id="Layer_2" data-name="Layer 2" xmlns="http://www.w3.org/2000/svg" viewBox="0 0 113.38 85.14">
  <defs>
    <style>
      .cls-1 {
        fill: #ddd666;
      }
    </style>
  </defs>
  <g id="Layer_1-2" data-name="Layer 1">
    <path class="cls-1" d="M108.62,8.49c-2.65,0-2.65-.26-5.29-.26s-2.65-.01-5.29-.01-2.65,.18-5.29,.18-2.65,.05-5.29,.05-2.64-.09-5.29-.09-2.65-.37-5.29-.37-2.65,.08-5.29,.08-2.65,.35-5.29,.35-2.65,.16-5.29,.16-2.65-.16-5.3-.16-2.65,.2-5.29,.2-2.65-.27-5.3-.27-2.65,.2-5.3,.2-2.65-.51-5.3-.51c-.95,0-1.91,.11-2.66-.47-.76-.58-1.68-1.32-1.94-2.23-.26-.96,.55-1.18,.29-2.13-.25-.92-1.43-1.32-2.18-1.9-.76-.58-1.45-1-2.4-1-2.61,0-2.61,.18-5.21,.18s-2.61-.04-5.22-.04S12.54,0,9.93,0s-2.61,.38-5.22,.38c-1.15,0-2.52-.09-3.33,.73-.81,.81-.82,2.18-.82,3.33,0,2.71-.25,2.71-.25,5.42s.4,2.71,.4,5.42-.35,2.71-.35,5.42S0,23.42,0,26.13s.02,2.71,.02,5.42,.34,2.71,.34,5.42-.25,2.71-.25,5.42,.51,2.71,.51,5.42,0,2.71,0,5.42-.37,2.71-.37,5.42-.08,2.71-.08,5.42,.63,2.71,.63,5.43-.11,2.72-.11,5.43-.2,2.72-.2,5.43c0,1.15,.35,2.26,1.16,3.07,.81,.81,1.92,1.55,3.07,1.55,2.73,0,2.73-.61,5.47-.61s2.73,.02,5.47,.02,2.73,.31,5.47,.31,2.73-.32,5.47-.32,2.73,.19,5.47,.19,2.73-.24,5.47-.24,2.73,.43,5.47,.43,2.73-.06,5.47-.06,2.73,.15,5.47,.15,2.73,.15,5.46,.15,2.73-.06,5.47-.06,2.73-.08,5.47-.08,2.73,.26,5.47,.26,2.73-.46,5.47-.46,2.74,.03,5.47,.03,2.73,.22,5.47,.22,2.74,.2,5.47,.2,2.74-.32,5.48-.32,2.74,.32,5.48,.32c1.15,0,2.4-.74,3.21-1.56,.81-.81,1.49-2.06,1.49-3.21,0-2.6-.44-2.6-.44-5.19s.51-2.59,.51-5.19-.82-2.6-.82-5.19,.06-2.6,.06-5.19,.21-2.6,.21-5.19-.25-2.6-.25-5.2,.01-2.6,.01-5.2-.02-2.6-.02-5.2,.6-2.6,.6-5.2,.11-2.6,.11-5.19-.46-2.6-.46-5.2,.07-2.6,.07-5.2,.12-2.6,.13-5.2c.02-1.16-.38-2.41-1.2-3.24-.82-.83-2.04-.79-3.2-.79-.04,0-.02-.31-.02-.31Zm-60.51,28.36c-1.52,2.5-1.73,2.37-3.25,4.87s-1.52,2.49-3.04,4.99-1.36,2.59-2.88,5.1-1.47,2.53-2.99,5.04-1.59,2.46-3.11,4.96c-.68,1.12-1.84,1.4-3.16,1.4s-2.22-.43-2.9-1.56c-1.52-2.5-1.82-2.32-3.33-4.82s-1.64-2.43-3.17-4.92c-.56-.85-.62-1.97-.4-2.97,.22-1,.73-2.03,1.6-2.56,.87-.53,2-.44,2.99-.18,.99,.26,1.95,.77,2.44,1.66,1.42,2.37,.03,5.27,2.79,5.17s1.44-2.88,2.93-5.34,1.17-2.66,2.67-5.13,2.21-2.03,3.71-4.5,.84-2.86,2.31-5.34c.49-.91,1.6-1.57,2.59-1.85,.99-.27,2.3-.25,3.18,.28,.88,.54,1.63,1.66,1.85,2.67,.22,1.01-.4,2.08-.98,2.93-.02,.03,.13,.08,.13,.09Zm44.37,21.08c.7,.7,.86,1.71,.86,2.7,0,.99-.35,1.81-1.05,2.51-.7,.7-1.52,1.22-2.51,1.22-.99,0-1.97-.35-2.67-1.06-1.7-1.7-1.64-1.77-3.34-3.47s-1.44-1.97-3.15-3.67-1.31-3.45-3.72-3.46-1.7,2.05-3.41,3.76-1.59,1.82-3.3,3.52-1.82,1.59-3.52,3.3c-.7,.7-1.66,1.3-2.65,1.3s-1.89-.65-2.6-1.35c-.7-.7-1.27-1.6-1.27-2.6s.79-1.67,1.49-2.38c1.7-1.7,1.39-2.01,3.1-3.72s1.44-1.97,3.15-3.68,4.12-.7,4.12-3.11-2.38-1.43-4.09-3.13-1.58-1.84-3.29-3.54-1.83-1.58-3.54-3.28c-.95-.95-1.38-2.68-1.03-3.98,.35-1.3,1.71-2.13,3-2.48,1.3-.35,2.86-.27,3.81,.68,1.7,1.7,1.24,2.16,2.94,3.86s2.1,1.3,3.81,3,.87,3.59,3.27,3.59,1.46-2,3.16-3.71,1.95-1.46,3.66-3.16,1.96-1.45,3.67-3.15c.95-.95,1.98-1.24,3.28-.89,1.3,.35,2.39,1.03,2.73,2.32,.35,1.3-.2,2.49-1.15,3.44-1.7,1.7-1.34,2.06-3.05,3.76s-1.71,1.7-3.41,3.41-3.71,.82-3.71,3.23,1.68,1.86,3.39,3.57,2.13,1.28,3.85,2.98,1.46,1.96,3.17,3.67Z"/>
  </g>
</svg>