<?xml version="1.0" encoding="UTF-8"?>
<svg id="Layer_2" data-name="Layer 2" xmlns="http://www.w3.org/2000/svg" viewBox="0 0 458.57 408.84">
  <defs>
    <style>
      .cls-1 {
        fill: #fff;
        fill-rule: evenodd;
      }
    </style>
  </defs>
  <g id="Layer_1-2" data-name="Layer 1">
    <g>
      <polygon class="cls-1" points="458.06 221.88 449.38 222.55 440.48 221.96 431.58 222.49 422.68 222.06 413.79 221.76 404.89 222.58 395.99 222.2 387.09 222.02 378.19 221.78 369.29 222.18 360.4 221.89 351.5 222.16 342.6 221.9 333.7 222.43 324.8 221.87 315.91 222.04 307.01 221.92 298.11 222.01 289.22 222.52 280.32 221.98 271.42 222.38 262.52 221.62 253.62 222.2 244.73 222.52 235.83 222.26 226.93 221.99 218.03 222.45 209.13 222.54 200.22 222.34 191.32 222.28 182.42 221.74 173.52 222.29 164.62 221.83 155.72 222.01 146.82 221.9 137.91 222.01 129.01 222.43 120.1 221.89 111.19 222.41 102 222.18 92.88 221.01 84.04 218.47 75.04 216.57 66.77 212.54 58.67 208.32 50.43 204.27 43.12 198.72 36.14 192.79 29.96 186.04 23.99 179.14 17.99 172.15 13.68 164.03 10.08 155.61 6.17 147.32 3.88 138.44 1.37 129.59 .34 120.45 0 111.26 .91 102.12 2.3 93.07 4.43 84.16 7.78 75.61 11.92 67.42 16.91 59.72 23.02 52.88 29.53 46.48 36.36 40.37 43.94 35.18 52.34 31.46 60.74 27.79 69.67 25.69 78.68 23.88 87.86 23.94 97 24.48 106.18 25.23 115.05 27.73 123.46 31.44 131.51 35.8 139.38 40.49 146.57 46.2 153.13 52.65 158.87 59.83 163.51 67.75 168.05 75.73 170.96 84.44 173.88 93.16 174.65 102.33 175.76 111.47 171.92 121.14 164.12 127.92 155.78 128.15 147.72 125.92 142.65 119.24 140.31 111.26 139.11 102.19 137.44 93.15 133.11 85.03 127.73 77.64 121.21 71.27 113.81 65.92 105.45 62.28 96.73 59.43 87.56 58.36 78.93 59.14 70.56 61.36 62.66 64.9 55.64 69.94 49.37 75.85 44.12 82.68 40.09 90.28 37.35 98.42 35.28 106.81 35.26 115.45 36.86 124.16 38.28 132.89 41.25 141.24 45.35 149.1 50.46 156.3 55.95 163.22 62.22 169.47 69.48 174.53 77.21 178.79 85.29 182.27 93.55 185.54 102.34 186.85 111.19 187.24 120.09 187.14 128.99 186.92 137.89 186.6 146.78 187.4 155.68 187.34 164.58 186.63 173.48 187.35 182.38 187.2 191.27 187.02 200.17 187.58 209.07 186.82 217.97 186.8 226.87 187.17 235.77 186.79 244.67 187.35 253.56 187.38 262.46 187.19 271.35 187.24 280.25 187.12 289.15 187.23 298.05 187.02 306.94 187.18 315.84 187.15 324.74 187.29 333.64 186.87 342.54 187.56 351.44 186.78 360.34 187.41 369.24 186.82 378.14 186.84 387.05 187.48 395.95 187.54 404.85 186.62 413.75 186.96 422.65 187.48 431.55 187.12 440.46 187.07 449.36 187.6 458.48 186.88 458.57 195.84 458.02 204.59 457.91 213.34 458.06 221.88"/>
      <polygon class="cls-1" points="458.05 151.86 449.09 151.86 439.91 152.47 430.72 151.9 421.54 152 412.35 152.31 403.17 152.1 393.98 151.95 384.79 152.3 375.61 151.74 366.42 152.1 357.23 151.81 348.04 152.07 338.86 151.83 329.67 151.8 320.48 151.86 311.29 151.81 302.1 151.81 292.91 151.87 283.72 152.15 274.52 151.8 265.78 151.3 256.97 150.69 248.43 148.47 240.44 144.74 232.48 141.08 225.12 136.32 217.97 131.24 211.86 124.95 205.59 118.77 200.27 111.72 196.38 103.8 193.05 95.68 189.76 87.51 187.87 78.89 186.7 70.13 186.91 61.29 188.84 52.7 191.13 44.27 194.26 36.09 198.74 28.55 204.24 21.74 210.63 15.77 217.58 10.47 225.11 5.95 233.33 2.81 241.99 1.24 250.72 0 259.9 .7 268.68 3.34 277.27 6.31 285.65 10.04 293.09 15.46 299.53 22.02 305.09 29.32 309.43 37.41 312.89 45.91 315.1 54.84 315.01 64.03 313.09 72.87 306.89 79.59 298.1 82.33 289.11 80.08 282.79 73.39 280.56 64.59 278.83 55.51 274.37 47.53 267.97 41.01 259.86 36.7 250.72 35.23 241.33 36.88 233.41 42.07 226.54 48.64 223.37 57.61 221.98 66.94 223.35 75.73 225.86 84.25 230.2 91.97 235.47 99.05 241.7 105.33 248.9 110.54 257 114.26 265.63 116.51 274.52 117.42 283.7 116.82 292.89 117.46 302.07 116.79 311.26 116.83 320.44 117.08 329.63 117.58 338.82 117.23 348 117 357.19 117.08 366.38 117.15 375.57 116.63 384.75 117.52 393.94 116.99 403.13 117.52 412.31 116.63 421.5 117.18 430.69 116.95 439.88 116.86 449.08 116.72 458.08 117.29 458.07 125.84 458.49 134.59 457.91 143.34 458.05 151.86"/>
      <polygon class="cls-1" points="458.14 291.95 449.21 292.45 440.15 291.68 431.09 292.3 422.03 291.79 412.97 292.44 403.91 292.5 394.85 291.77 385.79 292.24 376.73 291.7 367.67 292.06 358.61 291.7 349.55 292.23 340.49 292.36 331.43 292.54 322.37 292.01 313.3 292.59 304.24 292.43 295.18 291.6 286.11 292.18 277.05 291.79 267.99 292.27 258.92 292.37 249.86 291.61 240.8 292.36 231.73 292.09 222.66 292.14 213.59 291.82 204.52 292.01 195.71 293.12 187.15 295.36 178.87 298.59 171.55 303.67 165.05 309.76 159.67 316.88 155.83 324.93 153.43 333.48 152.49 342.27 153.16 351.53 156.91 360.07 163.16 366.94 171.1 371.73 180.19 374 189.5 372.99 197.82 368.73 204.62 362.36 208.72 354.03 209.96 344.93 212.05 336.99 217.5 331.09 224.6 327.56 234.76 328.16 242.02 335.18 245.13 344.59 244.71 353.67 242.35 362.42 239.45 371 235.4 379.13 229.55 386.09 223.67 393.04 216 397.97 208.32 402.8 199.78 405.92 190.97 408.26 181.87 408.84 172.96 408.62 164.21 406.83 156 403.4 148.13 399.32 140.58 394.56 134.6 387.94 128.51 381.42 124.24 373.58 121.1 365.29 118.85 356.75 116.87 348.06 117.56 339.18 118.64 330.49 120.07 321.83 122.95 313.53 125.86 305.19 130.51 297.68 135.66 290.53 141.43 283.89 148.04 278.08 154.63 272.2 162.49 268.18 170.41 264.42 178.46 260.87 187 258.68 195.71 257.33 204.52 257.05 213.58 256.77 222.65 257.31 231.71 257.05 240.77 256.83 249.83 256.85 258.89 257.01 267.95 257.02 277.01 257.23 286.06 257.47 295.12 256.93 304.18 257.3 313.25 256.68 322.3 257.19 331.37 257.25 340.43 257.49 349.49 256.85 358.56 256.94 367.62 257.35 376.68 256.8 385.75 257.04 394.81 256.77 403.87 257.58 412.93 257.26 422 256.95 431.07 256.81 440.13 256.87 449.2 257.26 457.94 257.44 458.33 265.84 457.86 274.59 457.8 283.34 458.14 291.95"/>
    </g>
  </g>
</svg>