<?xml version="1.0" encoding="UTF-8"?>
<svg id="Layer_2" data-name="Layer 2" xmlns="http://www.w3.org/2000/svg" viewBox="0 0 697.22 408.5">
  <defs>
    <style>
      .cls-1 {
        fill: #fff;
        fill-rule: evenodd;
      }
    </style>
  </defs>
  <g id="Layer_1-2" data-name="Layer 1">
    <g>
      <polygon class="cls-1" points=".7 222.2 9.81 221.54 18.82 221.45 27.83 221.63 36.83 222.37 45.83 222.08 54.83 221.99 63.83 221.98 72.84 221.8 81.85 221.82 90.85 222.22 99.85 221.97 108.85 222.27 117.86 222.09 126.87 221.84 135.87 221.83 144.87 221.91 153.88 222.07 162.88 222.11 171.89 222.13 180.89 221.51 189.9 221.65 198.91 221.63 207.91 222.01 216.92 221.68 225.92 222.15 234.93 221.64 243.93 221.9 252.94 221.51 261.95 221.96 270.95 222.15 279.96 222.03 288.96 221.72 297.97 221.94 306.98 221.73 315.98 221.97 324.99 222.06 334 221.67 343.01 222.36 352.01 222.35 361.02 221.94 370.03 222.43 379.04 222.1 388.04 222.04 397.05 221.89 406.05 221.89 415.06 221.99 424.06 221.99 433.07 221.96 442.08 221.62 451.08 222.02 460.09 221.88 469.1 221.68 478.11 222.07 487.12 221.47 496.13 221.99 505.14 221.67 514.15 222.39 523.16 221.49 532.17 222.22 541.17 222.4 550.19 221.71 559.2 222.28 568.21 221.78 577.23 222.35 586.25 222.11 595.38 221.32 604.43 220.03 613.48 218.66 622.27 216.03 630.64 212.32 639.2 208.95 646.92 203.98 654.51 198.8 661.29 192.62 667.58 185.97 673.51 179.02 679.41 171.96 683.32 163.63 688.15 155.8 691.48 147.23 693.55 138.27 695.45 129.32 697.14 120.29 697.22 111.1 696.43 101.97 695.34 92.87 692.97 84 689.25 75.63 684.99 67.56 680.42 59.63 674.49 52.65 668.44 45.72 661 40.32 653.29 35.38 645.34 30.76 636.5 28.25 627.84 25.2 618.75 23.86 609.58 23.96 600.45 24.46 591.43 25.87 582.36 27.46 573.87 31.03 565.79 35.39 558.11 40.4 550.71 45.86 544.29 52.46 538.92 59.92 533.42 67.29 529.42 75.58 526.2 84.18 523.86 93.06 522.16 102.1 522.35 111.3 525.45 121.02 533.29 127.82 541.66 128.04 549.74 125.79 555.28 119.33 557.54 111.1 558.13 101.99 560.04 93 563.73 84.51 569.76 77.51 576.12 70.97 583.72 65.92 591.88 61.81 600.69 59.16 609.88 58.42 618.47 59.18 626.62 61.93 634.82 64.66 642.03 69.49 648.23 75.54 653.08 82.67 656.94 90.3 659.95 98.29 661.92 106.67 661.89 115.27 661.41 124.14 658.84 132.63 655.84 140.93 652.33 149.07 647.11 156.23 641.25 162.83 635.22 169.3 628.21 174.75 620.17 178.5 612.27 182.45 603.7 184.6 595.12 186.84 586.24 186.93 577.24 187.41 568.23 186.79 559.23 186.8 550.22 187.2 541.22 187.01 532.22 187.1 523.22 187.1 514.21 187.25 505.2 186.59 496.2 186.85 487.2 186.81 478.19 186.65 469.19 187.27 460.18 187.19 451.18 187.34 442.17 187.34 433.17 186.61 424.16 187.22 415.15 186.43 406.15 186.5 397.14 186.94 388.13 186.93 379.13 186.84 370.12 187.4 361.12 186.98 352.11 187.03 343.1 187.25 334.1 186.78 325.09 186.87 316.08 186.46 307.08 186.95 298.07 186.59 289.06 187.42 280.05 186.54 271.05 186.43 262.04 186.5 253.03 186.91 244.02 186.69 235.01 187.19 226.01 187.05 217 187.18 207.99 186.59 198.98 187 189.98 186.99 180.97 187.29 171.97 186.63 162.96 187.06 153.95 186.46 144.94 186.52 135.94 186.75 126.93 187.11 117.92 186.75 108.91 187.09 99.9 187.28 90.89 186.97 81.88 187.21 72.87 187.22 63.86 187.04 54.85 186.61 45.84 186.99 36.83 186.92 27.81 187.21 18.8 187.25 9.78 187.3 .77 187.3 1.13 195.68 .39 204.43 .64 213.18 .7 222.2"/>
      <polygon class="cls-1" points=".7 152.19 9.79 152 18.77 152.38 27.75 151.9 36.73 151.79 45.7 152.4 54.68 152.12 63.66 152.02 72.64 151.68 81.62 151.6 90.6 152.1 99.58 152.13 108.56 152.15 117.54 151.86 126.52 152.16 135.5 152.17 144.48 151.48 153.46 151.67 162.44 152.15 171.42 152.26 180.4 152.42 189.38 151.71 198.36 151.56 207.34 151.79 216.32 152.37 225.3 151.86 234.28 152.39 243.26 152.23 252.24 152.3 261.22 152.03 270.19 152.01 279.18 152.04 288.15 151.78 297.14 151.67 306.12 152.28 315.1 151.44 324.08 152.11 333.07 151.88 342.05 151.48 351.03 151.54 360.02 152.09 369 151.84 377.98 151.48 386.96 151.56 395.95 152.36 404.93 151.45 413.93 151.71 422.92 151.44 431.67 151.26 440.44 150.39 449 148.29 457.15 144.92 465.28 141.5 472.29 136.12 479.32 130.9 485.89 125.08 491.72 118.5 496.49 111.13 500.96 103.59 504.63 95.61 507.04 87.17 509.44 78.7 509.79 69.91 510 61.16 509.11 52.43 506.63 43.99 503.55 35.74 499.07 28.13 493.32 21.46 487.28 15.05 480.12 9.89 472.28 5.89 463.97 3.09 455.54 .47 446.71 0 437.53 .45 428.68 2.91 420.04 5.86 411.96 10.15 404.61 15.6 398.32 22.22 392.86 29.5 387.9 37.19 384.92 45.85 382.44 54.69 382.47 63.87 384.54 72.6 390.64 79.27 399.34 81.45 408.41 80.05 414.34 73.04 417.1 64.43 418.81 55.42 422.85 47.2 429.44 40.82 437.73 37.01 446.71 35.76 456.17 36.54 463.96 41.98 470.53 48.71 473.87 57.5 475.56 66.78 474.19 75.59 471.5 84.05 467.48 91.96 462.53 99.39 455.95 105.43 448.52 110.34 440.44 114.1 431.71 115.78 422.92 116.79 413.94 117.05 404.96 116.78 395.98 117.43 387 117.27 378.02 116.72 369.04 117.19 360.06 117.35 351.08 116.91 342.1 117.1 333.12 116.45 324.14 117.21 315.16 116.45 306.18 117.03 297.2 116.51 288.22 117.18 279.23 116.88 270.25 116.99 261.27 116.84 252.29 117.32 243.31 116.93 234.33 116.97 225.35 116.63 216.36 116.57 207.38 117.35 198.4 116.66 189.42 117.25 180.44 116.96 171.47 116.86 162.48 117.4 153.5 116.83 144.52 116.49 135.54 116.94 126.56 117.36 117.58 116.61 108.59 116.54 99.61 117.34 90.63 117.19 81.64 117.03 72.66 117.28 63.67 116.46 54.69 116.76 45.71 117.07 36.72 116.96 27.74 116.6 18.75 117.14 9.76 116.94 .77 117.37 .43 125.62 0 134.4 .24 143.17 .7 152.19"/>
      <polygon class="cls-1" points=".69 292.23 9.75 292.17 18.7 291.56 27.64 292.12 36.59 292.03 45.53 291.71 54.48 291.93 63.42 292.08 72.37 291.72 81.31 292.28 90.26 291.93 99.2 292.21 108.15 291.96 117.1 292.19 126.04 292.22 134.99 292.16 143.93 292.22 152.88 292.21 161.82 292.15 170.77 291.88 179.72 292.22 188.66 292.29 197.61 291.58 206.56 291.61 215.5 292.36 224.45 292.16 233.4 292.34 242.35 292.02 251.29 292.43 260.24 291.76 269.19 291.49 278.14 292.02 287.08 292.25 296.03 291.65 304.97 291.62 313.92 291.43 322.86 291.62 331.81 292.38 340.75 292.35 349.7 292.05 358.65 292.07 367.6 292.19 376.55 292.36 385.5 292.21 394.45 291.83 403.4 291.76 412.35 292.07 421.3 291.5 430.25 291.62 439.19 292.41 448.14 292.25 457.09 291.57 466.05 291.52 475 291.68 483.96 291.68 492.92 291.83 501.83 292.4 510.54 294.46 518.32 298.87 525.83 303.58 532.34 309.65 537.79 316.71 541.87 324.66 544.18 333.27 545.16 342.09 544.44 351.41 540.96 360.17 534.61 367.18 526.39 371.71 517.23 373.38 508.13 372.16 499.52 368.71 493.37 361.78 488.39 353.98 487.17 344.77 485.13 336.95 480.21 330.58 472.8 327.64 462.97 328.68 455.16 334.85 451.98 344.43 452.57 353.52 454.47 362.44 457.5 371.05 462.37 378.76 467.28 386.45 474.15 392.44 481.34 397.95 489.14 402.59 497.49 406.32 506.48 408 515.57 408.5 524.42 408.06 533.14 406.36 541.3 402.91 549.57 399.57 556.49 393.95 563.3 388.2 568.15 380.72 573.17 373.4 576.47 365.17 578.76 356.62 579.83 347.85 580.52 338.98 579.47 330.22 577.21 321.71 575.05 313.15 571.57 305.02 567.16 297.36 561.82 290.34 555.79 283.93 549.65 277.62 542.75 272.13 534.87 268.15 527.24 263.77 518.81 261.24 510.41 258.64 501.74 257.03 492.92 257.42 483.97 257.04 475.03 256.86 466.08 256.62 457.13 257.02 448.19 256.73 439.25 257 430.3 256.74 421.35 257.26 412.41 256.71 403.46 256.88 394.52 256.76 385.57 256.85 376.62 257.35 367.68 256.82 358.73 257.21 349.78 256.45 340.84 257.03 331.89 257.35 322.94 257.09 313.99 256.83 305.05 257.28 296.1 257.38 287.15 257.18 278.2 257.11 269.26 256.58 260.31 257.13 251.36 256.67 242.41 256.85 233.46 256.74 224.51 256.84 215.57 257.26 206.62 256.72 197.67 257.24 188.73 257.39 179.78 257.35 170.84 256.67 161.89 257.41 152.94 256.67 143.99 256.44 135.05 257.19 126.1 256.92 117.15 256.92 108.2 256.51 99.25 256.6 90.29 257.41 81.34 256.96 72.39 256.49 63.44 257.11 54.49 256.77 45.54 257.43 36.59 257.33 27.64 257.29 18.68 256.85 9.73 256.89 .77 257.13 .89 265.67 .94 274.43 .97 283.18 .69 292.23"/>
    </g>
  </g>
</svg>