<?xml version="1.0" encoding="UTF-8"?>
<svg id="Layer_2" data-name="Layer 2" xmlns="http://www.w3.org/2000/svg" viewBox="0 0 697.22 408.5">
  <defs>
    <style>
      .cls-1 {
        fill: #fff;
        fill-rule: evenodd;
      }
    </style>
  </defs>
  <g id="Layer_2-2" data-name="Layer 2">
    <g id="Layer_1-2" data-name="Layer 1-2">
      <g>
        <polygon class="cls-1" points="696.58 213.18 696.83 204.43 696.09 195.68 696.45 187.3 687.44 187.3 678.42 187.25 669.41 187.21 660.39 186.92 651.38 186.99 642.37 186.61 633.36 187.04 624.35 187.22 615.34 187.21 606.33 186.97 597.32 187.28 588.31 187.09 579.3 186.75 570.29 187.11 561.28 186.75 552.28 186.52 543.27 186.46 534.26 187.06 525.25 186.63 516.25 187.29 507.24 186.99 498.24 187 489.23 186.59 480.22 187.18 471.21 187.05 462.21 187.19 453.2 186.69 444.19 186.91 435.18 186.5 426.17 186.43 417.17 186.54 408.16 187.42 399.15 186.59 390.14 186.95 381.14 186.46 372.13 186.87 363.12 186.78 354.12 187.25 345.11 187.03 336.1 186.98 327.1 187.4 318.09 186.84 309.09 186.93 300.08 186.94 291.07 186.5 282.07 186.43 273.06 187.22 264.05 186.61 255.05 187.34 246.04 187.34 237.04 187.19 228.03 187.27 219.03 186.65 210.02 186.81 201.02 186.85 192.02 186.59 183.01 187.25 174 187.1 165 187.1 156 187.01 147 187.2 137.99 186.8 128.99 186.79 119.98 187.41 110.98 186.93 102.1 186.84 93.52 184.6 84.95 182.45 77.05 178.5 69.01 174.75 62 169.3 55.97 162.83 50.11 156.23 44.89 149.07 41.38 140.93 38.38 132.63 35.81 124.14 35.33 115.27 35.3 106.67 37.27 98.29 40.28 90.3 44.14 82.67 48.99 75.54 55.19 69.49 62.4 64.66 70.6 61.93 78.75 59.18 87.34 58.42 96.53 59.16 105.34 61.81 113.5 65.92 121.1 70.97 127.46 77.51 133.49 84.51 137.18 93 139.09 101.99 139.68 111.1 141.94 119.33 147.48 125.79 155.56 128.04 163.93 127.82 171.77 121.02 174.87 111.3 175.06 102.1 173.36 93.06 171.02 84.18 167.8 75.58 163.8 67.29 158.3 59.92 152.93 52.46 146.51 45.86 139.11 40.4 131.43 35.39 123.35 31.03 114.86 27.46 105.79 25.87 96.77 24.46 87.64 23.96 78.47 23.86 69.38 25.2 60.72 28.25 51.88 30.76 43.93 35.38 36.22 40.32 28.78 45.72 22.73 52.65 16.8 59.63 12.23 67.56 7.97 75.63 4.25 84 1.88 92.87 .79 101.97 0 111.1 .08 120.29 1.77 129.32 3.67 138.27 5.74 147.23 9.07 155.8 13.9 163.63 17.81 171.96 23.71 179.02 29.64 185.97 35.93 192.62 42.71 198.8 50.3 203.98 58.02 208.95 66.58 212.32 74.95 216.03 83.74 218.66 92.79 220.03 101.84 221.32 110.97 222.11 119.99 222.35 129.01 221.78 138.02 222.28 147.03 221.71 156.05 222.4 165.05 222.22 174.06 221.49 183.07 222.39 192.08 221.67 201.09 221.99 210.1 221.47 219.11 222.07 228.12 221.68 237.13 221.88 246.14 222.02 255.14 221.62 264.15 221.96 273.16 221.99 282.16 221.99 291.17 221.89 300.17 221.89 309.18 222.04 318.18 222.1 327.19 222.43 336.2 221.94 345.21 222.35 354.21 222.36 363.22 221.67 372.23 222.06 381.24 221.97 390.24 221.73 399.25 221.94 408.26 221.72 417.26 222.03 426.27 222.15 435.27 221.96 444.28 221.51 453.29 221.9 462.29 221.64 471.3 222.15 480.3 221.68 489.31 222.01 498.31 221.63 507.32 221.65 516.33 221.51 525.33 222.13 534.34 222.11 543.34 222.07 552.35 221.91 561.35 221.83 570.35 221.84 579.36 222.09 588.37 222.27 597.37 221.97 606.37 222.22 615.37 221.82 624.38 221.8 633.39 221.98 642.39 221.99 651.39 222.08 660.39 222.37 669.39 221.63 678.4 221.45 687.41 221.54 696.52 222.2 696.58 213.18"/>
        <polygon class="cls-1" points="696.98 143.17 697.22 134.4 696.79 125.62 696.45 117.37 687.46 116.94 678.47 117.14 669.48 116.6 660.5 116.96 651.51 117.07 642.53 116.76 633.55 116.46 624.56 117.28 615.58 117.03 606.59 117.19 597.61 117.34 588.63 116.54 579.64 116.61 570.66 117.36 561.68 116.94 552.7 116.49 543.72 116.83 534.74 117.4 525.75 116.86 516.78 116.96 507.8 117.25 498.82 116.66 489.84 117.35 480.86 116.57 471.87 116.63 462.89 116.97 453.91 116.93 444.93 117.32 435.95 116.84 426.97 116.99 417.99 116.88 409 117.18 400.02 116.51 391.04 117.03 382.06 116.45 373.08 117.21 364.1 116.45 355.12 117.1 346.14 116.91 337.16 117.35 328.18 117.19 319.2 116.72 310.22 117.27 301.24 117.43 292.26 116.78 283.28 117.05 274.3 116.79 265.51 115.78 256.78 114.1 248.7 110.34 241.27 105.43 234.69 99.39 229.74 91.96 225.72 84.05 223.03 75.59 221.66 66.78 223.35 57.5 226.69 48.71 233.26 41.98 241.05 36.54 250.51 35.76 259.49 37.01 267.78 40.82 274.37 47.2 278.41 55.42 280.12 64.43 282.88 73.04 288.81 80.05 297.88 81.45 306.58 79.27 312.68 72.6 314.75 63.87 314.78 54.69 312.3 45.85 309.32 37.19 304.36 29.5 298.9 22.22 292.61 15.6 285.26 10.15 277.18 5.86 268.54 2.91 259.69 .45 250.51 0 241.68 .47 233.25 3.09 224.94 5.89 217.1 9.89 209.94 15.05 203.9 21.46 198.15 28.13 193.67 35.74 190.59 43.99 188.11 52.43 187.22 61.16 187.43 69.91 187.78 78.7 190.18 87.17 192.59 95.61 196.26 103.59 200.73 111.13 205.5 118.5 211.33 125.08 217.9 130.9 224.93 136.12 231.94 141.5 240.07 144.92 248.22 148.29 256.78 150.39 265.55 151.26 274.3 151.44 283.29 151.71 292.29 151.45 301.27 152.36 310.26 151.56 319.24 151.48 328.22 151.84 337.2 152.09 346.19 151.54 355.17 151.48 364.15 151.88 373.14 152.11 382.12 151.44 391.1 152.28 400.08 151.67 409.07 151.78 418.04 152.04 427.03 152.01 436 152.03 444.98 152.3 453.96 152.23 462.94 152.39 471.92 151.86 480.9 152.37 489.88 151.79 498.86 151.56 507.84 151.71 516.82 152.42 525.8 152.26 534.78 152.15 543.76 151.67 552.74 151.48 561.72 152.17 570.7 152.16 579.68 151.86 588.66 152.15 597.64 152.13 606.62 152.1 615.6 151.6 624.58 151.68 633.56 152.02 642.54 152.12 651.52 152.4 660.49 151.79 669.47 151.9 678.45 152.38 687.43 152 696.52 152.19 696.98 143.17"/>
        <polygon class="cls-1" points="696.25 283.18 696.28 274.43 696.33 265.67 696.45 257.13 687.49 256.89 678.54 256.85 669.58 257.29 660.63 257.33 651.68 257.43 642.73 256.77 633.78 257.11 624.83 256.49 615.88 256.96 606.93 257.41 597.97 256.6 589.02 256.51 580.07 256.92 571.12 256.92 562.17 257.19 553.23 256.44 544.28 256.67 535.33 257.41 526.38 256.67 517.44 257.35 508.49 257.39 499.55 257.24 490.6 256.72 481.65 257.26 472.71 256.84 463.76 256.74 454.81 256.85 445.86 256.67 436.91 257.13 427.96 256.58 419.02 257.11 410.07 257.18 401.12 257.38 392.17 257.28 383.23 256.83 374.28 257.09 365.33 257.35 356.38 257.03 347.44 256.45 338.49 257.21 329.54 256.82 320.6 257.35 311.65 256.85 302.7 256.76 293.76 256.88 284.81 256.71 275.87 257.26 266.92 256.74 257.97 257 249.03 256.73 240.09 257.02 231.14 256.62 222.19 256.86 213.25 257.04 204.3 257.42 195.48 257.03 186.81 258.64 178.41 261.24 169.98 263.77 162.35 268.15 154.47 272.13 147.57 277.62 141.43 283.93 135.4 290.34 130.06 297.36 125.65 305.02 122.17 313.15 120.01 321.71 117.75 330.22 116.7 338.98 117.39 347.85 118.46 356.62 120.75 365.17 124.05 373.4 129.07 380.72 133.92 388.2 140.73 393.95 147.65 399.57 155.92 402.91 164.08 406.36 172.8 408.06 181.65 408.5 190.74 408 199.73 406.32 208.08 402.59 215.88 397.95 223.07 392.44 229.94 386.45 234.85 378.76 239.72 371.05 242.75 362.44 244.65 353.52 245.24 344.43 242.06 334.85 234.25 328.68 224.42 327.64 217.01 330.58 212.09 336.95 210.05 344.77 208.83 353.98 203.85 361.78 197.7 368.71 189.09 372.16 179.99 373.38 170.83 371.71 162.61 367.18 156.26 360.17 152.78 351.41 152.06 342.09 153.04 333.27 155.35 324.66 159.43 316.71 164.88 309.65 171.39 303.58 178.9 298.87 186.68 294.46 195.39 292.4 204.3 291.83 213.26 291.68 222.22 291.68 231.17 291.52 240.13 291.57 249.08 292.25 258.03 292.41 266.97 291.62 275.92 291.5 284.87 292.07 293.82 291.76 302.77 291.83 311.72 292.21 320.67 292.36 329.62 292.19 338.57 292.07 347.52 292.05 356.47 292.35 365.41 292.38 374.36 291.62 383.3 291.43 392.25 291.62 401.19 291.65 410.14 292.25 419.08 292.02 428.03 291.49 436.98 291.76 445.93 292.43 454.87 292.02 463.82 292.34 472.77 292.16 481.72 292.36 490.66 291.61 499.61 291.58 508.56 292.29 517.5 292.22 526.45 291.88 535.4 292.15 544.34 292.21 553.29 292.22 562.23 292.16 571.18 292.22 580.12 292.19 589.07 291.96 598.02 292.21 606.96 291.93 615.91 292.28 624.85 291.72 633.8 292.08 642.74 291.93 651.69 291.71 660.63 292.03 669.58 292.12 678.52 291.56 687.47 292.17 696.53 292.23 696.25 283.18"/>
      </g>
    </g>
  </g>
</svg>