<?xml version="1.0" encoding="UTF-8"?>
<svg id="Layer_2" data-name="Layer 2" xmlns="http://www.w3.org/2000/svg" viewBox="0 0 458.03 407.82">
  <defs>
    <style>
      .cls-1 {
        fill: #fff;
        fill-rule: evenodd;
      }
    </style>
  </defs>
  <g id="Layer_1-2" data-name="Layer 1">
    <g>
      <polygon class="cls-1" points=".26 221.45 9.37 220.78 18.27 221.38 27.17 220.84 36.07 221.27 44.96 221.58 53.86 220.75 62.76 221.13 71.66 221.31 80.56 221.55 89.46 221.15 98.35 221.44 107.25 221.17 116.15 221.43 125.05 220.91 133.95 221.46 142.84 221.29 151.74 221.41 160.64 221.32 169.54 220.82 178.43 221.35 187.33 220.95 196.23 221.72 205.13 221.13 214.02 220.82 222.92 221.07 231.82 221.34 240.72 220.89 249.63 220.79 258.53 220.99 267.43 221.05 276.33 221.59 285.23 221.04 294.13 221.5 303.03 221.32 311.93 221.43 320.84 221.33 329.74 220.9 338.65 221.45 347.56 220.93 356.67 220.4 365.74 219.33 374.84 218.13 383.4 214.8 392.19 212.17 400.55 208.33 408.04 202.98 415.64 197.88 422.63 191.95 429.4 185.75 435.28 178.68 439.95 170.76 445.02 163.15 449.48 155.12 452.24 146.35 455.17 137.66 456.4 128.57 457.62 119.53 458.03 110.41 457.99 101.25 456.53 92.2 453.94 83.42 450.71 74.87 446.53 66.74 441.53 59.09 436.1 51.69 429.65 45.14 422.25 39.71 414.47 34.92 406.55 30.3 397.86 27.41 389.09 24.78 380 23.74 370.89 22.73 361.7 23.14 352.76 25.24 343.9 27.49 335.19 30.36 326.91 34.37 319.41 39.69 312.36 45.55 305.95 52.09 300.16 59.18 294.82 66.65 291.04 75.03 287.4 83.46 285.63 92.46 283.58 101.42 283.78 110.61 286.56 120.47 294.78 126.62 303.09 128.27 310.66 124.53 316.68 118.69 318.34 110.41 318.72 101.17 321.81 92.47 325.28 83.96 330.48 76.33 336.99 69.75 344.67 64.6 352.99 60.53 362.05 58.73 371.19 58.32 379.69 59.05 387.95 61.19 395.71 64.73 402.97 69.27 409.23 75.13 414.47 81.92 418.65 89.43 421.64 97.5 422.67 106.03 423.06 114.57 422.68 123.44 420.09 131.92 417.05 140.19 413.24 148.14 408.66 155.72 402.8 162.36 396.23 168.25 389.34 173.78 381.77 178.39 373.64 181.92 364.97 183.72 356.35 185.47 347.56 186.1 338.66 186.2 329.76 186.41 320.86 186.73 311.97 185.93 303.07 186 294.17 186.7 285.27 185.99 276.38 186.13 267.48 186.32 258.58 185.75 249.68 186.51 240.78 186.54 231.88 186.16 222.98 186.55 214.08 185.99 205.19 185.96 196.29 186.14 187.4 186.1 178.5 186.22 169.6 186.1 160.71 186.32 151.81 186.15 142.91 186.19 134.01 186.05 125.11 186.47 116.21 185.77 107.31 186.56 98.41 185.93 89.51 186.52 80.61 186.49 71.71 185.85 62.81 185.8 53.91 186.72 45.01 186.37 36.1 185.86 27.2 186.21 18.29 186.26 9.39 185.74 .69 186.45 .78 194.99 .22 203.73 .12 212.48 .26 221.45"/>
      <polygon class="cls-1" points=".25 151.47 9.66 151.47 18.84 150.87 28.03 151.43 37.21 151.34 46.4 151.02 55.58 151.24 64.77 151.39 73.96 151.03 83.14 151.59 92.33 151.24 101.52 151.52 110.71 151.27 119.89 151.5 129.08 151.53 138.27 151.47 147.46 151.53 156.65 151.52 165.84 151.46 175.03 151.18 184.23 151.53 193.05 151.16 201.64 149.15 210.13 147 218.65 144.68 226.5 140.64 234.1 136.15 240.9 130.52 247.61 124.78 252.9 117.7 257.74 110.4 262.53 103.03 266.3 95.05 268.44 86.5 270.27 77.93 271.06 69.21 271.22 60.48 270.78 51.66 268.41 43.14 264.7 35.13 260.24 27.54 254.89 20.53 248.68 14.26 241.48 9.13 233.56 5.28 225.32 2.28 216.81 .1 208.02 0 198.94 .46 189.81 1.56 181.22 4.86 173.48 9.79 166.2 15.23 159.6 21.5 154.07 28.74 149.5 36.63 146.4 45.21 144.58 54.12 143.05 63.17 145.58 72.05 151.93 78.62 160.65 81 169.36 78.73 176.05 72.58 178.6 63.74 179.77 54.61 183.76 46.21 190.52 39.79 198.91 35.91 208.03 34.78 217.23 36.55 225.73 40.73 231.45 48.27 235.92 56.61 236.59 66.08 235.68 74.93 232.95 83.42 229.25 91.55 223.92 98.76 217.29 104.77 209.76 109.52 201.65 113.12 193.06 115.33 184.23 115.91 175.05 116.52 165.86 115.88 156.68 116.55 147.49 116.5 138.31 116.25 129.12 115.75 119.93 116.1 110.75 116.33 101.56 116.25 92.37 116.18 83.18 116.7 74 115.81 64.81 116.34 55.62 115.81 46.44 116.7 37.25 116.16 28.06 116.38 18.87 116.47 9.67 116.61 .29 116.04 .28 124.99 .69 133.73 .12 142.48 .25 151.47"/>
      <polygon class="cls-1" points=".34 291.38 9.54 290.88 18.6 291.66 27.66 291.03 36.72 291.54 45.78 290.89 54.84 290.83 63.9 291.56 72.96 291.1 82.02 291.64 91.08 291.27 100.14 291.63 109.2 291.1 118.26 290.98 127.32 290.79 136.39 291.33 145.45 290.74 154.51 290.9 163.57 291.73 172.64 291.15 181.7 291.55 190.76 291.06 199.83 290.97 208.89 291.72 217.95 290.97 227.02 291.24 236.09 291.19 245.16 291.51 254.23 291.32 263.14 291.7 271.8 293.92 279.72 298.02 287.14 302.89 293.49 309.09 298.72 316.25 302.92 324.07 305.76 332.52 307.09 341.37 305.77 350.72 302.04 359.34 295.97 366.54 287.78 371.22 278.54 372.64 269.48 371.34 261.09 367.64 254.51 361.22 249.89 353.22 248 344.08 246.44 336.25 241.84 329.49 234.21 326.38 224.24 327.9 215.91 333.78 213.16 343.74 214.02 352.81 215.48 361.84 218.91 370.32 223.53 378.16 228.53 385.81 235.45 391.78 242.26 397.86 250.47 401.87 258.91 405.26 267.85 406.93 276.88 407.82 285.69 406.99 294.34 405.26 302.84 402.74 310.69 398.56 317.55 392.96 324.44 387.35 329.44 380.01 334.3 372.62 338.17 364.61 340.69 356.06 341.16 347.16 341.93 338.28 341.06 329.48 338.79 320.95 336.24 312.51 332.06 304.74 328.04 296.95 323.02 289.73 317.24 283.1 311.03 276.85 303.65 272.03 296.55 266.79 288.65 262.84 280.19 260.32 271.68 258.15 263 256.88 254.23 256.29 245.17 256.57 236.11 256.02 227.04 256.28 217.98 256.5 208.92 256.48 199.86 256.32 190.81 256.31 181.74 256.1 172.69 255.86 163.63 256.4 154.57 256.04 145.51 256.65 136.45 256.15 127.38 256.09 118.32 255.85 109.26 256.48 100.2 256.39 91.13 255.99 82.07 256.53 73 256.3 63.94 256.56 54.88 255.75 45.82 256.07 36.75 256.38 27.68 256.52 18.62 256.46 9.55 256.07 .15 255.9 .53 264.99 .06 273.73 0 282.48 .34 291.38"/>
    </g>
  </g>
</svg>