<?xml version="1.0" encoding="UTF-8"?>
<svg id="Layer_2" data-name="Layer 2" xmlns="http://www.w3.org/2000/svg" viewBox="0 0 120.94 53.61">
  <defs>
    <style>
      .cls-1 {
        fill: #fcfcfc;
      }
    </style>
  </defs>
  <g id="Layer_1-2" data-name="Layer 1">
    <g>
      <path class="cls-1" d="M2.6,40.54c-2.85-2.63-2.01-3.47-2.01-7.35,0-3.88,1.02-3.88,1.02-7.76s-3.3-6.28-.45-8.91c3.07-2.85,5.26-.19,9.44-.19s4.19,.51,8.37,.51,4.19,.65,8.37,.65,4.19,1.55,8.37,1.55,4.19-2.02,8.37-2.02,4.19,.1,8.38,.1,4.19,2.12,8.37,2.12,4.19-1.96,8.38-1.96,5.03-2.15,8.11,.7c2.85,2.63-.83,3.59-.83,7.46s.72,3.88,.72,7.76c0,3.88,3.41,5.31,.56,7.95-3.07,2.85-4.36,.5-8.55,.5s-4.19-.82-8.37-.82-4.19-.36-8.37-.36-4.19,1.77-8.37,1.77-4.19-2.93-8.37-2.93-4.19,3.07-8.38,3.07-4.19,.19-8.37,.19-4.25-2.28-8.37-1.52-4.94,2.37-8.02-.48Z"/>
      <path class="cls-1" d="M117.5,21.15L78.03,.72c-4.24-2.19-9.29,.88-9.29,5.65V47.24c0,4.77,5.06,7.85,9.29,5.65l39.47-20.43c4.59-2.37,4.59-8.93,0-11.31Z"/>
    </g>
  </g>
</svg>