<?xml version="1.0" encoding="UTF-8"?>
<svg id="Layer_2" data-name="Layer 2" xmlns="http://www.w3.org/2000/svg" viewBox="0 0 700.18 345.83">
  <defs>
    <style>
      .cls-1 {
        fill: #fff;
        fill-rule: evenodd;
      }
    </style>
  </defs>
  <g id="Layer_1-2" data-name="Layer 1">
    <g>
      <polygon class="cls-1" points="4.85 68.48 12.8 72.56 20.63 76.87 28.47 81.14 36.59 84.87 44.68 88.63 52.66 92.73 61.3 95.13 69.8 97.99 78.69 99.2 87.63 99.51 96.54 99.43 105.42 98.68 114.25 97.26 122.86 94.82 131.24 91.66 138.8 86.78 146.73 82.79 154.46 78.09 162.6 74.08 170.05 68.91 178.36 65.21 185.83 60.01 194.2 56.5 202.35 52.42 211.36 50.98 220.34 50.67 229.26 51.53 238.12 53.46 246.32 57.33 254.64 60.91 262.4 65.56 270.22 70.09 278.47 73.87 285.64 79.54 293.51 84 302.12 87.74 310.34 92.36 319.45 94.72 328.56 96.81 337.83 97.98 347.13 98.69 356.46 98.83 365.76 98.03 374.97 96.46 383.84 93.57 392.93 91.39 401.41 87.48 409.48 82.85 417.23 78.79 423.9 73.03 431.82 69.2 438.97 64.13 447.3 61.19 454.43 55.85 463.13 54.15 471.58 52.39 480.06 50.01 488.71 51.44 497.44 52.08 505.28 55.98 513.26 59.38 521.43 63.21 529.36 67.45 536.64 72.81 544.49 77.2 552.77 80.78 560.07 86.23 568.46 89.55 576.59 93.46 585.28 95.88 594.06 97.73 602.84 99.32 611.73 101.29 620.61 99.03 629.74 99.43 638.52 97.22 646.7 93.31 655.06 90.06 663.72 87.4 671.52 82.87 679.15 78.08 687.31 74.27 695.09 69.72 698.87 61.94 698.09 53.37 695.96 44.72 690.96 37.31 685.84 29.8 677.64 25.83 669.06 26.37 660.82 30.23 653.81 36.18 645.14 39.2 637.07 43.24 629.04 47.61 620.24 50.08 611.13 51.15 602.22 48.95 593.41 47.34 584.86 44.38 576.75 40.35 569.26 35.23 561.33 30.88 553 27.17 545.82 21.53 537.78 17.33 530.1 13.04 522.19 9.18 514.23 5.32 505.45 3.93 496.97 1.75 488.3 0 479.51 1.36 470.63 .53 461.97 2.35 453.31 4.17 445.09 7.42 437.33 11.67 429.63 15.88 421.01 18.35 413.48 22.92 405.69 27.04 398.53 32.18 391.42 37.4 383.99 42.11 376.24 45.99 367.75 47.72 359.68 51.23 350.96 51.83 342.28 50.91 334.04 48.15 326.16 44.85 318.38 41.34 310.28 37.46 302.83 32.49 294.57 28.9 287.36 23.48 279.5 19.19 271.09 15.98 263.4 11.35 255.36 7.35 246.56 5.35 237.91 3.27 229.39 .13 220.37 .51 211.38 .18 202.81 3.09 194 4.61 185.94 8.51 177.25 10.88 169.19 14.77 161.63 19.63 153.63 23.61 145.97 28.22 138.28 32.78 130.77 37.66 122.44 41.21 122.74 41.65 114.56 45.65 105.89 48.34 97.14 51.25 87.91 51.25 78.73 50.26 69.85 47.75 61.91 42.99 53.17 40.08 45.89 34.36 37.87 29.98 29.49 26.25 21.14 25.72 13.75 30.14 8.92 37.27 3.88 44.2 1.13 52.33 1.18 60.72 4.85 68.48"/>
      <polygon class="cls-1" points="668.87 148.75 661.33 153.79 653.62 158.55 645.39 162.39 637.12 166.07 629.06 170.36 619.88 171.05 611.13 173.95 601.93 173.46 593.3 170.37 585.14 166.48 576.86 162.86 569.33 157.8 561.04 154.08 553.13 149.66 545.94 144.03 537.82 139.97 529.7 135.55 521.11 132.12 512.51 128.9 503.94 125.35 494.84 123.54 485.6 122.69 476.36 123.43 467.11 123.91 458.03 125.79 449.57 129.72 440.82 132.55 431.97 135.35 423.55 139.21 415.22 143.26 407.85 149.02 400.03 153.92 391.86 158.26 383.35 162.02 376.18 166.83 367.79 168.87 359.58 171.17 351.09 171.96 342.53 172.27 334.07 170.83 325.92 168.11 317.96 164.76 310.2 160.35 303.15 154.75 294.58 151.72 287.49 146.15 279.43 142.27 271.15 138.9 263.18 134.93 255.43 130.4 246.87 127.8 238.14 126.05 229.49 124.25 220.72 121.96 211.89 124.12 203.07 124.95 194.62 127.65 186.07 130.04 177.48 132.58 169.29 136.18 161.64 140.83 153.31 144.19 146.39 150.08 138.52 154.28 130.56 158.34 122.8 162.77 123.21 163.4 114.96 167.54 106.31 170.64 97.45 173.27 88.23 172.62 78.95 172.83 70.15 169.99 61.82 166.11 53.43 162.44 45.73 157.43 37.78 152.91 29.4 149.1 20.96 147.27 13.44 152.03 8.05 158.95 4.24 166.76 0 174.57 .05 183.54 4.89 191.13 13.17 194.66 20.7 199.46 28.5 203.81 36.47 207.84 44.82 211.01 53.12 214.22 61.2 218.17 70 219.84 78.64 222.35 87.66 221.62 96.52 221.81 105.39 221.22 113.95 218.77 123.02 218.02 130.76 213.25 139.19 210.28 147.32 206.49 154.88 201.51 162.71 196.98 170.76 192.84 178.63 188.41 185.66 182.4 194.56 180.02 202.61 175.9 211.52 174.6 220.36 172.55 229.29 174.1 237.89 176.8 246.22 180.26 254.76 183.39 262.58 187.95 270.4 192.49 278.37 196.77 285.67 202.22 293.79 206.23 302.24 210.21 310.59 214.43 319.82 216.15 328.74 218.66 337.77 221.19 347.14 220.95 356.41 220.59 365.75 220.67 374.88 218.77 384.28 217.8 392.67 213.41 401.86 211.15 409.63 205.82 417.53 201.97 424.13 196.09 431.8 191.88 439.16 187.18 446.96 183.25 454.47 178.65 462.95 176.32 471.4 174.1 480.1 173.77 488.71 174.17 497.57 174.28 505.39 178.43 513.75 181.24 521.22 186.27 528.88 190.99 537.2 194.55 544.47 199.95 552.05 204.85 560.46 208.17 568.9 211.3 576.58 216.19 585.03 219.38 594.11 220.2 602.84 222.01 611.74 222.91 620.63 221.98 629.76 222.23 638.39 219.48 646.72 216.07 655.14 212.97 663.63 209.91 671.2 204.95 679.31 201.09 686.71 195.93 694.74 191.89 700.18 184.88 699.56 175.73 696.37 167.24 690.59 160.31 684.58 153.93 677.46 149.07 668.87 148.75"/>
      <polygon class="cls-1" points="669.48 272.53 660.95 275.86 653.48 281.08 645.5 285.44 636.92 288.5 628.48 291.8 619.76 294.32 610.72 295.97 601.83 293.42 592.69 292.75 584.96 287.75 576.12 285.19 568.75 279.83 561.11 274.98 553.51 270.05 544.88 266.81 537.87 260.89 529.66 256.62 521.17 252.99 512.77 249 503.41 248.25 494.38 246.89 485.28 246.22 476.08 245.54 466.77 245.84 457.95 248.84 449.27 251.93 440.22 254.09 432.35 259.09 424.18 263.32 415.44 266.5 408.06 272.18 399.62 276 392.06 281.34 383.85 285.59 376.19 289.43 367.99 291.87 359.61 293.34 351.18 294.1 342.61 294.71 334.11 293.37 325.99 290.58 318.33 286.83 309.97 283.46 302.61 278.38 295.55 272.77 287.77 268.36 279.13 265.57 271.24 261.43 263.69 256.54 255.29 253.47 247.14 249.7 238.19 248.56 229.72 245.29 220.68 246.5 211.71 245.04 203.08 247.72 194.55 250.12 186.05 252.7 177.71 255.84 169.37 259.07 161.38 263.06 153.7 267.61 145.96 272.05 138.12 276.31 129.99 280.1 122.4 284.81 122.82 285.49 114.88 290.23 106.14 293.25 97.2 295.67 87.95 295.45 78.75 294.69 70.24 291.07 61.38 288.47 52.76 285 45.7 278.79 36.9 275.5 29.27 270.31 21.27 270.41 14.22 275.07 7.88 281.17 4.32 289.23 .12 297.14 .97 306 5.23 313.25 13.35 317.07 20.69 322.21 28.14 327.21 36.14 331.23 44.58 334.29 52.66 338.17 61.48 339.95 70.07 342.22 78.7 344.61 87.6 345.59 96.5 344.14 105.32 343.48 114.12 342.19 122.74 339.92 131.33 337.32 138.85 332.32 146.68 328.13 154.78 324.05 162.15 318.77 170.15 314.52 177.75 309.55 186.16 306.08 194.23 302.01 202.73 298.99 211.48 297.05 220.34 296.23 229.23 297.14 237.64 300.21 246.35 302.69 254.45 306.71 262.19 311.38 269.88 316.13 278.09 319.96 285.6 325.06 293.7 329.1 301.78 333.88 310.76 336.69 319.27 340.75 328.77 341.19 337.9 342.77 347.13 343.94 356.42 343.33 365.65 342.57 374.79 341.03 384.16 340.1 393.13 337.37 401.34 332.77 409.67 328.61 417.17 324.13 424.62 319.56 431.31 313.81 438.91 309.47 447.05 306.14 454.6 301.67 463.11 299.55 471.36 296.6 480.06 295.47 488.71 296.88 497.5 297.27 505.99 299.73 513.68 304.08 521.55 308.48 528.78 313.96 536.89 317.94 544.7 322.43 552.3 327.31 560.32 331.45 568.43 335.43 576.97 338.4 585.66 340.78 594.21 343.56 603.18 344.1 612.06 345.83 621.04 344.99 629.83 343.11 638.7 341.44 646.75 337.24 655.26 334.36 663.13 330.01 671.16 326 679.18 321.92 687.15 317.72 695.33 313.85 699.14 306.05 698.47 297.55 696.41 288.92 690.69 282.13 685.07 275.44 677.66 270.53 669.48 272.53"/>
    </g>
  </g>
</svg>