<?xml version="1.0" encoding="UTF-8"?>
<svg id="Layer_2" data-name="Layer 2" xmlns="http://www.w3.org/2000/svg" viewBox="0 0 513.93 512.76">
  <defs>
    <style>
      .cls-1 {
        fill: #dbb876;
      }
    </style>
  </defs>
  <g id="Layer_1-2" data-name="Layer 1">
    <path class="cls-1" d="M513.93,256c0-7.97-1.3-15.79-2.01-23.57s-1.36-15.76-2.79-23.46-4.73-15.06-6.87-22.59-4.66-14.95-7.49-22.27c-2.86-7.38-5.16-14.87-8.67-21.9-3.53-7.08-6.37-14.51-10.52-21.19s-8.49-13.37-13.24-19.65c-4.76-6.3-9.79-12.45-15.1-18.27s-10.51-11.92-16.34-17.23-13.44-8.51-19.73-13.27-11.35-11.34-18.06-15.5-14.88-5.67-21.96-9.2c-7.03-3.51-14.08-6.81-21.46-9.67s-14.43-6.29-22.05-8.45c-7.54-2.14-14.85-5.91-22.66-7.36s-15.81-1.16-23.73-1.88-15.71-.17-23.68-.17-15.84,.06-23.62,.78-15.78,1.54-23.47,2.97-14.94,5.26-22.48,7.4-16.24,1.28-23.55,4.12-13.8,8.02-20.83,11.53c-7.08,3.53-15.05,5.56-21.73,9.71s-11.2,11.56-17.48,16.31-13.7,8.09-19.52,13.41-10.77,11.52-16.08,17.35-10.05,12.06-14.81,18.35-8.67,13.02-12.84,19.74-10.25,12.29-13.78,19.37-6.46,14.45-9.32,21.83-3.79,15.32-5.95,22.94-6.19,14.72-7.64,22.53-2.92,15.6-3.65,23.52-.82,15.83-.82,23.79,1.56,15.88,2.27,23.66,3.14,15.52,4.57,23.21c1.45,7.81,1.75,15.82,3.89,23.36s4.09,15.39,6.93,22.71,8.82,13.34,12.33,20.37,5.28,15.07,9.43,21.75,10.36,11.98,15.11,18.25,8.44,13.41,13.75,19.24,10.09,12.31,15.91,17.63c5.82,5.31,13.98,7.8,20.28,12.56s11.83,10.41,18.55,14.57,13.22,8.63,20.29,12.16,13.92,7.61,21.3,10.47c7.32,2.84,15.35,3.84,22.97,6.01s14.98,5.07,22.78,6.52,15.68,1.47,23.6,2.19c7.78,.71,15.64,2.1,23.6,2.1,1.5,0,1.68-.87,3.18-.9,.75-12.43,2.21-12.37,2.21-24.83s-.69-12.45-.69-24.91,.48-12.46,.48-24.91-.36-12.46-.36-24.91-2.02-12.46-2.02-24.91,2.15-12.46,2.15-24.91-1.59-12.46-1.59-24.91,11.65-17.97,2.42-26.33c-10.19-9.23-15.03,1.84-28.78,1.84s-17.68,9.35-28.54,.91c-8.44-6.55,.38-12.02,.38-22.7s1.06-10.68,1.06-21.37-9.7-15.92-1.27-22.48c10.86-8.44,14.61-.69,28.36-.69s16.42,10,26.85,1.05c8.95-7.68-.09-11.04-.09-22.83s2.15-11.79,2.15-23.58c0-7.9-1.5-15.43-.16-22.27,1.51-7.72,5.56-14.14,8.62-20.48,3.35-6.92,6.87-13.23,11.88-18.46,5.12-5.35,11.18-9.35,17.82-12.86s13.05-6.18,20.6-7.81c6.92-1.49,14.24-3.93,22.02-3.93,8.91,0,17.3,2.42,24.65,2.78,11.92,.58,22.27,.45,25.89,.93,1.77,14.18,.63,14.45,.63,28.74s10.12,20.62-.77,29.87c-12.82,10.89-17.92-2.33-34.74-2.33-11.94,0-18.22,5.01-22.98,9.51-5.82,5.5-9.75,12.49-9.75,22.67,0,10.21-.92,10.21-.92,20.41s-4.65,12.57,2.69,19.66c7.61,7.34,9.85,.79,20.43,.79s10.58,.01,21.16,.01,13-6.98,19.9,1.04-1.41,9.43-2.79,20.11c-1.38,10.68,1.83,11.1,.45,21.78-1.38,10.68,4.2,15.02-4.61,21.22-11.29,7.94-13.87-1.88-27.67-1.88s-16.66-6.67-27.14,2.32c-8.99,7.71-1.09,11.3-1.09,23.14,0,11.84,2.62,11.84,2.62,23.68s-.4,11.84-.4,23.68c0,11.84-.14,11.84-.14,23.68s-1.76,11.84-1.76,23.68,.16,11.84,.16,23.68,.95,11.84,.95,23.69-4.2,12.33-.25,23.49c7.61-2.18,14.27-5.17,21.56-8.02,7.36-2.87,14.47-6.1,21.48-9.62s14.79-5.87,21.45-10.02,13.44-8.44,19.7-13.2,11.21-11.2,17.02-16.51c5.81-5.31,10.67-11.46,15.97-17.29,5.29-5.82,11.88-10.54,16.63-16.83s7.79-13.71,11.94-20.41c4.13-6.68,8.92-12.98,12.43-20.05s5.25-14.79,8.1-22.16c2.83-7.31,7.35-14.06,9.51-21.67,2.13-7.53,4.21-15.21,5.65-23,1.42-7.68-.23-15.82,.5-23.72s1.55-15.53,1.55-23.48c0-.18,1.65,.06,1.65,.06Z"/>
  </g>
</svg>