<?xml version="1.0" encoding="UTF-8"?>
<svg id="Layer_2" data-name="Layer 2" xmlns="http://www.w3.org/2000/svg" viewBox="0 0 512 513.89">
  <defs>
    <style>
      .cls-1 {
        fill: #d0b779;
      }
    </style>
  </defs>
  <g id="Layer_1-2" data-name="Layer 1">
    <g>
      <path class="cls-1" d="M304.17,257.89c0,8.93-1.22,17.49-5.39,24.69-4.3,7.44-10.72,13.63-18.16,17.94-7.21,4.17-15.69,5.28-24.61,5.28s-16.75-2.25-23.96-6.42c-7.44-4.3-13.04-10.22-17.34-17.66-4.17-7.21-7.55-14.91-7.55-23.84s1.26-17.86,5.43-25.07,11.41-13.2,18.85-17.5,15.65-8.38,24.58-8.38,17,4.85,24.21,9.02,13.89,10.02,18.19,17.46c4.17,7.21,7.29,15.62,7.29,24.54-.04,.41-1.52-.06-1.52-.06Z"/>
      <path class="cls-1" d="M370.62,171.19c-2.36-6.38-5.41-12.88-10.3-17.62-4.74-4.88-10.57-9.69-16.96-12.05-5.18-2.01-13.61-3.11-27.94-3.76-10.26-.47-15.77-2.13-29.7-2.23-7.12-.05-16.45,.94-29.72,.94s-22.6-.69-29.72-.64c-13.93,.1-19.41,2.31-29.66,2.78-14.33,.66-22.81,.88-27.99,2.89-6.39,2.36-10.26,9.13-15,14.02-4.88,4.74-8.51,9.8-10.87,16.19-2.01,5.18-5.26,12.48-5.91,26.81-.47,10.26,.45,15.75,.35,29.68-.05,7.12-.13,16.42-.13,29.7s.09,22.58,.14,29.7c.1,13.93-2.38,19.49-1.91,29.75,.65,14.33,2.66,22.61,4.67,27.79,2.36,6.39,7.93,11.24,12.81,15.98,4.74,4.88,10.22,8.81,16.6,11.17,5.18,2.02,12.87,4.97,27.2,5.62,10.26,.47,15.77,1.16,29.7,1.26,7.12,.05,16.44-2.44,29.71-2.44s22.58,.42,29.7,.37c13.93-.1,19.48,1.67,29.73,1.2,14.33-.65,21.76-4.63,26.93-6.65,6.41-2.47,13.23-4.64,17.99-9.39,4.75-4.75,7.21-11.46,9.69-17.87,2.01-5.18,4.13-12.78,4.79-27.12,.47-10.26,2.93-15.72,3.03-29.64,.05-7.12-2.46-16.44-2.46-29.72s-.89-22.58-.94-29.7c-.1-13.93,.68-19.4,.21-29.66-.65-14.33-3.33-21.68-5.34-26.86,0-.01,1.29-.5,1.29-.5Zm-114.62,162.16c-8.14,0-15.67-2.24-23.02-4.62s-13.9-6.68-20.24-11.3c-6.4-4.66-12.77-9.05-17.43-15.45s-6.83-13.73-9.3-21.35-4.59-14.6-4.59-22.74,1.92-15.49,4.3-22.83,4.28-15.42,8.9-21.76,11.73-10.27,18.14-14.93,11.76-11.46,19.38-13.93,15.72-3.48,23.87-3.48,16.14,2.26,23.49,4.65,15.51,5.27,21.85,9.89c6.4,4.66,12.35,10.7,17.01,17.1s8.56,13.84,11.03,21.46,1.05,15.7,1.05,23.84-1.7,15.51-4.08,22.86-4.23,15.49-8.84,21.83-10.6,11.91-17.01,16.57-13.66,7.75-21.28,10.22-15.08,3.19-23.22,3.19c-.01,0,0,.79,0,.79Zm78.47-136.31c-9.74,0-16.61-7.87-16.61-17.61s6.87-15.74,16.61-15.74,17.15,6,17.15,15.74c0,9.74-7.41,15.72-17.15,15.72-.01,0,0,1.89,0,1.89Z"/>
      <path class="cls-1" d="M256,0c-7.97,0-15.71,3.74-23.49,4.45s-15.61,1.69-23.31,3.12-15.98,1.03-23.52,3.17-14.82,5.63-22.14,8.47-15.24,4.74-22.27,8.25-12.64,9.76-19.32,13.9-15.08,5.96-21.36,10.71-9.92,12.75-15.74,18.06-13.96,8.33-19.27,14.16-8.3,13.64-13.06,19.94-8.81,12.93-12.98,19.64-8.46,13.19-11.99,20.27-7.15,13.99-10.01,21.37-6.44,14.46-8.61,22.08-4.02,15.28-5.47,23.09-1.74,15.66-2.47,23.58-.84,15.67-.84,23.63-.04,15.87,.67,23.65,.17,16.06,1.6,23.76,3.64,15.56,5.78,23.1,6.19,14.68,9.03,22,6.7,14.28,10.2,21.31,6.74,14.28,10.89,20.97,9.35,12.68,14.1,18.96c4.76,6.3,8.85,13.12,14.17,18.95s11.51,10.78,17.33,16.1,10.48,12.14,16.77,16.9,13.96,7.64,20.67,11.8,14.3,6.49,21.38,10.02,12.74,10.11,20.12,12.98c7.32,2.84,15.93,2,23.55,4.17s14.91,4.73,22.72,6.18,15.5,1.71,23.42,2.44,15.51,1.25,23.47,1.25,15.88,1.55,23.66,.83,15.46-3.48,23.16-4.91,16.17-.41,23.71-2.55c7.63-2.17,14.34-7.08,21.66-9.92s15.01-5.04,22.04-8.55,13.04-8.91,19.72-13.06,14.05-7.3,20.33-12.05,13.47-8.6,19.29-13.91,11.45-11.06,16.76-16.89,9.24-12.91,14-19.21,10.17-12.2,14.33-18.91,6.01-14.68,9.54-21.76,6.67-14.15,9.53-21.53,6.92-14.24,9.09-21.87,4.32-15.2,5.77-23.01c1.43-7.69-.26-15.85,.46-23.77s1.56-15.49,1.56-23.46,.53-15.8-.18-23.58-1.33-15.78-2.76-23.47c-1.45-7.81-2.04-15.83-4.18-23.37-2.17-7.63-7.26-14.23-10.09-21.55s-5.9-14.52-9.41-21.55c-3.53-7.08-6.13-14.59-10.28-21.28s-9.79-12.35-14.54-18.63c-4.76-6.3-9.11-12.83-14.42-18.65s-11.57-10.58-17.4-15.9-10.62-11.79-16.92-16.55c-6.28-4.75-12.94-9.02-19.65-13.18s-13.27-8.62-20.34-12.15-14.06-7.36-21.45-10.22-14.99-5.15-22.61-7.32c-7.54-2.14-15.39-3.61-23.2-5.06s-15.47-3.67-23.39-4.4-15.86,.96-23.83,.96c-.92-.22,.03-2,.03-2Zm144.22,318.41c-.31,6.91,2.38,13.2,1.43,18.49-1.2,6.69-3.05,12.56-5.08,17.79-2.54,6.56-7.97,11.62-12.12,17.13s-8.37,11.13-13.93,15.32-12.16,6.23-18.73,8.76c-5.22,2.03-10.13,6.31-16.81,7.52-5.29,.95-11.55-1.63-18.46-1.31-7.51,.34-12.45,4.38-20.07,4.52-5.09,.09-11.37-3.48-20.24-3.45-5.57,.02-12.18,2.73-20.21,2.73s-14.64,.41-20.21,.39c-8.88-.03-15.13-.67-20.22-.76-7.62-.13-12.68-.87-20.19-1.21-6.91-.32-12.69-2.11-17.97-3.06-6.69-1.2-12.16-2.89-17.38-4.92-9.81-3.69-18.94-8.72-26.28-16.2-7.48-7.34-13.45-16.11-17.15-25.92-2.03-5.22-3.31-10.95-4.51-17.64-.95-5.29,.06-11.27-.26-18.17-.35-7.51-.92-12.51-1.05-20.13-.09-5.09-1.71-11.3-1.74-20.18-.02-5.57-.74-12.19-.74-20.21s.72-14.64,.74-20.21c.03-8.88-.82-15.13-.73-20.22,.13-7.62,1.57-12.65,1.92-20.16,.31-6.91,.11-12.96,1.06-18.25,1.2-6.69,5.03-11.61,7.06-16.83,3.69-9.81,7.69-19.47,15.17-26.81,7.34-7.48,15.71-14.88,25.52-18.57,5.22-2.03,11.86-.12,18.55-1.32,5.29-.95,10.82-5.12,17.73-5.43,7.51-.34,12.63,.27,20.25,.14,5.09-.09,11.34-.94,20.21-.97,5.57-.02,12.19,.16,20.22,.16s14.63,1.92,20.21,1.94c8.88,.03,15.14-1.61,20.23-1.52,7.62,.13,12.58,3.28,20.09,3.62,6.91,.31,13.08-1.54,18.36-.59,6.69,1.2,12.09,3.94,17.31,5.97,9.81,3.69,19.88,8.16,27.22,15.64,7.48,7.34,12.15,17.33,15.84,27.14,2.03,5.22,2.09,11.15,3.3,17.83,.95,5.29,1.68,11.01,1.99,17.91,.34,7.51,2.07,12.5,2.2,20.12,.09,5.09-.97,11.33-.95,20.2,.02,5.57,2.3,12.18,2.3,20.21s-.02,14.64-.03,20.21c-.03,8.88-1.75,15.1-1.84,20.19-.13,7.62-.68,12.42-1.03,19.93-.27,.91-.99,.19-.99,.19Z"/>
    </g>
  </g>
</svg>