<?xml version="1.0" encoding="UTF-8"?>
<svg id="Layer_2" data-name="Layer 2" xmlns="http://www.w3.org/2000/svg" viewBox="0 0 312.81 68.99">
  <defs>
    <style>
      .cls-1 {
        fill: #e55d92;
      }

      .cls-2 {
        fill: #fff;
      }

      .cls-3 {
        fill: #e7925c;
      }

      .cls-4 {
        fill: #e6665d;
      }

      .cls-5 {
        fill: #7d62aa;
      }

      .cls-6 {
        fill: #476dad;
      }
    </style>
  </defs>
  <g id="Layer_1-2" data-name="Layer 1">
    <path class="cls-6" d="M175.12,46.87c-3.05,0-6.14-.04-9.27-.12-32.33-.8-64.39-5.4-99.94-10.88-6.82-1.05-13.87-2.14-20.55-4.62-5.38-2-10.37-4.85-15.19-7.61L0,6.39,1.96,2.96l30.18,17.26c4.68,2.68,9.52,5.45,14.6,7.33,6.3,2.34,13.15,3.4,19.77,4.42,35.41,5.46,67.34,10.04,99.44,10.84,37.15,.92,68.68-3.66,96.4-13.98,7.34-2.73,14.65-5.97,21.72-9.11l11.65-5.16c9.16-4.06,13.57-8.61,13.11-13.53l3.93-.36c.63,6.79-4.57,12.68-15.45,17.5l-11.63,5.16c-7.14,3.16-14.5,6.43-21.95,9.2-25.86,9.63-54.93,14.35-88.61,14.35Z"/>
    <g>
      <path class="cls-1" d="M149.55,30.95c-.46-1.14-.77-2.21-1.84-3.2-.46-.69-.77-1.37-1.08-2.06-.31-.92-.61-1.83-.77-2.75-.31-.84-1.08-1.6-1.84-2.36-.15-.23-.15-.38-.61-.53-1.23-.53-1.69-1.22-2-1.91-.15-.23-.46-.53-.77-.69-.46-.38-1.38-.61-2-.84-.15-.08-.46-.23-.61-.38-.46-.61-1.69-.84-2.92-1.07-.46-.15-1.23-.15-1.54,.3-.77-.3-1.54-.61-2.46-.99-.92,.08-1.69-.53-3.07-.46-.46,0-1.23-.08-1.69-.15-.77,0-1.38,0-2.15-.08-.31,0-.61,0-.92-.08-.92-.23-2-.31-2.92-.15-1.23,.08-2.31,.3-3.54,.23-1.23-.08-2.31,.08-3.23,.38-.61,.15-1.08,.46-2,.38,0,.08-.15,.15-.15,.38-.46-.38-.15-.38,.15-.38-.92-.08-1.38,0-2,.23-.15,.08-.46,.15-.77,.23-.92,.31-1.84,.53-2.92,.92,0,0-.31,.15-.15,.15,.15,.38-.46,.38-.77,.46-.46,.15-.92,.23-1.38,.3-.77,.23-1.54,.53-2,.92-.61,.38-1.23,.76-2,1.14-.92,.76-2,1.53-2.92,2.36-.46,.46-.92,.99-1.38,1.45-.61,.53-.46,1.3-1.69,1.75-.15,.08-.15,.23-.15,.38-.46,.92-.92,1.91-1.38,2.9-1.08,1.91-1.54,3.97-1.84,5.95-.31,1.91-.31,3.81-.46,5.72v4.42c0,.76-.77,1.53-.46,2.29,.15,.08,0,.15,0,.23,0,.23-.15,.53-.15,.76,0,.53,.15,1.07,.15,1.53,0,.23,0,.38,.15,.61,.77,1.14,1.08,2.44,2,3.59,1.54,1.91,2,3.97,2.77,6.03,.15,.38,.46,.61,.92,.92,.46,.15,.92,.38,1.08,.69,.15,.92,.61,1.68,1.84,2.44,.92,.69,1.84,1.45,3.38,1.91,.46,.23,1.08,.38,1.54,.69,.77,.46,1.54,.99,2.77,1.45,1.08,.46,2.15,.76,3.23,1.14,.61,.15,1.38,.15,2,.15,1.23-.08,2,.23,2.61,.69,.31-.08,.46-.15,.61-.15,1.38,.08,2.61,.15,4,.15,1.23,.08,2.31,.08,3.23,0,1.38-.31,2.77-.69,4.15-.99,.77-.15,1.23-.38,2.15-.31,.31,.08,.61-.08,.77-.08,.61-.38,1.54-.61,1.84-1.07,0-.15,.46-.31,.77-.31,.92-.3,1.84-.53,2.46-.76,.92-.23,1.54-.53,2.15-.84,1.23-.69,2.31-1.45,3.38-2.21,.46-.31,.92-.61,.77-.99,0-.15,.46-.46,.61-.69,.61-.76,1.54-1.6,2.15-2.52,.92-1.22,1.69-2.52,2.31-3.81,1.38-2.59,2.92-5.03,3.84-7.55,.31-.99,.61-1.91,.77-2.82,.31-1.37,.31-2.82,.46-4.27,0-.92,0-1.75,.15-2.75,0-.69,.31-1.37,.31-2.06-.15-1.37-.31-2.67-.92-3.97Zm-15.99-14.95c.31,.08,.61,.08,.92,.08-.15,0-.15,.08-.15,.15-.31-.08-.61-.08-.77-.15v-.08Z"/>
      <path class="cls-2" d="M138.75,39.51c-.05-.7-.15-1.4-.32-2.12-1.54-6.24-7.81-12.58-14.49-14.56-11.28-3.18-23.61,8.92-23.08,18.56,1.19,8.8,11.4,18.8,19.36,18.75,.06,0,.12,0,.18,0,2.42-.13,4.59-2.96,4.43-5.89-.02-.33-.02-.68,.01-1.03,.25-2.94,2.69-5.37,5.58-5.56,.03,0,.07,0,.1,0,4.37-.3,8.49-4.12,8.23-8.14Zm-34.82-.45c-.08-2.11,1.86-3.99,4.21-4.15,2.35-.15,4.25,1.64,4.28,3.93,.03,2.29-1.78,4.13-4.08,4.11-2.3-.03-4.33-1.78-4.41-3.89Zm9.94,15.33c-2.06-.14-4-2.13-4.26-4.33-.26-2.21,1.45-3.96,3.73-3.92,2.28,.04,4.15,1.93,4.19,4.25,.03,2.31-1.6,4.15-3.66,4.01Zm3.49-20.48c-2.35,.03-4.25-1.75-4.2-4.04,.06-2.29,2-4.33,4.26-4.41,2.27-.08,4.14,1.86,4.17,4.2,.02,2.34-1.88,4.22-4.24,4.26Zm12.28,5.29c-2.34-.03-4.22-1.92-4.22-4.25,0-2.32,1.86-4.15,4.19-3.98,2.33,.17,4.32,2.16,4.34,4.34,.01,2.18-1.96,3.92-4.3,3.89Z"/>
    </g>
    <g>
      <path class="cls-3" d="M80.41,17.47c-.46-1.14-.77-2.21-1.84-3.2-.46-.69-.77-1.37-1.08-2.06-.31-.92-.61-1.83-.77-2.75-.31-.84-1.08-1.6-1.84-2.36-.15-.23-.15-.38-.61-.53-1.23-.53-1.69-1.22-2-1.91-.15-.23-.46-.53-.77-.69-.46-.38-1.38-.61-2-.84-.15-.08-.46-.23-.61-.38-.46-.61-1.69-.84-2.92-1.07-.46-.15-1.23-.15-1.54,.3-.77-.3-1.54-.61-2.46-.99-.92,.08-1.69-.53-3.07-.46-.46,0-1.23-.08-1.69-.15-.77,0-1.38,0-2.15-.08-.31,0-.61,0-.92-.08-.92-.23-2-.31-2.92-.15-1.23,.08-2.31,.3-3.54,.23-1.23-.08-2.31,.08-3.23,.38-.61,.15-1.08,.46-2,.38,0,.08-.15,.15-.15,.38-.46-.38-.15-.38,.15-.38-.92-.08-1.38,0-2,.23-.15,.08-.46,.15-.77,.23-.92,.31-1.84,.53-2.92,.92,0,0-.31,.15-.15,.15,.15,.38-.46,.38-.77,.46-.46,.15-.92,.23-1.38,.3-.77,.23-1.54,.53-2,.92-.61,.38-1.23,.76-2,1.14-.92,.76-2,1.53-2.92,2.36-.46,.46-.92,.99-1.38,1.45-.61,.53-.46,1.3-1.69,1.75-.15,.08-.15,.23-.15,.38-.46,.92-.92,1.91-1.38,2.9-1.08,1.91-1.54,3.97-1.84,5.95-.31,1.91-.31,3.81-.46,5.72v4.42c0,.76-.77,1.53-.46,2.29,.15,.08,0,.15,0,.23,0,.23-.15,.53-.15,.76,0,.53,.15,1.07,.15,1.53,0,.23,0,.38,.15,.61,.77,1.14,1.08,2.44,2,3.59,1.54,1.91,2,3.97,2.77,6.03,.15,.38,.46,.61,.92,.92,.46,.15,.92,.38,1.08,.69,.15,.92,.61,1.68,1.84,2.44,.92,.69,1.84,1.45,3.38,1.91,.46,.23,1.08,.38,1.54,.69,.77,.46,1.54,.99,2.77,1.45,1.08,.46,2.15,.76,3.23,1.14,.61,.15,1.38,.15,2,.15,1.23-.08,2,.23,2.61,.69,.31-.08,.46-.15,.61-.15,1.38,.08,2.61,.15,4,.15,1.23,.08,2.31,.08,3.23,0,1.38-.31,2.77-.69,4.15-.99,.77-.15,1.23-.38,2.15-.31,.31,.08,.61-.08,.77-.08,.61-.38,1.54-.61,1.84-1.07,0-.15,.46-.31,.77-.31,.92-.3,1.84-.53,2.46-.76,.92-.23,1.54-.53,2.15-.84,1.23-.69,2.31-1.45,3.38-2.21,.46-.31,.92-.61,.77-.99,0-.15,.46-.46,.61-.69,.61-.76,1.54-1.6,2.15-2.52,.92-1.22,1.69-2.52,2.31-3.81,1.38-2.59,2.92-5.03,3.84-7.55,.31-.99,.61-1.91,.77-2.82,.31-1.37,.31-2.82,.46-4.27,0-.92,0-1.75,.15-2.75,0-.69,.31-1.37,.31-2.06-.15-1.37-.31-2.67-.92-3.97Zm-15.99-14.95c.31,.08,.61,.08,.92,.08-.15,0-.15,.08-.15,.15-.31-.08-.61-.08-.77-.15v-.08Z"/>
      <path class="cls-2" d="M67.22,40.23c-.25-1.32-1.06-2.56-1.45-3.95-.36-1.3-.6-2.67-1.06-4.03s-1.02-2.55-1.53-3.88-.98-2.57-1.51-3.88-.53-2.78-1.09-4.08-1.53-2.36-2.09-3.65-1.27-2.48-1.82-3.76-.78-2.7-1.32-3.98c0-.02,.32-.17,.31-.19-.69-1.59-3.89-.96-3.89,.71,.01,1.24,.77,2.47,.78,3.71s-.29,2.48-.29,3.72,.13,2.48,.13,3.72-.37,2.48-.37,3.72-.19,2.47-.2,3.71c0,.57,.57,1.24,1.12,1.51,.99,.48,2.09,.97,2.49,1.89s.04,2.01-.38,3.1c-.49,1.28-1.37,2.85-2.73,3.26-1.53,.47-3.33-.06-4.48-.81-1.24-.81-2.17-2.37-2.24-3.84-.06-1.63,.96-3.5,2.48-4.24,.55-.27,.84-.32,.84-.88,0-1.24,.69-2.48,.69-3.71s-.56-2.47-.56-3.71,.19-2.47,.19-3.71-.15-2.47-.14-3.71,.28-2.48,.29-3.72c0-1.67-2.45-1.97-3.13-.38,0,.02-.66-.24-.66-.23-.54,1.27-.39,2.84-.94,4.1s-1.42,2.4-1.97,3.66-1.14,2.53-1.68,3.79-1.44,2.42-1.96,3.67-.45,2.83-.94,4.09-.8,2.67-1.24,3.94c-.47,1.34-.97,2.61-1.34,3.89-.39,1.38-.55,2.73-.8,4.02-.22,1.21-.23,2.9,.9,4.12,1.01,1.09,2.59,2.01,3.9,2.32,1.46,.31,3.03-.06,4.49,.14s2.9,.92,4.37,.99,2.97-.47,4.45-.51,2.96,.12,4.44-.04,2.9-.51,4.37-.79c1.31-.28,2.46-1.26,3.48-2.36,1.12-1.22,2.29-2.53,2.08-3.76Z"/>
    </g>
    <g>
      <g>
        <path class="cls-5" d="M218.69,30.95c-.46-1.14-.77-2.21-1.84-3.2-.46-.69-.77-1.37-1.08-2.06-.31-.92-.61-1.83-.77-2.75-.31-.84-1.08-1.6-1.84-2.36-.15-.23-.15-.38-.61-.53-1.23-.53-1.69-1.22-2-1.91-.15-.23-.46-.53-.77-.69-.46-.38-1.38-.61-2-.84-.15-.08-.46-.23-.61-.38-.46-.61-1.69-.84-2.92-1.07-.46-.15-1.23-.15-1.54,.3-.77-.3-1.54-.61-2.46-.99-.92,.08-1.69-.53-3.07-.46-.46,0-1.23-.08-1.69-.15-.77,0-1.38,0-2.15-.08-.31,0-.61,0-.92-.08-.92-.23-2-.31-2.92-.15-1.23,.08-2.31,.3-3.54,.23-1.23-.08-2.31,.08-3.23,.38-.61,.15-1.08,.46-2,.38,0,.08-.15,.15-.15,.38-.46-.38-.15-.38,.15-.38-.92-.08-1.38,0-2,.23-.15,.08-.46,.15-.77,.23-.92,.31-1.84,.53-2.92,.92,0,0-.31,.15-.15,.15,.15,.38-.46,.38-.77,.46-.46,.15-.92,.23-1.38,.3-.77,.23-1.54,.53-2,.92-.61,.38-1.23,.76-2,1.14-.92,.76-2,1.53-2.92,2.36-.46,.46-.92,.99-1.38,1.45-.61,.53-.46,1.3-1.69,1.75-.15,.08-.15,.23-.15,.38-.46,.92-.92,1.91-1.38,2.9-1.08,1.91-1.54,3.97-1.84,5.95-.31,1.91-.31,3.81-.46,5.72v4.42c0,.76-.77,1.53-.46,2.29,.15,.08,0,.15,0,.23,0,.23-.15,.53-.15,.76,0,.53,.15,1.07,.15,1.53,0,.23,0,.38,.15,.61,.77,1.14,1.08,2.44,2,3.59,1.54,1.91,2,3.97,2.77,6.03,.15,.38,.46,.61,.92,.92,.46,.15,.92,.38,1.08,.69,.15,.92,.61,1.68,1.84,2.44,.92,.69,1.84,1.45,3.38,1.91,.46,.23,1.08,.38,1.54,.69,.77,.46,1.54,.99,2.77,1.45,1.08,.46,2.15,.76,3.23,1.14,.61,.15,1.38,.15,2,.15,1.23-.08,2,.23,2.61,.69,.31-.08,.46-.15,.61-.15,1.38,.08,2.61,.15,4,.15,1.23,.08,2.31,.08,3.23,0,1.38-.31,2.77-.69,4.15-.99,.77-.15,1.23-.38,2.15-.31,.31,.08,.61-.08,.77-.08,.61-.38,1.54-.61,1.84-1.07,0-.15,.46-.31,.77-.31,.92-.3,1.84-.53,2.46-.76,.92-.23,1.54-.53,2.15-.84,1.23-.69,2.31-1.45,3.38-2.21,.46-.31,.92-.61,.77-.99,0-.15,.46-.46,.61-.69,.61-.76,1.54-1.6,2.15-2.52,.92-1.22,1.69-2.52,2.31-3.81,1.38-2.59,2.92-5.03,3.84-7.55,.31-.99,.61-1.91,.77-2.82,.31-1.37,.31-2.82,.46-4.27,0-.92,0-1.75,.15-2.75,0-.69,.31-1.37,.31-2.06-.15-1.37-.31-2.67-.92-3.97Zm-15.99-14.95c.31,.08,.61,.08,.92,.08-.15,0-.15,.08-.15,.15-.31-.08-.61-.08-.77-.15v-.08Z"/>
        <path class="cls-2" d="M171.24,51.11c0-.84,0-1.68,0-2.52,.03-.1,.07-.2,.07-.3,0-.62,0-1.24,.01-1.86,.02-.49,.1-.97,.11-1.46,0-.74-.08-1.49-.05-2.23,.05-1.09,.2-2.17,.01-3.28-.07-.39,.05-.82,.05-1.24,0-.97-.03-1.95-.05-2.92,0-.19,.01-.37,.03-.56,.06-.67,.19-1.33,.04-2.02-.08-.38-.1-.83,.15-1.19,.06-.08,.02-.32-.02-.47-.17-.65-.27-1.29,.06-1.91,.04-.08,.07-.2,.07-.31-.02-.83,.17-1.52,.68-2.03,.09-.09,.13-.25,.21-.37,.41-.71,1.06-.93,1.6-1.4,.08-.07,.2-.04,.3-.06,.08-.01,.17-.01,.24-.06,.52-.37,1.08-.37,1.65-.33,.14,0,.28,0,.41,0,.51-.04,1.03-.16,1.54-.1,.58,.07,1.13,.3,1.73,.11,.4-.12,.82-.14,1.23-.13,.82,.02,1.64,.15,2.46,.14,.85-.01,1.69-.22,2.57-.06,.78,.14,1.6-.04,2.4-.07,.11,0,.23,.01,.34,.04,.26,.05,.51,.13,.77,.14,.3,.01,.6-.07,.89-.05,.85,.07,1.71-.22,2.56,.05,.07,.02,.16-.03,.23-.05,.18-.04,.36-.13,.54-.12,.37,.03,.74,.17,1.11,.18,.56,.02,1.13,0,1.69-.04,.4-.03,.79-.16,1.18-.17,.74-.02,1.47,.34,2.21-.01,.12-.06,.29,.04,.43,.08,.11,.03,.22,.1,.33,.1,.48,0,.96-.07,1.44-.01,.83,.1,1.7,.09,2.35,1.01,.16,.23,.32,.45,.51,.63,.82,.81,1.1,2.01,1.28,3.27,.07,.48,.04,.99,.03,1.48,0,1.44-.1,2.89-.01,4.31,.08,1.35-.24,2.67-.06,4.03,.06,.46-.12,.97-.13,1.46-.01,1.32,.02,2.63,.01,3.95,0,.89-.05,1.79-.08,2.68-.02,.62-.05,1.24-.02,1.86,.07,1.34-.02,2.67-.34,3.91-.44,1.68-1.43,2.73-2.6,3.5-.86,.57-1.8,.52-2.71,.51-1.7-.01-3.41-.12-5.11-.18-.94-.04-1.89-.14-2.83-.09-1.63,.09-3.26,.26-4.89,.41-1.19,.11-2.39,.29-3.58,.38-1.75,.13-3.5,.28-5.24,.28-1.15,0-2.3-.19-3.44-.4-2.1-.39-3.28-2.23-3.96-4.79-.15-.57-.27-1.15-.4-1.72Zm22.48-19.94c-.51,.07-1.04,.06-1.54,.22-1.55,.52-3.05,1.17-4.33,2.55-1.02,1.1-2.07,2.15-2.6,3.84-.17,.55-.24,1.17-.4,1.73-.27,.92-.25,1.81,0,2.73,.11,.4,.13,.85,.21,1.27,.06,.31,.12,.64,.25,.89,.37,.7,.77,1.35,1.16,2.03,.66,1.17,1.52,2.02,2.5,2.61,.83,.49,1.7,.84,2.56,1.24,.3,.14,.6,.19,.9-.04,.08-.06,.2-.04,.3-.03,.72,.02,1.46,.15,2.17,.05,.85-.11,1.71-.31,2.39-1.16,.07-.08,.18-.13,.28-.14,.31-.04,.58-.14,.73-.57,.06-.15,.23-.23,.35-.34,.18-.16,.35-.32,.52-.5,.15-.15,.29-.29,.42-.46,.4-.51,.78-1.03,1.17-1.55,.02-.02,.02-.05,.03-.08,.35-.98,.7-1.96,1.04-2.95,.11-.31,.24-.64,.25-.96,0-.69-.09-1.38-.08-2.07,0-.89-.33-1.6-.57-2.36-.09-.28-.17-.59-.31-.82-.51-.86-1.03-1.69-1.73-2.3-1.74-1.51-3.52-2.79-5.67-2.8Zm-15.44,.26c-.65-.03-1.18,.25-1.67,.68-.62,.55-.67,.83-.25,1.65,.37,.72,.81,1.29,1.54,1.03,.05-.02,.12,0,.16,.04,.28,.28,.74,.27,.94-.1,.19-.36,.42-.52,.72-.65,.39-.17,.61-1.26,.33-1.6-.51-.64-1.09-1.09-1.77-1.04Z"/>
      </g>
      <path class="cls-2" d="M198.01,39.76c-.28,1.19-.03,2.45-.48,3.58-.28,.71-.65,1.31-1.12,1.8-.98,1.04-2.05,1.73-3.34,1.49-1.13-.21-2.13-.78-2.83-2.08-.14-.25-.34-.44-.45-.7-.14-.36-.24-.75-.33-1.14-.09-.39-.13-.81-.24-1.19-.21-.69-.35-1.34,0-2.03,.08-.17,.08-.41,.09-.63,.03-.6,.18-1.11,.52-1.52,.02-.02,.04-.03,.05-.06,.32-.87,1.03-1.11,1.53-1.69,.07-.08,.15-.15,.24-.18,.52-.16,1.04-.41,1.57-.44,.5-.03,1,.17,1.5,.25,.55,.08,1.1,.15,1.47,.82,.75,.08,.96,1.02,1.31,1.65,.31,.56,.36,1.37,.53,2.07Z"/>
    </g>
    <g>
      <path class="cls-4" d="M287.83,17.47c-.46-1.14-.77-2.21-1.84-3.2-.46-.69-.77-1.37-1.08-2.06-.31-.92-.61-1.83-.77-2.75-.31-.84-1.08-1.6-1.84-2.36-.15-.23-.15-.38-.61-.53-1.23-.53-1.69-1.22-2-1.91-.15-.23-.46-.53-.77-.69-.46-.38-1.38-.61-2-.84-.15-.08-.46-.23-.61-.38-.46-.61-1.69-.84-2.92-1.07-.46-.15-1.23-.15-1.54,.3-.77-.3-1.54-.61-2.46-.99-.92,.08-1.69-.53-3.07-.46-.46,0-1.23-.08-1.69-.15-.77,0-1.38,0-2.15-.08-.31,0-.61,0-.92-.08-.92-.23-2-.31-2.92-.15-1.23,.08-2.31,.3-3.54,.23-1.23-.08-2.31,.08-3.23,.38-.61,.15-1.08,.46-2,.38,0,.08-.15,.15-.15,.38-.46-.38-.15-.38,.15-.38-.92-.08-1.38,0-2,.23-.15,.08-.46,.15-.77,.23-.92,.31-1.84,.53-2.92,.92,0,0-.31,.15-.15,.15,.15,.38-.46,.38-.77,.46-.46,.15-.92,.23-1.38,.3-.77,.23-1.54,.53-2,.92-.61,.38-1.23,.76-2,1.14-.92,.76-2,1.53-2.92,2.36-.46,.46-.92,.99-1.38,1.45-.61,.53-.46,1.3-1.69,1.75-.15,.08-.15,.23-.15,.38-.46,.92-.92,1.91-1.38,2.9-1.08,1.91-1.54,3.97-1.84,5.95-.31,1.91-.31,3.81-.46,5.72v4.42c0,.76-.77,1.53-.46,2.29,.15,.08,0,.15,0,.23,0,.23-.15,.53-.15,.76,0,.53,.15,1.07,.15,1.53,0,.23,0,.38,.15,.61,.77,1.14,1.08,2.44,2,3.59,1.54,1.91,2,3.97,2.77,6.03,.15,.38,.46,.61,.92,.92,.46,.15,.92,.38,1.08,.69,.15,.92,.61,1.68,1.84,2.44,.92,.69,1.84,1.45,3.38,1.91,.46,.23,1.08,.38,1.54,.69,.77,.46,1.54,.99,2.77,1.45,1.08,.46,2.15,.76,3.23,1.14,.61,.15,1.38,.15,2,.15,1.23-.08,2,.23,2.61,.69,.31-.08,.46-.15,.61-.15,1.38,.08,2.61,.15,4,.15,1.23,.08,2.31,.08,3.23,0,1.38-.31,2.77-.69,4.15-.99,.77-.15,1.23-.38,2.15-.31,.31,.08,.61-.08,.77-.08,.61-.38,1.54-.61,1.84-1.07,0-.15,.46-.31,.77-.31,.92-.3,1.84-.53,2.46-.76,.92-.23,1.54-.53,2.15-.84,1.23-.69,2.31-1.45,3.38-2.21,.46-.31,.92-.61,.77-.99,0-.15,.46-.46,.61-.69,.61-.76,1.54-1.6,2.15-2.52,.92-1.22,1.69-2.52,2.31-3.81,1.38-2.59,2.92-5.03,3.84-7.55,.31-.99,.61-1.91,.77-2.82,.31-1.37,.31-2.82,.46-4.27,0-.92,0-1.75,.15-2.75,0-.69,.31-1.37,.31-2.06-.15-1.37-.31-2.67-.92-3.97Zm-15.99-14.95c.31,.08,.61,.08,.92,.08-.15,0-.15,.08-.15,.15-.31-.08-.61-.08-.77-.15v-.08Z"/>
      <path class="cls-2" d="M275.75,19.98c-.48,.26-.43,.32-.91,.59-.48,.27-.54,.19-1.02,.47-.49,.27-.43,.36-.92,.64-.49,.28-.47,.31-.97,.6-.5,.29-.48,.8-1.05,.54-.52-.24,0-.54-.01-1.07-.02-.53-.12-.53-.15-1.06-.03-.53,.15-.52,.12-1.04-.03-.53-.16-.54-.2-1.07-.04-.53,.07-.52,.03-1.05-.03-.33-.13-.68-.27-.97-.16-.32-.45-.56-.71-.78-.28-.24-.56-.35-.88-.38-.55-.05-.56-.16-1.12-.21-.55-.05-.55,.04-1.1,0-.55-.04-.55-.05-1.11-.1-.55-.04-.55,.01-1.11-.03-.55-.04-.56-.18-1.11-.22-.55-.03-.55,.07-1.1,.04-.55-.03-.55,0-1.11-.03-.55-.02-.56-.05-1.11-.07-.55-.02-.55-.08-1.11-.1-.55-.02-.55,.07-1.11,.05-.55-.01-.55-.13-1.11-.14-.55,0-.56,.1-1.11,.1-.55,0-.55-.07-1.11-.07-.55,0-.55-.04-1.11-.04-.55,0-.55-.08-1.1-.07-.55,0-.56,.03-1.11,.04-.55,.01-.55,.02-1.11,.03-.55,.01-.56,.04-1.11,.06-.55,.02-.56,.12-1.12,.14-.55,.02-.54-.13-1.09-.11-.55,.03-.57,.13-1.12,.16-.55,.03-.55-.03-1.1,0-.55,.03-.56,.06-1.11,.09-.55,.04-.56,.11-1.12,.15-.56,.04-.55,0-1.11,.05-.56,.04-.55-.01-1.1,.03-.33,.03-.63,.27-.92,.5-.27,.22-.58,.44-.76,.77-.16,.29-.18,.62-.23,.96-.08,.53-.15,.54-.21,1.07-.07,.53-.12,.54-.18,1.07-.06,.53,.06,.53,.01,1.06-.05,.53-.08,.54-.12,1.07-.04,.53-.07,.53-.1,1.07-.02,.53-.03,.53-.05,1.07-.01,.53,.08,.53,.07,1.06,0,.53-.03,.53-.03,1.07,0,.53-.07,.53-.06,1.07,.02,.53,0,.53,.03,1.06,.03,.53,.1,.53,.14,1.06,.04,.53-.05,.53,0,1.06,.05,.53,.17,.53,.22,1.07,.06,.53-.08,.53-.01,1.06,.07,.53,.21,.54,.29,1.07,.08,.53,.09,.53,.17,1.07,.09,.53,0,.53,.1,1.06,.1,.53,.19,.54,.29,1.07,.11,.53,.1,.53,.22,1.06,.12,.53,.11,.53,.24,1.06,.13,.53,.06,.53,.2,1.06,.14,.53,.09,.53,.24,1.06,.1,.34,.35,.66,.54,.95,.21,.32,.49,.55,.76,.77,.3,.23,.59,.47,.88,.49,.5,.04,.48-.03,.98,0,.5,.04,.53,.14,1.03,.18,.5,.04,.48-.03,.99,0,.5,.03,.51,.05,1.01,.08,.5,.03,.5,.02,1,.05,.5,.03,.5,0,1,.02,.5,.02,.51,.07,1.01,.09,.5,.02,.51,.06,1.01,.07,.5,.02,.5-.03,1-.02,.5,.01,.51,.05,1.01,.06,.5,0,.49-.07,.99-.07,.5,0,.5,.01,1,.02,.5,0,.51,.13,1.01,.13,.5,0,.5-.04,1-.05,.5,0,.5-.07,1-.08,.5,0,.5,.07,1,.06,.5-.01,.5,0,1,0,.5-.02,.5-.03,1-.05,.5-.02,.5-.04,1-.06,.5-.02,.51-.13,1.01-.16,.5-.03,.5-.04,1.01-.07,.5-.03,.5-.05,1.01-.08,.5-.03,.5-.05,1.01-.09,.5-.04,.5,0,1-.04,.5-.04,.5,0,1-.05,.5-.04,.51-.1,1.01-.15,.3-.03,.59-.09,.86-.32,.24-.21,.48-.51,.65-.83,.15-.29,.23-.62,.28-.95,.09-.53,.19-.53,.27-1.06,.08-.53-.04-.52,.03-1.04,.07-.53,.04-.52,.11-1.05,.07-.53,.08-.53,.14-1.06,.06-.53-.34-.87,.17-1.11,.56-.25,.48,.33,.92,.62,.44,.29,.43,.31,.86,.59,.43,.28,.44,.27,.87,.55,.42,.28,.46,.24,.88,.51,.42,.27,.4,.29,.81,.55,.27,.18,.57,.18,.89,.12,.34-.07,.66-.2,.97-.45,.28-.23,.58-.49,.79-.83,.18-.29,.29-.63,.36-.97,.1-.5,.05-.49,.15-.99,.09-.5,.1-.5,.19-.99,.08-.5,.19-.5,.27-1,.07-.5-.02-.49,.05-.99,.06-.5,.16-.5,.22-.99,.05-.5-.06-.49-.01-.99,.04-.5,.09-.5,.13-.99,.04-.5,.07-.5,.1-.99,.03-.5-.06-.5-.05-.99,.01-.5,.05-.49,.06-.99,0-.5,0-.5,0-.99,0-.5,.03-.49,.02-.99-.01-.5,.04-.49,.02-.99-.02-.5-.04-.5-.07-.99-.02-.35-.1-.69-.24-.98-.17-.34-.51-.56-.78-.79-.3-.26-.59-.57-.95-.64-.34-.07-.73,0-1.05,.17Zm-31.11,5.42c-.36,0-.71-.01-1.01-.19-.29-.17-.48-.46-.68-.75-.19-.26-.43-.52-.52-.86-.09-.31-.17-.66-.15-1.02,.01-.36,.13-.7,.24-1.02,.12-.35,.32-.65,.52-.93,.22-.3,.44-.63,.74-.82,.31-.19,.69-.15,1.04-.16,.35-.01,.71-.04,1,.13,.28,.16,.44,.48,.63,.77,.18,.27,.31,.56,.4,.91,.08,.32,.23,.65,.22,1.01,0,.36-.05,.73-.15,1.05-.11,.35-.36,.63-.56,.9-.21,.3-.41,.62-.7,.79-.3,.18-.67,.18-1.03,.19Z"/>
    </g>
  </g>
</svg>