<?xml version="1.0" encoding="UTF-8"?>
<svg id="Layer_2" data-name="Layer 2" xmlns="http://www.w3.org/2000/svg" viewBox="0 0 513.93 513.21">
  <defs>
    <style>
      .cls-1 {
        fill: #dbb875;
      }
    </style>
  </defs>
  <g id="Layer_1-2" data-name="Layer 1">
    <path class="cls-1" d="M375.93,235.43c-10.27,7.14-10.49,6.71-20.28,14.5-9.79,7.79-10.5,6.9-20.28,14.7s-8.43,9.49-18.22,17.29-9.88,7.68-19.67,15.47c-9.79,7.79-10.79,6.54-20.58,14.34s-7.06,17.57-19.57,17.57-9.67-9.92-19.46-17.71c-9.79-7.79-9.62-8-19.41-15.8s-10.4-7.03-20.19-14.82c-9.79-7.79-10.11-7.39-19.9-15.19-9.79-7.79-8.39-9.55-18.18-17.35s-9.97-7.62-20.25-14.76c-1.17-.81-4.22-1.45-4.37-.03-1.42,12.66,3.38,12.89,3.38,25.63s-1.02,12.73-1.02,25.47-.62,12.73-.62,25.47,.4,12.73,.4,25.47-2.37,12.74-2.37,25.47-5.64,14.84,3.1,24.1c8.26,8.75,10.58,1.65,22.61,1.65s12.03-.27,24.06-.27,12.03-1.28,24.06-1.28,12.03,1.61,24.06,1.61,12.03-.05,24.06-.05,12.03,.6,24.06,.6,12.03-1.19,24.06-1.19,12.03-.26,24.07-.26,12.03-.15,24.07-.15,17.21,10.79,25.47,2.04c8.75-9.26-2.43-14.06-2.43-26.8s1.67-12.73,1.67-25.47c0-12.73-1.54-12.73-1.54-25.47,0-12.73,.71-12.73,.71-25.47s-.59-12.74-.59-25.47-.48-12.71-.76-25.44c-.03-1.19,.98,.79-.19,1.6Zm0,0c-10.27,7.14-10.49,6.71-20.28,14.5-9.79,7.79-10.5,6.9-20.28,14.7s-8.43,9.49-18.22,17.29-9.88,7.68-19.67,15.47c-9.79,7.79-10.79,6.54-20.58,14.34s-7.06,17.57-19.57,17.57-9.67-9.92-19.46-17.71c-9.79-7.79-9.62-8-19.41-15.8s-10.4-7.03-20.19-14.82c-9.79-7.79-10.11-7.39-19.9-15.19-9.79-7.79-8.39-9.55-18.18-17.35s-9.97-7.62-20.25-14.76c-1.17-.81-4.22-1.45-4.37-.03-1.42,12.66,3.38,12.89,3.38,25.63s-1.02,12.73-1.02,25.47-.62,12.73-.62,25.47,.4,12.73,.4,25.47-2.37,12.74-2.37,25.47-5.64,14.84,3.1,24.1c8.26,8.75,10.58,1.65,22.61,1.65s12.03-.27,24.06-.27,12.03-1.28,24.06-1.28,12.03,1.61,24.06,1.61,12.03-.05,24.06-.05,12.03,.6,24.06,.6,12.03-1.19,24.06-1.19,12.03-.26,24.07-.26,12.03-.15,24.07-.15,17.21,10.79,25.47,2.04c8.75-9.26-2.43-14.06-2.43-26.8s1.67-12.73,1.67-25.47c0-12.73-1.54-12.73-1.54-25.47,0-12.73,.71-12.73,.71-25.47s-.59-12.74-.59-25.47-.48-12.71-.76-25.44c-.03-1.19,.98,.79-.19,1.6ZM257.32,1.99c-7.98,0-15.82-.93-23.62-.21s-15.91,.69-23.62,2.13c-7.82,1.45-14.97,5.36-22.52,7.51s-15.04,4.5-22.38,7.34-15.21,4.58-22.26,8.1c-7.09,3.54-12.95,9.08-19.65,13.24s-14.41,6.82-20.7,11.58c-6.31,4.77-12.59,9.64-18.43,14.96s-10.74,11.61-16.07,17.45-9.94,12.19-14.72,18.5-11.1,11.55-15.27,18.28c-4.16,6.7-7.12,14.18-10.66,21.27s-7.92,13.83-10.79,21.23-2.14,15.89-4.31,23.53-4.91,14.89-6.36,22.72-3.12,15.4-3.85,23.34-.67,15.67-.67,23.65-2,16.03-1.29,23.83,5.42,15.26,6.85,22.97,1.03,15.96,3.17,23.52,4.94,15.07,7.79,22.4,7.21,14.06,10.73,21.11,5.98,14.74,10.13,21.44,8.71,13.25,13.47,19.54,9.41,12.82,14.73,18.65c5.33,5.84,11.78,10.61,17.62,15.94,5.84,5.32,12.06,10.15,18.37,14.93,6.3,4.76,12.86,9.08,19.58,13.25s12.37,10.35,19.46,13.89,15.51,4.03,22.91,6.9,14.29,6.94,21.93,9.11c7.56,2.15,15.6,2.46,23.42,3.91s15.4,3.22,23.33,3.95c7.8,.71,15.68,.49,23.66,.49s15.74-1.12,23.54-1.84,15.67-1.56,23.39-2.99c7.82-1.45,15.34-3.47,22.9-5.62,7.64-2.17,15.95-2.21,23.29-5.05s14.43-6.7,21.47-10.22,14.7-6.33,21.41-10.49,13.39-8.72,19.69-13.49,11.46-11.09,17.29-16.41,12.71-9.77,18.04-15.61,10.11-12.34,14.88-18.65c4.76-6.29,7.68-13.93,11.85-20.66,4.16-6.7,7.91-13.6,11.44-20.7,3.52-7.05,5.69-14.62,8.56-22.01s5.33-14.67,7.5-22.32,6.18-14.68,7.64-22.51c1.43-7.71,.35-15.8,1.07-23.74,.71-7.8,1.97-15.55,1.97-23.54s-.59-15.8-1.31-23.6c-.73-7.94-.57-15.92-2.01-23.63s-3.39-15.52-5.54-23.08c-2.17-7.64-5.86-14.71-8.7-22.04s-5.66-14.73-9.18-21.77-7.89-13.63-12.04-20.33-7.57-13.93-12.33-20.22-11.19-11.16-16.51-16.99-9.67-12.56-15.51-17.89c-5.84-5.32-12.61-9.45-18.92-14.22s-11.13-11.73-17.86-15.91-15.1-5.39-22.19-8.93-14.26-6.44-21.66-9.31-14.31-6.69-21.95-8.87-15.54-2.38-23.36-3.83-15.26-3.89-23.2-4.62-15.67,.61-23.65,.61Zm133.16,397.41c-8.27,8.66-13.41-.67-25.39-.67-11.97,0-11.97-1.14-23.95-1.14-11.97,0-11.97,2.17-23.94,2.17-11.97,0-11.97-.15-23.95-.15-11.97,0-11.97-1.6-23.95-1.6s-11.98,1.99-23.95,1.99-11.98-2.17-23.95-2.17c-11.98,0-11.98-.27-23.95-.27-11.98,0-11.98,.98-23.95,.98s-11.98,.51-23.95,.51-14.8,6.79-23.07-1.87c-8.66-9.07-.73-11.7-.73-24.25s1.29-12.54,1.29-25.09-3.39-12.54-3.39-25.09,1.02-12.54,1.02-25.09,.62-12.55,.62-25.09-.4-12.55-.4-25.09-3.08-13.02,2.22-24.4,6.65-9.9,16.06-17.56c9.41-7.66,10.85-5.89,20.25-13.55,9.41-7.65,9.24-7.86,18.64-15.52s8.6-8.65,18.01-16.31,10.42-6.41,19.83-14.07q9.41-7.66,18.79-15.36c9.41-7.66,6.51-14.65,18.64-14.65s9.6,6.53,19.01,14.19,9.57,7.46,18.98,15.11,9.5,7.54,18.91,15.19c9.41,7.66,7.74,9.71,17.15,17.37s11.28,5.36,20.69,13.02c9.41,7.66,8.36,8.96,17.77,16.61,9.41,7.66,14.92,3.44,20.04,14.44s-.63,12.92-.63,25.46,.59,12.54,.59,25.09,.76,12.54,.76,25.09c0,12.54-.24,12.54-.24,25.09s.24,12.55,.24,25.09c0,12.55-5.49,13.14-2.58,25.34,3.27,13.73,11.16,17.14,2.49,26.22ZM138.72,235.43c-1.17-.81-.86-2.97-1.02-1.56-1.42,12.66-1.13,12.66-1.13,25.39s2.17,12.73,2.17,25.47-.15,12.73-.15,25.47-1.6,12.73-1.6,25.47,1.99,12.74,1.99,25.47-10.86,16.35-2.11,25.6c8.26,8.75,12.17,.33,24.2,.33s12.03-.98,24.06-.98,12.03-.51,24.06-.51,12.03,2.25,24.06,2.25,12.03-1.06,24.06-1.06,12.03,1.29,24.06,1.29,12.03-3.39,24.06-3.39,12.03,1.02,24.07,1.02,12.03,.62,24.07,.62,15.28,8.57,23.54-.18c8.75-9.26,2.17-12.24,2.17-24.97s-3.65-12.73-3.65-25.47c0-12.73,2.28-12.73,2.28-25.47,0-12.73-.27-12.73-.27-25.47s-1.28-12.74-1.28-25.47,3.02-12.85,1.6-25.51c-.16-1.42-2.18-1.01-3.35-.2-10.27,7.14-10.18,7.33-19.96,15.13s-9.05,8.72-18.84,16.52-9.63,8-19.41,15.79-9.69,7.91-19.48,15.71-11.44,5.72-21.23,13.52-5.86,18.12-18.38,18.13-9.39-9.32-19.17-17.12-10.75-6.59-20.54-14.38c-9.79-7.79-9.34-8.35-19.13-16.14s-10.15-7.33-19.94-15.13-9.99-7.48-20.02-14.96-9.53-8.04-19.8-15.18Zm237.21,0c-10.27,7.14-10.49,6.71-20.28,14.5-9.79,7.79-10.5,6.9-20.28,14.7s-8.43,9.49-18.22,17.29-9.88,7.68-19.67,15.47c-9.79,7.79-10.79,6.54-20.58,14.34s-7.06,17.57-19.57,17.57-9.67-9.92-19.46-17.71c-9.79-7.79-9.62-8-19.41-15.8s-10.4-7.03-20.19-14.82c-9.79-7.79-10.11-7.39-19.9-15.19-9.79-7.79-8.39-9.55-18.18-17.35s-9.97-7.62-20.25-14.76c-1.17-.81-4.22-1.45-4.37-.03-1.42,12.66,3.38,12.89,3.38,25.63s-1.02,12.73-1.02,25.47-.62,12.73-.62,25.47,.4,12.73,.4,25.47-2.37,12.74-2.37,25.47-5.64,14.84,3.1,24.1c8.26,8.75,10.58,1.65,22.61,1.65s12.03-.27,24.06-.27,12.03-1.28,24.06-1.28,12.03,1.61,24.06,1.61,12.03-.05,24.06-.05,12.03,.6,24.06,.6,12.03-1.19,24.06-1.19,12.03-.26,24.07-.26,12.03-.15,24.07-.15,17.21,10.79,25.47,2.04c8.75-9.26-2.43-14.06-2.43-26.8s1.67-12.73,1.67-25.47c0-12.73-1.54-12.73-1.54-25.47,0-12.73,.71-12.73,.71-25.47s-.59-12.74-.59-25.47-.48-12.71-.76-25.44c-.03-1.19,.98,.79-.19,1.6Zm0,0c-10.27,7.14-10.49,6.71-20.28,14.5-9.79,7.79-10.5,6.9-20.28,14.7s-8.43,9.49-18.22,17.29-9.88,7.68-19.67,15.47c-9.79,7.79-10.79,6.54-20.58,14.34s-7.06,17.57-19.57,17.57-9.67-9.92-19.46-17.71c-9.79-7.79-9.62-8-19.41-15.8s-10.4-7.03-20.19-14.82c-9.79-7.79-10.11-7.39-19.9-15.19-9.79-7.79-8.39-9.55-18.18-17.35s-9.97-7.62-20.25-14.76c-1.17-.81-4.22-1.45-4.37-.03-1.42,12.66,3.38,12.89,3.38,25.63s-1.02,12.73-1.02,25.47-.62,12.73-.62,25.47,.4,12.73,.4,25.47-2.37,12.74-2.37,25.47-5.64,14.84,3.1,24.1c8.26,8.75,10.58,1.65,22.61,1.65s12.03-.27,24.06-.27,12.03-1.28,24.06-1.28,12.03,1.61,24.06,1.61,12.03-.05,24.06-.05,12.03,.6,24.06,.6,12.03-1.19,24.06-1.19,12.03-.26,24.07-.26,12.03-.15,24.07-.15,17.21,10.79,25.47,2.04c8.75-9.26-2.43-14.06-2.43-26.8s1.67-12.73,1.67-25.47c0-12.73-1.54-12.73-1.54-25.47,0-12.73,.71-12.73,.71-25.47s-.59-12.74-.59-25.47-.48-12.71-.76-25.44c-.03-1.19,.98,.79-.19,1.6Z"/>
  </g>
</svg>