<?xml version="1.0" encoding="UTF-8"?>
<svg id="Layer_2" data-name="Layer 2" xmlns="http://www.w3.org/2000/svg" viewBox="0 0 519.67 521.19">
  <defs>
    <style>
      .cls-1 {
        fill: #fff;
      }
    </style>
  </defs>
  <g id="Layer_1-2" data-name="Layer 1">
    <path class="cls-1" d="M259.68,2.83c-8.07,0-15.91,.61-23.79,1.33s-16.27-.75-24.06,.7-15.6,3.97-23.23,6.14-15.79,3.57-23.2,6.45-14.93,6.19-22.05,9.75-13.45,8.9-20.22,13.1c-6.8,4.22-14.43,7.39-20.79,12.2s-12.32,10.4-18.22,15.78-10.22,12.42-15.61,18.32-10.38,12.06-15.21,18.43-8.39,13.47-12.61,20.26-8.05,13.59-11.64,20.76-8.88,13.45-11.79,20.92c-2.88,7.41-3.34,15.64-5.54,23.36s-4.86,15.11-6.33,23.01-2.32,15.67-3.05,23.68-2.34,15.78-2.34,23.84,.5,16.07,1.22,23.95,3.07,15.72,4.52,23.52,2.89,15.7,5.06,23.34c2.2,7.72,5.3,15.02,8.18,22.43,2.9,7.47,4.95,15.25,8.51,22.37s9.04,13.17,13.25,19.94,7.31,14.26,12.13,20.62c4.82,6.37,10.78,11.73,16.16,17.63s8.92,13.7,14.82,19.08,13.99,8.18,20.36,13.01c6.36,4.81,12.98,9.06,19.78,13.28s12.98,9.32,20.14,12.9c7.12,3.56,15,5.3,22.47,8.2s14.45,6.72,22.17,8.92,15.55,3.13,23.45,4.6,15.44,4.22,23.46,4.95,15.91,1.55,23.97,1.55,16.08-.98,23.96-1.71c8.02-.74,15.7-3.26,23.49-4.72,7.9-1.47,15.92-2.1,23.56-4.27s14.79-6.07,22.21-8.95,15.45-4.54,22.57-8.1,13.97-7.83,20.74-12.03,12.87-9.44,19.23-14.26,13.12-9.17,19.02-14.55c5.9-5.38,12.47-10.23,17.85-16.13,5.38-5.9,9.05-13.29,13.88-19.66,4.81-6.36,9.8-12.61,14.02-19.4s7.46-14.08,11.04-21.24,7.2-14.2,10.11-21.68,4.52-15.22,6.72-22.95,6.39-14.86,7.87-22.76c1.45-7.79,2.68-15.82,3.41-23.84s.06-15.99,.06-24.06-.43-16.08-1.15-23.96-3.34-15.68-4.8-23.47-3.43-15.53-5.6-23.17-3.09-15.8-5.97-23.21c-2.9-7.47-7.84-13.97-11.4-21.09s-5.68-15.1-9.89-21.86c-4.22-6.8-9.44-12.92-14.26-19.28s-9.79-12.61-15.17-18.51-11.33-11.22-17.23-16.6c-5.9-5.38-11.04-11.73-17.42-16.55s-14.17-7.55-20.97-11.77-13.89-7.58-21.05-11.16-13.95-7.6-21.42-10.5-15.24-4.29-22.96-6.49c-7.64-2.18-14.81-6.27-22.71-7.75s-15.81-1.88-23.83-2.61-16.08-2.91-24.15-2.91c-.64,.1,.25,2.83,.25,2.83ZM42.59,280.24c12.92,0,12.92-.24,25.85-.24s12.93,2.61,25.85,2.61,13.45-4.76,25.72-.68c.36,8.71-.63,17.04,.16,25.47s1.85,17.32,3.1,25.67,4.47,16.72,6.23,24.96c-10.01,4.14-10.78-1.73-21.61-1.73s-10.83,.48-21.66,.48-11.48,5.1-21.83,1.9c-3.97-7.93-7.91-16.44-10.91-24.88-2.96-8.34-6.5-16.75-8.44-25.52s-3.31-17.65-4.15-26.62c-.05-.64,1.69-1.43,1.69-1.43ZM279.45,123.32c-9.13-8.27-.67-13.27-.67-25.59s2.61-12.32,2.61-24.64-4.15-12.7-.68-24.52c6.25,3.33,10.82,9.18,16.83,15.3,5.05,5.14,9.75,10.99,14.45,17.94,4.11,6.07,9.35,11.92,13.08,19.28,3.36,6.63,6.12,11.92,9.09,19.51-12.98,4.07-13.67-2.53-26.94,.43-14.55,3.25-17.69,11.43-27.77,2.3Zm68.48,39.09c1.94,8.11,4.75,17.52,6.2,26.27,1.38,8.26-.06,17.16,.84,25.95s2.43,16.44,2.82,25.24c-12.23,4.22-12.8-1.3-25.73-1.3s-12.94-.02-25.87-.02-16.57,10.7-25.77,1.61,1.76-12.67,1.76-25.44-.48-12.77-.48-25.55-10.21-16.3-1.79-25.91c7.38-8.42,11.61-.28,22.81-.28s11.07,.46,22.17-1.06,12.42-3.06,23.05,.49ZM240.28,48.08c3.47,11.82,.3,12.68,.3,25s-2.61,12.32-2.61,24.64,9.93,16.06,.8,24.33c-10.08,9.13-13.32-1.38-26.92-1.38s-13.71,4.13-26.69,.06c2.97-7.59,5.77-13.02,9.13-19.65,3.73-7.36,9.09-13.12,13.2-19.2,4.7-6.95,9.06-13.11,14.1-18.25,6-6.11,12.45-12.22,18.69-15.55Zm-.27,114.7c8.42,9.6,.56,13.62,.56,26.39s-2.61,12.77-2.61,25.55,9.88,16.27,.79,25.25-12.64-1.4-25.57-1.4-12.94-.02-25.87-.02-13.6,5.8-25.83,1.58c.39-8.8,2.83-17.06,3.68-25.42,.9-8.79,1.56-17.29,2.94-25.55,1.46-8.75,1.64-17.94,3.57-26.05,10.63-3.54,11.37-.12,22.57-.12s11.11,1.6,22-1.03c12.23-2.95,16.39-7.6,23.78,.83Zm-119.86,78.77c-12.93,0-12.93,.24-25.85,.24s-12.93-2.61-25.85-2.61-13.54,5.05-25.71,.69c.85-8.96,3.75-17.01,5.66-25.62s4.36-17.13,7.32-25.47,4.92-17.08,8.9-25.01c10.35-3.2,10.79,1.72,21.62,1.72s10.83-.48,21.66-.48,11.86-6.02,21.87-1.88c-1.75,8.24-2.86,17.3-4.16,25.95s-1.21,16.95-2.03,25.64c-.79,8.42-1.38,16.9-1.74,25.61-.02,.64-1.69,1.23-1.69,1.23Zm40.86,38.76c12.23-4.22,13.36-.31,26.29-.31s12.94,2.61,25.87,2.61,16.37-9.87,25.58-.78c9.09,8.97-1.4,12.47-1.4,25.24s-.02,12.77-.02,25.55,10.03,15.85,1.61,25.45c-7.38,8.42-11.09-1.77-22.29-1.77s-11.2,.48-22.4,.48-11.95,5.44-22.58,1.9c-1.93-8.11-4.1-16.96-5.56-25.71-1.38-8.26-3.61-16.73-4.51-25.52s-.2-18.35-.59-27.14Zm78.9,118.15c9.13,8.27,.67,13.27,.67,25.59s-2.61,12.32-2.61,24.64,4.15,12.7,.68,24.52c-6.25-3.33-10.82-9.18-16.83-15.3-5.05-5.14-9.75-10.99-14.45-17.94-4.11-6.07-9.35-11.92-13.08-19.28-3.36-6.63-6.12-11.92-9.09-19.51,12.98-4.07,13.67,2.53,26.94-.43,14.55-3.25,17.69-11.43,27.77-2.3Zm39.17,75.25c-3.47-11.82-.3-12.68-.3-25s2.61-12.32,2.61-24.64-9.93-16.06-.8-24.33c10.08-9.13,13.32,1.38,26.92,1.38s13.71-4.13,26.69-.06c-2.97,7.59-5.77,13.02-9.13,19.65-3.73,7.36-9.09,13.13-13.2,19.2-4.7,6.95-9.06,13.11-14.1,18.25-6,6.11-12.45,12.22-18.69,15.55Zm.27-114.7c-8.42-9.6-.56-13.62-.56-26.39s2.61-12.77,2.61-25.55-9.88-16.27-.79-25.25c9.2-9.09,12.64,1.4,25.57,1.4s12.94,.02,25.87,.02,13.6-5.8,25.83-1.58c-.39,8.8-2.83,17.06-3.69,25.42-.9,8.79-1.56,17.29-2.93,25.55-1.46,8.75-1.63,17.94-3.57,26.05-10.62,3.54-11.37,.12-22.57,.12s-11.11-1.6-22,1.03c-12.23,2.95-16.39,7.6-23.77-.83Zm119.86-78.77c12.93,0,12.93-.24,25.85-.24s12.93,2.61,25.85,2.61,13.54-5.05,25.71-.69c-.85,8.96-3.75,17.01-5.66,25.62s-4.36,17.13-7.32,25.47c-3,8.44-4.93,17.08-8.9,25.01-10.35,3.2-10.79-1.72-21.62-1.72s-10.83,.48-21.66,.48-11.86,6.02-21.87,1.88c1.75-8.24,2.85-17.3,4.15-25.95s1.21-16.95,2.03-25.64c.79-8.42,1.38-16.9,1.74-25.61,.02-.64,1.69-1.23,1.69-1.23Zm-.41-38.75c-.36-8.71-2.05-18.36-2.84-26.79s.74-17.53-.51-25.88-3.74-16.56-5.49-24.8c10.01-4.14,10.67,1.31,21.5,1.31s10.83,.02,21.66,.02,11.27-4.78,21.62-1.58c3.97,7.93,5.76,16.62,8.76,25.06s5.84,16.58,7.77,25.35,4.82,17.64,5.67,26.61c-12.17,4.36-13.11,.13-26.04,.13s-12.81-.64-25.63,1.06c-13.25,1.76-14.22,3.59-26.49-.49Zm29.6-117.89c-11.74,3.8-12.74,.31-25.08,.31s-12.47,.55-24.41-2.58c-2.37-7.08-4.82-13.04-7.54-19.63-2.87-6.93-4.8-14.18-8.02-20.5-3.42-6.7-7.56-10.87-11.35-16.85,7.44,3.45,13.61,6.01,20.58,10.24,7,4.25,12.68,10.23,19.14,15.22s12.84,9.87,18.71,15.55c5.87,5.68,12.78,11.93,17.98,18.24ZM169.07,61.87c-3.79,5.98-6.77,14.09-10.19,20.79-3.23,6.33-8.64,11.86-11.51,18.78-2.72,6.59-4.39,13.44-6.76,20.52-11.94,3.13-12.23-1.29-24.57-1.29s-12.41,3.87-24.15,.06c5.2-6.31,10.32-10.59,16.19-16.27s13.09-9.67,19.57-14.67c6.46-4.99,12.78-9.91,19.78-14.17s14.2-10.31,21.65-13.76ZM90.96,398.19c11.74-3.8,12.74-.31,25.08-.31s12.47-.55,24.41,2.58c2.37,7.09,4.81,13.04,7.54,19.63,2.86,6.93,4.79,14.18,8.02,20.51,3.41,6.7,7.56,10.87,11.35,16.85-7.44-3.45-13.61-6.01-20.57-10.24s-12.68-10.23-19.14-15.22c-6.48-5-12.84-9.87-18.71-15.55s-12.78-11.93-17.98-18.24Zm258.96,59.98c3.79-5.98,7.12-12.34,10.54-19.04,3.23-6.33,8.64-11.86,11.51-18.78s4.39-13.44,6.76-20.52c11.94-3.13,12.24,1.29,24.58,1.29s12.42-3.87,24.16-.06c-5.21,6.31-10.33,10.58-16.2,16.27s-13.09,9.67-19.57,14.67c-6.46,4.99-12.78,9.92-19.78,14.17s-13.3,9.78-20.74,13.23c-.61,.2-1.26-1.21-1.26-1.21Z"/>
  </g>
</svg>