<?xml version="1.0" encoding="UTF-8"?>
<svg id="Layer_2" data-name="Layer 2" xmlns="http://www.w3.org/2000/svg" viewBox="0 0 51.02 37.15">
  <defs>
    <style>
      .cls-1 {
        fill: #009fe2;
      }
    </style>
  </defs>
  <g id="Afiches">
    <g>
      <path class="cls-1" d="M36.56,6.88c.55-2.09,2.67-3.55,5.05-3.44,2.52,.12,4.1,2,4.43,3.42-.71-.01-4.28-.45-4.51-.55,.02-.13,.15-.15,.23-.22,.35-.3,.4-.71,.12-1.03-.28-.32-.81-.33-1.1-.02-.3,.31-.26,.74,.08,1.04,.08,.07,.28,.1,.22,.24-.04,.1-.21,.08-.33,.1-1.35,.15-2.7,.31-4.06,.46-.04,0-.08,0-.12,0Z"/>
      <path class="cls-1" d="M36.35,8.22c0-.23,.03-.5,.06-.77,.03-.27,.11-.36,.39-.32,.97,.14,1.94,.24,2.91,.37,.52,.07,.83,.43,1.01,.9,.24,.64,.22,1.31,.13,1.97-.11,.82-.36,1.59-.82,2.28-.1,.16-.19,.2-.39,.14-1.95-.65-3.29-2.49-3.29-4.58Z"/>
      <path class="cls-1" d="M46.27,8.17c0,2.15-1.31,3.97-3.29,4.64-.2,.07-.29,.01-.39-.14-.49-.74-.74-1.56-.83-2.43-.06-.57-.07-1.15,.11-1.71,.2-.61,.57-.98,1.25-1.04,.9-.08,1.8-.22,2.7-.34,.24-.03,.36,0,.39,.29,.03,.27,.05,.54,.06,.74Z"/>
      <path class="cls-1" d="M47.44,14.8c-.43,.39-.96,.5-1.51,.59-1.02,.15-1.98-.09-2.92-.46-.47-.18-.94-.35-1.54-.27,.49,.21,.91,.41,1.28,.68,.25,.18,.48,.36,.69,.59,.05,.05,.22,.11,.06,.22-.1,.07-.19,.17-.32,.01-.31-.38-.66-.74-1.09-1-.96-.59-.96-.58-1.9,0-.39,.24-.72,.56-1.01,.91-.16,.2-.3,.25-.49,.02,.56-.65,1.27-1.07,2.1-1.41-.46-.1-.84,.03-1.22,.15-.7,.23-1.37,.54-2.12,.59-.72,.05-1.43,0-2.11-.27-.2-.08-.4-.17-.6-.39,.95,.34,1.77,0,2.6-.23,1.2-.34,2.39-.32,3.59-.02,.12,.03,.24,.05,.36,.02,1.37-.38,2.73-.32,4.08,.12,.41,.13,.84,.23,1.27,.25,.27,.02,.54-.03,.81-.09Z"/>
      <path class="cls-1" d="M36.36,13.7c-.82-.63-.96-1.54-1.04-2.56,.5,.57,.97,1.06,1.26,1.69,.22,.48,.39,.99,.93,1.31-.92,.01-1.76,.28-2.63,.07-1.07-.26-1.8-.89-2.28-1.88,.11-.02,.15,.06,.2,.11,.55,.49,1.13,.89,1.92,.93,.54,.03,1.06,.21,1.57,.4,.05,0,.12,.05,.07-.06Z"/>
      <path class="cls-1" d="M31.89,9.42c.21,.6,.53,1.01,.98,1.3,.55,.37,.94,.89,1.37,1.36,.07,.08,.12,.18,.27,.2-.65-.95-.63-1.94-.23-3.02,.35,.62,.56,1.23,.52,1.9-.03,.58-.02,1.15,.24,1.67-.06,.09-.12,.04-.17,.02-.47-.18-.95-.33-1.41-.54-1.02-.48-1.68-1.67-1.58-2.89Z"/>
      <path class="cls-1" d="M47.46,12.92c.17-.83,.03-1.66,.29-2.45,.13-.41,.28-.82,.5-1.2,.26,.96,.38,1.89-.28,3.02,.54-.44,.9-1.04,1.39-1.52,.49-.48,1.04-.92,1.28-1.61-.14,1.35-.62,2.5-1.92,3.12-.41,.2-.85,.35-1.26,.63Z"/>
      <path class="cls-1" d="M49.71,12.3c-.53,1.26-2.15,2.16-3.53,1.98-.39-.05-.77-.16-1.19-.1,.68-.49,.8-1.34,1.29-1.94,.18-.22,.36-.43,.57-.63,.05-.05,.09-.14,.17-.09,.07,.04,.02,.13,.01,.2-.09,.92-.5,1.65-1.27,2.16-.02,.01-.03,.03-.04,.04-.01,.02-.01,.04-.02,.06,.16,.04,.3-.02,.43-.09,.67-.36,1.39-.58,2.11-.81,.53-.17,1.02-.42,1.42-.83,.06-.01,.09,0,.07,.06Z"/>
      <path class="cls-1" d="M31.98,6.46c0,.76,.33,1.37,.74,1.94,.23,.32,.37,.69,.43,1.08,.02,.09,.04,.19,.12,.29-.17-1.11,.13-2.05,.94-2.83,.05,.37-.02,.74-.07,1.11-.06,.41-.2,.8-.35,1.18-.18,.43-.35,.86-.28,1.34-.04,0-.07,.02-.07,.01-.38-.6-.94-1.05-1.33-1.64-.46-.69-.55-1.44-.3-2.23,.02-.08,.03-.18,.16-.25Z"/>
      <path class="cls-1" d="M33.14,6.35c.28-.79,.97-1.15,1.63-1.57,.02,.27-.1,.47-.2,.68-.22,.45-.53,.84-.91,1.16-.32,.27-.54,.59-.64,.99-.02,.06-.06,.12-.09,.18-.12-.02-.09-.11-.1-.17-.08-.41-.21-.79-.37-1.18-.44-1.1-.11-2.45,.79-3.29-.02,.08-.01,.15-.04,.21-.33,.65-.25,1.33-.15,2.01,.03,.22,.02,.44,.02,.66-.07,.18,.02,.36-.03,.53,.01,.03-.02,.06,0,.09,0-.02,0-.04,0-.06,0-.1,.01-.18,.08-.26Z"/>
      <path class="cls-1" d="M33.4,5.13c.3-.65,.12-1.38,.4-2.03,.35-.82,.82-1.44,1.59-1.83-.56,.82-.61,1.78-1.16,2.55,.55-.61,1.35-.57,2.03-.84,.03,.11-.06,.14-.11,.18-.57,.52-1.17,.99-1.9,1.27-.36,.14-.58,.45-.85,.71Z"/>
      <path class="cls-1" d="M50.71,6.64c.15,1-.14,1.82-.71,2.54-.32,.4-.68,.76-.89,1.25-.11-.09-.08-.17-.07-.23,.07-.32-.01-.62-.14-.91-.31-.75-.56-1.51-.42-2.34,0-.06,0-.12,.08-.19,.14,.29,.25,.58,.4,.85,.16,.29,.3,.6,.36,.92,.06,.31,0,.63,.02,.95,.2-1.05,.97-1.81,1.37-2.84Z"/>
      <path class="cls-1" d="M38.39,1.8c-1.03,.63-2.18,.55-3.23,.97,.37-.47,.58-1,.94-1.44,.48-.58,1.08-.92,1.88-1.05-.69,.5-.99,1.3-1.73,1.69,.67-.27,1.37-.15,2.13-.16Z"/>
      <path class="cls-1" d="M49.75,6.22c-.04-.69,.19-1.34,.25-2.01,.29,.36,.38,1,.25,1.72-.05,.29-.51,1.51-.67,1.69,.07-.52-.29-.78-.52-1.11-.35-.51-.66-1.05-.78-1.68,.53,.53,1.3,.87,1.37,1.76,.07,.09,.07,0,.08-.04,.02-.11-.02-.22,.02-.32Z"/>
      <path class="cls-1" d="M49.52,5.2c-.26-.44-.63-.67-.98-.92-.5-.37-.92-.8-1.18-1.38,.65,.42,1.54,.53,1.86,1.42-.29-.7-.58-1.38-.58-2.14,.65,.27,1.09,1.88,.88,3.02Z"/>
      <path class="cls-1" d="M40.44,1.67c-.76,.05-1.44,.03-2.09-.26-.25-.12-.53-.09-.85-.08,.82-.63,1.6-1.24,2.7-1.05,.11,.02,.21,.04,.32,.12-.79,.08-1.43,.55-2.18,.74,.74-.06,1.4,.16,2.1,.53Z"/>
      <path class="cls-1" d="M48.31,2.8c-.64-.58-1.6-.48-2.18-1.16,.61,.06,1.19,.12,1.7,.5-.3-.41-.61-.81-.95-1.28,.56,.16,.95,.43,1.13,.94,.11,.33,.21,.67,.31,1Z"/>
      <path class="cls-1" d="M40.97,1.13c.48,.1,.79,.44,1.16,.77-.85,.04-1.37-.56-1.98-.92,.8-.35,1.61-.55,2.44-.07-.48-.01-.95,.13-1.43,.15-.06,.02-.18-.12-.19,.06Z"/>
      <path class="cls-1" d="M43.94,2.33c-.6-.26-1.16-.54-1.67-.92,.59-.12,1.45,.35,1.67,.92Z"/>
      <path class="cls-1" d="M46.78,1.36c-.63-.05-1.11-.42-1.6-.75,.51-.09,1.27,.27,1.6,.75Z"/>
      <path class="cls-1" d="M49.75,6.22c.02,.18,.02,.35-.07,.51-.05-.06-.04-.11-.03-.15,.09-.1,0-.26,.1-.36Z"/>
      <path class="cls-1" d="M49.71,12.3s-.04-.04-.07-.06c.02-.08,.08-.13,.16-.17,0,.1-.02,.18-.09,.24Z"/>
      <path class="cls-1" d="M33.01,6.65s.05,0,.07,0c.02,.06,0,.11-.06,.14-.01,0-.04,0-.04-.02-.02-.05-.02-.09,.03-.12Z"/>
      <g>
        <path class="cls-1" d="M18.47,5.81c0,.12,0,.24,0,.36,0,3.19,0,6.39,0,9.58,0,.44,0,.44-.44,.44-.84,0-1.68,0-2.52,0-.38,0-.4-.02-.4-.39,0-5.14,0-10.27,0-15.41,0-.38,.02-.4,.39-.4,.88,0,1.76,0,2.64,0,.23,0,.37,.08,.49,.28,1.84,3.03,3.69,6.06,5.54,9.09,.22,.36,.44,.72,.73,1.08v-.34c0-3.2,0-6.41,0-9.61q0-.49,.51-.49c.83,0,1.66,0,2.49,0,.27,0,.37,.09,.37,.37,0,5.16,0,10.31,0,15.47,0,.28-.1,.37-.37,.37-.88-.01-1.76-.01-2.64,0-.24,0-.38-.08-.51-.29-2-3.29-4.01-6.58-6.02-9.87-.06-.09-.12-.18-.17-.27-.02,.01-.05,.02-.07,.03Z"/>
        <path class="cls-1" d="M12.4,5.82c0,1.7,0,3.4,0,5.09-.01,1.57-.54,2.93-1.71,4-.89,.81-1.97,1.23-3.14,1.39-1.24,.17-2.48,.13-3.7-.22C1.73,15.49,.3,13.8,.05,11.62,.01,11.29,0,10.97,0,10.65,0,7.25,0,3.86,0,.46Q0,0,.45,0c.82,0,1.64,0,2.46,0q.45,0,.45,.46c0,3.4,0,6.79,0,10.19,0,.37,.05,.72,.12,1.08,.22,1.03,.86,1.63,1.88,1.87,.62,.14,1.25,.13,1.86-.04,1.03-.28,1.62-1.01,1.76-2.15,.04-.34,.06-.68,.06-1.03,0-3.32,0-6.63,0-9.95,0-.43,0-.44,.44-.44,.83,0,1.66,0,2.49,0,.43,0,.43,0,.43,.45,0,1.79,0,3.58,0,5.37Z"/>
        <path class="cls-1" d="M34.65,32.78c0-.66,0-1.31,0-1.97q0-.48,.49-.48c.11,0,.22,0,.33,0,.23,0,.42,0,.42,.32,0,.21,.14,.06,.2,.01,.37-.31,.8-.41,1.27-.4,.41,.01,.76,.15,1,.48,.12,.16,.19,.16,.32,.02,.35-.37,.78-.51,1.29-.5,.86,.01,1.39,.5,1.49,1.36,.08,.68,.04,1.35,.05,2.03,0,.43,0,.87,0,1.3,0,.22-.08,.31-.31,.3-.24-.01-.49-.01-.73,0-.24,.01-.31-.1-.31-.33,0-.95,0-1.9,0-2.85,0-.54-.26-.75-.79-.7-.39,.03-.65,.3-.65,.7,0,.93,0,1.86,0,2.79,0,.38-.01,.39-.39,.39-.18,0-.36,0-.55,0-.39,0-.4-.01-.4-.42,0-.92,0-1.84,0-2.76,0-.7-.49-.82-1.02-.65-.28,.09-.43,.3-.43,.62,0,.94,0,1.88,0,2.82,0,.29-.09,.41-.38,.38-.2-.02-.4-.01-.61,0-.24,.01-.32-.09-.32-.32,0-.72,0-1.43,0-2.15Z"/>
        <path class="cls-1" d="M28.07,30.79c.43-.37,.87-.55,1.39-.53,.44,.02,.82,.14,1.08,.51,.12,.16,.2,.11,.31,0,.47-.5,1.07-.59,1.7-.45,.66,.14,1.06,.66,1.08,1.46,.03,1.07,0,2.14,.01,3.21,0,.19-.08,.27-.27,.27-.23,0-.47-.01-.7,0-.25,.02-.33-.1-.33-.34,0-.85,0-1.7,0-2.55,0-.12,0-.24-.02-.36-.07-.5-.26-.66-.74-.63-.43,.02-.72,.3-.72,.74,0,.92-.01,1.84,0,2.76,0,.28-.08,.41-.38,.39-.19-.02-.38-.01-.58,0-.26,.02-.36-.08-.35-.35,.01-.87,0-1.74,0-2.61,0-.1,0-.2,0-.3-.04-.47-.26-.65-.75-.63-.45,.02-.69,.25-.69,.7,0,.94,0,1.88,0,2.82,0,.27-.09,.39-.37,.37-.21-.02-.43-.02-.64,0-.27,.02-.35-.1-.35-.36,0-1.4,0-2.81,0-4.21,0-.26,.08-.38,.35-.36,.14,.01,.28,.01,.42,0,.31-.03,.55,.02,.54,.46Z"/>
        <path class="cls-1" d="M30.71,24.06c0-.69,0-1.37,0-2.06,0-.39,.01-.4,.41-.4,.14,0,.28,0,.42,0,.22,0,.4,0,.42,.29,.01,.18,.12,.1,.21,.03,.34-.28,.74-.4,1.18-.4,.44,0,.82,.14,1.09,.49,.11,.14,.19,.18,.33,.03,.42-.46,.96-.57,1.55-.49,.77,.1,1.21,.63,1.24,1.58,.04,1.04,0,2.08,.01,3.12,0,.19-.08,.28-.27,.27-.25,0-.51-.01-.76,0-.24,.01-.31-.1-.31-.33,0-.93,0-1.86,0-2.79,0-.56-.19-.77-.66-.77-.5,0-.78,.29-.78,.8,0,.9-.01,1.8,0,2.7,0,.31-.1,.42-.4,.39-.15-.02-.3,0-.45,0-.44,0-.45,0-.45-.43,0-.82,0-1.64,0-2.46,0-.11,0-.22-.01-.33-.07-.51-.27-.69-.76-.66-.47,.03-.72,.28-.72,.76,0,.92,0,1.84,0,2.76,0,.28-.09,.39-.37,.37-.21-.02-.42-.01-.64,0-.22,.01-.3-.09-.3-.31,0-.72,0-1.43,0-2.15Z"/>
        <path class="cls-1" d="M16.36,34.94c-.3,.19-.57,.37-.91,.38-1.01,.05-1.69-.42-2-1.44-.24-.79-.23-1.6,.07-2.38,.48-1.25,1.74-1.62,2.83-.84,.01,.01,.04,0,.08,.02,.03-.35,.27-.35,.54-.34,.81,.01,.71-.07,.71,.72,0,1.34,0,2.69,0,4.03,0,1.22-.8,2.02-2.03,2.06-.66,.03-1.26-.08-1.8-.49-.22-.16-.29-.33-.08-.55,.01-.01,.02-.03,.03-.05,.11-.14,.19-.35,.34-.42,.19-.09,.28,.17,.43,.25,.35,.19,.71,.25,1.08,.17,.49-.11,.75-.52,.7-1.12Zm.03-2.12c0-.22,0-.44,0-.67,0-.42-.11-.59-.42-.71-.36-.14-.75-.07-.98,.18-.47,.49-.48,1.86-.01,2.35,.05,.06,.11,.12,.18,.16,.3,.17,.6,.16,.9,0,.27-.14,.37-.37,.34-.68-.02-.21,0-.42,0-.64Z"/>
        <path class="cls-1" d="M1.35,34.92c0,.59,0,1.11,0,1.63,0,.61,.06,.58-.6,.58-.12,0-.24,0-.36,0-.29,.03-.39-.11-.38-.39,0-1.65,0-3.29,0-4.94,0-.37,0-.75,0-1.12,0-.24,.08-.36,.34-.35,.18,0,.36,.01,.55,0,.25-.02,.42,.05,.41,.33,.1,.03,.15-.04,.2-.08,.91-.63,2.08-.37,2.54,.64,.48,1.06,.49,2.16-.05,3.21-.47,.93-1.58,1.18-2.44,.6-.04-.03-.08-.06-.19-.13Zm0-2.12c0,.26,0,.53,0,.79,0,.19,.07,.33,.21,.45,.43,.38,1.1,.25,1.31-.28,.24-.6,.23-1.22,.04-1.84-.04-.12-.11-.22-.19-.3-.23-.24-.63-.32-.96-.18-.31,.13-.43,.36-.41,.7,.02,.22,0,.44,0,.67Z"/>
        <path class="cls-1" d="M25.81,33.26c.03,.55-.08,1.19,.14,1.81,.05,.14-.05,.18-.16,.18-.31,0-.63,0-.94,0-.1,0-.19-.03-.22-.13-.08-.27-.21-.15-.35-.06-.56,.35-1.15,.36-1.74,.09-.54-.25-.81-.69-.81-1.31,0-.62,.26-1.06,.81-1.34,.5-.27,1.06-.23,1.6-.29,.31-.03,.37-.08,.32-.39-.04-.31-.24-.51-.55-.56-.31-.05-.63,.09-.73,.36-.06,.18-.16,.23-.33,.23-.25,0-.51,0-.76,0-.25,0-.29-.11-.24-.32,.06-.25,.19-.47,.36-.66,.72-.79,2.4-.82,3.16-.07,.33,.33,.43,.75,.45,1.19,.01,.39,0,.79,0,1.26Zm-1.34,.22c-.06-.13,.13-.42-.18-.44-.32-.02-.65,0-.94,.16-.23,.13-.31,.34-.31,.59,0,.2,.1,.37,.3,.46,.56,.24,1.13-.14,1.13-.76Z"/>
        <path class="cls-1" d="M45.14,33.25c-.39,0-.79,0-1.18,0-.28,0-.31,.06-.2,.32,.3,.71,1.3,.92,1.93,.36,.23-.21,.34-.16,.52,.04,.44,.51,.45,.59-.12,.96-.79,.51-1.65,.52-2.49,.15-.85-.37-1.2-1.1-1.27-1.98-.05-.67,.05-1.31,.42-1.89,.49-.76,1.4-1.12,2.33-.92,.88,.19,1.42,.8,1.57,1.74,.05,.3,.05,.6,.06,.9,0,.22-.09,.3-.31,.3-.41,0-.83,0-1.24,0Zm-.61-.93c.21,0,.42,0,.64,0,.17,0,.24-.06,.22-.24-.06-.47-.36-.73-.85-.72-.41,0-.79,.38-.82,.79-.01,.15,.07,.17,.18,.17,.21,0,.42,0,.64,0Z"/>
        <path class="cls-1" d="M41.22,24.52c-.39,0-.79,0-1.18,0-.25,0-.29,.11-.21,.32,.28,.71,1.24,.91,1.9,.4q.32-.25,.57,.06c.41,.49,.39,.59-.16,.94-1.16,.74-3.33,.46-3.67-1.43-.13-.73-.12-1.47,.26-2.16,.49-.88,1.44-1.29,2.45-1.06,.91,.21,1.51,.95,1.57,1.95,.01,.23,0,.46,.01,.7,0,.21-.08,.29-.29,.29-.41,0-.83,0-1.24,0h0Zm-.64-.93h0c.21,0,.42,0,.63,0,.19,0,.25-.09,.23-.27-.04-.44-.39-.72-.87-.69-.4,.02-.79,.41-.79,.78,0,.14,.08,.17,.19,.17,.2,0,.4,0,.6,0Z"/>
        <path class="cls-1" d="M2.86,24.52c-.38,0-.77,0-1.15,0-.33,0-.37,.07-.23,.37,.32,.67,1.23,.84,1.88,.35q.31-.24,.59,.07c.39,.44,.39,.52-.09,.85-.79,.55-1.66,.58-2.51,.23-.83-.34-1.23-1.03-1.3-1.92-.06-.78,.03-1.52,.53-2.15,.59-.73,1.38-.92,2.26-.72,.85,.18,1.29,.77,1.48,1.58,.08,.35,.06,.7,.07,1.05,0,.21-.08,.29-.29,.29-.41,0-.83,0-1.24,0h0Zm-.62-.93s0,0,0,0c.2,0,.4,0,.6,0,.23,0,.28-.11,.24-.31-.08-.44-.4-.68-.87-.65-.39,.02-.75,.38-.78,.76-.01,.16,.08,.19,.2,.19,.2,0,.4,0,.6,0Z"/>
        <path class="cls-1" d="M10.42,35.32c-1.35,0-2.2-.86-2.28-2.31-.04-.79,.12-1.52,.67-2.13,.84-.93,3.08-.96,3.7,.8,.27,.77,.27,1.55-.03,2.32-.33,.86-1.07,1.33-2.08,1.33Zm.94-2.54c.01-.3,0-.61-.13-.89-.16-.32-.4-.52-.78-.53-.36,0-.65,.13-.79,.46-.27,.65-.28,1.31,0,1.97,.14,.33,.43,.46,.76,.45,.33,0,.6-.14,.76-.46,.16-.32,.18-.66,.18-1Z"/>
        <path class="cls-1" d="M20.27,24.07c0-.81,.19-1.55,.86-2.08,1.37-1.08,3.38-.28,3.65,1.43,.09,.58,.08,1.15-.11,1.7-.36,1.06-1.19,1.55-2.47,1.45-.91-.07-1.66-.77-1.86-1.73-.05-.26-.08-.52-.07-.78Zm3.22-.01c.02-.35-.03-.68-.2-.99-.17-.3-.43-.44-.78-.43-.34,.01-.61,.16-.74,.48-.25,.61-.27,1.24-.03,1.86,.14,.36,.42,.54,.8,.54,.36,0,.68-.22,.82-.57,.11-.29,.15-.58,.13-.89Z"/>
        <path class="cls-1" d="M43.46,24.04c0-.7,0-1.4,0-2.09,0-.26,.09-.37,.35-.35,.2,.01,.4,0,.61,0,.18,0,.3,.06,.31,.25,.02,.2,.1,.18,.22,.08,.31-.25,.66-.38,1.06-.39,.94-.02,1.54,.48,1.57,1.42,.04,1.1,.01,2.2,.02,3.31,0,.2-.09,.27-.28,.27-.24,0-.49,0-.73,0-.23,0-.3-.1-.29-.31,0-.83,0-1.66,0-2.49,0-.11,0-.22,0-.33-.03-.65-.57-.96-1.15-.66-.23,.12-.36,.29-.36,.58,.01,.94,0,1.88,0,2.82,0,.37-.02,.39-.4,.39q-.95,0-.95-.93c0-.52,0-1.03,0-1.55Z"/>
        <path class="cls-1" d="M26.9,22.08c.37-.37,.81-.56,1.33-.55,.84,.01,1.35,.47,1.47,1.31,.06,.42,.05,.85,.05,1.27,0,.6,0,1.19,0,1.79,0,.71,.04,.62-.64,.63-.11,0-.22-.01-.33,0-.29,.03-.37-.11-.36-.37,.01-.8,0-1.6,0-2.39,0-.12,0-.24,0-.36,0-.27-.02-.55-.31-.67-.31-.14-.63-.12-.93,.06-.21,.13-.28,.32-.28,.57,0,.93,0,1.86,0,2.79,0,.29-.09,.41-.38,.38-.21-.02-.42-.01-.64,0-.21,0-.29-.09-.28-.29,0-1.44,0-2.89,0-4.33,0-.2,.07-.3,.28-.3,.12,0,.24,0,.36,0q.52,0,.64,.48Z"/>
        <path class="cls-1" d="M5.1,24.05c0-.71,0-1.41,0-2.12,0-.23,.08-.34,.32-.33,.22,.01,.44,0,.67,0,.15,0,.25,.05,.27,.22,.02,.22,.11,.22,.26,.09,.27-.23,.59-.35,.94-.37,1.02-.07,1.65,.47,1.68,1.5,.03,1.07,0,2.14,.01,3.21,0,.19-.08,.28-.27,.27-.24,0-.49,0-.73,0-.23,0-.3-.09-.3-.31,0-.84,0-1.68,0-2.52,0-.11,0-.22,0-.33-.04-.52-.27-.73-.77-.72-.48,0-.77,.3-.78,.77,0,.91,0,1.82,0,2.73,0,.29-.09,.41-.38,.38-.2-.02-.4-.01-.61,0-.24,.01-.32-.1-.32-.33,0-.72,0-1.43,0-2.15Z"/>
        <path class="cls-1" d="M12.05,24.72c.16-.59,.31-1.12,.45-1.65,.11-.39,.22-.78,.31-1.17,.05-.21,.16-.31,.38-.3,.26,.01,.53,0,.79,0,.24,0,.28,.09,.2,.3-.13,.37-.25,.75-.37,1.12-.34,1.05-.7,2.09-1.03,3.14-.09,.28-.23,.38-.52,.37-1.05-.04-.79,.16-1.13-.82-.43-1.24-.83-2.49-1.25-3.74-.11-.33-.09-.37,.26-.36,1.24,.03,.92-.22,1.26,.95,.2,.68,.37,1.36,.56,2.05,0,.02,.02,.03,.07,.12Z"/>
        <path class="cls-1" d="M48.86,24.17c0-.4,0-.81,0-1.21,0-.23-.07-.33-.31-.33-.39,0-.4-.02-.41-.42,0-.09,0-.18,0-.27-.02-.25,.1-.36,.34-.33,.3,.03,.38-.1,.38-.38,0-.78,0-.78,.79-.78q.5,0,.5,.49c0,.06,0,.12,0,.18,0,.48,0,.49,.48,.48,.28,0,.39,.11,.37,.38,0,.07,0,.14,0,.21,0,.43-.02,.46-.44,.44-.3-.01-.41,.08-.4,.39,.02,.63,0,1.25,0,1.88,0,.48,.09,.57,.56,.58,.2,0,.29,.07,.3,.28,.04,.8,.01,.83-.8,.83-.9,0-1.34-.43-1.36-1.33,0-.36,0-.73,0-1.09h0Z"/>
        <path class="cls-1" d="M6.43,30.83c.36-.43,.71-.6,1.16-.57,.21,.01,.32,.09,.31,.31-.01,.26,0,.53,0,.79,0,.18-.08,.26-.27,.22-.17-.04-.34-.02-.51,.02-.48,.1-.66,.31-.66,.79,0,.83-.01,1.66,0,2.49,0,.29-.1,.4-.39,.38-.18-.02-.37-.02-.55,0-.3,.03-.38-.11-.38-.39,.01-1.38,.01-2.77,0-4.15,0-.29,.09-.42,.38-.38,.12,.01,.24,0,.36,0,.29-.02,.57-.02,.54,.5Z"/>
        <path class="cls-1" d="M20.01,30.75c.3-.31,.64-.53,1.09-.49,.22,.02,.34,.09,.33,.33,0,.27,.01,.54-.04,.82-.03,.15-.1,.21-.25,.18-.19-.04-.38,0-.57,.04-.41,.1-.58,.31-.58,.72,0,.85,0,1.7,0,2.55,0,.27-.09,.37-.37,.37-.94,0-.94,.01-.94-.91,0-1.21,0-2.43,0-3.64,0-.3,.1-.41,.39-.38,.1,.01,.2,0,.3,0q.46,0,.63,.42Z"/>
        <path class="cls-1" d="M18.57,22.09c.31-.41,.68-.59,1.15-.56,.21,.01,.31,.09,.28,.32-.03,.25-.02,.5-.01,.76,0,.2-.08,.29-.28,.24-.18-.04-.36,0-.54,.03-.4,.09-.58,.31-.58,.72,0,.85,0,1.7,0,2.55,0,.28-.09,.39-.37,.37-.2-.02-.4-.01-.61,0-.25,.02-.34-.09-.33-.34,0-.98,0-1.96,0-2.94,0-.41,0-.83,0-1.24,0-.39,.01-.4,.42-.4,.1,0,.2,0,.3,0q.47,0,.56,.49Z"/>
        <path class="cls-1" d="M16.22,24.06c0,.67,0,1.33,0,2q0,.46-.48,.46c-.15,0-.3,0-.46,0-.4,0-.41-.01-.41-.4,0-1.25,0-2.51,0-3.76,0-.14,0-.28,0-.42-.01-.23,.08-.34,.32-.33,.24,0,.49,0,.73,0,.22,0,.31,.09,.3,.31,0,.72,0,1.44,0,2.15Z"/>
        <path class="cls-1" d="M15.54,21.07c-.43,0-.72-.28-.72-.68,0-.41,.31-.68,.75-.68,.45,0,.72,.28,.71,.71-.01,.41-.29,.65-.74,.65Z"/>
      </g>
    </g>
  </g>
</svg>