<?xml version="1.0" encoding="UTF-8"?>
<svg id="Layer_2" data-name="Layer 2" xmlns="http://www.w3.org/2000/svg" viewBox="0 0 89.63 93.67">
  <defs>
    <style>
      .cls-1 {
        fill: #fff;
      }
    </style>
  </defs>
  <g id="Layer_1-2" data-name="Layer 1">
    <path class="cls-1" d="M78.75,14.79l-2.62-.76-1.71-.19-1.8-1.09-2.1-.2h-.52s-2.14,.08-2.14,.08l-.67-.02-1.51,.43h-.48s-1.96,1.3-1.96,1.3l-.74,.78-1.84,.67-1.64,1.54-.95,.82-1.36,.83-.39,.61-1.65,1.34-1.79,1.84-1.23,1.6-2.1,.11-2.12-.21h-2.12s-2.11,.02-2.11,.02l-.15-.29,.13-.92-.08-.61-.17-2.41-.12-1.65-.83-1.46-.35-2.05-.59-1.98-.8-1.91-1.21-1.76-.75-1.39-1.24-.99-1.2-1.63-.8-1.34-2.55-1.64-2.66-.72-1.58-.41-1.85-.93-2.18-.16-.58-.04-2.02,.03-.75,.03-1.46,.63-.54,.3-2.12,.63-.55,1.08-1.78,.76-1.9,1.27-.83,.91-1.13,1.09-.67,.2-1.38,1.68-1.83,1.83-1.28,1.98-.88,1.26,.1,.35-.25-.51-.82,1.21-.5,.4-.72,2.13-.15,.09-.07,.68-.74,.76-.64,1.53-.17,1.67-.56,2.7,.23,1.47-.17,1.69,.22,.39,.8,2.2,.94,2.08,1.13,2,1.55,1.44,1.24,1.7,1.31,.98,.88,1.41,1.02,1.48,.05,.04,.58,.21,.59,.98,.52,.17,2.91,.55,2.26,.98,2.21,1.01,.95-.25,1.04-.2,2.09,.29h1.09s-.29,1.87-.29,1.87l.39,1.86-.03,1.86-.06,1.87-.36,.39-.97,.79-1.18,1.04-.54,.41-1.59,1.41-1.82,1.81-1.39,1.97-.75,1.29,.12,.32-.29-.53-.72,1.34-.31,.5-.87,2.05-.18-.04-.21,.73-.53,.88-.44,1.53-.68,1.58-.12,2.75,.15,1.47-.25,1.71,.36,.29,.49,2.31,1.02,2.07,1.13,2,1.33,1.64,1.56,1.41,.97,1.31,1.34,.94,.91,1.37-.05,.36,.38,.41,1.03,.54,.33,.16,2.86,.83,2.27,.93,2.32,.76,.87,.13,1.03-.37,2.07,.37,2.84-.46,1.01-.82,2.3-.29,2.23-1.14,1.09-1.02,1.68-.98,.25-.4,1.98-2.15,1.94-1.42,.47-1.56,1.15-1.12,.91-1.23,.27-.56,.28-1.47,.29-.62,1.03-1.58,.59-1.59,.51-2.9-.1-.77-.11-.78-.15-2.41-.34-1.58-.22-1.63-.82-1.91-.53-1.99-.73-1.92-.83-2-1.09-1.16-1.1-1.12-1.26-1.56-1.01-1.11-2.46-1.64-2.6-.77-1.54-.62-1.87-.87-2.19-.29-.58,.12-2.08,.19-.69-.12-1.51,.5-.14,.18-.34-1.97v-1.98s.38-1.95,.38-1.95l1.01-.63,1.17-.89,1.59-1.19,.22-.33,2.16-1.96,1.84-1.52,.88-1.3,.66-1.42,.91-1.31,.34-.42,.23-1.45,.18-.17,1.83-.02,1.83,.09,1.83-.13,1.8,.33-.4,.45-.56,1.5-.57,1.6-.03,2.76,.11,1.47-.24,1.74,.37,.23,.66,2.26,.94,2.05,1.19,1.93,1.26,1.67,1.37,1.59,1.26,1.02,1.18,1.1,.77,1.67h.16s.34,.45,.34,.45l.93,.64,.33,.13,2.82,1.24,2.42,.29,2.1,1.27h1.02s.96-.43,.96-.43l2.13,.44,2.75-.7,1.16-.33,2.17-.77,2.16-1.26,1.17-.84,1.68-1.05,.21-.39,2.28-1.84,1.57-1.76,.94-1.25,.62-1.44,.96-1.29,.55-.32,.23-1.54,.37-.51,.8-1.71,.46-1.61,.88-2.81-.17-.96-.24-.61-.21-2.4-.14-1.63-.44-1.57-.68-1.95-.33-2.06-.79-1.93-1.35-1.67-.72-1.41-1.21-1.02-1.14-1.67-.96-1.18-2.49-1.63ZM16.54,3.01l.56-.4,.07,.23-.58,.3-.05-.14ZM63.24,15.06l-.47,.25-.16-.08,.56-.39,.06,.22Z"/>
  </g>
</svg>