<?xml version="1.0" encoding="UTF-8"?>
<svg id="Layer_2" data-name="Layer 2" xmlns="http://www.w3.org/2000/svg" viewBox="0 0 85.17 112.58">
  <defs>
    <style>
      .cls-1 {
        fill: #fff;
        fill-rule: evenodd;
      }
    </style>
  </defs>
  <g id="Layer_1-2" data-name="Layer 1">
    <path class="cls-1" d="M28.39,0c-2.19,.3-3.82,1.95-4.86,3.96-.77,1.49-1.46,2.92-1.41,4.65,.05,1.56,.77,3.07,1.34,4.77,.5,1.49,.94,3.08,1.75,4.65,.01,.01-.53,.29-.52,.3,.77,1.57,1.13,2.9,1.27,4.36,.14,1.54,.79,3.12,.37,4.73-.43,1.68-1.34,3.44-2.3,5.23-.83,1.57-2.32,2.87-3.47,4.48-1,1.41-2.05,2.83-3.19,4.25s-2.34,2.65-3.49,4.04c-1.13,1.37-2.19,2.82-3.29,4.21-1.11,1.41-2.01,2.98-3.02,4.42-1.04,1.48-1.99,3.01-2.83,4.53-.03,.06,.42,.12,.38,.18,0,.02-.31,.06-.32,.08-.99,1.56-1.56,3.34-2.18,5.19-.59,1.74-1.28,3.51-1.6,5.42-.31,1.83-.55,3.72-.68,5.64-.12,1.87-.04,3.78-.04,5.68s-.38,3.7-.3,5.52,.93,3.66,1.07,5.44c.15,1.91,.12,3.77,.3,5.49,.21,1.99,0,3.88,.18,5.51,.01,.04,.3,.05,.32,.1,.26,1.74,.84,3.55,1.98,4.62,1.14,1.07,2.75,1.55,4.25,2.1,1.59,.58,3.36,1.16,5.28,1.45,1.7,.26,3.57-.14,5.49-.01,1.81,.1,3.57,.28,5.32,.36s3.57,.1,5.33,.16,3.56,.55,5.32,.59,3.57-.36,5.34-.33,3.54,.39,5.32,.41,3.54,.08,5.33,.09,3.53,.3,5.33,.3,3.53-.36,5.33-.36,3.52-.05,5.33-.05c.04,0,.04,.22,.08,.22,1.57-.04,2.75-1.1,3.94-2.01s2.64-1.66,3.38-2.98,1.23-2.98,1.45-4.36c.14-2.65-.65-5.22-1.59-7.13,1.57-.52,3.51-.95,4.66-1.93,1.21-1.03,2.08-2.48,2.65-3.99,.65-1.7,.2-3.5-.15-5.31-.34-1.71-.85-3.51-1.95-5.03,1.47-.94,2.86-2.22,3.84-3.65,.98-1.44,1.9-3,1.9-4.83,0-1.63-.46-3.14-.82-4.52-.4-1.53-1.35-2.84-2.65-3.8,1.01-1.1,2.13-2.27,2.73-3.58,.51-1.11,.91-2.33,.91-4.07,0-1.99-.42-3.73-1.08-5.29-.75-1.78-1.55-3.53-2.94-4.63s-3.33-1.52-5.18-1.77c-.14-.02-.13-.13-.27-.13-2.61,0-2.61,.22-5.22,.22s-2.61,.05-5.21,.05-2.61-.57-5.22-.57-2.61,.11-5.22,.11-2.76,1.08-5.17,.09c.43-1.98,.72-3.83,.97-5.78,.25-2.01,.81-4,.85-5.96s-.54-4.03-.74-5.97c-.21-2.03-.65-3.95-1.13-5.85-.5-1.95-.8-3.94-1.59-5.71s-1.9-3.53-3.04-5.1c-1.18-1.62-2.74-2.83-4.25-4.08-1.51-1.25-2.92-2.72-4.76-3.53-.03-.01-.19,.28-.21,.26C32.97,.42,30.61-.01,28.42,.29,28.36,.3,28.39,0,28.39,0Z"/>
  </g>
</svg>