<?xml version="1.0" encoding="UTF-8"?>
<svg id="Layer_2" data-name="Layer 2" xmlns="http://www.w3.org/2000/svg" viewBox="0 0 171.45 155.18">
  <defs>
    <style>
      .cls-1 {
        fill: #e55d92;
      }

      .cls-2 {
        fill: #fff;
      }
    </style>
  </defs>
  <g id="Layer_1-2" data-name="Layer 1">
    <path class="cls-1" d="M168.87,48.84c-1.29-3.2-2.15-6.18-5.16-8.96-1.29-1.92-2.15-3.84-3.01-5.76-.86-2.56-1.72-5.12-2.15-7.68-.86-2.35-3.01-4.48-5.16-6.61-.43-.64-.43-1.07-1.72-1.49-3.44-1.49-4.73-3.41-5.59-5.33-.43-.64-1.29-1.49-2.15-1.92-1.29-1.07-3.87-1.71-5.59-2.35-.43-.21-1.29-.64-1.72-1.07-1.29-1.7-4.73-2.35-8.16-2.98-1.29-.43-3.44-.43-4.3,.85-2.15-.85-4.3-1.7-6.88-2.77-2.58,.21-4.73-1.49-8.59-1.28-1.29,0-3.44-.21-4.73-.43-2.15,0-3.87,0-6.02-.21-.86,0-1.72,0-2.58-.21-2.58-.64-5.59-.85-8.17-.43-3.44,.21-6.44,.85-9.88,.64-3.44-.21-6.44,.21-9.02,1.07-1.72,.43-3.01,1.28-5.59,1.07,0,.21-.43,.43-.43,1.07-1.29-1.07-.43-1.07,.43-1.07-2.58-.21-3.87,0-5.59,.64-.43,.21-1.29,.43-2.15,.64-2.58,.85-5.16,1.49-8.17,2.56,0,0-.86,.43-.43,.43,.43,1.07-1.29,1.07-2.15,1.28-1.29,.43-2.58,.64-3.87,.85-2.15,.64-4.3,1.49-5.59,2.56-1.72,1.07-3.44,2.13-5.59,3.2-2.58,2.13-5.59,4.27-8.16,6.61-1.29,1.28-2.58,2.77-3.87,4.05-1.72,1.49-1.29,3.63-4.73,4.9-.43,.21-.43,.64-.43,1.07-1.29,2.56-2.58,5.33-3.87,8.1-3.01,5.33-4.3,11.09-5.16,16.63-.86,5.33-.86,10.66-1.29,15.99v12.37c0,2.13-2.15,4.26-1.29,6.4,.43,.21,0,.43,0,.64,0,.64-.43,1.49-.43,2.13,0,1.49,.43,2.99,.43,4.26,0,.64,0,1.07,.43,1.71,2.15,3.2,3.01,6.82,5.59,10.02,4.3,5.33,5.58,11.09,7.73,16.84,.43,1.07,1.29,1.71,2.58,2.56,1.29,.43,2.58,1.07,3.01,1.92,.43,2.56,1.72,4.69,5.16,6.82,2.58,1.92,5.16,4.05,9.45,5.33,1.29,.64,3.01,1.07,4.3,1.92,2.15,1.28,4.3,2.77,7.73,4.05,3.01,1.28,6.02,2.13,9.02,3.2,1.72,.43,3.87,.43,5.59,.43,3.44-.21,5.59,.64,7.31,1.92,.86-.21,1.29-.43,1.72-.43,3.87,.21,7.3,.43,11.17,.43,3.44,.21,6.44,.21,9.02,0,3.87-.85,7.73-1.92,11.6-2.77,2.15-.43,3.44-1.07,6.02-.85,.86,.21,1.72-.21,2.15-.21,1.72-1.07,4.3-1.71,5.16-2.99,0-.43,1.29-.85,2.15-.85,2.58-.85,5.16-1.49,6.88-2.13,2.58-.64,4.3-1.49,6.02-2.35,3.44-1.92,6.44-4.05,9.45-6.18,1.29-.85,2.58-1.71,2.15-2.77,0-.43,1.29-1.28,1.72-1.92,1.72-2.13,4.3-4.48,6.02-7.04,2.58-3.41,4.73-7.04,6.44-10.66,3.87-7.25,8.16-14.07,10.74-21.11,.86-2.77,1.72-5.33,2.15-7.89,.86-3.84,.86-7.89,1.29-11.94,0-2.56,0-4.9,.43-7.68,0-1.92,.86-3.84,.86-5.76-.43-3.84-.86-7.46-2.58-11.09M124.18,7.05c.86,.21,1.72,.21,2.58,.21-.43,0-.43,.21-.43,.43-.86-.21-1.72-.21-2.15-.43v-.21Z"/>
    <path class="cls-2" d="M138.69,72.78c-.14-1.94-.43-3.92-.9-5.93-4.32-17.43-21.84-35.15-40.49-40.69-31.54-8.88-65.99,24.92-64.51,51.89,3.33,24.59,31.87,52.55,54.12,52.4,.17,0,.33-.01,.5-.02,6.76-.37,12.82-8.28,12.37-16.46-.07-.93-.06-1.9,.04-2.89,.71-8.23,7.53-15.02,15.6-15.53,.1,0,.19-.01,.29-.02,12.22-.84,23.72-11.52,22.99-22.75m-97.33-1.25c-.23-5.89,5.19-11.16,11.75-11.59,6.57-.42,11.87,4.58,11.98,10.98,.08,6.41-4.96,11.56-11.39,11.48-6.43-.1-12.1-4.98-12.33-10.87m27.78,42.84c-5.75-.4-11.18-5.94-11.91-12.12-.71-6.18,4.06-11.06,10.43-10.96,6.37,.11,11.6,5.4,11.7,11.88,.09,6.47-4.48,11.6-10.22,11.21m9.76-57.26c-6.58,.09-11.89-4.9-11.73-11.31,.18-6.4,5.58-12.09,11.92-12.33,6.34-.23,11.58,5.2,11.66,11.73,.06,6.54-5.27,11.79-11.85,11.9m34.32,14.79c-6.55-.09-11.78-5.38-11.81-11.88,0-6.49,5.19-11.6,11.71-11.13,6.51,.48,12.08,6.03,12.13,12.13,.03,6.11-5.49,10.95-12.03,10.88"/>
  </g>
</svg>