<?xml version="1.0" encoding="utf-8"?>
<!-- Generator: Adobe Illustrator 26.5.0, SVG Export Plug-In . SVG Version: 6.00 Build 0)  -->
<svg version="1.1" id="Layer_2_00000119817951889726185630000004831322182719655847_"
	 xmlns="http://www.w3.org/2000/svg" xmlns:xlink="http://www.w3.org/1999/xlink" x="0px" y="0px" viewBox="0 0 263 60.9"
	 style="enable-background:new 0 0 263 60.9;" xml:space="preserve">
<style type="text/css">
	.st0{enable-background:new    ;}
	.st1{fill:#476DAD;}
</style>
<g id="Layer_1-2">
	<g class="st0">
		<path class="st1" d="M7.4,41.4c-0.1,0.1-0.1,0.2-0.2,0.3c-0.3-0.2-0.4-0.6-0.6-0.9c0.2,0,0.4-0.2,0.6-0.2
			c-0.2-0.2-0.2-0.6-0.5-0.7c0-0.1,0-0.3,0-0.4c0.1-0.4,0-0.7,0-1c-0.4-2.5-1.2-5-1.9-7.5c-0.3-1-0.6-2-0.9-3.1
			c-0.5-1.8-1-3.7-1.4-5.6c0-0.3-0.2-0.6-0.2-1c0-0.5-0.1-1-0.2-1.4c-0.1-0.1-0.1-0.3-0.1-0.5c-0.3-1.4-0.5-2.8-0.6-4.2
			c0-0.6-0.2-1.2-0.2-1.8c-0.1-0.7,0-1.4-0.1-2.1c0-0.3-0.1-0.6-0.1-0.9c0-0.4,0-0.8,0-1.2c0,0,0.1-0.1,0.1-0.2C1.1,9,1,9.4,1.1,9.7
			c0.3-0.1,0.3-0.3,0.3-0.5c0-0.5,0.1-0.7,0.6-0.7c0.1,0,0.3-0.1,0.4-0.2c0.1,0,0.2,0.1,0.1,0.3C2.6,8.6,2.5,8.7,2.4,8.8
			c0,0.1,0,0.1,0,0.1c0.2-0.2,0.4-0.3,0.8-0.4c0.1,0.1,0.3,0.2,0.5,0.4c0-0.2-0.1-0.3,0-0.4c0.1-0.1,0.3-0.2,0.4-0.3
			c0,0.1,0.1,0.2,0.3,0.4c0-0.2,0-0.3,0-0.4h0.1c0.1,0.1,0.1,0.4,0.3,0.6C5,8.6,5.1,8.5,5.3,8.5c0.1,0.5,0,1,0.5,1.5
			C5.9,9.6,6,9.3,5.9,8.9c0,0,0,0-0.1,0C5.8,9,5.7,9.1,5.7,9.2C5.6,8.8,5.6,8.7,6,8.6c0.1,0,0.2,0,0.3-0.1c0,0,0,0.1,0,0.1
			C6.1,9,6.2,9.5,6.3,9.9c0,0.4,0.1,0.8,0,1.1c0-0.2-0.1-0.4-0.1-0.6c0,0,0,0,0,0c0,0.6-0.2,1.2,0.2,1.7c0.1,0.1,0.2,0.3,0.2,0.5
			c0,1.1,0.2,2.2,0.4,3.3c0.2,1.5,0.5,2.9,0.7,4.4c0.1,0.3,0,0.6,0.1,0.9c0,0.1,0,0.2,0,0.2c0.2,0.5,0.4,1,0.4,1.5
			c0,0.1,0,0.2,0,0.3c0.4,1.3,0.8,2.7,1.2,4.1c0.1,0.6,0.3,1.3,0.2,2c0,0.2,0.1,0.2,0.1,0.4c0.4,0,0.6-0.2,0.5-0.9
			c-0.1,0.1-0.2,0.2-0.3,0.3c0-0.1,0-0.2,0-0.4c0.2-1.1,0.4-2.3,0.7-3.5c0,0,0-0.1,0-0.2c0-0.8,0.1-1.6,0.3-2.4c0-0.2,0-0.4,0.1-0.5
			c0.3-0.6,0.5-1.2,0.5-2c0.1,0.1,0.1,0.1,0.1,0.2c0-0.7,0.1-1.3,0.1-1.9c0,0,0,0-0.1,0c0,0.3,0,0.6-0.1,0.9c0,0,0,0-0.1,0
			c0-0.1-0.1-0.2-0.1-0.3c0-0.5,0-1,0.2-1.4c0.1-0.2,0.1-0.6,0.4-0.8c0,0,0-0.2-0.1-0.2c0-0.1,0-0.1,0-0.2c0.1-0.6,0.3-1.3,0.5-1.9
			c0,0,0-0.1,0.1-0.2c0.1,0,0.2-0.1,0.2-0.2c-0.1-0.4,0.2-0.8,0.2-1.3c0-0.4,0-0.9,0.1-1.4c0-0.3,0-0.7,0.1-1.2
			c0-0.2,0.1-0.4,0.1-0.6c0.2-0.3,0.5-0.2,0.9-0.4c0-0.5,0-1,0-1.5c0.3,0,0.2,0.4,0.5,0.4c0-0.2,0-0.4,0-0.6c0.2,0,0.3,0.1,0.4,0.1
			c0-0.1,0-0.2,0-0.4c0,0.2,0.1,0.3,0.2,0.4c0.2,0,0.4-0.1,0.6-0.3c0.1,0.1,0.2,0.2,0.5,0.3c0,0.4,0,0.8,0.1,1.2c0,0,0.1,0,0.2-0.1
			c0,0.2,0.1,0.3,0.1,0.5c0.1-0.1,0-0.3,0-0.5c0.1,0,0.1,0,0.3,0.1c-0.1-0.4-0.3-0.7-0.4-1c0.1-0.2,0.5-0.3,0.3-0.8
			c-0.1,0-0.2,0-0.2,0c0-0.2,0-0.4-0.1-0.8c0.3,0.3,0.6,0.4,0.9,0.7c0,0,0,0.1-0.1,0.2c0.4,0.1,0.4,0.1,0.4,0.6
			c0.1,0.7,0.1,1.5,0.5,2.2c0.2,0.3,0.2,0.6,0.1,1c0-0.1-0.1-0.2-0.2-0.3c0,0.5-0.2,1,0,1.4c0,0.3-0.1,0.7-0.1,1
			c0,0.2-0.1,0.4-0.1,0.6c0,0.3-0.1,0.6-0.1,0.9c-0.1,0.6-0.3,1.2-0.5,1.8c-0.3,1.1-0.4,2.4-0.5,3.5c0,1.4-0.4,2.7-0.6,4
			c-0.1,0.7-0.2,1.4-0.3,2.1c-0.1,0.4-0.2,0.9-0.3,1.4c-0.2,1.2-0.4,2.3-0.6,3.5c-0.2,1.2-0.4,2.4-0.6,3.6c-0.1,1-0.4,2.1-0.6,3.1
			C14,39.1,13.8,40,13.7,41c0,0.2-0.2,0.4,0,0.7c-0.1,0.5-0.3,1.1-0.5,1.7c0,0.1-0.1,0.2,0,0.3l-0.1,0.2c-0.3-0.1-0.3,0.2-0.5,0.3
			c-0.1,0-0.2,0.1-0.2,0.1c-0.1,0-0.3,0.1-0.5,0.1c0,0-0.2,0.1-0.3,0.1c0,0,0-0.2,0-0.2s0-0.1,0-0.2c-0.3-0.2-0.5,0.1-0.8,0.1
			c-0.1,0-0.1,0.1-0.1,0.3c-0.2,0-0.4-0.2-0.5-0.4c0.1-0.2,0.5,0.1,0.6-0.2c-0.3-0.1-0.6-0.2-0.9-0.2c-0.1,0.2-0.2,0.5-0.4,0.7
			c-0.1-0.1-0.1-0.2-0.1-0.3c-0.4,0.1-0.5-0.2-0.7-0.4c-0.1-0.2-0.1-0.4-0.5-0.2c-0.1,0-0.3,0-0.5-0.1c0,0,0,0,0-0.1s0.1,0,0.1-0.1
			c0.3-0.2,0.3-0.5,0.2-1c-0.1,0-0.1-0.2-0.2-0.3C7.4,41.7,7.4,41.6,7.4,41.4z M7.4,42.7c-0.1,0-0.1,0-0.3-0.6c-0.1,0-0.2,0-0.5,0
			c0.1-0.1,0.1-0.2,0.1-0.3c0.3,0,0.6,0,0.8,0.1C7.4,42.2,7.4,42.4,7.4,42.7z M7.8,22.1c-0.1-0.1-0.1-0.1-0.1-0.2c0,0-0.1,0-0.1-0.1
			c0,0.2,0,0.2,0.1,0.4C7.7,22.1,7.7,22.1,7.8,22.1z M8,23.4c0,0.1,0,0.2,0,0.3c0,0,0,0,0.1,0C8.1,23.6,8.1,23.5,8,23.4
			C8.1,23.4,8.1,23.4,8,23.4z M9.6,43c0,0.2,0,0.3,0,0.5c0.2-0.1,0.3-0.2,0.4-0.3C10,42.9,9.8,43,9.6,43z M11.4,25.8
			c0-0.2,0-0.4,0.1-0.6h0C11.4,25.4,11.4,25.6,11.4,25.8C11.4,25.8,11.4,25.8,11.4,25.8z M13.8,42.2c0.1-0.2,0.1-0.2,0.6-0.3
			C14.2,42,14,42.1,13.8,42.2z M14,9.9c0,0.1,0,0.2,0,0.3c0,0,0,0,0.1,0C14.1,10,14.1,9.9,14,9.9C14,9.9,14,9.9,14,9.9z M14.5,41
			C14.5,41.1,14.5,41.1,14.5,41c0,0.3-0.2,0.2-0.4,0.1C14.2,41.1,14.3,41.1,14.5,41z M15.8,8.5c-0.1,0-0.1-0.1-0.3-0.2
			c0.1,0.3,0.2,0.6,0.3,0.9C15.9,9.1,16,9,16,9c0.1,0,0.1,0,0.2,0.1c0-0.4-0.1-0.7-0.4-1.2C15.9,8.1,15.9,8.3,15.8,8.5z"/>
		<path class="st1" d="M21.5,10.3c-0.1,0.5-0.5,0.6-1,0.4c0,0,0-0.1,0-0.2c0.2,0,0.4,0,0.6,0.1c0-0.3,0-0.5,0-0.8
			C21.4,9.9,21.4,10.2,21.5,10.3z M20.7,11.4L20.7,11.4c0.1,0,0.1,0,0.1,0.1c0,0,0,0,0,0.2C20.8,11.6,20.8,11.5,20.7,11.4z
			 M21.4,11.5c-0.4-0.3-0.3-0.5,0.3-0.7c0-0.5-0.2-0.9-0.3-1.3c0-0.1-0.1-0.3-0.2-0.5C21,8.5,21,8.5,21.4,8.2c0,0,0.1,0.1,0.2,0.2
			c0.1,0,0.1-0.1,0.2-0.3c0.2,0.5,0,1,0.3,1.4c0.1-0.1,0.1-0.2,0.1-0.3c0-0.2,0-0.5,0-0.7c0.1-0.3,0-0.6-0.3-0.8
			C22.2,7.3,22.6,7,23,7.1c0.1,0,0.1,0,0.2,0c0.4,0.1,0.6,0.4,0.4,0.8c0,0.1-0.2,0.3,0,0.5c0.4-0.2,0.7-0.4,1-0.5c0-0.3,0-0.5,0-0.8
			c0.3,0.1,0.6,0.2,0.7,0.4c0,0.1,0.2,0.1,0.4,0.2c0,0.2,0,0.3,0,0.5c0.4-0.9,0.3-1,0.1-1.6c0.7,0.2,1,0.9,1.2,1.6
			c0.2,0.8,0.3,1.6,0.2,2.4c0,0.2,0,0.4,0,0.5c0,0.5,0,1-0.3,1.4c-0.1,0.2-0.1,0.5,0,0.7c0-0.1,0.1-0.2,0.2-0.4
			c0.1,0.2,0.1,0.4,0.1,0.7c-0.2,1-0.1,2.1,0,3.1c0.2,1.6,0.4,3.3,0.3,5c0,0.4,0.1,0.8,0.1,1.2c-0.1,0.9,0.2,1.8,0.2,2.7
			c0,1.1,0.1,2.3,0,3.4c-0.1,0.7-0.1,1.3-0.1,2c-0.1,0.9,0,1.8,0.1,2.8c0,1,0,2.1,0,3.1c0,0.2,0,0.5,0,0.8c0,0.2,0.1,0.5-0.3,0.7
			c0,0,0,0.2-0.1,0.3c0,0.3,0,0.7,0,1c0,0.2,0,0.2,0.1,0.3c0.1,0.1,0.4,0.2,0.4,0.4c-0.6-0.1-0.7-0.2-0.9-0.8c-0.1,0.2,0,0.4,0,0.6
			c0,0.1,0,0.4,0,0.6c0.4,0,0.7,0,1.2,0c-0.3,0.8-0.7,1.5-1.3,2.1c0,0-0.1-0.1-0.1-0.2c0,0,0,0-0.1-0.1c-0.1,0-0.1,0.1-0.2,0.1
			c0-0.1,0-0.2,0-0.3c0-0.1-0.1-0.2-0.2-0.3c-0.1,0.1-0.2,0.1-0.4,0.2c-0.1-0.2-0.2-0.3-0.2-0.5c-0.1,0.5,0,0.8,0.4,0.9
			c0.1,0.2,0,0.5,0.3,0.6c0.1,0,0.1,0.3,0.1,0.4c-0.1,0.2-0.3,0.3-0.4,0.5c-0.1-0.1-0.2-0.3-0.3-0.4c-0.2,0-0.4,0.2-0.3,0.6
			c-0.1,0-0.2,0-0.4-0.1c0-0.2,0.3-0.4,0-0.5c-0.2-0.1-0.3-0.1-0.6-0.1c0,0,0-0.1-0.1-0.3c0.1,0,0.2-0.1,0.3-0.2
			c0.2-0.2,0.4-0.3,0.6-0.5c0.1,0,0.1-0.2,0.1-0.3c-0.1,0-0.1,0-0.2,0c0-0.2-0.1-0.4-0.2-0.5c0-0.2-0.1-0.3-0.3-0.5
			c0,0.4-0.1,0.8-0.1,1.3c0-0.2-0.1-0.3-0.2-0.5c-0.1,0.1-0.2,0.3-0.2,0.4c-0.1,0.1-0.2,0.1-0.4,0.2c0.1,0.1,0.3,0.2,0.2,0.4
			c0,0.1-0.1,0.3-0.2,0.5c-0.2-0.1-0.4-0.2-0.5-0.3c0-0.3,0.2-0.6-0.1-0.8c-0.1,0-0.2,0.1-0.3,0.1c0-0.3-0.1-0.5-0.1-0.7
			c-0.2,0-0.3-0.1-0.5-0.1c0-0.1,0.1-0.3,0.1-0.4c0.1,0,0.2,0,0.4,0c0,0,0.1-0.2,0.1-0.2c0-0.1-0.1-0.2-0.2-0.3
			c0.1-0.4,0.2-0.9,0-1.4c0,0,0-0.1,0-0.1c0.1-0.5,0.1-0.5,0-0.9c0-0.1,0-0.3,0-0.4c0-1,0-2,0-3.1c0-0.1,0-0.3,0-0.5
			c0-1.3,0-2.6,0-3.9c0-0.5,0.1-1,0.1-1.5c0.1-1.4,0-2.7-0.1-4.1c0-0.5,0-0.9,0-1.4c0-2-0.2-4-0.4-6c0-0.2,0-0.5,0-0.8
			c0-0.5,0-1-0.1-1.5c-0.1-0.4,0-0.8,0-1.2c0.1-0.6,0.1-1.2,0.1-1.9c0-0.3,0-0.7,0-1.1c0-0.1,0-0.2,0-0.3
			C21.6,11.4,21.4,11.5,21.4,11.5z M22.7,6.7c0.1-0.1,0.2-0.1,0.3,0c0,0,0,0,0,0.1C22.9,6.8,22.8,6.7,22.7,6.7z M23.4,6.8
			c0,0,0,0.1,0,0.1c-0.1,0-0.2,0-0.3-0.1C23.2,6.8,23.3,6.7,23.4,6.8z M24,7.1c0.1,0.2,0,0.3-0.1,0.4C24,7.4,24,7.3,24,7.1z M25.9,7
			c0,0,0,0.1,0,0.1c0,0.1,0,0.2-0.1,0.2s-0.2,0-0.2-0.1c-0.1-0.1-0.1-0.2-0.1-0.3c0,0,0,0,0-0.1C25.7,6.9,25.8,7,25.9,7z M26.4,9.5
			c0.1-0.4,0.2-0.9,0-1.3C26.2,8.6,26.3,9.1,26.4,9.5z M27.8,41.8c-0.4,0-0.8,0-1.2,0c0-0.4,0-0.7,0.1-1.2c-0.4,0.4-0.3,0.9-0.3,1.4
			C26.9,42.4,27.3,42.3,27.8,41.8z M27,8.9c0-0.2-0.1-0.4-0.1-0.6c0.1,0.2-0.3,0.4,0,0.6C26.9,8.9,26.9,8.9,27,8.9z M26.8,29.1
			c0,0.4,0,0.8,0,1.1c0,0,0,0,0.1,0C26.8,29.9,26.8,29.5,26.8,29.1C26.8,29.1,26.8,29.1,26.8,29.1z M26.8,38.9c0,0.1,0,0.1,0,0.1
			c0,0.6,0,1.3,0,1.9c0.1,0,0.2-0.1,0.3-0.1c0-0.2,0.1-0.5,0-0.6c-0.2-0.3-0.1-0.6-0.1-0.9c0-0.1,0-0.2,0-0.3
			C26.9,38.9,26.9,38.9,26.8,38.9z M26.9,16.5c0,0.1,0,0.2,0.1,0.4c0,0,0,0,0,0C27.1,16.7,27,16.6,26.9,16.5
			C27,16.5,27,16.5,26.9,16.5z M27.1,11.4c0,0,0,0.1,0,0.2c0,0,0,0,0.1,0C27.1,11.6,27.2,11.5,27.1,11.4
			C27.2,11.4,27.1,11.4,27.1,11.4z M27.1,9.9c0-0.1,0-0.3,0-0.4C27.1,9.6,27.1,9.7,27.1,9.9z M27.5,22.8c0-0.1,0-0.1,0-0.2
			c0,0,0,0,0,0C27.4,22.6,27.4,22.7,27.5,22.8C27.4,22.8,27.4,22.8,27.5,22.8z M27.7,25.2c0-0.3-0.1-0.7-0.1-1
			C27.4,24.5,27.6,24.9,27.7,25.2z M27.6,33.3c-0.1,0.2-0.1,0.3,0.1,0.5C27.7,33.7,27.7,33.5,27.6,33.3L27.6,33.3z M27.7,35.7
			c0-0.2,0-0.3,0-0.5c0,0,0,0,0,0C27.7,35.4,27.7,35.5,27.7,35.7C27.7,35.7,27.7,35.7,27.7,35.7z M28.4,40.4c-0.1,0-0.2,0-0.5-0.1
			c0.2-0.2,0.5-0.3,0.7-0.4v0C28.6,40.1,28.5,40.3,28.4,40.4z M28.7,40.8c-0.1-0.4,0.2-0.6,0.4-0.9C29,40.2,28.9,40.5,28.7,40.8z"/>
		<path class="st1" d="M30.8,8.9c0.1-0.2,0.1-0.2,0.2-0.4c0.2,0.2,0.2,0.4,0,0.6C31,9,30.9,9,30.8,8.9z M44.2,8
			c0.3,0.2,0.7,0.2,1,0.6c0,0,0,0,0.1,0.1c0.6,0.2,1.2,0.4,1.8,0.8c-0.1-0.2-0.3-0.4-0.5-0.7l0-0.1c0.1,0.1,0.2,0.1,0.3,0.2
			c0.3,0.3,0.7,0.7,1.1,1.1c0.3,0.3,0.7,0.6,0.9,0.9c0.3,0.4,0.5,0.9,0.7,1.4c0.1,0.2,0.2,0.6-0.1,0.9c0,0,0,0.1,0,0.1
			c0,0.1,0,0.2,0.1,0.3c0.1,0.2,0.2,0.5,0.3,0.8s0.1,0.5,0.1,0.8c0,0.2,0,0.5,0,0.7c0,0.6,0.1,1.3,0.4,1.8c0,0,0,0,0,0.1
			c0,0.6,0.2,1.2,0.4,1.8c0-0.5,0-0.9-0.1-1.4c0,0,0,0,0.1,0c0,0.2,0.1,0.5,0.2,0.7c0.1,0.2,0.1,0.4,0.1,0.5
			c0.1,1.4,0.2,2.9,0.1,4.3c-0.1,0.2,0,0.4,0,0.7c0,0.6-0.1,1.2-0.1,1.8c0,0,0,0.1,0,0.1c0.1,0.4,0.1,0.9,0,1.4c0,0.1,0,0.3,0,0.5
			c0,0.6-0.1,1.1-0.2,1.7c-0.1,0.8-0.3,1.7-0.5,2.5c0,0.1,0,0.3-0.1,0.5c0,0.3-0.1,0.6-0.2,0.9c0,0.3-0.1,0.6-0.1,1
			c-0.1,0.3-0.2,0.6-0.3,0.9c-0.1,0.3-0.2,0.5-0.4,0.6c0-0.1,0-0.2,0-0.3c0.2-0.3,0.3-0.6,0.1-1c-0.6,0.3-0.6,0.9-0.7,1.4
			c0.1,0,0.1-0.1,0.2-0.2c0.1-0.1,0.1-0.1,0.2-0.2c0,0.6-0.3,1.1-0.6,1.8c0.4-0.2,0.3-0.7,0.7-0.8c0,0.3-0.1,0.6-0.3,0.9
			c-0.2,0.3-0.4,0.6-0.5,1c-0.3,0.6-0.7,1.3-1.2,1.8c-0.2,0.2-0.5,0.3-0.4,0.7c0,0,0,0.1-0.1,0.1c-0.2,0.4-0.6,0.7-1,0.9
			c-0.4,0.3-0.8,0.7-1.3,0.8c-0.5,0.2-1,0.4-1.5,0.6c-0.7,0.3-1.4,0.6-2.1,0.8c-0.9,0.3-1.8,0.7-2.9,0.8c-0.2,0-0.5,0.1-0.6-0.2
			c0-0.1-0.2-0.1-0.3,0c0,0.1,0,0.2,0,0.2c-0.4,0-0.6-0.1-0.8-0.5c-0.1,0.1-0.1,0.1-0.1,0.2c0,0.2,0,0.5-0.1,0.8
			c0-0.1-0.1-0.1-0.2-0.2c-0.1,0-0.2,0.2-0.3,0c-0.2-0.2-0.5-0.5-0.8-0.8c0,0,0.1-0.1,0.3-0.2c-0.4-0.1-0.8,0-1.1-0.4
			c0.1-0.1,0.1-0.3,0.3-0.5c-0.1,0-0.3,0-0.4,0c-0.3,0-0.3,0-0.3-0.3l-0.1,0c-0.1,0-0.4-0.1-0.5-0.2c0-0.3,0.4-0.2,0.5-0.4
			c-0.2-0.1-0.4-0.2-0.7-0.2c0.2-0.1,0.3-0.2,0.4-0.2c-0.1,0-0.1-0.1-0.2-0.2c0,0,0,0,0.1,0c0.4,0,0.7,0,1.1,0c0-0.2,0-0.3,0-0.4
			c0-0.1-0.1-0.2-0.3-0.2c-0.4-0.1-0.8-0.2-1.3-0.4c0,0-0.1-0.2-0.1-0.2c0,0,0.1-0.1,0.1-0.1c0.1,0,0.2,0,0.4,0s0.3,0,0.5-0.1
			c-0.2-0.1-0.3-0.2-0.5-0.2c0.1-0.3,0.2-0.3,0.5-0.2c0.8,0.2,0.6,0.2,0.8-0.5c0.1,0.1,0.1,0.3,0.2,0.4c0.2,0,0.4,0,0.7,0
			c0.1-0.3-0.1-0.5-0.3-0.7c0,0,0,0,0,0c0,0,0.1,0,0.2,0C35,39,35,38.4,35,37.8c0-0.9,0-1.9,0-2.8c0-0.4,0-0.7,0-1.1
			c0-0.7,0-1.4,0-2.2c0-0.5,0-1.1,0-1.6c0-0.8,0-1.5,0-2.3c-0.1-0.8-0.1-1.7-0.2-2.6c0-0.9,0-1.8-0.1-2.7c0-0.7,0-1.4,0-2.1
			c0-1,0-2.1,0-3.2c0-1.3,0-2.5,0-3.8c0-0.1,0-0.2,0-0.4c-0.6,0.1-1.2,0.3-1.8,0.4c-0.2-0.2,0-0.3,0-0.5c-0.3,0.1-0.5,0.1-0.9,0.1
			c0-0.2,0-0.4,0-0.7c-0.1,0-0.3,0-0.5,0c-0.1-0.2-0.1-0.4,0.2-0.6c-0.1-0.3-0.3-0.4-0.2-0.8c0,0,0-0.1-0.1-0.2
			c0.1,0,0.3-0.1,0.4-0.2v0c-0.1,0-0.3,0-0.4,0c0.1-0.2,0.3-0.4,0.5-0.6c0.2-0.2,0.2-0.2,0-0.5c-0.1-0.2-0.1-0.5-0.3-0.7
			c-0.1-0.2-0.2-0.3-0.2-0.4c0-0.2,0.2-0.2,0.3-0.4c-0.2,0-0.3,0-0.5,0c0.2-0.3,0.5-0.4,0.8-0.5c0.4,0,0.9-0.2,1.4,0
			c0.1,0,0.2,0,0.2,0C34.4,7,35,6.9,35.7,7c0.2,0,0.3,0,0.5,0c0.4-0.1,0.8-0.2,1.3-0.2c0.1,0,0.2-0.1,0.2-0.1c0.2-0.1,0.4-0.1,0.6,0
			c0.2,0.2,0.6,0.3,0.9,0.1c0.1,0,0.2,0,0.2,0c-0.3-0.1-0.6-0.2-0.9-0.2c0,0,0-0.1,0-0.2c0.1,0,0.2,0,0.4,0c0.6,0,1.2,0.1,1.8,0.2
			c0.9,0.1,1.7,0.3,2.5,0.7c0.3,0.1,0.6,0.2,0.8,0.5c-0.1,0-0.2,0.1-0.3,0.1c0-0.1-0.1-0.2-0.4,0c0.2,0,0.3,0,0.4,0
			C44,7.9,44.1,8,44.2,8z M33.3,7.3c0,0-0.1,0-0.2,0c0,0,0,0-0.1,0.1C33.2,7.3,33.2,7.3,33.3,7.3L33.3,7.3z M34.1,9.9
			c-0.1,0-0.3,0-0.5,0.1c0,0,0,0,0,0.1C33.8,10,34,10.2,34.1,9.9C34.2,10,34.2,9.9,34.1,9.9z M33.9,43.1c-0.1,0-0.2,0.1-0.2,0.2
			c-0.1,0.1,0.1,0.2,0.2,0.2c0.2,0,0.3-0.1,0.5-0.4C34.2,43.1,34,43.1,33.9,43.1z M34.6,44.3c-0.2-0.2-0.5-0.2-0.8-0.2
			c0,0,0,0.1,0,0.1C34,44.3,34.3,44.3,34.6,44.3C34.6,44.4,34.6,44.3,34.6,44.3z M33.7,41.3c0.2,0.2,0.5,0.1,0.8,0
			C34.3,41.3,34,41.2,33.7,41.3C33.7,41.2,33.7,41.3,33.7,41.3z M35.2,44.8c-0.1,0-0.1-0.2-0.2-0.2c-0.2,0-0.5,0-0.9,0
			C34.6,44.9,34.8,44.9,35.2,44.8z M36,7.1c-0.1,0-0.2,0-0.3,0c0,0,0,0,0,0.1c0.1,0,0.2,0,0.3,0C36,7.2,36,7.2,36,7.1z M37.2,20.1
			c-0.1,0-0.1,0-0.1,0C37.2,20.2,37.2,20.2,37.2,20.1C37.2,20.2,37.2,20.2,37.2,20.1L37.2,20.1z M37.2,7.2c0.4,0.1,0.7,0.1,1-0.2
			C37.6,6.7,37.4,6.7,37.2,7.2z M39.7,45.4c0,0-0.1,0-0.2,0c-0.3,0-0.6,0.1-0.9,0.1c-0.3,0.1-0.5,0.1-0.7,0.3
			C38.5,45.8,39.2,45.9,39.7,45.4C39.8,45.4,39.7,45.4,39.7,45.4z M39.1,14c0,0.3,0,0.7,0.1,1c0-0.3,0-0.6,0.1-0.9
			C39.2,14.1,39.1,14.1,39.1,14z M39.2,25.2c0,0.2,0,0.4,0,0.6C39.2,25.7,39.2,25.5,39.2,25.2z M39.3,35c0,0.4,0,0.8,0.1,1.2
			C39.4,35.8,39.4,35.4,39.3,35C39.4,35,39.3,35,39.3,35z M39.8,17.6c0,0.1,0,0.2,0,0.3h0C39.9,17.9,39.9,17.8,39.8,17.6
			C39.9,17.7,39.8,17.7,39.8,17.6z M39.9,19C39.9,19,39.9,19,39.9,19c-0.1,0.2-0.1,0.3-0.1,0.5C39.9,19.3,40,19.2,39.9,19z M42,38.5
			c1.2-1.3,2-2.7,2.5-4.4c0.3-1,0.4-1.9,0.7-2.9c0-0.3,0.1-0.6,0.2-0.9c0.2-1,0.3-2,0.3-3c0-1,0-2.1,0.1-3.1c0-1.2,0-2.6-0.2-3.8
			c-0.2-1.2-0.4-2.4-0.6-3.6c-0.1-1.4-0.8-2.5-2.1-3.2c-0.3-0.2-0.7-0.4-1.1-0.5c-0.4-0.2-0.9-0.4-1.4-0.4c0,0.1,0,0.3,0,0.5
			c0,0.5,0,0.9,0,1.4c-0.1,1.5-0.1,3.1-0.2,4.6c0,0.1,0,0.2,0,0.3c0,0.2,0,0.5,0,0.7c0,1.2,0,2.5,0,3.8c0.1,1.3,0.2,2.6,0.2,3.8
			c0,1,0,1.9,0,2.9c0,1.5,0,3,0,4.5c0,1-0.1,2.2-0.1,3.2c0,0.3,0,0.7,0.1,1C41.2,39.2,41.6,38.9,42,38.5z M40.2,28.9
			c0-0.2,0-0.3,0-0.4C40.1,28.7,40.1,28.7,40.2,28.9z M40.2,39.4c0,0,0-0.1,0-0.1c0-0.1,0-0.2-0.1-0.2c0,0,0,0,0,0
			C40.1,39.2,40.2,39.3,40.2,39.4L40.2,39.4z M40.2,30.9C40.2,30.8,40.2,30.8,40.2,30.9c0-0.2,0-0.4,0-0.6
			C40.2,30.5,40.2,30.7,40.2,30.9z M41.4,6.9c0,0-0.1,0-0.2,0v0C41.3,7,41.3,7,41.4,6.9C41.4,7,41.4,7,41.4,6.9z M41.2,44.9
			c0.2,0,0.4,0,0.7-0.4C41.5,44.4,41.4,44.7,41.2,44.9z M42.7,7.3c0.1,0,0.2,0.1,0.3,0.1c0,0,0-0.1,0-0.1
			C42.9,7.3,42.8,7.3,42.7,7.3L42.7,7.3z M44.8,42c0-0.1,0.1-0.1,0.1-0.2l0,0C44.9,41.8,44.8,41.9,44.8,42C44.8,42,44.8,42,44.8,42z
			 M46,8.5c-0.3,0-0.7-0.2-1-0.7C45.4,8,45.7,8.2,46,8.5z M45.1,43.3c0.1-0.1,0.2-0.1,0.3-0.2l0-0.1C45.3,43.1,45.2,43.1,45.1,43.3
			C45.1,43.2,45.1,43.2,45.1,43.3z M47.3,40.9c0-0.2,0.1-0.3,0.2-0.4c0.1-0.1,0.1-0.1,0-0.2c-0.5,0.4-0.5,0.4-0.6,1.1
			C47.1,41.3,47.3,41.2,47.3,40.9z M48.2,39.3c0,0.1-0.1,0.2-0.2,0.3C48.2,39.6,48.2,39.5,48.2,39.3z M48.5,10.9
			c-0.1-0.1-0.2-0.2-0.3-0.4C48.2,10.9,48.2,10.9,48.5,10.9z M49.4,12.1c-0.1-0.2-0.2-0.3-0.4-0.5c-0.1,0.4,0,0.5,0.3,0.9
			C49.3,12.4,49.3,12.3,49.4,12.1z M50,35.1c0.2-0.8,0.2-1,0-1.3c-0.1,0.4-0.2,0.8-0.4,1.2c0.1-0.1,0.2-0.1,0.2-0.1
			C49.9,35,49.9,35,50,35.1z M50.2,14.1c-0.2-0.3-0.3-0.4-0.1-0.8C50.2,13.5,50.2,13.8,50.2,14.1z M50.3,27.6c0-0.1,0-0.1,0-0.2
			s0,0,0,0C50.2,27.5,50.2,27.5,50.3,27.6C50.2,27.6,50.2,27.6,50.3,27.6z M51.1,28.7c0,0.2,0,0.5-0.1,0.9c0,0,0.1,0,0.1,0
			c0-0.3,0-0.6,0.1-0.9C51.2,28.7,51.1,28.7,51.1,28.7z M51.1,27.8c0.2-0.2,0.2-0.4,0.1-0.6c-0.1-0.4-0.1-0.8,0-1.2
			c0-0.2,0.2-0.5-0.1-0.8C51.1,26.1,51,26.9,51.1,27.8z"/>
		<path class="st1" d="M53.7,8.5c0.1-0.2,0.2-0.2,0.4,0C54,8.5,53.9,8.5,53.7,8.5z M54.1,8.6c0,0,0-0.1,0-0.1
			C54,8.3,53.9,8.2,53.8,8c0.1,0,0.2,0,0.3,0c0,0,0,0,0,0v0c0.3,0,0.4,0,0.5-0.3c-0.2,0.1-0.3,0.2-0.5,0.3c0.3-0.6,0.8-0.9,1.5-1
			c0.3,0,0.6,0,0.9,0c0-0.1,0-0.3,0.1-0.3c0.1-0.1,0.2,0,0.4,0c0.1,0,0.2,0.1,0.4,0.1c0-0.1-0.1-0.2-0.1-0.2c0,0,0-0.1-0.1-0.2
			c0.1,0,0.3,0,0.3,0.1c0.2,0.2,0.5,0.2,0.8,0.2c0.6,0,1.3,0,2,0c0.2,0,0.4,0,0.6,0c-0.4,0-0.8-0.1-1.2-0.1c0.7-0.2,1.5-0.3,2.3-0.2
			c0.1,0,0.3,0,0.4,0.1c0.2,0.2,0.3,0.2,0.6,0.2c0.2,0,0.5,0,0.7,0s0.5,0,0.8,0c-0.1,0-0.1,0-0.1,0.1c0,0.1,0.3,0.1,0.6,0
			c0.1,0,0.2-0.2,0.5,0c-0.2,0.2-0.5,0.2-0.7,0.2c-0.2,0-0.2,0-0.4,0.2c0.4,0,0.8,0,1.2,0s0.8,0.1,1.2,0.1c0.1,0.1,0.1,0.3,0.2,0.4
			c0.2,0,0.4,0,0.5-0.1c0,0,0,0,0,0.1c-0.1,0.1-0.1,0.2-0.2,0.3c-0.3,0.1-0.7,0.4-1.1,0.4c-0.3,0.1-0.4,0.4-0.5,0.7
			C66,9.2,66.1,9.1,66.3,9c0,0.1,0,0.2,0,0.3c0.5,0.1,0.7-0.5,1.1-0.5c0.2,0.4,0.2,0.4-0.2,0.8c0.4,0,0.8,0.1,1.1,0.1
			c0.1,0.2,0.1,0.5,0.1,0.7c-0.2,0.2-0.4,0.3-0.7,0.6c0-0.2-0.1-0.3-0.1-0.4c-0.4,0.3-0.7,0.5-1.3,0.6c-0.4,0.1-0.9,0.2-1.4,0.4
			c-0.1,0-0.3,0-0.4,0c-0.3,0-0.5,0-0.7,0.2c-0.1,0.1-0.4,0.1-0.6,0c-0.8-0.2-1.7,0-2.6,0c0,0.3-0.1,0.7-0.1,1
			c0,0.3-0.1,0.6-0.1,0.9c0,0.3,0,0.7,0,1c0,1.3,0,2.6,0,3.9c0,1,0,2.1,0,3.1c0,0.1,0,0.3,0,0.4c0.6,0,1.2,0,1.6-0.4
			c0.1,0,0.2,0,0.3-0.1c0.2,0,0.4,0,0.5-0.2c0-0.1,0.2-0.1,0.3-0.1s0.2,0.1,0.2,0.3c0.1,0.1,0,0.4,0,0.5c0.9,0,1.7,0.2,2.5,0.7
			c-0.2,0.3-0.2,0.3-0.8,0.3c0.1,0,0.1,0.1,0.3,0.1c-0.1,0-0.1,0.1-0.1,0.1c0.1,0.1,0.3,0.3,0.4,0.5c0.2-0.4,0.6-0.1,0.9-0.2
			c0.2,0.2,0.2,0.2,0.1,0.3c0,0,0,0,0.1,0.1c0.5,0.1,0.5,0.2,0.2,0.6c0.4,0,0,0.4,0.3,0.6c-0.2-0.1-0.4-0.1-0.7-0.2
			c0,0.5,0,0.5,0.4,0.6c0.2,0,0.4,0.2,0.6,0.2c-0.2,0-0.4,0-0.6-0.1c0,0,0,0,0,0c0.3,0.1,0.6,0.3,0.9,0.5c0,0.3,0,0.3-0.3,0.4
			c-0.1,0-0.3-0.1-0.5-0.3c0,0.2,0,0.2,0.1,0.3c0,0,0.1,0,0.1,0.1c0.1,0.1,0.2,0.3,0.2,0.4c-0.1,0.2-0.2,0.2-0.3,0.3
			c-0.1,0-0.1,0-0.2,0c0,0,0-0.1,0-0.1c0-0.1,0.1-0.3-0.1-0.4c-0.1,0-0.4-0.2-0.5,0.1c0,0-0.1,0-0.1,0s-0.1,0-0.2,0
			c-0.4,0.2-0.8,0.2-1.3,0.1c-0.4,0-0.8,0-1.1,0c-0.8,0.1-1.7,0.2-2.6,0.3c-0.1,0-0.1,0-0.2,0c0,0.1,0,0.2,0,0.3c0,0.8,0,1.6,0,2.4
			c0,0.6,0,1.2-0.1,1.7c0,0.6,0,1.1-0.1,1.7c0,0.1,0,0.2,0,0.3c-0.2,0.5-0.1,0.9,0,1.4c0.1,1,0.2,2.1,0.3,3.1c0,0.1,0,0.1,0,0.3
			c0.2,0,0.5,0,0.7-0.1c0.3-0.1,0.7-0.2,1-0.3c0.2,0,0.5,0,0.7,0c0.1,0,0.2,0,0.3,0c0.1,0,0.2,0,0.4,0.1c-0.3,0.2-0.7,0-1,0.1
			c0.1,0.3,0.3,0.4,0.7,0.4c0.3,0,0.7,0,1,0c0.4,0.1,0.8,0.3,1.2,0.5c0,0.1,0,0.3,0,0.4c-0.2,0.1-0.4-0.1-0.5,0.2
			c0,0.3-0.3,0-0.4,0.2c0.2,0,0.5,0.1,0.7,0.1c0,0,0-0.1,0-0.1c-0.1,0-0.2-0.1-0.3-0.2c0.2,0.1,0.5,0.2,0.8,0.2
			c0.2,0,0.4,0.1,0.6,0.2c0.1,0.4,0.6,0.4,0.7,0.8c0,0-0.1,0-0.2,0.1c-0.1,0.3,0.5,0.2,0.3,0.7c-0.1-0.1-0.3-0.2-0.5-0.3
			c-0.1,0.1-0.2,0.3-0.3,0.4c0.2,0.2,0.4,0.4,0.7,0.7c-0.1,0-0.1,0-0.2,0c0.1,0.3,0.5,0.4,0.4,0.8c-0.1,0-0.2-0.1-0.4-0.1
			c0,0.1,0,0.1-0.1,0.2c0,0.2,0.1,0.4,0.4,0.4c-0.1,0-0.3,0-0.4,0c0.1,0.2,0.2,0.3,0.4,0.5c-0.4,0-0.7-0.1-1-0.1
			c-0.2,0-0.2-0.1-0.2-0.3c0-0.1,0-0.2-0.3-0.2c0,0.1-0.1,0.2-0.1,0.3c-0.2-0.1-0.4-0.2-0.6-0.1c-0.1,0.1-0.3,0-0.4,0
			c-0.5-0.1-1.1-0.1-1.6-0.1c-0.7,0-1.3,0.1-2,0.2c-0.6,0.1-1.2,0.1-1.9,0c-0.1,0-0.2,0-0.5,0c0.2,0.2,0.4,0.4,0.6,0.6
			c-0.5-0.2-0.9-0.3-1.3-0.5c-0.1-0.1-0.3-0.1-0.5-0.1c-0.2,0-0.5-0.1-0.8-0.1c-0.2,0-0.4,0-0.5,0.3c-0.1-0.2-0.2-0.3-0.3-0.4
			c0,0-0.1,0-0.2,0c-0.2-0.1-0.4-0.2-0.5-0.3c0-0.1-0.2-0.4-0.3-0.6c0.1,0,0.3,0,0.4,0c0.2-0.3,0.1-0.4-0.2-0.5
			c0.1-0.4,0.3-0.8,0.1-1.3c-0.4,0.1-0.1,0.3-0.2,0.5c0,0-0.1,0-0.2,0.1c0-0.2-0.1-0.3-0.2-0.5c0.3-0.2,0.3-0.2,0.3-0.8
			c0.2,0,0.1,0.3,0.3,0.3c0-0.3,0.1-0.6,0.1-0.9c0-0.1,0-0.2-0.1-0.3c-0.1-0.1-0.1-0.4-0.1-0.6c0-0.9-0.1-1.8-0.1-2.6
			c-0.1-0.6-0.1-1.1-0.1-1.7c0.1-0.3,0-0.7,0-1c0.1-1,0.1-2,0.2-3c0-0.4-0.1-0.9-0.1-1.4c0-1,0-2,0-3.1c0-0.2,0-0.4-0.3-0.4
			c0.2-0.3,0.2-0.6,0.2-0.9c-0.1-0.6,0-1.2,0-1.8c0-0.3,0-0.5,0-0.8c0-0.7,0-1.4,0-2.2c0-0.4,0-0.9,0-1.4c0-0.9,0-1.9,0.1-2.9
			c0-0.3,0-0.6,0-0.8c0-1.3,0.1-2.6,0.2-3.9c0-0.5,0-1,0-1.5c-0.1,0-0.2,0-0.3,0c0-0.1,0.1-0.2,0.1-0.2c-0.1,0-0.2,0.1-0.4,0.1
			c0.1-0.2,0.2-0.4,0.3-0.6c-0.1,0-0.1,0-0.2,0c0.1-0.2,0.1-0.4,0.4-0.4c0,0.1,0,0.1,0,0.2c0.2-0.1,0.2-0.1,0-0.2
			c-0.1-0.2-0.1-0.5,0-0.7c0.2,0,0.4-0.1,0.7-0.2c-0.4,0-0.5,0-0.7,0.2C54.5,8.6,54.3,8.6,54.1,8.6z M54.2,9.2c0,0-0.1,0.1-0.1,0.1
			C53.9,9.2,53.9,9.1,54,9c0.1-0.1,0.1-0.2,0.1-0.3C54.1,8.8,54.2,9,54.2,9.2z M56.4,6.3C56.3,6.3,56.3,6.4,56.4,6.3
			c-0.1,0-0.2,0-0.3-0.1c0,0,0,0,0-0.1C56.2,6.2,56.3,6.3,56.4,6.3z M58.9,22.1c0-0.3,0-0.6,0-1C58.7,21.5,58.7,21.8,58.9,22.1z
			 M58.8,32.9c0-0.4,0-0.7,0-1.1c0,0,0,0,0,0C58.8,32.2,58.8,32.5,58.8,32.9C58.8,32.9,58.8,32.9,58.8,32.9z M59.3,6.7
			c-0.1,0-0.2,0-0.4,0.1c0,0,0,0,0,0c0.1,0,0.3,0,0.4,0C59.3,6.8,59.3,6.8,59.3,6.7z M59.5,36.4c0,0.2,0,0.3,0.1,0.4
			c0-0.1,0-0.2,0-0.4C59.6,36.4,59.6,36.4,59.5,36.4z M59.9,15.2c0-0.1,0-0.3,0-0.4c0,0,0,0-0.1,0C59.8,14.8,59.8,15,59.9,15.2
			C59.8,15.2,59.8,15.2,59.9,15.2z M59.8,38.1c0,0.2,0,0.3,0,0.5c0,0,0,0,0.1,0C59.9,38.5,59.9,38.3,59.8,38.1
			C59.8,38.1,59.8,38.1,59.8,38.1z M61.1,39.9c-0.2,0-0.4,0-0.6,0c0,0,0,0.1,0,0.1C60.7,40.1,60.9,40,61.1,39.9
			C61.1,40,61.1,39.9,61.1,39.9z M61.7,22.6c-0.3-0.1-0.5-0.1-0.8,0.1C61.3,22.9,61.4,22.8,61.7,22.6z M64.6,9.4c0.2,0,0.4,0,0.6,0
			c0,0,0,0,0-0.1C64.9,9.3,64.8,9.4,64.6,9.4C64.5,9.4,64.5,9.4,64.6,9.4z M64.7,25c0.4,0.5,0.5,0.5,0.8,0.1
			C65.2,25.1,65,25.1,64.7,25z M66.6,41.1C66.6,41.1,66.5,41.2,66.6,41.1c-0.2,0-0.4-0.1-0.6-0.1c0,0,0.1-0.1,0.1-0.1
			C66.2,40.9,66.4,41,66.6,41.1z M66.3,28.4c-0.1,0-0.1,0-0.1,0c0,0,0,0,0-0.1C66.2,28.3,66.3,28.4,66.3,28.4z"/>
		<path class="st1" d="M78.1,8.6c0.3-0.2,0.6-0.3,1-0.2s0.7-0.1,1.1-0.1c0.3-0.1,0.6,0,0.9,0.1c0.1,0,0.2,0,0.3,0c0.2,0,0.4,0,0.7,0
			c0.1,0,0.4,0.1,0.5,0.1c0.4,0,0.7,0.3,1,0.3c0.3,0.2,0.5,0.4,0.8,0.6c0.1-0.3,0.3-0.3,0.5-0.2c0.4,0.1,0.8,0.3,0.9,0.7
			c0.1,0.1,0.1,0.2,0.2,0.2c0.2,0.1,0.5,0.3,0.6,0.5c0.1,0.1,0.2,0.3,0.2,0.4c0.1,0.4,0.2,0.9,0.6,1.2c0.1,0.1,0.1,0.2,0.2,0.3
			c0.2,0.5,0.5,1,0.6,1.5c0,0.6,0.1,1.2,0.2,1.8c0.1,0.4,0.2,0.9,0.3,1.3c0.3,0.6,0.4,1.3,0.6,2.1c0.2,0.8,0.2,1.7,0.3,2.6
			c0,0.4-0.1,0.9-0.1,1.3c0,0.6,0,1.2,0,1.8c0,0.9,0,1.9-0.1,2.8c0,0.6-0.1,1.2-0.2,1.8c-0.3,1.6-0.8,3.2-1.2,4.9
			c-0.2,0.8-0.4,1.7-0.7,2.5c-0.2,0.6-0.5,1.1-0.7,1.6c0,0.2-0.2,0.3-0.2,0.4c0,0.2-0.1,0.4-0.2,0.6c-0.3,0.5-0.7,1-1.1,1.4
			c-0.2,0.2-0.4,0.4-0.7,0.5c-0.2,0.1-0.5,0.3-0.8,0.5c-0.1,0-0.2,0.1-0.2,0.2c-0.1,0.3-0.4,0.4-0.6,0.7c0,0-0.1,0.1-0.2,0
			c-0.3,0-0.4,0.1-0.7,0.2c-0.4,0.2-0.9,0.4-1.3,0.6c-0.3,0-0.6,0-1,0c-0.4,0-0.8,0-1.3-0.1c0,0-0.1,0-0.2,0.1
			c-0.2-0.3-0.4-0.5-0.8-0.4c-0.2,0-0.4,0-0.6-0.1c-0.3-0.2-0.7-0.4-1-0.7c-0.4-0.3-0.6-0.6-0.9-0.9c-0.1-0.2-0.3-0.3-0.5-0.4
			c-0.5-0.3-0.8-0.8-1.1-1.2c-0.4-0.5-0.5-1-0.6-1.6c0-0.2-0.2-0.3-0.3-0.4c-0.1-0.2-0.2-0.3-0.3-0.6c-0.2-1.3-0.4-2.7-0.9-3.9
			c-0.3-0.7-0.4-1.6-0.6-2.3c0-0.1,0-0.2,0-0.4c0-0.3,0-0.6,0-1c0-0.1,0-0.3,0-0.5c0,0,0-0.1,0-0.2c-0.1-0.5,0.1-1,0.1-1.5
			c0-0.9,0-1.9,0-2.9c0-1.2,0-2.5,0.1-3.7c0.1-1.3,0.2-2.6,0.6-3.9c0.1-0.6,0.3-1.3,0.4-1.9c0-0.1,0-0.2,0-0.2
			c0.4-0.3,0.3-0.8,0.5-1.1c0.1-0.3,0.3-0.6,0.4-0.9c0.3-0.5,0.6-1,0.9-1.5c0.2-0.2,0.4-0.5,0.6-0.7c0.1-0.2,0.4-0.4,0.6-0.6
			c0.1,0,0.3-0.1,0.4-0.2c0.1,0,0.3,0,0.2-0.3c0,0,0-0.1,0-0.1c0.3-0.2,0.6-0.4,0.9-0.6c0.1,0,0.2-0.1,0.2-0.1
			c0.2-0.1,0.3-0.2,0.6-0.1c-0.1,0-0.2,0,0,0.2c0-0.1,0-0.2,0-0.2C77.8,8.9,77.9,8.7,78.1,8.6z M73.6,18.9c0.1-0.4,0.3-0.8,0.3-1.2
			C73.6,18.1,73.5,18.5,73.6,18.9z M82.2,35.5c0.1-0.1,0.1-0.3,0.1-0.5c0.1-0.4,0.3-0.8,0.4-1.3c0.2-0.7,0.5-1.3,0.6-2.1
			c0,0,0-0.1,0.1-0.1c0.3,0,0.3-0.3,0.4-0.6c0.1-0.4,0.2-0.8,0.3-1.3c0-0.3,0-0.6,0-0.9c0-0.3-0.1-0.6-0.1-0.8
			c0.1-1.2,0.1-2.4,0.1-3.6c0-0.3,0-0.6,0.1-0.8c0.1-0.3,0.2-0.6,0.1-0.9c0-0.2-0.1-0.4-0.1-0.6c-0.2-1.2-0.5-2.4-0.7-3.5
			c-0.1-0.4,0-0.9-0.1-1.4c0,0,0-0.2,0-0.2c-0.1-0.5-0.3-1.1-0.5-1.6c-0.1-0.1-0.2-0.2-0.3-0.2c-0.4,0-0.7,0-0.7-0.5
			c0-0.1-0.1-0.2-0.3-0.1c-0.1,0.2,0.3,0.4,0,0.7c-0.2-0.3-0.4-0.5-0.6-0.7c-0.2,0-0.4-0.1-0.7-0.1c-0.1,0-0.3-0.1-0.5,0
			c-0.3,0.1-0.6,0.2-1,0.4c-0.2,0.2-0.5,0.3-0.5,0.6c0,0.2-0.2,0.3-0.3,0.5c-0.2,0.4-0.5,0.8-0.6,1.2c-0.2,0.6-0.3,1.2-0.5,1.9
			c-0.1,0.4-0.2,0.7-0.2,1.1c-0.1,0.5-0.2,1.1-0.3,1.6c0,1,0,2.1-0.1,3.1c0,0.3,0,0.5,0,0.8c0,0,0,0-0.1,0.1c0-0.1-0.1-0.1-0.2-0.3
			c-0.1,0.2-0.1,0.4-0.1,0.6c0,0.8,0,1.5,0,2.3c0,0.1,0.1,0.2,0.1,0.3h0c0-0.2,0.1-0.4,0.2-0.7c0,0,0,0,0.1,0c0,0.4,0,0.8-0.1,1.2
			c-0.1,0.2-0.2,0.5-0.2,0.8c0,0.6,0.2,1.1,0.3,1.7c0.4,1,0.6,2,0.8,3c0.1,0.4,0.1,0.4-0.2,0.8c0.1,0.4,0.3,0.8,0.4,1.2
			c0.3,1.1,0.9,1.9,1.8,2.5c0.3,0.1,0.5,0.3,0.8,0.2c0.6-0.3,1.2-0.5,1.5-1.1c0.3-0.5,0.6-1,0.7-1.6c0.1,0.1,0.1,0.1,0.2,0.2
			c0.3-0.5,0.5-1,0.6-1.6c0,0,0,0,0,0c-0.1,0.3-0.3,0.5-0.4,0.8C82.3,35.5,82.3,35.5,82.2,35.5z M84.5,24.2c0,0.1,0,0.3-0.1,0.4
			c0.1,0,0.1,0,0.1,0C84.6,24.5,84.6,24.4,84.5,24.2C84.6,24.2,84.6,24.2,84.5,24.2z M84.9,9.9c-0.1,0-0.2,0-0.3,0c0,0,0,0,0,0
			C84.7,9.9,84.8,9.9,84.9,9.9C84.9,9.9,84.9,9.9,84.9,9.9z M84.6,21.2c0,0.1,0,0.2,0,0.3c0,0,0,0,0,0
			C84.7,21.3,84.7,21.3,84.6,21.2C84.6,21.2,84.6,21.2,84.6,21.2z"/>
		<path class="st1" d="M101.4,11.3c-0.1,0-0.1,0-0.2-0.1c0.1-0.1,0.1-0.1,0.1-0.2c0.1,0,0.2,0,0.4,0c0,0.2,0,0.2,0,0.3v0
			C101.6,11.3,101.5,11.3,101.4,11.3z M111.9,13.5c-0.4-0.2-0.4-0.7-0.7-1c-0.1,0-0.3,0-0.4,0.1c-0.8,0.1-1.5,0.2-2.2,0.4
			c-0.1,0-0.2,0-0.3,0c-0.2,0-0.4,0.2-0.5,0.5c0,0.4-0.1,0.7-0.1,1.1c0,0.9-0.1,1.8,0,2.7c0,0.2,0,0.4,0.1,0.6
			c0.1-1.2-0.1-2.5,0.3-3.8c0,0.2,0,0.6,0,0.8c0,0.6-0.1,1.2-0.1,1.9c0,0,0,0,0,0.1c0.3,1.2,0.3,2.4,0.2,3.6c0,0.5,0,0.9,0,1.4
			c0,0.2,0,0.3,0.3,0.3c0.1,0,0.3-0.1,0.4-0.1c0.7-0.2,1.4-0.3,2.1-0.4c0.1,0,0.3,0,0.4,0c0,0,0,0.1,0,0.1c-0.3,0-0.6,0.1-0.9,0.2
			c0.4,0,0.8,0,1.2,0c0.4,0,0.8,0.1,1.2,0.2c0,0.1,0,0.2,0,0.3c0.5,0,1,0,1.6,0.1c-0.6,0.1-1.1,0.1-1.6,0.1c0,0,0,0,0,0.1
			c0.4,0,0.7,0.3,1.1,0.3c0.1,0,0.2,0,0.4,0c0.2,0,0.4,0,0.5,0.3c0.3,0,0.5,0.1,0.8,0.1c-0.3,0.2-0.6,0-0.8,0.2
			c0.3,0.3,0.9,0.1,1.2,0.4c-0.1,0-0.2,0.1-0.3,0.1c-0.2-0.1-0.5,0-0.7,0.1c-0.3,0-0.5,0.1-0.7,0.2c0.1,0.3,0.4,0.5,0.8,0.3
			c0,0.2-0.1,0.2-0.3,0.2c-0.4,0-0.8,0-1.2,0.1c0.3,0.1,0.7-0.1,1,0.3c-0.2,0-0.3,0.1-0.4,0.1c0,0,0,0.1,0,0.1s0.1,0,0.1,0
			c0.8,0,1.4,0.4,2.2,0.5c0,0,0.1,0,0.1,0.2c-0.1,0-0.1,0-0.2-0.1c0,0,0,0,0,0c-0.1,0.2-0.2,0.3-0.4,0.3c-0.2,0-0.4,0-0.6,0
			c0.2,0.3,0.5,0.1,0.6,0.3c-0.3,0.1-0.7,0.1-1,0.1c-0.5,0-1,0-1.5,0c-0.1,0-0.3,0.1-0.4,0.1c-0.4,0-0.9,0-1.3,0.1
			c-1.1,0-2.2,0.3-3.3,0.5c-0.1,0.6-0.1,1.1-0.1,1.7c0,0.3,0,0.6-0.1,0.9c-0.2,0.5-0.2,1.1-0.2,1.6c0,0.3,0,0.6,0,0.9
			c0,0.3-0.1,0.6,0,1c0.1,0.2,0,0.3,0,0.5c-0.1,0.5-0.1,1-0.1,1.5c0.1,0.4,0,0.8,0,1.2c0,0.3,0,0.6,0.1,0.9c0,0,0,0,0,0
			c0-0.6,0-1.1,0-1.7c0-0.6,0.1-1.2,0.3-1.7c0,0.5,0,0.9,0,1.4c0,0.7,0,1.3,0,2c0,0.3,0.1,0.7,0.2,1.1c0,0.4,0.2,0.8,0.3,1.1
			c0,0.1,0,0.2,0.1,0.3c-0.1-0.1-0.1-0.1-0.2-0.2c-0.1,0.1-0.1,0.1-0.2,0.2c-0.1-0.1-0.2-0.1-0.3,0c0,0.3,0,0.5,0,0.8
			c0,0.3,0,0.5-0.2,0.8c-0.2,0.4-0.2,1-0.1,1.4c0.1,0.4,0,0.6-0.4,0.8c0-0.2,0-0.3,0-0.3c0.1-0.2,0.3-0.2,0.2-0.4
			c-0.1,0.1-0.3,0.2-0.5,0.3c-0.1,0.1,0.1,0.6-0.3,0.6c-0.1-0.2-0.3-0.5-0.6-0.8c0,0.3-0.1,0.6-0.1,0.9c-0.1,0-0.2-0.1-0.3-0.1
			c-0.4,0.1-0.5,0.5-0.6,0.9c0-0.2,0-0.4,0-0.8c-0.2,0.4-0.5,0-0.7,0.2c-0.1-0.1-0.1-0.2-0.2-0.4c-0.2,0.5-0.2,0.9-0.1,1.4
			c-0.1,0.1-0.2,0.1-0.3-0.1c0-0.1,0-0.3,0-0.4c0-0.4,0-0.7,0.1-1c-0.2,0-0.3,0-0.3,0.1c0,0.3,0,0.5,0,0.8c0,0.1,0,0.3,0,0.5
			c-0.2,0-0.3,0-0.3-0.2s0-0.4,0-0.6c0.1-0.5,0-0.9-0.3-1.3c-0.2,0.1-0.4,0.3-0.6,0.4c-0.1-0.1-0.2-0.2,0-0.4
			c0.1-0.2,0.3-0.3,0.4-0.4c0.3-0.2,0.5-0.5,0.5-1c-0.1-0.8-0.1-1.7-0.2-2.6c-0.2-1.4-0.3-2.9-0.2-4.3c0-1.1,0-2.2,0-3.3
			c0-1.3,0-2.7,0-4c0-0.2,0-0.5,0-0.8c-0.1,0-0.1,0-0.2,0l0-0.1c0.2-0.1,0.2-0.2,0.2-0.4c-0.1-0.3-0.1-0.6,0-0.9c0-0.2,0-0.4,0-0.6
			c0-0.1-0.1-0.2-0.1-0.2c-0.3-0.3-0.3-0.3-0.2-0.7c-0.1,0-0.2,0-0.4,0c0.2-0.2,0.4-0.4,0.6-0.6c0.2-0.1,0.2-0.2,0.2-0.4
			c-0.1-1.7-0.1-3.4-0.3-5.1c-0.1-1.6-0.1-3.1,0-4.7c0-0.2,0-0.5,0-0.8c0-0.2-0.1-0.5-0.4-0.6c-0.2,0-0.2-0.3-0.1-0.4
			c0-0.1,0.1-0.2,0.1-0.3v0c0.2-0.1,0.4-0.2,0.5-0.5c0,0-0.1,0-0.2,0c-0.2,0-0.3-0.2-0.2-0.5c0.1-0.3,0.3-0.4,0.6-0.4
			c-0.1-0.2-0.3-0.4-0.4-0.5c0.1-0.2,0.2-0.3,0.3-0.4c0.1-0.1,0.3-0.1,0.5-0.2c-0.2-0.2-0.4-0.1-0.6,0c0-0.1,0-0.3,0-0.5
			c0.1,0,0.2,0,0.3,0c0,0,0,0,0-0.1c0-0.1-0.1-0.1-0.2-0.2c-0.1,0-0.2-0.1-0.4-0.2c0.3-0.1,0.4-0.3,0.6-0.3c0.1,0,0.2,0,0.3,0
			c0.3,0.2,0.7,0.3,1.1,0.2c0.1,0,0.3,0,0.4,0c0.5,0.1,1.1,0,1.6,0c0.6-0.1,1.1-0.1,1.7-0.3c0.7-0.1,1.5-0.4,2.2-0.6
			c0.2-0.1,0.5-0.2,0.8,0c0,0,0.1,0,0.2,0s0.1-0.1,0.1-0.1c0.1-0.1,0.3-0.3,0.5-0.2c0.2,0.1,0.4,0.4,0.3,0.6c0,0,0,0.1,0,0.2
			c0.3,0.1,0.3,0.1,0.6,0c-0.1-0.3-0.3-0.2-0.5-0.4c0.1-0.1,0.2-0.3,0.3-0.4c0.1,0.1,0.4,0.2,0.6,0.4c0.4-0.3,0.9-0.2,1.5-0.1
			c-0.1-0.2-0.2-0.4-0.3-0.6c0.1,0,0.2-0.1,0.3-0.1c0.4,0.3,0.6,0.6,0.6,1.2c-0.2,0-0.2,0.2-0.2,0.5c-0.1-0.1-0.3-0.2-0.4-0.4
			c0,0.3,0.1,0.6,0.1,0.8c0,0.2,0,0.4,0,0.6c-0.1-0.1-0.2-0.2-0.3-0.4c-0.1,0.1-0.1,0.3-0.2,0.4c0.2,0.1,0.3,0.1,0.5,0
			c0.1,0,0.1-0.2,0.3,0c0,0,0.2,0,0.3,0c0,0.3,0.3,0.5,0.2,0.9c0,0.2,0.1,0.5,0.2,0.8c-0.2,0.2-0.2-0.1-0.4-0.1
			c-0.1,0.3-0.1,0.4,0,0.6c0.3,0.2,0.5,0.4,0.8,0.6c0,0-0.1,0.1-0.2,0.4c-0.1-0.2-0.2-0.3-0.2-0.4c0,0-0.2,0-0.2,0
			c0,0.2-0.2,0.5,0,0.7c-0.3,0-0.3,0-0.8-0.2c0,0.1-0.1,0.3-0.2,0.5c0,0-0.1-0.1-0.1-0.2c-0.2,0.1-0.4,0.2-0.6,0.4
			c0,0,0,0.1,0.1,0.2c-0.3-0.1-0.5-0.3-0.8-0.4c-0.1,0-0.4,0-0.5,0.2c0,0.1-0.1,0.2-0.2,0.3c0-0.3,0.2-0.6,0-0.8c-0.2,0-0.5,0-0.8,0
			c0,0.3,0.2,0.6,0.4,0.8C112,13.3,111.9,13.4,111.9,13.5z M102.2,43.2c0.1,0.2,0,0.3-0.1,0.3c0,0,0,0-0.1,0
			C102.1,43.4,102.2,43.3,102.2,43.2z M102.5,43.1c0-0.2,0.1-0.3,0.2-0.4C102.8,43,102.8,43,102.5,43.1z M103.4,7.1
			c0,0-0.1-0.1-0.1-0.1c0,0,0.1-0.1,0.1-0.1c0,0,0,0,0.1,0C103.5,7,103.4,7.1,103.4,7.1z M107.6,43c0,0-0.1-0.1-0.1-0.2
			C107.6,42.9,107.6,43,107.6,43C107.6,43.1,107.6,43.1,107.6,43z M107.8,20.9c0-0.4,0-0.9,0-1.3c0,0,0,0,0,0
			C107.8,20.1,107.8,20.5,107.8,20.9C107.8,20.9,107.8,20.9,107.8,20.9z M108,28.9c0-0.1,0-0.2,0-0.5C108,28.7,108,28.8,108,28.9
			C108,28.9,108,28.9,108,28.9z M108.4,42.9L108.4,42.9c0.1,0.2,0.1,0.3,0.1,0.5c0.1,0,0.3,0,0.4,0c0,0.2-0.2,0.3-0.4,0.3
			s-0.3,0-0.6,0C108.1,43.4,108.2,43.1,108.4,42.9z M108.3,39.6c0-0.2,0-0.5-0.1-0.8c0,0,0,0-0.1,0
			C108.2,39.1,108.2,39.4,108.3,39.6C108.3,39.6,108.3,39.6,108.3,39.6z M108.2,22.6C108.2,22.6,108.2,22.6,108.2,22.6
			c0.1,0,0.2,0.1,0.3-0.1C108.5,22.5,108.4,22.5,108.2,22.6C108.2,22.5,108.2,22.6,108.2,22.6z M108.9,7.3c-0.1,0-0.2,0-0.3,0v0
			C108.7,7.4,108.8,7.3,108.9,7.3L108.9,7.3z M108.8,42.5c0.4,0,0.5,0,0.4,0.4C109.1,42.8,109,42.6,108.8,42.5z M109.2,22.4
			c0.1,0,0.2,0,0.3,0c0,0,0,0,0-0.1C109.4,22.3,109.3,22.4,109.2,22.4C109.2,22.4,109.2,22.4,109.2,22.4z M110.3,6.9
			c-0.3,0-0.4,0-0.7,0.1C109.8,7.2,109.8,7.2,110.3,6.9z M111.2,5.9C111.2,5.9,111.2,5.9,111.2,5.9c-0.1,0-0.2,0-0.4,0c0,0,0,0,0,0
			C110.9,5.9,111.1,5.9,111.2,5.9z M111.9,12.8c0,0,0,0,0.1,0c0,0.1,0,0.2,0,0.4C111.9,13.1,111.9,13,111.9,12.8z M112.2,13.5
			C112.2,13.5,112.2,13.5,112.2,13.5c0-0.1,0-0.1,0.1-0.2c0,0,0,0.1,0.1,0.1C112.3,13.5,112.3,13.5,112.2,13.5z M112.5,9.6
			c0,0,0.1,0,0.1,0c0-0.1,0-0.1,0-0.1c-0.1,0-0.1,0-0.3,0C112.5,9.5,112.5,9.6,112.5,9.6z M113.1,10.6c0.2,0,0.3,0,0.5,0
			C113.5,10.4,113.3,10.3,113.1,10.6z M113.8,6.1c-0.2-0.1-0.2-0.1-0.3-0.3C113.7,5.9,113.8,6,113.8,6.1z M116.5,25.4
			c-0.4,0.2-0.6,0-0.9,0c-0.2,0-0.4-0.1-0.5-0.2C115.5,25.2,116,25.2,116.5,25.4z"/>
		<path class="st1" d="M118.6,10.3c-0.1,0.5-0.5,0.6-1,0.4c0,0,0-0.1,0-0.2c0.2,0,0.4,0,0.6,0.1c0-0.3,0-0.5,0-0.8
			C118.5,9.9,118.5,10.2,118.6,10.3z M117.9,11.4L117.9,11.4c0.1,0,0.1,0,0.1,0.1c0,0,0,0,0,0.2C117.9,11.6,117.9,11.5,117.9,11.4z
			 M118.5,11.5c-0.4-0.3-0.3-0.5,0.3-0.7c0-0.5-0.2-0.9-0.3-1.3c0-0.1-0.1-0.3-0.2-0.5c-0.2-0.4-0.2-0.4,0.2-0.8
			c0,0,0.1,0.1,0.2,0.2c0.1,0,0.1-0.1,0.2-0.3c0.2,0.5,0,1,0.3,1.4c0.1-0.1,0.1-0.2,0.1-0.3c0-0.2,0-0.5,0-0.7
			c0.1-0.3,0-0.6-0.3-0.8c0.2-0.4,0.6-0.6,1.1-0.5c0.1,0,0.1,0,0.2,0c0.4,0.1,0.6,0.4,0.4,0.8c0,0.1-0.2,0.3,0,0.5
			c0.4-0.2,0.7-0.4,1-0.5c0-0.3,0-0.5,0-0.8c0.3,0.1,0.6,0.2,0.7,0.4c0,0.1,0.2,0.1,0.4,0.2c0,0.2,0,0.3,0,0.5
			c0.4-0.9,0.3-1,0.1-1.6c0.7,0.2,1,0.9,1.2,1.6c0.2,0.8,0.3,1.6,0.2,2.4c0,0.2,0,0.4,0,0.5c0,0.5,0,1-0.3,1.4
			c-0.1,0.2-0.1,0.5,0,0.7c0-0.1,0.1-0.2,0.2-0.4c0.1,0.2,0.1,0.4,0.1,0.7c-0.2,1-0.1,2.1,0,3.1c0.2,1.6,0.4,3.3,0.3,5
			c0,0.4,0.1,0.8,0.1,1.2c-0.1,0.9,0.2,1.8,0.2,2.7c0.1,1.1,0.1,2.3,0.1,3.4c-0.1,0.7-0.1,1.3-0.1,2c-0.1,0.9,0,1.8,0.1,2.8
			c0.1,1,0,2.1,0,3.1c0,0.2,0,0.5,0,0.8c0,0.2,0.1,0.5-0.3,0.7c0,0,0,0.2-0.1,0.3c-0.1,0.3-0.1,0.7-0.1,1c0,0.2,0.1,0.2,0.1,0.3
			c0.1,0.1,0.4,0.2,0.4,0.4c-0.6-0.1-0.7-0.2-0.9-0.8c-0.1,0.2-0.1,0.4-0.1,0.6c0.1,0.1,0.1,0.4,0.1,0.6c0.4,0,0.7,0,1.2,0
			c-0.3,0.8-0.7,1.5-1.3,2.1c0,0-0.1-0.1-0.1-0.2c0,0,0,0-0.1-0.1c-0.1,0-0.1,0.1-0.2,0.1c0-0.1,0-0.2,0-0.3c0-0.1-0.1-0.2-0.2-0.3
			c-0.1,0.1-0.2,0.1-0.4,0.2c-0.1-0.2-0.2-0.3-0.2-0.5c-0.1,0.5,0,0.8,0.4,0.9c0.1,0.2,0,0.5,0.3,0.6c0.1,0,0.1,0.3,0.1,0.4
			c-0.1,0.2-0.3,0.3-0.4,0.5c-0.1-0.1-0.2-0.3-0.3-0.4c-0.2,0-0.4,0.2-0.3,0.6c-0.1,0-0.2,0-0.4-0.1c0-0.2,0.3-0.4,0-0.5
			c-0.2-0.1-0.3-0.1-0.6-0.1c0,0,0-0.1-0.1-0.3c0.1,0,0.2-0.1,0.3-0.2c0.2-0.2,0.4-0.3,0.6-0.5c0.1,0,0.1-0.2,0.1-0.3
			c-0.1,0-0.1,0-0.2,0c-0.1-0.2-0.1-0.4-0.2-0.5c0-0.2-0.1-0.3-0.3-0.5c0,0.4-0.1,0.8-0.1,1.3c0-0.2-0.1-0.3-0.2-0.5
			c-0.1,0.1-0.2,0.3-0.2,0.4c-0.1,0.1-0.2,0.1-0.4,0.2c0,0.1,0.3,0.2,0.2,0.4c0,0.1-0.1,0.3-0.2,0.5c-0.2-0.1-0.4-0.2-0.5-0.3
			c0-0.3,0.2-0.6-0.1-0.8c-0.1,0-0.2,0.1-0.3,0.1c0-0.3-0.1-0.5-0.1-0.7c-0.2,0-0.3-0.1-0.5-0.1c0-0.1,0-0.3,0-0.4
			c0.1,0,0.2,0,0.4,0c0,0,0.1-0.2,0.1-0.2c0-0.1-0.1-0.2-0.2-0.3c0.1-0.4,0.2-0.9,0-1.4c0,0,0-0.1,0-0.1c0.1-0.5,0.1-0.5,0-0.9
			c0-0.1,0-0.3,0-0.4c0-1,0-2,0-3.1c0-0.1,0-0.3,0-0.5c0-1.3,0-2.6,0-3.9c0-0.5,0.1-1,0.1-1.5c0-1.4,0-2.7-0.1-4.1
			c0-0.5,0-0.9,0-1.4c0-2-0.2-4-0.4-6c0-0.2,0-0.5,0-0.8c0-0.5,0-1-0.1-1.5c-0.1-0.4,0-0.8,0-1.2c0-0.6,0.1-1.2,0.1-1.9
			c0-0.3,0-0.7,0-1.1c0-0.1,0-0.2,0-0.3C118.7,11.4,118.6,11.5,118.5,11.5z M119.9,6.7c0.1-0.1,0.2-0.1,0.3,0c0,0,0,0,0,0.1
			C120.1,6.8,120,6.7,119.9,6.7z M120.6,6.8c0,0,0,0.1,0,0.1c-0.1,0-0.2,0-0.3-0.1C120.3,6.8,120.4,6.7,120.6,6.8z M121.2,7.1
			c0.1,0.2,0.1,0.3,0,0.4C121.1,7.4,121.2,7.3,121.2,7.1z M123,7c0,0,0,0.1,0,0.1c0,0.1,0,0.2-0.1,0.2s-0.2,0-0.2-0.1
			c-0.1-0.1-0.1-0.2-0.1-0.3c0,0,0,0,0-0.1C122.8,6.9,122.9,7,123,7z M123.6,9.5c0.1-0.4,0.2-0.9,0.1-1.3
			C123.4,8.6,123.5,9.1,123.6,9.5z M124.9,41.8c-0.4,0-0.8,0-1.2,0c0-0.4,0-0.7,0.1-1.2c-0.4,0.4-0.3,0.9-0.3,1.4
			C124,42.4,124.5,42.3,124.9,41.8z M124.1,8.9c0-0.2-0.1-0.4-0.1-0.6c0,0.2-0.3,0.4,0,0.6C124,8.9,124.1,8.9,124.1,8.9z
			 M123.9,29.1c0,0.4,0,0.8,0,1.1c0,0,0.1,0,0.1,0C124,29.9,124,29.5,123.9,29.1C123.9,29.1,123.9,29.1,123.9,29.1z M124,38.9
			c-0.1,0.1-0.1,0.1-0.1,0.1c0,0.6,0,1.3,0.1,1.9c0.1,0,0.2-0.1,0.3-0.1c0-0.2,0.1-0.5,0-0.6c-0.2-0.3-0.1-0.6-0.1-0.9
			c0-0.1,0-0.2,0-0.3C124.1,38.9,124,38.9,124,38.9z M124.1,16.5c0,0.1,0,0.2,0.1,0.4c0,0,0,0,0,0C124.2,16.7,124.2,16.6,124.1,16.5
			C124.1,16.5,124.1,16.5,124.1,16.5z M124.2,11.4c0,0,0,0.1,0,0.2c0,0,0,0,0.1,0C124.3,11.6,124.3,11.5,124.2,11.4
			C124.3,11.4,124.3,11.4,124.2,11.4z M124.2,9.9c0-0.1,0-0.3,0-0.4C124.2,9.6,124.2,9.7,124.2,9.9z M124.6,22.8c0-0.1,0-0.1,0-0.2
			c0,0,0,0,0,0C124.6,22.6,124.6,22.7,124.6,22.8C124.6,22.8,124.6,22.8,124.6,22.8z M124.8,25.2c0-0.3,0-0.7,0-1
			C124.6,24.5,124.7,24.9,124.8,25.2z M124.8,33.3c-0.1,0.2-0.1,0.3,0,0.5C124.8,33.7,124.8,33.5,124.8,33.3L124.8,33.3z
			 M124.9,35.7c0-0.2,0-0.3,0-0.5c0,0,0,0,0,0C124.8,35.4,124.8,35.5,124.9,35.7C124.8,35.7,124.8,35.7,124.9,35.7z M125.5,40.4
			c-0.1,0-0.2,0-0.5-0.1c0.2-0.2,0.5-0.3,0.7-0.4v0C125.7,40.1,125.6,40.3,125.5,40.4z M125.8,40.8c-0.1-0.4,0.2-0.6,0.4-0.9
			C126.2,40.2,126,40.5,125.8,40.8z"/>
		<path class="st1" d="M137.1,15.9c0.2,0.6,0.4,1.1,0.8,1.6c0-0.1,0-0.3,0-0.5c0.2,0.2,0.3,0.5,0.5,0.7c0.5,1.2,1,2.4,1.6,3.6
			c0.2,0.5,0.4,1.1,0.6,1.7c0,0,0,0.1,0,0.2c-0.2,0.5,0.1,0.9,0.4,1.2c0,0.1,0,0.2,0.1,0.2c0-0.2,0-0.4-0.1-0.6
			c0.2,0.1,0.3,0.3,0.4,0.5c0.4,1.1,0.9,2.2,1.3,3.2c0,0.2,0.2,0.4,0.4,0.6c0-0.1,0-0.2,0-0.2c-0.2-0.2-0.2-0.4-0.1-0.7
			c0-0.6,0-1.1-0.1-1.7c0,0.3,0,0.6-0.1,1c-0.1-0.3-0.1-0.8-0.1-1.3c0.1-0.3,0.2-0.6,0.2-0.9c0-0.3-0.1-0.5-0.2-0.8
			c0,0.2,0,0.4,0,0.6c0,0,0,0,0,0c-0.1-0.2-0.2-0.5-0.2-0.7c0-0.7,0-1.5,0-2.2c0-0.3,0-0.6,0-1c0-1.1-0.1-2.2,0.1-3.4
			c0,0.4,0.1,0.6,0.1,1c0.2-0.2,0.2-0.3,0.1-0.5c-0.2-0.9-0.1-1.8-0.1-2.8c0-0.5-0.1-1.1-0.2-1.7c-0.1,0.6-0.1,1.2-0.2,1.9
			c0,0,0,0-0.1,0c0.1-0.7,0.1-1.5,0.2-2.4c0.1,0,0.1,0.1,0.2,0.2c0.1-0.2,0.2-0.5,0.2-0.8c0-0.3,0.1-0.6,0.2-0.8
			c0,0.1,0,0.2,0.1,0.2h0c0.1-0.5,0.1-1.2,0.2-1.8c0,0,0.1,0,0.1,0c0,0.6,0,1.2,0,1.7c0.3-0.5,0.3-1.1,0.5-1.7c0,0.2,0,0.3-0.1,0.4
			c0,0,0.1,0.1,0.1,0c0.3-0.1,0.7-0.3,1-0.5c0.2-0.2,0.2-0.6,0.1-0.9c0-0.1-0.1-0.3,0-0.5c0.2,0.1,0.2,0.2,0.2,0.4
			c-0.1,0.5,0.1,0.9,0.2,1.4c0.1,0,0.2,0,0.4,0c0.1-0.5,0.2-1.1,0.2-1.6c0.2,0.3-0.1,0.7,0.2,1c0,0.4,0.2,0.6,0.5,0.9
			c0.2-0.4,0.1-0.8,0.1-1.2c0-0.3,0.2-0.6,0.3-0.8c0-0.2,0.1-0.2,0.3-0.3c0,0.4,0,0.8,0,1.1c0.1,0,0.1,0,0.1,0
			c0.1-0.2,0.1-0.3,0.2-0.3c0-0.2,0-0.3,0.1-0.4c0,0,0.1,0.1,0.1,0.2c0,1.1,0,2.1-0.1,3.2c-0.1,1.4-0.1,2.8,0,4.2
			c0,0.6,0.1,1.2,0.1,1.8c0,0.6,0,1.2,0.1,1.8c0,1.3,0,2.7,0.1,4c0.1,1.1,0.1,2.3,0.1,3.5c0.1,0.8,0.1,1.6,0.1,2.4
			c0.1,1.6,0.1,3.2,0.1,4.8c0,0.9,0,1.9,0,2.8c0,0.3,0,0.5,0.2,0.6c0.1,0.4-0.3,0.7-0.1,1.2c0.1-0.2,0.2-0.4,0.4-0.6
			c0,0.4-0.1,0.7-0.3,1c-0.1,0.1-0.1,0.3-0.1,0.4c0,0.3,0.1,0.7,0,1c0,0.1,0,0.2,0,0.3c0.2,0.6,0,1.2-0.3,1.7
			c-0.2,0.3-0.6,0.5-0.9,0.7c-0.1,0-0.1,0-0.2,0c-0.1-0.1-0.2-0.3-0.3-0.4c-0.1,0-0.2,0.1-0.4,0.2c0-0.2-0.1-0.4-0.2-0.5
			c-0.3,0.1-0.1,0.3-0.2,0.5c-0.1,0-0.3,0.1-0.5,0.2c-0.2-0.2-0.3-0.3-0.4-0.6c-0.2,0.2-0.2,0.3-0.2,0.6c-0.1-0.1-0.2-0.2-0.2-0.2
			c0,0-0.1,0-0.2,0c-0.1,0-0.2-0.1-0.2-0.2c-0.1-0.2-0.3-0.2-0.4-0.1c-0.3,0.1-0.3,0.1-0.5,0.1c0-0.2-0.2-0.3-0.2-0.5
			c0.1-0.1,0.2-0.1,0.2-0.2c0,0,0,0,0,0c-0.1-0.1-0.3-0.2-0.3-0.4c-0.1-0.2,0-0.4,0.1-0.5c0,0,0-0.1,0.1-0.2c-0.5-0.6-1-1.3-1.4-2
			c-0.1-0.3-0.3-0.6-0.5-0.9c-0.2-0.4-0.3-1-0.5-1.4c-0.2-0.6-0.4-1.2-0.7-1.8c-0.7-1.6-1.4-3.1-2.1-4.7c-0.7-1.8-1.6-3.5-2.3-5.3
			c-0.1-0.4-0.3-0.7-0.5-1.1c0,0-0.1-0.2-0.1-0.2c0,1.5,0.1,2.9,0,4.4c0-0.1-0.1-0.2-0.2-0.4c-0.1,0.3-0.1,0.7,0,1.5
			c0,0.4,0.1,0.9,0.2,1.5c0-0.4,0.1-0.6,0.2-0.9c0.2,0.2,0.1,0.5,0.1,0.7c0,0.6,0,1.3,0.1,2c0,1,0,2,0,3.1c0,0.5,0,1.1,0,1.7
			c0,0.4,0.1,0.8,0.2,1.3c0.1,0.3,0.2,0.7-0.1,1.1c-0.1,0-0.1,0-0.2,0c-0.2,0.3-0.3,0.7-0.3,1.1c-0.1,0.3-0.2,0.7-0.4,1.1
			c-0.1,0.3-0.3,0.7-0.5,1c0-0.2,0-0.4,0-0.8c-0.2,0.3-0.2,0.6-0.4,0.9c-0.3,0-0.5,0.2-0.5,0.6c-0.1-0.1-0.2-0.2-0.3-0.2
			c-0.1,0.1-0.2,0.2-0.4,0.3c0-0.3-0.1-0.7-0.1-1c0.1-0.1,0.2-0.1,0.4-0.3c-0.1,0-0.3-0.1-0.4-0.1c0-0.4,0.2-0.8,0.1-1.3
			c-0.3,0.3-0.3,0.6-0.4,0.9c0,0.6-0.1,1.2-0.1,1.7c0,0,0,0,0,0.1c0-0.3,0.2-0.7-0.3-0.8c-0.1,0.1-0.1,0.2,0,0.3
			c0.3,0.4,0.2,0.7-0.1,1.1c-0.1,0-0.1-0.1-0.1-0.3c0-0.4-0.2-0.7-0.5-0.9c-0.1,0-0.2-0.2-0.2-0.4c-0.1,0.4-0.1,0.8-0.2,1.3
			c-0.1-0.2-0.2-0.4-0.2-0.5c-0.2,0.1-0.3,0.3-0.5,0.5c0-0.2-0.1-0.3-0.1-0.4c0-0.5,0-1,0.1-1.5c0.3-0.8,0-1.6,0-2.5
			c0-1.4,0-2.8,0-4.2c0-1.1,0-2.2,0-3.4c0-1.7-0.2-3.4-0.3-5.1c-0.1-1.7-0.1-3.4-0.2-5c-0.1-1-0.2-2.1-0.3-3.1
			c-0.1-1.4-0.3-2.9-0.2-4.4c0-0.9,0-1.9,0-2.8c0-0.7,0-1.3,0-2c0-0.1,0.1-0.3,0.1-0.5c0.1,0,0.1,0,0.2,0c0.3,0.1,0.5,0,0.5-0.3
			c0-0.1-0.1-0.3-0.1-0.5c0,0,0.1-0.1,0.1-0.2c0,0.1,0.1,0.2,0.1,0.2c0,0,0,0.1,0,0.1c0,0.3,0,0.3,0.4,0.4c0-0.1,0-0.2,0-0.3
			c0-0.2,0-0.5,0.2-0.6c0.2-0.1,0.4,0.1,0.5,0.2c0.3,0.2,0.3,0.2,0.4,0.5c0.2-0.1,0.4-0.2,0.4-0.5c0-0.3,0.2-0.4,0.5-0.4
			c0,0,0.1,0,0.1,0c0.1,0,0.1,0.1,0.1,0.2c0,0.1,0.1,0.3,0.4,0.2c0.1,0,0.1-0.2,0.2-0.3c0.1,0,0.3-0.1,0.6-0.2c0,0.3,0,0.6,0.1,1
			c0.1,0,0.2,0,0.4,0c0.1,0.1,0.1,0.2,0.2,0.4c0.1-0.2,0.1-0.3,0.2-0.4c0,0,0.1,0,0.1,0.1c0,0.3,0,0.8,0.2,1.1c0-0.1,0-0.1,0-0.2
			c0.1,0,0.1,0,0.1,0c0.1,0.2,0.2,0.4,0.2,0.7c0,0.2,0,0.5,0,0.8c0,0.6,0.2,1.1,0.5,1.6c0.1,0.3,0.2,0.6,0.3,0.9
			C136.6,14.4,136.9,15.1,137.1,15.9z M130.5,43.6C130.5,43.6,130.5,43.6,130.5,43.6c0.1,0.2,0.1,0.4,0.1,0.5
			c-0.1,0-0.2,0.1-0.4,0.1C130.3,44,130.4,43.8,130.5,43.6z M131.7,8.5c0,0.3,0,0.6,0,0.9C131.9,9,131.9,8.9,131.7,8.5z M133.4,8.2
			c0.1,0.3-0.4,0.5,0,0.8C133.6,8.8,133.4,8.5,133.4,8.2z M134,41.1c-0.2,0.3-0.1,0.6-0.1,1C134.1,41.8,134.1,41.5,134,41.1z
			 M134.5,16.4c-0.1-0.2-0.2-0.3-0.2-0.6c0,0-0.1,0-0.1,0c0.1,0.2,0.1,0.3,0.2,0.5C134.4,16.4,134.5,16.4,134.5,16.4z M134.7,9.9
			c0-0.2,0-0.4-0.2-0.6C134.3,9.7,134.3,9.8,134.7,9.9z M135.2,39.3c-0.1-0.5-0.2-1-0.4-1.5c0,0,0,0-0.1,0c-0.1,0.2,0,1.3,0.1,2
			C135.1,39.6,135.2,39.5,135.2,39.3z M134.8,31.5c0,0,0-0.1,0-0.2C134.7,31.4,134.7,31.4,134.8,31.5
			C134.7,31.5,134.7,31.5,134.8,31.5z M136,15.5C136.1,15.5,136.1,15.5,136,15.5c0-0.1,0-0.2,0-0.3c-0.2-0.3-0.2-0.7-0.4-0.9
			c0.1,0.2,0.2,0.6,0.3,0.8c0.1,0,0.1,0,0.2,0.1C136,15.3,136,15.3,136,15.5z M135.9,12c-0.2-0.2-0.2-0.2-0.1-0.4
			C135.8,11.7,135.9,11.9,135.9,12z M136,12.4L136,12.4c0.1,0.1,0.1,0.2,0.1,0.4c-0.1,0-0.1-0.1-0.2-0.2
			C135.9,12.6,136,12.5,136,12.4z M136.2,13.3C136.3,13.3,136.3,13.3,136.2,13.3c0.1,0.1,0.1,0.1,0.1,0.2l0,0.1l0-0.1
			C136.3,13.5,136.2,13.4,136.2,13.3z M137.6,23.6c0,0,0.1,0,0.1,0c-0.1-0.2-0.2-0.3-0.3-0.5c0-0.2-0.1-0.4-0.2-0.6c0,0-0.1,0-0.1,0
			c0.2,0.2,0.2,0.4,0.3,0.5C137.5,23.2,137.6,23.4,137.6,23.6z M142.4,16.1C142.4,16.1,142.4,16.1,142.4,16.1c0,0.2,0,0.5,0,0.7
			c0,0,0,0,0,0C142.4,16.6,142.4,16.3,142.4,16.1z M144.5,8.5C144.6,8.5,144.6,8.5,144.5,8.5c0,0.2,0,0.4,0,0.7c0,0,0,0,0,0
			C144.5,9,144.5,8.7,144.5,8.5z M145.8,43.8c0.1,0.1,0.1,0.2,0.1,0.2c0,0.1,0,0.2-0.3,0.2C145.7,44,145.7,44,145.8,43.8z
			 M146.2,41.7c0,0,0-0.1,0.1-0.1c0,0-0.1-0.2-0.1-0.2l0,0C146.1,41.5,146.1,41.6,146.2,41.7C146.1,41.7,146.1,41.7,146.2,41.7z
			 M146.7,44c0,0.2-0.2,0.2-0.4,0C146.5,44,146.5,44,146.7,44z M146.9,41.7c-0.2,0.2-0.1,0.3,0,0.5C146.9,42,146.9,41.9,146.9,41.7z
			 M146.9,10.6c0,0.1,0,0.2,0,0.3h0C146.9,10.8,146.9,10.8,146.9,10.6L146.9,10.6z"/>
		<path class="st1" d="M164.1,6.3c0,0,0.1-0.1,0.2-0.1c0.1,0.2,0.1,0.5,0.2,0.8c0.2-0.1,0.3-0.2,0.2-0.4c0-0.2,0-0.3,0-0.5
			c0-0.2,0.1-0.3,0.3-0.3c-0.1-0.3-0.1-0.6-0.2-0.8c0,0,0,0,0,0c0,0,0.2,0.1,0.2,0.1c0.1,0.1,0.1,0.3,0.2,0.4c0,0.1,0.1,0.3,0.1,0.4
			c0.2-0.1,0.2-0.1,0.2-0.8c0.1,0.2,0.1,0.3,0.2,0.4c0.1,0.3,0.2,0.6,0.3,0.9c0,0.1,0,0.3,0.1,0.4c0.1,0.3,0.2,0.5,0.3,0.8
			c0.2-0.2,0.3-0.3,0.4-0.5c0.1,0.1,0.2,0.1,0.3,0.2c0.2,0.2,0.3,0.2,0.5,0c0.1-0.1,0.2-0.2,0.3-0.3c0.3,0.2,0.4,0.5,0.5,0.8
			c0.1,0.2,0.2,0.5,0.5,0.6c-0.1-0.3-0.1-0.6-0.2-0.8c0.3,0.2,0.4,0.5,0.5,0.8c0.3,1.2,0.5,2.3,0.8,3.5c0.1,0.6,0.2,1.2,0.3,1.9
			c0.1,0.9,0.1,1.8,0.4,2.7c0,0.2-0.2,0.3-0.3,0.4c0,0.2,0,0.3,0,0.5c0.1-0.1,0.1-0.1,0.2-0.2c0,0,0-0.1,0.1-0.2
			c0,0.2,0.1,0.3,0.2,0.6c0.2,1.3,0.4,2.6,0.6,3.9c0.1,0.7,0.1,1.5,0.3,2.2c0,0.7,0.1,1.4,0.3,2.1c0,0.4,0.1,0.8-0.2,1.1
			c0,0.1,0,0.3,0,0.5c0,0.4,0.1,0.8,0.3,1.2c0-0.2,0-0.5-0.1-0.8c0.3,0.2,0.3,0.5,0.4,0.8c0.1,0.5,0.1,0.9,0.1,1.4
			c0.1,0.8,0.2,1.7,0.3,2.6c0,0-0.1,0-0.1-0.1c-0.1,0-0.1,0-0.1,0c0,0.7,0,1.5,0.1,2.2c0,0.3,0.1,0.5,0.3,0.8c0-0.3,0-0.5-0.1-0.8
			c0.3,0.2,0.3,0.6,0.4,0.9c0.1,0.3,0.2,0.6,0.2,0.9c0.1,0.5,0.3,1,0.4,1.6c0,0.1,0,0.2,0,0.4c-0.1,0.6,0,1.1,0.2,1.8
			c0.1,0.4,0.2,0.8,0.3,1.2c0,0.3,0,0.5,0,0.8c0.1,0.1,0.2,0.3,0.2,0.5c-0.1,0.1-0.3,0.2-0.5,0.4c0,0,0,0,0.1,0c0,0.2,0,0.3-0.2,0.4
			c-0.1,0.1-0.2,0-0.3-0.1c-0.1-0.2-0.2-0.3-0.4-0.4c-0.1,0.1-0.1,0.3-0.2,0.4c-0.1,0-0.2,0-0.4,0.1c0,0.1,0,0.2,0,0.3
			c0,0-0.1,0-0.1-0.1c-0.1-0.2-0.1-0.3-0.4-0.3c0,0.1,0,0.2,0,0.5c-0.2-0.2-0.3-0.3-0.5-0.5c0,0.1-0.1,0.3-0.2,0.5
			c0-0.1-0.1-0.2-0.2-0.3c0,0,0,0,0,0c0,0.1,0,0.3,0.1,0.4c-0.3,0-0.4-0.3-0.6-0.5c-0.2,0-0.2,0.1-0.4,0.1c0-0.1-0.1-0.2-0.1-0.2
			c-0.1,0-0.2-0.1-0.2-0.2c0,0.1-0.1,0.2-0.1,0.2c0,0.1,0,0.2,0.1,0.3c0,0.1,0,0.2,0.1,0.4l-0.1,0c-0.2-0.2-0.4-0.3-0.6-0.5
			c-0.2-0.2-0.2-0.5-0.6-0.6c0,0.2,0,0.4,0,0.5c-0.3,0-0.4,0-0.4-0.3c0-0.3-0.1-0.7,0-1c0.1-0.2,0.2-0.5-0.2-0.7c0,0,0-0.2,0-0.3
			c0-1.3-0.4-2.6-0.6-3.9c-0.1-0.7-0.2-1.5-0.4-2.2c-0.1-1-0.3-2.1-0.4-3.2c-0.2-1.1-0.3-2.3-0.5-3.5c0-0.3,0-0.3-0.4-0.3
			c-1.3,0.2-2.6,0.2-4,0.4c-0.3,0-0.7,0-1,0.2c0,0-0.1,0-0.1,0c-0.2,0-0.5,0-0.7-0.1c0,0.1,0,0.1,0.1,0.2c-0.4-0.1-0.7-0.1-1-0.2
			c-0.1,0.3-0.2,0.6-0.3,1c-0.1,0.5-0.2,1.1-0.3,1.7c-0.1,0.5-0.1,1.1-0.2,1.7c-0.1,0.6-0.2,1.1-0.3,1.7c-0.1,0.3-0.2,0.6-0.2,1.1
			c-0.2-0.1-0.3,0-0.4,0.2c0,0.2-0.1,0.3-0.1,0.5c-0.1,0.4-0.1,0.8-0.2,1.2c0,0.2,0,0.3-0.1,0.7c0.1-0.1,0.3-0.2,0.5-0.3
			c0,0.6,0.1,1.2,0.1,1.7c0,0.3,0,0.7-0.4,1c0-0.2,0-0.3,0-0.5c-0.1,0.4-0.4,0.8-0.2,1.2c-0.2,0.2,0,0.5,0,0.7c0,0.2,0,0.4-0.1,0.7
			c-0.1-0.1-0.2-0.2-0.2-0.4c-0.1,0.4-0.2,0.8-0.2,1.1c0.1,0,0.3,0,0.4,0c0.1,0.1,0.2,0.2,0.3,0.4c-0.3,0.3-0.8,0.2-1.3,0.3
			c0.1,0.1,0.2,0.2,0.3,0.4c-0.2,0-0.3,0-0.5-0.2c0,0-0.2,0-0.3-0.1c0-0.1,0-0.2,0-0.4c-0.3-0.1-0.3-0.2-0.2-0.5c0-0.1,0-0.2,0-0.4
			c-0.1,0-0.1,0-0.1,0c0,0.2-0.1,0.3-0.1,0.5c0,0.2-0.1,0.5-0.2,0.7c-0.1,0.1-0.1,0.3-0.3,0.6c-0.1-0.2-0.1-0.4-0.1-0.4
			c-0.2,0-0.2-0.3-0.4-0.4c0,0.1,0,0.2,0,0.3c0,0.1-0.1,0.2-0.1,0.2c-0.2,0-0.2,0.1-0.2,0.2c-0.1,0.1-0.1,0.2-0.2,0.2
			c-0.3,0-0.4-0.3-0.6-0.6c-0.1,0.1-0.1,0.1-0.2,0.1c0-0.4-0.6-0.2-0.6-0.7c0.3-0.3,0.9-0.6,0.6-1.4c-0.2,0.5-0.4,1-0.9,1.3
			c-0.1,0-0.3-0.1-0.5-0.1c0-0.2,0-0.4,0-0.6c0-0.3-0.1-0.4-0.4-0.4c0.1-0.2,0.1-0.4,0.2-0.6c0-0.1,0.1-0.3,0.1-0.5
			c0.1-0.1,0.1-0.4,0.1-0.5c0.4-0.4,0.5-1,0.6-1.6c0.1-0.6,0.2-1.2,0.2-1.8c0.2-1.4,0.3-2.8,0.7-4.2c0.2-0.9,0.3-1.8,0.4-2.7
			c0.1-0.6,0.2-1.1,0.3-1.7c0.3-1.2,0.5-2.4,0.7-3.6c0.1-1,0.3-2.1,0.5-3.1c0.3-1.8,0.6-3.6,1.1-5.4c0.2-0.9,0.3-1.8,0.5-2.7
			c0.1-0.9,0.3-1.8,0.5-2.7c0.1-0.7,0.2-1.3,0.4-2.1c0.1-0.6,0.2-1.1,0.3-1.7c0-0.3,0-0.6,0-0.9c0-0.2,0.1-0.6,0.1-0.9
			c0.2,0.2,0.6,0.3,0.5,0.7c0.4-0.4,0.4-0.9,0.2-1.5c0,0,0,0,0.1,0c0.2-0.1,0.5,0.3,0.7,0.2c0.3,0,0.5,0,0.7,0.1
			c0,0,0.1-0.1,0.2-0.2c0.1,0.3,0.3,0.3,0.6,0.3c0.3,0.2,0.1,0.6,0.2,0.9c0.6-0.1,0.3-0.7,0.6-0.9c0.4,0.4,0.9,0.5,1.5,0.4
			c-0.1-0.2-0.1-0.4-0.1-0.6c0.1,0,0.2,0.1,0.2,0.2C163.8,6.4,163.8,6.4,164.1,6.3z M153.5,42.7C153.4,42.7,153.4,42.8,153.5,42.7
			c-0.1,0.2,0,0.3,0.1,0.2C153.6,42.9,153.5,42.8,153.5,42.7L153.5,42.7z M156.4,31.2c0.1-0.5,0.2-1,0.3-1.5
			C156.4,30.1,156.3,30.8,156.4,31.2z M158.6,6.2C158.6,6.1,158.7,6.1,158.6,6.2c0.2,0.1,0.2,0.1,0.1,0.2
			C158.5,6.3,158.5,6.3,158.6,6.2z M160.9,21c-0.2,0.3-0.3,0.7-0.2,1.1C160.8,21.8,160.9,21.4,160.9,21
			C160.9,21.1,160.9,21,160.9,21z M161.8,18.9c-0.2,0.8-0.5,1.6-0.6,2.3c-0.1,0.7-0.1,1.3-0.2,2c0,0,0,0,0,0.1
			c1.4,0,2.8-0.4,4.2-0.3c-0.4,0.2-0.7,0.2-1.1,0.2c-0.9,0-1.9,0.1-2.8,0.2c-0.1,0-0.2,0-0.2,0.1c0,0,0,0,0,0.1c0.3,0,0.6,0,0.9,0
			c0.8,0,1.6-0.1,2.3-0.2c0.3,0,0.7,0,1-0.1c0.3,0,0.6-0.1,0.9-0.1c0-0.1,0-0.1,0-0.1c-0.2,0-0.3-0.1-0.5-0.1c0,0,0,0,0,0
			c0.1,0,0.3-0.1,0.4-0.1c0-0.1,0-0.3,0.1-0.3c0.2-0.1,0.1-0.3,0.1-0.5c-0.2-0.8-0.3-1.6-0.5-2.5c-0.1-0.6-0.2-1.3-0.3-2
			c-0.2-1.4-0.4-2.8-0.6-4.2c0-0.2-0.1-0.3-0.3-0.3c-0.4,0-0.8-0.1-1.3-0.1c-0.1,0-0.3,0-0.3,0.2c-0.1,0.1-0.1,0.4-0.1,0.5
			c0,0.6-0.2,1.1-0.2,1.7c0,0.1,0,0.4-0.2,0.4c-0.5,0.5-0.4,1.2-0.5,1.8c0.1,0,0.2,0,0.3,0C161.9,18,161.9,18.4,161.8,18.9z
			 M161,6.3c0,0.3,0,0.3,0,0.7C161.2,6.7,161.2,6.6,161,6.3z M162.1,17c0,0,0.1,0,0.1,0c0,0.1-0.1,0.3-0.1,0.5
			C162,17.3,162,17.1,162.1,17z M162.5,12.8c0,0.2-0.1,0.4-0.1,0.7c0,0.1,0,0.2,0,0.4c0,0,0,0,0.1,0c0-0.1-0.1-0.3-0.1-0.4
			C162.6,13.2,162.6,13.2,162.5,12.8z M162.8,6.2C162.8,6.2,162.8,6.1,162.8,6.2c0-0.1,0-0.2,0.1-0.2c0,0,0.1,0,0.1,0c0,0,0,0,0,0.1
			C162.9,6.1,162.9,6.2,162.8,6.2z M163.6,7.4c0,0,0-0.1,0-0.2C163.6,7.2,163.6,7.3,163.6,7.4C163.6,7.4,163.6,7.4,163.6,7.4z
			 M163.7,5.8c0.1,0.2,0.1,0.2,0,0.3C163.7,6,163.7,6,163.7,5.8z M165,6.4c0.1,0.3,0.2,0.6,0.3,1c0.3-0.1,0.4-0.1,0.3-0.4
			c-0.1-0.1-0.1-0.3-0.2-0.4c0-0.1-0.1-0.1-0.2-0.2C165.1,6.3,165,6.3,165,6.4z M169.8,13.3c-0.1-0.3-0.1-0.5-0.1-0.8
			c0,0-0.1,0-0.1,0C169.7,12.8,169.7,13,169.8,13.3L169.8,13.3z M170.2,12.7c0,0.3,0,0.6,0,0.9c0,0.3,0,0.7,0,1.1c0,0,0.1,0,0.1,0
			c0-0.2,0-0.4,0-0.6c0-0.1,0-0.4-0.1-0.5C170.4,13.3,170.4,13,170.2,12.7z M170.5,15.7c0,0,0,0.1,0,0.2c0,0,0,0,0,0
			C170.5,15.8,170.5,15.7,170.5,15.7L170.5,15.7z M170.9,17.9c0,0.1,0,0.2,0,0.3C170.9,18.2,170.9,18,170.9,17.9z M171.7,42.1
			c-0.2,0.2-0.4,0.5-0.3,0.9C171.5,42.6,171.7,42.4,171.7,42.1z M172,41.4c-0.1-0.2,0.1-0.5-0.1-0.8c-0.2,0.4-0.2,1,0.2,1.7
			C172.3,41.9,172.1,41.7,172,41.4z M172.3,43.6c0.1-0.1,0.1-0.2,0.2-0.3c0,0-0.1,0-0.1,0C172.4,43.3,172.3,43.4,172.3,43.6
			C172.3,43.5,172.3,43.5,172.3,43.6z M173.5,42.3c0-0.1,0-0.1,0-0.2c0,0-0.2,0-0.3-0.1C173.2,42.3,173.3,42.4,173.5,42.3z
			 M173.6,40.3c0,0-0.1,0.1-0.1,0.2c0,0.1,0,0.1-0.1,0.3C173.6,40.6,173.6,40.6,173.6,40.3z M173.9,39.4c0,0.3,0,0.7,0,1.1
			c0.2,0,0.4-0.1,0.4-0.3c0-0.3,0-0.6-0.3-0.8C174,39.4,174,39.4,173.9,39.4z"/>
		<path class="st1" d="M177.2,12.9C177.2,12.9,177.2,12.9,177.2,12.9c0-0.1,0-0.1,0.1-0.2c0,0,0,0.1,0.1,0.1
			C177.4,12.8,177.3,12.9,177.2,12.9z M183.8,28C183.8,28,183.8,28,183.8,28c0.1,0.1,0.2,0.3,0.2,0.4c0,1.1,0.1,2.1,0.2,3.2
			c0,1.2,0,2.4,0,3.7c0,0.1-0.1,0.3-0.1,0.5c-0.1-0.1-0.2-0.2-0.2-0.3c-0.1,0.8,0.1,1.6,0,2.4c0.4,0,0.6,0,0.9,0
			c-0.2-0.1-0.2-0.1-0.7-0.2c0-0.2,0.1-0.2,0.3-0.2c0.4,0,0.8,0.1,1.2,0.2c0.2,0,0.4,0.2,0.3,0.5c0.6,0.4,1.3,0.4,2,0.8
			c-0.1,0-0.1,0.1-0.2,0.2c0.3,0,0.5,0,0.6,0c0.2,0.1,0.3,0.1,0.5,0c0,0.1,0.1,0.2,0.1,0.3c-0.5,0.1-1-0.2-1.5-0.1
			c0.3,0.1,0.5,0.1,0.9,0.2c0,0.1,0,0.2,0.2,0.3c0.2,0.1,0.2,0.3,0.4,0.5c0.1,0,0.2-0.1,0.3-0.1c0,0,0.2,0,0.2,0
			c0.1,0.3,0.4,0.2,0.7,0.3c-0.5,0.2-0.8,0-1.2,0c0,0-0.1,0.1-0.2,0.2c0.3,0.2,0.7,0.2,1.1,0.2c-0.2,0.2-0.4,0.3-0.6,0.2
			c-0.3,0-0.7-0.1-1-0.2c0.1,0.3,0.2,0.5,0.3,0.8c0.1,0.1,0.3,0.1,0.5,0.1c0.2-0.1,0.2-0.2,0.2-0.5c0.1,0,0.3,0,0.4,0
			c0.1,0,0.2,0,0.4,0.1c-0.2,0-0.3,0-0.5,0.1c0.2,0.1,0.3,0.2,0.5,0.2c-0.1,0-0.2,0-0.3,0c-0.2,0.1-0.5,0.2-0.7,0.4
			c-0.1,0-0.1,0.2-0.1,0.2s0.1,0.1,0.3,0.2c0,0.2,0,0.4,0.1,0.7c-0.2,0.1-0.3,0.3-0.5,0.5c0,0-0.2,0.2-0.3,0.1
			c-0.2-0.2-0.5-0.1-0.9-0.2c-0.6-0.1-1.2-0.3-1.8-0.4c-0.2,0-0.4-0.2-0.6-0.2c0,0.1,0,0.2,0,0.2c-0.1,0.2-0.3,0.3-0.4,0.1
			c-0.1-0.1-0.2-0.1-0.4-0.2c-0.2,0-0.4-0.1-0.6-0.1c-0.1,0-0.2-0.1-0.2,0c-0.3,0-0.6,0-0.8,0.1c0,0,0,0.1,0,0.2
			c-0.3-0.4-0.7-0.2-1-0.2c-0.2,0-0.3,0-0.5,0c-0.3,0-0.4,0-0.6,0.4c-0.1-0.1-0.1-0.2-0.2-0.3c0,0,0,0.1-0.1,0.1s-0.1,0.1-0.1,0.1
			s-0.1-0.1-0.1-0.1c0-0.2-0.2-0.3-0.4-0.3c-0.1,0-0.2-0.1-0.3-0.2c0-0.1,0.1-0.2,0.1-0.3c0,0,0-0.1,0-0.2c-0.2-0.1-0.5,0.2-0.7-0.1
			c0,0,0-0.2,0-0.3c0.2,0,0.4,0,0.5,0c0-0.2,0-0.2-0.8-0.2c0-0.1,0.1-0.2,0.1-0.3c0-0.1,0-0.2,0.1-0.3c-0.1,0-0.2,0-0.3,0
			c0,0,0,0-0.1,0c0-0.1,0-0.2,0-0.4c0.3,0.2,0.5,0.1,0.6-0.1c0-0.2-0.1-0.4,0-0.6c0.1-0.2,0-0.5,0-0.7c-0.1-0.5-0.2-1.1-0.3-1.7
			c-0.1-0.2,0-0.5,0-0.8c0.2-2.1,0.2-4.3,0-6.4c0-0.7,0-1.3-0.1-2c0-0.5-0.1-1-0.1-1.5c-0.2-1.8-0.3-3.7-0.4-5.6c0-0.7,0-1.6,0-2.4
			c0-1.7,0-3.5,0-5.3c0-0.2-0.1-0.3-0.3-0.5c0.1,0,0.2,0,0.2,0c0-0.4,0-0.8,0-1.1c0-0.1-0.1-0.2-0.1-0.3c0.3-0.7,0.2-1.5,0.3-2.2
			c0-0.2,0-0.4,0.1-0.6c0-0.1,0.1-0.3,0.3-0.3c0.2,0,0.3-0.2,0.4-0.3c0,0,0.1,0,0.2-0.1c0.2,0,0.5-0.2,0.6-0.4
			c0.1-0.2,0.3-0.1,0.4,0c0,0.1,0.1,0.1,0.3,0.2c0.1-0.1,0.1-0.3,0.2-0.5c0.2,0.2,0.1,0.4,0.2,0.6c0.1,0,0.2,0,0.3,0.1
			c0.1,0.3,0.2,0.5,0.1,0.9c-0.1,0.2-0.1,0.5-0.1,0.9c0.1-0.2,0.2-0.4,0.4-0.8c0,0.2,0,0.4,0,0.6c0.2-0.3,0.3-0.5,0.4-0.8
			c0.1,0,0.3,0.1,0.5,0.2c-0.1-0.3,0.2-0.4,0.3-0.6c0-0.1,0.2-0.1,0.3-0.1c0-0.1,0.1-0.2,0.2-0.4c0.1,0.3,0.3,0.5,0.3,0.7
			c0,0.2,0,0.4,0.3,0.5c0,0.2,0,0.4,0,0.6c0.1,0.2,0.1,0.5-0.1,0.7c-0.2,0.1-0.2,0.3-0.2,0.5c0,0.6,0,1.1,0,1.7c0,0.2,0,0.3-0.2,0.5
			c-0.2,0.2-0.2,0.5-0.1,0.7c0,0.5,0,1.1,0,1.6c0,0.4,0,0.8,0,1.3c0-0.1,0-0.2,0-0.3c0,0,0.1,0,0.1,0c0,0.2,0.1,0.3,0.1,0.5
			c0,0.9,0,1.7,0,2.6s0,1.8,0.1,2.7c0,0.4,0,0.9,0,1.4c-0.1,0.6,0,1.2,0,1.8c0,0.4,0,0.7,0,1.1c0,0.4,0,0.8,0.2,1.1
			C183.7,28.4,183.7,28.2,183.8,28z M180.7,10.1c-0.1-0.2-0.1-0.3-0.1-0.4C180.4,9.9,180.4,9.9,180.7,10.1z M181.6,8.5
			c0.1,0.2,0.1,0.2,0,0.6c-0.1-0.2-0.1-0.3-0.2-0.5C181.4,8.6,181.5,8.5,181.6,8.5z M183.1,18c0,0,0,0.1,0,0.2
			C183.1,18.1,183.1,18.1,183.1,18z M184.4,9.9c0.1,0.4,0,0.6-0.3,0.8C184.2,10.4,184.3,10.2,184.4,9.9z M189.1,42
			c-0.2,0.2-0.2,0.2-0.4,0.1C188.8,42.1,188.9,42.1,189.1,42z M189.7,43.7c0.3-0.2,0.5-0.6,1-0.3c0.1,0.3-0.2,0.3-0.3,0.5
			C190.2,43.8,189.9,43.8,189.7,43.7z"/>
		<path class="st1" d="M192.8,10.3c-0.1,0.5-0.5,0.6-1,0.4c0,0,0-0.1,0-0.2c0.2,0,0.4,0,0.6,0.1c0-0.3,0-0.5,0-0.8
			C192.7,9.9,192.7,10.2,192.8,10.3z M192,11.4L192,11.4c0.1,0,0.2,0,0.2,0.1c0,0,0,0,0,0.2C192.1,11.6,192.1,11.5,192,11.4z
			 M192.7,11.5c-0.4-0.3-0.3-0.5,0.3-0.7c0-0.5-0.2-0.9-0.3-1.3c0-0.1-0.1-0.3-0.2-0.5c-0.2-0.4-0.2-0.4,0.2-0.8
			c0,0,0.1,0.1,0.2,0.2c0.1,0,0.1-0.1,0.2-0.3c0.2,0.5,0,1,0.3,1.4c0.1-0.1,0.1-0.2,0.1-0.3c0-0.2,0-0.5,0-0.7
			c0.1-0.3,0-0.6-0.3-0.8c0.2-0.4,0.6-0.6,1.1-0.5c0.1,0,0.1,0,0.2,0c0.4,0.1,0.6,0.4,0.4,0.8c0,0.1-0.2,0.3,0,0.5
			c0.4-0.2,0.7-0.4,1-0.5c0-0.3,0-0.5,0-0.8c0.3,0.1,0.6,0.2,0.7,0.4c0,0.1,0.2,0.1,0.4,0.2c0.1,0.2,0.1,0.3,0.1,0.5
			c0.4-0.9,0.3-1,0.1-1.6c0.7,0.2,1,0.9,1.2,1.6c0.2,0.8,0.3,1.6,0.2,2.4c0,0.2,0,0.4,0,0.5c0.1,0.5,0,1-0.3,1.4
			c-0.1,0.2-0.1,0.5,0,0.7c0-0.1,0.1-0.2,0.2-0.4c0.1,0.2,0.2,0.4,0.1,0.7c-0.2,1-0.1,2.1,0.1,3.1c0.2,1.6,0.4,3.3,0.3,5
			c0,0.4,0.1,0.8,0.1,1.2c-0.1,0.9,0.2,1.8,0.2,2.7c0,1.1,0.1,2.3,0,3.4c-0.1,0.7-0.1,1.3-0.1,2c-0.1,0.9,0,1.8,0.1,2.8
			c0,1,0,2.1,0,3.1c0,0.2,0,0.5,0,0.8c0,0.2,0.1,0.5-0.3,0.7c0,0,0,0.2-0.1,0.3c0,0.3,0,0.7,0,1c-0.1,0.2,0,0.2,0.1,0.3
			c0.1,0.1,0.4,0.2,0.4,0.4c-0.6-0.1-0.7-0.2-0.9-0.8c-0.1,0.2-0.1,0.4-0.1,0.6c0.1,0.1,0.1,0.4,0.1,0.6c0.4,0,0.7,0,1.2,0
			c-0.3,0.8-0.7,1.5-1.3,2.1c0,0-0.1-0.1-0.1-0.2c0,0,0,0-0.1-0.1c-0.1,0-0.1,0.1-0.2,0.1c0-0.1,0-0.2,0-0.3c0-0.1-0.1-0.2-0.2-0.3
			c-0.2,0.1-0.2,0.1-0.4,0.2c-0.1-0.2-0.2-0.3-0.2-0.5c-0.2,0.5,0,0.8,0.4,0.9c0.1,0.2,0,0.5,0.3,0.6c0.1,0,0.2,0.3,0.1,0.4
			c-0.1,0.2-0.3,0.3-0.4,0.5c-0.1-0.1-0.2-0.3-0.3-0.4c-0.2,0-0.4,0.2-0.3,0.6c-0.1,0-0.2,0-0.4-0.1c0-0.2,0.3-0.4,0-0.5
			c-0.2-0.1-0.3-0.1-0.6-0.1c0,0,0-0.1-0.1-0.3c0.1,0,0.2-0.1,0.3-0.2c0.2-0.2,0.4-0.3,0.6-0.5c0.1,0,0.1-0.2,0.1-0.3
			c-0.1,0-0.1,0-0.2,0c-0.1-0.2-0.1-0.4-0.2-0.5c-0.1-0.2-0.2-0.3-0.3-0.5c0,0.4-0.1,0.8-0.1,1.3c0-0.2-0.1-0.3-0.2-0.5
			c-0.1,0.1-0.2,0.3-0.2,0.4c-0.1,0.1-0.2,0.1-0.4,0.2c0,0.1,0.3,0.2,0.2,0.4c0,0.1-0.1,0.3-0.2,0.5c-0.2-0.1-0.4-0.2-0.5-0.3
			c0-0.3,0.2-0.6-0.1-0.8c-0.1,0-0.2,0.1-0.3,0.1c0-0.3-0.1-0.5-0.1-0.7c-0.2,0-0.3-0.1-0.5-0.1c0-0.1,0-0.3,0-0.4
			c0.1,0,0.2,0,0.4,0c0,0,0.1-0.2,0.1-0.2c-0.1-0.1-0.2-0.2-0.2-0.3c0.2-0.4,0.2-0.9,0-1.4c0,0,0-0.1,0-0.1c0.1-0.5,0.1-0.5,0-0.9
			c0-0.1,0-0.3,0-0.4c0-1,0-2,0-3.1c0-0.1,0-0.3,0-0.5c0-1.3,0-2.6,0-3.9c0-0.5,0.1-1,0.1-1.5c0-1.4,0-2.7-0.1-4.1
			c0-0.5,0-0.9,0-1.4c0-2-0.2-4-0.4-6c0-0.2,0-0.5,0-0.8c-0.1-0.5-0.1-1-0.2-1.5c-0.1-0.4,0-0.8,0-1.2c0-0.6,0.2-1.2,0.2-1.9
			c0-0.3,0-0.7,0-1.1c0-0.1,0-0.2,0-0.3C192.9,11.4,192.7,11.5,192.7,11.5z M194,6.7c0.1-0.1,0.2-0.1,0.3,0c0,0,0,0,0,0.1
			C194.2,6.8,194.1,6.7,194,6.7z M194.7,6.8c0,0,0,0.1-0.1,0.1c-0.1,0-0.2,0-0.3-0.1C194.5,6.8,194.6,6.7,194.7,6.8z M195.3,7.1
			c0.2,0.2,0.1,0.3,0,0.4C195.3,7.4,195.3,7.3,195.3,7.1z M197.2,7c0,0,0,0.1,0,0.1c0,0.1,0,0.2-0.1,0.2c0,0-0.2,0-0.2-0.1
			c-0.1-0.1-0.1-0.2-0.1-0.3c0,0,0,0,0-0.1C197,6.9,197.1,7,197.2,7z M197.7,9.5c0.1-0.4,0.2-0.9,0-1.3
			C197.5,8.6,197.6,9.1,197.7,9.5z M199.1,41.8c-0.4,0-0.8,0-1.2,0c0-0.4,0.1-0.7,0.1-1.2c-0.4,0.4-0.3,0.9-0.3,1.4
			C198.2,42.4,198.6,42.3,199.1,41.8z M198.3,8.9c0-0.2-0.1-0.4-0.1-0.6c0,0.2-0.3,0.4,0,0.6C198.2,8.9,198.2,8.9,198.3,8.9z
			 M198.1,29.1c0,0.4,0,0.8,0,1.1c0,0,0.1,0,0.1,0C198.1,29.9,198.1,29.5,198.1,29.1C198.1,29.1,198.1,29.1,198.1,29.1z M198.1,38.9
			c-0.1,0.1-0.1,0.1-0.1,0.1c0,0.6,0,1.3,0.1,1.9c0.1,0,0.2-0.1,0.3-0.1c0-0.2,0.1-0.5,0-0.6c-0.2-0.3-0.1-0.6-0.1-0.9
			c0-0.1,0-0.2,0-0.3C198.2,38.9,198.2,38.9,198.1,38.9z M198.2,16.5c0,0.1,0,0.2,0.1,0.4c0,0,0,0,0,0
			C198.4,16.7,198.3,16.6,198.2,16.5C198.3,16.5,198.3,16.5,198.2,16.5z M198.4,11.4c0,0,0,0.1,0,0.2c0,0,0,0,0.1,0
			C198.4,11.6,198.5,11.5,198.4,11.4C198.5,11.4,198.4,11.4,198.4,11.4z M198.4,9.9c0-0.1,0-0.3,0-0.4
			C198.4,9.6,198.4,9.7,198.4,9.9z M198.8,22.8c0-0.1,0-0.1,0-0.2c-0.1,0-0.1,0-0.1,0C198.7,22.6,198.7,22.7,198.8,22.8
			C198.7,22.8,198.7,22.8,198.8,22.8z M199,25.2c0-0.3,0-0.7,0-1C198.7,24.5,198.9,24.9,199,25.2z M198.9,33.3
			c-0.1,0.2-0.1,0.3,0,0.5C199,33.7,199,33.5,198.9,33.3L198.9,33.3z M199,35.7c0-0.2,0-0.3,0-0.5c0,0,0,0,0,0
			C199,35.4,199,35.5,199,35.7C199,35.7,199,35.7,199,35.7z M199.7,40.4c-0.1,0-0.2,0-0.5-0.1c0.2-0.2,0.5-0.3,0.7-0.4v0
			C199.9,40.1,199.8,40.3,199.7,40.4z M200,40.8c-0.1-0.4,0.2-0.6,0.4-0.9C200.3,40.2,200.2,40.5,200,40.8z"/>
		<path class="st1" d="M202.2,33.7c0.1,0,0.2-0.1,0.3-0.2c0.3-0.2,0.3-0.2,0.3-0.6c0-0.1,0-0.2,0-0.4c-0.1-0.4,0-0.9,0.2-1.3
			c0.1,0.2,0.2,0,0.4,0c0,0,0,0.2,0,0.2c0.1-0.2,0.1-0.5,0.5-0.5c0-0.3-0.2-0.8,0.5-0.9c-0.3,0.6-0.3,1.2-0.3,1.8
			c0.2-0.2,0.1-0.4,0.2-0.6c0-0.2,0.2-0.4,0.3-0.6c0.1,0.1,0.1,0.3,0.2,0.4c0.2,0,0.4,0,0.4-0.1c0.1-0.3,0.1-0.5-0.3-0.6
			c0.2-0.1,0.6,0,0.4-0.5c-0.2,0-0.4,0-0.6,0c0.1-0.1,0.4-0.4,0.7-0.6c0.3,0.2,0,0.5,0.2,0.9c0.1,0,0.2-0.1,0.4-0.2
			c0.1-0.1,0.2-0.2,0.3-0.3c0,0.2,0,0.2,0,0.4c0,0,0,0,0,0c0.1-0.4,0.4-0.7,0.7-0.9c0.2,0,0.5,0.1,0.7,0.2c-0.1,0.5-0.4,1-0.3,1.6
			c0.1,0,0.2-0.1,0.3-0.2c0,0.2,0.1,0.3,0,0.4c0,0.3-0.2,0.6-0.2,0.9c-0.1,0.4-0.1,0.9-0.1,1.3c0.1,1.6,0.5,3.1,1.3,4.5
			c0.2,0.2,0.3,0.4,0.5,0.5c0.4,0.2,0.7,0.4,1.2,0.6c0.2-0.5,0.4-0.9,0.6-1.3c0.1-0.4,0.2-0.9,0.4-1.3c0.2-0.8,0.2-1.7,0.2-2.6
			c0-0.3,0-0.6,0-0.9c0-0.8-0.2-1.5-0.5-2.2c-0.1-0.1-0.2-0.3-0.2-0.4c-0.5-0.8-1.1-1.4-2-1.7c-0.2,0-0.3-0.2-0.5-0.4
			c-0.7-0.5-1.5-1.1-2.1-1.8c-0.5-0.6-0.9-1.3-1.2-1.9c-0.5-0.9-1-1.8-1.5-2.7c-0.2-0.4-0.3-0.9-0.4-1.4c-0.1-0.8-0.3-1.6-0.4-2.5
			c-0.1-0.6-0.1-1.2,0.1-1.8c0.1-0.4,0.1-0.8,0.2-1.2c0-0.6,0-1.2,0.4-1.7c0,0,0-0.1,0-0.2c0.1-0.3,0.1-0.7,0.5-0.8
			c0,0,0.1-0.2,0.1-0.3c0.2-0.5,0.4-1,0.8-1.4c0.2-0.2,0.4-0.3,0.7-0.4c0.1,0,0.2-0.1,0.3-0.2c-0.2,0-0.2,0-0.3,0
			c0.1,0,0.1-0.1,0.1-0.1c0.3,0,0.5-0.1,0.6-0.5c0-0.2,0.3-0.3,0.3-0.4c0.3-0.2,0.5-0.2,0.8-0.3c0.1,0,0.1,0,0.2,0
			c0,0,0.1,0,0.2-0.1c0,0,0.1,0,0.1-0.1c0.2-0.2,0.6,0.1,0.7-0.3c0.2-0.1,0.5-0.2,0.7-0.2c0.3,0,0.7-0.1,1,0.1
			c0.2,0.1,0.5,0,0.9-0.2c0,0.1,0.1,0.2,0.1,0.2c0.1,0,0.1-0.1,0.2-0.2c0.3,0.3,0.8,0.4,1.1,0.5c0.2,0.1,0.5,0,0.7,0.3
			c0,0,0.2,0.1,0.3,0.1c0.2,0,0.4,0.1,0.5,0.2c0.6,0.4,1.2,0.7,1.7,1.2c0.1,0.1,0.2,0.2,0.2,0.5c0.2,0,0.4,0.1,0.5,0.4
			c0.1,0.3,0.4,0.7,0.6,1c0.1,0.3,0.2,0.5,0.3,0.8c0,0.2,0.1,0.3,0.2,0.4c0.2,0.1,0.2,0.3,0.2,0.4c0,0.1,0,0.3,0.1,0.4
			c0.3,0.4,0.3,0.9,0.4,1.5c0,0.3,0,0.5,0,0.8c0,0.2,0,0.2-0.1,0.4c0,0,0,0.1,0,0.2c0.2,0.3,0.2,0.6,0,0.9c-0.1,0.1-0.1,0.3,0,0.6
			c0.2,0.2,0.2,0.5,0,0.9c0.1,0,0.1,0,0.2,0.1c0.1,0.4,0,0.5-0.1,0.5c-0.3,0-0.2-0.2-0.3-0.4c-0.1,0.4,0.1,0.8,0,1.1
			c-0.1,0-0.2,0.1-0.3,0.1c0,0,0-0.1,0-0.1s0-0.1-0.1-0.2c0,0-0.2,0-0.2,0c0,0.1,0,0.1,0.1,0.2c0,0,0.1,0,0.1,0.1
			c-0.1,0-0.1,0.1-0.2,0.2c-0.3,0.1-0.5-0.1-0.5-0.4c0-0.1,0-0.2,0.1-0.3c0.2-0.4,0-0.7-0.2-1.1c0,0.5-0.1,0.8-0.2,1.3
			c-0.1-0.2-0.1-0.3-0.2-0.5c-0.2,0.3-0.3,0.6-0.5,0.8c-0.1-0.1-0.2-0.4-0.4-0.6c0,0.1,0,0.3,0,0.4c-0.2,0.1-0.2-0.1-0.3-0.2
			c0,0.1-0.1,0.2-0.2,0.2c-0.1-0.1-0.1-0.2-0.2-0.3c-0.3,0-0.2,0.3-0.3,0.5c-0.2-0.3-0.1-0.6-0.2-0.9c-0.1,0-0.2,0.1-0.4,0.2
			c0-0.2-0.1-0.3-0.2-0.5c0,0,0,0-0.1,0c0,0.2,0.1,0.5,0.2,0.8c0,0,0.1,0,0.2,0c0.1,0.3,0.2,0.6,0.3,1c0,0.1-0.2,0.1-0.4,0
			c-0.1-0.2-0.2-0.3-0.5-0.2c0,0.1,0.1,0.2,0.1,0.3c-0.1,0-0.1,0-0.1,0c-0.1,0-0.3-0.1-0.4-0.2c-0.3-0.3-0.3-0.6-0.2-1
			c0.1-0.3,0.1-0.6,0-0.9c0-0.5-0.2-1,0-1.5c0.1-0.7,0.1-1.3,0-2c-0.2-0.5-0.4-1-0.7-1.5c-0.4-0.8-1.2-1.1-2.1-1.2
			c-0.3,0-0.6,0.1-0.7,0.3c-0.3,0.2-0.6,0.5-0.8,0.9c-0.2,0.2-0.2,0.5-0.3,0.9c0,0.2-0.1,0.3-0.2,0.5c-0.2,0.1-0.2,0.4-0.2,0.5
			c0.2,0.7,0,1.4,0.2,2.1c0.1,0.1,0.1,0.3,0.1,0.4c-0.2,0.2,0,0.4,0.1,0.5c0.4,0.7,0.8,1.4,1.2,2.1c0.1,0.3,0.2,0.6,0.4,0.9
			c0.2,0.3,0.5,0.6,1,0.8c0.2,0,0.4,0.1,0.7,0.3c0.2,0.1,0.2,0.2,0.3,0.4c-0.1,0-0.1,0-0.1,0c-0.3-0.1-0.6-0.2-0.9-0.3
			c-0.1,0-0.1,0-0.1,0c0.1,0,0.1,0,0.2,0.1c0.2,0.1,0.4,0.2,0.6,0.3c0.3,0,0.6,0.2,0.7,0.5c0,0,0.1,0.1,0.1,0.1
			c0.3,0,0.4,0.1,0.7,0.3c-0.3-0.4-0.8-0.7-1.2-1.2c0.2,0,0.2,0,0.3,0c0.3,0.2,0.5,0.5,0.8,0.6c0.9,1,1.9,2,2.6,3.3
			c0.1,0.2,0.2,0.4,0.2,0.7c0,0,0,0.1,0,0.1c-0.1-0.1-0.2-0.2-0.3-0.3c0,0.3,0,0.6,0.1,0.8c0.3,0.3,0.5,0.7,0.7,1.1
			c0-0.3-0.1-0.5-0.2-0.7c0.2,0,0.3,0,0.3,0.2c0.1,0.4,0.2,0.9,0.3,1.4c0,0.6,0,1.2,0.1,1.8c0,0.5,0.2,1,0.2,1.5c0,0.3,0,0.7-0.2,1
			c0,0.1-0.1,0.2-0.1,0.4c0,0.9-0.2,1.8-0.5,2.7c-0.2,0.6-0.3,1.1-0.5,1.7c0,0.1-0.1,0.3-0.2,0.4c-0.1,0-0.1-0.1-0.2-0.1
			c-0.1,0.2-0.2,0.4-0.3,0.5c0.3,0.1,0.3,0.1,0.6,0c-0.2,0.7-0.5,1.3-0.8,1.9c-0.2-0.1-0.2-0.1-0.1-0.5c-0.5,0.2-0.5,0.2-0.9,1
			c-0.1,0-0.1-0.1-0.2-0.1c-0.2,0-0.4,0.1-0.5,0.1c-0.3,0-0.7,0-1,0.1c-0.2,0-0.3,0-0.3,0.2c0.3,0,0.6-0.1,0.9-0.2
			c0.1,0,0.2-0.1,0.3-0.1c0,0.2,0,0.3,0.1,0.4c-0.2,0.2-0.4,0.2-0.7,0.3c0.2,0.1,0.2,0.1,0.3,0.1c0.4-0.1,0.7-0.3,1.1-0.4
			c-0.2,0.4-1.1,0.7-1.6,0.7c0.1,0,0.1-0.1,0.2-0.2c-0.5,0-0.9-0.1-1.4-0.2c-0.1,0.3-0.3,0.4-0.6,0.4c-0.4-0.1-0.9-0.1-1.4-0.3
			c-0.2,0-0.4-0.1-0.7-0.1c0.9,0.4,1.9,0.5,2.9,0.8c-0.1,0-0.2,0.1-0.2,0c-0.2,0-0.5-0.1-0.8,0c0,0-0.1,0-0.1,0
			c-1-0.3-2.2-0.5-3.2-0.9c-0.2,0-0.3-0.1-0.3-0.2c-0.1-0.2-0.4-0.4-0.6-0.5c-0.3-0.2-0.6-0.4-0.9-0.6c-0.1-0.3-0.2-0.6-0.4-0.9
			c0-0.1-0.2-0.2-0.3-0.2c-0.2-0.1-0.3-0.2-0.4-0.4c-0.2-0.3-0.2-0.7-0.6-1c0.2,0.8,0.7,1.4,0.9,2.3c-0.1-0.2-0.3-0.3-0.3-0.5
			c-0.5-1-1.1-1.9-1.6-3c-0.5-1.1-1.1-3.7-1.3-4.9C202,33.9,202.1,33.9,202.2,33.7z M202.7,35.2c0-0.1,0-0.2-0.1-0.2h0
			C202.5,35,202.6,35.1,202.7,35.2C202.6,35.2,202.6,35.2,202.7,35.2z M203.3,30.8C203.3,30.7,203.2,30.7,203.3,30.8
			c0-0.1,0-0.2,0.1-0.3c0,0,0.1,0,0.1,0C203.4,30.6,203.4,30.7,203.3,30.8z M204.3,39.8c-0.2-0.5-0.4-0.9-0.6-1.3
			C203.6,39,203.9,39.5,204.3,39.8z M204.3,37.8c0,0.1,0.1,0.3,0.2,0.4c0,0,0,0,0,0C204.5,38.1,204.4,37.9,204.3,37.8
			C204.4,37.8,204.3,37.8,204.3,37.8z M205,30.5C205,30.5,205.1,30.5,205,30.5c0,0,0,0.1,0,0.2c0,0,0,0-0.1,0
			C205,30.7,205,30.6,205,30.5z M207,43.7c-0.3-0.1-0.5-0.2-0.7-0.4c-0.1-0.2-0.2-0.4-0.4-0.6c0.1,0,0.1,0,0.2,0
			C206.4,43.1,206.7,43.4,207,43.7z M206.4,30.6c0,0,0-0.1,0-0.2c-0.1,0-0.1,0-0.1,0c-0.1,0.2-0.1,0.3-0.2,0.6c0.1,0,0.2,0,0.4,0
			C206.4,30.8,206.4,30.7,206.4,30.6z M208.3,30.3c-0.1-0.2-0.2-0.3-0.1-0.6C208.4,29.8,208.5,30,208.3,30.3z M209.1,44
			c-0.1,0-0.2,0-0.4-0.1v0.1C208.8,44,209,44,209.1,44L209.1,44z M213.2,44.7c-0.1,0.1-0.2,0.1-0.3,0.1c0,0,0,0,0-0.1
			C213,44.7,213,44.7,213.2,44.7z M213.9,20.1L213.9,20.1c0,0.1,0.2,0.2,0.2,0.1S214,20.2,213.9,20.1
			C214,20.1,213.9,20.1,213.9,20.1z M215.4,26.3c0,0.1,0.1,0.1,0.2,0.2c0,0,0,0,0,0C215.6,26.4,215.6,26.3,215.4,26.3
			C215.5,26.3,215.5,26.3,215.4,26.3z M216.2,27.3c0,0,0.1,0.1,0.1,0.1s0,0,0.1,0C216.4,27.3,216.3,27.2,216.2,27.3
			C216.2,27.2,216.2,27.2,216.2,27.3z M216.3,20.4c0.2,0,0.2,0,0.2,0.2C216.4,20.6,216.3,20.5,216.3,20.4z M216.8,38.7
			c0,0.1,0,0.2-0.1,0.3c0,0,0.1,0,0.1,0.1c0-0.1,0.1-0.2,0.1-0.4C216.9,38.7,216.9,38.7,216.8,38.7z M217.6,36.2c0,0.1,0,0.2,0,0.2
			c0,0,0,0,0,0C217.6,36.4,217.6,36.3,217.6,36.2L217.6,36.2z M217.8,34.1c0.1-0.3,0.1-0.6-0.1-0.9
			C217.7,33.5,217.8,33.8,217.8,34.1z"/>
		<path class="st1" d="M235.7,38.3c-0.1,0.2-0.2,0.4-0.2,0.6c0,0-0.1,0.1-0.1,0.1c-0.1,0-0.2,0-0.3,0.1c-0.1,0.2-0.1,0.4-0.2,0.7
			c0.5,0,0.6-0.4,1-0.6c0.1,0.1,0.2,0.2,0,0.3c-0.2,0.3-0.4,0.6-0.7,0.9c-0.2,0.1-0.5,0.1-0.7,0c0,0-0.1,0.1-0.2,0.3
			c-0.1-0.1-0.2-0.2-0.2-0.3c-0.2,0-0.2,0.1-0.2,0.3c0,0.2,0.1,0.4,0.1,0.7c0,0.2,0,0.4-0.2,0.6c-0.1,0.1-0.1,0.3-0.2,0.6
			c-0.1-0.3-0.3-0.5-0.4-0.8c-0.1,0-0.2,0.1-0.2,0.2c0,0.3-0.1,0.6-0.5,0.7c0,0.1,0,0.2,0,0.4c0.2-0.2,0.4-0.4,0.6-0.6
			c0.1,0,0.1,0.1,0.2,0.2c0.3,0.5,0.2,0.8-0.3,1c0,0-0.1,0,0,0c-0.2,0.2-0.2,0.4-0.4,0.7c-0.2-0.6-0.5-0.9-0.7-1
			c0,0.3,0.1,0.6-0.1,0.9c-0.1,0-0.2,0-0.3,0c0.1-0.2,0.1-0.3,0.2-0.3c-0.1-0.3-0.1-0.3-0.6-0.4c-0.1-0.2-0.2-0.5-0.3-0.8
			c0.4,0,0.7,0,1,0c-0.1-0.4-0.1-0.7-0.1-1.1c-0.2,0.2-0.3,0.3-0.5,0.6c0,0,0.1,0.1,0.2,0.3c0,0-0.1,0-0.2,0c0,0-0.1-0.2-0.3-0.2
			c-0.1,0.2-0.1,0.4-0.2,0.4c-0.1,0.1-0.3,0.1-0.5,0.1c-0.1,0.1-0.2,0.3-0.2,0.4c0,0,0,0-0.1,0c0-0.4,0.3-0.9,0.2-1.4
			c-0.4,0-0.3,0.4-0.6,0.6c0-0.1,0-0.2,0-0.2c-0.1-0.1-0.1-0.4-0.2-0.4c-0.3-0.4-0.2-0.7,0-1c0-0.1,0.1-0.2,0.2-0.3
			c0,0,0.1,0.1,0.2,0.2c0.2-0.3,0.3-0.5,0.1-0.8c0,0,0-0.1,0-0.2c0.1-0.9,0-2,0-3c-0.1-1.3-0.3-2.5-0.2-3.8c0.1-0.5,0-1,0-1.6
			c-0.1-1.2-0.1-2.4-0.2-3.7c0-1.8-0.1-3.7-0.2-5.6c-0.1-2-0.2-4.1-0.1-6.2c0-0.4,0-0.9-0.1-1.4c-0.3,0-0.6,0.1-0.9,0.1
			c-0.4,0.1-0.9,0.1-1.4,0.2c-0.5,0-1,0.1-1.5,0.2c-0.4,0-0.8,0-1.2,0.2c-0.1,0-0.3,0-0.5-0.1c0,0,0,0,0,0c-0.5,0.3-0.6,0.3-0.9-0.1
			c-0.1,0-0.1-0.1-0.2-0.2c0-0.1,0.1-0.3,0.2-0.4c0.2-0.1,0.3-0.2,0.4-0.3c0-0.1,0-0.2,0.1-0.2c-0.1,0-0.1-0.2-0.3-0.4
			c-0.2,0.1-0.3,0.3-0.5,0.4c-0.1-0.2-0.1-0.4-0.2-0.7c0,0-0.2,0-0.3,0c0-0.1,0-0.2,0.1-0.2c0.2-0.1,0.5-0.1,0.8-0.2
			c0-0.4-0.4-0.4-0.7-0.4c0.2-0.2,0.2-0.3,0.3-0.5c-0.1-0.2-0.2-0.5-0.2-0.8c-0.1,0-0.3,0-0.5-0.1c0.3-0.5,0.8-0.7,1.2-0.9
			c0.5-0.3,1-0.2,1.5-0.3c-0.1,0-0.3-0.1-0.4-0.2c0.3-0.2,0.5-0.2,0.9-0.2c0.5,0,0.9,0,1.4-0.1c0.1,0,0.3,0,0.4,0
			c0.2,0,0.4,0,0.7-0.2c0.2-0.1,0.5-0.2,0.8-0.2c1.6-0.3,3.3-0.3,4.9-0.2c0.7,0,1.3-0.1,2,0c0.5,0.1,1.2-0.1,1.8,0.2
			c-0.1,0-0.2,0.1-0.4,0.1c0.2,0,0.3,0.1,0.4,0.1c0.6,0.1,1.2,0.1,1.8,0.2c0.2,0,0.4,0.1,0.6,0.3c0,0,0.2,0.1,0.3,0.1
			c0.3,0,0.5-0.1,0.8-0.1c0.2,0,0.5-0.1,0.6,0.1c0,0-0.1,0.1-0.1,0.1c0.2,0.2,0.5,0.2,0.9,0.2c-0.1,0.1-0.3,0.2-0.5,0.3
			c0.2,0,0.5,0,0.7,0c0,0,0.1,0.1,0.2,0.1c-0.4,0.2-0.6,0.4-0.7,0.9v0c-0.2,0.1-0.5,0.2-0.7,0.3c0,0,0,0,0,0.1
			c0.2,0,0.3-0.1,0.4-0.1c0.4,0,0.4-0.1,0.6,0.2c0.2-0.2,0.2-0.5,0.5-0.5c0.1,0.2,0.2,0.3,0.3,0.5c-0.2,0.1-0.4,0.2-0.7,0.1
			c-0.2,0-0.4,0.1-0.6,0.2c0,0,0,0.1,0.1,0.1c0.5,0,1,0.1,1.6-0.1c0.2-0.1,0.5-0.1,0.8-0.2c0.1,0.2,0.1,0.3,0,0.4
			c-0.2,0-0.4,0.1-0.7,0.2c-0.1,0-0.2,0.1-0.2,0.2c0.2,0,0.5,0,0.9,0c-0.2,0.1-0.3,0.2-0.4,0.3c-0.2,0-0.2,0.1-0.3,0.2
			c-0.2,0.2-0.5,0.2-0.8,0.3c-0.2,0-0.4,0-0.5,0.1c-0.3,0.3-0.4,0.4-0.6,0.3c-0.6,0-1.1,0.3-1.8,0.5c0.1-0.2,0.1-0.2,0.2-0.3
			c-0.2-0.1-0.2-0.1-0.3,0c-0.1,0.2-0.3,0.2-0.5,0.1c-0.4,0-0.8-0.2-1.1-0.1c-0.1,0-0.1,0-0.2,0c-0.7-0.2-1.6-0.3-2.3-0.2
			c0,0-0.1,0-0.1,0c0,0.6-0.1,1.2-0.3,1.8c0,0-0.1,0.2,0,0.2c0,0.8,0,1.6,0,2.5c0.2-0.6,0-1.3,0.1-1.9l0,0c0.1,0.1,0.1,0.2,0.1,0.3
			c0,0.2,0,0.5,0.1,0.7c0,0.6,0.1,1.2,0.1,1.8c0,0.9,0.1,1.8,0.1,2.7c0.1,0.2,0.1,0.5,0.1,0.7c0,0.5,0,1,0.1,1.5c0,0.1,0,0.2,0,0.3
			c-0.1,0.7-0.1,1.5-0.1,2.3c0,0,0,0.1-0.1,0.2c0-0.3,0-0.6,0-0.9c0,0,0,0,0,0c0,0.1-0.1,0.3-0.1,0.5c0,0.3,0,0.6,0,0.9
			c0,0.2,0,0.5,0.3,0.5c0,0,0.1,0.1,0.1,0.2c0,0.2,0,0.3,0,0.5c0.1,1.3,0.2,2.7,0.2,4.1c0,0.7,0,1.4,0.1,2.2c0,0.4,0,0.9,0,1.4
			c0,0.2,0,0.3,0.2,0.6c0,0.2-0.1,0.2-0.1,0.3c-0.1,0-0.3,0-0.5,0.1c0.1,0.2,0.2,0.2,0.3,0.2c0.1,0,0.1-0.2,0.1-0.3
			C235.2,38.1,235.3,38.2,235.7,38.3z M220.9,9.8c0.1-0.3,0.1-0.3,0.6-0.1C221.3,9.7,221.1,9.8,220.9,9.8z M221.5,14.5
			c0.1-0.1,0.2,0,0.3,0C221.7,14.5,221.6,14.5,221.5,14.5z M222.3,12.2c0.2,0,0.5,0,0.7-0.1C222.5,12.1,222.5,12.1,222.3,12.2z
			 M226.8,9.2c0.1,0,0.2,0,0.3,0v0C227,9.2,226.9,9.2,226.8,9.2L226.8,9.2z M227.6,8.7c-0.1,0-0.2,0-0.3,0c0,0.1,0,0.1,0,0.1
			c0.1,0,0.2,0,0.3,0C227.6,8.8,227.6,8.8,227.6,8.7z M228.5,40.4c0,0,0.1,0,0.3,0c-0.1,0.1-0.2,0.2-0.2,0.3
			c-0.1,0.2-0.2,0.4-0.2,0.6c0,0-0.1,0.1-0.1,0.1C228.2,41,228.2,40.7,228.5,40.4z M229.9,40.8c0-0.2-0.1-0.3-0.1-0.4
			c0,0-0.1,0-0.1,0c0,0.1,0,0.2,0.1,0.4C229.8,40.8,229.8,40.8,229.9,40.8z M229.8,41.5c-0.1,0.2,0.1,0.4,0.1,0.6c0,0,0.1,0,0.1,0
			c0-0.2,0-0.4,0-0.6C229.9,41.5,229.9,41.5,229.8,41.5z M231.7,29.2c0,0.1,0,0.3,0,0.5c0,0,0,0,0,0
			C231.8,29.5,231.8,29.3,231.7,29.2C231.7,29.1,231.7,29.2,231.7,29.2z M232.2,40.3c0.1-0.4,0-0.5-0.3-0.9c0,0.3,0,0.7-0.1,1.1
			C232,40.6,232.1,40.4,232.2,40.3z M233.3,8.5c0.2,0,0.3,0,0.5,0v0C233.7,8.5,233.5,8.5,233.3,8.5L233.3,8.5z M233.5,40.4
			c0.1-0.1,0.2-0.4,0-0.6C233.5,40,233.5,40.3,233.5,40.4z M233.9,14c-0.2,0.4-0.2,0.8-0.1,1.3C234,14.8,234,14.4,233.9,14z
			 M233.9,24c-0.1-0.2,0.1-0.4-0.1-0.7C233.8,23.6,233.8,23.8,233.9,24C233.8,24.1,233.8,24,233.9,24z M234,42.7
			c0-0.2,0-0.2,0.2-0.4C234.1,42.4,234,42.6,234,42.7z M234.1,21.1c0,0,0-0.2,0-0.3c0,0,0,0-0.1,0C234,20.9,234,21.1,234.1,21.1
			C234.1,21.1,234.1,21.1,234.1,21.1z M234.4,24.3c0-0.1,0-0.3,0-0.4c0,0-0.1,0-0.1,0c-0.2,0.5,0.1,1.2-0.1,1.7
			C234.4,25.1,234.2,24.7,234.4,24.3z M234.9,40.7c0-0.1,0.2-0.1,0.3-0.1c0.1,0,0.2,0.1,0.1,0.2c0,0.1-0.1,0.2-0.2,0.3
			c-0.1,0.1-0.2,0.2-0.3,0.2c-0.2-0.1-0.3-0.1-0.6-0.2C234.4,41.1,234.7,40.9,234.9,40.7z M234.2,15.9c0-0.1,0-0.1,0-0.2
			c0,0,0,0,0,0C234.2,15.8,234.2,15.8,234.2,15.9z M234.4,29.7c0-0.1,0-0.3,0-0.4c0,0,0,0,0,0C234.3,29.4,234.3,29.6,234.4,29.7
			C234.4,29.7,234.4,29.7,234.4,29.7z M234.6,35.4c0,0.2,0,0.5,0,0.7h0C234.7,35.9,234.7,35.6,234.6,35.4L234.6,35.4z M234.8,37.1
			c0.1-0.3,0.1-0.3-0.1-0.5c0,0.2,0,0.3,0,0.5C234.7,37.1,234.7,37.1,234.8,37.1z M235.3,37.2c0,0-0.1,0-0.1,0c0,0,0-0.1,0-0.1
			C235.3,37,235.3,37.1,235.3,37.2C235.4,37.1,235.4,37.1,235.3,37.2C235.3,37.2,235.3,37.2,235.3,37.2z M237.6,9.1
			c0.2,0,0.4,0,0.5,0c0,0,0-0.1,0-0.1C238,9,237.8,9.1,237.6,9.1L237.6,9.1z M239.5,9.4c-0.3,0-0.6,0-0.9,0.1
			C238.9,9.6,239.2,9.6,239.5,9.4z M240.7,12.9c0.1,0,0.1-0.1,0.2-0.1l0-0.1C240.8,12.8,240.8,12.8,240.7,12.9L240.7,12.9z
			 M241.4,10.7c-0.1,0.3-0.3,0.2-0.5,0.2v0C241.1,10.9,241.2,10.8,241.4,10.7z"/>
		<path class="st1" d="M244.9,33.7c0,0,0.2-0.1,0.3-0.2c0.3-0.2,0.3-0.2,0.3-0.6c0-0.1,0-0.2,0-0.4c-0.1-0.4,0-0.9,0.2-1.3
			c0.1,0.2,0.2,0,0.4,0c0,0,0,0.2,0,0.2c0.1-0.2,0.1-0.5,0.5-0.5c0-0.3-0.1-0.8,0.5-0.9c-0.3,0.6-0.3,1.2-0.3,1.8
			c0.2-0.2,0.1-0.4,0.2-0.6c0-0.2,0.2-0.4,0.3-0.6c0.1,0.1,0.2,0.3,0.2,0.4c0.2,0,0.4,0,0.4-0.1c0.1-0.3,0.2-0.5-0.3-0.6
			c0.2-0.1,0.6,0,0.4-0.5c-0.2,0-0.4,0-0.6,0c0.1-0.1,0.4-0.4,0.7-0.6c0.3,0.2,0.1,0.5,0.2,0.9c0.1,0,0.2-0.1,0.4-0.2
			c0-0.1,0.1-0.2,0.3-0.3c0,0.2,0,0.2,0,0.4c0,0,0,0,0,0c0.1-0.4,0.4-0.7,0.7-0.9c0.2,0,0.5,0.1,0.7,0.2c-0.1,0.5-0.4,1-0.3,1.6
			c0.1,0,0.2-0.1,0.3-0.2c0,0.2,0.1,0.3,0,0.4c0,0.3-0.1,0.6-0.2,0.9c0,0.4-0.1,0.9,0,1.3c0.1,1.6,0.5,3.1,1.3,4.5
			c0.1,0.2,0.3,0.4,0.5,0.5c0.4,0.2,0.7,0.4,1.2,0.6c0.2-0.5,0.4-0.9,0.6-1.3c0.1-0.4,0.2-0.9,0.4-1.3c0.2-0.8,0.2-1.7,0.2-2.6
			c0-0.3,0-0.6,0-0.9c0-0.8-0.1-1.5-0.5-2.2c-0.1-0.1-0.2-0.3-0.2-0.4c-0.5-0.8-1.1-1.4-2-1.7c-0.2,0-0.3-0.2-0.5-0.4
			c-0.7-0.5-1.5-1.1-2.1-1.8c-0.5-0.6-0.9-1.3-1.2-1.9c-0.5-0.9-1-1.8-1.5-2.7c-0.2-0.4-0.3-0.9-0.4-1.4c-0.1-0.8-0.3-1.6-0.4-2.5
			c0-0.6,0-1.2,0.1-1.8c0.2-0.4,0.2-0.8,0.2-1.2c0-0.6,0-1.2,0.4-1.7c0.1,0,0.1-0.1,0.1-0.2c0.1-0.3,0.1-0.7,0.5-0.8
			c0,0,0.1-0.2,0.2-0.3c0.2-0.5,0.4-1,0.8-1.4c0.2-0.2,0.4-0.3,0.7-0.4c0.1,0,0.1-0.1,0.3-0.2c-0.2,0-0.2,0-0.3,0c0,0,0-0.1,0.1-0.1
			c0.3,0,0.5-0.1,0.6-0.5c0-0.2,0.3-0.3,0.3-0.4c0.3-0.2,0.5-0.2,0.8-0.3c0,0,0.1,0,0.2,0c0,0,0.1,0,0.2-0.1c0,0,0.1,0,0.2-0.1
			c0.2-0.2,0.6,0.1,0.7-0.3c0.2-0.1,0.5-0.2,0.7-0.2c0.3,0,0.7-0.1,1,0.1c0.2,0.1,0.5,0,0.9-0.2c0.1,0.1,0.1,0.2,0.1,0.2
			c0.1,0,0.1-0.1,0.2-0.2c0.3,0.3,0.8,0.4,1.1,0.5c0.2,0.1,0.5,0,0.7,0.3c0,0,0.2,0.1,0.3,0.1c0.2,0,0.4,0.1,0.5,0.2
			c0.6,0.4,1.2,0.7,1.7,1.2c0.1,0.1,0.2,0.2,0.2,0.5c0.2,0,0.4,0.1,0.5,0.4c0.2,0.3,0.4,0.7,0.6,1c0.2,0.3,0.2,0.5,0.3,0.8
			c0.1,0.2,0.1,0.3,0.2,0.4c0.2,0.1,0.2,0.3,0.2,0.4c0,0.1,0,0.3,0.1,0.4c0.3,0.4,0.3,0.9,0.4,1.5c0,0.3,0,0.5,0,0.8
			c0,0.2-0.1,0.2-0.2,0.4c0,0,0,0.1,0.1,0.2c0.1,0.3,0.1,0.6,0,0.9c-0.1,0.1-0.2,0.3,0,0.6c0.1,0.2,0.2,0.5-0.1,0.9
			c0.2,0,0.2,0,0.2,0.1c0.1,0.4,0,0.5-0.1,0.5c-0.3,0-0.2-0.2-0.3-0.4c-0.1,0.4,0.1,0.8,0.1,1.1c-0.2,0-0.2,0.1-0.3,0.1
			c0,0,0-0.1,0-0.1s0-0.1-0.1-0.2c0,0-0.1,0-0.1,0c0,0.1,0,0.1,0,0.2c0,0,0.1,0,0.1,0.1c-0.1,0-0.1,0.1-0.2,0.2
			c-0.3,0.1-0.5-0.1-0.5-0.4c0-0.1,0-0.2,0.1-0.3c0.2-0.4,0-0.7-0.2-1.1c0,0.5-0.1,0.8-0.2,1.3c-0.1-0.2-0.1-0.3-0.2-0.5
			c-0.2,0.3-0.3,0.6-0.5,0.8c-0.2-0.1-0.2-0.4-0.4-0.6c0,0.1,0,0.3,0,0.4c-0.2,0.1-0.2-0.1-0.3-0.2c-0.1,0.1-0.2,0.2-0.2,0.2
			c0-0.1-0.1-0.2-0.1-0.3c-0.3,0-0.2,0.3-0.3,0.5c-0.2-0.3-0.1-0.6-0.1-0.9c-0.1,0-0.2,0.1-0.4,0.2c0-0.2-0.1-0.3-0.2-0.5
			c0,0,0,0-0.1,0c0,0.2,0.1,0.5,0.2,0.8c0,0,0.1,0,0.2,0c0.1,0.3,0.2,0.6,0.3,1c-0.1,0.1-0.2,0.1-0.4,0c-0.1-0.2-0.2-0.3-0.5-0.2
			c0.1,0.1,0.1,0.2,0.1,0.3c0,0-0.1,0-0.1,0c-0.1,0-0.3-0.1-0.4-0.2c-0.3-0.3-0.3-0.6-0.2-1c0.1-0.3,0.1-0.6,0-0.9
			c0-0.5-0.1-1,0-1.5c0.1-0.7,0.1-1.3,0-2c-0.2-0.5-0.4-1-0.7-1.5c-0.4-0.8-1.2-1.1-2.1-1.2c-0.3,0-0.6,0.1-0.7,0.3
			c-0.3,0.2-0.6,0.5-0.8,0.9c-0.1,0.2-0.2,0.5-0.3,0.9c0,0.2-0.1,0.3-0.2,0.5c-0.1,0.1-0.2,0.4-0.2,0.5c0.2,0.7,0,1.4,0.2,2.1
			c0,0.1,0.1,0.3,0,0.4c-0.1,0.2,0,0.4,0.1,0.5c0.4,0.7,0.8,1.4,1.2,2.1c0.1,0.3,0.2,0.6,0.4,0.9c0.2,0.3,0.5,0.6,1,0.8
			c0.2,0,0.4,0.1,0.7,0.3c0.1,0.1,0.2,0.2,0.3,0.4c0,0,0,0,0,0c-0.3-0.1-0.6-0.2-0.9-0.3c0,0,0,0,0,0c0,0,0.1,0,0.1,0.1
			c0.2,0.1,0.4,0.2,0.6,0.3c0.3,0,0.6,0.2,0.7,0.5c0.1,0,0.1,0.1,0.2,0.1c0.3,0,0.4,0.1,0.7,0.3c-0.3-0.4-0.8-0.7-1.2-1.2
			c0.2,0,0.2,0,0.3,0c0.3,0.2,0.5,0.5,0.8,0.6c0.9,1,1.9,2,2.6,3.3c0.2,0.2,0.2,0.4,0.2,0.7c0,0,0,0.1,0,0.1
			c-0.1-0.1-0.2-0.2-0.3-0.3c-0.1,0.3-0.1,0.6,0.1,0.8c0.3,0.3,0.5,0.7,0.7,1.1c-0.1-0.3-0.1-0.5-0.2-0.7c0.2,0,0.3,0,0.3,0.2
			c0.1,0.4,0.2,0.9,0.3,1.4c0,0.6,0,1.2,0.1,1.8c0,0.5,0.1,1,0.2,1.5c0,0.3,0,0.7-0.2,1c0,0.1-0.1,0.2-0.1,0.4
			c0,0.9-0.2,1.8-0.5,2.7c-0.2,0.6-0.3,1.1-0.5,1.7c0,0.1-0.1,0.3-0.2,0.4c-0.2,0-0.2-0.1-0.2-0.1c-0.1,0.2-0.2,0.4-0.3,0.5
			c0.3,0.1,0.3,0.1,0.6,0c-0.2,0.7-0.5,1.3-0.8,1.9c-0.2-0.1-0.2-0.1-0.2-0.5c-0.5,0.2-0.5,0.2-0.9,1c-0.1,0-0.2-0.1-0.2-0.1
			c-0.2,0-0.4,0.1-0.5,0.1c-0.3,0-0.7,0-1,0.1c-0.2,0-0.3,0-0.3,0.2c0.3,0,0.6-0.1,0.9-0.2c0.1,0,0.2-0.1,0.3-0.1
			c0.1,0.2,0.1,0.3,0.1,0.4c-0.2,0.2-0.4,0.2-0.7,0.3c0.1,0.1,0.2,0.1,0.3,0.1c0.4-0.1,0.7-0.3,1.1-0.4c-0.2,0.4-1.1,0.7-1.6,0.7
			c0,0,0.1-0.1,0.2-0.2c-0.5,0-0.9-0.1-1.4-0.2c-0.1,0.3-0.3,0.4-0.6,0.4c-0.4-0.1-0.9-0.1-1.4-0.3c-0.2,0-0.4-0.1-0.7-0.1
			c0.9,0.4,1.9,0.5,2.9,0.8c-0.1,0-0.2,0.1-0.2,0c-0.2,0-0.5-0.1-0.8,0c-0.1,0-0.1,0-0.1,0c-1-0.3-2.2-0.5-3.2-0.9
			c-0.1,0-0.3-0.1-0.3-0.2c-0.1-0.2-0.4-0.4-0.6-0.5c-0.3-0.2-0.6-0.4-0.9-0.6c-0.1-0.3-0.2-0.6-0.4-0.9c-0.1-0.1-0.2-0.2-0.3-0.2
			c-0.2-0.1-0.3-0.2-0.4-0.4c-0.1-0.3-0.2-0.7-0.6-1c0.2,0.8,0.7,1.4,0.9,2.3c-0.1-0.2-0.3-0.3-0.3-0.5c-0.5-1-1.1-1.9-1.6-3
			c-0.5-1.1-1.1-3.7-1.3-4.9C244.7,33.9,244.8,33.9,244.9,33.7z M245.4,35.2c0-0.1,0-0.2-0.1-0.2h0C245.2,35,245.3,35.1,245.4,35.2
			C245.3,35.2,245.3,35.2,245.4,35.2z M246,30.8C246,30.7,245.9,30.7,246,30.8c0-0.1,0.1-0.2,0.1-0.3c0,0,0.1,0,0.1,0
			C246.1,30.6,246.1,30.7,246,30.8z M247,39.8c-0.2-0.5-0.4-0.9-0.6-1.3C246.3,39,246.6,39.5,247,39.8z M247,37.8
			c0,0.1,0.1,0.3,0.2,0.4c0,0,0,0,0,0C247.2,38.1,247.1,37.9,247,37.8C247.1,37.8,247,37.8,247,37.8z M247.7,30.5
			C247.7,30.5,247.7,30.5,247.7,30.5c0,0,0,0.1,0,0.2c0,0,0,0-0.1,0C247.7,30.7,247.7,30.6,247.7,30.5z M249.6,43.7
			c-0.3-0.1-0.5-0.2-0.7-0.4c-0.1-0.2-0.2-0.4-0.4-0.6c0.1,0,0.1,0,0.2,0C249,43.1,249.4,43.4,249.6,43.7z M249,30.6
			c0,0,0-0.1,0-0.2c0,0,0,0-0.1,0c0,0.2-0.1,0.3-0.2,0.6c0.1,0,0.2,0,0.4,0C249.1,30.8,249,30.7,249,30.6z M250.9,30.3
			c-0.1-0.2-0.2-0.3-0.1-0.6C251,29.8,251.2,30,250.9,30.3z M251.8,44c-0.1,0-0.2,0-0.4-0.1v0.1C251.5,44,251.6,44,251.8,44
			L251.8,44z M255.9,44.7c-0.1,0.1-0.2,0.1-0.3,0.1c0,0,0,0,0-0.1C255.7,44.7,255.7,44.7,255.9,44.7z M256.6,20.1L256.6,20.1
			c0,0.1,0.2,0.2,0.2,0.1S256.7,20.2,256.6,20.1C256.7,20.1,256.6,20.1,256.6,20.1z M258.1,26.3c0,0.1,0.1,0.1,0.2,0.2c0,0,0,0,0,0
			C258.3,26.4,258.3,26.3,258.1,26.3C258.2,26.3,258.2,26.3,258.1,26.3z M258.9,27.3c0,0,0.1,0.1,0.1,0.1s0,0,0.1,0
			C259.1,27.3,259,27.2,258.9,27.3C258.9,27.2,258.9,27.2,258.9,27.3z M259,20.4c0.2,0,0.2,0,0.2,0.2C259.1,20.6,259,20.5,259,20.4z
			 M259.5,38.7c-0.1,0.1-0.1,0.2-0.1,0.3c0,0,0,0,0,0.1C259.5,39,259.6,38.9,259.5,38.7C259.6,38.7,259.6,38.7,259.5,38.7z
			 M260.3,36.2c-0.1,0.1-0.1,0.2-0.1,0.2c0,0,0.1,0,0.1,0C260.3,36.4,260.3,36.3,260.3,36.2L260.3,36.2z M260.5,34.1
			c0.1-0.3,0.1-0.6-0.1-0.9C260.4,33.5,260.5,33.8,260.5,34.1z"/>
	</g>
</g>
</svg>
