<?xml version="1.0" encoding="UTF-8"?>
<svg id="Layer_2" data-name="Layer 2" xmlns="http://www.w3.org/2000/svg" viewBox="0 0 396.84 52.08">
  <defs>
    <style>
      .cls-1 {
        fill: #476dad;
      }
    </style>
  </defs>
  <g id="Layer_1-2" data-name="Layer 1">
    <g>
      <path class="cls-1" d="M198.95,16.74c-.1,0-.1-.05-.2-.1,.05-.05,.05-.1,.1-.15,.1,.05,.25,.05,.45,.05v.25c-.1,0-.25,0-.35-.05Zm10.47,2.19c-.45-.2-.45-.7-.7-1.05-.15,0-.35,.05-.45,.1-.8,.1-1.5,.25-2.24,.4-.1,0-.2,0-.3,.05-.25,.05-.45,.2-.5,.5-.05,.4-.1,.75-.1,1.15-.05,.9-.15,1.79,0,2.69,0,.2,0,.45,.05,.65,.15-1.25-.05-2.54,.3-3.84v.85c-.05,.65-.1,1.2-.15,1.9,0,0,.05,.05,.05,.1,.35,1.2,.3,2.39,.2,3.64-.05,.5-.05,.95-.05,1.45,0,.25,.05,.35,.3,.3,.15,0,.3-.05,.45-.1,.7-.25,1.45-.35,2.14-.4,.15,0,.3,.05,.4,.05,0,.05,0,.1,.05,.1-.3,.05-.6,.15-.9,.25,.4,0,.8-.05,1.2,0,.4,0,.8,.1,1.2,.15v.3c.55,0,1.05-.05,1.6,.1-.6,.1-1.1,.1-1.6,.15,0,0,0,.05-.05,.1,.45-.05,.7,.35,1.15,.3,.1-.05,.25,0,.4,0,.2,.05,.45,0,.5,.35,.3,0,.5,.1,.85,.1-.35,.15-.6-.05-.8,.2,.35,.3,.9,.1,1.25,.45-.1,.05-.25,.1-.3,.1-.25-.15-.55,0-.75,.1-.3,.05-.5,.1-.75,.2,.15,.3,.4,.55,.8,.35,0,.2-.15,.2-.3,.2-.4,.05-.8,.05-1.2,.1,.3,.1,.75-.15,1.05,.3-.2,.05-.3,.1-.4,.15,0,.05,.05,.1,.05,.1h.1c.8,0,1.45,.45,2.19,.5,.05,0,.1,.05,.1,.2-.1-.05-.15-.05-.25-.1,.05,0,0,0,0,0-.1,.25-.2,.3-.4,.3h-.6c.2,.35,.5,.1,.65,.3-.35,.15-.7,.15-1.05,.15-.5,0-1-.05-1.5,0-.15,0-.3,.1-.45,.1-.45,.05-.9,.05-1.35,.1-1.1,.05-2.19,.3-3.29,.55-.15,.6-.1,1.15-.1,1.7,0,.3-.05,.6-.15,.9-.2,.5-.2,1.1-.25,1.6v.95c0,.35-.05,.65,.05,1,.1,.15,.05,.35,0,.5-.1,.5-.1,1-.1,1.5,.05,.4,0,.8,0,1.2,0,.3,0,.65,.1,.95h.05c0-.6-.05-1.15-.05-1.75,.05-.6,.15-1.2,.3-1.75v1.45c0,.7-.05,1.35,.05,2.04,0,.35,.15,.7,.2,1.1,.05,.45,.25,.8,.35,1.15,.05,.1,.05,.2,.1,.35-.1-.15-.15-.15-.25-.25-.1,.1-.15,.1-.25,.2-.15-.15-.25-.15-.3,0-.05,.3-.05,.55,0,.8,0,.3,0,.5-.2,.8-.25,.45-.25,1-.15,1.45,.1,.45-.05,.6-.4,.8,0-.15,0-.3-.05-.35,.1-.2,.35-.2,.25-.45-.15,.1-.3,.2-.5,.35-.15,.15,.15,.6-.35,.65-.15-.25-.35-.55-.6-.85-.05,.3-.1,.6-.15,.9-.15-.05-.25-.1-.3-.1-.45,.15-.55,.55-.65,.95,0-.2,0-.45-.05-.8-.2,.4-.55-.05-.75,.25-.1-.1-.15-.25-.25-.45-.2,.55-.25,.95-.1,1.4-.15,.15-.25,.1-.3-.05-.05-.15,0-.3,0-.45,0-.4,.05-.75,.1-1.05-.25-.05-.3,0-.3,.15,0,.3,.05,.55,.05,.85v.5c-.2,0-.35-.05-.35-.25v-.65c.15-.5,0-.95-.35-1.35-.2,.15-.45,.3-.65,.45-.15-.15-.2-.25-.05-.4,.15-.15,.3-.3,.45-.45,.3-.25,.5-.55,.5-1-.1-.85-.15-1.75-.25-2.59-.2-1.4-.3-2.89-.2-4.34,.05-1.1,0-2.19,0-3.34v-4.89c-.1,0-.15,0-.25-.05l.05-.1c.2-.1,.2-.25,.2-.4-.1-.3-.1-.6-.05-.9,0-.2-.05-.4-.05-.65,0-.1-.1-.2-.15-.2-.3-.35-.35-.35-.2-.75-.1,0-.25-.05-.45-.05,.2-.2,.45-.45,.6-.6,.2-.1,.25-.2,.25-.4-.1-1.7-.15-3.39-.3-5.09-.1-1.6-.1-3.14-.05-4.69,0-.25-.05-.55-.05-.85-.05-.25-.15-.55-.45-.6-.2-.05-.2-.3-.1-.45,.05-.1,.1-.2,.1-.35v.05c.2-.15,.4-.25,.5-.55-.05,0-.15-.05-.25-.05-.25-.05-.35-.25-.25-.5,.1-.3,.3-.4,.6-.45-.15-.25-.3-.4-.45-.55,.15-.2,.25-.35,.35-.45,.15-.1,.35-.1,.5-.2-.2-.25-.4-.1-.6,0,.05-.15,.05-.35,.05-.55h.35v-.1c-.05-.05-.15-.1-.25-.15-.1-.05-.2-.15-.4-.2,.3-.15,.45-.3,.65-.35,.1,0,.2,0,.3,.05,.35,.25,.7,.3,1.15,.2,.1-.05,.3-.05,.45,0,.5,.1,1.1,0,1.65-.05,.6-.1,1.15-.15,1.75-.3,.75-.15,1.5-.45,2.19-.65,.25-.1,.55-.2,.8-.05,.05,.05,.15,0,.2,0s.1-.1,.15-.1c.15-.05,.35-.3,.5-.15,.2,.1,.4,.4,.3,.65v.2q.3,.1,.65,.05c-.1-.3-.35-.2-.5-.4,.1-.15,.2-.3,.35-.45,.15,.1,.4,.25,.6,.4,.4-.3,.9-.25,1.5-.15-.15-.25-.25-.4-.3-.6,.1-.05,.25-.1,.35-.1,.4,.3,.65,.65,.65,1.25-.25,.05-.25,.25-.2,.5-.15-.1-.3-.2-.45-.4,.05,.35,.1,.6,.1,.85,0,.2-.05,.45-.05,.65-.1-.15-.2-.25-.3-.45-.05,.15-.15,.3-.25,.4,.2,.15,.35,.15,.55,.05,.1-.05,.15-.2,.3-.05,.05,.05,.2,0,.3,.05,.05,.3,.3,.55,.2,.95-.05,.25,.15,.55,.2,.85-.2,.2-.25-.1-.4-.1-.15,.35-.15,.4,.05,.6,.3,.2,.5,.4,.8,.65-.05,.05-.1,.15-.25,.4-.1-.25-.2-.35-.2-.45h-.2c-.05,.25-.2,.5,0,.7q-.3,0-.8-.2c-.05,.15-.1,.3-.2,.5-.05-.05-.1-.1-.15-.2-.2,.15-.4,.2-.6,.4,0,0,.05,.15,.1,.25-.3-.15-.5-.3-.8-.4-.15-.05-.4,0-.5,.2-.05,.1-.15,.2-.25,.35,.05-.35,.25-.6,.05-.85-.25,.05-.55,.05-.8,.05,.05,.35,.2,.65,.45,.85,0,.05-.05,.15-.1,.25Zm-9.62,29.77c.1,.25-.05,.3-.15,.35-.05,0-.05-.05-.1-.05,.1-.1,.2-.2,.25-.3Zm.3-.15c-.05-.25,.1-.35,.25-.45q0,.35-.25,.45Zm.9-36s-.1-.1-.15-.1c.05-.05,.1-.1,.15-.1,0-.05,.05,.05,.1,.05-.05,.05-.1,.15-.1,.15Zm4.19,35.95s-.05-.15-.05-.25v.3l.05-.05Zm.2-22.09v-1.3h-.05v1.3h.05Zm.2,7.98v-.5c-.05,.25-.05,.35-.05,.45,0,.05,.05,.05,.05,.05Zm.35,13.96h.05c.05,.2,.05,.3,.1,.5,.15,0,.3,0,.45,.05-.05,.2-.25,.3-.4,.35s-.35,0-.6-.05c.1-.3,.25-.6,.4-.85Zm-.05-3.24c0-.25-.05-.55-.1-.8t-.1,.05c.05,.2,.05,.5,.1,.75h.1Zm-.1-17.05h.05c.1,.05,.2,.1,.3-.1h-.3s-.05,.1-.05,.1Zm.7-15.31c-.1,0-.2,.05-.3,.05v.05c.1,0,.2-.05,.3-.05v-.05Zm-.1,35.25c.45,0,.5,.05,.45,.4-.15-.15-.3-.3-.45-.4Zm.4-20.1c.15,0,.2,0,.35-.05v-.1c-.15,.05-.25,.1-.4,.1t.05,.05Zm1.05-15.56c-.3,.05-.45,.05-.75,.1q.25,.2,.75-.1Zm.9-1v.05h-.4v-.05h.4Zm.7,6.93h.1v.4c-.05-.15-.05-.25-.1-.4Zm.35,.7l-.05-.05,.15-.15s.05,.1,.1,.1c-.1,.05-.15,.05-.2,.1Zm.3-3.94s.1,0,.15,0v-.1c-.1-.05-.15-.05-.3-.05,.1,.1,.1,.15,.15,.15Zm.55,1c.2,0,.35,.05,.55,.05-.15-.2-.3-.3-.55-.05Zm.8-4.44q-.2-.1-.3-.3c.15,.1,.2,.2,.3,.3Zm2.64,19.3c-.4,.15-.65,.05-.9-.05-.2-.05-.4-.15-.5-.2,.45,0,.9,.05,1.4,.25Z"/>
      <path class="cls-1" d="M227.18,12.95c.35,.1,.7-.15,1.05,.15,.05-.1,.15-.15,.25-.35,.2,.3,.3,.45,.5,.75,.1-.25,.15-.35,.15-.45h.05c.25,.05,.45,.05,.65,.15,.45,.25,.9,.45,1.4,.55,.15,.05,.3,.1,.3,.3,0,.05,.1,.1,.15,.15,.3,.05,.45,.25,.55,.55,.5,0,.7,.3,.8,.75,0,.05,.05,.1,.05,.1,.35,.15,.35,.55,.55,.8,.15,.25,.25,.5,.35,.75,.1,.25,.1,.5,.2,.8,.2,.5,.4,.95,.6,1.45,.35,.9,.7,1.84,1.05,2.79,.4,1.5,.65,3.04,.85,4.49,.1,.8,.1,1.7,.15,2.49,0,.6-.05,1.2-.05,1.85-.05,1.2-.15,2.34-.45,3.54-.1,.55-.2,1.1-.35,1.65-.1,.35-.15,.7-.45,1.05-.1,.1-.1,.3-.1,.45-.1,.2-.15,.4-.2,.55-.2,.5-.4,.95-.6,1.45-.1,.3-.1,.55-.2,.8-.2,.65-.4,1.25-.65,1.85-.15,.45-.4,.9-.6,1.35-.05,.25-.1,.5-.2,.75-.2,.25-.35,.55-.55,.8-.35,.55-.75,1.05-1.25,1.4-.25,.15-.55,.3-.7,.55-.3,.35-.65,.55-1.05,.7-.25,.1-.45,.15-.7,.2,.05,.05,.1,.15,.15,.2-.15,.1-.2,.15-.35,.2,.05,.1,.1,.2,.15,.35h-1.05c-.15,.45-.45,.65-.9,.6,.05,.1,.1,.15,.1,.2-.6,.1-1.15,.25-1.75,.3v-.05c.1-.15,.2-.3,.35-.4-.25-.05-.45-.05-.7,.15-.1,.2-.5,.05-.5,.4-.3,0-.55-.05-.8-.25-.1-.1-.2-.15-.3-.1-.25,0-.4-.1-.6-.25-.2-.2-.45-.4-.7-.55-.05-.05-.15-.05-.25-.05-.3,0-.55-.1-.7-.3-.35-.4-.75-.7-1.1-1.05-.15-.25-.4-.45-.45-.75,0-.2-.1-.4-.25-.55-.3-.3-.65-.45-.7-.85-.4-.25-.35-.65-.45-1-.05-.15-.05-.3-.15-.45-.25-.3-.35-.65-.45-1-.25-.75-.55-1.45-.8-2.14-.45-1.6-.85-3.29-1-4.94,0-.25,.05-.55,.05-.75,0-1.7,.05-3.29,.05-4.94,0-.4,.05-.75,.1-1.1,.05-.75,.1-1.55,.15-2.34,0-.2,.1-.5,.1-.7,.05-.5,.1-1,.1-1.5-.05-1.05,.15-2.09,.45-3.14,.15-.4,.2-.8,.45-1.1,.05,0,.05-.05,.05-.1,.1-.2,.1-.35,.2-.5,.65-1.1,1.4-2.09,2.29-2.99,.5-.5,1-1,1.5-1.4,.35-.35,.75-.5,1.1-.75,.25-.1,.4-.35,.65-.5,.15-.1,.4-.25,.55-.3,.25-.05,.4-.05,.55-.15,.3-.3,.65-.15,.95-.25,.3-.1,.65-.15,.95-.05,.1,0,.2,0,.25-.05,.4-.05,.8-.1,1.2-.1,0-.05,0-.1-.05-.15Zm-6.83,11.92v.35h.05v-.35h-.05Zm.7,6.63v-.7h-.05v.7h.05Zm7.33,8.98c.25-.75,.45-1.4,.7-2.14,.1-.35,.25-.75,.45-1.1,.5-1,.95-2.09,1.3-3.14,.1-.4,.15-.8,.15-1.25,0-.65-.05-1.3,.05-1.9,.15-.75,.15-1.45,.2-2.14,.05-.4,.05-.75,.1-1.1,.15-1-.1-1.94-.4-2.84-.4-1-.9-1.95-1.25-2.99-.1-.4-.2-.75-.3-1.15-.05-.45-.15-.8-.3-1.1-.05-.05-.15-.1-.25-.2-.05,.3-.1,.5-.15,.8-.1-.05-.25-.1-.35-.15-.1,.2-.25,.25-.35,.4-.45-.1-.65-.5-.9-.7-.4-.3-.4-.7-.45-1.1h-.5c.15,.15,.25,.25,.4,.45-.2-.05-.35-.05-.45-.1-.15-.1-.4-.15-.6-.15-.2-.05-.35,.05-.4,.15,0,.3-.25,.4-.45,.55-.45,.35-1,.7-1.45,1-.1,.1-.2,.15-.25,.2-.15,.35-.35,.6-.5,.85-.1,.25-.25,.45-.3,.65-.2,.95-.4,1.84-.5,2.74-.15,1-.15,1.99-.15,2.94,0,.1,0,.2-.05,.35-.05,.65-.15,1.35-.2,2,0,.15,0,.25,.05,.3,.05,1,.1,2-.05,2.94-.1,.35-.15,.75-.1,1.15,.15,1.05,.05,2.19,.25,3.19,.05,.1,0,.2,0,.3,.1,.5,.1,1.05,.45,1.5,0-.5-.4-.95-.25-1.5,.05,.05,.15,.1,.15,.2,.15,.3,.2,.6,.35,.9,.1,.3,.2,.5,0,.75-.1,.1-.15,.3,.05,.35,.05-.05,.15-.1,.2-.2,.1,.2,.2,.3,.3,.5-.15,.05-.25,.1-.35,.15,.55,1.2,.8,2.54,2.04,3.24,.25-.05,.4-.2,.65-.25,.45-.05,.85-.2,1.3-.4,1.2-.55,1.99-1.5,2.39-2.74,.05-.05,.05-.15,.05-.25-.1,.1-.25,.15-.45,.3,.05-.15,.1-.25,.1-.25Zm4.74-5.14c-.05,.1-.05,.2-.1,.3h.1c0-.1,.05-.15,.05-.25l-.05-.05Z"/>
      <path class="cls-1" d="M250.97,28.56c.05,.15,.1,.25,.05,.35,.1,2.64,.15,5.29,.15,8.03-.1-.15-.15-.3-.25-.45h-.1c-.05,.55-.1,1.1,0,1.65,.05,.55,.05,1.1,.15,1.65,0-.2,0-.35,.05-.55,.05-.15,.1-.35,.15-.6,.15,.25,.15,.5,.1,.7-.05,1.25-.05,2.49-.1,3.74,0,.2-.1,.45-.1,.75-.15-.1-.2-.15-.3-.2-.05,.45-.35,.9-.4,1.4,0,.2,.05,.45-.15,.65-.15,.1-.1,.4-.05,.6,.05,.1,.15,.25,.2,.35,.65-.2,1.2-.35,1.7-.55,.2,.25,.1,.3-.05,.45-.3,.15-.5,.3-.75,.5v.1c.1-.05,.15-.05,.3-.05,.05,.15,0,.3-.15,.4-.65,.45-1.2,.9-1.85,1.35-.2,.15-.35,.2-.55,.35,.2,.25,.3,.4,.4,.6-.05,.15-.15,.2-.3,.15-.15-.1-.25-.2-.35-.35-.15-.05-.25-.1-.35,.1,.05,.1,.1,.25,.2,.3t-.1,.05c-.2-.1-.45-.3-.7-.5-.1,.05-.2,.1-.35,.15,0-.2-.05-.25-.1-.4,.2-.25,.4-.3,.65-.25,.45,.15,.9,0,1.25-.45h-.35c-.4,.2-.7,.1-.95,0,.1-.4,.15-.85,.35-1.35-.4,.2-.3,.6-.6,.75-.05-.1-.15-.2-.15-.3-.05,.05-.05,.1-.05,.15,.05,.1,.05,.2,.1,.25,.25,.5,.1,.85-.5,1.05,0,0-.05,.05,0,0-.1,.25-.2,.45-.3,.65-.05,.05-.15,.05-.2,.1q-.2-.85-.85-1.2c0-.2,0-.5-.05-.75h-.05c-.05,.25-.1,.6-.2,.85-.2-.45-.05-.9,0-1.35-.15-.05-.2-.15-.35-.2,.1-.2,.15-.4,.25-.55h-.05c-.15,.1-.25,.15-.35,.3-.25,0-.4-.15-.55-.35,.35-.25,.6-.45,.9-.7-.4,.25-.6-.15-.95-.1,0-.25,0-.4,.3-.4,.15-.05,.25-.2,.35-.25,.05-.4,.05-.8,0-1.2,.35-.1,.35-.35,.35-.65,.05-.95,.15-1.89,.15-2.84,0-1.1-.05-2.19-.05-3.19-.05-2.19-.15-4.34-.2-6.48,0-.75,.05-1.55,.05-2.34,.15-1.6,0-3.24,0-4.84v-2.99c.05-.4,.05-.8,.1-1.25h-.4c-.65,0-1.35,.05-1.94,.1-.7,.05-1.4,.15-2.04,.2-.7,.1-1.45,.2-2.19,.15,0,0-.05-.05-.05-.1,.2-.2,.3-.35,.45-.55-.25-.1-.5-.2-.7-.25-.15,0-.35,.05-.5,.1q-.1-.3,.25-.55c-.05-.15-.1-.35-.1-.45,0-.15,.05-.3,.1-.45-.1,0-.15,0-.3-.05,.35-.15,.65-.3,1-.4v-.1c-.15,0-.35,0-.5,.05-.05-.2-.1-.4-.2-.65-.3-.15-.3-.2-.1-.45,.35-.25,.55-.6,1-.75-.3-.2-.85-.05-.6-.65-.2,.05-.4,.05-.55,.05,0-.05-.05-.1-.05-.1,.3-.2,.6-.5,1.05-.4,.1,.05,.2,.05,.3-.1,.15-.05,.3-.05,.4,0,.7,.05,1.5-.05,2.19-.1,.15,0,.25-.05,.4-.05,1.7-.05,3.44-.35,5.14-.6,.65-.1,1.35-.15,1.99-.2,.95-.1,1.9-.2,2.79-.3,.3-.05,.55,.05,.75,.2,.25,.1,.55,.15,.85,.2,.25,.05,.55,.1,.85,.15,.4,.05,.8,.05,1.15,.05,.25,.05,.5,.1,.75,.15,.15,0,.25,0,.3,.15,.05,.1,.2,.1,.3,.15,.2,0,.35-.05,.5,0,.1,0,.1,.05,.2,.15-.45,0-.8,0-1.15,.05v.1c.05,.05,.1,.15,.15,.15h.45c.3,0,.65,.05,.95,.05q.15,.4,.35,.5c.05,.25,.15,.5,.2,.75-.2,.4-.6,.25-.95,.25-.05,.15-.1,.3-.1,.4,.05,0,.1,.05,.1,.05,.3,0,.6,.15,.9,.05,.05-.05,.2,.1,.3,.2,.1,.05,.1,.15,.15,.25,0,.15-.05,.3-.25,.25-.2-.05-.45-.05-.65-.05-.1,.15-.15,.25-.2,.4,.65,.25,1.5-.1,2.19,.15,0,.5-.05,.5-.5,.55h-.55q.5,.15,.4,.45c-.2-.05-.45-.05-.8-.05-.1,0-.3-.05-.5,0-.65,.25-1.35,.1-1.94,.15-.6,0-1.25,.15-1.8,.1-.5,0-1-.1-1.5-.15h-1.7c-.25,0-.3,.15-.3,.35,0,.45-.1,.9-.1,1.35,0,1.25,0,2.49,.05,3.74,0,.45,.05,.85-.25,1.25-.15,.2-.15,.4-.05,.6,.1,.5,.05,1-.05,1.5,0,.45-.05,.85-.05,1.3,.15-.05,.2-.05,.25-.1Zm-12.37-10.22h.15v-.15h-.2c0,.05,.05,.1,.05,.15Zm.85-3.44c-.15-.1-.25-.2-.4-.3,.05,.3,.15,.3,.4,.3Zm.45,2.14h-.4q.2,.15,.4,0Zm.55,0s.1,.05,.15,.1c0-.05,.05-.05,.05-.1-.1,0-.15,0-.2-.05v.05Zm6.58,30.87c-.3,.05-.4,.1-.15,.4,.05-.15,.1-.25,.15-.4Zm1.25-2.04c-.25,.25-.05,.55-.05,.85h.1c.05-.3,.1-.6,.1-.85h-.15Zm1.8,1.75c-.1-.3-.35-.4-.7-.4,0,.25,.4,.25,.25,.55-.45-.15-.9-.3-.95-.95-.15,.4-.05,.65,.15,.9-.2,.15-.35,.25-.2,.4h1.65c-.05-.25-.15-.4-.2-.5Zm-.2-1.25c-.25,0-.15,.25-.25,.4q.3,0,.25-.4Zm.2-.95c-.15,.2-.25,.4-.4,.55,.1,.1,.15,.15,.35,.35,0-.4,.05-.65,.05-.9Zm.7-32.21c-.1,0-.2,.05-.3,.1,.1-.05,.25-.05,.3-.05v-.05Zm-.05,16.06v0Zm1.5,17.5c-.1,.15-.15,.25-.4,.35,.05-.35,.25-.3,.4-.35Z"/>
      <path class="cls-1" d="M271.61,12.95c.35,.1,.7-.15,1.05,.15,.05-.1,.15-.15,.25-.35,.2,.3,.3,.45,.5,.75,.1-.25,.15-.35,.15-.45h.05c.25,.05,.45,.05,.65,.15,.45,.25,.9,.45,1.4,.55,.15,.05,.3,.1,.3,.3,0,.05,.1,.1,.15,.15,.3,.05,.45,.25,.55,.55,.5,0,.7,.3,.8,.75,0,.05,.05,.1,.05,.1,.35,.15,.35,.55,.55,.8,.15,.25,.25,.5,.35,.75,.1,.25,.1,.5,.2,.8,.2,.5,.4,.95,.6,1.45,.35,.9,.7,1.84,1.05,2.79,.4,1.5,.65,3.04,.85,4.49,.1,.8,.1,1.7,.15,2.49,0,.6-.05,1.2-.05,1.85-.05,1.2-.15,2.34-.45,3.54-.1,.55-.2,1.1-.35,1.65-.1,.35-.15,.7-.45,1.05-.1,.1-.1,.3-.1,.45-.1,.2-.15,.4-.2,.55-.2,.5-.4,.95-.6,1.45-.1,.3-.1,.55-.2,.8-.2,.65-.4,1.25-.65,1.85-.15,.45-.4,.9-.6,1.35-.05,.25-.1,.5-.2,.75-.2,.25-.35,.55-.55,.8-.35,.55-.75,1.05-1.25,1.4-.25,.15-.55,.3-.7,.55-.3,.35-.65,.55-1.05,.7-.25,.1-.45,.15-.7,.2,.05,.05,.1,.15,.15,.2-.15,.1-.2,.15-.35,.2,.05,.1,.1,.2,.15,.35h-1.05c-.15,.45-.45,.65-.9,.6,.05,.1,.1,.15,.1,.2-.6,.1-1.15,.25-1.75,.3v-.05c.1-.15,.2-.3,.35-.4-.25-.05-.45-.05-.7,.15-.1,.2-.5,.05-.5,.4-.3,0-.55-.05-.8-.25-.1-.1-.2-.15-.3-.1-.25,0-.4-.1-.6-.25-.2-.2-.45-.4-.7-.55-.05-.05-.15-.05-.25-.05-.3,0-.55-.1-.7-.3-.35-.4-.75-.7-1.1-1.05-.15-.25-.4-.45-.45-.75,0-.2-.1-.4-.25-.55-.3-.3-.65-.45-.7-.85-.4-.25-.35-.65-.45-1-.05-.15-.05-.3-.15-.45-.25-.3-.35-.65-.45-1-.25-.75-.55-1.45-.8-2.14-.45-1.6-.85-3.29-1-4.94,0-.25,.05-.55,.05-.75,0-1.7,.05-3.29,.05-4.94,0-.4,.05-.75,.1-1.1,.05-.75,.1-1.55,.15-2.34,0-.2,.1-.5,.1-.7,.05-.5,.1-1,.1-1.5-.05-1.05,.15-2.09,.45-3.14,.15-.4,.2-.8,.45-1.1,.05,0,.05-.05,.05-.1,.1-.2,.1-.35,.2-.5,.65-1.1,1.4-2.09,2.29-2.99,.5-.5,1-1,1.5-1.4,.35-.35,.75-.5,1.1-.75,.25-.1,.4-.35,.65-.5,.15-.1,.4-.25,.55-.3,.25-.05,.4-.05,.55-.15,.3-.3,.65-.15,.95-.25s.65-.15,.95-.05c.1,0,.2,0,.25-.05,.4-.05,.8-.1,1.2-.1,0-.05,0-.1-.05-.15Zm-6.83,11.92v.35h.05v-.35h-.05Zm.7,6.63v-.7h-.05v.7h.05Zm7.33,8.98c.25-.75,.45-1.4,.7-2.14,.1-.35,.25-.75,.45-1.1,.5-1,.95-2.09,1.3-3.14,.1-.4,.15-.8,.15-1.25,0-.65-.05-1.3,.05-1.9,.15-.75,.15-1.45,.2-2.14,.05-.4,.05-.75,.1-1.1,.15-1-.1-1.94-.4-2.84-.4-1-.9-1.95-1.25-2.99-.1-.4-.2-.75-.3-1.15-.05-.45-.15-.8-.3-1.1-.05-.05-.15-.1-.25-.2-.05,.3-.1,.5-.15,.8-.1-.05-.25-.1-.35-.15-.1,.2-.25,.25-.35,.4-.45-.1-.65-.5-.9-.7-.4-.3-.4-.7-.45-1.1h-.5c.15,.15,.25,.25,.4,.45-.2-.05-.35-.05-.45-.1-.15-.1-.4-.15-.6-.15-.2-.05-.35,.05-.4,.15,0,.3-.25,.4-.45,.55-.45,.35-1,.7-1.45,1-.1,.1-.2,.15-.25,.2-.15,.35-.35,.6-.5,.85-.1,.25-.25,.45-.3,.65-.2,.95-.4,1.84-.5,2.74-.15,1-.15,1.99-.15,2.94,0,.1,0,.2-.05,.35-.05,.65-.15,1.35-.2,2,0,.15,0,.25,.05,.3,.05,1,.1,2-.05,2.94-.1,.35-.15,.75-.1,1.15,.15,1.05,.05,2.19,.25,3.19,.05,.1,0,.2,0,.3,.1,.5,.1,1.05,.45,1.5,0-.5-.4-.95-.25-1.5,.05,.05,.15,.1,.15,.2,.15,.3,.2,.6,.35,.9,.1,.3,.2,.5,0,.75-.1,.1-.15,.3,.05,.35,.05-.05,.15-.1,.2-.2,.1,.2,.2,.3,.3,.5-.15,.05-.25,.1-.35,.15,.55,1.2,.8,2.54,2.04,3.24,.25-.05,.4-.2,.65-.25,.45-.05,.85-.2,1.3-.4,1.2-.55,1.99-1.5,2.39-2.74,.05-.05,.05-.15,.05-.25-.1,.1-.25,.15-.45,.3,.05-.15,.1-.25,.1-.25Zm4.74-5.14c-.05,.1-.05,.2-.1,.3h.1c0-.1,.05-.15,.05-.25l-.05-.05Z"/>
      <path class="cls-1" d="M301.69,36.19s.2,.1,.35,.25c-.4,.05-.4,.3-.4,.55-.15,1.3-.25,2.59-.4,3.84-.15,1.1-.4,2.24-.75,3.29-.2,.6-.55,1.25-.85,1.75-.25,.5-.55,1-.9,1.4-.45,.5-.8,1.1-1.45,1.4-.05,0-.15,.1-.15,.15-.2,.4-.55,.6-.9,.8-.15,.2-.45,.2-.45,.5-.05,.15-.35,.25-.5,.3-.5,.2-1.05,.4-1.6,.5-.4,.15-.8,.3-1.25,.2-.2-.05-.35,.05-.5,.05-.5-.15-1-.25-1.5-.35-.05-.05-.15-.15-.2-.25-.15-.15-.3-.2-.45-.1-.1,.05-.2,.1-.25,.05-.2-.15-.5-.15-.7-.35-.2-.25-.55-.25-.7-.5-.25-.35-.65-.65-.9-1.1-.45-.6-.95-1.15-1.4-1.8-.45-.55-.85-1.15-1.1-1.79-.05-.2-.15-.35-.2-.45-.05-.2-.25-.4,0-.55,0-.05-.05-.2-.05-.2-.25-.15-.25-.35-.3-.55-.4-1.15-.65-2.29-.85-3.54-.1-.55-.15-1.1-.15-1.65-.05-1.25-.1-2.49-.1-3.79,0-1.8,.05-3.64,.1-5.44,.05-.9,.15-1.85,.3-2.74,.1-.65,.25-1.2,.35-1.79,.35-2.64,1.4-5.09,2.59-7.53,.3-.5,.55-.95,.8-1.4,.15-.25,.35-.45,.5-.55,.2-.15,.1-.35,.3-.5,.15-.2,.4-.35,.6-.5-.05-.1-.05-.2-.1-.25,.05,0,.05-.05,.1-.05,.4-.25,.9-.35,1.2-.75,.1-.1,.2-.1,.3-.15,.65-.25,1.2-.45,1.8-.65,.15-.05,.3-.1,.45-.1,.25,0,.4,.05,.7,.05-.05,.1-.05,.2-.1,.3,.7-.1,1.35-.05,1.94,.25,.3,.2,.7,.2,.95,.35,.5,.2,.95,.4,1.35,.7,.35,.15,.7,.4,1,.55,.25,.2,.5,.4,.7,.6,.15,.15,.2,.3,.3,.45,.15,.25,.35,.4,.55,.65,.15,.3,.4,.55,.5,.85,.3,.75,.8,1.45,.75,2.29,0,.05,.05,.05,.05,.1,.1,.25,.15,.45,.2,.7,.15,.7,.3,1.4,.35,2.09,.05,.35,0,.75,0,1.1-.05,0-.1,.05-.2,.05,0,.05,0,.1,.05,.2,.15,.3,.15,.65,0,.95-.15,.25-.15,.45,0,.7,.15,.15,.1,.35-.1,.5-.25,.25-.45,.55-.35,.95-.25,.2-.35-.1-.5-.1-.15-.25-.25-.5-.45-.85-.1,.4-.2,.75-.25,1.05-.05-.05-.15-.1-.2-.15-.15,.1-.3,.25-.45,.3-.2,.05-.35,0-.55,0,.05-.05,.05-.1,.1-.25-.25,.1-.35,.2-.55,.3-.2-.15-.55-.25-.65-.6-.15,.1-.3,.15-.45,.2-.05-.2-.15-.4-.2-.55-.2-.05-.3,.1-.25,.25,0,.15,.05,.3,.1,.4,.05,.25-.05,.3-.25,.3-.3-.55-.6-1.05-.65-1.75-.3,.35-.05,.7-.2,.95-.05,0-.1-.05-.1-.05,0-.45,0-.9,.05-1.35,0-.25,.1-.5,.3-.7,.1-.1,.15-.25,.2-.35,.05-.25,.05-.45,.05-.65,0-.65,.05-1.35-.2-2-.1-.35-.15-.65-.25-.95-.35-.8-.8-1.5-1.7-1.75-.3-.1-.55-.2-.9-.3-.3-.1-.5,0-.7,.25-.2,.3-.45,.6-.65,.95-.15,.15-.3,.35-.4,.55-.15,.7-.5,1.35-.85,2.04-.05,.15-.1,.3-.2,.5-.1,.2-.2,.4-.5,.4,.2,.4,.15,.75,0,1.1-.5,1.89-.8,3.79-.9,5.68-.1,.95-.05,1.9-.1,2.84,0,.6,0,1.2-.2,1.84-.05-.15-.1-.25-.15-.4-.05,.05-.1,.05-.1,.05-.05,.25-.05,.4-.05,.65,0,.75,.1,1.45,.1,2.24,.05,.1,.05,.2,.15,.35,.05-.15,.05-.25,.1-.5,.05,.15,.1,.25,.1,.3,0,1,.15,2,.3,2.99,.1,.5,.25,.95,.3,1.45,.05,.2,0,.45,.05,.75,0,.2,.05,.45,.1,.6,.2,.3,.45,.55,.6,.85,.1,.2,.25,.45,.3,.65,.1,.35,.3,.65,.55,.85,.35,.3,.6,.55,.9,.8,.5,.3,.8,.25,1.2-.2,.05-.1,.15-.2,.3-.25,.55-.3,.9-.75,1.15-1.3,.55-.95,.85-1.99,1.05-3.14,.15-.55,.3-1.15,.5-1.75,.2-.65,.25-1.35,.2-2.04-.5-.05-1.05-.1-1.7-.15,.1-.15,.2-.15,.3-.25-.45,.05-.85,.1-1.3,.1v-.1c.6-.2,1.2-.3,1.84-.3-.8-.15-1.5-.05-2.24-.05,.1-.1,.2-.1,.3-.2-.2-.05-.35-.05-.4-.1,.05-.4-.25-.65-.35-1.05,.2-.1,.45-.2,.75-.3,0-.1-.05-.15-.1-.2,.05-.05,.1-.1,.2-.2h-.5v-.2c-.5,0-.9,.4-1.35,.25,.15-.15,.35-.3,.55-.55,.1,0,.35,0,.5,.05,.45,.15,.85,.15,1.15-.4-.25-.15-.35-.15-.65-.1-.35,.05-.75,.2-1.15,.05-.3-.1-.6-.1-.85-.15-.15-.05-.4,0-.4-.3,.15-.05,.3-.05,.4-.15,.1-.05,.35-.05,.35-.3,0-.05,.15-.15,.15-.15,.45-.1,.9-.25,1.3-.3,1-.2,2.04-.25,3.09-.4,.1,0,.25-.05,.35-.15,.15-.1,.25-.1,.45-.05q.5,.2,.9-.2c.45,.3,.95,.15,1.5,.15,0-.25-.15-.5,.1-.65,.25,.1,.4,.2,.6,.2,.25,.05,.45,.1,.55,.4,0,.05,.1,.05,.1,.05,.35-.05,.45,.25,.5,.45,.15,.3,.5,.45,.5,.9-.05,0-.2,.1-.35,.25-.1-.15-.15-.25-.2-.3h-.05c.05,.1,.05,.25,.1,.3,.5,.45,.45,1.15,.9,1.55-.1,.3-.2,.5-.3,.8h.3c-.1,.2-.3,.35-.45,.55,.1-.15,.15-.3,0-.4,0,.15,0,.25,.05,.4v.65Zm-9.52-1.4c.1-.05,.25-.1,.25,.05,.05,.1-.1,.2-.2,.2-.05,0-.2-.05-.3-.05v-.1c.1-.05,.2-.1,.25-.1Zm4.09-3.64h-.15s0-.1-.05-.15c.05-.05,.1-.05,.15-.05,0,.1,.05,.1,.05,.2Zm.45,14.61c.05-.1,.1-.2,.15-.3l-.05-.05c-.1,.1-.1,.2-.15,.25t.05,.1Zm2.09-14.86c-.05-.25-.1-.4-.2-.7,.45,.25,.45,.4,.2,.7Zm2.84-5.33v.05s-.1,.05-.15,.05h-.05c.1-.05,.15-.1,.2-.1Zm.25,6.83h.1c.1,0,.15,.1,.1,.35-.1-.2-.15-.3-.2-.35Zm.4,2.54c.15,.3,.15,.35-.2,.35,.1-.15,.15-.2,.2-.35Z"/>
      <path class="cls-1" d="M304.78,50.25c-.3-.35-.3-.65,.05-1.05,0,.35-.05,.7-.05,1.05Zm4.09-37.05c.15-.3,.45-.3,.7-.45,.25-.1,.55-.15,.8-.25,.2-.05,.4-.05,.6-.05,.3,0,.6,.1,.9,.1,.65,.05,1.25,.05,1.84,.1,.05,0,.1,0,.15-.05-.7-.15-1.35-.2-2.04-.45,.05-.05,.15-.1,.2-.05,1.05,.05,2.14,0,3.19,.3,.8,.25,1.55,.6,2.14,1.25,.1,.1,.25,.15,.35,.25,.2,.1,.5,.25,.65,.45,.45,.55,.95,1.15,1.25,1.89,.3,.7,.7,1.35,1.1,2,.5,.8,.8,1.65,.85,2.59,0,.25,.05,.4,.15,.6,.25,.35,.25,.7,.2,1.1v.45c.1,1.3-.25,2.44-.7,3.64-.2,.65-.4,1.3-.8,1.84-.1,.1-.15,.2-.15,.35-.15,.6-.5,1.2-.95,1.65-.5,.6-.85,1.3-1.4,1.84-.05,.05-.15,.15-.1,.25,.1,.6,.15,1.2,.25,1.75,.05,.05,.05,.1,.15,.2-.05-.3-.05-.55-.1-.8t.1-.05c.05,.1,.15,.1,.15,.2,.15,.55,.3,1.1,.45,1.65,.35,.95,.7,1.95,.95,2.94,.35,1,.65,2.04,.95,3.04,0,.1,.1,.25,.2,.35,.15,.45,.35,.9,.15,1.4-.05-.1-.1-.25-.15-.35h-.1c0,.2-.05,.4,.05,.55,.2,.4,.15,.8,.2,1.2,.05-.5,.1-1,.15-1.45h.1c.05,.1,.05,.2,.05,.35,.05,.4,.05,.85,.05,1.25,0,.35-.05,.65-.1,1.05,0,.1-.15,.15-.25-.05-.15,.45-.25,.85-.4,1.25-.05,.2-.05,.45-.1,.65,0,.1-.2,.15-.25,.25-.05,.15-.1,.35-.15,.6-.25-.3,0-.6-.15-.85-.45,.25-.5,.45-.45,.9,.05,.2,.05,.45,.1,.55-.15,.1-.25,.1-.4,.15,.05-.45,.15-.95,.25-1.55-.6,.75-.65,1.65-1.1,2.29-.2,0-.2-.1-.2-.25-.05-.25,0-.45,0-.7,0-.1-.05-.25-.1-.4-.3,.05-.45,.3-.5,.55-.05,.25-.1,.45-.15,.65-.15-.05-.35-.1-.5-.15v-.9c-.35,.2-.2,.45-.35,.65-.05,.25-.2,.45-.3,.7-.1,.25-.15,.5-.2,.7-.4-.05-.45-.3-.25-1.4-.1,.05-.2,.15-.25,.25-.05-.05-.15-.05-.15-.1-.05-.15-.1-.25-.1-.4,.05-.25,.05-.5,.1-.7,.15-.55,0-1.15,.1-1.7,.15-1.3-.05-2.54-.4-3.79-.55-1.9-1.1-3.84-1.75-5.69-.05-.3-.15-.55-.25-.9-.05,0-.1,0-.1-.05-.3,0-.55,.3-.9,.05,.25-.05,.4-.15,.6-.25-.5,.15-1-.05-1.45,0-.15,0-.35,.05-.55,.1,0,.25,.05,.55,.05,.8,0,.6,0,1.15-.05,1.75v1.35c-.05,.7-.05,1.3-.05,2-.05,.15,0,.45-.3,.55-.05,.25-.15,.5-.15,.8-.1,.4-.1,.85-.1,1.3,0,.15,.1,.25,.1,.5-.45,.45-.35,1.05-.3,1.65,0,.25,.15,.3,.4,.3,.35,0,.35,.05,.35,.4,0,.3-.1,.5-.45,.6,0-.2,0-.4-.2-.55q-.4,.25-.25,.7c0,.2,0,.45,.3,.6,.15,0,.15,.35,.15,.5-.1,.3-.25,.5-.4,.85-.15-.35-.3-.6-.5-.95,0,.15-.05,.3-.05,.45-.05,.3-.1,.55-.5,.55-.05,.2-.05,.3-.05,.4-.25,.1-.4,.15-.6,.25-.15-.05-.2-.1-.3-.2-.05,.1-.1,.2-.1,.3h-.05v-.4c.15-.05,.2-.1,.3-.15v-.1c-.25-.35-.3-.7-.25-1.1,.05-.35,.1-.7-.05-1.05-.15,0-.3,.05-.5,.1,.1,.1,.25,.2,.35,.35-.45,.3-.55,.8-.35,1.4-.3,0-.45-.2-.55-.45,.05,0,.15-.05,.3-.05-.05-.4-.45-.25-.65-.45,.3-.2,.25-.45,.2-.65-.2-.15-.3-.25-.45-.4-.05,.1-.1,.2-.1,.3v.5c0,.35,.1,.7-.2,.9-.1,.1-.1,.3-.15,.45-.7-.75-.75-1.6-.75-2.54,0-.7-.05-1.45-.05-2.14,0-.3,0-.65,.05-1,.05-1.95,.15-3.84,.25-5.74,.1-1.5,.15-2.94,.2-4.44,0-1.25-.1-2.54-.15-3.79-.05-1.99-.05-3.99-.05-5.98-.05-.85-.05-1.7-.05-2.49,.05-1.05,.15-2.09,.25-3.19,.2-1.1,.4-2.24,.4-3.39,0-.45,.15-.95,.25-1.4,.05-.15,.2-.25,.25-.45,.1,.1,.2,.15,.2,.2-.05,.3-.1,.55-.2,.85-.05,.3-.1,.6-.15,.95,.25-.15,.15-.45,.25-.6,.15-.2,.2-.35,.3-.55,.05,0,.15,0,.25,.05,0-.1,0-.25-.05-.25-.15-.4-.15-.45,.15-.85-.05,.5,.3,.5,.55,.65,.25-.15,0-.3,0-.4,.2-.05,.45-.15,.65-.2,.35,.2,.55,.15,.85-.25,.8-.15,1.2-.3,1.55-.6-.3,.05-.55,.1-.75,.2-.3,.05-.6,.15-.8,.4-.05-.05-.1-.15-.15-.2Zm-3.74,37.1h.05v.2h-.05v-.2Zm3.34-1.85c-.1-.4,.15-.85-.2-1.3-.15,.55-.05,1.05,.2,1.3Zm1.45,2.54c-.15,0-.25,.05-.35,0-.15-.05-.25-.2-.35-.05-.05,.1,0,.25,0,.45-.1,0-.25,.05-.35,.05q.05-.35,.6-1.2c.2,.25,.3,.5,.45,.75Zm-.4-2.89c.05-.3-.05-.5-.15-.8-.2,.3-.2,.35,.15,.8Zm1.2-1.25c-.2-.05-.4-.1-.6-.15,.05-.15,.15-.35,.2-.5q.55,.25,.4,.65Zm-.25-33.76c-.1,.05-.15,.05-.2,.05v.15c.1,0,.15-.05,.25-.05-.05-.05-.05-.1-.05-.15Zm.05,14.56c0-.35-.05-.75,0-1.1,0-.4,.1-.75,.1-1.15,.2,1,.2,1.95,.2,2.94,0,.75,.05,1.5,.15,2.24l.1,.1c.3-.2,.65-.45,.95-.65,1.45-1.35,2.74-2.84,3.49-4.69,.5-1.25,.6-2.44,.2-3.74-.25-.9-.65-1.7-1.1-2.49-.15-.2-.3-.4-.5-.55-.45-.35-.95-.55-1.5-.5-.35,0-.7,.15-1.05,.25-.3,.1-.4,.25-.4,.55-.1,.55-.2,1.15-.3,1.75-.05,.25,0,.55-.3,.7-.05,0-.05,.15-.05,.2-.05,.45-.1,.85-.15,1.3v1.35c0,.15,0,.3,.05,.45,0,.2,.1,.5,.05,.75-.2,.75,0,1.55-.05,2.29h.1Zm-.05,12.52v-.3h-.05v.3h.05Zm.1-10.17v-.7s-.05,0-.05,.05v.65h.05Zm0,7.23v-.65h-.05v.65h.05Zm.05-1.65c.15-.05,.3-.05,.55-.05q-.45-.25-.55,.05Zm1.35-17.55h0Zm2.44-5.39c.25,.05,.35,.35,.75,.15-.3-.1-.45-.2-.75-.15Zm.95,37.35q.2,.05,.1,.35c-.05-.15-.05-.25-.1-.35Zm.1-37h.2v-.05s-.1-.05-.15-.05-.05,.05-.05,.1Zm2,1.1s0-.05,.05-.1c-.1-.05-.25-.25-.5-.2-.1-.25-.35-.4-.6-.45,0,0-.05,.05-.05,.1,.2,.1,.45,.2,.65,.35,.15,.1,.35,.2,.45,.3Zm-1-.1c.1,.05,.15,.15,.2,.2l.1-.1c-.1-.05-.15-.1-.2-.2,0,.05-.05,.1-.1,.1Zm.75,19c.2,.3,.25,.6,.35,.8,0-.5-.05-.55-.35-.8Zm1,1.84c.1,.2,.15,.4,.2,.6h.05c-.05-.25-.1-.4-.15-.65,0,0-.05,0-.1,.05Zm.3-3.84s-.15,.1-.15,.15v.1c.05-.1,.15-.2,.2-.2,0-.05-.05-.05-.05-.05Zm-.1,17.1h-.05v.25c0-.1,0-.2,.05-.25Zm.4-23.44c-.05,.15-.1,.4-.15,.55-.05,.1-.1,.25-.15,.35,.05,0,.1,0,.15,.05v-.4c.15-.15,.15-.35,.15-.55Zm.2,12.32v-.15s-.05-.1-.1-.15h-.05c.05,.1,.05,.2,.1,.3h.05Zm.55,10.32c.15-.2,0-.4-.1-.55v.55h.1Zm.05-30.32c.05,.1,.1,.15,.1,.25,0-.05,.05-.05,.1-.05-.1-.05-.1-.15-.15-.25,0,0-.05,0-.05,.05Zm.5,.95c.05,.15,.2,.4,.3,.55,0-.2-.05-.45-.25-.6l-.05,.05Zm.1,23.39s.05,.1,.05,.15h.05v-.15h-.1Zm.25,.35c-.15,.45,.15,.7,.35,1.05,.05-.45-.2-.75-.35-1.05Zm.15-22.79s.05,.15,.1,.2h.05c-.05-.1-.1-.15-.15-.25v.05Zm.55,2.09c.05,.2,.1,.3,.15,.5,0,0,.05-.05,.1-.05-.05-.15-.1-.3-.15-.45h-.1Zm.3,2.79c-.05,.1-.1,.15-.2,.35,.3-.1,.25-.2,.2-.35Z"/>
      <path class="cls-1" d="M344.08,28.36h.05c.15,.8,.4,1.6,.55,2.44,.1,.65,.15,1.3,.25,2,.1,.65,.15,1.3,.35,1.89,.2,.85,.25,1.75,.3,2.59,0,.1,.05,.3,0,.5,0,.15,0,.35-.05,.65,.05,0,.15,.15,.15,.25,.35,1.4,.6,2.84,.6,4.34,0,.25-.05,.55-.35,.6-.05,.75-.1,1.4-.15,2.14-.25,.1-.25,.3-.15,.55,.1,.25,.1,.45,.15,.7t-.1,.05c-.1-.3-.15-.65-.2-.95-.1-.3-.15-.65-.2-1-.15,.05-.25,.05-.4,.1v.25c.1-.05,.15-.05,.15-.05t.05,.05c.05,.35,.05,.7,.15,1,.05,.4,0,.5-.4,.45h-.15s-.05,.05-.05,.1c.15,.1,.35,.2,.35,.4,0,.25-.05,.4-.05,.65-.05,0-.1,.05-.1,.05-.1-.15-.2-.3-.25-.45-.2,.1-.35,.2-.5,.3-.15-.3-.3-.65-.4-.95-.15,.1-.25,.15-.35,.2,.05,.6,.05,1.25,.1,1.79h-.15c-.2-.3-.35-.55-.3-.9,.05-.4-.2-.7-.35-1-.25,.35-.15,.75-.2,1.2-.05-.15-.15-.2-.25-.3-.1,.3-.2,.55-.3,.9,0,0-.1,0-.2,.1-.05,0-.1,.1-.15,.2-.2-.15-.35-.35-.25-.65,0,0,0-.1-.05-.15-.35-.75-.3-1.6-.45-2.34-.05-.35-.1-.65-.15-1,0-.1,.05-.15,.05-.3-.05-.25,0-.45-.1-.65-.1-.25,0-.45,0-.65-.05-.7-.15-1.3-.2-1.99-.15-1.15-.25-2.34-.45-3.54-.1-.6-.2-1.25-.25-1.94-.15-.55-.25-1.2-.35-1.79-.05-.15-.05-.3-.1-.5-.2,.05-.4,.05-.55,.05-1.1,.3-2.14,.6-3.14,.9-.9,.25-1.84,.4-2.74,.45-.6,0-.7,.1-.75,.7-.15,1-.3,1.99-.45,2.99v.05c-.25,.75-.15,1.6-.3,2.34-.2,1-.45,2-.75,2.94-.2,.45-.3,.95-.45,1.4,0,.05,0,.15,.05,.25,.35-.25,.5-.65,.8-.9,.2,.45-.2,.75-.15,1.2,.3,0,.3-.3,.5-.45-.05,.1-.05,.2-.05,.25-.1,.35-.3,.6-.25,.95,.05,.2-.15,.4-.25,.6-.05-.15-.15-.2-.25-.4-.1,.3-.15,.55-.25,.75,.1,0,.15,.05,.25,.1-.1,.25-.15,.55-.25,.85,.3,.1,.4-.2,.7-.2-.25,.2-.4,.4-.6,.55-.4,.4-.75,.8-1,1.3-.15,.4-.45,.75-.75,1.05-.15,.2-.35,.3-.6,.4-.05-.05-.2-.15-.4-.3-.25,.2-.5,.35-.8,.55-.1,.05-.2,.05-.3,0-.1,0-.15-.1-.25-.2,.1-.35-.3-.55-.4-1-.15,.3-.35,.4-.4,.6-.15,.25,.1,.2,.3,.2-.05,.05-.1,.15-.1,.25-.7-.1-.65-.65-.7-1.1-.25,.1-.15,.35-.3,.45q-.25-.1-.3-1.5-.4-.1-.35-.45v-.3c-.05-.15-.1-.15-.25-.1v.05c.3-.25,.25-.55,.3-.85q-.1-.05-.25-.05c.05-.2,.1-.4,.1-.6-.1,.1-.25,.15-.35,.2,.1-.2,.2-.4,.35-.5,.05-.2,.2-.4,.35-.55-.2-.05-.3-.1-.4-.15,0-.15,0-.3,.15-.4,.1-.05,.2-.2,.25-.25s.05-.1,.05-.2c.15-.75,.35-1.55,.55-2.39,.2-.6,.4-1.25,.5-1.85,.4-1.6,.5-3.19,.75-4.79,.1-.8,.3-1.6,.45-2.39,.1-1,.25-1.95,.4-2.94,.05-.2,.15-.5,.15-.7,.05-.25,.1-.45,.15-.65,.05-.3,.15-.6,.2-.9,.2-.95,.35-1.94,.55-2.89,.7-3.09,1.3-6.18,2.19-9.17,.25-.9,.4-1.84,.65-2.74,.2-.65,.45-1.3,.75-1.99,0-.05,.05-.1,.15-.3,.05,.2,.1,.3,.05,.35-.1,.35-.2,.6-.25,.9-.1,.25-.15,.5-.15,.75,.25-.35,.45-.75,.55-1.1,.1-.2,.2-.4,.1-.65-.05-.1,.05-.35,.15-.4,.3-.2,.55-.4,.8-.6,.15,.4,0,.75-.1,1.1,.45-.2,.65-.75,1.25-.6,0,.1,.05,.2,.1,.35,.05,.1,.1,.15,.15,.2,.2,0,.35-.1,.4,.1,.1,0,.2-.05,.3-.1,.05,.2,.1,.4,.1,.55,.3-.1,.2-.2,.15-.35-.05-.2-.05-.35,.25-.5,.05,.35,.15,.75,.25,1.1h.1c0-.15,.05-.25,.05-.35q.35-.05,.55,.4,.35,.05,.45-.15c.2,.25,.45,.4,.8,.25,0,.15,0,.25,.1,.3,0,.1,.15,.2,.2,.15,.35-.05,.65,.15,1,.15-.1,.15-.15,.25-.2,.35,.25,.05,.5,.1,.75,.2h.05s-.1,.05-.1,.05c.5,.1,.95,.1,1.45,.15,.45,.05,.65,.4,1,.75h-.5c0,.1,0,.2,.05,.35-.2,0-.4,.05-.6,.05,.1,.2,.25,.3,.5,.15,.05-.05,.2-.15,.3-.2,.2-.15,.4-.15,.5,0,.1,.2-.05,.25-.2,.35-.05,.05-.1,.05-.1,.05,.15,.2,.2,.25,.3,.4,.05,.1,.1,.25,.15,.3q-.2,.4,.1,.75c.15,.15,.25,.35,.4,.6,0,.3-.4,.1-.55,.35,.05,.1,.1,.1,.25,.2-.25,.15-.25,.35-.25,.6,0,.2-.05,.4-.05,.65,.05,.35,.1,.75,.2,1.1,.1,.45,.2,.9,.35,1.3-.05-.3-.05-.65-.1-1.05,.4,.45,.9,2.59,.9,3.54-.05-.1-.1-.2-.15-.3-.05,.05-.1,.05-.1,.05-.05,.4-.15,.85-.05,1.3,.2,1.3,.45,2.64,.75,3.94,.05,.1,.05,.2,.1,.3v.6h.1c-.05-.2-.05-.4-.1-.6-.05-.55-.1-1.15-.15-1.65Zm-18.85,21.14c0,.15,0,.25-.05,.35,.15-.1,.2-.25,.05-.35Zm1.45,1.84c.1,.15,.2,.25,.35,.4,.05-.25,.1-.45,.15-.65-.15,.1-.3,.15-.5,.25Zm1.79-2.34c-.3-.05-.45,0-.5,.15-.1,.25-.35,.45,0,.75,.15-.3,.35-.55,.5-.9Zm1.4-1.2c-.05,.15-.1,.3-.15,.4q.35-.15,.15-.4Zm.85-26.38c.05-.15,.1-.25,.1-.45h-.05c-.05,.15-.05,.3-.1,.45h.05Zm.45,17.8c-.2,.65-.15,1.25-.2,1.84,.25-.7,.3-1.45,.2-1.84Zm0-.75v0Zm2-10.62l-.15,.75c.1-.1,.15-.2,.15-.25,.05-.15,.05-.35,.05-.45l-.05-.05Zm5.34,.4c-.15-1.25-.3-2.44-.6-3.59-.35-1.6-.75-3.14-.9-4.74-.05-.3-.4-.55-.7-.5-.3,.1-.6,.15-.95,.25,.05,.1,.1,.15,.25,.4-.3-.2-.4-.25-.6-.35,.1,.6,.05,1.2-.2,1.8-.45,1.35-.65,2.74-.9,4.14-.15,.9-.25,1.79-.55,2.69-.15,.3-.15,.6,.05,.9,.2,0,.45-.1,.6-.15,.8-.25,1.65-.5,2.44-.75,.3-.05,.65-.15,1-.25,.2-.05,.35-.05,.5,.05-.2,.15-.35,.2-.5,.25,.35,.05,.7,.2,1-.05,0,0,.05-.05,.05-.1Zm-1.45-15.86l.1,.1c-.05,.1-.1,.15-.15,.15h-.05s.05-.15,.1-.25Zm2.89,1.9s-.05-.05-.05-.05c.05-.1,.1-.2,.15-.2,.3-.05,.6-.05,.95,.05v.1c-.4,.05-.75,.1-1.05,.1Zm2.59,5.43c.25,.3,.3,.7,.3,1.05,0,0-.05,0-.1,.05-.05-.4-.1-.75-.2-1.1Zm.75,28.42l-.05-.05q-.05,.05-.1,.1s.05,.05,.1,.05c0,0,.05-.05,.05-.1Zm.45-22.34h.1c.2,.45,.25,.9,.15,1.4-.05-.05-.1-.05-.15-.05-.05-.45-.1-.9-.1-1.35Zm.5,9.52v.55h.05v-.55h-.05Zm.25,11.87c-.05-.4-.05-.7-.1-1.05-.2,.3-.2,.65,.1,1.05Zm.9-8.33c.05,.15,.1,.3,.1,.5t.05-.05c0-.15-.05-.3-.1-.45h-.05Zm.45,2.14v-.35h-.1c.05,.15,.05,.25,.05,.35h.05Z"/>
      <path class="cls-1" d="M350.26,49.4c-.1,.2-.05,.5-.1,.8-.55-.2-.25-.65-.4-.95-.15,.1-.2,.15-.25,.2-.2,0-.4-.35-.4-.45,0-.15,.05-.25,.1-.35v-.3c-.1,0-.1,.05-.15,.05-.3,.05-.4-.1-.35-.3,0-.1,.05-.2,.1-.3,0-.05,.05-.15,.05-.25-.2,.1-.3,.1-.5,.2,.1-.35,.25-.6,.55-.8,.2-.1,.2-.2,.2-.4,0-.35,0-.7-.05-1.1,0-.55-.05-1.1-.1-1.65-.05-1.9-.1-3.74-.15-5.58-.1-2.44-.2-4.94-.3-7.33,0-.65-.05-1.25-.1-1.94,0-.65,.05-1.35,.05-1.95,0-.4,.05-.75,0-1.05-.1-1.35,0-2.69,.1-3.99,.1-1.4,.2-2.79,.35-4.19,.05-.3,.1-.65,.15-.95,0-.2,0-.4-.25-.55q0-.3-.4-.4v-.1s.05-.05,.05-.1c.2,.05,.35,.05,.5,.1,.1-.25,.15-.45,.25-.55,.15-.15,.2-.3,.2-.45q-.05-.7,.5-.85c-.1-.2-.2-.4-.3-.5,.2-.2,.3-.3,.4-.4,.25-.3,.35-.3,.65-.05,.25,.2,.5,.25,1.15,.1-.05-.1-.05-.25-.1-.4h.1c.4,.3,.75,.4,1.2,.35,.75-.05,1.5-.05,2.34-.1,.1,0,.25-.05,.4-.1h-1.05v-.15c.05-.05,.15-.05,.25-.1s.25-.05,.4-.05c.95,.05,1.75-.4,2.64-.45,.15-.05,.3-.2,.5-.25,.1-.05,.3-.05,.5-.05,.25,.35-.3,.2-.25,.4,.1,.15,.15,.3,.25,.45,.2,0,.45-.25,.75,.05-.15,.05-.2,.05-.3,.1,0,.15,.05,.2,.2,.2,.3,.05,.65,.1,.9,.1,.5,.05,.95,.25,1.3,.55,.2,.15,.3,.35,.45,.6-.15,.1-.15,.15-.25,.2,.6,.6,1.05,1.3,1.2,2.14-.4,.1-.75,.1-1.1-.2,.05,.3,.1,.6,.15,.9,.1,0,.2-.1,.35-.15,.1,.15,.15,.3,.3,.45-.1,.1-.25,.2-.3,.35-.05,.1-.1,.2-.15,.4,.15-.05,.25-.1,.45-.2-.05,.3-.05,.5-.15,.8-.2-.15-.25-.3-.45-.45,0,.1-.05,.2-.05,.25,.1,.2-.05,.3-.15,.3-.1,.05-.35-.1-.35-.15-.05-.35-.3-.4-.55-.5,.05,.15,.1,.35,.15,.55-.6-.15-1.05-.35-1.5-.65-.25-.15-.45-.2-.7-.2-1.05-.05-1.99,0-2.99,.25-.3,.1-.6,.1-.8,.25-.15,.1-.45,0-.6,0-.15,.35-.3,.7-.4,1.05-.05,.15-.15,.25-.15,.4-.05,.35-.05,.7-.1,1.1v.05c.3,.75,.05,1.5,0,2.24,0,.55-.1,1.15-.1,1.7v1.5c0,.8,.05,1.55,.05,2.29,.05,.15,.05,.3,.1,.4,.1,0,.2,.05,.3,.05,.3,.05,.6,.1,.9,.15,.45,.05,.8-.05,1.1-.3,.45-.1,.85-.1,1.3,0,.2,.05,.4,.1,.65,.15-.15,.35-.55,0-.8,.35,.35-.05,.6-.05,.85-.1,.3,0,.55-.05,.85-.05,.25,0,.5,.05,.75,.1v.1c-.35,0-.7,.05-1.1,.1v.1s.1,.05,.2,.05h.6c.45,0,.7,.25,.8,.65-.05,.2-.2,.35-.3,.55,.3-.05,.45-.05,.6-.05,.1,.05,.2,.1,.3,.15-.15,.1-.3,.15-.4,.2-.1-.05-.25-.1-.4-.2-.1,.15-.25,.2-.4,.3,.05,.3,.2,.35,.45,.35h1.2c.25,.05,.55,.05,.7,.4-.25,.05-.5,.1-.75-.05,0-.05-.1-.05-.1-.05-.5,.1-1,.15-1.55,.2,.25,.15,.5,.1,.5,.4,0,0,.15,0,.25,.05,.35,.05,.65,.1,1,.2,.25,.05,.45,.1,.65,.15,0,.1,.05,.2,.05,.35-.2,.2-.55,.15-.8,.2-.4,.1-.85,.15-1.3,.3,.05,.05,.15,.1,.3,.1-.1,.05-.2,.15-.25,.15-.35,.05-.65,.05-.95,.05-1.05,.15-2.04,.25-3.09,.4-.45,.05-.9,.15-1.35,.25-.15,.05-.3,.05-.5,.05-.05,.5-.1,1-.05,1.5,0,.5,.1,1,.1,1.5,.05,.85,.1,1.65,.1,2.44,0,.6-.1,1.25-.1,1.8s.15,1.1,.2,1.6c.05,.25,.1,.5,.15,.75q.05,.35-.35,.55s-.05,.05-.15,.1c.05,.1,.05,.2,.1,.35s.1,.2,.15,.35c.05,.25,.15,.35,.35,.3,.05,.25,0,.4-.1,.55-.35,.45-.75,.85-.95,1.35-.1,.2-.3,.35-.5,.55v-.2h-.25c0-.05,.05-.2-.05-.35-.1,.15-.05,.3,.05,.35q0,.3-.3,.5s-.05-.05-.05-.1c0,0-.05-.05-.05-.2-.1,.15-.15,.25-.25,.35-.05,.15-.1,.25-.15,.35-.3,0-.1-.4-.3-.5-.1,.05-.25,.05-.3,.1-.25,.05-.4,.2-.3,.4,.15,.25-.1,.25-.15,.35,0-.3,0-.5,.05-.8h-.4c.1-.45,.2-.9,.25-1.35-.3,.1-.25,.4-.35,.55-.05-.05-.1-.1-.2-.15-.1,.2-.1,.4,0,.55-.15,.25-.3,.5-.4,.8Zm-1.4-32.41c-.25-.3-.25-.35-.05-.7,.1,.25,.2,.4,.05,.7Zm2.34-4.34q-.35,.1-.55-.3c.25,.15,.35,.25,.55,.3Zm-.2,12.97c.05,.35-.15,.7,0,1.1,.1-.35,.1-.75,0-1.1Zm.45,21.14c0-.1-.05-.25-.05-.4h-.05v.45s.05-.05,.1-.05Zm.5,1.8c.2-.05,.3-.4,.15-.45-.3-.2-.25-.45-.25-.8h-.35v1.35c.2-.05,.3-.05,.45-.1Zm.75,0c.2-.2,.25-.45,.15-.65,0-.05-.1-.05-.15-.15v.8Zm.9-1.9c.15-.55,.2-1.05-.05-1.6-.1,.55-.1,1.05,.05,1.6Zm.2-23.34v.15h.05v-.1s-.05,0-.05-.05Zm.5,20.39c-.05,.2,0,.35,.2,.55-.05-.2-.05-.35-.05-.55h-.15Zm.65,1.7s.15-.2,.2-.3c.25,.15,.1,.3,.15,.45-.15,.15-.3,.2-.5,.3,0-.2-.05-.35-.1-.65,.15,.1,.2,.15,.25,.2Zm.9,.1c-.05,.2-.1,.35-.1,.55h-.15c.1-.2-.05-.4,.25-.55Zm-.15-16.26c.45-.4,.9-.65,1.5-.45-.25,.15-.45,.3-.7,.4-.25,.05-.55,.05-.8,.05Zm2.54-16.9c-.15,0-.4-.1-.6,0-.35,.2-.8,.3-1.2,.4v.15c.3-.05,.55-.05,.75-.15,.25-.1,.5-.1,.8-.15,.1,0,.15-.05,.3-.1,0-.05-.05-.1-.05-.15Zm.25,17.55c-.2-.05-.4-.1-.45,.1,.1,0,.3,0,.45-.05v-.05Zm1.85-17.25l-.05,.05c-.1-.05-.25-.1-.35-.2,0-.05,.05-.05,.05-.1,.1,.1,.25,.2,.35,.25Zm0,2.59v.05c.15,.05,.3,.2,.45,.3,.05-.15,.1-.25,.15-.35h-.6Zm.25,15.76c.55-.1,.95,0,1.35,.35-.4-.1-.7-.15-1.05-.2-.1-.05-.1-.1-.3-.15Zm.9,1.5c-.1,.2-.2,.35-.45,.2,.2-.1,.25-.15,.45-.2Zm-.25-18.55s.05,.05,.1,.05h.15s-.15-.1-.2-.1c0,0-.05,0-.05,.05Zm.25,20.25c.05-.05,.05-.15,.1-.15,.15-.1,.25-.05,.5,.15h-.6Z"/>
      <path class="cls-1" d="M365.12,15.79c-.1,.55-.5,.65-1,.45v-.25c.25,0,.45,.05,.65,.1,0-.3,0-.55-.05-.85,.3,.15,.3,.4,.4,.55Zm-.75,1.1h.05s.1,.05,.1,.1v.2c-.1-.15-.1-.2-.15-.3Zm.65,.1c-.4-.3-.3-.55,.35-.7,.05-.5-.2-.9-.35-1.35-.05-.15-.15-.35-.2-.5q-.2-.45,.25-.8l.2,.2c.1-.05,.15-.15,.2-.3,.25,.5,.05,1,.3,1.45,.15-.1,.15-.2,.15-.3,0-.25-.05-.5,0-.7,.1-.35,0-.65-.35-.85,.25-.4,.65-.65,1.1-.55,.1,0,.15,.05,.25,.05,.45,.05,.65,.4,.45,.85-.05,.15-.2,.3-.05,.5,.4-.2,.7-.4,1-.55v-.8c.35,.1,.65,.15,.75,.45,.05,.1,.25,.15,.4,.25,.05,.15,.05,.3,.05,.5,.45-.9,.3-1,.15-1.65,.75,.25,1.05,.9,1.2,1.6,.2,.8,.3,1.65,.2,2.44-.05,.2,0,.4,0,.55,.05,.55-.05,1-.35,1.45-.15,.2-.1,.5-.05,.75,.05-.1,.1-.25,.2-.45,.1,.25,.15,.45,.1,.7-.25,1.05-.1,2.09,.05,3.14,.25,1.65,.45,3.29,.3,4.99,0,.4,.15,.85,.1,1.25-.1,.95,.25,1.8,.25,2.69,.05,1.15,.1,2.34,.05,3.44-.1,.7-.1,1.35-.15,2.04-.1,.95,.05,1.84,.1,2.79,.05,1,0,2.09,0,3.14v.8c0,.25,.1,.55-.3,.7-.05,0-.05,.25-.1,.35-.05,.35-.05,.7-.05,1.05-.05,.2,.05,.25,.15,.35,.15,.1,.4,.2,.45,.45-.6-.15-.7-.25-.9-.85-.1,.25-.05,.4-.05,.65,.05,.15,.05,.4,.05,.6h1.2c-.35,.8-.7,1.5-1.3,2.09-.05-.05-.1-.1-.1-.2-.05,0-.05-.05-.1-.15-.1,.05-.15,.1-.2,.15,0-.15,0-.2-.05-.3,0-.1-.1-.2-.2-.3-.15,.1-.2,.15-.4,.25-.1-.2-.2-.3-.25-.5-.15,.55,0,.85,.4,.95,.1,.2-.05,.5,.3,.6,.1,.05,.15,.35,.1,.45-.1,.2-.3,.35-.45,.5-.15-.15-.25-.3-.35-.45-.25,.05-.4,.25-.35,.6-.1-.05-.25-.05-.4-.1,.05-.2,.3-.4,.05-.5-.2-.1-.35-.1-.6-.15-.05-.05-.05-.15-.15-.3,.1-.05,.2-.1,.3-.15,.2-.2,.4-.3,.6-.5,.1-.05,.1-.2,.1-.3h-.2c-.05-.2-.1-.4-.2-.5-.05-.2-.15-.3-.35-.5-.05,.45-.1,.85-.15,1.3-.05-.2-.15-.3-.25-.5-.1,.15-.2,.3-.25,.4-.1,.1-.25,.15-.4,.25,.05,.1,.35,.2,.2,.45-.05,.15-.15,.3-.2,.5-.2-.1-.4-.2-.5-.3,0-.3,.2-.6-.1-.85l-.3,.15c-.05-.3-.1-.5-.15-.7-.2-.05-.35-.1-.55-.1,0-.15,.05-.3,.05-.45,.15,0,.25,0,.4,.05,.05-.05,.15-.2,.1-.25-.05-.15-.15-.25-.25-.35,.15-.4,.25-.9-.05-1.4v-.15c.15-.5,.15-.55,.05-.95-.05-.1,0-.3,0-.45v-3.64c-.05-1.3-.05-2.59-.05-3.89,0-.5,.1-1,.1-1.5,.05-1.4-.05-2.74-.15-4.14-.05-.5-.05-.95-.05-1.4,.05-2.04-.2-3.99-.4-5.98-.05-.25-.05-.55-.05-.8-.05-.5-.05-1-.15-1.5-.1-.4-.05-.85,0-1.25,.05-.65,.15-1.25,.15-1.9,.05-.35,.05-.75,.05-1.1,0-.1-.05-.2-.05-.3-.15,.1-.3,.15-.35,.2Zm1.35-4.79c.1-.1,.2-.1,.3,0,.05,0,0,.05,0,.1-.1-.05-.2-.1-.3-.1Zm.7,.05s0,.1-.05,.15c-.1-.05-.2-.05-.35-.1,.15-.05,.25-.1,.4-.05Zm.6,.35c.15,.2,.05,.35-.05,.45,0-.15,.05-.3,.05-.45Zm1.85-.1s.05,.15,.05,.15c0,.1-.05,.2-.1,.2s-.2-.05-.2-.1c-.1-.1-.1-.2-.15-.3,0-.05,.05-.05,.05-.1,.15,.05,.25,.1,.35,.15Zm.55,2.49c.15-.45,.25-.9,.05-1.3-.25,.4-.15,.85-.05,1.3Zm1.35,32.26h-1.2c0-.4,.05-.75,.1-1.2-.4,.45-.3,.95-.35,1.4,.55,.4,1,.35,1.45-.2Zm-.8-32.86c-.05-.25-.1-.4-.15-.65,.05,.25-.3,.45,0,.65h.15Zm-.2,20.15v1.15h.1c-.05-.35-.05-.75-.1-1.1v-.05Zm.05,9.82c-.05,.1-.05,.15-.05,.15,0,.65,0,1.3,.05,1.9,.15-.05,.25-.1,.3-.1,0-.25,.1-.5,0-.65-.2-.3-.15-.6-.15-.9v-.35s-.1,0-.15-.05Zm.1-22.44c.05,.15,.05,.25,.1,.45,0-.05,.05-.05,.05-.05,0-.15-.05-.25-.05-.4h-.1Zm.15-5.04s-.05,.15-.05,.25h.1c0-.1,.05-.15,.05-.25h-.1Zm0-1.55v0Zm.4,12.92v-.25h-.05v.25h.05Zm.2,2.44c0-.35-.05-.7-.05-1.05-.2,.35-.05,.7,.05,1.05Zm-.05,8.08c-.1,.2-.1,.35,.05,.55v-.55h-.05Zm.1,2.39v-.55h-.05v.55h.05Zm.65,4.74c-.15-.05-.25-.05-.5-.1,.25-.2,.5-.35,.7-.45v.05c0,.15-.1,.35-.2,.5Zm.3,.4c-.1-.45,.2-.65,.45-.9-.1,.3-.25,.6-.45,.9Z"/>
      <path class="cls-1" d="M394.65,28.36h.05c.15,.8,.4,1.6,.55,2.44,.1,.65,.15,1.3,.25,2,.1,.65,.15,1.3,.35,1.89,.2,.85,.25,1.75,.3,2.59,0,.1,.05,.3,0,.5,0,.15,0,.35-.05,.65,.05,0,.15,.15,.15,.25,.35,1.4,.6,2.84,.6,4.34,0,.25-.05,.55-.35,.6-.05,.75-.1,1.4-.15,2.14-.25,.1-.25,.3-.15,.55,.1,.25,.1,.45,.15,.7t-.1,.05c-.1-.3-.15-.65-.2-.95-.1-.3-.15-.65-.2-1-.15,.05-.25,.05-.4,.1v.25c.1-.05,.15-.05,.15-.05t.05,.05c.05,.35,.05,.7,.15,1,.05,.4,0,.5-.4,.45h-.15s-.05,.05-.05,.1c.15,.1,.35,.2,.35,.4,0,.25-.05,.4-.05,.65-.05,0-.1,.05-.1,.05-.1-.15-.2-.3-.25-.45-.2,.1-.35,.2-.5,.3-.15-.3-.3-.65-.4-.95-.15,.1-.25,.15-.35,.2,.05,.6,.05,1.25,.1,1.79h-.15c-.2-.3-.35-.55-.3-.9,.05-.4-.2-.7-.35-1-.25,.35-.15,.75-.2,1.2-.05-.15-.15-.2-.25-.3-.1,.3-.2,.55-.3,.9,0,0-.1,0-.2,.1-.05,0-.1,.1-.15,.2-.2-.15-.35-.35-.25-.65,0,0,0-.1-.05-.15-.35-.75-.3-1.6-.45-2.34-.05-.35-.1-.65-.15-1,0-.1,.05-.15,.05-.3-.05-.25,0-.45-.1-.65-.1-.25,0-.45,0-.65-.05-.7-.15-1.3-.2-1.99-.15-1.15-.25-2.34-.45-3.54-.1-.6-.2-1.25-.25-1.94-.15-.55-.25-1.2-.35-1.79-.05-.15-.05-.3-.1-.5-.2,.05-.4,.05-.55,.05-1.1,.3-2.14,.6-3.14,.9-.9,.25-1.84,.4-2.74,.45-.6,0-.7,.1-.75,.7l-.45,2.99v.05c-.25,.75-.15,1.6-.3,2.34-.2,1-.45,2-.75,2.94-.2,.45-.3,.95-.45,1.4,0,.05,0,.15,.05,.25,.35-.25,.5-.65,.8-.9,.2,.45-.2,.75-.15,1.2,.3,0,.3-.3,.5-.45-.05,.1-.05,.2-.05,.25-.1,.35-.3,.6-.25,.95,.05,.2-.15,.4-.25,.6-.05-.15-.15-.2-.25-.4-.1,.3-.15,.55-.25,.75,.1,0,.15,.05,.25,.1-.1,.25-.15,.55-.25,.85,.3,.1,.4-.2,.7-.2-.25,.2-.4,.4-.6,.55-.4,.4-.75,.8-1,1.3-.15,.4-.45,.75-.75,1.05-.15,.2-.35,.3-.6,.4-.05-.05-.2-.15-.4-.3-.25,.2-.5,.35-.8,.55-.1,.05-.2,.05-.3,0-.1,0-.15-.1-.25-.2,.1-.35-.3-.55-.4-1-.15,.3-.35,.4-.4,.6-.15,.25,.1,.2,.3,.2-.05,.05-.1,.15-.1,.25-.7-.1-.65-.65-.7-1.1-.25,.1-.15,.35-.3,.45q-.25-.1-.3-1.5-.4-.1-.35-.45v-.3c-.05-.15-.1-.15-.25-.1v.05c.3-.25,.25-.55,.3-.85q-.1-.05-.25-.05c.05-.2,.1-.4,.1-.6-.1,.1-.25,.15-.35,.2,.1-.2,.2-.4,.35-.5,.05-.2,.2-.4,.35-.55-.2-.05-.3-.1-.4-.15,0-.15,0-.3,.15-.4,.1-.05,.2-.2,.25-.25s.05-.1,.05-.2c.15-.75,.35-1.55,.55-2.39,.2-.6,.4-1.25,.5-1.85,.4-1.6,.5-3.19,.75-4.79,.1-.8,.3-1.6,.45-2.39,.1-1,.25-1.95,.4-2.94,.05-.2,.15-.5,.15-.7,.05-.25,.1-.45,.15-.65,.05-.3,.15-.6,.2-.9,.2-.95,.35-1.94,.55-2.89,.7-3.09,1.3-6.18,2.19-9.17,.25-.9,.4-1.84,.65-2.74,.2-.65,.45-1.3,.75-1.99,0-.05,.05-.1,.15-.3,.05,.2,.1,.3,.05,.35-.1,.35-.2,.6-.25,.9-.1,.25-.15,.5-.15,.75,.25-.35,.45-.75,.55-1.1,.1-.2,.2-.4,.1-.65-.05-.1,.05-.35,.15-.4,.3-.2,.55-.4,.8-.6,.15,.4,0,.75-.1,1.1,.45-.2,.65-.75,1.25-.6,0,.1,.05,.2,.1,.35,.05,.1,.1,.15,.15,.2,.2,0,.35-.1,.4,.1,.1,0,.2-.05,.3-.1,.05,.2,.1,.4,.1,.55,.3-.1,.2-.2,.15-.35-.05-.2-.05-.35,.25-.5,.05,.35,.15,.75,.25,1.1h.1c0-.15,.05-.25,.05-.35q.35-.05,.55,.4,.35,.05,.45-.15c.2,.25,.45,.4,.8,.25,0,.15,0,.25,.1,.3,0,.1,.15,.2,.2,.15,.35-.05,.65,.15,1,.15-.1,.15-.15,.25-.2,.35,.25,.05,.5,.1,.75,.2h.05s-.1,.05-.1,.05c.5,.1,.95,.1,1.45,.15,.45,.05,.65,.4,1,.75h-.5c0,.1,0,.2,.05,.35-.2,0-.4,.05-.6,.05,.1,.2,.25,.3,.5,.15,.05-.05,.2-.15,.3-.2,.2-.15,.4-.15,.5,0,.1,.2-.05,.25-.2,.35-.05,.05-.1,.05-.1,.05,.15,.2,.2,.25,.3,.4,.05,.1,.1,.25,.15,.3q-.2,.4,.1,.75c.15,.15,.25,.35,.4,.6,0,.3-.4,.1-.55,.35,.05,.1,.1,.1,.25,.2-.25,.15-.25,.35-.25,.6,0,.2-.05,.4-.05,.65,.05,.35,.1,.75,.2,1.1,.1,.45,.2,.9,.35,1.3-.05-.3-.05-.65-.1-1.05,.4,.45,.9,2.59,.9,3.54-.05-.1-.1-.2-.15-.3-.05,.05-.1,.05-.1,.05-.05,.4-.15,.85-.05,1.3,.2,1.3,.45,2.64,.75,3.94,.05,.1,.05,.2,.1,.3v.6h.1c-.05-.2-.05-.4-.1-.6-.05-.55-.1-1.15-.15-1.65Zm-18.85,21.14c0,.15,0,.25-.05,.35,.15-.1,.2-.25,.05-.35Zm1.45,1.84c.1,.15,.2,.25,.35,.4,.05-.25,.1-.45,.15-.65-.15,.1-.3,.15-.5,.25Zm1.79-2.34c-.3-.05-.45,0-.5,.15-.1,.25-.35,.45,0,.75,.15-.3,.35-.55,.5-.9Zm1.4-1.2c-.05,.15-.1,.3-.15,.4q.35-.15,.15-.4Zm.85-26.38c.05-.15,.1-.25,.1-.45h-.05c-.05,.15-.05,.3-.1,.45h.05Zm.45,17.8c-.2,.65-.15,1.25-.2,1.84,.25-.7,.3-1.45,.2-1.84Zm0-.75v0Zm2-10.62l-.15,.75c.1-.1,.15-.2,.15-.25,.05-.15,.05-.35,.05-.45l-.05-.05Zm5.34,.4c-.15-1.25-.3-2.44-.6-3.59-.35-1.6-.75-3.14-.9-4.74-.05-.3-.4-.55-.7-.5-.3,.1-.6,.15-.95,.25,.05,.1,.1,.15,.25,.4-.3-.2-.4-.25-.6-.35,.1,.6,.05,1.2-.2,1.8-.45,1.35-.65,2.74-.9,4.14-.15,.9-.25,1.79-.55,2.69-.15,.3-.15,.6,.05,.9,.2,0,.45-.1,.6-.15,.8-.25,1.65-.5,2.44-.75,.3-.05,.65-.15,1-.25,.2-.05,.35-.05,.5,.05-.2,.15-.35,.2-.5,.25,.35,.05,.7,.2,1-.05,0,0,.05-.05,.05-.1Zm-1.45-15.86l.1,.1c-.05,.1-.1,.15-.15,.15h-.05s.05-.15,.1-.25Zm2.89,1.9s-.05-.05-.05-.05c.05-.1,.1-.2,.15-.2,.3-.05,.6-.05,.95,.05v.1c-.4,.05-.75,.1-1.05,.1Zm2.59,5.43c.25,.3,.3,.7,.3,1.05,0,0-.05,0-.1,.05-.05-.4-.1-.75-.2-1.1Zm.75,28.42l-.05-.05-.1,.1s.05,.05,.1,.05c0,0,.05-.05,.05-.1Zm.45-22.34h.1c.2,.45,.25,.9,.15,1.4-.05-.05-.1-.05-.15-.05-.05-.45-.1-.9-.1-1.35Zm.5,9.52v.55h.05v-.55h-.05Zm.25,11.87c-.05-.4-.05-.7-.1-1.05-.2,.3-.2,.65,.1,1.05Zm.9-8.33c.05,.15,.1,.3,.1,.5t.05-.05c0-.15-.05-.3-.1-.45h-.05Zm.45,2.14v-.35h-.1c.05,.15,.05,.25,.05,.35h.05Z"/>
    </g>
    <g>
      <path class="cls-1" d="M.2,16.74c-.1,0-.1-.05-.2-.1,.05-.05,.05-.1,.1-.15,.1,.05,.25,.05,.45,.05v.25c-.1,0-.25,0-.35-.05Zm10.47,2.19c-.45-.2-.45-.7-.7-1.05-.15,0-.35,.05-.45,.1-.8,.1-1.5,.25-2.24,.4-.1,0-.2,0-.3,.05-.25,.05-.45,.2-.5,.5-.05,.4-.1,.75-.1,1.15-.05,.9-.15,1.79,0,2.69,0,.2,0,.45,.05,.65,.15-1.25-.05-2.54,.3-3.84v.85c-.05,.65-.1,1.2-.15,1.9,0,0,.05,.05,.05,.1,.35,1.2,.3,2.39,.2,3.64-.05,.5-.05,.95-.05,1.45,0,.25,.05,.35,.3,.3,.15,0,.3-.05,.45-.1,.7-.25,1.45-.35,2.14-.4,.15,0,.3,.05,.4,.05,0,.05,0,.1,.05,.1-.3,.05-.6,.15-.9,.25,.4,0,.8-.05,1.2,0,.4,0,.8,.1,1.2,.15v.3c.55,0,1.05-.05,1.6,.1-.6,.1-1.1,.1-1.6,.15,0,0,0,.05-.05,.1,.45-.05,.7,.35,1.15,.3,.1-.05,.25,0,.4,0,.2,.05,.45,0,.5,.35,.3,0,.5,.1,.85,.1-.35,.15-.6-.05-.8,.2,.35,.3,.9,.1,1.25,.45-.1,.05-.25,.1-.3,.1-.25-.15-.55,0-.75,.1-.3,.05-.5,.1-.75,.2,.15,.3,.4,.55,.8,.35,0,.2-.15,.2-.3,.2-.4,.05-.8,.05-1.2,.1,.3,.1,.75-.15,1.05,.3-.2,.05-.3,.1-.4,.15,0,.05,.05,.1,.05,.1h.1c.8,0,1.45,.45,2.19,.5,.05,0,.1,.05,.1,.2-.1-.05-.15-.05-.25-.1,.05,0,0,0,0,0-.1,.25-.2,.3-.4,.3h-.6c.2,.35,.5,.1,.65,.3-.35,.15-.7,.15-1.05,.15-.5,0-1-.05-1.5,0-.15,0-.3,.1-.45,.1-.45,.05-.9,.05-1.35,.1-1.1,.05-2.19,.3-3.29,.55-.15,.6-.1,1.15-.1,1.7,0,.3-.05,.6-.15,.9-.2,.5-.2,1.1-.25,1.6v.95c0,.35-.05,.65,.05,1,.1,.15,.05,.35,0,.5-.1,.5-.1,1-.1,1.5,.05,.4,0,.8,0,1.2,0,.3,0,.65,.1,.95h.05c0-.6-.05-1.15-.05-1.75,.05-.6,.15-1.2,.3-1.75v1.45c0,.7-.05,1.35,.05,2.04,0,.35,.15,.7,.2,1.1,.05,.45,.25,.8,.35,1.15,.05,.1,.05,.2,.1,.35-.1-.15-.15-.15-.25-.25-.1,.1-.15,.1-.25,.2-.15-.15-.25-.15-.3,0-.05,.3-.05,.55,0,.8,0,.3,0,.5-.2,.8-.25,.45-.25,1-.15,1.45,.1,.45-.05,.6-.4,.8,0-.15,0-.3-.05-.35,.1-.2,.35-.2,.25-.45-.15,.1-.3,.2-.5,.35-.15,.15,.15,.6-.35,.65-.15-.25-.35-.55-.6-.85-.05,.3-.1,.6-.15,.9-.15-.05-.25-.1-.3-.1-.45,.15-.55,.55-.65,.95,0-.2,0-.45-.05-.8-.2,.4-.55-.05-.75,.25-.1-.1-.15-.25-.25-.45-.2,.55-.25,.95-.1,1.4-.15,.15-.25,.1-.3-.05-.05-.15,0-.3,0-.45,0-.4,.05-.75,.1-1.05-.25-.05-.3,0-.3,.15,0,.3,.05,.55,.05,.85v.5c-.2,0-.35-.05-.35-.25v-.65c.15-.5,0-.95-.35-1.35-.2,.15-.45,.3-.65,.45-.15-.15-.2-.25-.05-.4,.15-.15,.3-.3,.45-.45,.3-.25,.5-.55,.5-1-.1-.85-.15-1.75-.25-2.59-.2-1.4-.3-2.89-.2-4.34,.05-1.1,0-2.19,0-3.34v-4.89c-.1,0-.15,0-.25-.05l.05-.1c.2-.1,.2-.25,.2-.4-.1-.3-.1-.6-.05-.9,0-.2-.05-.4-.05-.65,0-.1-.1-.2-.15-.2-.3-.35-.35-.35-.2-.75-.1,0-.25-.05-.45-.05,.2-.2,.45-.45,.6-.6,.2-.1,.25-.2,.25-.4-.1-1.7-.15-3.39-.3-5.09-.1-1.6-.1-3.14-.05-4.69,0-.25-.05-.55-.05-.85-.05-.25-.15-.55-.45-.6-.2-.05-.2-.3-.1-.45,.05-.1,.1-.2,.1-.35v.05c.2-.15,.4-.25,.5-.55-.05,0-.15-.05-.25-.05-.25-.05-.35-.25-.25-.5,.1-.3,.3-.4,.6-.45-.15-.25-.3-.4-.45-.55,.15-.2,.25-.35,.35-.45,.15-.1,.35-.1,.5-.2-.2-.25-.4-.1-.6,0,.05-.15,.05-.35,.05-.55h.35v-.1c-.05-.05-.15-.1-.25-.15-.1-.05-.2-.15-.4-.2,.3-.15,.45-.3,.65-.35,.1,0,.2,0,.3,.05,.35,.25,.7,.3,1.15,.2,.1-.05,.3-.05,.45,0,.5,.1,1.1,0,1.65-.05,.6-.1,1.15-.15,1.75-.3,.75-.15,1.5-.45,2.19-.65,.25-.1,.55-.2,.8-.05,.05,.05,.15,0,.2,0s.1-.1,.15-.1c.15-.05,.35-.3,.5-.15,.2,.1,.4,.4,.3,.65v.2q.3,.1,.65,.05c-.1-.3-.35-.2-.5-.4,.1-.15,.2-.3,.35-.45,.15,.1,.4,.25,.6,.4,.4-.3,.9-.25,1.5-.15-.15-.25-.25-.4-.3-.6,.1-.05,.25-.1,.35-.1,.4,.3,.65,.65,.65,1.25-.25,.05-.25,.25-.2,.5-.15-.1-.3-.2-.45-.4,.05,.35,.1,.6,.1,.85,0,.2-.05,.45-.05,.65-.1-.15-.2-.25-.3-.45-.05,.15-.15,.3-.25,.4,.2,.15,.35,.15,.55,.05,.1-.05,.15-.2,.3-.05,.05,.05,.2,0,.3,.05,.05,.3,.3,.55,.2,.95-.05,.25,.15,.55,.2,.85-.2,.2-.25-.1-.4-.1-.15,.35-.15,.4,.05,.6,.3,.2,.5,.4,.8,.65-.05,.05-.1,.15-.25,.4-.1-.25-.2-.35-.2-.45h-.2c-.05,.25-.2,.5,0,.7q-.3,0-.8-.2c-.05,.15-.1,.3-.2,.5-.05-.05-.1-.1-.15-.2-.2,.15-.4,.2-.6,.4,0,0,.05,.15,.1,.25-.3-.15-.5-.3-.8-.4-.15-.05-.4,0-.5,.2-.05,.1-.15,.2-.25,.35,.05-.35,.25-.6,.05-.85-.25,.05-.55,.05-.8,.05,.05,.35,.2,.65,.45,.85,0,.05-.05,.15-.1,.25ZM1.05,48.71c.1,.25-.05,.3-.15,.35-.05,0-.05-.05-.1-.05,.1-.1,.2-.2,.25-.3Zm.3-.15c-.05-.25,.1-.35,.25-.45q0,.35-.25,.45ZM2.24,12.55s-.1-.1-.15-.1c.05-.05,.1-.1,.15-.1,0-.05,.05,.05,.1,.05-.05,.05-.1,.15-.1,.15ZM6.43,48.51s-.05-.15-.05-.25v.3l.05-.05Zm.2-22.09v-1.3h-.05v1.3h.05Zm.2,7.98v-.5c-.05,.25-.05,.35-.05,.45,0,.05,.05,.05,.05,.05Zm.35,13.96h.05c.05,.2,.05,.3,.1,.5,.15,0,.3,0,.45,.05-.05,.2-.25,.3-.4,.35s-.35,0-.6-.05c.1-.3,.25-.6,.4-.85Zm-.05-3.24c0-.25-.05-.55-.1-.8t-.1,.05c.05,.2,.05,.5,.1,.75h.1Zm-.1-17.05h.05c.1,.05,.2,.1,.3-.1h-.3s-.05,.1-.05,.1Zm.7-15.31c-.1,0-.2,.05-.3,.05v.05c.1,0,.2-.05,.3-.05v-.05Zm-.1,35.25c.45,0,.5,.05,.45,.4-.15-.15-.3-.3-.45-.4Zm.4-20.1c.15,0,.2,0,.35-.05v-.1c-.15,.05-.25,.1-.4,.1t.05,.05Zm1.05-15.56c-.3,.05-.45,.05-.75,.1q.25,.2,.75-.1Zm.9-1v.05h-.4v-.05h.4Zm.7,6.93h.1v.4c-.05-.15-.05-.25-.1-.4Zm.35,.7l-.05-.05,.15-.15s.05,.1,.1,.1c-.1,.05-.15,.05-.2,.1Zm.3-3.94s.1,0,.15,0v-.1c-.1-.05-.15-.05-.3-.05,.1,.1,.1,.15,.15,.15Zm.55,1c.2,0,.35,.05,.55,.05-.15-.2-.3-.3-.55-.05Zm.8-4.44q-.2-.1-.3-.3c.15,.1,.2,.2,.3,.3Zm2.64,19.3c-.4,.15-.65,.05-.9-.05-.2-.05-.4-.15-.5-.2,.45,0,.9,.05,1.4,.25Z"/>
      <path class="cls-1" d="M17.46,15.79c-.1,.55-.5,.65-1,.45v-.25c.25,0,.45,.05,.65,.1,0-.3,0-.55-.05-.85,.3,.15,.3,.4,.4,.55Zm-.75,1.1h.05s.1,.05,.1,.1v.2c-.1-.15-.1-.2-.15-.3Zm.65,.1c-.4-.3-.3-.55,.35-.7,.05-.5-.2-.9-.35-1.35-.05-.15-.15-.35-.2-.5q-.2-.45,.25-.8l.2,.2c.1-.05,.15-.15,.2-.3,.25,.5,.05,1,.3,1.45,.15-.1,.15-.2,.15-.3,0-.25-.05-.5,0-.7,.1-.35,0-.65-.35-.85,.25-.4,.65-.65,1.1-.55,.1,0,.15,.05,.25,.05,.45,.05,.65,.4,.45,.85-.05,.15-.2,.3-.05,.5,.4-.2,.7-.4,1-.55v-.8c.35,.1,.65,.15,.75,.45,.05,.1,.25,.15,.4,.25,.05,.15,.05,.3,.05,.5,.45-.9,.3-1,.15-1.65,.75,.25,1.05,.9,1.2,1.6,.2,.8,.3,1.65,.2,2.44-.05,.2,0,.4,0,.55,.05,.55-.05,1-.35,1.45-.15,.2-.1,.5-.05,.75,.05-.1,.1-.25,.2-.45,.1,.25,.15,.45,.1,.7-.25,1.05-.1,2.09,.05,3.14,.25,1.65,.45,3.29,.3,4.99,0,.4,.15,.85,.1,1.25-.1,.95,.25,1.8,.25,2.69,.05,1.15,.1,2.34,.05,3.44-.1,.7-.1,1.35-.15,2.04-.1,.95,.05,1.84,.1,2.79,.05,1,0,2.09,0,3.14v.8c0,.25,.1,.55-.3,.7-.05,0-.05,.25-.1,.35-.05,.35-.05,.7-.05,1.05-.05,.2,.05,.25,.15,.35,.15,.1,.4,.2,.45,.45-.6-.15-.7-.25-.9-.85-.1,.25-.05,.4-.05,.65,.05,.15,.05,.4,.05,.6h1.2c-.35,.8-.7,1.5-1.3,2.09-.05-.05-.1-.1-.1-.2-.05,0-.05-.05-.1-.15-.1,.05-.15,.1-.2,.15,0-.15,0-.2-.05-.3,0-.1-.1-.2-.2-.3-.15,.1-.2,.15-.4,.25-.1-.2-.2-.3-.25-.5-.15,.55,0,.85,.4,.95,.1,.2-.05,.5,.3,.6,.1,.05,.15,.35,.1,.45-.1,.2-.3,.35-.45,.5-.15-.15-.25-.3-.35-.45-.25,.05-.4,.25-.35,.6-.1-.05-.25-.05-.4-.1,.05-.2,.3-.4,.05-.5-.2-.1-.35-.1-.6-.15-.05-.05-.05-.15-.15-.3,.1-.05,.2-.1,.3-.15,.2-.2,.4-.3,.6-.5,.1-.05,.1-.2,.1-.3h-.2c-.05-.2-.1-.4-.2-.5-.05-.2-.15-.3-.35-.5-.05,.45-.1,.85-.15,1.3-.05-.2-.15-.3-.25-.5-.1,.15-.2,.3-.25,.4-.1,.1-.25,.15-.4,.25,.05,.1,.35,.2,.2,.45-.05,.15-.15,.3-.2,.5-.2-.1-.4-.2-.5-.3,0-.3,.2-.6-.1-.85-.1,.05-.2,.1-.3,.15-.05-.3-.1-.5-.15-.7-.2-.05-.35-.1-.55-.1,0-.15,.05-.3,.05-.45,.15,0,.25,0,.4,.05,.05-.05,.15-.2,.1-.25-.05-.15-.15-.25-.25-.35,.15-.4,.25-.9-.05-1.4v-.15c.15-.5,.15-.55,.05-.95-.05-.1,0-.3,0-.45v-3.64c-.05-1.3-.05-2.59-.05-3.89,0-.5,.1-1,.1-1.5,.05-1.4-.05-2.74-.15-4.14-.05-.5-.05-.95-.05-1.4,.05-2.04-.2-3.99-.4-5.98-.05-.25-.05-.55-.05-.8-.05-.5-.05-1-.15-1.5-.1-.4-.05-.85,0-1.25,.05-.65,.15-1.25,.15-1.9,.05-.35,.05-.75,.05-1.1,0-.1-.05-.2-.05-.3-.15,.1-.3,.15-.35,.2Zm1.35-4.79c.1-.1,.2-.1,.3,0,.05,0,0,.05,0,.1-.1-.05-.2-.1-.3-.1Zm.7,.05s0,.1-.05,.15c-.1-.05-.2-.05-.35-.1,.15-.05,.25-.1,.4-.05Zm.6,.35c.15,.2,.05,.35-.05,.45,0-.15,.05-.3,.05-.45Zm1.85-.1s.05,.15,.05,.15c0,.1-.05,.2-.1,.2s-.2-.05-.2-.1c-.1-.1-.1-.2-.15-.3,0-.05,.05-.05,.05-.1,.15,.05,.25,.1,.35,.15Zm.55,2.49c.15-.45,.25-.9,.05-1.3-.25,.4-.15,.85-.05,1.3Zm1.35,32.26h-1.2c0-.4,.05-.75,.1-1.2-.4,.45-.3,.95-.35,1.4,.55,.4,1,.35,1.45-.2Zm-.8-32.86c-.05-.25-.1-.4-.15-.65,.05,.25-.3,.45,0,.65h.15Zm-.2,20.15v1.15h.1c-.05-.35-.05-.75-.1-1.1v-.05Zm.05,9.82c-.05,.1-.05,.15-.05,.15,0,.65,0,1.3,.05,1.9,.15-.05,.25-.1,.3-.1,0-.25,.1-.5,0-.65-.2-.3-.15-.6-.15-.9v-.35s-.1,0-.15-.05Zm.1-22.44c.05,.15,.05,.25,.1,.45,0-.05,.05-.05,.05-.05,0-.15-.05-.25-.05-.4h-.1Zm.15-5.04s-.05,.15-.05,.25h.1c0-.1,.05-.15,.05-.25h-.1Zm0-1.55v0Zm.4,12.92v-.25h-.05v.25h.05Zm.2,2.44c0-.35-.05-.7-.05-1.05-.2,.35-.05,.7,.05,1.05Zm-.05,8.08c-.1,.2-.1,.35,.05,.55v-.55h-.05Zm.1,2.39v-.55h-.05v.55h.05Zm.65,4.74c-.15-.05-.25-.05-.5-.1,.25-.2,.5-.35,.7-.45v.05c0,.15-.1,.35-.2,.5Zm.3,.4c-.1-.45,.2-.65,.45-.9-.1,.3-.25,.6-.45,.9Z"/>
      <path class="cls-1" d="M35.96,21.33c.2,.6,.45,1.1,.8,1.65,0-.15,0-.35-.05-.5,.2,.2,.35,.5,.5,.7,.5,1.2,1.05,2.44,1.6,3.64,.2,.55,.4,1.1,.6,1.7,0,.05,.05,.1,.05,.15-.2,.55,.1,.9,.4,1.25,.05,.1,.05,.2,.1,.25-.05-.2-.05-.4-.1-.6,.25,.15,.35,.3,.45,.5,.45,1.1,.9,2.19,1.35,3.24,.05,.25,.2,.45,.4,.65,0-.1,.05-.2,0-.25-.2-.2-.15-.45-.1-.7,0-.6,0-1.1-.1-1.7,0,.3,0,.65-.05,1.05-.1-.3-.1-.85-.1-1.3,.05-.3,.15-.6,.15-.9,.05-.3-.05-.55-.15-.85v.6h-.05c-.1-.2-.2-.5-.2-.75-.05-.75-.05-1.5-.05-2.19,0-.35,0-.65-.05-1-.05-1.15-.1-2.24,.1-3.44,.05,.4,.1,.65,.15,1.05,.15-.2,.15-.35,.1-.5-.2-.9-.1-1.85-.15-2.79-.05-.55-.1-1.1-.2-1.7-.1,.65-.1,1.25-.2,1.94,0,0-.05-.05-.1-.05,.05-.75,.1-1.55,.15-2.44,.1,.05,.15,.1,.2,.2,.15-.25,.2-.55,.25-.85,0-.3,.1-.6,.2-.85,.05,.1,.05,.15,.1,.25h.05c.1-.55,.15-1.2,.2-1.8h.1v1.7c.3-.5,.3-1.15,.55-1.75-.05,.2-.05,.35-.1,.45,.05,.05,.1,.1,.1,.05,.35-.15,.7-.35,1-.55,.25-.25,.15-.6,.1-.9,0-.15-.1-.35,0-.55,.15,.1,.2,.25,.15,.4-.05,.5,.1,.9,.2,1.4h.4c.1-.5,.15-1.1,.25-1.65,.25,.35-.1,.75,.25,1.05,0,.4,.25,.65,.5,.95,.2-.4,.15-.8,.15-1.2-.05-.35,.15-.6,.3-.85,.05-.15,.15-.2,.35-.35v1.1s.05,.05,.1,.05c.05-.15,.1-.3,.15-.35,0-.2,.05-.35,.15-.45,.05,.05,.1,.15,.1,.25-.05,1.1-.05,2.14-.1,3.24-.1,1.45-.1,2.79-.05,4.24,0,.65,.1,1.25,.1,1.85,.05,.6,.05,1.2,.1,1.84,.05,1.35,.05,2.69,.1,4.04,.05,1.15,.05,2.34,.1,3.54,.05,.8,.05,1.65,.1,2.44,.05,1.6,.05,3.24,.1,4.84v2.84c0,.3,0,.5,.25,.65,.1,.4-.3,.75-.1,1.2,.15-.25,.25-.45,.4-.6,0,.4-.15,.7-.3,1.05-.1,.15-.15,.3-.1,.45,.05,.35,.1,.7-.05,1.05-.05,.1,0,.2,0,.3,.2,.6,.05,1.2-.3,1.7-.25,.3-.6,.55-.95,.75-.1,.05-.15,.05-.25,.05-.1-.15-.2-.3-.3-.45-.1,.05-.25,.1-.45,.2-.05-.2-.15-.4-.25-.55-.35,.1-.1,.35-.15,.55-.15,.05-.3,.1-.5,.25-.15-.2-.3-.35-.45-.6-.2,.2-.2,.35-.2,.65-.15-.1-.2-.2-.25-.25-.05-.05-.15,0-.25,0-.05-.05-.15-.15-.2-.25-.1-.25-.3-.2-.45-.1q-.3,.15-.55,.15c-.05-.2-.15-.3-.25-.5,.1-.1,.2-.15,.25-.25,0,0-.05,0-.05-.05-.15-.15-.3-.25-.35-.4-.05-.2,.05-.4,.1-.55,.05-.05,.05-.15,.1-.2-.5-.65-1-1.35-1.45-2.04-.15-.3-.35-.6-.5-.95-.2-.45-.35-1-.5-1.45-.25-.65-.45-1.25-.75-1.84-.7-1.6-1.45-3.14-2.09-4.74-.7-1.8-1.65-3.49-2.34-5.29-.15-.4-.3-.75-.5-1.1,0-.05-.1-.15-.15-.2-.05,1.5,.1,2.94,.05,4.44-.05-.1-.15-.25-.25-.4-.15,.3-.15,.75,0,1.5,.05,.45,.15,.95,.2,1.55,.05-.4,.1-.65,.2-.95,.2,.25,.15,.5,.15,.7,0,.65,0,1.3,.05,1.99v3.14c0,.55,0,1.1,.05,1.7,.05,.4,.15,.85,.25,1.3,.1,.35,.15,.75-.1,1.15q-.1,0-.2-.05c-.25,.35-.3,.7-.35,1.1-.1,.35-.25,.75-.4,1.1-.1,.35-.3,.7-.5,1v-.8c-.25,.3-.25,.6-.4,.9-.3,0-.5,.25-.55,.6-.15-.1-.25-.2-.35-.25-.1,.1-.25,.2-.4,.3-.05-.3-.1-.7-.15-1.05,.1-.1,.25-.15,.45-.35-.15-.05-.3-.1-.4-.1,0-.45,.25-.85,.15-1.35-.3,.3-.35,.6-.4,.9-.05,.6-.1,1.2-.15,1.75t-.05,.15c-.05-.3,.2-.7-.3-.85-.15,.1-.15,.25-.05,.3,.3,.4,.2,.75-.1,1.1-.15,0-.15-.15-.15-.3,0-.4-.2-.7-.5-.95-.15,0-.2-.15-.25-.4-.1,.45-.15,.85-.2,1.3-.15-.2-.2-.4-.25-.55-.2,.15-.35,.3-.5,.5-.05-.15-.15-.3-.1-.4,0-.5-.05-1.05,.15-1.5,.3-.8,.05-1.65,.05-2.49,0-1.4-.05-2.79-.05-4.19,0-1.15-.05-2.24,0-3.39,0-1.7-.25-3.39-.35-5.09-.1-1.75-.15-3.39-.25-5.04-.1-1.05-.25-2.09-.3-3.09-.15-1.45-.35-2.94-.25-4.39,.05-.95,0-1.9,.05-2.84,0-.7,0-1.35,.05-2.04,0-.15,.1-.35,.15-.55,.1,.05,.15,.05,.25,.05,.3,.15,.5,0,.5-.35-.05-.15-.1-.3-.1-.5,0-.05,.1-.1,.15-.2,.05,.05,.1,.15,.15,.2v.15q-.05,.35,.45,.4c0-.1,.05-.2,.05-.3,0-.25,0-.5,.25-.6,.2-.15,.4,.1,.55,.25q.35,.25,.45,.55c.2-.1,.45-.2,.45-.5,0-.35,.25-.45,.55-.45,.05,0,.1-.05,.15-.05,.05,.05,.15,.1,.15,.2,.05,.15,.15,.3,.4,.25,.1,0,.1-.2,.25-.35,.15-.05,.35-.1,.6-.2,.05,.35,.05,.65,.1,1.05,.1,0,.25,0,.4-.05,.05,.1,.1,.25,.15,.45,.1-.15,.15-.3,.25-.4,.05,0,.1,.05,.1,.1,.05,.35,.05,.8,.2,1.15,0-.1,.05-.15,.05-.25h.1c.1,.25,.2,.45,.25,.7,.05,.25,.05,.55,.05,.8,.05,.6,.25,1.15,.55,1.65,.1,.35,.2,.6,.35,.9,.3,.8,.65,1.5,.85,2.29Zm-6.68,27.73s.05,.05,.1,.05v.45c-.15,.05-.25,.1-.4,.15,.15-.25,.2-.45,.3-.65Zm1.25-35.06c0,.35-.05,.65-.05,.9,.25-.45,.25-.5,.05-.9Zm1.7-.3c.05,.3-.4,.55-.05,.85,.25-.25,.1-.55,.05-.85Zm.6,32.86c-.15,.35-.1,.65-.1,1,.2-.3,.25-.6,.1-1Zm.55-24.73c-.1-.2-.2-.35-.2-.6-.05,.05-.1,.05-.1,.05,.05,.2,.1,.35,.15,.55h.15Zm.15-6.43c.05-.25-.05-.45-.25-.65-.1,.45-.1,.5,.25,.65Zm.5,29.37c-.1-.5-.25-1.05-.4-1.55,0-.05-.05-.05-.1-.05-.15,.25-.05,1.35,.1,1.99,.3-.05,.45-.2,.4-.4Zm-.4-7.83s0-.1-.05-.25v.25h.05Zm1.25-16.01h.1c-.05-.15-.1-.2-.15-.35-.15-.3-.25-.7-.45-.95,.1,.25,.15,.6,.3,.85,.05,.05,.1,.05,.15,.1,.05,.15,.05,.2,.05,.35Zm-.1-3.44q-.2-.2-.1-.45c0,.15,.05,.3,.1,.45Zm.05,.35h.05c.05,.15,.1,.25,.1,.45-.1-.05-.15-.1-.2-.15,0-.1,.05-.2,.05-.3Zm.25,.95h.1c0,.1,0,.15,.05,.25l-.05,.05-.05-.05c0-.1-.05-.15-.05-.25Zm1.4,10.27s.1-.05,.15-.05c-.1-.2-.2-.35-.3-.5,0-.25-.1-.45-.25-.6h-.1c.15,.2,.25,.4,.35,.55,.05,.25,.1,.4,.15,.6Zm4.74-7.53h.05v.7h-.05v-.7Zm2.14-7.53h.1c-.05,.2-.05,.45-.05,.7,0,0-.05,0-.05-.05v-.65Zm1.25,35.25c.1,.1,.15,.15,.15,.2,.05,.15-.05,.2-.3,.25,.1-.2,.1-.25,.15-.45Zm.4-2.04s0-.1,.05-.15c0-.05-.05-.15-.05-.2l-.05,.05c0,.1-.05,.2-.05,.3h.1Zm.5,2.24c-.05,.25-.2,.2-.4,.05,.2-.05,.25-.05,.4-.05Zm.25-2.29c-.25,.2-.15,.35,0,.5v-.5Zm-.05-31.07v.35h.05v-.35h-.05Z"/>
      <path class="cls-1" d="M62.89,11.75s.1-.1,.2-.15c.1,.25,.15,.55,.25,.85,.2-.15,.3-.25,.2-.45-.05-.2,0-.3-.05-.5,0-.2,.1-.35,.3-.35-.1-.3-.15-.6-.25-.85,0-.05,.05-.05,.05-.05,.05,.05,.2,.1,.2,.15,.05,.1,.1,.3,.15,.45s.1,.3,.15,.45q.15-.1,.15-.85c.1,.2,.15,.35,.2,.4,.15,.35,.25,.6,.35,.9,.05,.1,.05,.3,.15,.45,.1,.3,.2,.5,.35,.85,.2-.2,.3-.35,.45-.5,.15,.1,.25,.1,.3,.2,.25,.2,.35,.2,.55,0,.15-.1,.25-.15,.35-.3,.3,.2,.4,.55,.5,.85,.1,.25,.2,.5,.55,.6-.05-.35-.1-.6-.15-.85,.35,.2,.45,.5,.5,.85,.3,1.2,.55,2.34,.85,3.54,.1,.6,.2,1.25,.3,1.95,.15,.9,.15,1.79,.4,2.74,.05,.25-.15,.35-.3,.4,.05,.2,.05,.35,.05,.55,.05-.1,.1-.1,.15-.2,0-.05,0-.15,.1-.2,.05,.2,.15,.35,.2,.6,.2,1.3,.45,2.59,.6,3.89,.1,.75,.15,1.5,.3,2.19,0,.7,.15,1.4,.3,2.09,.05,.4,.1,.8-.15,1.15-.05,.15-.05,.35-.05,.5,.05,.45,.1,.85,.35,1.25-.05-.25-.05-.55-.1-.8,.3,.2,.35,.55,.4,.8,.1,.5,.1,.95,.15,1.45,.05,.85,.2,1.7,.3,2.59-.05-.05-.1-.05-.15-.1-.05,0-.1,.05-.1,.05,.05,.75,.05,1.5,.1,2.19,0,.3,.15,.55,.3,.8-.05-.3-.05-.55-.1-.85,.3,.25,.3,.6,.4,.9,.1,.3,.15,.6,.25,.9,.15,.55,.3,1.05,.45,1.6,0,.15,.05,.25,0,.4-.15,.65,0,1.15,.2,1.79,.1,.4,.2,.85,.3,1.25,.05,.3,.05,.5,.05,.8,.15,.1,.25,.3,.2,.5-.1,.15-.35,.25-.55,.4t.1,.05c.05,.2,.05,.35-.15,.4-.15,.1-.25,0-.3-.1-.1-.2-.2-.35-.4-.4-.05,.15-.05,.35-.15,.45-.1,.05-.25,.05-.4,.1,0,.1,0,.2,.05,.35-.05-.05-.1-.05-.1-.1-.1-.2-.15-.35-.4-.35-.05,.1-.05,.25-.05,.5-.2-.2-.3-.35-.5-.5-.05,.15-.15,.35-.2,.5-.05-.1-.15-.2-.2-.3h-.05c0,.15,.05,.3,.15,.45-.35-.05-.4-.3-.6-.5-.15,.05-.25,.1-.4,.15-.05-.1-.1-.2-.15-.25-.05-.05-.15-.1-.15-.15-.05,.1-.15,.15-.15,.2,0,.1,.05,.2,.1,.3s.05,.25,.1,.4l-.05,.05c-.2-.2-.45-.35-.6-.55-.25-.2-.25-.55-.6-.65,0,.2,.05,.4,.05,.55-.35,.05-.45,0-.45-.3-.05-.35-.1-.7,0-1.05,.1-.2,.25-.55-.2-.7v-.3c0-1.35-.45-2.59-.65-3.94-.15-.7-.25-1.5-.4-2.24-.15-1.05-.3-2.09-.4-3.19-.2-1.15-.35-2.34-.5-3.54q-.05-.35-.4-.3c-1.35,.15-2.64,.2-3.99,.4-.35,.05-.7,0-1,.2,0,0-.1,0-.15-.05-.25-.05-.5-.05-.75-.1,.05,.1,.05,.15,.1,.25-.4-.1-.7-.15-1-.25-.1,.3-.2,.65-.3,1.05-.05,.55-.25,1.15-.35,1.75-.1,.5-.1,1.1-.25,1.7-.1,.6-.25,1.15-.35,1.75-.1,.3-.15,.65-.25,1.1-.25-.15-.35,0-.4,.2,0,.15-.05,.3-.05,.5-.1,.4-.15,.8-.2,1.2-.05,.2-.05,.35-.1,.7,.15-.15,.3-.25,.5-.35,0,.6,.05,1.2,.05,1.75,0,.35,0,.7-.4,1v-.5c-.15,.4-.45,.8-.25,1.25-.2,.25,0,.55,0,.75,.05,.25-.05,.45-.1,.7-.1-.15-.15-.25-.25-.45-.1,.45-.2,.8-.25,1.15h.4c.1,.15,.2,.2,.35,.4-.35,.35-.85,.2-1.35,.3,.1,.15,.2,.25,.35,.4-.25,0-.35,0-.5-.2-.05-.05-.2-.05-.3-.1v-.4c-.3-.1-.35-.25-.25-.55v-.4h-.1c0,.2-.05,.35-.1,.55,0,.25-.05,.55-.25,.75-.1,.15-.15,.35-.3,.6-.05-.2-.05-.45-.1-.45-.2-.05-.15-.3-.4-.4,0,.1-.05,.2-.05,.3-.05,.1-.15,.25-.15,.25-.25-.05-.2,.1-.25,.25-.05,.1-.1,.2-.2,.25-.3-.05-.45-.35-.65-.6-.05,.1-.1,.15-.15,.15,0-.45-.6-.25-.65-.7,.35-.3,.9-.6,.65-1.4-.25,.55-.4,1.05-.9,1.35-.1-.05-.3-.15-.5-.15-.05-.2-.05-.45-.05-.6,0-.3-.05-.4-.4-.4,.1-.25,.15-.4,.2-.65,.05-.15,.1-.35,.15-.55,.05-.15,.05-.4,.1-.5,.4-.45,.5-1,.6-1.6,.15-.6,.2-1.2,.25-1.84,.15-1.45,.35-2.84,.7-4.24,.2-.9,.3-1.79,.45-2.69,.1-.6,.2-1.15,.3-1.75,.3-1.2,.5-2.44,.75-3.64,.15-1.05,.3-2.09,.5-3.09,.3-1.79,.65-3.59,1.15-5.39,.2-.9,.35-1.79,.55-2.69,.1-.9,.3-1.79,.5-2.69,.1-.7,.25-1.35,.45-2.09,.1-.6,.25-1.15,.35-1.75,.05-.3,0-.65,.05-.95,0-.25,.05-.6,.1-.9,.2,.25,.6,.3,.5,.75,.4-.4,.4-.9,.2-1.5,.05,0,.05-.05,.1-.05,.25-.05,.5,.3,.7,.25,.3-.05,.5,.05,.75,.15,0-.05,.1-.1,.15-.2,.15,.3,.35,.35,.6,.3,.3,.25,.1,.6,.15,.9,.6-.1,.35-.7,.6-.9,.4,.4,.9,.55,1.55,.45-.05-.25-.05-.4-.05-.65,.1,.05,.15,.15,.2,.2q.15,.3,.4,.15Zm-10.57,36.45s-.05,.05-.05,.1c-.05,.15,.05,.25,.15,.1,0-.05-.05-.15-.05-.25l-.05,.05Zm2.89-11.57c.1-.55,.2-1.05,.35-1.5-.3,.4-.45,1.1-.35,1.5Zm2.19-24.98s.1-.05,.1,0c.1,.1,.1,.15,0,.25-.15-.1-.2-.15-.1-.25Zm2.34,14.86c-.25,.35-.3,.75-.25,1.15,.15-.4,.25-.75,.3-1.1-.05,0-.05-.05-.05-.05Zm.85-2.19c-.2,.85-.5,1.6-.65,2.34-.15,.7-.15,1.35-.2,2.04t.05,.1c1.4,0,2.79-.45,4.19-.3-.4,.15-.75,.2-1.15,.25-.95,.05-1.9,.15-2.84,.25-.1,0-.2,.05-.25,.1v.1c.3,0,.6,0,.9-.05,.8-.05,1.6-.15,2.34-.25,.35,0,.7-.05,1-.1,.3,0,.6-.1,.9-.15v-.1c-.2-.05-.3-.1-.5-.15v-.05c.15-.05,.3-.1,.45-.1,0-.15-.05-.3,.05-.3,.2-.1,.15-.3,.15-.5-.2-.85-.35-1.65-.5-2.49-.1-.65-.25-1.35-.3-2-.15-1.4-.4-2.84-.65-4.24-.05-.2-.15-.3-.35-.3-.4-.05-.85-.1-1.3-.15-.15,0-.3,.05-.35,.2s-.1,.4-.1,.55c.05,.6-.15,1.15-.2,1.7,0,.15-.05,.4-.2,.45-.5,.5-.4,1.2-.55,1.79h.3c-.1,.45-.15,.9-.25,1.35Zm-.8-12.52q-.05,.35,0,.7c.25-.35,.25-.4,0-.7Zm1.1,10.62h.1c-.05,.15-.1,.35-.15,.55,0-.2,0-.4,.05-.55Zm.45-4.19c-.05,.25-.1,.45-.15,.7v.4h.1c-.05-.15-.1-.3-.1-.45,.2-.2,.2-.25,.15-.65Zm.3-6.58s-.05-.05-.05-.1,.05-.1,.1-.1,.1,0,.15,.05c0,.05-.05,.05-.05,.1-.05,0-.1,.05-.15,.05Zm.8,1.2v-.2c-.05,.05-.05,.1-.1,.15t.1,.05Zm.05-1.55q.1,.2,0,.3v-.3Zm1.3,.55c.1,.35,.25,.65,.35,1,.35-.1,.4-.15,.3-.4-.1-.15-.15-.3-.25-.45-.05-.1-.15-.15-.25-.25-.05,.05-.1,.05-.15,.1Zm4.84,6.93c-.05-.3-.05-.55-.1-.8-.05,.05-.1,.05-.1,.05,.05,.2,.05,.45,.15,.75h.05Zm.35-.65c0,.35,.05,.65,.05,.95,0,.35,.05,.75,.05,1.1h.1c0-.2,.05-.4,0-.6,0-.15,.05-.4-.15-.5,.15-.3,.15-.6-.05-.95Zm.35,2.99v.25h.05v-.25h-.05Zm.4,2.24v0Zm.8,24.18c-.15,.25-.4,.55-.3,.9,.1-.35,.3-.55,.3-.9Zm.3-.7c-.1-.25,.15-.55-.1-.85-.2,.45-.2,1.05,.25,1.7,.2-.35-.05-.55-.15-.85Zm.35,2.19c.1-.1,.15-.2,.25-.35-.05,0-.1,0-.1-.05-.1,.15-.15,.25-.25,.35t.1,.05Zm1.15-1.25v-.15s-.2-.05-.35-.15c.05,.3,.15,.35,.35,.3Zm.1-2s-.1,.1-.1,.2c-.05,.1-.05,.15-.1,.3q.25-.2,.2-.5Zm.35-.95v1.1c.25,0,.45-.1,.45-.3,0-.3,0-.65-.3-.8h-.15Z"/>
      <path class="cls-1" d="M76.05,18.39v-.05s.05-.1,.15-.15c0,0,0,.05,.05,.05-.05,.05-.15,.1-.2,.15Zm6.53,15.11h.1c0,.15,.05,.3,.05,.45,.05,1.1,.15,2.14,.2,3.24,.05,1.2,.05,2.44,.05,3.74,0,.15-.1,.35-.15,.55-.1-.1-.2-.2-.25-.3-.15,.8,.1,1.6,0,2.44h.95c-.2-.15-.25-.15-.7-.2-.05-.25,.1-.25,.3-.25,.4,.05,.85,.1,1.25,.25,.25,.05,.45,.2,.35,.55,.6,.45,1.35,.45,2.04,.8-.1,.05-.1,.1-.25,.2,.3,0,.5-.05,.65,0,.15,.1,.3,.15,.55,.05,0,.1,.1,.2,.15,.35-.55,.15-1.05-.2-1.55-.05,.3,.05,.55,.1,.95,.2-.05,.15,0,.25,.2,.35,.2,.1,.25,.35,.4,.55,.1-.05,.2-.1,.3-.1,.05-.05,.25-.05,.25,0,.1,.3,.4,.2,.75,.3-.5,.25-.85,0-1.25,.05-.05,.05-.15,.1-.2,.25,.35,.25,.7,.25,1.1,.25-.2,.25-.4,.3-.65,.25-.35-.05-.7-.1-1.05-.2,.15,.35,.2,.55,.35,.8,.1,.1,.3,.15,.5,.1,.2-.1,.2-.2,.2-.55h.45c.1,.05,.25,.05,.4,.1-.15,0-.3,.05-.5,.1,.2,.1,.35,.15,.55,.25h-.3c-.25,.1-.55,.25-.75,.4-.1,.05-.15,.15-.15,.2s.15,.1,.3,.2c0,.2,.05,.45,.1,.7-.15,.15-.35,.35-.55,.5-.05,.05-.25,.15-.35,.1-.25-.2-.55-.1-.9-.2-.6-.15-1.25-.3-1.85-.45-.2-.05-.4-.15-.6-.25v.25c-.1,.25-.35,.3-.45,.1-.1-.15-.25-.15-.4-.2-.25-.05-.4-.1-.65-.15-.1-.05-.2-.1-.25-.05-.35,0-.6,.05-.85,.1v.2c-.35-.4-.7-.25-1.05-.2-.2,.05-.3,.05-.5,.05-.35,0-.4,.05-.6,.4-.1-.15-.1-.25-.2-.3-.05,.05-.05,.1-.1,.15s-.1,.15-.15,.15-.1-.1-.1-.15c-.05-.2-.2-.3-.45-.3-.1,0-.2-.15-.35-.25,.05-.1,.1-.2,.1-.3,.05-.05,.05-.15,.05-.2-.25-.1-.5,.15-.7-.1v-.3c.2,0,.4,0,.5,.05q0-.25-.8-.2c.05-.15,.1-.25,.1-.3,.05-.1,.05-.2,.1-.3-.15,0-.25-.05-.35-.05,0,0-.05,.05-.15,.05v-.45c.3,.15,.5,.1,.6-.15-.05-.2-.1-.45,0-.65,.15-.25,.05-.5,0-.75-.1-.55-.25-1.15-.3-1.7-.05-.25,.05-.5,.05-.8,.25-2.14,.2-4.29,0-6.43-.05-.7-.05-1.35-.1-2.04-.05-.55-.1-1.05-.15-1.55-.15-1.79-.3-3.69-.4-5.58v-2.39c.05-1.75,0-3.54,.05-5.34,0-.25-.1-.35-.3-.55,.15-.05,.2-.05,.25-.05,0-.45,.05-.8,.05-1.15,0-.1-.1-.2-.15-.3,.3-.75,.2-1.5,.3-2.24,.05-.2,.05-.4,.1-.6,.05-.15,.15-.3,.3-.3,.25-.05,.3-.2,.4-.35,.05,0,.1-.05,.15-.1,.25-.05,.55-.2,.65-.45,.1-.15,.3-.1,.4,0,.05,.1,.15,.1,.3,.2,.1-.15,.15-.3,.2-.5,.2,.25,.1,.4,.15,.65,.1,.05,.2,.05,.3,.1,.15,.3,.25,.55,.1,.95-.1,.25-.1,.55-.1,.9,.1-.25,.25-.45,.45-.8,0,.25,0,.4,.05,.6,.2-.3,.3-.55,.4-.85,.15,.05,.35,.1,.55,.2-.1-.35,.2-.45,.35-.6,.05-.1,.2-.05,.35-.05,.05-.1,.1-.25,.2-.4,.15,.3,.3,.55,.35,.75,0,.25,.05,.4,.35,.5,0,.2-.05,.4,0,.6,.1,.25,.05,.55-.15,.75-.2,.15-.2,.35-.2,.55,0,.6-.05,1.15-.05,1.75,0,.2-.05,.35-.2,.5-.2,.2-.2,.5-.15,.75v1.65c0,.4,0,.8,.05,1.3,0-.1,.05-.2,.05-.3,.05,0,.1,.05,.15,.05,.05,.2,.1,.3,.1,.5,0,.9-.05,1.75-.05,2.64s.05,1.79,.1,2.69c0,.45,.05,.95-.05,1.4-.15,.6,.05,1.2,.05,1.79,0,.4,0,.75-.05,1.15,0,.45,0,.8,.15,1.15,.05-.15,.1-.3,.15-.5Zm-3.09-17.9c-.1-.2-.1-.3-.15-.45q-.1,.25,.15,.45Zm.9-1.6q.15,.25-.05,.65c-.1-.2-.15-.35-.25-.55,.1-.05,.2-.1,.3-.1Zm1.5,9.47v0Zm1.3-8.08c.1,.4,.05,.6-.3,.85,.1-.35,.2-.55,.3-.85Zm4.74,32.11q-.2,.25-.45,.1c.15-.05,.25-.05,.45-.1Zm.6,1.65c.35-.2,.55-.6,1.05-.35,.15,.3-.2,.3-.3,.5-.2-.05-.5-.05-.75-.15Z"/>
      <path class="cls-1" d="M91.61,15.79c-.1,.55-.5,.65-1,.45v-.25c.25,0,.45,.05,.65,.1,0-.3,0-.55-.05-.85,.3,.15,.3,.4,.4,.55Zm-.75,1.1h.05c.05,0,.1,.05,.1,.1v.2c-.1-.15-.1-.2-.15-.3Zm.65,.1c-.4-.3-.3-.55,.35-.7,.05-.5-.2-.9-.35-1.35-.05-.15-.15-.35-.2-.5q-.2-.45,.25-.8s.15,.15,.2,.2c.1-.05,.15-.15,.2-.3,.25,.5,.05,1,.3,1.45,.15-.1,.15-.2,.15-.3,0-.25-.05-.5,0-.7,.1-.35,0-.65-.35-.85,.25-.4,.65-.65,1.1-.55,.1,0,.15,.05,.25,.05,.45,.05,.65,.4,.45,.85-.05,.15-.2,.3-.05,.5,.4-.2,.7-.4,1-.55v-.8c.35,.1,.65,.15,.75,.45,.05,.1,.25,.15,.4,.25,.05,.15,.05,.3,.05,.5,.45-.9,.3-1,.15-1.65,.75,.25,1.05,.9,1.2,1.6,.2,.8,.3,1.65,.2,2.44-.05,.2,0,.4,0,.55,.05,.55-.05,1-.35,1.45-.15,.2-.1,.5-.05,.75,.05-.1,.1-.25,.2-.45,.1,.25,.15,.45,.1,.7-.25,1.05-.1,2.09,.05,3.14,.25,1.65,.45,3.29,.3,4.99,0,.4,.15,.85,.1,1.25-.1,.95,.25,1.8,.25,2.69,.05,1.15,.1,2.34,.05,3.44-.1,.7-.1,1.35-.15,2.04-.1,.95,.05,1.84,.1,2.79,.05,1,0,2.09,0,3.14v.8c0,.25,.1,.55-.3,.7-.05,0-.05,.25-.1,.35-.05,.35-.05,.7-.05,1.05-.05,.2,.05,.25,.15,.35,.15,.1,.4,.2,.45,.45-.6-.15-.7-.25-.9-.85-.1,.25-.05,.4-.05,.65,.05,.15,.05,.4,.05,.6h1.2c-.35,.8-.7,1.5-1.3,2.09-.05-.05-.1-.1-.1-.2-.05,0-.05-.05-.1-.15-.1,.05-.15,.1-.2,.15,0-.15,0-.2-.05-.3,0-.1-.1-.2-.2-.3-.15,.1-.2,.15-.4,.25-.1-.2-.2-.3-.25-.5-.15,.55,0,.85,.4,.95,.1,.2-.05,.5,.3,.6,.1,.05,.15,.35,.1,.45-.1,.2-.3,.35-.45,.5-.15-.15-.25-.3-.35-.45-.25,.05-.4,.25-.35,.6-.1-.05-.25-.05-.4-.1,.05-.2,.3-.4,.05-.5-.2-.1-.35-.1-.6-.15-.05-.05-.05-.15-.15-.3,.1-.05,.2-.1,.3-.15,.2-.2,.4-.3,.6-.5,.1-.05,.1-.2,.1-.3h-.2c-.05-.2-.1-.4-.2-.5-.05-.2-.15-.3-.35-.5-.05,.45-.1,.85-.15,1.3-.05-.2-.15-.3-.25-.5-.1,.15-.2,.3-.25,.4-.1,.1-.25,.15-.4,.25,.05,.1,.35,.2,.2,.45-.05,.15-.15,.3-.2,.5-.2-.1-.4-.2-.5-.3,0-.3,.2-.6-.1-.85-.1,.05-.2,.1-.3,.15-.05-.3-.1-.5-.15-.7-.2-.05-.35-.1-.55-.1,0-.15,.05-.3,.05-.45,.15,0,.25,0,.4,.05,.05-.05,.15-.2,.1-.25-.05-.15-.15-.25-.25-.35,.15-.4,.25-.9-.05-1.4v-.15c.15-.5,.15-.55,.05-.95-.05-.1,0-.3,0-.45v-3.64c-.05-1.3-.05-2.59-.05-3.89,0-.5,.1-1,.1-1.5,.05-1.4-.05-2.74-.15-4.14-.05-.5-.05-.95-.05-1.4,.05-2.04-.2-3.99-.4-5.98-.05-.25-.05-.55-.05-.8-.05-.5-.05-1-.15-1.5-.1-.4-.05-.85,0-1.25,.05-.65,.15-1.25,.15-1.9,.05-.35,.05-.75,.05-1.1,0-.1-.05-.2-.05-.3-.15,.1-.3,.15-.35,.2Zm1.35-4.79c.1-.1,.2-.1,.3,0,.05,0,0,.05,0,.1-.1-.05-.2-.1-.3-.1Zm.7,.05s0,.1-.05,.15c-.1-.05-.2-.05-.35-.1,.15-.05,.25-.1,.4-.05Zm.6,.35c.15,.2,.05,.35-.05,.45,0-.15,.05-.3,.05-.45Zm1.84-.1s.05,.15,.05,.15c0,.1-.05,.2-.1,.2s-.2-.05-.2-.1c-.1-.1-.1-.2-.15-.3,0-.05,.05-.05,.05-.1,.15,.05,.25,.1,.35,.15Zm.55,2.49c.15-.45,.25-.9,.05-1.3-.25,.4-.15,.85-.05,1.3Zm1.35,32.26h-1.2c0-.4,.05-.75,.1-1.2-.4,.45-.3,.95-.35,1.4,.55,.4,1,.35,1.45-.2Zm-.8-32.86c-.05-.25-.1-.4-.15-.65,.05,.25-.3,.45,0,.65h.15Zm-.2,20.15v1.15h.1c-.05-.35-.05-.75-.1-1.1v-.05Zm.05,9.82c-.05,.1-.05,.15-.05,.15,0,.65,0,1.3,.05,1.9,.15-.05,.25-.1,.3-.1,0-.25,.1-.5,0-.65-.2-.3-.15-.6-.15-.9v-.35s-.1,0-.15-.05Zm.1-22.44c.05,.15,.05,.25,.1,.45,0-.05,.05-.05,.05-.05,0-.15-.05-.25-.05-.4h-.1Zm.15-5.04s-.05,.15-.05,.25h.1c0-.1,.05-.15,.05-.25h-.1Zm0-1.55v0Zm.4,12.92v-.25h-.05v.25h.05Zm.2,2.44c0-.35-.05-.7-.05-1.05-.2,.35-.05,.7,.05,1.05Zm-.05,8.08c-.1,.2-.1,.35,.05,.55v-.55h-.05Zm.1,2.39v-.55h-.05v.55h.05Zm.65,4.74c-.15-.05-.25-.05-.5-.1,.25-.2,.5-.35,.7-.45v.05c0,.15-.1,.35-.2,.5Zm.3,.4c-.1-.45,.2-.65,.45-.9-.1,.3-.25,.6-.45,.9Z"/>
      <path class="cls-1" d="M100.99,39.18s.2-.15,.35-.25c.3-.2,.35-.25,.3-.65,0-.1,0-.25-.05-.4-.1-.45-.05-.9,.25-1.3,.1,.25,.25,0,.45-.05,0,.05,.05,.15,.05,.2,.15-.2,.1-.55,.5-.5,0-.35-.15-.8,.5-.9-.35,.6-.35,1.2-.35,1.84,.2-.2,.15-.4,.25-.6,.05-.2,.2-.4,.35-.6,.1,.15,.15,.3,.2,.45,.2,0,.4,.05,.45-.15,.1-.3,.15-.55-.3-.65,.25-.15,.65-.05,.45-.5-.2,0-.4,.05-.65,.05,.1-.15,.45-.45,.7-.6,.35,.2,.05,.55,.2,.9,.1-.05,.25-.1,.4-.2,.05-.1,.15-.2,.3-.3,0,.15,0,.25,.05,.4h.05c.15-.4,.4-.7,.75-.95,.25,.05,.5,.15,.75,.2-.1,.55-.4,1.05-.3,1.65,.1-.05,.2-.15,.3-.25,.05,.2,.1,.35,.05,.4-.05,.35-.15,.65-.2,.9-.05,.45-.1,.9-.05,1.35,.1,1.6,.55,3.09,1.3,4.49,.15,.2,.3,.45,.55,.5,.4,.25,.75,.4,1.2,.65,.25-.5,.45-.9,.65-1.35,.1-.45,.25-.9,.45-1.35,.25-.85,.25-1.7,.2-2.59,0-.35-.05-.6-.05-.9,0-.8-.15-1.55-.55-2.19-.1-.15-.2-.35-.25-.45-.5-.85-1.15-1.4-2.04-1.75-.2-.05-.35-.25-.5-.4-.75-.55-1.5-1.1-2.09-1.84-.5-.6-.9-1.3-1.25-1.94-.5-.9-1.05-1.8-1.5-2.74-.2-.4-.35-.9-.45-1.4-.15-.8-.35-1.65-.4-2.49-.05-.6-.05-1.25,.1-1.84,.15-.4,.15-.85,.2-1.25,.05-.6,.05-1.2,.45-1.7,.05-.05,.05-.15,.05-.25,.1-.3,.1-.7,.5-.85,.05-.05,.1-.25,.15-.35,.2-.55,.45-1.05,.8-1.45,.2-.2,.45-.3,.7-.4,.1-.05,.15-.1,.35-.2h-.35s.05-.1,.1-.1c.35-.05,.5-.15,.6-.55,.05-.2,.3-.35,.35-.45,.35-.15,.55-.25,.85-.35,.05,0,.1,.05,.2,.05,.05-.05,.1-.05,.2-.1,.05-.05,.1-.05,.15-.1,.2-.25,.6,.1,.75-.3,.2-.1,.5-.2,.7-.25,.3-.05,.7-.1,1,.1,.25,.1,.55,.05,.9-.2,.05,.1,.1,.2,.1,.25,.1-.05,.1-.1,.2-.2,.35,.3,.8,.4,1.15,.55,.25,.1,.55,.05,.7,.35,.05,.05,.2,.1,.3,.1,.2,0,.4,.1,.5,.2,.6,.4,1.2,.7,1.7,1.2,.1,.1,.25,.25,.25,.5,.25,0,.4,.1,.55,.4,.15,.35,.45,.7,.65,1.05,.15,.3,.25,.55,.3,.85,.05,.2,.1,.35,.25,.4,.2,.1,.25,.3,.25,.45,.05,.15,.05,.35,.1,.45,.3,.45,.3,.95,.4,1.5v.85c0,.15-.05,.25-.15,.45,0,0,0,.1,.05,.2,.15,.3,.15,.6,0,.9-.1,.15-.15,.35,0,.6,.15,.25,.25,.55-.05,.9,.15,0,.15,.05,.25,.1,.1,.4,.05,.5-.1,.55-.3,0-.2-.25-.35-.45-.1,.4,.1,.8,.05,1.15-.15,.05-.2,.1-.35,.15,0-.05,.05-.1,.05-.15s-.05-.15-.1-.2c-.05,0-.15,.05-.15,.05,0,.1,0,.15,.05,.2,0,.05,.1,.05,.15,.1-.1,.05-.15,.15-.25,.2-.3,.1-.55-.1-.5-.4,.05-.1,.05-.25,.1-.35,.25-.4,.05-.7-.2-1.1-.05,.5-.1,.85-.2,1.3-.1-.2-.1-.3-.2-.5-.2,.3-.35,.6-.55,.8-.15-.15-.25-.4-.45-.65,.05,.15,.05,.3,.05,.45-.25,.1-.25-.1-.35-.2-.05,.1-.15,.15-.25,.25-.05-.15-.1-.25-.15-.35-.3,.05-.25,.35-.3,.5-.25-.3-.1-.6-.15-.95-.1,.05-.25,.1-.4,.2-.05-.2-.15-.35-.2-.55t-.1,.05c.05,.25,.1,.55,.2,.8,.05,.05,.15,.05,.2,.05,.1,.35,.2,.65,.3,1-.05,.1-.2,.1-.4-.05-.1-.15-.2-.3-.5-.2,.05,.1,.1,.2,.1,.35-.05-.05-.1-.05-.1-.05-.1-.05-.3-.1-.4-.2-.35-.3-.35-.65-.2-1,.15-.35,.15-.6,.05-.9-.05-.5-.15-1-.05-1.55,.1-.7,.15-1.35,0-2.04-.2-.55-.4-1-.75-1.5-.45-.8-1.25-1.1-2.09-1.2-.3-.05-.6,.1-.75,.35-.3,.25-.6,.55-.8,.9-.15,.25-.25,.55-.3,.9-.05,.2-.1,.35-.25,.55-.15,.1-.25,.4-.2,.55,.2,.7,0,1.4,.25,2.14,.05,.1,.1,.3,.05,.45-.15,.25,.05,.4,.15,.55,.4,.75,.8,1.45,1.2,2.14,.1,.3,.25,.6,.45,.9,.25,.35,.55,.65,1,.85,.25,.05,.45,.15,.7,.3,.15,.1,.2,.25,.35,.4-.05,0-.05,.05-.05,.05-.3-.15-.6-.25-.9-.35t-.05,.05s.1,.05,.15,.1c.2,.15,.45,.25,.65,.35,.35,.05,.6,.25,.75,.55,.05,.05,.1,.1,.15,.1,.3-.05,.45,.15,.75,.3-.3-.45-.8-.7-1.2-1.2,.2,0,.25,0,.3,.05,.3,.2,.5,.5,.85,.6,.95,1.05,1.95,2.04,2.64,3.29,.15,.2,.2,.45,.25,.75,0,.05,0,.1-.05,.15-.1-.1-.2-.2-.35-.35-.05,.3-.05,.6,.1,.8,.3,.35,.5,.7,.75,1.15-.05-.3-.1-.5-.2-.75,.25-.05,.35,.05,.35,.25,.1,.45,.2,.95,.3,1.45,0,.6,.05,1.2,.1,1.84,.05,.5,.15,1,.2,1.5,0,.35,0,.75-.2,1.05-.05,.15-.1,.25-.1,.4,0,.95-.25,1.84-.5,2.74-.2,.6-.35,1.1-.5,1.7-.05,.15-.1,.3-.2,.45-.15-.05-.15-.1-.25-.15-.1,.2-.2,.4-.3,.55q.3,.15,.6-.05c-.25,.7-.55,1.3-.8,1.94q-.25-.1-.15-.55-.55,.15-.9,1c-.1-.05-.15-.1-.2-.1-.2,.05-.4,.1-.5,.15-.35,.05-.7,.05-1,.15-.2,0-.35,.05-.3,.2,.3-.05,.6-.15,.95-.2,.1,0,.25-.1,.35-.15,.05,.2,.05,.3,.1,.45-.25,.15-.45,.2-.7,.35,.15,.1,.25,.15,.3,.15,.4-.15,.75-.3,1.1-.45-.25,.4-1.15,.75-1.6,.75,.05-.05,.1-.1,.2-.2-.5-.05-.95-.1-1.45-.2-.1,.35-.3,.45-.6,.4-.45-.1-.95-.15-1.45-.3-.25-.05-.45-.15-.75-.15,.9,.4,1.95,.55,2.94,.8-.1,.05-.2,.1-.25,.05-.25,0-.5-.1-.8,0h-.1c-1.05-.35-2.19-.55-3.24-.9-.15-.05-.3-.1-.35-.25-.15-.25-.4-.4-.6-.55-.3-.2-.65-.4-.95-.6-.15-.3-.25-.6-.4-.95-.05-.1-.2-.2-.3-.25-.25-.1-.3-.25-.4-.45-.15-.35-.25-.75-.65-1,.2,.8,.75,1.45,.95,2.29-.15-.15-.3-.3-.35-.5-.55-1-1.15-1.94-1.65-2.99-.5-1.15-1.15-3.69-1.35-4.89,.1-.05,.2-.1,.25-.25Zm.5,1.5c-.05-.1-.05-.2-.1-.25h-.05s.05,.15,.05,.25h.1Zm.6-4.44s-.05-.05-.05-.1c.05-.05,.1-.15,.15-.2,.05,.05,.1,.05,.1,.05-.05,.1-.1,.15-.2,.25Zm1,9.08c-.25-.55-.45-.95-.65-1.35,0,.55,.25,1.05,.65,1.35Zm0-2.04c.05,.15,.15,.35,.2,.45,0,0,0-.05,.05-.05-.05-.1-.1-.25-.15-.4h-.1Zm.75-7.28h.1s-.05,.15-.05,.2h-.1s.05-.15,.05-.2Zm1.94,13.21c-.35-.1-.5-.2-.7-.45-.1-.2-.25-.4-.4-.65,.1,0,.15,.05,.2,.05,.3,.4,.65,.75,.9,1.05Zm-.6-13.16v-.25h-.1c-.05,.2-.1,.35-.2,.6,.1,0,.2,.05,.4,.05-.05-.2-.1-.3-.1-.4Zm1.89-.3c-.15-.2-.25-.3-.1-.6,.2,.15,.35,.3,.1,.6Zm.85,13.71c-.15-.05-.25-.05-.4-.1v.05c.15,.05,.25,.05,.4,.1v-.05Zm4.09,.75c-.15,.15-.2,.15-.35,.1v-.1h.35Zm.7-24.58v.05c.05,.1,.2,.2,.2,.1s-.05-.1-.1-.2c0,0-.05,0-.1,.05Zm1.55,6.18c.05,.05,.15,.1,.2,.15h.05c-.05-.1-.1-.15-.15-.2t-.1,.05Zm.75,.95s.1,.1,.15,.1,.05-.05,.1-.05l-.15-.15-.1,.1Zm.1-6.83c.2-.05,.2,.05,.25,.25-.15-.1-.2-.15-.25-.25Zm.55,18.3c-.05,.1-.05,.25-.1,.35,0,0,.05,0,.05,.05,.05-.1,.1-.25,.15-.4h-.1Zm.75-2.59c-.05,.1-.05,.2-.05,.2,0,.05,.05,.05,.05,.05,.05-.05,.05-.15,.05-.25h-.05Zm.2-2.04c.1-.3,.15-.6-.1-.9,.05,.3,.1,.6,.1,.9Z"/>
      <path class="cls-1" d="M134.5,43.82c-.1,.25-.15,.4-.25,.6l-.1,.1c-.15,0-.25-.05-.35,.1-.1,.2-.15,.4-.25,.7,.5-.05,.65-.45,1.05-.65,.1,.1,.2,.2,.05,.3-.2,.35-.45,.6-.7,.9-.2,.15-.5,.15-.7-.05-.05,.05-.15,.15-.2,.3-.1-.15-.2-.25-.25-.35-.15,.05-.25,.1-.2,.3,.05,.25,.1,.45,.1,.7,0,.2,.05,.45-.2,.6-.1,.15-.15,.35-.2,.6-.15-.3-.3-.55-.45-.8-.05,.05-.15,.15-.15,.2,0,.35-.15,.65-.5,.7,0,.1,.05,.25,.05,.45,.25-.25,.45-.45,.65-.65,.05,.05,.1,.15,.15,.25,.3,.5,.25,.8-.35,1-.05,0-.1,.05-.05,.05-.2,.25-.25,.45-.4,.7-.25-.6-.5-.9-.75-1.05-.05,.3,.15,.65-.15,.95h-.35c.1-.2,.1-.3,.2-.35q-.15-.3-.65-.4c-.1-.25-.2-.5-.35-.85h1.05c-.05-.4-.05-.7-.1-1.15-.15,.2-.35,.35-.5,.6,0,.05,.1,.15,.15,.3h-.15s-.15-.15-.3-.2c-.1,.2-.15,.4-.25,.45-.15,.1-.35,.1-.55,.1-.1,.1-.2,.3-.25,.4,0,0-.05-.05-.1-.05,.05-.45,.35-.9,.25-1.4-.45,0-.3,.45-.6,.65,0-.1-.05-.2-.05-.25-.1-.15-.1-.4-.2-.45-.35-.4-.2-.7,0-1,.05-.1,.15-.2,.2-.3l.25,.25c.15-.3,.3-.55,.1-.85-.05-.05-.05-.15,0-.25,.15-.95,.05-1.99,0-2.99-.1-1.3-.3-2.54-.2-3.84,.05-.5,0-1.05-.05-1.6-.05-1.2-.1-2.44-.15-3.74-.05-1.84-.1-3.74-.2-5.63-.15-2.04-.2-4.14-.15-6.18,0-.45-.05-.9-.1-1.4-.35,.05-.65,.1-.95,.15-.45,.05-.95,.05-1.45,.15-.5,.05-1,.15-1.5,.25-.4,.05-.8,.05-1.2,.2-.15,.05-.3-.05-.5-.1,.05,0,0,0,0,0-.5,.35-.6,.3-.95-.1-.1-.05-.1-.1-.15-.2-.05-.15,.05-.3,.15-.45,.2-.1,.3-.2,.4-.35,.05-.1,.05-.15,.1-.25-.1-.05-.15-.2-.3-.4-.2,.15-.3,.3-.55,.4-.1-.2-.15-.45-.2-.7-.05,0-.15,.05-.3,.05,.05-.1,.05-.15,.1-.15,.25-.1,.55-.1,.8-.2-.05-.4-.4-.4-.75-.4,.15-.2,.25-.35,.35-.5-.1-.25-.2-.5-.25-.8-.15,0-.3-.05-.5-.1,.35-.5,.8-.7,1.2-.95,.5-.3,1-.25,1.55-.3-.15-.05-.3-.1-.45-.2,.3-.2,.55-.25,.9-.25,.5,0,.95-.05,1.45-.1h.45c.25,.05,.45,0,.7-.15,.2-.15,.5-.2,.8-.25,1.6-.35,3.29-.35,4.94-.25,.7,0,1.35-.15,2.04-.05,.55,.1,1.2-.1,1.79,.2-.1,.05-.2,.1-.4,.15,.2,.05,.3,.1,.4,.1,.6,.1,1.25,.15,1.84,.2,.25,.05,.45,.1,.6,.3,.05,.05,.2,.1,.3,.1,.3-.05,.5-.1,.8-.15,.25-.05,.5-.1,.65,.15l-.15,.15c.25,.2,.55,.2,.9,.2-.15,.1-.35,.2-.5,.3,.25,0,.5,.05,.75,.05,.05,.05,.1,.1,.2,.15-.4,.25-.65,.45-.75,.9v-.05c-.2,.15-.5,.2-.75,.3v.1c.15-.05,.3-.1,.45-.1,.4-.05,.4-.1,.6,.25,.2-.2,.25-.55,.55-.5,.1,.2,.25,.35,.35,.55-.2,.15-.45,.25-.7,.15-.25-.05-.45,.1-.65,.25,.05,.05,.05,.1,.1,.1,.55,0,1.05,.15,1.6-.1,.25-.15,.55-.15,.85-.2,.1,.2,.1,.35-.05,.4-.25,.05-.45,.15-.7,.25-.05,.05-.15,.1-.25,.2h.9c-.2,.1-.3,.2-.45,.3-.15,.05-.2,.15-.35,.2-.25,.25-.55,.25-.8,.3-.2,0-.4,.05-.55,.15-.35,.3-.4,.4-.6,.35-.6,0-1.15,.3-1.84,.5,.1-.15,.15-.2,.2-.3-.15-.1-.25-.1-.3,.05-.15,.2-.35,.2-.5,.15-.4-.05-.8-.2-1.15-.1h-.2c-.7-.25-1.65-.3-2.29-.2-.05,0-.1,.05-.1,.05,.05,.65-.1,1.25-.35,1.84,0,.05-.05,.15,0,.25,0,.8,0,1.65,.05,2.49,.2-.65,0-1.3,.05-1.95l.05-.05c.05,.15,.05,.25,.05,.35,.05,.25,.05,.55,.1,.75,.05,.6,.1,1.2,.15,1.79,.05,.9,.1,1.79,.15,2.74,.05,.2,.05,.5,.05,.75,.05,.5,.05,1.05,.1,1.55v.35c-.1,.75-.1,1.55-.05,2.29,0,.05-.05,.15-.15,.2,0-.35,0-.65-.05-.9,0,0,0-.05-.05-.05-.05,.15-.1,.35-.15,.5,0,.35,0,.65,.05,.95,0,.2-.05,.5,.3,.55,.05,0,.1,.1,.1,.2,.05,.15,.05,.35,.05,.55,.1,1.35,.15,2.74,.2,4.09,0,.75,.05,1.45,.1,2.19v1.45c0,.25,0,.35,.25,.6-.05,.15-.1,.25-.1,.35-.15,.05-.3,.05-.5,.1,.1,.2,.25,.2,.35,.2,.1-.05,.1-.2,.15-.3,.05,.3,.2,.4,.55,.5Zm-14.76-28.52c.1-.3,.15-.35,.6-.15-.25,.05-.45,.1-.6,.15Zm.6,4.69c.15-.15,.2-.05,.3,0h-.3Zm.75-2.29c.25-.05,.5-.05,.75-.1q-.55-.05-.75,.1Zm4.54-2.99h.35v-.05h-.35v.05Zm.75-.5c-.1,0-.25,.05-.3,.05v.1h.35s0-.1-.05-.15Zm.95,31.67h.3c-.15,.15-.2,.2-.25,.3-.1,.15-.15,.4-.25,.6l-.15,.15c0-.4,.05-.7,.35-1.05Zm1.4,.45c-.05-.15-.1-.3-.1-.45-.05,0-.1,0-.1,.05,0,.1,0,.25,.05,.4h.15Zm-.05,.7c-.1,.2,.1,.4,.1,.6h.15v-.65c-.15,0-.2,0-.25,.05Zm1.89-12.37v.55h.05v-.6s-.05,.05-.05,.05Zm.45,11.17c.1-.4,0-.55-.35-.9,0,.35-.05,.7-.1,1.1,.3,.1,.4-.1,.45-.2Zm1.15-31.81h.55v-.05h-.55v.05Zm.2,31.91c.15-.15,.2-.4,0-.65v.65Zm.35-26.43c-.2,.4-.15,.8-.05,1.3,.15-.5,.15-.95,.05-1.3Zm0,10.02c-.05-.2,.1-.4-.1-.7v.75s.05-.05,.1-.05Zm.1,18.65q0-.2,.2-.4c-.1,.15-.15,.3-.2,.4Zm.1-21.54v-.35h-.05v.35h.05Zm.3,3.14c.05-.1,.05-.3,.05-.45h-.15c-.2,.55,.1,1.2-.15,1.75,.25-.45,.1-.9,.25-1.3Zm.55,16.46c.05-.05,.2-.1,.3-.05,.1,0,.2,.1,.1,.25-.05,.1-.15,.25-.2,.35-.1,.1-.2,.2-.35,.2-.2-.1-.35-.1-.65-.15,.3-.25,.55-.45,.8-.6Zm-.75-24.83v-.2h.05s0,.1-.05,.2Zm.2,13.81v-.45h-.05v.45h.05Zm.25,5.63v.7h.05v-.7h-.05Zm.15,1.75q.1-.3-.1-.55c0,.2-.05,.35-.05,.55h.15Zm.55,.05s-.1-.05-.15-.05c0-.05,.05-.1,.05-.1,.05,0,.1,.05,.1,.05t.05,.1s-.05,.05-.05,0Zm2.24-28.02h.55v-.1c-.15,0-.35,.05-.55,.05v.05Zm1.94,.25c-.35,0-.6-.05-.9,.15,.3,.1,.6,.05,.9-.15Zm1.2,3.54c.1-.05,.15-.1,.25-.15l-.05-.05c-.1,.05-.15,.1-.2,.15v.05Zm.7-2.24c-.15,.35-.35,.2-.55,.25v.05c.2-.1,.3-.2,.55-.3Z"/>
      <path class="cls-1" d="M156.3,11.75s.1-.1,.2-.15c.1,.25,.15,.55,.25,.85,.2-.15,.3-.25,.2-.45-.05-.2,0-.3-.05-.5,0-.2,.1-.35,.3-.35-.1-.3-.15-.6-.25-.85,0-.05,.05-.05,.05-.05,.05,.05,.2,.1,.2,.15,.05,.1,.1,.3,.15,.45,.05,.15,.1,.3,.15,.45q.15-.1,.15-.85c.1,.2,.15,.35,.2,.4,.15,.35,.25,.6,.35,.9,.05,.1,.05,.3,.15,.45,.1,.3,.2,.5,.35,.85,.2-.2,.3-.35,.45-.5,.15,.1,.25,.1,.3,.2,.25,.2,.35,.2,.55,0,.15-.1,.25-.15,.35-.3,.3,.2,.4,.55,.5,.85,.1,.25,.2,.5,.55,.6-.05-.35-.1-.6-.15-.85,.35,.2,.45,.5,.5,.85,.3,1.2,.55,2.34,.85,3.54,.1,.6,.2,1.25,.3,1.95,.15,.9,.15,1.79,.4,2.74,.05,.25-.15,.35-.3,.4,.05,.2,.05,.35,.05,.55,.05-.1,.1-.1,.15-.2,0-.05,0-.15,.1-.2,.05,.2,.15,.35,.2,.6,.2,1.3,.45,2.59,.6,3.89,.1,.75,.15,1.5,.3,2.19,0,.7,.15,1.4,.3,2.09,.05,.4,.1,.8-.15,1.15-.05,.15-.05,.35-.05,.5,.05,.45,.1,.85,.35,1.25-.05-.25-.05-.55-.1-.8,.3,.2,.35,.55,.4,.8,.1,.5,.1,.95,.15,1.45,.05,.85,.2,1.7,.3,2.59-.05-.05-.1-.05-.15-.1-.05,0-.1,.05-.1,.05,.05,.75,.05,1.5,.1,2.19,0,.3,.15,.55,.3,.8-.05-.3-.05-.55-.1-.85,.3,.25,.3,.6,.4,.9,.1,.3,.15,.6,.25,.9,.15,.55,.3,1.05,.45,1.6,0,.15,.05,.25,0,.4-.15,.65,0,1.15,.2,1.79,.1,.4,.2,.85,.3,1.25,.05,.3,.05,.5,.05,.8,.15,.1,.25,.3,.2,.5-.1,.15-.35,.25-.55,.4q.05,0,.1,.05c.05,.2,.05,.35-.15,.4-.15,.1-.25,0-.3-.1-.1-.2-.2-.35-.4-.4-.05,.15-.05,.35-.15,.45-.1,.05-.25,.05-.4,.1,0,.1,0,.2,.05,.35-.05-.05-.1-.05-.1-.1-.1-.2-.15-.35-.4-.35-.05,.1-.05,.25-.05,.5-.2-.2-.3-.35-.5-.5-.05,.15-.15,.35-.2,.5-.05-.1-.15-.2-.2-.3h-.05c0,.15,.05,.3,.15,.45-.35-.05-.4-.3-.6-.5-.15,.05-.25,.1-.4,.15-.05-.1-.1-.2-.15-.25s-.15-.1-.15-.15c-.05,.1-.15,.15-.15,.2,0,.1,.05,.2,.1,.3,.05,.1,.05,.25,.1,.4l-.05,.05c-.2-.2-.45-.35-.6-.55-.25-.2-.25-.55-.6-.65,0,.2,.05,.4,.05,.55-.35,.05-.45,0-.45-.3-.05-.35-.1-.7,0-1.05,.1-.2,.25-.55-.2-.7v-.3c0-1.35-.45-2.59-.65-3.94-.15-.7-.25-1.5-.4-2.24-.15-1.05-.3-2.09-.4-3.19-.2-1.15-.35-2.34-.5-3.54q-.05-.35-.4-.3c-1.35,.15-2.64,.2-3.99,.4-.35,.05-.7,0-1,.2,0,0-.1,0-.15-.05-.25-.05-.5-.05-.75-.1,.05,.1,.05,.15,.1,.25-.4-.1-.7-.15-1-.25-.1,.3-.2,.65-.3,1.05-.05,.55-.25,1.15-.35,1.75-.1,.5-.1,1.1-.25,1.7-.1,.6-.25,1.15-.35,1.75-.1,.3-.15,.65-.25,1.1-.25-.15-.35,0-.4,.2,0,.15-.05,.3-.05,.5-.1,.4-.15,.8-.2,1.2-.05,.2-.05,.35-.1,.7,.15-.15,.3-.25,.5-.35,0,.6,.05,1.2,.05,1.75,0,.35,0,.7-.4,1v-.5c-.15,.4-.45,.8-.25,1.25-.2,.25,0,.55,0,.75,.05,.25-.05,.45-.1,.7-.1-.15-.15-.25-.25-.45-.1,.45-.2,.8-.25,1.15h.4c.1,.15,.2,.2,.35,.4-.35,.35-.85,.2-1.35,.3,.1,.15,.2,.25,.35,.4-.25,0-.35,0-.5-.2-.05-.05-.2-.05-.3-.1v-.4c-.3-.1-.35-.25-.25-.55v-.4h-.1c0,.2-.05,.35-.1,.55,0,.25-.05,.55-.25,.75-.1,.15-.15,.35-.3,.6-.05-.2-.05-.45-.1-.45-.2-.05-.15-.3-.4-.4,0,.1-.05,.2-.05,.3-.05,.1-.15,.25-.15,.25-.25-.05-.2,.1-.25,.25-.05,.1-.1,.2-.2,.25-.3-.05-.45-.35-.65-.6-.05,.1-.1,.15-.15,.15,0-.45-.6-.25-.65-.7,.35-.3,.9-.6,.65-1.4-.25,.55-.4,1.05-.9,1.35-.1-.05-.3-.15-.5-.15-.05-.2-.05-.45-.05-.6,0-.3-.05-.4-.4-.4,.1-.25,.15-.4,.2-.65,.05-.15,.1-.35,.15-.55,.05-.15,.05-.4,.1-.5,.4-.45,.5-1,.6-1.6,.15-.6,.2-1.2,.25-1.84,.15-1.45,.35-2.84,.7-4.24,.2-.9,.3-1.79,.45-2.69,.1-.6,.2-1.15,.3-1.75,.3-1.2,.5-2.44,.75-3.64,.15-1.05,.3-2.09,.5-3.09,.3-1.79,.65-3.59,1.15-5.39,.2-.9,.35-1.79,.55-2.69,.1-.9,.3-1.79,.5-2.69,.1-.7,.25-1.35,.45-2.09,.1-.6,.25-1.15,.35-1.75,.05-.3,0-.65,.05-.95,0-.25,.05-.6,.1-.9,.2,.25,.6,.3,.5,.75,.4-.4,.4-.9,.2-1.5,.05,0,.05-.05,.1-.05,.25-.05,.5,.3,.7,.25,.3-.05,.5,.05,.75,.15,0-.05,.1-.1,.15-.2,.15,.3,.35,.35,.6,.3,.3,.25,.1,.6,.15,.9,.6-.1,.35-.7,.6-.9,.4,.4,.9,.55,1.54,.45-.05-.25-.05-.4-.05-.65,.1,.05,.15,.15,.2,.2q.15,.3,.4,.15Zm-10.57,36.45s-.05,.05-.05,.1c-.05,.15,.05,.25,.15,.1,0-.05-.05-.15-.05-.25l-.05,.05Zm2.89-11.57c.1-.55,.2-1.05,.35-1.5-.3,.4-.45,1.1-.35,1.5Zm2.19-24.98s.1-.05,.1,0c.1,.1,.1,.15,0,.25-.15-.1-.2-.15-.1-.25Zm2.34,14.86c-.25,.35-.3,.75-.25,1.15,.15-.4,.25-.75,.3-1.1-.05,0-.05-.05-.05-.05Zm.85-2.19c-.2,.85-.5,1.6-.65,2.34-.15,.7-.15,1.35-.2,2.04t.05,.1c1.4,0,2.79-.45,4.19-.3-.4,.15-.75,.2-1.15,.25-.95,.05-1.89,.15-2.84,.25-.1,0-.2,.05-.25,.1v.1c.3,0,.6,0,.9-.05,.8-.05,1.6-.15,2.34-.25,.35,0,.7-.05,1-.1,.3,0,.6-.1,.9-.15v-.1c-.2-.05-.3-.1-.5-.15v-.05c.15-.05,.3-.1,.45-.1,0-.15-.05-.3,.05-.3,.2-.1,.15-.3,.15-.5-.2-.85-.35-1.65-.5-2.49-.1-.65-.25-1.35-.3-2-.15-1.4-.4-2.84-.65-4.24-.05-.2-.15-.3-.35-.3-.4-.05-.85-.1-1.3-.15-.15,0-.3,.05-.35,.2-.05,.15-.1,.4-.1,.55,.05,.6-.15,1.15-.2,1.7,0,.15-.05,.4-.2,.45-.5,.5-.4,1.2-.55,1.79h.3c-.1,.45-.15,.9-.25,1.35Zm-.8-12.52q-.05,.35,0,.7c.25-.35,.25-.4,0-.7Zm1.1,10.62h.1c-.05,.15-.1,.35-.15,.55,0-.2,0-.4,.05-.55Zm.45-4.19c-.05,.25-.1,.45-.15,.7v.4h.1c-.05-.15-.1-.3-.1-.45,.2-.2,.2-.25,.15-.65Zm.3-6.58s-.05-.05-.05-.1,.05-.1,.1-.1,.1,0,.15,.05c0,.05-.05,.05-.05,.1-.05,0-.1,.05-.15,.05Zm.8,1.2v-.2c-.05,.05-.05,.1-.1,.15q.05,.05,.1,.05Zm.05-1.55q.1,.2,0,.3v-.3Zm1.3,.55c.1,.35,.25,.65,.35,1,.35-.1,.4-.15,.3-.4-.1-.15-.15-.3-.25-.45-.05-.1-.15-.15-.25-.25-.05,.05-.1,.05-.15,.1Zm4.84,6.93c-.05-.3-.05-.55-.1-.8-.05,.05-.1,.05-.1,.05,.05,.2,.05,.45,.15,.75h.05Zm.35-.65c0,.35,.05,.65,.05,.95,0,.35,.05,.75,.05,1.1h.1c0-.2,.05-.4,0-.6,0-.15,.05-.4-.15-.5,.15-.3,.15-.6-.05-.95Zm.35,2.99v.25h.05v-.25h-.05Zm.4,2.24v0Zm.8,24.18c-.15,.25-.4,.55-.3,.9,.1-.35,.3-.55,.3-.9Zm.3-.7c-.1-.25,.15-.55-.1-.85-.2,.45-.2,1.05,.25,1.7,.2-.35-.05-.55-.15-.85Zm.35,2.19c.1-.1,.15-.2,.25-.35-.05,0-.1,0-.1-.05-.1,.15-.15,.25-.25,.35t.1,.05Zm1.15-1.25v-.15s-.2-.05-.35-.15c.05,.3,.15,.35,.35,.3Zm.1-2s-.1,.1-.1,.2c-.05,.1-.05,.15-.1,.3q.25-.2,.2-.5Zm.35-.95v1.1c.25,0,.45-.1,.45-.3,0-.3,0-.65-.3-.8h-.15Z"/>
      <path class="cls-1" d="M169.41,39.18s.2-.15,.35-.25c.3-.2,.35-.25,.3-.65,0-.1,0-.25-.05-.4-.1-.45-.05-.9,.25-1.3,.1,.25,.25,0,.45-.05,0,.05,.05,.15,.05,.2,.15-.2,.1-.55,.5-.5,0-.35-.15-.8,.5-.9-.35,.6-.35,1.2-.35,1.84,.2-.2,.15-.4,.25-.6,.05-.2,.2-.4,.35-.6,.1,.15,.15,.3,.2,.45,.2,0,.4,.05,.45-.15,.1-.3,.15-.55-.3-.65,.25-.15,.65-.05,.45-.5-.2,0-.4,.05-.65,.05,.1-.15,.45-.45,.7-.6,.35,.2,.05,.55,.2,.9,.1-.05,.25-.1,.4-.2,.05-.1,.15-.2,.3-.3,0,.15,0,.25,.05,.4h.05c.15-.4,.4-.7,.75-.95,.25,.05,.5,.15,.75,.2-.1,.55-.4,1.05-.3,1.65,.1-.05,.2-.15,.3-.25,.05,.2,.1,.35,.05,.4-.05,.35-.15,.65-.2,.9-.05,.45-.1,.9-.05,1.35,.1,1.6,.55,3.09,1.3,4.49,.15,.2,.3,.45,.55,.5,.4,.25,.75,.4,1.2,.65,.25-.5,.45-.9,.65-1.35,.1-.45,.25-.9,.45-1.35,.25-.85,.25-1.7,.2-2.59,0-.35-.05-.6-.05-.9,0-.8-.15-1.55-.55-2.19-.1-.15-.2-.35-.25-.45-.5-.85-1.15-1.4-2.04-1.75-.2-.05-.35-.25-.5-.4-.75-.55-1.5-1.1-2.09-1.84-.5-.6-.9-1.3-1.25-1.94-.5-.9-1.05-1.8-1.5-2.74-.2-.4-.35-.9-.45-1.4-.15-.8-.35-1.65-.4-2.49-.05-.6-.05-1.25,.1-1.84,.15-.4,.15-.85,.2-1.25,.05-.6,.05-1.2,.45-1.7,.05-.05,.05-.15,.05-.25,.1-.3,.1-.7,.5-.85,.05-.05,.1-.25,.15-.35,.2-.55,.45-1.05,.8-1.45,.2-.2,.45-.3,.7-.4,.1-.05,.15-.1,.35-.2h-.35s.05-.1,.1-.1c.35-.05,.5-.15,.6-.55,.05-.2,.3-.35,.35-.45,.35-.15,.55-.25,.85-.35,.05,0,.1,.05,.2,.05,.05-.05,.1-.05,.2-.1,.05-.05,.1-.05,.15-.1,.2-.25,.6,.1,.75-.3,.2-.1,.5-.2,.7-.25,.3-.05,.7-.1,1,.1,.25,.1,.55,.05,.9-.2,.05,.1,.1,.2,.1,.25,.1-.05,.1-.1,.2-.2,.35,.3,.8,.4,1.15,.55,.25,.1,.55,.05,.7,.35,.05,.05,.2,.1,.3,.1,.2,0,.4,.1,.5,.2,.6,.4,1.2,.7,1.7,1.2,.1,.1,.25,.25,.25,.5,.25,0,.4,.1,.55,.4,.15,.35,.45,.7,.65,1.05,.15,.3,.25,.55,.3,.85,.05,.2,.1,.35,.25,.4,.2,.1,.25,.3,.25,.45,.05,.15,.05,.35,.1,.45,.3,.45,.3,.95,.4,1.5v.85c0,.15-.05,.25-.15,.45,0,0,0,.1,.05,.2,.15,.3,.15,.6,0,.9-.1,.15-.15,.35,0,.6,.15,.25,.25,.55-.05,.9,.15,0,.15,.05,.25,.1,.1,.4,.05,.5-.1,.55-.3,0-.2-.25-.35-.45-.1,.4,.1,.8,.05,1.15-.15,.05-.2,.1-.35,.15,0-.05,.05-.1,.05-.15s-.05-.15-.1-.2c-.05,0-.15,.05-.15,.05,0,.1,0,.15,.05,.2,0,.05,.1,.05,.15,.1-.1,.05-.15,.15-.25,.2-.3,.1-.55-.1-.5-.4,.05-.1,.05-.25,.1-.35,.25-.4,.05-.7-.2-1.1-.05,.5-.1,.85-.2,1.3-.1-.2-.1-.3-.2-.5-.2,.3-.35,.6-.55,.8-.15-.15-.25-.4-.45-.65,.05,.15,.05,.3,.05,.45-.25,.1-.25-.1-.35-.2-.05,.1-.15,.15-.25,.25-.05-.15-.1-.25-.15-.35-.3,.05-.25,.35-.3,.5-.25-.3-.1-.6-.15-.95-.1,.05-.25,.1-.4,.2-.05-.2-.15-.35-.2-.55t-.1,.05c.05,.25,.1,.55,.2,.8,.05,.05,.15,.05,.2,.05,.1,.35,.2,.65,.3,1-.05,.1-.2,.1-.4-.05-.1-.15-.2-.3-.5-.2,.05,.1,.1,.2,.1,.35-.05-.05-.1-.05-.1-.05-.1-.05-.3-.1-.4-.2-.35-.3-.35-.65-.2-1,.15-.35,.15-.6,.05-.9-.05-.5-.15-1-.05-1.55,.1-.7,.15-1.35,0-2.04-.2-.55-.4-1-.75-1.5-.45-.8-1.25-1.1-2.09-1.2-.3-.05-.6,.1-.75,.35-.3,.25-.6,.55-.8,.9-.15,.25-.25,.55-.3,.9-.05,.2-.1,.35-.25,.55-.15,.1-.25,.4-.2,.55,.2,.7,0,1.4,.25,2.14,.05,.1,.1,.3,.05,.45-.15,.25,.05,.4,.15,.55,.4,.75,.8,1.45,1.2,2.14,.1,.3,.25,.6,.45,.9,.25,.35,.55,.65,1,.85,.25,.05,.45,.15,.7,.3,.15,.1,.2,.25,.35,.4-.05,0-.05,.05-.05,.05-.3-.15-.6-.25-.9-.35t-.05,.05s.1,.05,.15,.1c.2,.15,.45,.25,.65,.35,.35,.05,.6,.25,.75,.55,.05,.05,.1,.1,.15,.1,.3-.05,.45,.15,.75,.3-.3-.45-.8-.7-1.2-1.2,.2,0,.25,0,.3,.05,.3,.2,.5,.5,.85,.6,.95,1.05,1.95,2.04,2.64,3.29,.15,.2,.2,.45,.25,.75,0,.05,0,.1-.05,.15-.1-.1-.2-.2-.35-.35-.05,.3-.05,.6,.1,.8,.3,.35,.5,.7,.75,1.15-.05-.3-.1-.5-.2-.75,.25-.05,.35,.05,.35,.25,.1,.45,.2,.95,.3,1.45,0,.6,.05,1.2,.1,1.84,.05,.5,.15,1,.2,1.5,0,.35,0,.75-.2,1.05-.05,.15-.1,.25-.1,.4,0,.95-.25,1.84-.5,2.74-.2,.6-.35,1.1-.5,1.7-.05,.15-.1,.3-.2,.45-.15-.05-.15-.1-.25-.15-.1,.2-.2,.4-.3,.55q.3,.15,.6-.05c-.25,.7-.55,1.3-.8,1.94q-.25-.1-.15-.55-.55,.15-.9,1c-.1-.05-.15-.1-.2-.1-.2,.05-.4,.1-.5,.15-.35,.05-.7,.05-1,.15-.2,0-.35,.05-.3,.2,.3-.05,.6-.15,.95-.2,.1,0,.25-.1,.35-.15,.05,.2,.05,.3,.1,.45-.25,.15-.45,.2-.7,.35,.15,.1,.25,.15,.3,.15,.4-.15,.75-.3,1.1-.45-.25,.4-1.15,.75-1.6,.75,.05-.05,.1-.1,.2-.2-.5-.05-.95-.1-1.45-.2-.1,.35-.3,.45-.6,.4-.45-.1-.95-.15-1.45-.3-.25-.05-.45-.15-.75-.15,.9,.4,1.95,.55,2.94,.8-.1,.05-.2,.1-.25,.05-.25,0-.5-.1-.8,0h-.1c-1.05-.35-2.19-.55-3.24-.9-.15-.05-.3-.1-.35-.25-.15-.25-.4-.4-.6-.55-.3-.2-.65-.4-.95-.6-.15-.3-.25-.6-.4-.95-.05-.1-.2-.2-.3-.25-.25-.1-.3-.25-.4-.45-.15-.35-.25-.75-.65-1,.2,.8,.75,1.45,.95,2.29-.15-.15-.3-.3-.35-.5-.55-1-1.15-1.94-1.65-2.99-.5-1.15-1.15-3.69-1.35-4.89,.1-.05,.2-.1,.25-.25Zm.5,1.5c-.05-.1-.05-.2-.1-.25h-.05s.05,.15,.05,.25h.1Zm.6-4.44s-.05-.05-.05-.1c.05-.05,.1-.15,.15-.2,.05,.05,.1,.05,.1,.05-.05,.1-.1,.15-.2,.25Zm1,9.08c-.25-.55-.45-.95-.65-1.35,0,.55,.25,1.05,.65,1.35Zm0-2.04c.05,.15,.15,.35,.2,.45,0,0,0-.05,.05-.05-.05-.1-.1-.25-.15-.4h-.1Zm.75-7.28h.1s-.05,.15-.05,.2h-.1s.05-.15,.05-.2Zm1.94,13.21c-.35-.1-.5-.2-.7-.45-.1-.2-.25-.4-.4-.65,.1,0,.15,.05,.2,.05,.3,.4,.65,.75,.9,1.05Zm-.6-13.16v-.25h-.1c-.05,.2-.1,.35-.2,.6,.1,0,.2,.05,.4,.05-.05-.2-.1-.3-.1-.4Zm1.89-.3c-.15-.2-.25-.3-.1-.6,.2,.15,.35,.3,.1,.6Zm.85,13.71c-.15-.05-.25-.05-.4-.1v.05c.15,.05,.25,.05,.4,.1v-.05Zm4.09,.75c-.15,.15-.2,.15-.35,.1v-.1h.35Zm.7-24.58v.05c.05,.1,.2,.2,.2,.1s-.05-.1-.1-.2c0,0-.05,0-.1,.05Zm1.55,6.18c.05,.05,.15,.1,.2,.15h.05c-.05-.1-.1-.15-.15-.2t-.1,.05Zm.75,.95s.1,.1,.15,.1,.05-.05,.1-.05l-.15-.15-.1,.1Zm.1-6.83c.2-.05,.2,.05,.25,.25-.15-.1-.2-.15-.25-.25Zm.55,18.3c-.05,.1-.05,.25-.1,.35,0,0,.05,0,.05,.05,.05-.1,.1-.25,.15-.4h-.1Zm.75-2.59c-.05,.1-.05,.2-.05,.2,0,.05,.05,.05,.05,.05,.05-.05,.05-.15,.05-.25h-.05Zm.2-2.04c.1-.3,.15-.6-.1-.9,.05,.3,.1,.6,.1,.9Z"/>
    </g>
    <path class="cls-1" d="M364.73,9.54c.08,.08,.14,.19,.22,.28-.25,.03-.3-.08-.22-.28m1.27,1.21c0,.06-.03,.08-.06,.11-.05-.06-.16-.11-.25-.14,.03-.03,.06-.06,.06-.11,.08,.08,.17,.11,.25,.14m-1.54-1.43q-.11-.22,.06-.33c0,.11-.03,.19-.06,.33m.39-.28c-.03-.14-.11-.28-.14-.41,.27,0,.44,.06,.69,.08,.03,.08,.05,.17,.05,.22,.22,0,.3-.14,.44-.33-.08-.03-.17-.05-.25-.08,.08-.19,.41-.19,.22-.5-.11,.06-.28,.17-.39,.28-.14,.14-.3,.3-.55,.17-.05-.06-.14-.08-.11-.17,0-.06,.14-.08,.22-.11,.03,.03,.08,.03,.08,.03,.08-.19,.17-.33,.08-.58-.11,.06-.14,.08-.19,.19-.11,.17-.19,.19-.33,.11-.17-.11-.33-.11-.52-.19,.17-.33,.36-.52,.63-.69,.19-.08,.41-.25,.69,.08-.03-.14-.03-.25,.03-.3,.03-.03,.17,0,.19-.03,.11-.11,.19-.19,.28-.28,0-.06,0-.17,.03-.25-.11,.06-.17,.11-.17,.11-.19-.14-.33-.17-.55-.28,.22-.17,.52-.14,.72-.06,.14,.03,.22,.06,.3,.08,.22,.06,.36,.03,.52-.14,.25-.25,.52-.47,.77-.66,.17-.17,.3-.36,.5-.55,.22-.28,.44-.5,.63-.8-.14,.14-.25,.25-.39,.39-.05-.28,.08-.47,.25-.63,.3-.3,.69-.63,1.02-.97,.19-.19,.36-.41,.55-.61,.08,.14,.19,.03,.28-.06-.11-.11-.22,0-.3,.08,0-.06-.03-.14,0-.17,.22-.33,.5-.55,.83-.66l.03,.03c-.06,.17-.14,.3-.22,.5,.03-.03,.08-.03,.14-.08,.28-.28,.5-.55,.85-.69,.08-.03,.08-.08,.11-.17,.22-.22,.44-.44,.72-.66-.03,.14-.03,.19-.08,.3,.25-.19,.47-.41,.72-.61l.06,.06c-.22,.22-.44,.5-.69,.8,.44-.11,.66-.44,.97-.64,.14,.14,.25,.3,.44,.5,.11-.11,.19-.19,.28-.28,.22,.17,.39-.06,.58-.14-.11,.17-.25,.41-.41,.58-.19,.19-.19,.41-.03,.63,.52-.3,.83-.83,1.35-1.13-.05,.11-.14,.25-.22,.39-.06,.11-.03,.3-.08,.41-.22,.28-.47,.53-.66,.77-.03,.03-.06,.06-.14,.08,.28,.11,.3,.14,.44-.11,.19-.36,.5-.55,.86-.69,.03-.03,.05,0,.11,0,.03,.14-.14,.19-.22,.33,.25-.08,.3-.41,.66-.39-.08,.19-.19,.3-.3,.52,.19-.08,.25-.08,.47-.19-.17,.28-.33,.44-.47,.63-.52,.58-1.05,1.21-1.54,1.76-.08,.08-.17,.17-.22,.22-.85,.63-1.54,1.43-2.18,2.29-.22,.27-.47,.52-.69,.8-.5,.5-.99,.99-1.41,1.52-.22,.33-.61,.5-.88,.83-.08,.08-.17,.17-.28,.28,.22,.11,.36,.14,.58,.3-.11,.06-.19,.08-.25,.08-.19-.03-.33-.06-.52-.08-.16,0-.33-.06-.3,.19,.03,.03-.14,.14-.16,.11-.22-.11-.36,.08-.52,.19-.03,.03-.06,.06-.11,.06-.16-.11-.14-.36-.16-.55-.11,.11-.22,.22-.33,.33,.11,.11,.22,.22,.33,.33-.33,.28-.72,.17-1.08,.19-.11,0-.22-.11-.36-.19,.03-.03,0-.06,.03-.08,.08,.03,.17,0,.28,0,.05,0,.11,0,.19-.03,.05-.06,.22-.11,.22-.28-.03-.03-.11-.11-.16-.17-.14-.03-.28,0-.3,.19,0,0-.03,.03-.08,.08-.08-.03-.19-.03-.22-.11-.08-.3-.36-.3-.55-.33-.28-.06-.3-.08-.39-.39,.58-.08,.72,0,.85,.3,.39-.17,.55-.33,.58-.63-.22,.11-.44,.22-.66,.33-.08-.19-.19-.36-.3-.52-.08,.08-.16,.17-.25,.25-.3-.14-.63-.14-.83-.44,.14,.03,.22,.06,.33,.06m1.98-.77s0-.06-.03-.08c-.11,.06-.16,.11-.25,.19,.08-.03,.16-.06,.28-.11m-.8-1.46l-.36,.36,.03,.03c.11-.11,.22-.22,.36-.36l-.03-.03Zm-.69-1.02l-.03-.03c.06-.06,.11-.06,.19-.08-.03,.03,0,.05,0,.11-.06,0-.11,0-.17,0m10.59-3.81c-.08,.08-.17,.11-.3,.19q.3,.08,.3-.19"/>
  </g>
</svg>