<?xml version="1.0" encoding="UTF-8"?>
<svg id="Layer_2" data-name="Layer 2" xmlns="http://www.w3.org/2000/svg" viewBox="0 0 171.45 155.18">
  <defs>
    <style>
      .cls-1 {
        fill: #fff;
      }

      .cls-2 {
        fill: #7d62aa;
      }
    </style>
  </defs>
  <g id="Layer_1-2" data-name="Layer 1">
    <path class="cls-2" d="M168.87,48.84c-1.29-3.2-2.15-6.18-5.16-8.96-1.29-1.92-2.15-3.84-3.01-5.76-.86-2.56-1.72-5.12-2.15-7.68-.86-2.35-3.01-4.48-5.16-6.61-.43-.64-.43-1.07-1.72-1.49-3.44-1.49-4.73-3.41-5.59-5.33-.43-.64-1.29-1.49-2.15-1.92-1.29-1.07-3.87-1.71-5.59-2.35-.43-.21-1.29-.64-1.72-1.07-1.29-1.71-4.73-2.35-8.16-2.99-1.29-.43-3.44-.43-4.3,.85-2.15-.85-4.3-1.71-6.88-2.77-2.58,.21-4.73-1.49-8.59-1.28-1.29,0-3.44-.21-4.73-.43-2.15,0-3.87,0-6.02-.21-.86,0-1.72,0-2.58-.21-2.58-.64-5.59-.85-8.17-.43-3.44,.21-6.44,.85-9.88,.64-3.44-.21-6.44,.21-9.02,1.07-1.72,.43-3.01,1.28-5.59,1.07,0,.21-.43,.43-.43,1.07-1.29-1.07-.43-1.07,.43-1.07-2.58-.21-3.87,0-5.59,.64-.43,.21-1.29,.43-2.15,.64-2.58,.85-5.16,1.49-8.17,2.56,0,0-.86,.43-.43,.43,.43,1.07-1.29,1.07-2.15,1.28-1.29,.43-2.58,.64-3.87,.85-2.15,.64-4.3,1.49-5.59,2.56-1.72,1.07-3.44,2.13-5.59,3.2-2.58,2.13-5.59,4.27-8.16,6.61-1.29,1.28-2.58,2.77-3.87,4.05-1.72,1.49-1.29,3.63-4.73,4.9-.43,.21-.43,.64-.43,1.07-1.29,2.56-2.58,5.33-3.87,8.1-3.01,5.33-4.3,11.09-5.16,16.63-.86,5.33-.86,10.66-1.29,15.99v12.37c0,2.13-2.15,4.26-1.29,6.4,.43,.21,0,.43,0,.64,0,.64-.43,1.49-.43,2.13,0,1.49,.43,2.99,.43,4.26,0,.64,0,1.07,.43,1.71,2.15,3.2,3.01,6.82,5.59,10.02,4.3,5.33,5.58,11.09,7.73,16.84,.43,1.07,1.29,1.71,2.58,2.56,1.29,.43,2.58,1.07,3.01,1.92,.43,2.56,1.72,4.69,5.16,6.82,2.58,1.92,5.16,4.05,9.45,5.33,1.29,.64,3.01,1.07,4.3,1.92,2.15,1.28,4.3,2.77,7.73,4.05,3.01,1.28,6.02,2.13,9.02,3.2,1.72,.43,3.87,.43,5.59,.43,3.44-.21,5.59,.64,7.31,1.92,.86-.21,1.29-.43,1.72-.43,3.87,.21,7.3,.43,11.17,.43,3.44,.21,6.44,.21,9.02,0,3.87-.85,7.73-1.92,11.6-2.77,2.15-.43,3.44-1.07,6.02-.85,.86,.21,1.72-.21,2.15-.21,1.72-1.07,4.3-1.71,5.16-2.99,0-.43,1.29-.85,2.15-.85,2.58-.85,5.16-1.49,6.88-2.13,2.58-.64,4.3-1.49,6.02-2.35,3.44-1.92,6.45-4.05,9.45-6.18,1.29-.85,2.58-1.71,2.15-2.77,0-.43,1.29-1.28,1.72-1.92,1.72-2.13,4.3-4.48,6.02-7.04,2.58-3.41,4.73-7.04,6.45-10.66,3.87-7.25,8.16-14.07,10.74-21.11,.86-2.77,1.72-5.33,2.15-7.89,.86-3.84,.86-7.89,1.29-11.94,0-2.56,0-4.9,.43-7.68,0-1.92,.86-3.84,.86-5.76-.43-3.84-.86-7.46-2.58-11.09M124.18,7.05c.86,.21,1.72,.21,2.58,.21-.43,0-.43,.21-.43,.43-.86-.21-1.72-.21-2.15-.43v-.21Z"/>
    <path class="cls-1" d="M36.24,105.2v-7.04c.07-.28,.2-.56,.2-.84,.02-1.73-.03-3.47,.03-5.2,.04-1.36,.29-2.71,.3-4.07,.01-2.08-.22-4.17-.13-6.23,.13-3.06,.56-6.07,.03-9.16-.18-1.08,.14-2.3,.13-3.46-.01-2.73-.09-5.45-.13-8.18,0-.52,.04-1.04,.08-1.56,.17-1.88,.52-3.71,.11-5.66-.22-1.07-.28-2.31,.41-3.33,.16-.23,.05-.9-.05-1.31-.47-1.82-.76-3.6,.18-5.33,.12-.23,.2-.57,.19-.86-.04-2.31,.48-4.25,1.91-5.66,.25-.24,.38-.7,.58-1.04,1.16-1.98,2.97-2.6,4.46-3.9,.22-.19,.56-.11,.85-.16,.22-.04,.47-.03,.66-.16,1.46-1.03,3.03-1.04,4.62-.93,.38,.03,.77,.01,1.15-.02,1.43-.1,2.88-.43,4.29-.27,1.61,.18,3.16,.83,4.82,.31,1.11-.34,2.29-.39,3.43-.35,2.29,.07,4.59,.43,6.88,.4,2.39-.03,4.74-.61,7.18-.17,2.19,.39,4.47-.1,6.71-.19,.32-.01,.64,.04,.96,.1,.72,.13,1.43,.36,2.16,.39,.83,.04,1.67-.2,2.5-.14,2.38,.19,4.77-.61,7.15,.13,.2,.06,.44-.1,.66-.15,.5-.12,1.01-.37,1.5-.32,1.04,.1,2.06,.46,3.1,.5,1.57,.06,3.15,0,4.72-.12,1.11-.08,2.21-.45,3.31-.47,2.06-.05,4.11,.96,6.18-.04,.34-.16,.81,.12,1.21,.22,.31,.08,.62,.27,.93,.27,1.34,0,2.69-.2,4.02-.04,2.33,.28,4.76,.25,6.56,2.84,.44,.63,.9,1.25,1.42,1.76,2.28,2.27,3.07,5.63,3.58,9.13,.2,1.34,.1,2.77,.1,4.15-.02,4.02-.28,8.07-.03,12.06,.23,3.78-.67,7.47-.17,11.26,.17,1.29-.34,2.72-.35,4.09-.04,3.68,.06,7.36,.03,11.04-.02,2.5-.15,5-.22,7.5-.04,1.73-.15,3.47-.06,5.19,.19,3.74-.06,7.48-.95,10.93-1.22,4.69-4.01,7.64-7.26,9.78-2.41,1.59-5.03,1.45-7.59,1.44-4.76-.03-9.52-.33-14.28-.51-2.64-.1-5.28-.4-7.91-.26-4.56,.24-9.12,.72-13.68,1.15-3.34,.32-6.67,.82-10.01,1.07-4.88,.36-9.77,.77-14.66,.77-3.2,0-6.42-.53-9.61-1.11-5.88-1.08-9.18-6.24-11.07-13.4-.42-1.58-.75-3.21-1.12-4.82m62.84-55.72c-1.44,.2-2.92,.16-4.3,.63-4.32,1.46-8.52,3.26-12.11,7.12-2.86,3.08-5.79,6.01-7.27,10.73-.49,1.54-.66,3.26-1.12,4.82-.76,2.57-.7,5.06-.02,7.62,.3,1.13,.36,2.37,.6,3.54,.17,.85,.32,1.78,.69,2.48,1.02,1.94,2.16,3.78,3.24,5.67,1.86,3.26,4.25,5.66,6.99,7.28,2.31,1.37,4.75,2.34,7.14,3.45,.83,.39,1.68,.53,2.53-.1,.23-.17,.57-.1,.85-.09,2.03,.07,4.07,.42,6.07,.15,2.38-.32,4.78-.88,6.67-3.24,.19-.24,.51-.35,.78-.39,.87-.12,1.61-.39,2.05-1.6,.16-.43,.65-.63,.99-.95,.49-.46,.99-.91,1.46-1.39,.41-.41,.82-.82,1.18-1.29,1.1-1.43,2.19-2.89,3.28-4.35,.04-.06,.06-.15,.09-.23,.97-2.74,1.96-5.48,2.91-8.23,.3-.86,.68-1.78,.7-2.68,.03-1.93-.26-3.86-.24-5.79,.02-2.48-.91-4.47-1.58-6.6-.25-.79-.48-1.65-.87-2.3-1.43-2.39-2.87-4.73-4.84-6.44-4.85-4.21-9.83-7.81-15.84-7.83m-43.15,.73c-1.83-.08-3.3,.69-4.68,1.91-1.73,1.53-1.88,2.31-.69,4.62,1.03,2,2.25,3.61,4.31,2.87,.13-.05,.33,0,.44,.1,.78,.79,2.07,.76,2.62-.28,.52-1,1.19-1.46,2.01-1.82,1.08-.48,1.69-3.53,.92-4.49-1.43-1.78-3.05-3.04-4.94-2.92"/>
    <path class="cls-1" d="M111.07,73.48c-.79,3.32-.08,6.86-1.34,10-.79,1.99-1.83,3.65-3.14,5.04-2.75,2.91-5.74,4.84-9.35,4.17-3.17-.58-5.95-2.19-7.91-5.81-.38-.7-.96-1.22-1.26-1.96-.4-.99-.66-2.11-.92-3.2-.26-1.1-.36-2.27-.68-3.33-.57-1.92-.97-3.75-.03-5.69,.23-.46,.23-1.16,.26-1.75,.08-1.68,.5-3.12,1.45-4.24,.05-.06,.12-.1,.15-.17,.9-2.44,2.88-3.1,4.29-4.71,.19-.22,.43-.43,.67-.5,1.46-.46,2.91-1.14,4.38-1.24,1.38-.09,2.79,.49,4.19,.7,1.54,.23,3.08,.41,4.11,2.29,2.09,.24,2.69,2.85,3.65,4.6,.85,1.57,1.01,3.83,1.47,5.79"/>
  </g>
</svg>