<?xml version="1.0" encoding="UTF-8"?>
<svg id="Layer_2" data-name="Layer 2" xmlns="http://www.w3.org/2000/svg" viewBox="0 0 171.45 155.18">
  <defs>
    <style>
      .cls-1 {
        fill: #fff;
      }

      .cls-2 {
        fill: #e7925c;
      }
    </style>
  </defs>
  <g id="Layer_1-2" data-name="Layer 1">
    <path class="cls-2" d="M168.87,48.84c-1.29-3.2-2.15-6.18-5.16-8.96-1.29-1.92-2.15-3.84-3.01-5.76-.86-2.56-1.72-5.12-2.15-7.68-.86-2.35-3.01-4.48-5.16-6.61-.43-.64-.43-1.07-1.72-1.49-3.44-1.49-4.73-3.41-5.59-5.33-.43-.64-1.29-1.49-2.15-1.92-1.29-1.07-3.87-1.71-5.59-2.35-.43-.21-1.29-.64-1.72-1.07-1.29-1.7-4.73-2.35-8.16-2.98-1.29-.43-3.44-.43-4.3,.85-2.15-.85-4.3-1.7-6.88-2.77-2.58,.21-4.73-1.49-8.59-1.28-1.29,0-3.44-.21-4.73-.43-2.15,0-3.87,0-6.02-.21-.86,0-1.72,0-2.58-.21-2.58-.64-5.59-.85-8.17-.43-3.44,.21-6.44,.85-9.88,.64-3.44-.21-6.44,.21-9.02,1.07-1.72,.43-3.01,1.28-5.59,1.07,0,.21-.43,.43-.43,1.07-1.29-1.07-.43-1.07,.43-1.07-2.58-.21-3.87,0-5.59,.64-.43,.21-1.29,.43-2.15,.64-2.58,.85-5.16,1.49-8.17,2.56,0,0-.86,.43-.43,.43,.43,1.07-1.29,1.07-2.15,1.28-1.29,.43-2.58,.64-3.87,.85-2.15,.64-4.3,1.49-5.59,2.56-1.72,1.07-3.44,2.13-5.59,3.2-2.58,2.13-5.59,4.27-8.16,6.61-1.29,1.28-2.58,2.77-3.87,4.05-1.72,1.49-1.29,3.63-4.73,4.9-.43,.21-.43,.64-.43,1.07-1.29,2.56-2.58,5.33-3.87,8.1-3.01,5.33-4.3,11.09-5.16,16.63-.86,5.33-.86,10.66-1.29,15.99v12.37c0,2.13-2.15,4.26-1.29,6.4,.43,.21,0,.43,0,.64,0,.64-.43,1.49-.43,2.13,0,1.49,.43,2.99,.43,4.26,0,.64,0,1.07,.43,1.71,2.15,3.2,3.01,6.82,5.59,10.02,4.3,5.33,5.58,11.09,7.73,16.84,.43,1.07,1.29,1.71,2.58,2.56,1.29,.43,2.58,1.07,3.01,1.92,.43,2.56,1.72,4.69,5.16,6.82,2.58,1.92,5.16,4.05,9.45,5.33,1.29,.64,3.01,1.07,4.3,1.92,2.15,1.28,4.3,2.77,7.73,4.05,3.01,1.28,6.02,2.13,9.02,3.2,1.72,.43,3.87,.43,5.59,.43,3.44-.21,5.59,.64,7.31,1.92,.86-.21,1.29-.43,1.72-.43,3.87,.21,7.3,.43,11.17,.43,3.44,.21,6.44,.21,9.02,0,3.87-.85,7.73-1.92,11.6-2.77,2.15-.43,3.44-1.07,6.02-.85,.86,.21,1.72-.21,2.15-.21,1.72-1.07,4.3-1.71,5.16-2.99,0-.43,1.29-.85,2.15-.85,2.58-.85,5.16-1.49,6.88-2.13,2.58-.64,4.3-1.49,6.02-2.35,3.44-1.92,6.45-4.05,9.45-6.18,1.29-.85,2.58-1.71,2.15-2.77,0-.43,1.29-1.28,1.72-1.92,1.72-2.13,4.3-4.48,6.01-7.04,2.58-3.41,4.73-7.04,6.45-10.66,3.87-7.25,8.16-14.07,10.74-21.11,.86-2.77,1.72-5.33,2.15-7.89,.86-3.84,.86-7.89,1.29-11.94,0-2.56,0-4.9,.43-7.68,0-1.92,.86-3.84,.86-5.76-.43-3.84-.86-7.46-2.58-11.09M124.18,7.05c.86,.21,1.72,.21,2.58,.21-.43,0-.43,.21-.43,.43-.86-.21-1.72-.21-2.15-.43v-.21Z"/>
    <path class="cls-1" d="M130.86,112.66c-.35-1.87-.75-3.75-1.2-5.68-.44-1.86-.8-3.75-1.33-5.66-.51-1.84-1.12-3.68-1.71-5.56-.57-1.83-1.19-3.66-1.82-5.53-.62-1.82-.88-3.79-1.55-5.64-.66-1.81-1.38-3.61-2.08-5.44-.69-1.8-.86-3.82-1.59-5.65-.71-1.79-1.29-3.66-2.04-5.48-.74-1.79-2.18-3.3-2.94-5.1-.75-1.78-1.3-3.66-2.07-5.46-.76-1.78-1.04-3.78-1.82-5.57-.77-1.78-2.3-3.23-3.08-5.02-.78-1.78-.68-3.94-1.46-5.73-.78-1.78-1.9-3.41-2.68-5.2-.78-1.78-1.91-3.41-2.68-5.21-.77-1.79-1.93-3.41-2.69-5.2-.02-.04,.21-.19,.19-.23-.94-2.18-2.93-3.1-4.87-2.81-2.01,.3-4.38,1.82-4.37,4.2,.02,1.93,1.36,3.84,1.38,5.76,.02,1.92-1.23,3.86-1.22,5.78,.01,1.93,1.01,3.84,1.03,5.77,.01,1.93,.28,3.85,.29,5.77,0,1.93-.9,3.85-.9,5.77,0,1.93-.58,3.85-.58,5.77s1.43,3.85,1.43,5.77c0,1.93-.76,3.85-.77,5.77,0,1.92,.31,3.85,.3,5.77,0,1.58,.65,3.29,2.19,4.05,1.81,.89,3.46,1.84,4.61,3.32,1.2,1.53,2.61,3.22,2.86,5.18,.23,1.79,.01,4.02-.75,6-.69,1.8-2.94,2.66-4.41,4-1.44,1.31-2.67,2.85-4.55,3.43-2.07,.64-4.1,.83-6.02,.57-2.07-.29-4.17-.78-5.84-1.87-1.72-1.13-3.64-2.51-4.68-4.23-1.05-1.73-.78-4.11-.88-6.17-.08-2.32,.74-4.18,1.98-6,1.2-1.77,2.42-3.73,4.51-4.75,1.53-.74,1.95-1.93,1.94-3.49,0-1.92,1.3-3.85,1.29-5.77,0-1.92-1.45-3.84-1.45-5.76,0-1.92,.84-3.84,.84-5.76,0-1.92-.32-3.84-.32-5.76,0-1.92-.37-3.84-.36-5.76,0-1.92,.19-3.84,.2-5.76,0-1.92,.82-3.84,.83-5.76,.01-1.92,0-3.84,.02-5.76s.38-3.85,.4-5.77c0-2.38-2.41-4.35-4.44-4.59-1.93-.23-4.29,1.06-5.22,3.24-.02,.04,.7,.4,.69,.44-.75,1.78-2.64,3.07-3.4,4.84-.76,1.77-.99,3.78-1.75,5.54-.77,1.77-.91,3.82-1.68,5.58-.77,1.77-2.5,3.13-3.27,4.89-.77,1.78-.8,3.87-1.56,5.63-.77,1.78-1.9,3.39-2.66,5.15-.77,1.78-1.68,3.49-2.43,5.25-.76,1.79-1.94,3.39-2.67,5.16-.74,1.8-.83,3.85-1.55,5.62-.73,1.81-1.18,3.7-1.87,5.48-.71,1.82-2.01,3.38-2.67,5.17-.68,1.83-.3,4.01-.92,5.81-.64,1.85-2.55,3.24-3.13,5.05-.6,1.87-.67,3.87-1.19,5.69-.54,1.89-1.39,3.67-1.83,5.5-.47,1.91-.79,3.83-1.15,5.68-.33,1.83,.47,3.94,1.44,5.97,.82,1.72,2.39,3.09,3.83,4.66,1.37,1.48,2.47,3.37,4.16,4.47,1.79,1.15,3.67,2.46,5.53,2.91,1.85,.39,3.88-.11,5.73,.22,1.86,.33,3.59,1.5,5.45,1.76,1.87,.26,3.87-.54,5.74-.35,1.88,.19,3.76,.12,5.63,.25,1.88,.12,3.72,.81,5.6,.86,1.88,.06,3.76-.57,5.64-.59,1.88-.01,3.77,.48,5.65,.4,1.88-.08,3.75-.24,5.63-.4,1.87-.15,3.83,.41,5.7,.19,1.87-.22,3.69-.89,5.56-1.18,1.86-.29,3.65-.96,5.5-1.32,1.89-.41,3.67-1.36,5.48-2.51,1.7-1.09,3.33-2.31,4.71-3.81,1.45-1.57,2.96-3.09,3.77-4.83,.95-2.04,.7-4.08,.37-5.94"/>
  </g>
</svg>