<?xml version="1.0" encoding="UTF-8"?>
<svg id="Layer_2" data-name="Layer 2" xmlns="http://www.w3.org/2000/svg" viewBox="0 0 171.45 155.18">
  <defs>
    <style>
      .cls-1 {
        fill: #fff;
      }

      .cls-2 {
        fill: #e6665d;
      }
    </style>
  </defs>
  <g id="Layer_1-2" data-name="Layer 1">
    <path class="cls-2" d="M168.87,48.84c-1.29-3.2-2.15-6.18-5.16-8.96-1.29-1.92-2.15-3.84-3.01-5.76-.86-2.56-1.72-5.12-2.15-7.68-.86-2.35-3.01-4.48-5.16-6.61-.43-.64-.43-1.07-1.72-1.49-3.44-1.49-4.73-3.41-5.59-5.33-.43-.64-1.29-1.49-2.15-1.92-1.29-1.07-3.87-1.71-5.59-2.35-.43-.21-1.29-.64-1.72-1.07-1.29-1.71-4.73-2.35-8.16-2.99-1.29-.43-3.44-.43-4.3,.85-2.15-.85-4.3-1.71-6.88-2.77-2.58,.21-4.73-1.49-8.59-1.28-1.29,0-3.44-.21-4.73-.43-2.15,0-3.87,0-6.02-.21-.86,0-1.72,0-2.58-.21-2.58-.64-5.59-.85-8.17-.43-3.44,.21-6.44,.85-9.88,.64-3.44-.21-6.44,.21-9.02,1.07-1.72,.43-3.01,1.28-5.59,1.07,0,.21-.43,.43-.43,1.07-1.29-1.07-.43-1.07,.43-1.07-2.58-.21-3.87,0-5.59,.64-.43,.21-1.29,.43-2.15,.64-2.58,.85-5.16,1.49-8.17,2.56,0,0-.86,.43-.43,.43,.43,1.07-1.29,1.07-2.15,1.28-1.29,.43-2.58,.64-3.87,.85-2.15,.64-4.3,1.49-5.59,2.56-1.72,1.07-3.44,2.13-5.59,3.2-2.58,2.13-5.59,4.27-8.16,6.61-1.29,1.28-2.58,2.77-3.87,4.05-1.72,1.49-1.29,3.63-4.73,4.9-.43,.21-.43,.64-.43,1.07-1.29,2.56-2.58,5.33-3.87,8.1-3.01,5.33-4.3,11.09-5.16,16.63-.86,5.33-.86,10.66-1.29,15.99v12.37c0,2.13-2.15,4.26-1.29,6.4,.43,.21,0,.43,0,.64,0,.64-.43,1.49-.43,2.13,0,1.49,.43,2.99,.43,4.26,0,.64,0,1.07,.43,1.71,2.15,3.2,3.01,6.82,5.59,10.02,4.3,5.33,5.58,11.09,7.73,16.84,.43,1.07,1.29,1.71,2.58,2.56,1.29,.43,2.58,1.07,3.01,1.92,.43,2.56,1.72,4.69,5.16,6.82,2.58,1.92,5.16,4.05,9.45,5.33,1.29,.64,3.01,1.07,4.3,1.92,2.15,1.28,4.3,2.77,7.73,4.05,3.01,1.28,6.02,2.13,9.02,3.2,1.72,.43,3.87,.43,5.59,.43,3.44-.21,5.59,.64,7.31,1.92,.86-.21,1.29-.43,1.72-.43,3.87,.21,7.3,.43,11.17,.43,3.44,.21,6.44,.21,9.02,0,3.87-.85,7.73-1.92,11.6-2.77,2.15-.43,3.44-1.07,6.02-.85,.86,.21,1.72-.21,2.15-.21,1.72-1.07,4.3-1.71,5.16-2.99,0-.43,1.29-.85,2.15-.85,2.58-.85,5.16-1.49,6.88-2.13,2.58-.64,4.3-1.49,6.02-2.35,3.44-1.92,6.45-4.05,9.45-6.18,1.29-.85,2.58-1.71,2.15-2.77,0-.43,1.29-1.28,1.72-1.92,1.72-2.13,4.3-4.48,6.01-7.04,2.58-3.41,4.73-7.04,6.45-10.66,3.87-7.25,8.16-14.07,10.74-21.11,.86-2.77,1.72-5.33,2.15-7.89,.86-3.84,.86-7.89,1.29-11.94,0-2.56,0-4.9,.43-7.68,0-1.92,.86-3.84,.86-5.76-.43-3.84-.86-7.46-2.58-11.09M124.18,7.05c.86,.21,1.72,.21,2.58,.21-.43,0-.43,.21-.43,.43-.86-.21-1.72-.21-2.15-.43v-.21Z"/>
    <path class="cls-1" d="M135.1,55.84c-1.33,.72-1.2,.9-2.54,1.64-1.35,.74-1.49,.54-2.85,1.3-1.36,.77-1.19,1-2.56,1.78-1.38,.79-1.32,.87-2.71,1.67-1.39,.8-1.35,2.22-2.92,1.51-1.44-.66,.02-1.52-.03-2.99-.06-1.48-.34-1.49-.41-2.97-.07-1.48,.41-1.44,.32-2.92-.09-1.48-.44-1.5-.55-2.98-.1-1.48,.2-1.45,.08-2.93-.08-.93-.37-1.9-.76-2.71-.44-.91-1.27-1.57-1.97-2.17-.77-.66-1.56-.99-2.47-1.08-1.55-.14-1.57-.44-3.12-.58-1.55-.13-1.53,.12-3.08-.01-1.55-.12-1.55-.15-3.1-.27-1.55-.11-1.54,.03-3.09-.08-1.55-.1-1.57-.51-3.11-.6-1.55-.09-1.54,.2-3.09,.12-1.55-.08-1.55-.02-3.1-.09-1.55-.07-1.55-.14-3.1-.2-1.55-.06-1.55-.23-3.1-.28-1.55-.05-1.55,.19-3.1,.15-1.55-.04-1.55-.35-3.09-.38-1.55-.03-1.56,.29-3.1,.27-1.55-.01-1.54-.18-3.09-.19-1.55,0-1.54-.12-3.09-.11-1.55,0-1.54-.21-3.08-.2-1.55,.02-1.55,.08-3.1,.1-1.55,.03-1.55,.06-3.1,.09-1.55,.04-1.55,.12-3.1,.16-1.55,.05-1.57,.34-3.12,.39-1.55,.06-1.51-.37-3.06-.3-1.55,.07-1.58,.37-3.13,.45-1.55,.08-1.53-.08-3.08,0-1.55,.09-1.55,.16-3.11,.26-1.55,.1-1.58,.3-3.13,.41-1.55,.11-1.54,.01-3.09,.13-1.55,.12-1.53-.04-3.08,.1-.91,.08-1.75,.75-2.57,1.41-.74,.6-1.61,1.24-2.12,2.16-.45,.82-.51,1.75-.65,2.69-.21,1.49-.41,1.51-.6,3-.18,1.49-.34,1.5-.5,2.99-.16,1.49,.16,1.47,.03,2.96-.13,1.49-.23,1.5-.34,2.99-.1,1.49-.19,1.49-.27,2.98-.07,1.49-.09,1.49-.14,2.98-.04,1.49,.22,1.48,.2,2.97-.01,1.49-.09,1.49-.09,2.98,.02,1.49-.21,1.49-.17,2.98,.05,1.49,.01,1.49,.08,2.98,.07,1.49,.29,1.49,.38,2.97,.1,1.49-.14,1.49-.01,2.98,.14,1.49,.47,1.49,.62,2.98,.16,1.49-.22,1.48-.04,2.97,.19,1.49,.6,1.5,.81,2.99,.22,1.49,.24,1.49,.48,2.98,.25,1.49,0,1.48,.27,2.97,.28,1.49,.52,1.5,.82,2.99,.31,1.49,.29,1.49,.62,2.97,.34,1.49,.31,1.49,.66,2.97,.37,1.49,.18,1.48,.57,2.97,.4,1.49,.25,1.48,.67,2.97,.27,.94,.98,1.85,1.51,2.66,.59,.91,1.36,1.54,2.12,2.14,.83,.65,1.64,1.3,2.46,1.38,1.4,.12,1.34-.1,2.74,.02,1.4,.11,1.48,.4,2.88,.51,1.4,.1,1.35-.09,2.76,0,1.4,.09,1.41,.14,2.82,.22,1.4,.08,1.4,.06,2.8,.13,1.4,.07,1.39,0,2.79,.06,1.4,.06,1.43,.2,2.83,.25,1.4,.05,1.42,.16,2.82,.2,1.4,.04,1.38-.08,2.79-.05,1.4,.03,1.42,.14,2.82,.17,1.4,.02,1.38-.21,2.78-.19,1.4,.01,1.41,.04,2.81,.04,1.4,0,1.43,.35,2.82,.35,1.4,0,1.39-.12,2.79-.13,1.4-.02,1.39-.19,2.79-.22,1.4-.03,1.41,.19,2.81,.16,1.4-.04,1.4,.02,2.8-.03,1.4-.05,1.4-.08,2.8-.13,1.4-.06,1.4-.11,2.8-.18,1.4-.07,1.42-.37,2.82-.44,1.4-.07,1.41-.1,2.81-.19,1.4-.08,1.41-.13,2.81-.23,1.4-.09,1.41-.15,2.82-.25,1.4-.1,1.39,.01,2.8-.1,1.41-.11,1.39,0,2.8-.13,1.41-.12,1.43-.28,2.84-.41,.83-.08,1.66-.24,2.41-.9,.68-.6,1.34-1.42,1.82-2.32,.43-.81,.63-1.72,.78-2.66,.24-1.47,.52-1.49,.75-2.97,.23-1.47-.12-1.44,.1-2.92,.21-1.47,.1-1.47,.29-2.94,.19-1.47,.22-1.48,.4-2.95,.18-1.47-.95-2.44,.49-3.1,1.56-.71,1.33,.93,2.57,1.74,1.24,.81,1.2,.86,2.42,1.65,1.21,.79,1.24,.75,2.43,1.53,1.19,.77,1.28,.66,2.45,1.42,1.16,.75,1.12,.8,2.27,1.54,.76,.49,1.59,.5,2.5,.32,.94-.18,1.83-.55,2.72-1.27,.78-.64,1.63-1.38,2.2-2.32,.5-.82,.81-1.75,1.02-2.72,.29-1.38,.14-1.37,.41-2.76,.26-1.39,.29-1.39,.53-2.77,.23-1.39,.54-1.4,.75-2.78,.21-1.38-.06-1.38,.13-2.76,.18-1.39,.46-1.39,.62-2.78,.15-1.38-.17-1.38-.03-2.77,.12-1.39,.26-1.39,.37-2.77,.1-1.39,.19-1.38,.27-2.77,.07-1.39-.18-1.39-.13-2.78,.04-1.39,.14-1.38,.17-2.77,.02-1.39-.02-1.39-.02-2.77-.01-1.38,.07-1.38,.04-2.77-.04-1.39,.12-1.38,.06-2.76-.07-1.38-.12-1.39-.21-2.78-.06-.96-.27-1.92-.68-2.74-.46-.94-1.42-1.58-2.17-2.22-.85-.73-1.66-1.59-2.65-1.79-.96-.19-2.03,0-2.93,.48m-86.97,15.14c-1,.01-1.98-.04-2.82-.52-.81-.46-1.33-1.28-1.91-2.09-.53-.74-1.2-1.46-1.46-2.41-.24-.87-.47-1.85-.43-2.84,.04-.99,.37-1.97,.68-2.86,.33-.97,.88-1.83,1.46-2.6,.63-.84,1.24-1.77,2.07-2.28,.87-.53,1.92-.41,2.91-.45,.99-.03,1.99-.12,2.8,.35,.77,.46,1.22,1.34,1.76,2.15,.5,.75,.87,1.57,1.12,2.54,.23,.89,.64,1.8,.62,2.82-.03,1.01-.13,2.04-.41,2.94-.3,.98-1.02,1.76-1.56,2.53-.59,.84-1.15,1.72-1.95,2.21-.85,.51-1.87,.51-2.87,.52"/>
  </g>
</svg>