<?xml version="1.0" encoding="UTF-8"?>
<svg id="Layer_2" data-name="Layer 2" xmlns="http://www.w3.org/2000/svg" viewBox="0 0 335.59 69.53">
  <defs>
    <style>
      .cls-1 {
        fill: #e55d92;
      }

      .cls-2 {
        fill: #fff;
      }
    </style>
  </defs>
  <g id="Layer_1-2" data-name="Layer 1">
    <g>
      <path class="cls-2" d="M335.48,49.16c-6.87,0-15,.41-22.62,.41,0-.74,1.7-1.72,2.32-2.12,.93-.6,2.52-.45,3.68-2.25,.36-.55-1-1.3,0-2.3,.6-.59,1.6-.71,2.07-1.05,.6-.43,6.32-3.25,1.62-3.25,.31-1.53,6.21-.7,6-2.12-.07-.46-15.53-.72-17.08-.72,0-1.67,4.11,0,4.62-.81,.66-1.08-6.18-.79-6.91-1.36,.66-1.73,.71,.18-.5-1.75,4.09-3.39,9.55-1.56,14.31-3.98-1.47-1.14-6.58,.49-8.47,.59-3.4,.18-10.9,1.01-13.19-1.01,1.15-1.05,7.97-.58,8.22-1.16,.58-1.35-8.36,.3-8.69-1.48,.72,.19,1.16-1.24,.65-1.62,.63,.47-3.71,.03-3.42-.81,.74,.29,1.21,.16,1.4-.4,.01-.85-5-1.22-5.55-1.22,0-2.1,10.41-3.28,11.95-3.45,2.84-.32,6.58-.86,9.28-1.01,1.29-.07,3.22-.36,4.15-.41,1.7-.09,3.22,.14,4.67-.32,.8-.25-.16-.9-.52-.9,0-.48,3.99-2.27,4.62-2.43,1.96-.5,5.41,.37,6.87-.99-.78-.78-8.74-.59-9.99-.64-3.47-.14-6.57-.05-9.75-.41-5.97-.67-11.66-.82-17.6-1.62-9.85-1.33-19.88-3.18-30.24-4.06-11.73-.99-23.81-1.74-35.65-2.34-13.19-.66-27.28-1.97-40.84-2.13-19.09-.22-37.3,.21-55.75,.4-11.87,.12-25.6-.13-37.39,1.22-22.6,2.59-46.36,2.11-69.01,5.68-3.47,.55-21.96,4.42-14.79,8.52,1.08,.62,3.21,.47,3.95,1.02,.55,.41,2.19,3.06,2.09,3.85-.17,1.31,.79,.63-.54,2.03-.35,.37-3.09-.42-3.39,0-1.19,1.62,3.64,.81,4.62,.81,0,1.91-4.74,.42-5.47,1.77-.09,.18,10.44-.82,9.45,1.72-.58,1.49-4.83-.89-5.75,.7-.14,.24,4.6,.78,5,.68-.05,.3-8.71,.81-9.69,.81-.2,.58,1.43,1.04,1.86,1.35-.25,2.26-6.62-.79-4.52,2.7,1.44,2.39,4.85,1.07,6.82,2.24-1.56,1.89-1.51,.53-1.2,3.03,.14,1.17,2.77,.26,.44,2.03-1.11,.84-6.01,.84-7.78,.81-2.81-.06-5.83-.7-8.08,.6-.33,.19-1.47,1.2-1.6,1.44-.28,.47-.18,2.81,.46,3.24,.89,.61,2.72-.13,3.46,.41,1.81,1.31-.13,2.44,.71,3.65,.44,.63,2.89,2.65,3.44,3.25,.42,.45,1.52,1.33,2.1,2.06,.8,1.01,.5,1.73,1.52,2.53,1.81,1.41,4.57,1.57,6.56,2.93,1.49,1.02,1.85,1.71,3.63,2.82,2.22,1.39-.66,1.41,3.58,1.76-.02,0,.66-.75,.77-.74,1.87,.15,11.14,1.63,10.94,1.82,.52,.62,1.83,.04,1.83-.6,2.27,0,4.33,.99,6.69,1.22,1.03,.1,1.83-.25,3.26,.41,.65-.65,4.59,.38,5.74,.4,2.24,.03,8.6,1.05,10.32-.34-2.54,2.05,6.25,.92,5.86,.94,1.84-.11,8.49-.7,8.97,.22,1.22-1.02,9.17-1.02,11.11-1.22,2.98-.32,6.03-.09,8.31-.41,4.01-.55,7.72,.02,11.07,.41,2.1,.24,7.31,.25,8.84-.48,2.17-1.03,.1-.17,2.47,.07,2.31,.23,3.28,.01,5.21-.07,6.32-.28,13.79-.29,19.49-.33,7.15-.05,15.8,.45,23.08,.41,3.6-.02,6.14-.29,9.45,0,3.49,.3,7.19-.45,10.5-.41,18.1,.23,36.65,.26,56.55-.41,8.78-.3,20.82,0,29.27,0,2.85,0,27.41,.75,27.41,0,0-.34-6.18-.83-6.55-.81-1.09,.06-2.61,.31-4.71,.06-1.86-.22-4-.29-5.83-.27-.88,0-2.74,.34-3.89,.21-.78-.09-1.71-.64-2.26-.74-.82-.15-.93,.94-1.69,.74,.11-.37-.05-.64-.46-.81,.35-1.54,19.91-.43,21.23-.41,1.04,.02,2.14-.35,3.41-.36,2.18,0,3.02,0,5.38,.15,4.59,.29,9.58,.02,14.97-.2,.8-.03,15.74-3.36,12.94-5.27h-3.46c0-1.13,4.03-10.14,3.69-10.14Z"/>
      <path class="cls-2" d="M305.48,67.01c-1.87,0-2.16,.81,.46,.81,.16-.42,0-.69-.46-.81-.15,0,.25-.04,0,0Z"/>
      <path class="cls-2" d="M309.87,67.41c-.39-.28-2.68-.9-2.94-.25-.5,1.26,4.37,1.28,2.94,.25Z"/>
      <path class="cls-2" d="M311.25,66.6c-1,0-1.15-.05-1.15,.81,.31,0,1.73-.3,1.15-.81-.27,0,.07,.06,0,0Z"/>
      <path class="cls-2" d="M316.8,67.01c-.77-.64-3.48-.93-3.48,.41-.01,0,6.22,.98,5.46-.27-.61-.27-1.27-.32-1.98-.14-.16-.13,.53,0,0,0Z"/>
      <path class="cls-2" d="M12.29,29.95c.36-.51-.39,.54,0,0,.06-.08-.04,.05,0,0Z"/>
      <path class="cls-2" d="M195.08,2.47c-.06-.01-.04,0,0,0h0Z"/>
      <path class="cls-2" d="M312.79,62.11c-.05-.01-.04,0,0,0h0Z"/>
      <path class="cls-2" d="M121.68,65.76s-.03,0,0,0h0Z"/>
      <path class="cls-2" d="M262.01,63.32s-.04,0,0,0h0Z"/>
    </g>
    <g>
      <path class="cls-1" d="M70.81,20.5c.18,.32,.46,.69,.64,1.06,.28,.6,.6,1.15,.97,1.66,.46,.6,.64,1.38,.87,2.12,.09,.37-.05,.74,0,1.1,0,.18-.05,.28,.09,.41,.09,.05,.14,.18,.14,.28-.09,.46,0,.97-.18,1.47-.18,.23-.14,.6-.18,.97-.05,.23-.05,.46-.09,.69,0,.09-.05,.18,0,.23,.18,.23,.14,.46,.09,.74-.05,.37-.14,.46-.51,.46h-.14c.05,.09,.05,.28,.05,.41-.14,.05-.32,.09-.41,0-.32-.18-.69-.18-1.01-.23-.18-.23-.28-.37-.41-.6-.09-.09-.09-.23-.18-.46,0,.23-.05,.41,0,.55,0,.14,.05,.32-.05,.32-.14,.05-.32,0-.41-.09-.09-.05-.14-.23-.23-.32-.23,.18,0,.41-.18,.6-.09-.14-.28-.23-.51-.18,0,.14-.05,.23-.09,.37-.05,.05-.09,.05-.14,.05-.09-.14-.28-.28-.41-.41-.09-.09-.09-.28-.18-.41-.23,.32,.14,.51,0,.83-.23-.28-.37-.51-.37-.83,0-.18,.05-.37-.14-.51-.05,0-.05-.14-.05-.18,.05-.32,.14-.69,.18-1.01,.05-.05,.09-.14,.14-.18,.09-.09,.18-.18,.32-.28-.09-.09-.18-.14-.23-.23,.09-.09,.14-.28,.18-.41,.05-.46,.05-.92,.09-1.38,0-.32-.05-.6-.28-.83-.18-.18-.18-.41-.28-.64-.14-.6-.51-1.1-.83-1.61-.28-.37-.55-.64-.92-.87-.14-.09-.23-.14-.41-.18-.09,.14-.18,.28-.23,.41-.41,1.01-.83,2.07-1.24,3.08-.51,1.15-.78,2.35-1.01,3.59-.09,.28-.14,.51-.23,.83,0,.09-.05,.28-.05,.41-.05,1.01-.09,2.07-.14,3.08-.05,.64-.09,1.33-.05,2.02,.14,1.33-.09,2.71-.09,4,.05,.78,0,1.47-.05,2.16,0,.32-.05,.69,.23,.97,.05,.05,.09,.09,.09,.18-.09,.32,.14,.51,.37,.78,.23,.37,.51,.78,.74,1.2,0,.05,.05,.09,.09,.09,.51,.64,1.06,1.24,1.66,1.84,.37,.32,.51,.32,.97,.05,1.01-.64,1.7-1.52,1.89-2.76,.05-.14,.05-.32,.05-.46-.09,.28-.18,.51-.32,.78h-.05c.05-.28,.05-.46,.05-.69,.09-.41,.23-.87,.32-1.29,.09-.28,.09-.51,.09-.78,0-.09,0-.23,.05-.41l.23,.23c.05-.28,.05-.51,.09-.74,.05-.37,0-.74,.09-1.15,.09-.28,.14-.55,.09-.83,0-.09,.05-.14,.09-.28,.09,.28,.14,.51,.18,.69,0,.23,.05,.41,.14,.64,0-.18,.05-.32,.05-.55-.05-.23,.09-.37,.28-.46,.05-.05,.09-.05,.14-.05,.28-.14,.51-.32,.41-.69-.09-.18-.09-.41-.09-.6-.09-.37-.05-.46,.32-.74,.14,.55,.28,1.1,.41,1.61q.37,0,.51,.41c.05-.18,.05-.37,.09-.55-.32-.09-.37-.32-.37-.6,.05-.14,0-.32-.05-.51,0-.14,0-.37,.05-.51,.18,.28,.14,.74,.64,.74,0,.18,.05,.32,.09,.6,.09-.32,.18-.46,.28-.78v-.05c0-.18,0-.41,.05-.46,.14-.18,.32-.28,.51-.18,.14,.05,.28,.09,.46,.14,.14,.74,.23,1.52,.37,2.35,.09,.55,.18,1.1,.23,1.66,.05,.23,0,.51,0,.74,0,0-.05,.05-.05,.09,.14,.6-.18,1.1-.28,1.7-.05,.37-.05,.78-.14,1.15-.05,.28-.14,.6-.18,.87-.09,.28-.14,.6-.18,.87-.09,.51-.37,.92-.51,1.38-.05,.05-.09,.05-.14,.14-.18,.6-.55,1.15-.97,1.56-.14,.09-.14,.28-.28,.37-.18,.23-.46,.46-.69,.69-.14,.09-.23,.18-.32,.23,.05,.05,.05,.14,.05,.23-.41,.23-.92,.23-1.24,.78,.14,0,.23,.05,.32,.09-.05,0-.05,.05-.05,.05-.28,.05-.51,.14-.78,.14-.23,0-.32,.09-.51,.28-.05,.05-.18,.14-.28,.05-.05,0-.14,0-.18,.05-.23,.14-.46,.23-.69,.32,.05-.09,.09-.14,.14-.28-.64,.23-1.24,.09-1.84,.09,.05-.14,.09-.18,.14-.18-.28-.05-.41-.14-.64,0h-.14c-.09-.18-.37-.09-.55-.18-.23-.14-.51-.23-.69-.41-.23-.28-.6-.28-.87-.55-.09-.09-.32-.28-.41-.41-.09-.09-.09-.23-.14-.37-.23-.14-.51-.32-.69-.64,.14,.05,.28,.09,.41,.18v-.09c-.09-.09-.18-.23-.32-.32-.69-.55-1.33-1.24-1.75-1.98-.23-.37-.46-.69-.74-1.01-.28-.46-.51-.97-.6-1.52-.09-.46-.28-.92-.41-1.38-.23-.6-.32-1.24-.32-1.93-.05-1.06-.09-2.16-.09-3.22,0-.64,.05-1.2,.05-1.79v-1.01c0-.41,.05-.83,.05-1.24,0-.64,0-1.24,.05-1.84,.05-.28,.05-.6,.09-.92,.09-.32,.14-.69,.09-1.06-.05-.14-.05-.28,0-.46,.14-.78,.28-1.52,.41-2.35,.14-.97,.51-1.89,.78-2.81,.18-.64,.41-1.2,.64-1.79,.05-.09,.09-.23,.05-.28-.05-.32,.09-.51,.28-.78,.23-.32,.46-.74,.6-1.15,.14-.32,.09-.78,.46-1.01,0-.37,.28-.41,.51-.6-.05-.14-.09-.18-.09-.28,.14-.18,.28-.23,.37-.46,.05-.18,.32-.28,.46-.41,.32,.09,.37,.14,.51-.32,.18-.05,.41-.14,.64-.23,.14-.05,.32-.09,.37-.14,.28-.28,.55-.28,.83-.09,.23,.09,.37,.05,.41-.23v-.14c.14,.05,.23,.05,.37,.05-.05,.09-.09,.14-.14,.23,.05,0,.09,.05,.09,0,.14,0,.32-.05,.46-.14,.23-.09,.46-.09,.74,0,.14,.14,.37,.09,.46,.32h.09c.32-.05,.55,.28,.87,.28h.09c.18,.32,.51,.28,.78,.46,.46,.23,.78,.69,1.2,1.01,.09,.09,.09,.28,.09,.32,.28,.18,.46,.28,.6,.41Zm-8.24,15.04v-.41h-.09c0,.14,0,.28-.05,.41h.14Zm0,1.47v-.32h-.05v.32h.05Zm7.5,2.07v0Zm1.38-8.6c.05-.09,.05-.23,.09-.41h-.09c-.05,.14-.09,.28-.09,.41h.09Zm.87,10.03h.05c0-.09,0-.14-.05-.18v.18Z"/>
      <path class="cls-1" d="M87.23,23.63c-.23-.55-.09-1.06-.09-1.61,.14-.28,.09-.6,.05-.83,0-.09,0-.18,.05-.28,.05-.14,.18-.32,.32-.51,.28,.51,0,1.06,.14,1.61,.09-.23,.18-.37,.37-.69,.05,.23,.05,.37,.09,.46h.05c-.05-.37-.09-.69-.09-1.06,0-.32,.05-.69,.09-1.06,0,.05,.05,.09,.09,.14,.05-.23,.09-.51,.18-.74,.05,.18,.05,.28,.09,.41h.05c.14-.28,.23-.64,.32-.92h.09c.23,.69,.18,1.33,.32,1.98,.23-.05,.14-.18,.14-.32-.05-.23-.09-.46-.09-.69,.05-.18,.09-.32,.18-.6,.51,.41,.18,.87,.28,1.24,.46-.09,.6-.18,.55-.69-.05-.32,.05-.64,.28-.87,.18-.18,.23-.41,.32-.64,.14-.05,.23,.05,.23,.14,.05,.18,0,.32,.05,.41,0,.23,.05,.41,.05,.6t.09,.05c.05-.14,.09-.28,.18-.37,.23,.32,.23,.51-.05,.74-.14,.18-.14,.41-.09,.6,.09-.09,.18-.23,.28-.46,.05,.51,.09,.92,.09,1.33,0,.69,.23,1.24,.37,1.89,.09,.41,.23,.83,.28,1.24,.09,.78,.14,1.56,.18,2.35,.05,.46,.14,.97,.18,1.47,.09,.78,.14,1.61,.23,2.39,0,.28,.09,.55,.09,.92,0,1.61-.05,3.22-.09,4.83v1.2c-.09,.83-.23,1.7-.32,2.53-.14,1.61-.32,3.27-.69,4.83-.14,.6-.23,1.15-.46,1.75-.14,.46-.37,.87-.6,1.29,0,.09-.09,.09-.14,.14-.05,0-.09,0-.14,.05-.14,.37-.32,.74-.46,1.1-.05,.09-.05,.28-.14,.37-.09,.09-.23,.14-.09,.23-.18,.18-.23,.37-.41,.46-.23,.05-.41,.09-.28,.37-.18,.18-.32,.37-.51,.51-.28,.23-.55,.32-.78,.51-.37,.28-.74,.46-1.1,.55-.18,.09-.51,.05-.74,.05-.28,0-.55,0-.74,.18-.05,.09-.18,.05-.28,.09-.18,.09-.41-.23-.55,.09-.23,0-.41,0-.6-.09-.28-.23-.55-.18-.87-.09-.32,.14-.6,.05-.92-.09-.28-.09-.51-.14-.78-.18-.14-.09-.32-.14-.41-.32-.23-.23-.51-.46-.83-.46-.09-.18-.14-.41-.23-.55l-.05-.05c-.41-.09-.46-.51-.69-.74-.14-.18-.32-.32-.41-.46-.18-.37-.28-.74-.41-1.1,0-.14-.05-.23-.05-.37-.05-.05-.09-.09-.09-.18-.09-.78-.37-1.52-.55-2.25-.37-1.38-.64-2.81-.83-4.23-.05-.55,0-1.2-.05-1.75-.05-.87-.18-1.75-.14-2.62,.05-1.89-.18-3.77-.23-5.66-.09-1.79-.23-3.63-.32-5.38-.09-1.38-.09-2.71-.09-4.05,0-.46,.05-.97,.14-1.47,0-.09,.05-.18,.14-.32,.14,.18,.28,.32,.41,.51,.32-.28-.18-.51,.05-.78,.41,.18,.41,.23,.37,.64,0,.18,.05,.37,.05,.55h.09s.09-.14,.09-.23c0-.14-.05-.28-.05-.46,0-.37,.14-.55,.37-.55,.32-.05,.6,.18,.69,.51,0,.18,.05,.37,.05,.55h.09c.05-.18,.09-.32,.18-.55,.09,.14,.14,.18,.23,.32v-.14c.05-.23,.09-.55,.41-.64,.32,.23,.18,.55,.23,.83,.05,.32,0,.6,0,.92,.18-.28,.28-.51,.41-.74,.05-.18,.09-.37,.14-.55,0-.18,0-.37,.28-.41,.14,.28,.09,.6,.41,.83,.05-.18,.09-.37,.18-.6,.14,.37,.14,.69,.09,.97-.05,.41,0,.83,.05,1.2,.28,1.29,.18,2.58,.23,3.86,.05,.32,.05,.6,.05,.97-.14-.09-.18-.14-.28-.18,0,.37-.09,.64,.18,.87,.05,0,.05,.05,.05,.09,.09,.74,.37,1.47,.28,2.25-.09,.46-.18,.92-.23,1.43v.87c0,.32,.05,.64,.14,1.01,.05-.32,.09-.6,.14-.92,.05,.14,.09,.14,.09,.18,.05,.6,.05,1.15,.09,1.66,0,.37-.05,.78-.09,1.15,0,.18-.05,.46-.05,.64-.05,.46-.09,.92-.14,1.43-.09,.41,.09,.78,.14,1.2,.46,.32,.28,.78,.23,1.2,0,.6-.05,1.29,0,1.89,0,.28,.14,.55,.28,.78,.05,.28,.18,.46,.23,.74,.18,.6,.46,1.24,.37,1.84-.09,.51,.05,.97,.28,1.38,.41,.74,.37,.78,1.38,.74,.74-.05,1.2-.37,1.56-1.01,.37-.6,.6-1.24,.74-1.93,.05-.78,.23-1.56,.37-2.35,.18-1.1,.37-2.21,.51-3.27h.28c-.37-1.01-.14-2.02-.14-3.04-.05-.41,0-.83,.05-1.24,0-.18,.05-.28,.14-.46,.05,.18,.05,.32,.09,.55h.09v-2.02c-.09,.28-.14,.55-.14,.92h-.14v-2.07c-.05-.69-.28-1.29-.14-2.02,.05,.37,.09,.74,.18,1.2,.18-.23,.18-.41,.18-.64-.09-.51-.14-1.01-.28-1.47,0,.14,0,.32-.05,.51-.18-.37-.23-.74-.28-1.06-.09-.64-.14-1.24-.18-1.89-.05-.41-.14-.78-.32-1.15-.28-.46-.37-.92-.41-1.52,.37,.18,.18,.64,.6,.78-.05-.18-.05-.23-.05-.37Zm-9.48-1.7c-.05,.14-.14,.23,0,.32q.09-.14,0-.32Zm3.22-.18c.05,.09,.05,.14,.05,.23h.05v-.23h-.09Zm1.01,16.15h-.05v-.23h.05v.23Zm.83,7.96c-.05-.09-.09-.14-.09-.23h-.09c.05,.14,.09,.18,.09,.28,.05,0,.05-.05,.09-.05Zm4.65-3.22c.05-.18,.05-.32,.09-.46,0-.14,0-.28,.05-.41h-.09c0,.14,.05,.28,.05,.41q-.23,.23-.09,.46Zm.14-17.99c-.05-.14-.05-.32-.09-.55-.23,.46-.09,.83,.18,1.06,0-.14-.05-.32-.09-.51Zm.78-4.55s-.09,.09-.14,.18c0,0,0,.05,.05,.18,.14-.14,.23-.23,.09-.37Zm1.47-1.43h-.05c0-.09,.05-.18,.05-.23h.09c-.05,.09-.05,.14-.09,.23Zm.74,17.39v.97c.14-.55,.14-.64,0-.97Z"/>
      <path class="cls-1" d="M106.83,17.19s.09-.09,.18-.14c.09,.23,.14,.51,.23,.78,.18-.14,.28-.23,.18-.41-.05-.18,0-.28-.05-.46,0-.18,.09-.32,.28-.32-.09-.28-.14-.55-.23-.78,0-.05,.05-.05,.05-.05,.05,.05,.18,.09,.18,.14,.05,.09,.09,.28,.14,.41s.09,.28,.14,.41q.14-.09,.14-.78c.09,.18,.14,.32,.18,.37,.14,.32,.23,.55,.32,.83,.05,.09,.05,.28,.14,.41,.09,.28,.18,.46,.32,.78,.18-.18,.28-.32,.41-.46,.14,.09,.23,.09,.28,.18,.23,.18,.32,.18,.51,0,.14-.09,.23-.14,.32-.28,.28,.18,.37,.51,.46,.78,.09,.23,.18,.46,.51,.55-.05-.32-.09-.55-.14-.78,.32,.18,.41,.46,.46,.78,.28,1.1,.51,2.16,.78,3.27,.09,.55,.18,1.15,.28,1.79,.14,.83,.14,1.66,.37,2.53,.05,.23-.14,.32-.28,.37,.05,.18,.05,.32,.05,.51,.05-.09,.09-.09,.14-.18,0-.05,0-.14,.09-.18,.05,.18,.14,.32,.18,.55,.18,1.2,.41,2.39,.55,3.59,.09,.69,.14,1.38,.28,2.02,0,.64,.14,1.29,.28,1.93,.05,.37,.09,.74-.14,1.06-.05,.14-.05,.32-.05,.46,.05,.41,.09,.78,.32,1.15-.05-.23-.05-.51-.09-.74,.28,.18,.32,.51,.37,.74,.09,.46,.09,.88,.14,1.33,.05,.78,.18,1.56,.28,2.39-.05-.05-.09-.05-.14-.09-.05,0-.09,.05-.09,.05,.05,.69,.05,1.38,.09,2.02,0,.28,.14,.51,.28,.74-.05-.28-.05-.51-.09-.78,.28,.23,.28,.55,.37,.83,.09,.28,.14,.55,.23,.83,.14,.51,.28,.97,.41,1.47,0,.14,.05,.23,0,.37-.14,.6,0,1.06,.18,1.66,.09,.37,.18,.78,.28,1.15,.05,.28,.05,.46,.05,.74,.14,.09,.23,.28,.18,.46-.09,.14-.32,.23-.51,.37t.09,.05c.05,.18,.05,.32-.14,.37-.14,.09-.23,0-.28-.09-.09-.18-.18-.32-.37-.37-.05,.14-.05,.32-.14,.41-.09,.05-.23,.05-.37,.09,0,.09,0,.18,.05,.32-.05-.05-.09-.05-.09-.09-.09-.18-.14-.32-.37-.32-.05,.09-.05,.23-.05,.46-.18-.18-.28-.32-.46-.46-.05,.14-.14,.32-.18,.46-.05-.09-.14-.18-.18-.28h-.05c0,.14,.05,.28,.14,.41-.32-.05-.37-.28-.55-.46-.14,.05-.23,.09-.37,.14-.05-.09-.09-.18-.14-.23-.05-.05-.14-.09-.14-.14-.05,.09-.14,.14-.14,.18,0,.09,.05,.18,.09,.28,.05,.09,.05,.23,.09,.37l-.05,.05c-.18-.18-.41-.32-.55-.51-.23-.18-.23-.51-.55-.6,0,.18,.05,.37,.05,.51-.32,.05-.41,0-.41-.28-.05-.32-.09-.64,0-.97,.09-.18,.23-.51-.18-.64v-.28c0-1.24-.41-2.39-.6-3.63-.14-.64-.23-1.38-.37-2.07-.14-.97-.28-1.93-.37-2.94-.18-1.06-.32-2.16-.46-3.27q-.05-.32-.37-.28c-1.24,.14-2.44,.18-3.68,.37-.32,.05-.64,0-.92,.18,0,0-.09,0-.14-.05-.23-.05-.46-.05-.69-.09,.05,.09,.05,.14,.09,.23-.37-.09-.64-.14-.92-.23-.09,.28-.18,.6-.28,.97-.05,.51-.23,1.06-.32,1.61-.09,.46-.09,1.01-.23,1.56-.09,.55-.23,1.06-.32,1.61-.09,.28-.14,.6-.23,1.01-.23-.14-.32,0-.37,.18,0,.14-.05,.28-.05,.46-.09,.37-.14,.74-.18,1.1-.05,.18-.05,.32-.09,.64,.14-.14,.28-.23,.46-.32,0,.55,.05,1.1,.05,1.61,0,.32,0,.64-.37,.92v-.46c-.14,.37-.41,.74-.23,1.15-.18,.23,0,.51,0,.69,.05,.23-.05,.41-.09,.64-.09-.14-.14-.23-.23-.41-.09,.41-.18,.74-.23,1.06h.37c.09,.14,.18,.18,.32,.37-.32,.32-.78,.18-1.24,.28,.09,.14,.18,.23,.32,.37-.23,0-.32,0-.46-.18-.05-.05-.18-.05-.28-.09v-.37c-.28-.09-.32-.23-.23-.51v-.37h-.09c0,.18-.05,.32-.09,.51,0,.23-.05,.51-.23,.69-.09,.14-.14,.32-.28,.55-.05-.18-.05-.41-.09-.41-.18-.05-.14-.28-.37-.37,0,.09-.05,.18-.05,.28-.05,.09-.14,.23-.14,.23-.23-.05-.18,.09-.23,.23-.05,.09-.09,.18-.18,.23-.28-.05-.41-.32-.6-.55-.05,.09-.09,.14-.14,.14,0-.41-.55-.23-.6-.64,.32-.28,.83-.55,.6-1.29-.23,.51-.37,.97-.83,1.24-.09-.05-.28-.14-.46-.14-.05-.18-.05-.41-.05-.55,0-.28-.05-.37-.37-.37,.09-.23,.14-.37,.18-.6,.05-.14,.09-.32,.14-.51,.05-.14,.05-.37,.09-.46,.37-.41,.46-.92,.55-1.47,.14-.55,.18-1.1,.23-1.7,.14-1.33,.32-2.62,.64-3.91,.18-.83,.28-1.66,.41-2.48,.09-.55,.18-1.06,.28-1.61,.28-1.1,.46-2.25,.69-3.36,.14-.97,.28-1.93,.46-2.85,.28-1.66,.6-3.31,1.06-4.97,.18-.83,.32-1.66,.51-2.48,.09-.83,.28-1.66,.46-2.48,.09-.64,.23-1.24,.41-1.93,.09-.55,.23-1.06,.32-1.61,.05-.28,0-.6,.05-.87,0-.23,.05-.55,.09-.83,.18,.23,.55,.28,.46,.69,.37-.37,.37-.83,.18-1.38,.05,0,.05-.05,.09-.05,.23-.05,.46,.28,.64,.23,.28-.05,.46,.05,.69,.14,0-.05,.09-.09,.14-.18,.14,.28,.32,.32,.55,.28,.28,.23,.09,.55,.14,.83,.55-.09,.32-.64,.55-.83,.37,.37,.83,.51,1.43,.41-.05-.23-.05-.37-.05-.6,.09,.05,.14,.14,.18,.18q.14,.28,.37,.14Zm-9.75,33.63s-.05,.05-.05,.09c-.05,.14,.05,.23,.14,.09,0-.05-.05-.14-.05-.23l-.05,.05Zm2.67-10.67c.09-.51,.18-.97,.32-1.38-.28,.37-.41,1.01-.32,1.38Zm2.02-23.05s.09-.05,.09,0c.09,.09,.09,.14,0,.23-.14-.09-.18-.14-.09-.23Zm2.16,13.71c-.23,.32-.28,.69-.23,1.06,.14-.37,.23-.69,.28-1.01-.05,0-.05-.05-.05-.05Zm.78-2.02c-.18,.78-.46,1.47-.6,2.16-.14,.64-.14,1.24-.18,1.89t.05,.09c1.29,0,2.58-.41,3.86-.28-.37,.14-.69,.18-1.06,.23-.87,.05-1.75,.14-2.62,.23-.09,0-.18,.05-.23,.09v.09c.28,0,.55,0,.83-.05,.74-.05,1.47-.14,2.16-.23,.32,0,.64-.05,.92-.09,.28,0,.55-.09,.83-.14v-.09c-.18-.05-.28-.09-.46-.14v-.05c.14-.05,.28-.09,.41-.09,0-.14-.05-.28,.05-.28,.18-.09,.14-.28,.14-.46-.18-.78-.32-1.52-.46-2.3-.09-.6-.23-1.24-.28-1.84-.14-1.29-.37-2.62-.6-3.91-.05-.18-.14-.28-.32-.28-.37-.05-.78-.09-1.2-.14-.14,0-.28,.05-.32,.18-.05,.14-.09,.37-.09,.51,.05,.55-.14,1.06-.18,1.56,0,.14-.05,.37-.18,.41-.46,.46-.37,1.1-.51,1.66h.28c-.09,.41-.14,.83-.23,1.24Zm-.74-11.55q-.05,.32,0,.64c.23-.32,.23-.37,0-.64Zm1.01,9.8h.09c-.05,.14-.09,.32-.14,.51,0-.18,0-.37,.05-.51Zm.41-3.86c-.05,.23-.09,.41-.14,.64v.37h.09c-.05-.14-.09-.28-.09-.41,.18-.18,.18-.23,.14-.6Zm.28-6.07s-.05-.05-.05-.09,.05-.09,.09-.09,.09,0,.14,.05c0,.05-.05,.05-.05,.09-.05,0-.09,.05-.14,.05Zm.74,1.1v-.18s-.05,.09-.09,.14t.09,.05Zm.05-1.43q.09,.18,0,.28v-.28Zm1.2,.51c.09,.32,.23,.6,.32,.92,.32-.09,.37-.14,.28-.37-.09-.14-.14-.28-.23-.41-.05-.09-.14-.14-.23-.23-.05,.05-.09,.05-.14,.09Zm4.46,6.39c-.05-.28-.05-.51-.09-.74-.05,.05-.09,.05-.09,.05,.05,.18,.05,.41,.14,.69h.05Zm.32-.6c0,.32,.05,.6,.05,.87,0,.32,.05,.69,.05,1.01h.09c0-.18,.05-.37,0-.55,0-.14,.05-.37-.14-.46,.14-.28,.14-.55-.05-.87Zm.32,2.76v.23h.05v-.23h-.05Zm.37,2.07v0Zm.74,22.31c-.14,.23-.37,.51-.28,.83,.09-.32,.28-.51,.28-.83Zm.28-.64c-.09-.23,.14-.51-.09-.78-.18,.41-.18,.97,.23,1.56,.18-.32-.05-.51-.14-.78Zm.32,2.02c.09-.09,.14-.18,.23-.32-.05,0-.09,0-.09-.05-.09,.14-.14,.23-.23,.32t.09,.05Zm1.06-1.15v-.14s-.18-.05-.32-.14c.05,.28,.14,.32,.32,.28Zm.09-1.84s-.09,.09-.09,.18c-.05,.09-.05,.14-.09,.28q.23-.18,.18-.46Zm.32-.87v1.01c.23,0,.41-.09,.41-.28,0-.28,0-.6-.28-.74h-.14Z"/>
      <path class="cls-1" d="M123.11,52.39h-.05v-.6c-.09,.05-.14,.05-.14,.05-.18-.28-.28-.55-.41-.83-.05,0-.09,0-.09,.05-.05,.18-.05,.41-.09,.69-.18-.14-.05-.28-.18-.46-.05,.05-.14,.09-.23,.14-.05-.05-.05-.14-.09-.23-.05,.51-.09,.97-.14,1.43h-.09c-.05-.14-.05-.23-.09-.41-.05,.14-.05,.18-.05,.23-.41-.23-.18-.69-.28-.97-.14,.23-.28,.55-.51,.92-.05-.14-.09-.28-.18-.41-.09,.14-.18,.23-.28,.32v-.64s-.09-.05-.18-.09c-.18,.51,.09,1.06-.14,1.56,0-.09-.05-.18-.05-.28-.05-1.01-.18-2.07-.23-3.08,0-1.15-.09-2.35-.14-3.5v-1.06c-.05-.74-.09-1.52-.09-2.25v-2.44c-.05-1.52-.09-3.04-.14-4.6,0-1.33-.09-2.58-.09-3.82-.05-1.2-.05-2.35,0-3.45,0-.6,.05-1.1,.09-1.7,.09-.97,.18-1.89,.28-2.81,.09-.32,.14-.69,.23-1.01,.05-.28,.05-.55,0-.87,0-.05-.05-.09,0-.14,.18-.37,0-.78,0-1.2,0-.55,.05-.6,.51-.78,.05-.05,.09-.05,.09-.05-.09,.46,.18,.83,.09,1.29h.14c0-.23,.05-.46,.05-.64,0-.23,.05-.37,.23-.51,.55-.32,1.06-.6,1.7-.74-.23-.23-.41-.14-.64-.09-.14,.09-.41,.14-.6,.14,.97-.69,2.12-1.06,3.36-1.1-.14,.32-.41,.28-.64,.41,.37,.14,.74,0,1.1-.14-.14-.09-.18-.18-.28-.23,0-.32,.23-.46,.51-.46,.32-.14,.64-.18,1.06-.28,0,0,.14,.09,.23,.09-.09,.09-.14,.18-.23,.32,.41,.32,.83,.32,1.33,.28h.41c-.18-.28-.41-.32-.6-.32-.05,0-.05,.05-.09,.09,.09,.09,.18,.14,.28,.23-.09-.05-.14-.05-.23-.14-.23-.14-.37-.28-.6-.41,.14-.14,.32-.14,.51-.14,.64,.14,1.15,.32,1.61,.78h.05c.64,.41,1.1,1.06,1.52,1.7,.18,.28,.28,.69,.55,.87,.18,.14,.37,.28,.6,.37-.28-.37-.74-.6-.83-1.2,.09,.09,.18,.18,.23,.23,.18,.14,.32,.28,.51,.41,.14,.18,.32,.37,.51,.55,.05,.09,.18,.14,.32,.23,.09,.09,.14,.18,.14,.32,.05,0,0,.09-.09,.14,.37,.46,.64,1.01,.78,1.66,.05,.32,.18,.6,.32,.92,.05-.05,.09-.05,.14-.09,.09,.55,.23,1.1,.37,1.66-.09-.41,.05-.83-.14-1.24-.14-.32-.14-.74-.14-1.1,.28,.28,.41,.64,.41,1.01-.05,.46,.14,.87,.23,1.29,.05,.09,.14,.23,.14,.41,.05,.74,.09,1.43-.09,2.16-.14,.37-.14,.78-.18,1.15-.05,.05-.09,.23-.09,.32-.09,.14-.09,.32-.09,.55,.05,.28-.09,.6-.23,.87-.18,.55-.51,1.1-.69,1.61-.46,1.06-1.01,2.07-1.7,2.9-.09,.14-.18,.23-.37,.32,0-.14,0-.23,.05-.32-.05,0-.09-.05-.14,0-.14,.09-.37,.28-.55,.41,.46,.69,.87,1.29,1.24,1.98,.28,.41,.41,.87,.6,1.29-.14-.09-.28-.14-.46-.23,.05,.09,.09,.28,.18,.37,.28,.32,.46,.69,.6,1.1,.09,.18,.18,.41,.32,.6-.05-.37-.18-.69-.28-1.06,.6,.74,.92,1.61,1.1,2.58,.09,.74,.18,1.47,.18,2.25-.05,.51,.05,1.06,.05,1.52,0,.37,.05,.74-.28,.97-.09,.09-.09,.23-.09,.32-.05,.69-.05,1.29-.09,1.98h-.18c0,.14,0,.32-.05,.46h-.09c-.09-.23-.14-.46-.23-.78h-.05c0,.28,0,.55-.05,.87-.09-.14-.14-.23-.18-.32-.23,0-.23,.18-.23,.32v1.06c-.09-.05-.14-.09-.23-.14-.05,.32-.14,.6-.51,.74,.14-.51-.05-.87-.32-1.24-.09,0-.18,.05-.32,.05v1.7c-.23-.05-.18-.23-.23-.37-.09-.14-.23-.28-.32-.37-.09-.14-.09-.32-.18-.51-.05,.14-.05,.18-.09,.32h-.32s-.09,.09-.05,.14c0,.14,0,.37,.09,.51,.23,.28,.05,.51,.09,.88-.14-.05-.23-.05-.28-.14-.09-.23-.18-.41-.23-.69-.05-.18-.14-.41-.32-.55-.23-.28-.23-.69-.28-1.01-.14-.74-.18-1.47-.28-2.21-.05-.37,.05-.74,.05-1.06,.09-1.06,.05-2.12-.14-3.17-.09-.41-.18-.88-.37-1.24-.32-.78-.74-1.52-1.15-2.3-.18-.28-.41-.46-.64-.69-.46-.41-.97-.46-1.61-.09-.14,.09-.28,.18-.46,.28-.05-.14-.09-.23-.14-.37-.05,.05-.09,.05-.09,.09-.05,.46-.09,.87-.05,1.33,0,.41,.05,.83,.14,1.29,0-.14,0-.23,.05-.46,.05,.14,.09,.23,.09,.28,.14,1.24,.23,2.53,.32,3.77v1.15c0,.14,0,.32-.18,.41,0-.18-.05-.41-.09-.6-.18,.37-.18,.69-.18,1.06s.05,.74-.23,.97c-.14,.09-.14,.23-.18,.41-.05-.14-.14-.18-.18-.23-.05,.32-.09,.6-.09,.92,0,.28-.09,.41-.37,.46v.41c-.05,.28-.14,.51-.18,.74Zm-2.81,.6h.05v.32h-.05v-.32Zm.41-33.17h.09c-.05,.09-.05,.18-.05,.28-.05-.05-.09-.05-.14-.05,.05-.09,.05-.14,.09-.23Zm1.98,32.2c0,.37,0,.64-.14,.87-.14-.28-.09-.51,.14-.87Zm.64-.05h-.05v-.32c0,.14,.05,.23,.05,.32Zm.74-.55c-.14-.23-.14-.69-.09-1.01,.14,.37,.09,.69,.09,1.01Zm.14-22.63c-.05,.14-.14,.28-.14,.41-.05,.78-.05,1.52-.09,2.25,0,.09,.05,.18,.05,.23,0,.37,.09,.74,.05,1.01-.14,.55,.05,1.06,.09,1.61,.05-.55-.05-1.06,.18-1.61,0,.64,.09,1.33,.18,2.02,.28-.05,.6-.14,.83-.14,.46-.18,.83-.46,1.15-.78,1.29-1.29,2.16-2.85,2.58-4.6,.18-.74,.18-1.43,.09-2.16-.09-.55-.23-1.06-.64-1.47-.23-.28-.46-.55-.69-.87-.28-.32-.6-.64-.92-.97-.18-.23-.51-.32-.78-.14-.14,.05-.37,.09-.55,.09-.09,.05-.28,.05-.41,.09-.18,.05-.32,.14-.32,.32,0,.55-.23,1.06-.23,1.66-.05,.92-.14,1.84-.23,2.76-.05,.09-.05,.23-.05,.28h-.14Zm.14,21.81q-.09-.23,0-.51v.51Zm0-6.62v-.23h-.05v.23h.05Zm.09,2.21v.41h.05v-.41h-.05Zm4.83,6.58c.28,.05,.32,.23,.18,.46-.09-.18-.14-.32-.18-.46Zm1.06-2.39c-.09,.28-.23,.51,0,.78,.18-.23,.23-.51,0-.78Zm1.93-16.15c-.05,.18-.05,.32-.05,.37-.05,.09-.09,.18-.14,.28,0,.05,.05,.05,.09,.05,0-.09,0-.18,.05-.32q.28-.09,.05-.37Zm0,16.42v-.32h-.05v.32h.05Zm.09-18.17c.32-.37,.51-.74,.6-1.2-.32,.09-.46,.41-.6,1.2Zm.18,7.73c-.18-.05-.18-.18-.14-.28,.05,.09,.09,.18,.14,.28Zm.55-7.36c-.05,.14-.28,.32-.23,.55-.09,.05-.14,.14-.09,.28,.14-.05,.14-.18,.09-.28,.23-.09,.23-.37,.23-.55Zm0-10.35c-.32,0-.14-.23-.18-.32h.09c.05,.09,.05,.18,.09,.32Zm.14,10.17c.09-.14,.18-.18,.23-.23-.28-.09-.32,0-.23,.23Zm.41-8.93c-.09-.18-.14-.32-.18-.55,.28,.14,.32,.23,.41,.78-.05-.09-.18-.14-.23-.23Zm.28,6.9c-.09,.28-.37,.6-.23,1.01,.28-.6,.32-.74,.23-1.01Zm.18-.37c0-.14,0-.28,.05-.41h-.09v.41h.05Z"/>
      <path class="cls-1" d="M149.79,46.77c-.09,.23-.14,.37-.23,.55l-.09,.09c-.14,0-.23-.05-.32,.09-.09,.18-.14,.37-.23,.64,.46-.05,.6-.41,.97-.6,.09,.09,.18,.18,.05,.28-.18,.32-.41,.55-.64,.83-.18,.14-.46,.14-.64-.05-.05,.05-.14,.14-.18,.28-.09-.14-.18-.23-.23-.32-.14,.05-.23,.09-.18,.28,.05,.23,.09,.41,.09,.64,0,.18,.05,.41-.18,.55-.09,.14-.14,.32-.18,.55-.14-.28-.28-.51-.41-.74-.05,.05-.14,.14-.14,.18,0,.32-.14,.6-.46,.64,0,.09,.05,.23,.05,.41,.23-.23,.41-.41,.6-.6,.05,.05,.09,.14,.14,.23,.28,.46,.23,.74-.32,.92-.05,0-.09,.05-.05,.05-.18,.23-.23,.41-.37,.64-.23-.55-.46-.83-.69-.97-.05,.28,.14,.6-.14,.87h-.32c.09-.18,.09-.28,.18-.32q-.14-.28-.6-.37c-.09-.23-.18-.46-.32-.78h.97c-.05-.37-.05-.64-.09-1.06-.14,.18-.32,.32-.46,.55,0,.05,.09,.14,.14,.28h-.14s-.14-.14-.28-.18c-.09,.18-.14,.37-.23,.41-.14,.09-.32,.09-.51,.09-.09,.09-.18,.28-.23,.37,0,0-.05-.05-.09-.05,.05-.41,.32-.83,.23-1.29-.41,0-.28,.41-.55,.6,0-.09-.05-.18-.05-.23-.09-.14-.09-.37-.18-.41-.32-.37-.18-.64,0-.92,.05-.09,.14-.18,.18-.28,.05,.05,.14,.14,.23,.23,.14-.28,.28-.51,.09-.78-.05-.05-.05-.14,0-.23,.14-.87,.05-1.84,0-2.76-.09-1.2-.28-2.35-.18-3.54,.05-.46,0-.97-.05-1.47-.05-1.1-.09-2.25-.14-3.45-.05-1.7-.09-3.45-.18-5.2-.14-1.89-.18-3.82-.14-5.71,0-.41-.05-.83-.09-1.29-.32,.05-.6,.09-.87,.14-.41,.05-.87,.05-1.33,.14-.46,.05-.92,.14-1.38,.23-.37,.05-.74,.05-1.1,.18-.14,.05-.28-.05-.46-.09,.05,0,0,0,0,0-.46,.32-.55,.28-.87-.09-.09-.05-.09-.09-.14-.18-.05-.14,.05-.28,.14-.41,.18-.09,.28-.18,.37-.32,.05-.09,.05-.14,.09-.23-.09-.05-.14-.18-.28-.37-.18,.14-.28,.28-.51,.37-.09-.18-.14-.41-.18-.64-.05,0-.14,.05-.28,.05,.05-.09,.05-.14,.09-.14,.23-.09,.51-.09,.74-.18-.05-.37-.37-.37-.69-.37,.14-.18,.23-.32,.32-.46-.09-.23-.18-.46-.23-.74-.14,0-.28-.05-.46-.09,.32-.46,.74-.64,1.1-.88,.46-.28,.92-.23,1.43-.28-.14-.05-.28-.09-.41-.18,.28-.18,.51-.23,.83-.23,.46,0,.87-.05,1.33-.09h.41c.23,.05,.41,0,.64-.14,.18-.14,.46-.18,.74-.23,1.47-.32,3.04-.32,4.55-.23,.64,0,1.24-.14,1.89-.05,.51,.09,1.1-.09,1.66,.18-.09,.05-.18,.09-.37,.14,.18,.05,.28,.09,.37,.09,.55,.09,1.15,.14,1.7,.18,.23,.05,.41,.09,.55,.28,.05,.05,.18,.09,.28,.09,.28-.05,.46-.09,.74-.14,.23-.05,.46-.09,.6,.14-.05,.05-.09,.09-.14,.14,.23,.18,.51,.18,.83,.18-.14,.09-.32,.18-.46,.28,.23,0,.46,.05,.69,.05,.05,.05,.09,.09,.18,.14-.37,.23-.6,.41-.69,.83v-.05c-.18,.14-.46,.18-.69,.28v.09c.14-.05,.28-.09,.41-.09,.37-.05,.37-.09,.55,.23,.18-.18,.23-.51,.51-.46,.09,.18,.23,.32,.32,.51-.18,.14-.41,.23-.64,.14-.23-.05-.41,.09-.6,.23,.05,.05,.05,.09,.09,.09,.51,0,.97,.14,1.47-.09,.23-.14,.51-.14,.78-.18,.09,.18,.09,.32-.05,.37-.23,.05-.41,.14-.64,.23-.05,.05-.14,.09-.23,.18h.83c-.18,.09-.28,.18-.41,.28-.14,.05-.18,.14-.32,.18-.23,.23-.51,.23-.74,.28-.18,0-.37,.05-.51,.14-.32,.28-.37,.37-.55,.32-.55,0-1.06,.28-1.7,.46,.09-.14,.14-.18,.18-.28-.14-.09-.23-.09-.28,.05-.14,.18-.32,.18-.46,.14-.37-.05-.74-.18-1.06-.09h-.18c-.64-.23-1.52-.28-2.12-.18-.05,0-.09,.05-.09,.05,.05,.6-.09,1.15-.32,1.7,0,.05-.05,.14,0,.23,0,.74,0,1.52,.05,2.3,.18-.6,0-1.2,.05-1.79l.05-.05c.05,.14,.05,.23,.05,.32,.05,.23,.05,.51,.09,.69,.05,.55,.09,1.1,.14,1.66,.05,.83,.09,1.66,.14,2.53,.05,.18,.05,.46,.05,.69,.05,.46,.05,.97,.09,1.43v.32c-.09,.69-.09,1.43-.05,2.12,0,.05-.05,.14-.14,.18,0-.32,0-.6-.05-.83,0,0,0-.05-.05-.05-.05,.14-.09,.32-.14,.46,0,.32,0,.6,.05,.87,0,.18-.05,.46,.28,.51,.05,0,.09,.09,.09,.18,.05,.14,.05,.32,.05,.51,.09,1.24,.14,2.53,.18,3.77,0,.69,.05,1.33,.09,2.02v1.33c0,.23,0,.32,.23,.55-.05,.14-.09,.23-.09,.32-.14,.05-.28,.05-.46,.09,.09,.18,.23,.18,.32,.18,.09-.05,.09-.18,.14-.28,.05,.28,.18,.37,.51,.46Zm-13.62-26.31c.09-.28,.14-.32,.55-.14-.23,.05-.41,.09-.55,.14Zm.55,4.32c.14-.14,.18-.05,.28,0h-.28Zm.69-2.12c.23-.05,.46-.05,.69-.09q-.51-.05-.69,.09Zm4.19-2.76h.32v-.05h-.32v.05Zm.69-.46c-.09,0-.23,.05-.28,.05v.09h.32s0-.09-.05-.14Zm.87,29.21h.28c-.14,.14-.18,.18-.23,.28-.09,.14-.14,.37-.23,.55-.05,.05-.09,.09-.14,.14,0-.37,.05-.64,.32-.97Zm1.29,.41c-.05-.14-.09-.28-.09-.41-.05,0-.09,0-.09,.05,0,.09,0,.23,.05,.37h.14Zm-.05,.64c-.09,.18,.09,.37,.09,.55h.14v-.6c-.14,0-.18,0-.23,.05Zm1.75-11.41v.51h.05v-.55s-.05,.05-.05,.05Zm.41,10.31c.09-.37,0-.51-.32-.83,0,.32-.05,.64-.09,1.01,.28,.09,.37-.09,.41-.18Zm1.06-29.35h.51v-.05h-.51v.05Zm.18,29.44c.14-.14,.18-.37,0-.6v.6Zm.32-24.38c-.18,.37-.14,.74-.05,1.2,.14-.46,.14-.87,.05-1.2Zm0,9.25c-.05-.18,.09-.37-.09-.64v.69s.05-.05,.09-.05Zm.09,17.21q0-.18,.18-.37c-.09,.14-.14,.28-.18,.37Zm.09-19.88v-.32h-.05v.32h.05Zm.28,2.9c.05-.09,.05-.28,.05-.41h-.14c-.18,.51,.09,1.1-.14,1.61,.23-.41,.09-.83,.23-1.2Zm.51,15.18s.18-.09,.28-.05c.09,0,.18,.09,.09,.23-.05,.09-.14,.23-.18,.32-.09,.09-.18,.18-.32,.18-.18-.09-.32-.09-.6-.14,.28-.23,.51-.41,.74-.55Zm-.69-22.91v-.18h.05s0,.09-.05,.18Zm.18,12.74v-.41h-.05v.41h.05Zm.23,5.2v.64h.05v-.64h-.05Zm.14,1.61q.09-.28-.09-.51c0,.18-.05,.32-.05,.51h.14Zm.51,.05s-.09-.05-.14-.05c0-.05,.05-.09,.05-.09,.05,0,.09,.05,.09,.05t.05,.09s-.05,.05-.05,0Zm2.07-25.86h.51v-.09c-.14,0-.32,.05-.51,.05v.05Zm1.79,.23c-.32,0-.55-.05-.83,.14,.28,.09,.55,.05,.83-.14Zm1.1,3.27c.09-.05,.14-.09,.23-.14l-.05-.05c-.09,.05-.14,.09-.18,.14v.05Zm.64-2.07c-.14,.32-.32,.18-.51,.23v.05c.18-.09,.28-.18,.51-.28Z"/>
      <path class="cls-1" d="M165.57,19.35c.28-.18,.6-.28,.97-.23,.37,.05,.69-.09,1.06-.14,.28-.09,.6-.05,.88,.09,.09,.05,.18,.05,.28,.05,.23,.05,.41,.05,.64,.05,.14,.05,.37,.09,.51,.09,.41-.05,.64,.32,.92,.28,.28,.23,.51,.41,.74,.6,.09-.28,.32-.28,.46-.18,.37,.14,.74,.28,.87,.64,.05,.09,.14,.18,.18,.23,.18,.14,.46,.28,.6,.51,.09,.09,.18,.28,.23,.41,.09,.41,.23,.83,.6,1.15,.14,.09,.14,.18,.18,.32,.23,.46,.46,.92,.55,1.43,.05,.55,.14,1.1,.23,1.66,.09,.41,.18,.83,.32,1.24,.32,.6,.41,1.24,.55,1.93,.18,.78,.23,1.56,.28,2.39,0,.41-.09,.83-.09,1.24-.05,.6-.05,1.1-.05,1.66-.05,.87-.05,1.75-.14,2.58-.05,.55-.14,1.1-.23,1.7-.28,1.52-.74,2.99-1.15,4.55-.18,.78-.41,1.56-.69,2.3-.18,.55-.46,1.06-.64,1.52-.05,.14-.18,.32-.18,.41,.05,.23-.09,.41-.23,.6-.32,.46-.64,.92-1.01,1.33-.18,.18-.37,.37-.64,.51-.18,.14-.46,.28-.74,.46-.09,0-.23,.09-.23,.18-.09,.28-.37,.41-.55,.64-.05,0-.14,.09-.23,.05-.28-.05-.41,.09-.64,.18-.41,.18-.83,.41-1.24,.6-.28,.05-.6,.05-.97,0-.41,0-.78-.05-1.2-.09-.05,0-.09,.05-.18,.09-.18-.28-.41-.46-.78-.41-.18,0-.41,0-.6-.09-.32-.23-.64-.41-.97-.69-.37-.28-.6-.6-.83-.87-.14-.18-.32-.28-.46-.41-.46-.28-.74-.74-1.01-1.15-.37-.46-.51-.92-.55-1.47-.05-.18-.18-.32-.32-.41-.14-.18-.23-.32-.28-.55-.23-1.24-.37-2.48-.83-3.63-.28-.69-.37-1.47-.6-2.16-.05-.14-.05-.23-.05-.37,0-.28-.05-.6-.05-.92,0-.14,.05-.32,.05-.46,0-.05,.05-.09,0-.14-.09-.46,.14-.92,.14-1.38v-2.67c.05-1.15,.05-2.3,.14-3.45,.09-1.2,.23-2.44,.55-3.59,.14-.6,.28-1.2,.41-1.75,0-.09,0-.18,.05-.23,.37-.28,.32-.74,.51-1.06,.14-.28,.28-.6,.41-.87,.28-.51,.6-.97,.87-1.43,.23-.23,.41-.46,.6-.69,.14-.23,.37-.41,.6-.55,.14-.05,.28-.09,.41-.18,.09-.05,.28-.05,.23-.28-.05,0,.05-.09,.05-.09,.32-.23,.6-.37,.87-.55,.09-.05,.18-.09,.23-.14,.18-.14,.32-.18,.6-.14-.09,0-.18,0-.05,.23,0-.14,.05-.18,.05-.23,.28,.05,.41-.14,.6-.23Zm-4.23,9.43c.14-.41,.28-.74,.32-1.1-.28,.41-.37,.78-.32,1.1Zm8,15.32c.09-.14,.14-.32,.14-.46,.14-.37,.28-.78,.37-1.2,.18-.64,.51-1.24,.6-1.93,.05-.05,.05-.09,.09-.09,.28-.05,.28-.32,.37-.55,.14-.37,.23-.78,.28-1.2,.05-.28,.05-.6,0-.83-.05-.32-.09-.55-.09-.78,.05-1.15,.05-2.25,.14-3.36,0-.28,.05-.55,.14-.78,.14-.32,.18-.55,.14-.83-.05-.18-.09-.41-.14-.6-.23-1.1-.51-2.21-.69-3.27-.09-.41-.05-.87-.09-1.29v-.23c-.14-.51-.28-1.06-.51-1.52-.09-.14-.18-.23-.32-.23-.37,.05-.69-.05-.69-.51,0-.14-.14-.18-.28-.14-.14,.23,.28,.37,.05,.69-.18-.28-.41-.46-.6-.69-.23-.05-.41-.09-.64-.14-.14-.05-.32-.09-.46-.05-.32,.09-.6,.18-.92,.37-.23,.14-.46,.28-.51,.55-.05,.18-.23,.32-.32,.46-.18,.37-.46,.74-.6,1.1-.23,.55-.32,1.15-.51,1.75-.09,.37-.18,.69-.18,1.01-.09,.51-.23,1.01-.28,1.52-.05,.97-.05,1.93-.09,2.9,0,.28-.05,.51-.05,.78l-.09,.09c-.05-.09-.14-.14-.23-.32-.05,.23-.09,.37-.09,.55,0,.74,.05,1.43,.05,2.16,0,.09,.05,.18,.05,.28h.05c.05-.23,.14-.41,.18-.64,0,0,.05,.05,.09,.05,0,.37,.05,.74-.14,1.1-.14,.23-.18,.46-.18,.74,0,.55,.18,1.06,.32,1.61,.37,.92,.6,1.84,.74,2.76q.09,.41-.18,.74c.14,.37,.28,.74,.37,1.1,.28,1.01,.83,1.79,1.7,2.35,.28,.14,.51,.28,.74,.18,.55-.28,1.1-.51,1.38-1.06,.28-.46,.6-.92,.69-1.52,.09,.09,.14,.14,.18,.18,.32-.46,.46-.97,.6-1.47l-.05-.05c-.14,.28-.28,.51-.37,.74-.05,0-.09-.05-.14-.05Zm2.12-10.35c0,.14,0,.28-.05,.41h.14v-.41h-.09Zm.37-13.25c-.09,0-.18,0-.28-.05v.05s.14,.05,.23,.09c0-.05,0-.09,.05-.09Zm-.28,10.44v.28s.05,0,.05-.05v-.23h-.05Z"/>
      <path class="cls-1" d="M186.91,23.31v-.05s.05-.09,.14-.14c0,0,0,.05,.05,.05-.05,.05-.14,.09-.18,.14Zm6.03,13.94h.09c0,.14,.05,.28,.05,.41,.05,1.01,.14,1.98,.18,2.99,.05,1.1,.05,2.25,.05,3.45,0,.14-.09,.32-.14,.51-.09-.09-.18-.18-.23-.28-.14,.74,.09,1.47,0,2.25h.87c-.18-.14-.23-.14-.64-.18-.05-.23,.09-.23,.28-.23,.37,.05,.78,.09,1.15,.23,.23,.05,.41,.18,.32,.51,.55,.41,1.24,.41,1.89,.74-.09,.05-.09,.09-.23,.18,.28,0,.46-.05,.6,0,.14,.09,.28,.14,.51,.05,0,.09,.09,.18,.14,.32-.51,.14-.97-.18-1.43-.05,.28,.05,.51,.09,.87,.18-.05,.14,0,.23,.18,.32,.18,.09,.23,.32,.37,.51,.09-.05,.18-.09,.28-.09,.05-.05,.23-.05,.23,0,.09,.28,.37,.18,.69,.28-.46,.23-.78,0-1.15,.05-.05,.05-.14,.09-.18,.23,.32,.23,.64,.23,1.01,.23-.18,.23-.37,.28-.6,.23-.32-.05-.64-.09-.97-.18,.14,.32,.18,.51,.32,.74,.09,.09,.28,.14,.46,.09,.18-.09,.18-.18,.18-.51h.41c.09,.05,.23,.05,.37,.09-.14,0-.28,.05-.46,.09,.18,.09,.32,.14,.51,.23h-.28c-.23,.09-.51,.23-.69,.37-.09,.05-.14,.14-.14,.18s.14,.09,.28,.18c0,.18,.05,.41,.09,.64-.14,.14-.32,.32-.51,.46-.05,.05-.23,.14-.32,.09-.23-.18-.51-.09-.83-.18-.55-.14-1.15-.28-1.7-.41-.18-.05-.37-.14-.55-.23v.23c-.09,.23-.32,.28-.41,.09-.09-.14-.23-.14-.37-.18-.23-.05-.37-.09-.6-.14-.09-.05-.18-.09-.23-.05-.32,0-.55,.05-.78,.09v.18c-.32-.37-.64-.23-.97-.18-.18,.05-.28,.05-.46,.05-.32,0-.37,.05-.55,.37-.09-.14-.09-.23-.18-.28-.05,.05-.05,.09-.09,.14s-.09,.14-.14,.14-.09-.09-.09-.14c-.05-.18-.18-.28-.41-.28-.09,0-.18-.14-.32-.23,.05-.09,.09-.18,.09-.28,.05-.05,.05-.14,.05-.18-.23-.09-.46,.14-.64-.09v-.28c.18,0,.37,0,.46,.05q0-.23-.74-.18c.05-.14,.09-.23,.09-.28,.05-.09,.05-.18,.09-.28-.14,0-.23-.05-.32-.05,0,0-.05,.05-.14,.05v-.41c.28,.14,.46,.09,.55-.14-.05-.18-.09-.41,0-.6,.14-.23,.05-.46,0-.69-.09-.51-.23-1.06-.28-1.56-.05-.23,.05-.46,.05-.74,.23-1.98,.18-3.96,0-5.93-.05-.64-.05-1.24-.09-1.89-.05-.51-.09-.97-.14-1.43-.14-1.66-.28-3.4-.37-5.15v-2.21c.05-1.61,0-3.27,.05-4.92,0-.23-.09-.32-.28-.51,.14-.05,.18-.05,.23-.05,0-.41,.05-.74,.05-1.06,0-.09-.09-.18-.14-.28,.28-.69,.18-1.38,.28-2.07,.05-.18,.05-.37,.09-.55,.05-.14,.14-.28,.28-.28,.23-.05,.28-.18,.37-.32,.05,0,.09-.05,.14-.09,.23-.05,.51-.18,.6-.41,.09-.14,.28-.09,.37,0,.05,.09,.14,.09,.28,.18,.09-.14,.14-.28,.18-.46,.18,.23,.09,.37,.14,.6,.09,.05,.18,.05,.28,.09,.14,.28,.23,.51,.09,.87-.09,.23-.09,.51-.09,.83,.09-.23,.23-.41,.41-.74,0,.23,0,.37,.05,.55,.18-.28,.28-.51,.37-.78,.14,.05,.32,.09,.51,.18-.09-.32,.18-.41,.32-.55,.05-.09,.18-.05,.32-.05,.05-.09,.09-.23,.18-.37,.14,.28,.28,.51,.32,.69,0,.23,.05,.37,.32,.46,0,.18-.05,.37,0,.55,.09,.23,.05,.51-.14,.69-.18,.14-.18,.32-.18,.51,0,.55-.05,1.06-.05,1.61,0,.18-.05,.32-.18,.46-.18,.18-.18,.46-.14,.69v1.52c0,.37,0,.74,.05,1.2,0-.09,.05-.18,.05-.28,.05,0,.09,.05,.14,.05,.05,.18,.09,.28,.09,.46,0,.83-.05,1.61-.05,2.44s.05,1.66,.09,2.48c0,.41,.05,.87-.05,1.29-.14,.55,.05,1.1,.05,1.66,0,.37,0,.69-.05,1.06,0,.41,0,.74,.14,1.06,.05-.14,.09-.28,.14-.46Zm-2.85-16.52c-.09-.18-.09-.28-.14-.41q-.09,.23,.14,.41Zm.83-1.47q.14,.23-.05,.6c-.09-.18-.14-.32-.23-.51,.09-.05,.18-.09,.28-.09Zm1.38,8.74v0Zm1.2-7.45c.09,.37,.05,.55-.28,.78,.09-.32,.18-.51,.28-.78Zm4.37,29.63q-.18,.23-.41,.09c.14-.05,.23-.05,.41-.09Zm.55,1.52c.32-.18,.51-.55,.97-.32,.14,.28-.18,.28-.28,.46-.18-.05-.46-.05-.69-.14Z"/>
      <path class="cls-1" d="M211.89,23.63c-.23-.55-.09-1.06-.09-1.61,.14-.28,.09-.6,.05-.83,0-.09,0-.18,.05-.28,.05-.14,.18-.32,.32-.51,.28,.51,0,1.06,.14,1.61,.09-.23,.18-.37,.37-.69,.05,.23,.05,.37,.09,.46h.05c-.05-.37-.09-.69-.09-1.06,0-.32,.05-.69,.09-1.06,0,.05,.05,.09,.09,.14,.05-.23,.09-.51,.18-.74,.05,.18,.05,.28,.09,.41h.05c.14-.28,.23-.64,.32-.92h.09c.23,.69,.18,1.33,.32,1.98,.23-.05,.14-.18,.14-.32-.05-.23-.09-.46-.09-.69,.05-.18,.09-.32,.18-.6,.51,.41,.18,.87,.28,1.24,.46-.09,.6-.18,.55-.69-.05-.32,.05-.64,.28-.87,.18-.18,.23-.41,.32-.64,.14-.05,.23,.05,.23,.14,.05,.18,0,.32,.05,.41,0,.23,.05,.41,.05,.6t.09,.05c.05-.14,.09-.28,.18-.37,.23,.32,.23,.51-.05,.74-.14,.18-.14,.41-.09,.6,.09-.09,.18-.23,.28-.46,.05,.51,.09,.92,.09,1.33,0,.69,.23,1.24,.37,1.89,.09,.41,.23,.83,.28,1.24,.09,.78,.14,1.56,.18,2.35,.05,.46,.14,.97,.18,1.47,.09,.78,.14,1.61,.23,2.39,0,.28,.09,.55,.09,.92,0,1.61-.05,3.22-.09,4.83v1.2c-.09,.83-.23,1.7-.32,2.53-.14,1.61-.32,3.27-.69,4.83-.14,.6-.23,1.15-.46,1.75-.14,.46-.37,.87-.6,1.29,0,.09-.09,.09-.14,.14-.05,0-.09,0-.14,.05-.14,.37-.32,.74-.46,1.1-.05,.09-.05,.28-.14,.37-.09,.09-.23,.14-.09,.23-.18,.18-.23,.37-.41,.46-.23,.05-.41,.09-.28,.37-.18,.18-.32,.37-.51,.51-.28,.23-.55,.32-.78,.51-.37,.28-.74,.46-1.1,.55-.18,.09-.51,.05-.74,.05-.28,0-.55,0-.74,.18-.05,.09-.18,.05-.28,.09-.18,.09-.41-.23-.55,.09-.23,0-.41,0-.6-.09-.28-.23-.55-.18-.87-.09-.32,.14-.6,.05-.92-.09-.28-.09-.51-.14-.78-.18-.14-.09-.32-.14-.41-.32-.23-.23-.51-.46-.83-.46-.09-.18-.14-.41-.23-.55l-.05-.05c-.41-.09-.46-.51-.69-.74-.14-.18-.32-.32-.41-.46-.18-.37-.28-.74-.41-1.1,0-.14-.05-.23-.05-.37-.05-.05-.09-.09-.09-.18-.09-.78-.37-1.52-.55-2.25-.37-1.38-.64-2.81-.83-4.23-.05-.55,0-1.2-.05-1.75-.05-.87-.18-1.75-.14-2.62,.05-1.89-.18-3.77-.23-5.66-.09-1.79-.23-3.63-.32-5.38-.09-1.38-.09-2.71-.09-4.05,0-.46,.05-.97,.14-1.47,0-.09,.05-.18,.14-.32,.14,.18,.28,.32,.41,.51,.32-.28-.18-.51,.05-.78,.41,.18,.41,.23,.37,.64,0,.18,.05,.37,.05,.55h.09s.09-.14,.09-.23c0-.14-.05-.28-.05-.46,0-.37,.14-.55,.37-.55,.32-.05,.6,.18,.69,.51,0,.18,.05,.37,.05,.55h.09c.05-.18,.09-.32,.18-.55,.09,.14,.14,.18,.23,.32v-.14c.05-.23,.09-.55,.41-.64,.32,.23,.18,.55,.23,.83,.05,.32,0,.6,0,.92,.18-.28,.28-.51,.41-.74,.05-.18,.09-.37,.14-.55,0-.18,0-.37,.28-.41,.14,.28,.09,.6,.41,.83,.05-.18,.09-.37,.18-.6,.14,.37,.14,.69,.09,.97-.05,.41,0,.83,.05,1.2,.28,1.29,.18,2.58,.23,3.86,.05,.32,.05,.6,.05,.97-.14-.09-.18-.14-.28-.18,0,.37-.09,.64,.18,.87,.05,0,.05,.05,.05,.09,.09,.74,.37,1.47,.28,2.25-.09,.46-.18,.92-.23,1.43v.87c0,.32,.05,.64,.14,1.01,.05-.32,.09-.6,.14-.92,.05,.14,.09,.14,.09,.18,.05,.6,.05,1.15,.09,1.66,0,.37-.05,.78-.09,1.15,0,.18-.05,.46-.05,.64-.05,.46-.09,.92-.14,1.43-.09,.41,.09,.78,.14,1.2,.46,.32,.28,.78,.23,1.2,0,.6-.05,1.29,0,1.89,0,.28,.14,.55,.28,.78,.05,.28,.18,.46,.23,.74,.18,.6,.46,1.24,.37,1.84-.09,.51,.05,.97,.28,1.38,.41,.74,.37,.78,1.38,.74,.74-.05,1.2-.37,1.56-1.01,.37-.6,.6-1.24,.74-1.93,.05-.78,.23-1.56,.37-2.35,.18-1.1,.37-2.21,.51-3.27h.28c-.37-1.01-.14-2.02-.14-3.04-.05-.41,0-.83,.05-1.24,0-.18,.05-.28,.14-.46,.05,.18,.05,.32,.09,.55h.09v-2.02c-.09,.28-.14,.55-.14,.92h-.14v-2.07c-.05-.69-.28-1.29-.14-2.02,.05,.37,.09,.74,.18,1.2,.18-.23,.18-.41,.18-.64-.09-.51-.14-1.01-.28-1.47,0,.14,0,.32-.05,.51-.18-.37-.23-.74-.28-1.06-.09-.64-.14-1.24-.18-1.89-.05-.41-.14-.78-.32-1.15-.28-.46-.37-.92-.41-1.52,.37,.18,.18,.64,.6,.78-.05-.18-.05-.23-.05-.37Zm-9.48-1.7c-.05,.14-.14,.23,0,.32q.09-.14,0-.32Zm3.22-.18c.05,.09,.05,.14,.05,.23h.05v-.23h-.09Zm1.01,16.15h-.05v-.23h.05v.23Zm.83,7.96c-.05-.09-.09-.14-.09-.23h-.09c.05,.14,.09,.18,.09,.28,.05,0,.05-.05,.09-.05Zm4.65-3.22c.05-.18,.05-.32,.09-.46,0-.14,0-.28,.05-.41h-.09c0,.14,.05,.28,.05,.41q-.23,.23-.09,.46Zm.14-17.99c-.05-.14-.05-.32-.09-.55-.23,.46-.09,.83,.18,1.06,0-.14-.05-.32-.09-.51Zm.78-4.55s-.09,.09-.14,.18c0,0,0,.05,.05,.18,.14-.14,.23-.23,.09-.37Zm1.47-1.43h-.05c0-.09,.05-.18,.05-.23h.09c-.05,.09-.05,.14-.09,.23Zm.74,17.39v.97c.14-.55,.14-.64,0-.97Z"/>
      <path class="cls-1" d="M236.08,29.61l-.05,.09c-.23,.05-.23,.28-.28,.46-.18-.46,.28-.78,0-1.2-.14,.23-.28,.46-.37,.64,0-.18-.09-.37-.18-.55-.05,.28,0,.41,.18,.55-.09,.37-.37,.41-.6,.46-.23-.09,.09-.46-.32-.46,0,.18-.05,.37-.05,.64-.14-.37-.28-.69-.41-1.06-.23,.14-.05,.46-.18,.74-.14-.32-.23-.6-.28-.87-.09,0-.23,0-.37,.05,0,.32-.05,.69-.05,1.06-.32-.18-.23-.46-.18-.64-.23-.23-.37-.41-.64-.69,.05,.23,.05,.37,.05,.55h-.05v-.37c-.05-.14-.05-.23-.09-.32-.09,.28-.05,.55,0,.92,0,.05,.05,.14,.05,.23s-.09,.18-.14,.18-.18,0-.23-.09v-.23c-.05-.18-.09-.46-.09-.64h-.28c0,.09-.05,.14-.05,.23t-.09-.05c-.05-.32-.14-.64-.18-.92,0-.14,0-.23,.05-.32,.18-.18,.18-.46,.18-.69-.05-.37,0-.74,.05-1.1,0,.09,.05,.18,.14,.32,.09-.37,.05-.74-.05-1.06-.05-.46-.09-.92-.14-1.33s-.32-.74-.51-1.1c-.23-.23-.6-.28-.87-.05-.23,.09-.37,.28-.6,.41-.14,.09-.41,.18-.55,.37-.32,.18-.55,.41-.78,.64-.23,.23-.37,.41-.55,.64-.05,.09-.09,.18-.09,.32,.09,0,.18,0,.28,.05,0,.32-.23,.6-.41,.88-.18,.41-.46,.78-.64,1.24-.23,.6-.46,1.24-.6,1.89-.18,.69-.28,1.38-.41,2.02-.05,.18,0,.37-.28,.41-.05,.05-.14,.14-.14,.18-.05,.37-.18,.69-.18,1.06,.05,1.06,0,2.12-.23,3.13v.78c-.05,.14,0,.37-.18,.51-.05,.05,0,.18,0,.28,.09,.51,.23,1.06,.28,1.61,.09,.64,.18,1.33,.23,1.98,0,.32-.05,.69-.09,1.06,.37,.41,.23,.92,.37,1.43,.14,.46,.14,.97,.18,1.47h-.23c.09,.6,.46,1.01,.87,1.38,.09,.05,.23,.14,.23,.23,.41,.46,.92,.83,1.47,1.1,.28,.18,.6,.28,.97,.37,.23,.09,.46-.09,.55-.28,.37-.55,.64-1.1,.78-1.66,.18-.55,.32-1.15,.41-1.7,0-.09,.09-.18,.14-.28,.05-.09,.14-.23,.14-.32-.05-.37-.09-.78-.14-1.15-.23-.09-.51-.14-.74-.18,.09-.09,.14-.14,.23-.28-.23,0-.41-.05-.6-.05v-.09c.09,0,.18,0,.41-.09q-.14-.05-.18-.05c-.46-.05-.92-.09-1.38-.23h.78v-.05h-.23c-.18,0-.37,0-.51-.18-.05-.05-.14-.05-.23-.09-.18-.05-.37-.05-.55-.14h1.06l.05-.05c-.09-.05-.14-.09-.23-.09-.32-.05-.64-.14-.97-.18-.14-.05-.28-.09-.41-.09v-.14c.55-.09,1.1-.23,1.66-.32-.14-.32-.37-.37-.6-.37-.18,0-.37,.05-.41-.18,.09-.14,.18-.23,.28-.37,.37-.09,.78,0,1.15-.28h-.28c-.28,.05-.55,0-.78,0-.32-.09-.64-.14-1.01-.23-.23-.05-.41-.14-.64-.18,0-.18,.05-.32,.23-.32,.23,.05,.46,.05,.83,.05,0,0,.09-.09,.18-.14-.23-.05-.51-.09-.74-.18,.05-.09,.09-.14,.14-.14,.6-.05,1.24-.09,1.84-.14,.64-.05,1.33-.09,2.02-.14,.05,0,.14-.05,.18-.09,.09-.14,.18-.14,.32-.05,.05,0,.05,.05,.09,.05,.74,0,1.47,.05,2.21,.05,.32,0,.55,0,.74-.37,.05,.18,.14,.32,.18,.46,.41,0,.46,.05,.74,.28-.05,.05-.09,.05-.14,.09,0,.09-.05,.14-.05,.18,.05,.05,.14,.09,.14,.09,.09,.05,.14,0,.23,0,.32-.05,.46,.14,.32,.46-.05,.09-.05,.18-.05,.28h.37s.09,.05,.09,.09v.18c-.23,.05-.55,.09-.83,.14,0,.14,0,.32,.05,.51,.14,0,.23-.05,.46-.09-.09,.14-.14,.23-.18,.28-.23,.14-.23,.32-.18,.6,.09,.37,.14,.78,.14,1.15,.09,.46,0,.92,0,1.43,0,.46-.05,.92-.14,1.38-.05,.32-.18,.64-.28,.97-.09,.6-.18,1.15-.32,1.66-.09,.41-.23,.78-.37,1.1-.37,.74-.69,1.47-1.2,2.16-.28,.32-.6,.64-.92,.97-.23,.32-.55,.51-.92,.74-.28,.14-.64,.23-1.01,.37-.46,.14-1.01,.14-1.47,.32-.37,.14-.74,.09-1.06,0-.18,0-.37-.23-.55-.28-.05-.05-.23-.14-.28-.09-.18,.14-.41,.05-.6-.05-.32-.09-.6-.23-.92-.28-.28-.09-.46-.18-.6-.41-.05-.05-.09-.14-.14-.18-.41-.23-.83-.37-1.24-.6-.23-.09-.46-.28-.69-.46-.55-.6-1.06-1.15-1.56-1.7-.23-.32-.37-.6-.46-.97-.05-.28-.18-.55-.23-.83-.18-.55-.37-1.1-.46-1.7-.32-1.52-.51-3.08-.69-4.6-.05-.92-.14-1.79-.18-2.67-.05-.78,.05-1.52,.05-2.25,0-.46,0-.97,.05-1.43,.18-1.33,.41-2.71,.6-4.14,.14-.78,.28-1.56,.46-2.3,.23-1.06,.64-2.02,1.01-3.04,.05-.05,.05-.09,.05-.14,.37-.14,.32-.51,.41-.74,.09-.51,.28-.92,.6-1.33,.09-.09,.18-.23,.23-.32,.23-.78,.69-1.38,1.2-1.98,.41-.51,.87-.92,1.33-1.33,.37-.37,.87-.6,1.29-.97,.55-.46,1.15-.51,1.84-.69,.37-.05,.69-.18,1.06-.28,.14,0,.23-.05,.32,0,.23,.05,.41,.18,.64-.05,.37,.09,.83,0,1.15,.28,.23,.14,.41,.18,.64,.23,.23,.05,.46,.14,.69,.23,.09,0,.14,.05,.14,.09,.09,.32,.41,.37,.64,.55,.41,.23,.78,.6,.87,1.1,.09,.23,.18,.41,.41,.55,.23,.18,.41,.55,.23,.92,.18,.23,.51,.32,.51,.78-.14-.14-.28-.28-.46-.32,0,.37,.23,.6,.46,.78,.18,.09,.23,.14,.23,.28,.05,.23,.05,.37,.05,.6,.05,.83,.09,1.66,.14,2.48,0,.69,0,1.38-.14,2.12v.14c-.18,.05-.37,.09-.51,.14,.05-.18,.09-.32,.09-.51s.05-.41-.14-.64c-.09,.46,.05,.83,.05,1.15,.18,.28,.14,.6,.14,.97Zm-6.99,12.93v.09c-.09,0-.23-.05-.32-.05v-.05h.32Zm1.15-2.25c-.23,.05-.41,.09-.51,.09,.14,.05,.37,.18,.51-.09Zm.83,1.7h0Zm.87-14.45c0,.09,.05,.23,.05,.37,.05,0,.09,0,.09-.05,0-.09-.05-.23-.09-.32h-.05Zm1.33,2.02h.14v.41h-.14v-.41Zm1.7-.83c-.05,.14-.05,.28-.09,.46q.14-.28,.09-.46Zm.37,10.08q0-.09-.05-.18c0-.09-.05-.23-.14-.14-.05,0-.09,.14-.05,.23,0,.05,.09,.09,.14,.14,0,0,.05-.05,.09-.05Zm.32,2.58s-.05-.14-.05-.18h-.05v.18h.09Zm.6-12.47h.05v.32h-.05v-.32Z"/>
      <path class="cls-1" d="M250.16,17.19s.09-.09,.18-.14c.09,.23,.14,.51,.23,.78,.18-.14,.28-.23,.18-.41-.05-.18,0-.28-.05-.46,0-.18,.09-.32,.28-.32-.09-.28-.14-.55-.23-.78,0-.05,.05-.05,.05-.05,.05,.05,.18,.09,.18,.14,.05,.09,.09,.28,.14,.41s.09,.28,.14,.41q.14-.09,.14-.78c.09,.18,.14,.32,.18,.37,.14,.32,.23,.55,.32,.83,.05,.09,.05,.28,.14,.41,.09,.28,.18,.46,.32,.78,.18-.18,.28-.32,.41-.46,.14,.09,.23,.09,.28,.18,.23,.18,.32,.18,.51,0,.14-.09,.23-.14,.32-.28,.28,.18,.37,.51,.46,.78,.09,.23,.18,.46,.51,.55-.05-.32-.09-.55-.14-.78,.32,.18,.41,.46,.46,.78,.28,1.1,.51,2.16,.78,3.27,.09,.55,.18,1.15,.28,1.79,.14,.83,.14,1.66,.37,2.53,.05,.23-.14,.32-.28,.37,.05,.18,.05,.32,.05,.51,.05-.09,.09-.09,.14-.18,0-.05,0-.14,.09-.18,.05,.18,.14,.32,.18,.55,.18,1.2,.41,2.39,.55,3.59,.09,.69,.14,1.38,.28,2.02,0,.64,.14,1.29,.28,1.93,.05,.37,.09,.74-.14,1.06-.05,.14-.05,.32-.05,.46,.05,.41,.09,.78,.32,1.15-.05-.23-.05-.51-.09-.74,.28,.18,.32,.51,.37,.74,.09,.46,.09,.88,.14,1.33,.05,.78,.18,1.56,.28,2.39-.05-.05-.09-.05-.14-.09-.05,0-.09,.05-.09,.05,.05,.69,.05,1.38,.09,2.02,0,.28,.14,.51,.28,.74-.05-.28-.05-.51-.09-.78,.28,.23,.28,.55,.37,.83,.09,.28,.14,.55,.23,.83,.14,.51,.28,.97,.41,1.47,0,.14,.05,.23,0,.37-.14,.6,0,1.06,.18,1.66,.09,.37,.18,.78,.28,1.15,.05,.28,.05,.46,.05,.74,.14,.09,.23,.28,.18,.46-.09,.14-.32,.23-.51,.37t.09,.05c.05,.18,.05,.32-.14,.37-.14,.09-.23,0-.28-.09-.09-.18-.18-.32-.37-.37-.05,.14-.05,.32-.14,.41-.09,.05-.23,.05-.37,.09,0,.09,0,.18,.05,.32-.05-.05-.09-.05-.09-.09-.09-.18-.14-.32-.37-.32-.05,.09-.05,.23-.05,.46-.18-.18-.28-.32-.46-.46-.05,.14-.14,.32-.18,.46-.05-.09-.14-.18-.18-.28h-.05c0,.14,.05,.28,.14,.41-.32-.05-.37-.28-.55-.46-.14,.05-.23,.09-.37,.14-.05-.09-.09-.18-.14-.23-.05-.05-.14-.09-.14-.14-.05,.09-.14,.14-.14,.18,0,.09,.05,.18,.09,.28,.05,.09,.05,.23,.09,.37l-.05,.05c-.18-.18-.41-.32-.55-.51-.23-.18-.23-.51-.55-.6,0,.18,.05,.37,.05,.51-.32,.05-.41,0-.41-.28-.05-.32-.09-.64,0-.97,.09-.18,.23-.51-.18-.64v-.28c0-1.24-.41-2.39-.6-3.63-.14-.64-.23-1.38-.37-2.07-.14-.97-.28-1.93-.37-2.94-.18-1.06-.32-2.16-.46-3.27q-.05-.32-.37-.28c-1.24,.14-2.44,.18-3.68,.37-.32,.05-.64,0-.92,.18,0,0-.09,0-.14-.05-.23-.05-.46-.05-.69-.09,.05,.09,.05,.14,.09,.23-.37-.09-.64-.14-.92-.23-.09,.28-.18,.6-.28,.97-.05,.51-.23,1.06-.32,1.61-.09,.46-.09,1.01-.23,1.56-.09,.55-.23,1.06-.32,1.61-.09,.28-.14,.6-.23,1.01-.23-.14-.32,0-.37,.18,0,.14-.05,.28-.05,.46-.09,.37-.14,.74-.18,1.1-.05,.18-.05,.32-.09,.64,.14-.14,.28-.23,.46-.32,0,.55,.05,1.1,.05,1.61,0,.32,0,.64-.37,.92v-.46c-.14,.37-.41,.74-.23,1.15-.18,.23,0,.51,0,.69,.05,.23-.05,.41-.09,.64-.09-.14-.14-.23-.23-.41-.09,.41-.18,.74-.23,1.06h.37c.09,.14,.18,.18,.32,.37-.32,.32-.78,.18-1.24,.28,.09,.14,.18,.23,.32,.37-.23,0-.32,0-.46-.18-.05-.05-.18-.05-.28-.09v-.37c-.28-.09-.32-.23-.23-.51v-.37h-.09c0,.18-.05,.32-.09,.51,0,.23-.05,.51-.23,.69-.09,.14-.14,.32-.28,.55-.05-.18-.05-.41-.09-.41-.18-.05-.14-.28-.37-.37,0,.09-.05,.18-.05,.28-.05,.09-.14,.23-.14,.23-.23-.05-.18,.09-.23,.23-.05,.09-.09,.18-.18,.23-.28-.05-.41-.32-.6-.55-.05,.09-.09,.14-.14,.14,0-.41-.55-.23-.6-.64,.32-.28,.83-.55,.6-1.29-.23,.51-.37,.97-.83,1.24-.09-.05-.28-.14-.46-.14-.05-.18-.05-.41-.05-.55,0-.28-.05-.37-.37-.37,.09-.23,.14-.37,.18-.6,.05-.14,.09-.32,.14-.51,.05-.14,.05-.37,.09-.46,.37-.41,.46-.92,.55-1.47,.14-.55,.18-1.1,.23-1.7,.14-1.33,.32-2.62,.64-3.91,.18-.83,.28-1.66,.41-2.48,.09-.55,.18-1.06,.28-1.61,.28-1.1,.46-2.25,.69-3.36,.14-.97,.28-1.93,.46-2.85,.28-1.66,.6-3.31,1.06-4.97,.18-.83,.32-1.66,.51-2.48,.09-.83,.28-1.66,.46-2.48,.09-.64,.23-1.24,.41-1.93,.09-.55,.23-1.06,.32-1.61,.05-.28,0-.6,.05-.87,0-.23,.05-.55,.09-.83,.18,.23,.55,.28,.46,.69,.37-.37,.37-.83,.18-1.38,.05,0,.05-.05,.09-.05,.23-.05,.46,.28,.64,.23,.28-.05,.46,.05,.69,.14,0-.05,.09-.09,.14-.18,.14,.28,.32,.32,.55,.28,.28,.23,.09,.55,.14,.83,.55-.09,.32-.64,.55-.83,.37,.37,.83,.51,1.43,.41-.05-.23-.05-.37-.05-.6,.09,.05,.14,.14,.18,.18q.14,.28,.37,.14Zm-9.75,33.63s-.05,.05-.05,.09c-.05,.14,.05,.23,.14,.09,0-.05-.05-.14-.05-.23l-.05,.05Zm2.67-10.67c.09-.51,.18-.97,.32-1.38-.28,.37-.41,1.01-.32,1.38Zm2.02-23.05s.09-.05,.09,0c.09,.09,.09,.14,0,.23-.14-.09-.18-.14-.09-.23Zm2.16,13.71c-.23,.32-.28,.69-.23,1.06,.14-.37,.23-.69,.28-1.01-.05,0-.05-.05-.05-.05Zm.78-2.02c-.18,.78-.46,1.47-.6,2.16-.14,.64-.14,1.24-.18,1.89t.05,.09c1.29,0,2.58-.41,3.86-.28-.37,.14-.69,.18-1.06,.23-.87,.05-1.75,.14-2.62,.23-.09,0-.18,.05-.23,.09v.09c.28,0,.55,0,.83-.05,.74-.05,1.47-.14,2.16-.23,.32,0,.64-.05,.92-.09,.28,0,.55-.09,.83-.14v-.09c-.18-.05-.28-.09-.46-.14v-.05c.14-.05,.28-.09,.41-.09,0-.14-.05-.28,.05-.28,.18-.09,.14-.28,.14-.46-.18-.78-.32-1.52-.46-2.3-.09-.6-.23-1.24-.28-1.84-.14-1.29-.37-2.62-.6-3.91-.05-.18-.14-.28-.32-.28-.37-.05-.78-.09-1.2-.14-.14,0-.28,.05-.32,.18-.05,.14-.09,.37-.09,.51,.05,.55-.14,1.06-.18,1.56,0,.14-.05,.37-.18,.41-.46,.46-.37,1.1-.51,1.66h.28c-.09,.41-.14,.83-.23,1.24Zm-.74-11.55q-.05,.32,0,.64c.23-.32,.23-.37,0-.64Zm1.01,9.8h.09c-.05,.14-.09,.32-.14,.51,0-.18,0-.37,.05-.51Zm.41-3.86c-.05,.23-.09,.41-.14,.64v.37h.09c-.05-.14-.09-.28-.09-.41,.18-.18,.18-.23,.14-.6Zm.28-6.07s-.05-.05-.05-.09,.05-.09,.09-.09,.09,0,.14,.05c0,.05-.05,.05-.05,.09-.05,0-.09,.05-.14,.05Zm.74,1.1v-.18s-.05,.09-.09,.14t.09,.05Zm.05-1.43q.09,.18,0,.28v-.28Zm1.2,.51c.09,.32,.23,.6,.32,.92,.32-.09,.37-.14,.28-.37-.09-.14-.14-.28-.23-.41-.05-.09-.14-.14-.23-.23-.05,.05-.09,.05-.14,.09Zm4.46,6.39c-.05-.28-.05-.51-.09-.74-.05,.05-.09,.05-.09,.05,.05,.18,.05,.41,.14,.69h.05Zm.32-.6c0,.32,.05,.6,.05,.87,0,.32,.05,.69,.05,1.01h.09c0-.18,.05-.37,0-.55,0-.14,.05-.37-.14-.46,.14-.28,.14-.55-.05-.87Zm.32,2.76v.23h.05v-.23h-.05Zm.37,2.07v0Zm.74,22.31c-.14,.23-.37,.51-.28,.83,.09-.32,.28-.51,.28-.83Zm.28-.64c-.09-.23,.14-.51-.09-.78-.18,.41-.18,.97,.23,1.56,.18-.32-.05-.51-.14-.78Zm.32,2.02c.09-.09,.14-.18,.23-.32-.05,0-.09,0-.09-.05-.09,.14-.14,.23-.23,.32t.09,.05Zm1.06-1.15v-.14s-.18-.05-.32-.14c.05,.28,.14,.32,.32,.28Zm.09-1.84s-.09,.09-.09,.18c-.05,.09-.05,.14-.09,.28q.23-.18,.18-.46Zm.32-.87v1.01c.23,0,.41-.09,.41-.28,0-.28,0-.6-.28-.74h-.14Z"/>
      <path class="cls-1" d="M266.44,52.39h-.05v-.6c-.09,.05-.14,.05-.14,.05-.18-.28-.28-.55-.41-.83-.05,0-.09,0-.09,.05-.05,.18-.05,.41-.09,.69-.18-.14-.05-.28-.18-.46-.05,.05-.14,.09-.23,.14-.05-.05-.05-.14-.09-.23-.05,.51-.09,.97-.14,1.43h-.09c-.05-.14-.05-.23-.09-.41-.05,.14-.05,.18-.05,.23-.41-.23-.18-.69-.28-.97-.14,.23-.28,.55-.51,.92-.05-.14-.09-.28-.18-.41-.09,.14-.18,.23-.28,.32v-.64s-.09-.05-.18-.09c-.18,.51,.09,1.06-.14,1.56,0-.09-.05-.18-.05-.28-.05-1.01-.18-2.07-.23-3.08,0-1.15-.09-2.35-.14-3.5v-1.06c-.05-.74-.09-1.52-.09-2.25v-2.44c-.05-1.52-.09-3.04-.14-4.6,0-1.33-.09-2.58-.09-3.82-.05-1.2-.05-2.35,0-3.45,0-.6,.05-1.1,.09-1.7,.09-.97,.18-1.89,.28-2.81,.09-.32,.14-.69,.23-1.01,.05-.28,.05-.55,0-.87,0-.05-.05-.09,0-.14,.18-.37,0-.78,0-1.2,0-.55,.05-.6,.51-.78,.05-.05,.09-.05,.09-.05-.09,.46,.18,.83,.09,1.29h.14c0-.23,.05-.46,.05-.64,0-.23,.05-.37,.23-.51,.55-.32,1.06-.6,1.7-.74-.23-.23-.41-.14-.64-.09-.14,.09-.41,.14-.6,.14,.97-.69,2.12-1.06,3.36-1.1-.14,.32-.41,.28-.64,.41,.37,.14,.74,0,1.1-.14-.14-.09-.18-.18-.28-.23,0-.32,.23-.46,.51-.46,.32-.14,.64-.18,1.06-.28,0,0,.14,.09,.23,.09-.09,.09-.14,.18-.23,.32,.41,.32,.83,.32,1.33,.28h.41c-.18-.28-.41-.32-.6-.32-.05,0-.05,.05-.09,.09,.09,.09,.18,.14,.28,.23-.09-.05-.14-.05-.23-.14-.23-.14-.37-.28-.6-.41,.14-.14,.32-.14,.51-.14,.64,.14,1.15,.32,1.61,.78h.05c.64,.41,1.1,1.06,1.52,1.7,.18,.28,.28,.69,.55,.87,.18,.14,.37,.28,.6,.37-.28-.37-.74-.6-.83-1.2,.09,.09,.18,.18,.23,.23,.18,.14,.32,.28,.51,.41,.14,.18,.32,.37,.51,.55,.05,.09,.18,.14,.32,.23,.09,.09,.14,.18,.14,.32,.05,0,0,.09-.09,.14,.37,.46,.64,1.01,.78,1.66,.05,.32,.18,.6,.32,.92,.05-.05,.09-.05,.14-.09,.09,.55,.23,1.1,.37,1.66-.09-.41,.05-.83-.14-1.24-.14-.32-.14-.74-.14-1.1,.28,.28,.41,.64,.41,1.01-.05,.46,.14,.87,.23,1.29,.05,.09,.14,.23,.14,.41,.05,.74,.09,1.43-.09,2.16-.14,.37-.14,.78-.18,1.15-.05,.05-.09,.23-.09,.32-.09,.14-.09,.32-.09,.55,.05,.28-.09,.6-.23,.87-.18,.55-.51,1.1-.69,1.61-.46,1.06-1.01,2.07-1.7,2.9-.09,.14-.18,.23-.37,.32,0-.14,0-.23,.05-.32-.05,0-.09-.05-.14,0-.14,.09-.37,.28-.55,.41,.46,.69,.87,1.29,1.24,1.98,.28,.41,.41,.87,.6,1.29-.14-.09-.28-.14-.46-.23,.05,.09,.09,.28,.18,.37,.28,.32,.46,.69,.6,1.1,.09,.18,.18,.41,.32,.6-.05-.37-.18-.69-.28-1.06,.6,.74,.92,1.61,1.1,2.58,.09,.74,.18,1.47,.18,2.25-.05,.51,.05,1.06,.05,1.52,0,.37,.05,.74-.28,.97-.09,.09-.09,.23-.09,.32-.05,.69-.05,1.29-.09,1.98h-.18c0,.14,0,.32-.05,.46h-.09c-.09-.23-.14-.46-.23-.78h-.05c0,.28,0,.55-.05,.87-.09-.14-.14-.23-.18-.32-.23,0-.23,.18-.23,.32v1.06c-.09-.05-.14-.09-.23-.14-.05,.32-.14,.6-.51,.74,.14-.51-.05-.87-.32-1.24-.09,0-.18,.05-.32,.05v1.7c-.23-.05-.18-.23-.23-.37-.09-.14-.23-.28-.32-.37-.09-.14-.09-.32-.18-.51-.05,.14-.05,.18-.09,.32h-.32s-.09,.09-.05,.14c0,.14,0,.37,.09,.51,.23,.28,.05,.51,.09,.88-.14-.05-.23-.05-.28-.14-.09-.23-.18-.41-.23-.69-.05-.18-.14-.41-.32-.55-.23-.28-.23-.69-.28-1.01-.14-.74-.18-1.47-.28-2.21-.05-.37,.05-.74,.05-1.06,.09-1.06,.05-2.12-.14-3.17-.09-.41-.18-.88-.37-1.24-.32-.78-.74-1.52-1.15-2.3-.18-.28-.41-.46-.64-.69-.46-.41-.97-.46-1.61-.09-.14,.09-.28,.18-.46,.28-.05-.14-.09-.23-.14-.37-.05,.05-.09,.05-.09,.09-.05,.46-.09,.87-.05,1.33,0,.41,.05,.83,.14,1.29,0-.14,0-.23,.05-.46,.05,.14,.09,.23,.09,.28,.14,1.24,.23,2.53,.32,3.77v1.15c0,.14,0,.32-.18,.41,0-.18-.05-.41-.09-.6-.18,.37-.18,.69-.18,1.06s.05,.74-.23,.97c-.14,.09-.14,.23-.18,.41-.05-.14-.14-.18-.18-.23-.05,.32-.09,.6-.09,.92,0,.28-.09,.41-.37,.46v.41c-.05,.28-.14,.51-.18,.74Zm-2.81,.6h.05v.32h-.05v-.32Zm.41-33.17h.09c-.05,.09-.05,.18-.05,.28-.05-.05-.09-.05-.14-.05,.05-.09,.05-.14,.09-.23Zm1.98,32.2c0,.37,0,.64-.14,.87-.14-.28-.09-.51,.14-.87Zm.64-.05h-.05v-.32c0,.14,.05,.23,.05,.32Zm.74-.55c-.14-.23-.14-.69-.09-1.01,.14,.37,.09,.69,.09,1.01Zm.14-22.63c-.05,.14-.14,.28-.14,.41-.05,.78-.05,1.52-.09,2.25,0,.09,.05,.18,.05,.23,0,.37,.09,.74,.05,1.01-.14,.55,.05,1.06,.09,1.61,.05-.55-.05-1.06,.18-1.61,0,.64,.09,1.33,.18,2.02,.28-.05,.6-.14,.83-.14,.46-.18,.83-.46,1.15-.78,1.29-1.29,2.16-2.85,2.58-4.6,.18-.74,.18-1.43,.09-2.16-.09-.55-.23-1.06-.64-1.47-.23-.28-.46-.55-.69-.87-.28-.32-.6-.64-.92-.97-.18-.23-.51-.32-.78-.14-.14,.05-.37,.09-.55,.09-.09,.05-.28,.05-.41,.09-.18,.05-.32,.14-.32,.32,0,.55-.23,1.06-.23,1.66-.05,.92-.14,1.84-.23,2.76-.05,.09-.05,.23-.05,.28h-.14Zm.14,21.81q-.09-.23,0-.51v.51Zm0-6.62v-.23h-.05v.23h.05Zm.09,2.21v.41h.05v-.41h-.05Zm4.83,6.58c.28,.05,.32,.23,.18,.46-.09-.18-.14-.32-.18-.46Zm1.06-2.39c-.09,.28-.23,.51,0,.78,.18-.23,.23-.51,0-.78Zm1.93-16.15c-.05,.18-.05,.32-.05,.37-.05,.09-.09,.18-.14,.28,0,.05,.05,.05,.09,.05,0-.09,0-.18,.05-.32q.28-.09,.05-.37Zm0,16.42v-.32h-.05v.32h.05Zm.09-18.17c.32-.37,.51-.74,.6-1.2-.32,.09-.46,.41-.6,1.2Zm.18,7.73c-.18-.05-.18-.18-.14-.28,.05,.09,.09,.18,.14,.28Zm.55-7.36c-.05,.14-.28,.32-.23,.55-.09,.05-.14,.14-.09,.28,.14-.05,.14-.18,.09-.28,.23-.09,.23-.37,.23-.55Zm0-10.35c-.32,0-.14-.23-.18-.32h.09c.05,.09,.05,.18,.09,.32Zm.14,10.17c.09-.14,.18-.18,.23-.23-.28-.09-.32,0-.23,.23Zm.41-8.93c-.09-.18-.14-.32-.18-.55,.28,.14,.32,.23,.41,.78-.05-.09-.18-.14-.23-.23Zm.28,6.9c-.09,.28-.37,.6-.23,1.01,.28-.6,.32-.74,.23-1.01Zm.18-.37c0-.14,0-.28,.05-.41h-.09v.41h.05Z"/>
    </g>
  </g>
</svg>