<?xml version="1.0" encoding="UTF-8"?>
<svg id="Layer_2" data-name="Layer 2" xmlns="http://www.w3.org/2000/svg" viewBox="0 0 335.59 69.53">
  <defs>
    <style>
      .cls-1 {
        fill: #fff;
      }

      .cls-2 {
        fill: #e6665d;
      }
    </style>
  </defs>
  <g id="Layer_1-2" data-name="Layer 1">
    <g>
      <path class="cls-2" d="M335.48,49.16c-6.87,0-15,.41-22.62,.41,0-.74,1.7-1.72,2.32-2.12,.93-.6,2.52-.45,3.68-2.25,.36-.55-1-1.3,0-2.3,.6-.59,1.6-.71,2.07-1.05,.6-.43,6.32-3.25,1.62-3.25,.31-1.53,6.21-.7,6-2.12-.07-.46-15.53-.72-17.08-.72,0-1.67,4.11,0,4.62-.81,.66-1.08-6.18-.79-6.91-1.36,.66-1.73,.71,.18-.5-1.75,4.09-3.39,9.55-1.56,14.31-3.98-1.47-1.14-6.58,.49-8.47,.59-3.4,.18-10.9,1.01-13.19-1.01,1.15-1.05,7.97-.58,8.22-1.16,.58-1.35-8.36,.3-8.69-1.48,.72,.19,1.16-1.24,.65-1.62,.63,.47-3.71,.03-3.42-.81,.74,.29,1.21,.16,1.4-.4,.01-.85-5-1.22-5.55-1.22,0-2.1,10.41-3.28,11.95-3.45,2.84-.32,6.58-.86,9.28-1.01,1.29-.07,3.22-.36,4.15-.41,1.7-.09,3.22,.14,4.67-.32,.8-.25-.16-.9-.52-.9,0-.48,3.99-2.27,4.62-2.43,1.96-.5,5.41,.37,6.87-.99-.78-.78-8.74-.59-9.99-.64-3.47-.14-6.57-.05-9.75-.41-5.97-.67-11.66-.82-17.6-1.62-9.85-1.33-19.88-3.18-30.24-4.06-11.73-.99-23.81-1.74-35.65-2.34-13.19-.66-27.28-1.97-40.84-2.13-19.09-.22-37.3,.21-55.75,.4-11.87,.12-25.6-.13-37.39,1.22-22.6,2.59-46.36,2.11-69.01,5.68-3.47,.55-21.96,4.42-14.79,8.52,1.08,.62,3.21,.47,3.95,1.02,.55,.41,2.19,3.06,2.09,3.85-.17,1.31,.79,.63-.54,2.03-.35,.37-3.09-.42-3.39,0-1.19,1.62,3.64,.81,4.62,.81,0,1.91-4.74,.42-5.47,1.77-.09,.18,10.44-.82,9.45,1.72-.58,1.49-4.83-.89-5.75,.7-.14,.24,4.6,.78,5,.68-.05,.3-8.71,.81-9.69,.81-.2,.58,1.43,1.04,1.86,1.35-.25,2.26-6.62-.79-4.52,2.7,1.44,2.39,4.85,1.07,6.82,2.24-1.56,1.89-1.51,.53-1.2,3.03,.14,1.17,2.77,.26,.44,2.03-1.11,.84-6.01,.84-7.78,.81-2.81-.06-5.83-.7-8.08,.6-.33,.19-1.47,1.2-1.6,1.44-.28,.47-.18,2.81,.46,3.24,.89,.61,2.72-.13,3.46,.41,1.81,1.31-.13,2.44,.71,3.65,.44,.63,2.89,2.65,3.44,3.25,.42,.45,1.52,1.33,2.1,2.06,.8,1.01,.5,1.73,1.52,2.53,1.81,1.41,4.57,1.57,6.56,2.93,1.49,1.02,1.85,1.71,3.63,2.82,2.22,1.39-.66,1.41,3.58,1.76-.02,0,.66-.75,.77-.74,1.87,.15,11.14,1.63,10.94,1.82,.52,.62,1.83,.04,1.83-.6,2.27,0,4.33,.99,6.69,1.22,1.03,.1,1.83-.25,3.26,.41,.65-.65,4.59,.38,5.74,.4,2.24,.03,8.6,1.05,10.32-.34-2.54,2.05,6.25,.92,5.86,.94,1.84-.11,8.49-.7,8.97,.22,1.22-1.02,9.17-1.02,11.11-1.22,2.98-.32,6.03-.09,8.31-.41,4.01-.55,7.72,.02,11.07,.41,2.1,.24,7.31,.25,8.84-.48,2.17-1.03,.1-.17,2.47,.07,2.31,.23,3.28,.01,5.21-.07,6.32-.28,13.79-.29,19.49-.33,7.15-.05,15.8,.45,23.08,.41,3.6-.02,6.14-.29,9.45,0,3.49,.3,7.19-.45,10.5-.41,18.1,.23,36.65,.26,56.55-.41,8.78-.3,20.82,0,29.27,0,2.85,0,27.41,.75,27.41,0,0-.34-6.18-.83-6.55-.81-1.09,.06-2.61,.31-4.71,.06-1.86-.22-4-.29-5.83-.27-.88,0-2.74,.34-3.89,.21-.78-.09-1.71-.64-2.26-.74-.82-.15-.93,.94-1.69,.74,.11-.37-.05-.64-.46-.81,.35-1.54,19.91-.43,21.23-.41,1.04,.02,2.14-.35,3.41-.36,2.18,0,3.02,0,5.38,.15,4.59,.29,9.58,.02,14.97-.2,.8-.03,15.74-3.36,12.94-5.27h-3.46c0-1.13,4.03-10.14,3.69-10.14Z"/>
      <path class="cls-2" d="M305.48,67.01c-1.87,0-2.16,.81,.46,.81,.16-.42,0-.69-.46-.81-.15,0,.25-.04,0,0Z"/>
      <path class="cls-2" d="M309.87,67.41c-.39-.28-2.68-.9-2.94-.25-.5,1.26,4.37,1.28,2.94,.25Z"/>
      <path class="cls-2" d="M311.25,66.6c-1,0-1.15-.05-1.15,.81,.31,0,1.73-.3,1.15-.81-.27,0,.07,.06,0,0Z"/>
      <path class="cls-2" d="M316.8,67.01c-.77-.64-3.48-.93-3.48,.41-.01,0,6.22,.98,5.46-.27-.61-.27-1.27-.32-1.98-.14-.16-.13,.53,0,0,0Z"/>
      <path class="cls-2" d="M12.29,29.95c.36-.51-.39,.54,0,0,.06-.08-.04,.05,0,0Z"/>
      <path class="cls-2" d="M195.08,2.47c-.06-.01-.04,0,0,0h0Z"/>
      <path class="cls-2" d="M312.79,62.11c-.05-.01-.04,0,0,0h0Z"/>
      <path class="cls-2" d="M121.68,65.76s-.03,0,0,0h0Z"/>
      <path class="cls-2" d="M262.01,63.32s-.04,0,0,0h0Z"/>
    </g>
    <g>
      <path class="cls-1" d="M65.93,54.36c-.1,.24-.19,.48-.29,.77-.34-.19-.24-.43-.19-.72,0-.1,.1-.24,.14-.38,.1-.29,.1-.53-.05-.96-.05,.29-.14,.38-.34,.38-.14,.05-.24,.14-.29,.34,0,.29-.1,.58-.1,.91,0,.14-.05,.29-.29,.38,.1-.19,.19-.29,.24-.48-.19-.05-.38-.1-.58-.14-.05-.34,.34-.62,.1-.96-.1,0-.14,0-.24,.1-.05-.1-.1-.1-.14-.24-.05,.1-.1,.14-.1,.14,0,0-.05,.1,0,.1,.1,.72-.24,1.2-.38,1.82,0,0-.05,.05-.1,.05-.29-.24-.14-.62-.29-.96-.29,0-.24,.29-.34,.43,.05-.67-.1-1.44,.05-2.11,.05-.24,0-.62,0-.86,0-.53-.05-1.06-.05-1.49,0-2.02,0-3.94-.05-5.9,0-2.54,.05-5.09-.19-7.58-.19-1.54-.34-3.07-.58-4.61-.24-1.92-.53-3.84-.53-5.76,0-1.3-.14-2.54-.19-3.84,0-.24-.1-.43-.14-.67,0-.05-.05-.05-.05-.05,.14-.48-.14-.91,.05-1.39,.1-.1,.19-.24,.34-.29q.38-.14,.34-.53s.24-.1,.29-.05c.19,.19,.48,.14,.77,.05,.1,.29,.19,.48,.29,.77-.05-.38,0-.62,.43-.67-.14-.1-.19-.14-.29-.14,.24-.14,.43-.24,.72-.05,0-.29,0-.38-.14-.53,.19-.05,.43-.19,.62-.19,.82,0,1.49-.19,2.16-.48,.67-.24,1.25-.19,1.87-.05,.34,.1,.67,.19,1.1,.29-.19,.1-.34,.14-.48,.19,.62,.43,1.34,.38,1.97,.53h-.05c.29,.24,.67,.24,1.01,.34h-.05s.1,.1,.14,.14c.48,.24,.91,.53,1.44,.77,.1,.05,.24,.1,.34,.1-.43-.24-.82-.53-1.2-.77v-.1c.24,.1,.48,.14,.72,.24,.38,.14,.77,.29,1.15,.48,.34,.19,.62,.38,1.01,.62,.19,.19,.24,.43,.24,.67-.05-.05-.14-.05-.19-.14,0,.24,.05,.48,.05,.72,.1,0,.19-.05,.34-.1,.24,.58,.58,1.15,.91,1.73,.05-.34-.29-.58-.14-.96,.14,.19,.24,.38,.34,.58,.29,.72,.58,1.54,.67,2.35,0,.1,.05,.19,.05,.29,0,.14,0,.34-.05,.43-.29,.19-.24,.43-.24,.67s.05,.43,0,.62c-.05,.24,.24,.24,.19,.48,.14-.19,0-.48,.34-.62,.05,.1,.1,.14,.1,.24,.05,1.1-.19,2.21-.77,3.22-.53,1.06-1.15,2.06-1.73,3.12-.24,.43-.48,.86-.86,1.25-.05,.14-.24,.24-.43,.29,0-.05,.05-.14,.05-.24l-.05-.05c-.48,.34-.96,.53-1.34,1.01-.14,.24-.43,.38-.67,.62-.14,.05-.19,.14-.24,.24,.86-.24,1.44-.91,2.21-1.3-.05,.1-.1,.19-.19,.29-.29,.29-.67,.58-.96,.77-.34,.34-.72,.53-1.15,.72-.67,.24-1.25,.58-1.92,.86-.14,.1-.34,.1-.53,.14,0-.34,.14-.34,.29-.38,.14-.05,.29-.1,.43-.19-.38,.05-.77,.19-1.15,.14-.38,.34-.82,0-1.25,.19,0,.14-.05,.29-.05,.48,0,.62,.1,1.25,.1,1.92,0,.43-.1,.86-.14,1.3-.05,.14-.05,.29-.05,.43,.1,.43,.1,.86,.1,1.25,.1-.77,.14-1.49,.24-2.21h.1c0,.1,.05,.29,.05,.43v2.11c0,.43,.05,.82,.05,1.25v1.58c0,.34-.1,.58-.19,.86-.19,.58-.34,1.2-.19,1.82,.1,.24,.05,.38-.05,.62-.14,.14-.19,.38-.24,.62-.05,.24-.05,.48-.1,.77,.05-.05,.1-.05,.19-.1,0,.19,.05,.48-.05,.53-.38,.38-.19,.82-.38,1.25,0,0-.05,0-.1,.1,0-.14-.05-.29,0-.34,.29-.43-.05-.82,0-1.2-.19,.05-.19,.14-.19,.29,0,.43-.05,.82-.19,1.25-.05-.05-.1-.1-.14-.14-.14,.29-.29,.53-.48,.82h-.05c0-.24,.05-.43,.05-.67,.05-.1,.05-.24,.1-.34,.14-.48,.14-.96-.29-1.3,.05,.58,.14,1.1,.19,1.63-.14,.05-.14,.24-.19,.34Zm-1.49-35c.58-.1,1.2-.24,1.78-.38-.58,.14-1.25,0-1.78,.38Zm2.16,9.07c.05-.38,.19-.72-.1-1.06,.05,.34,.05,.67,.1,1.06Zm1.34,5.33c.86-.19,1.58-.58,2.16-1.25,.82-.96,1.54-1.92,2.02-3.07,.1-.14,.14-.38,.14-.58,.14-.67,0-1.34-.14-2.06-.05-.43-.29-.72-.58-1.01-.77-.72-1.73-1.1-2.69-1.44-.53-.19-1.06-.24-1.54-.19-.48,.1-.62,.29-.58,.77,.05,.48,.14,1.01,.05,1.54-.1,.82,.1,1.58,.14,2.4,.14,.96,.34,1.97,.43,3.02,0,.58,.05,1.25,.05,1.92,.24-.05,.38,0,.53-.05Zm-.1,12.82c0-.24,.05-.43,.05-.62h-.1v.62h.05Zm.38,3.7s-.05-.1-.05-.14l.05-.05s.1,.05,.19,.1c-.1,.05-.14,.1-.19,.1Zm.82-11.14v.1h-.14s-.05,0-.05-.05c.05,0,.14,0,.19-.05Zm.67-20.11c.05-.34,.24-.1,.38-.19-.14,.1-.24,.1-.38,.19Zm.24,.82s-.14-.05-.19-.05-.05,0-.05,.05c.1,.05,.14,.05,.24,.1v-.1Zm.58-.58c-.14-.19-.53-.05-.43-.43,.19,.1,.38,.24,.67,.14-.05,.1-.14,.19-.24,.29Zm.48,.24c-.14-.14-.34-.29-.24-.53,.14,.1,.34,.14,.48,.24,.19,.14,.43,.29,.67,.43,.05,.05,0,.14,0,.19h.05c-.29-.24-.62-.34-1.01-.34h.05Zm.34,15.99c.1-.1,.19-.14,.29-.24t-.05-.05c-.1,.05-.19,.14-.34,.19t.1,.1Zm3.79-.77c-.19,.14-.43,.19-.67,.34-.19,.14-.24,.24-.24,.48q.91-.53,.91-.82Zm.14-12.19c-.14-.34-.29-.62-.48-1.01-.1,.53,.05,.82,.48,1.01Zm1.68,2.02s-.05-.14-.05-.19h-.05v.19h.1Zm.34,1.82c.05,.19,.1,.29,.1,.38q.05-.24-.1-.38Z"/>
      <path class="cls-1" d="M83.79,54.36h-.05v-.62c-.1,.05-.14,.05-.14,.05-.19-.29-.29-.58-.43-.86-.05,0-.1,0-.1,.05-.05,.19-.05,.43-.1,.72-.19-.14-.05-.29-.19-.48-.05,.05-.14,.1-.24,.14-.05-.05-.05-.14-.1-.24-.05,.53-.1,1.01-.14,1.49h-.1c-.05-.14-.05-.24-.1-.43-.05,.14-.05,.19-.05,.24-.43-.24-.19-.72-.29-1.01-.14,.24-.29,.58-.53,.96-.05-.14-.1-.29-.19-.43-.1,.14-.19,.24-.29,.34v-.67s-.1-.05-.19-.1c-.19,.53,.1,1.1-.14,1.63,0-.1-.05-.19-.05-.29-.05-1.06-.19-2.16-.24-3.22,0-1.2-.1-2.45-.14-3.65v-1.1c-.05-.77-.1-1.58-.1-2.35v-2.54c-.05-1.58-.1-3.17-.14-4.8,0-1.39-.1-2.69-.1-3.98-.05-1.25-.05-2.45,0-3.6,0-.62,.05-1.15,.1-1.78,.1-1.01,.19-1.97,.29-2.93,.1-.34,.14-.72,.24-1.06,.05-.29,.05-.58,0-.91,0-.05-.05-.1,0-.14,.19-.38,0-.82,0-1.25,0-.58,.05-.62,.53-.82,.05-.05,.1-.05,.1-.05-.1,.48,.19,.86,.1,1.34h.14c0-.24,.05-.48,.05-.67,0-.24,.05-.38,.24-.53,.58-.34,1.1-.62,1.78-.77-.24-.24-.43-.14-.67-.1-.14,.1-.43,.14-.62,.14,1.01-.72,2.21-1.1,3.5-1.15-.14,.34-.43,.29-.67,.43,.38,.14,.77,0,1.15-.14-.14-.1-.19-.19-.29-.24,0-.34,.24-.48,.53-.48,.34-.14,.67-.19,1.1-.29,0,0,.14,.1,.24,.1-.1,.1-.14,.19-.24,.34,.43,.34,.86,.34,1.39,.29h.43c-.19-.29-.43-.34-.62-.34-.05,0-.05,.05-.1,.1,.1,.1,.19,.14,.29,.24-.1-.05-.14-.05-.24-.14-.24-.14-.38-.29-.62-.43,.14-.14,.34-.14,.53-.14,.67,.14,1.2,.34,1.68,.82h.05c.67,.43,1.15,1.1,1.58,1.78,.19,.29,.29,.72,.58,.91,.19,.14,.38,.29,.62,.38-.29-.38-.77-.62-.86-1.25l.24,.24c.19,.14,.34,.29,.53,.43,.14,.19,.34,.38,.53,.58,.05,.1,.19,.14,.34,.24,.1,.1,.14,.19,.14,.34,.05,0,0,.1-.1,.14,.38,.48,.67,1.06,.82,1.73,.05,.34,.19,.62,.34,.96,.05-.05,.1-.05,.14-.1,.1,.58,.24,1.15,.38,1.73-.1-.43,.05-.86-.14-1.3-.14-.34-.14-.77-.14-1.15,.29,.29,.43,.67,.43,1.06-.05,.48,.14,.91,.24,1.34,.05,.1,.14,.24,.14,.43,.05,.77,.1,1.49-.1,2.26-.14,.38-.14,.82-.19,1.2-.05,.05-.1,.24-.1,.34-.1,.14-.1,.34-.1,.58,.05,.29-.1,.62-.24,.91-.19,.58-.53,1.15-.72,1.68-.48,1.1-1.06,2.16-1.78,3.02-.1,.14-.19,.24-.38,.34,0-.14,0-.24,.05-.34-.05,0-.1-.05-.14,0-.14,.1-.38,.29-.58,.43,.48,.72,.91,1.34,1.3,2.06,.29,.43,.43,.91,.62,1.34-.14-.1-.29-.14-.48-.24,.05,.1,.1,.29,.19,.38,.29,.34,.48,.72,.62,1.15,.1,.19,.19,.43,.34,.62-.05-.38-.19-.72-.29-1.1,.62,.77,.96,1.68,1.15,2.69,.1,.77,.19,1.54,.19,2.35-.05,.53,.05,1.1,.05,1.58,0,.38,.05,.77-.29,1.01-.1,.1-.1,.24-.1,.34-.05,.72-.05,1.34-.1,2.06h-.19c0,.14,0,.34-.05,.48h-.1c-.1-.24-.14-.48-.24-.82h-.05c0,.29,0,.58-.05,.91-.1-.14-.14-.24-.19-.34-.24,0-.24,.19-.24,.34v1.1c-.1-.05-.14-.1-.24-.14-.05,.34-.14,.62-.53,.77,.14-.53-.05-.91-.34-1.3-.1,0-.19,.05-.34,.05v1.78c-.24-.05-.19-.24-.24-.38-.1-.14-.24-.29-.34-.38-.1-.14-.1-.34-.19-.53-.05,.14-.05,.19-.1,.34h-.34s-.1,.1-.05,.14c0,.14,0,.38,.1,.53,.24,.29,.05,.53,.1,.91-.14-.05-.24-.05-.29-.14-.1-.24-.19-.43-.24-.72-.05-.19-.14-.43-.34-.58-.24-.29-.24-.72-.29-1.06-.14-.77-.19-1.54-.29-2.3-.05-.38,.05-.77,.05-1.1,.1-1.1,.05-2.21-.14-3.31-.1-.43-.19-.91-.38-1.3-.34-.82-.77-1.58-1.2-2.4-.19-.29-.43-.48-.67-.72-.48-.43-1.01-.48-1.68-.1-.14,.1-.29,.19-.48,.29-.05-.14-.1-.24-.14-.38-.05,.05-.1,.05-.1,.1-.05,.48-.1,.91-.05,1.39,0,.43,.05,.86,.14,1.34,0-.14,0-.24,.05-.48,.05,.14,.1,.24,.1,.29,.14,1.3,.24,2.64,.34,3.94v1.2c0,.14,0,.34-.19,.43,0-.19-.05-.43-.1-.62-.19,.38-.19,.72-.19,1.1s.05,.77-.24,1.01c-.14,.1-.14,.24-.19,.43-.05-.14-.14-.19-.19-.24-.05,.34-.1,.62-.1,.96,0,.29-.1,.43-.38,.48v.43c-.05,.29-.14,.53-.19,.77Zm-2.93,.62h.05v.34h-.05v-.34Zm.43-34.61h.1c-.05,.1-.05,.19-.05,.29-.05-.05-.1-.05-.14-.05,.05-.1,.05-.14,.1-.24Zm2.06,33.6c0,.38,0,.67-.14,.91-.14-.29-.1-.53,.14-.91Zm.67-.05h-.05v-.34c0,.14,.05,.24,.05,.34Zm.77-.58c-.14-.24-.14-.72-.1-1.06,.14,.38,.1,.72,.1,1.06Zm.14-23.62c-.05,.14-.14,.29-.14,.43-.05,.82-.05,1.58-.1,2.35,0,.1,.05,.19,.05,.24,0,.38,.1,.77,.05,1.06-.14,.58,.05,1.1,.1,1.68,.05-.58-.05-1.1,.19-1.68,0,.67,.1,1.39,.19,2.11,.29-.05,.62-.14,.86-.14,.48-.19,.86-.48,1.2-.82,1.34-1.34,2.26-2.98,2.69-4.8,.19-.77,.19-1.49,.1-2.26-.1-.58-.24-1.1-.67-1.54-.24-.29-.48-.58-.72-.91-.29-.34-.62-.67-.96-1.01-.19-.24-.53-.34-.82-.14-.14,.05-.38,.1-.58,.1-.1,.05-.29,.05-.43,.1-.19,.05-.34,.14-.34,.34,0,.58-.24,1.1-.24,1.73-.05,.96-.14,1.92-.24,2.88-.05,.1-.05,.24-.05,.29h-.14Zm.14,22.75q-.1-.24,0-.53v.53Zm0-6.91v-.24h-.05v.24h.05Zm.1,2.3v.43h.05v-.43h-.05Zm5.04,6.86c.29,.05,.34,.24,.19,.48-.1-.19-.14-.34-.19-.48Zm1.1-2.5c-.1,.29-.24,.53,0,.82,.19-.24,.24-.53,0-.82Zm2.02-16.85c-.05,.19-.05,.34-.05,.38-.05,.1-.1,.19-.14,.29,0,.05,.05,.05,.1,.05,0-.1,0-.19,.05-.34q.29-.1,.05-.38Zm0,17.14v-.34h-.05v.34h.05Zm.1-18.96c.34-.38,.53-.77,.62-1.25-.34,.1-.48,.43-.62,1.25Zm.19,8.07c-.19-.05-.19-.19-.14-.29,.05,.1,.1,.19,.14,.29Zm.58-7.68c-.05,.14-.29,.34-.24,.58-.1,.05-.14,.14-.1,.29,.14-.05,.14-.19,.1-.29,.24-.1,.24-.38,.24-.58Zm0-10.8c-.34,0-.14-.24-.19-.34h.1c.05,.1,.05,.19,.1,.34Zm.14,10.61c.1-.14,.19-.19,.24-.24-.29-.1-.34,0-.24,.24Zm.43-9.31c-.1-.19-.14-.34-.19-.58,.29,.14,.34,.24,.43,.82-.05-.1-.19-.14-.24-.24Zm.29,7.2c-.1,.29-.38,.62-.24,1.06,.29-.62,.34-.77,.24-1.06Zm.19-.38c0-.14,0-.29,.05-.43h-.1v.43h.05Z"/>
      <path class="cls-1" d="M98.43,21.52c-.1,.53-.48,.62-.96,.43v-.24c.24,0,.43,.05,.62,.1,0-.29,0-.53-.05-.82,.29,.14,.29,.38,.38,.53Zm-.72,1.06h.05s.1,.05,.1,.1v.19c-.1-.14-.1-.19-.14-.29Zm.62,.1c-.38-.29-.29-.53,.34-.67,.05-.48-.19-.86-.34-1.3-.05-.14-.14-.34-.19-.48q-.19-.43,.24-.77s.14,.14,.19,.19c.1-.05,.14-.14,.19-.29,.24,.48,.05,.96,.29,1.39,.14-.1,.14-.19,.14-.29,0-.24-.05-.48,0-.67,.1-.34,0-.62-.34-.82,.24-.38,.62-.62,1.06-.53,.1,0,.14,.05,.24,.05,.43,.05,.62,.38,.43,.82-.05,.14-.19,.29-.05,.48,.38-.19,.67-.38,.96-.53v-.77c.34,.1,.62,.14,.72,.43,.05,.1,.24,.14,.38,.24,.05,.14,.05,.29,.05,.48,.43-.86,.29-.96,.14-1.58,.72,.24,1.01,.86,1.15,1.54,.19,.77,.29,1.58,.19,2.35-.05,.19,0,.38,0,.53,.05,.53-.05,.96-.34,1.39-.14,.19-.1,.48-.05,.72,.05-.1,.1-.24,.19-.43,.1,.24,.14,.43,.1,.67-.24,1.01-.1,2.02,.05,3.02,.24,1.58,.43,3.17,.29,4.8,0,.38,.14,.82,.1,1.2-.1,.91,.24,1.73,.24,2.59,.05,1.1,.1,2.26,.05,3.31-.1,.67-.1,1.3-.14,1.97-.1,.91,.05,1.78,.1,2.69,.05,.96,0,2.02,0,3.02v.77c0,.24,.1,.53-.29,.67-.05,0-.05,.24-.1,.34-.05,.34-.05,.67-.05,1.01-.05,.19,.05,.24,.14,.34,.14,.1,.38,.19,.43,.43-.58-.14-.67-.24-.86-.82-.1,.24-.05,.38-.05,.62,.05,.14,.05,.38,.05,.58h1.15c-.34,.77-.67,1.44-1.25,2.02-.05-.05-.1-.1-.1-.19-.05,0-.05-.05-.1-.14-.1,.05-.14,.1-.19,.14,0-.14,0-.19-.05-.29,0-.1-.1-.19-.19-.29-.14,.1-.19,.14-.38,.24-.1-.19-.19-.29-.24-.48-.14,.53,0,.82,.38,.91,.1,.19-.05,.48,.29,.58,.1,.05,.14,.34,.1,.43-.1,.19-.29,.34-.43,.48-.14-.14-.24-.29-.34-.43-.24,.05-.38,.24-.34,.58-.1-.05-.24-.05-.38-.1,.05-.19,.29-.38,.05-.48-.19-.1-.34-.1-.58-.14-.05-.05-.05-.14-.14-.29,.1-.05,.19-.1,.29-.14,.19-.19,.38-.29,.58-.48,.1-.05,.1-.19,.1-.29h-.19c-.05-.19-.1-.38-.19-.48-.05-.19-.14-.29-.34-.48-.05,.43-.1,.82-.14,1.25-.05-.19-.14-.29-.24-.48-.1,.14-.19,.29-.24,.38-.1,.1-.24,.14-.38,.24,.05,.1,.34,.19,.19,.43-.05,.14-.14,.29-.19,.48-.19-.1-.38-.19-.48-.29,0-.29,.19-.58-.1-.82-.1,.05-.19,.1-.29,.14-.05-.29-.1-.48-.14-.67-.19-.05-.34-.1-.53-.1,0-.14,.05-.29,.05-.43,.14,0,.24,0,.38,.05,.05-.05,.14-.19,.1-.24-.05-.14-.14-.24-.24-.34,.14-.38,.24-.86-.05-1.34v-.14c.14-.48,.14-.53,.05-.91-.05-.1,0-.29,0-.43v-3.5c-.05-1.25-.05-2.5-.05-3.75,0-.48,.1-.96,.1-1.44,.05-1.34-.05-2.64-.14-3.98-.05-.48-.05-.91-.05-1.34,.05-1.97-.19-3.84-.38-5.76-.05-.24-.05-.53-.05-.77-.05-.48-.05-.96-.14-1.44-.1-.38-.05-.82,0-1.2,.05-.62,.14-1.2,.14-1.82,.05-.34,.05-.72,.05-1.06,0-.1-.05-.19-.05-.29-.14,.1-.29,.14-.34,.19Zm1.3-4.61c.1-.1,.19-.1,.29,0,.05,0,0,.05,0,.1-.1-.05-.19-.1-.29-.1Zm.67,.05s0,.1-.05,.14c-.1-.05-.19-.05-.34-.1,.14-.05,.24-.1,.38-.05Zm.58,.34c.14,.19,.05,.34-.05,.43,0-.14,.05-.29,.05-.43Zm1.78-.1s.05,.14,.05,.14c0,.1-.05,.19-.1,.19s-.19-.05-.19-.1c-.1-.1-.1-.19-.14-.29,0-.05,.05-.05,.05-.1,.14,.05,.24,.1,.34,.14Zm.53,2.4c.14-.43,.24-.86,.05-1.25-.24,.38-.14,.82-.05,1.25Zm1.3,31.06h-1.15c0-.38,.05-.72,.1-1.15-.38,.43-.29,.91-.34,1.34,.53,.38,.96,.34,1.39-.19Zm-.77-31.63c-.05-.24-.1-.38-.14-.62,.05,.24-.29,.43,0,.62h.14Zm-.19,19.39v1.1h.1c-.05-.34-.05-.72-.1-1.06v-.05Zm.05,9.46c-.05,.1-.05,.14-.05,.14,0,.62,0,1.25,.05,1.82,.14-.05,.24-.1,.29-.1,0-.24,.1-.48,0-.62-.19-.29-.14-.58-.14-.86v-.34s-.1,0-.14-.05Zm.1-21.6c.05,.14,.05,.24,.1,.43,0-.05,.05-.05,.05-.05,0-.14-.05-.24-.05-.38h-.1Zm.14-4.85s-.05,.14-.05,.24h.1c0-.1,.05-.14,.05-.24h-.1Zm0-1.49v0Zm.38,12.43v-.24h-.05v.24h.05Zm.19,2.35c0-.34-.05-.67-.05-1.01-.19,.34-.05,.67,.05,1.01Zm-.05,7.78c-.1,.19-.1,.34,.05,.53v-.53h-.05Zm.1,2.3v-.53h-.05v.53h.05Zm.62,4.56c-.14-.05-.24-.05-.48-.1,.24-.19,.48-.34,.67-.43v.05c0,.14-.1,.34-.19,.48Zm.29,.38c-.1-.43,.19-.62,.43-.86-.1,.29-.24,.58-.43,.86Z"/>
      <path class="cls-1" d="M115.03,20.52s.1-.05,.1-.05c.38,1.49,1.39,2.59,2.06,3.89,.1-.1,.1-.14,.19-.24,.1,.14,.24,.34,.38,.48,.58,1.1,1.25,2.21,1.82,3.31,.29,.48,.53,.96,.77,1.49,.1,.24,.24,.38,.53,.38,0,0,.05-.05,.1-.05,.38-.72,.77-1.44,1.2-2.16,.29-.43,.62-.91,.91-1.39,.1-.1,.14-.24,.19-.34,.14-.48,.48-.91,.82-1.34,.1,.05,.19,.05,.24,.05h.05c.24-.34,.43-.62,.67-.91,.24-.48,.38-1.01,.58-1.54,.05-.14,0-.38,.34-.38,.05,0,.1-.14,.1-.19,.05-.1,.1-.19,.14-.29h.1v.58h.1s.1-.14,.1-.24c0-.29,.05-.58,.1-.91,.1-.43,.14-.82,.19-1.25,.05-.05,.05-.1,.1-.14,.05-.1,.14-.14,.24-.14s.19,.1,.19,.19c.05,.1,.05,.19,.24,.14,.05-.1,.1-.29,.14-.48h.1v.53c.24-.05,.24-.14,.24-.34,.05-.34,.19-.48,.58-.34,.24,.05,.43,.19,.48,.53,.05,.05,.05,.19,.19,.29,.05-.14,.1-.29,.19-.43,.19,0,.14,.24,.29,.38,0-.34,.14-.67,.48-.77,.05,.1,.14,.1,.14,.19,.24,.29,.43,.34,.67,.05,.1-.1,.14-.19,.24-.14s.14,.19,.19,.29q.05,.19,.19,.34c.1-.14,.14-.24,.24-.43-.1,.43-.19,.82-.24,1.2h.1c.05-.1,.1-.24,.19-.43,.05,.1,.14,.19,.14,.24v.91c-.05,.48-.05,.96-.1,1.49-.1,.67,0,1.34,.05,2.02,0,.29,.05,.58,.05,.86,.14,.77,.1,1.49,0,2.16v.77c0,.19,.05,.48,.1,.67,0,.14,0,.29,.05,.38,.19-.34,0-.62,0-.96,.05-.38,.05-.72,.1-1.06,.29,.72,.62,5.42,.43,6.24-.05-.05-.1-.1-.14-.19-.1,.38-.14,.72-.14,1.1,.05,.91,.05,1.78,.1,2.69,.05,.14-.05,.34,.24,.34,0,0,.05,.1,.05,.14,.1,.53,.29,1.01,.29,1.54,0,.77,.1,1.49,.14,2.26,.1,.91,0,1.87-.24,2.78-.1,.58-.14,1.25-.1,1.92,.1-.53,.14-1.06,.19-1.58h.1s.1,.1,.1,.14c.05,.53,.05,1.06-.19,1.58-.19,.29-.19,.67-.19,1.06,.05,.67,.1,1.34,.24,2.06v-2.11c0,.77,.34,1.49,.24,2.3-.1,.05-.24,.05-.43,.1,.05,.14,.05,.29,.1,.38,.14-.1,.29-.1,.43-.14,.14,.19,.05,.48,0,.72,0,.29-.24,.34-.48,.53-.05-.1-.1-.14-.19-.29-.1,.14-.14,.19-.14,.29-.05,.14-.05,.34-.05,.48q0,.62-.38,1.34v-.34c-.19-.1-.29-.24-.48-.38-.1,.24-.05,.48-.1,.77,.1-.05,.14-.1,.24-.19,.1,.38-.19,.62-.29,1.01-.05-.05-.1-.1-.14-.19-.38,0-.24,.48-.48,.62-.05-.1-.1-.19-.1-.29-.05-.14-.1-.29-.24-.24-.19,0-.19,.14-.19,.29-.05,.24-.1,.48-.48,.53,0-.24,0-.48-.05-.72-.29,.24-.48-.43-.86,0-.05,.38-.05,.72-.14,1.15-.24,0-.34-.14-.34-.34v-1.01c-.43,.14-.1,.58-.38,.77h-.38c0-.29,.53-.29,.34-.62-.05,0-.14,.05-.19,.05-.05-.24,.14-.34,.24-.43,.14-.1,.1-.34,.19-.58-.14,.05-.24,.1-.29,.14-.24-.34-.38-.62-.24-1.01,.14-.48,.14-1.01,.1-1.54-.1-1.34-.19-2.78-.14-4.22,.05-.91-.05-1.82-.05-2.74-.05-.82-.05-1.73-.05-2.59,0-.58-.1-1.25-.14-1.82-.05-1.06-.1-2.06-.14-3.07-.05-.86-.05-1.78-.1-2.64-.05-1.01-.1-1.97-.19-2.98,0-.1-.05-.19-.05-.29-.24,0-.24,.19-.34,.34-.38,.62-.77,1.3-1.2,1.92-.58,.96-1.25,1.87-1.82,2.83-.1,.1-.14,.19-.24,.34-.14,.34-.38,.67-.53,1.06-.14,.14-.24,.38-.29,.58-.1,.34-.34,.58-.62,.72,0,.14,0,.34-.05,.43,0,.1-.1,.14-.14,.24-.1-.1-.19-.14-.24-.24-.14-.24-.1-.24-.38-.43-.1,.19-.19,.38-.24,.58-.19-.14-.34-.19-.53-.05-.1,.1-.19,.14-.34,.05h-.14c-.1,.24-.24,.19-.34-.05-.14-.14-.19-.29-.38-.53-.05,.19-.05,.29-.05,.48-.1-.14-.14-.29-.19-.38,.05-.1,.14-.19,.24-.29-.1-.24-.29-.29-.48-.34-.05-.53-.53-.82-.62-1.3h-.1c-.05,.1-.05,.19-.1,.34-.1,.1-.19,.19-.34,.29,0-.29,0-.53-.05-.82-.24,.29-.14,.62-.24,.96-.24-.58-.24-1.1-.05-1.54,.1-.29,.05-.43-.05-.62-1.15-1.87-2.21-3.7-3.36-5.57-.19-.34-.43-.72-.72-1.2-.05,.14-.05,.24-.05,.34-.05,.53-.05,1.01,0,1.49,0,.19-.05,.38-.19,.43-.1-.05-.14-.19-.24-.34-.1,.29-.05,2.45,.1,3.22,.1-.34,.14-.53,.19-.77h.05c0,.1,.05,.24,.05,.43,.1,1.15,.14,2.35,.24,3.5,.14,1.73,.14,3.5,.14,5.23-.05,.77,0,1.54,0,2.26,0,.91,0,1.87,.24,2.79,.05,.1,.05,.34,0,.48-.19,.43,.05,.86,.1,1.3,.1,.43,.19,.86,.05,1.34-.1,.19,.05,.38-.14,.62-.05-.14-.1-.19-.14-.24-.1,.1-.1,.24-.24,.43,0-.24-.05-.34-.05-.43h-.05c0,.14-.05,.34,0,.43,.14,.38,.05,.67-.05,.96-.05,.19-.1,.34-.14,.53,0,.14,.05,.38-.24,.34,0,0-.05,.14-.05,.19-.1,.24-.14,.53-.19,.77v-1.44c-.19,.14-.34,.24-.43,.38,.34,.43-.05,.86,0,1.3h-.1s-.05-.14-.05-.19c-.19,.24-.34,.48-.58,.77v-.62h-.05c-.14,.34-.34,.67-.48,1.1-.19-.43-.19-.82,0-1.15-.29-.24-.19-.48-.14-.77,.1-.43,.19-.86,.24-1.34,.05-.38,0-.82,0-1.2h-.1c0,.19,0,.38-.05,.53,0,.29,0,.62-.05,.91,0,.19-.1,.34-.19,.53-.14,.19-.14,.48-.19,.72-.05,.19,0,.38-.05,.62s-.19,.34-.48,.34c-.1,.05-.24,.05-.34,.1-.19-.43,.19-.82,.1-1.3-.43,.34-.19,.96-.62,1.3-.05-.05-.1-.1-.19-.19-.1,.38-.1,.72-.19,1.1-.29-.38-.19-.77-.24-1.1-.1,.19-.19,.38-.29,.62-.05-.72-.14-1.39,.24-2.06-.19-.1-.24-.34-.19-.48,.1-.53,.14-1.01,.14-1.54,0-.34-.05-.62-.05-1.01,.05-.91-.1-1.87-.14-2.83v-1.54c-.19-1.01-.1-2.06-.1-3.02-.05-1.3-.05-2.54-.14-3.84,0-1.44-.14-2.88-.19-4.32-.05-2.11-.05-4.27-.05-6.38,.05-.58,.14-1.25,.24-1.87,0-.14,.1-.34-.1-.38-.05-.05,0-.24,.05-.34,.05-.19,.14-.48,.05-.72-.05,0-.14-.05-.24-.05,.05-.19,.1-.38,.19-.53,.14-.29,.19-.62,.19-.96,0-.24,0-.43,.24-.62,.14-.1,.14-.24,.14-.34-.05-.29-.1-.53-.1-.77s0-.38,.29-.38v1.1c.43-.1,.58-.29,.43-.62-.05-.14-.1-.34-.1-.53q-.05-.43,.43-.43,.29-.38,.58-.1c-.05,.19-.38,.1-.38,.43,.1-.05,.24-.05,.29-.1,.24-.24,.53-.29,.77,0,.14-.1,.19-.19,.29-.24,.14,.05,.38,.1,.58,.14,.05-.1,.1-.24,.14-.24,.29,.05,.43-.19,.58-.34,.05,0,.1-.05,.14-.05,.43-.05,.62-.38,.72-.82h.43c.19,.34,.43,.67,.77,1.1v-.29c.34,.05,.1,.34,.24,.48,.05,0,.1-.05,.19-.1,.1,.38,0,.91,.48,1.25-.1-.24-.14-.29-.19-.43Zm-2.3,30.24c-.05-.14-.05-.29-.05-.38-.05,0-.1,0-.1,.05,0,.1,.05,.24,.05,.38t.1-.05Zm.14-17.28v.34h.05v-.34h-.05Zm.19,16.13v.62c.05-.19,.1-.38,0-.62Zm.24-8.64c-.24,.29-.29,.96-.05,1.97,.19-.67,.1-1.3,.05-1.97Zm-.05,2.54v-.19h-.05v.19h.05Zm.29,5.81c.05,.14,.05,.29,.1,.38q.05-.24-.1-.38Zm2.78-27.03s.1,0,.1-.05c.05,.14,.1,.24,.14,.34-.05-.1-.14-.19-.24-.29Zm.62,.72s-.1,.1-.14,.1c-.1-.14-.24-.29-.24-.53,.1,.19,.24,.29,.38,.43Zm.77,14.26c.14,0,.14,.19,.05,.29,0-.1-.05-.19-.05-.29Zm.77-.24c.05,.1,.05,.19,.05,.34,0,.05-.05,.14-.14,.14-.05,0-.14,0-.14-.05-.1-.19-.14-.34-.19-.48,0-.14,.1-.29,.14-.43,.1,.19,.24,.34,.29,.48Zm2.26-6.82c-.14-.14-.24-.19-.29-.29,0-.24-.14-.34-.29-.53,.05,.24,.05,.43,.29,.53,0,.1,0,.24,.29,.29Zm1.97,7.97c-.1,.1-.19,.14-.29,0-.05-.1,0-.24,.05-.24,.1-.1,.19-.14,.29-.19l.1,.1c-.05,.1-.1,.19-.14,.34Zm0-10.9c.05-.1,.1-.14,.14-.19,0-.05-.05-.05-.1-.1-.05,.1-.1,.14-.14,.24,0,0,.05,.05,.1,.05Zm.34,9.79l.05,.05s-.05,.14-.05,.19h-.05c.05-.1,.05-.14,.05-.24Zm.29-10.95c-.05,.14-.14,.19-.19,.29,0,.05,.05,.05,.1,.1,.05-.1,.14-.19,.24-.29-.05,0-.1-.05-.14-.1Zm.77-1.25c-.05,.1-.1,.19-.19,.29,.05,0,.1,.05,.1,.05,.05-.1,.14-.19,.19-.24l-.1-.1Zm3.46,29.04c.05-.34,.14-.58,.24-.86,.19,.29,.14,.38-.24,.86Zm1.97-.48q.19-.34-.05-.58c-.1,.19-.1,.38,.05,.58Zm.82-.77v.82s.14-.05,.24-.1c-.1-.29-.19-.43-.24-.72Zm1.2,.86c.05-.1,.05-.24,.1-.48-.38,.14-.29,.34-.24,.48h.14Zm.19-31.44c-.14,.91,.05,1.82,.14,2.74v-2.78s-.1,.05-.14,.05Zm.43,31.59h-.05v-.24h.05v.24Zm.14-1.54c0,.1-.05,.24-.05,.34,.14-.1,.24-.19,.05-.34Zm.1-.53c.05-.29,.14-.67,0-1.06-.14,.38-.05,.77,0,1.06Zm.1-20.69v.24h.05v-.24h-.05Zm.34,12.58h-.1c0,.38-.05,.77,.24,1.1-.05-.38-.1-.72-.14-1.1Zm-.05-5.18v-.43h-.05v.38s.05,.05,.05,.05Zm.14-2.98h-.14c-.1-.19,.05-.38,.05-.53h.14c-.05,.14-.05,.38-.05,.53Zm.86,15.51c.05-.29,.05-.48,.05-.72,.05-.19,0-.38,0-.58h.1c.1,.43,.34,.86-.14,1.3Z"/>
      <path class="cls-1" d="M136.39,19.8c.14-.19,.24-.24,.43-.05-.14,0-.24,.05-.43,.05Zm.43,.1v-.14c-.1-.14-.19-.29-.29-.43,.1,0,.19,0,.29-.05v.1c.29,0,.38,0,.48-.34-.19,.1-.34,.19-.48,.29,.34-.58,.82-.86,1.44-.96,.29-.05,.58-.05,.86-.05,.05-.14,.05-.29,.1-.34,.1-.1,.24-.05,.38-.05,.1,.05,.24,.1,.38,.14-.05-.14-.1-.19-.1-.24-.05-.05-.05-.1-.14-.19,.14,0,.29,0,.34,.1,.19,.19,.48,.24,.77,.19,.62-.05,1.25,0,1.92,.05,.19,.05,.43,.05,.62,0-.38-.05-.82-.1-1.2-.14,.72-.19,1.49-.29,2.21-.19,.14,0,.29,0,.38,.1,.19,.24,.34,.24,.62,.24,.24,0,.48,.05,.72,.05h.82q-.1,.05-.14,.1c0,.1,.34,.1,.58,0,.14-.05,.24-.24,.48-.05-.24,.19-.48,.19-.72,.19q-.24,.05-.38,.24h1.15c.38,0,.77,.1,1.15,.1,.1,.14,.14,.34,.24,.43,.19-.05,.38-.05,.53-.1,0,.05,.05,.05,.05,.1-.1,.1-.1,.24-.19,.34-.34,.14-.72,.38-1.06,.43-.34,.14-.43,.38-.53,.72,.14-.1,.29-.14,.43-.24v.29c.48,.1,.67-.48,1.1-.53q.19,.38-.24,.82c.38,.05,.77,.1,1.1,.14,.05,.19,.05,.48,.05,.72-.19,.19-.38,.34-.67,.62-.05-.19-.1-.29-.1-.38-.38,.34-.72,.48-1.3,.62-.43,.14-.91,.24-1.39,.38-.14,.05-.34,.05-.43,.05-.29,0-.48,.05-.72,.14-.14,.1-.38,.1-.58,.05-.82-.24-1.63-.05-2.5,.05,0,.34-.05,.67-.05,.96-.05,.34-.1,.62-.14,.86,0,.34-.05,.67-.05,.96-.05,1.25-.05,2.54-.05,3.79,0,1.01-.05,2.02-.05,2.98,0,.14,.05,.29,.05,.38,.58,0,1.15-.05,1.58-.38,.1-.05,.19-.05,.29-.1,.19,0,.38,0,.48-.24,.05-.1,.24-.1,.34-.1s.19,.14,.19,.29c.1,.14,0,.38-.05,.53,.86,.05,1.68,.19,2.4,.67q-.19,.34-.77,.29c.1,.05,.14,.1,.29,.14-.1,.05-.14,.14-.14,.14,.1,.14,.29,.29,.43,.48,.24-.43,.62-.14,.91-.19q.19,.19,.1,.34s.05,.05,.1,.1c.48,.14,.53,.19,.24,.62,.38,.05,0,.43,.29,.62-.24-.1-.43-.14-.72-.19,0,.48,0,.53,.38,.62,.19,.05,.43,.14,.62,.24-.19,0-.43-.05-.62-.1,0,0,0,.05-.05,.05,.29,.14,.58,.29,.91,.48q0,.29-.34,.43c-.1-.05-.29-.14-.53-.29,.05,.14,.05,.24,.1,.29,.05,0,.1,.05,.14,.1,.14,.1,.24,.29,.19,.43-.05,.14-.19,.24-.34,.34h-.24s-.05-.1-.05-.1c-.05-.14,.1-.34-.14-.43-.14-.05-.38-.24-.53,.1h-.34c-.43,.24-.82,.14-1.25,.1-.38-.05-.77-.05-1.1,0-.82,.1-1.63,.19-2.5,.29-.05,0-.14,.05-.24,.05,0,.1-.05,.19-.05,.34,0,.77,.05,1.54,.05,2.3-.05,.58-.05,1.15-.1,1.68-.05,.58-.05,1.1-.1,1.63,0,.1,.05,.24,0,.34-.19,.48-.1,.91,0,1.39,.1,.96,.19,2.02,.29,3.02,0,.1,.05,.14,.05,.29,.24,.05,.53,0,.72-.14,.29-.1,.67-.19,.96-.29,.24-.05,.48-.05,.67,.05,.1,.05,.19,.05,.34,.05,.1,0,.24,.05,.38,.1-.34,.19-.67-.05-1.01,.1,.14,.29,.34,.43,.67,.38,.34,0,.67,0,1.01,.05,.38,.14,.77,.34,1.15,.48-.05,.14-.05,.29-.05,.38-.19,.1-.43-.1-.48,.19,0,.29-.29,.05-.43,.19,.24,.05,.48,.1,.72,.14v-.1c-.1-.05-.19-.14-.29-.24,.24,.14,.48,.19,.77,.19,.19,0,.43,.14,.62,.24,.05,.43,.58,.38,.72,.77-.05,0-.14,.05-.24,.1-.05,.29,.53,.24,.34,.67-.14-.1-.34-.24-.48-.34-.1,.14-.19,.29-.34,.43,.24,.24,.43,.43,.67,.72-.1,0-.14,0-.24,.05,.1,.29,.53,.38,.38,.82-.1-.05-.24-.1-.38-.14-.05,.1-.05,.14-.14,.24,.05,.24,.1,.38,.38,.43h-.43c.14,.19,.24,.34,.43,.48-.38-.05-.72-.1-.96-.14-.19-.05-.24-.14-.24-.34-.05-.1-.05-.24-.29-.24-.05,.1-.1,.19-.14,.34-.19-.1-.38-.14-.58-.05-.14,.05-.29,0-.43-.05-.53-.14-1.06-.14-1.54-.1-.67,.05-1.3,.1-1.97,.19-.62,.1-1.2,.14-1.87,.05h-.48c.19,.19,.38,.38,.58,.62-.48-.19-.86-.34-1.25-.53-.14-.1-.29-.14-.48-.14-.24,0-.53-.05-.77-.1-.24,0-.43,0-.48,.34-.14-.19-.24-.29-.34-.43-.05,0-.1-.05-.19-.05-.19-.1-.38-.19-.48-.34-.05-.14-.19-.38-.34-.58h.43c.19-.34,.14-.38-.24-.48,.1-.38,.29-.77,.14-1.25-.38,.1-.14,.34-.19,.53-.05,0-.14,.05-.24,.1-.05-.14-.1-.34-.19-.53q.29-.19,.34-.82c.24-.05,.14,.34,.29,.34,.05-.29,.1-.58,.14-.86,0-.1,0-.24-.1-.34-.1-.14-.1-.38-.14-.62-.05-.86-.1-1.73-.14-2.54-.05-.58-.1-1.1-.05-1.63,.05-.34,0-.67,0-.96,.05-.96,.14-1.97,.19-2.93,0-.43-.1-.86-.1-1.34v-2.98c0-.19-.05-.38-.29-.43,.24-.29,.24-.58,.24-.86-.05-.58,0-1.15,.05-1.73,0-.29-.05-.53,0-.82,0-.72,.05-1.39,.05-2.16,0-.43-.05-.91-.05-1.34,0-.91,.05-1.87,.1-2.83,0-.29-.05-.58,0-.82,.05-1.25,.1-2.5,.19-3.74v-1.49c-.1,0-.19-.05-.29-.05,.05-.1,.1-.14,.14-.24-.14,.05-.24,.1-.38,.1,.1-.19,.24-.43,.34-.58-.1-.05-.14-.05-.24-.05,.1-.24,.14-.38,.38-.38,0,.1,0,.14-.05,.24q.19-.1,.05-.24c-.14-.24-.14-.48,0-.72,.24-.05,.43-.1,.72-.19-.43,0-.48,.05-.72,.19-.14,.05-.38,.1-.53,.1Zm.1,.58l-.14,.14c-.14-.14-.19-.24-.1-.38,.05-.1,.1-.19,.14-.34,0,.19,.05,.38,.1,.58Zm2.06-2.78s-.05,.05-.05,.05c-.1-.05-.19-.1-.29-.14,0,0,.05-.05,.05-.1,.1,.1,.19,.14,.29,.19Zm2.45,15.22v-1.01c-.14,.43-.14,.72,0,1.01Zm-.05,10.37v-1.06h-.05v1.06h.05Zm.43-25.2c-.14,.05-.24,.05-.38,.1v.05h.43s-.05-.1-.05-.14Zm.24,28.51c0,.19-.05,.34,.14,.43v-.43h-.14Zm.34-20.4v-.43h-.1v.43h.1Zm-.05,22.13v.48h.1c-.05-.14-.05-.34-.05-.48h-.05Zm1.2,1.73c-.19,0-.38,0-.58,.05v.1c.24,0,.38-.05,.58-.05v-.1Zm.62-16.71c-.34-.1-.53-.1-.77,.14,.34,.14,.48,.05,.77-.14Zm2.74-12.67c.19,0,.38,0,.62-.05-.05,0-.05-.05-.05-.1-.24,.05-.38,.1-.62,.14h.05Zm.1,15.03c.43,.48,.48,.53,.82,.14-.29-.05-.53-.05-.82-.14Zm1.82,15.51s-.05,.05-.05,.1c-.19-.1-.38-.19-.58-.24,0-.05,.05-.1,.05-.1,.19,.05,.38,.14,.58,.24Zm-.24-12.29s-.1,.05-.1,.05c-.05,0-.05-.05-.05-.14,.05,.05,.1,.1,.14,.1Z"/>
      <path class="cls-1" d="M156.7,54.36h-.05v-.62c-.1,.05-.14,.05-.14,.05-.19-.29-.29-.58-.43-.86-.05,0-.1,0-.1,.05-.05,.19-.05,.43-.1,.72-.19-.14-.05-.29-.19-.48-.05,.05-.14,.1-.24,.14-.05-.05-.05-.14-.1-.24-.05,.53-.1,1.01-.14,1.49h-.1c-.05-.14-.05-.24-.1-.43-.05,.14-.05,.19-.05,.24-.43-.24-.19-.72-.29-1.01-.14,.24-.29,.58-.53,.96-.05-.14-.1-.29-.19-.43-.1,.14-.19,.24-.29,.34v-.67s-.1-.05-.19-.1c-.19,.53,.1,1.1-.14,1.63,0-.1-.05-.19-.05-.29-.05-1.06-.19-2.16-.24-3.22,0-1.2-.1-2.45-.14-3.65v-1.1c-.05-.77-.1-1.58-.1-2.35v-2.54c-.05-1.58-.1-3.17-.14-4.8,0-1.39-.1-2.69-.1-3.98-.05-1.25-.05-2.45,0-3.6,0-.62,.05-1.15,.1-1.78,.1-1.01,.19-1.97,.29-2.93,.1-.34,.14-.72,.24-1.06,.05-.29,.05-.58,0-.91,0-.05-.05-.1,0-.14,.19-.38,0-.82,0-1.25,0-.58,.05-.62,.53-.82,.05-.05,.1-.05,.1-.05-.1,.48,.19,.86,.1,1.34h.14c0-.24,.05-.48,.05-.67,0-.24,.05-.38,.24-.53,.58-.34,1.1-.62,1.78-.77-.24-.24-.43-.14-.67-.1-.14,.1-.43,.14-.62,.14,1.01-.72,2.21-1.1,3.5-1.15-.14,.34-.43,.29-.67,.43,.38,.14,.77,0,1.15-.14-.14-.1-.19-.19-.29-.24,0-.34,.24-.48,.53-.48,.34-.14,.67-.19,1.1-.29,0,0,.14,.1,.24,.1-.1,.1-.14,.19-.24,.34,.43,.34,.86,.34,1.39,.29h.43c-.19-.29-.43-.34-.62-.34-.05,0-.05,.05-.1,.1,.1,.1,.19,.14,.29,.24-.1-.05-.14-.05-.24-.14-.24-.14-.38-.29-.62-.43,.14-.14,.34-.14,.53-.14,.67,.14,1.2,.34,1.68,.82h.05c.67,.43,1.15,1.1,1.58,1.78,.19,.29,.29,.72,.58,.91,.19,.14,.38,.29,.62,.38-.29-.38-.77-.62-.86-1.25l.24,.24c.19,.14,.34,.29,.53,.43,.14,.19,.34,.38,.53,.58,.05,.1,.19,.14,.34,.24,.1,.1,.14,.19,.14,.34,.05,0,0,.1-.1,.14,.38,.48,.67,1.06,.82,1.73,.05,.34,.19,.62,.34,.96,.05-.05,.1-.05,.14-.1,.1,.58,.24,1.15,.38,1.73-.1-.43,.05-.86-.14-1.3-.14-.34-.14-.77-.14-1.15,.29,.29,.43,.67,.43,1.06-.05,.48,.14,.91,.24,1.34,.05,.1,.14,.24,.14,.43,.05,.77,.1,1.49-.1,2.26-.14,.38-.14,.82-.19,1.2-.05,.05-.1,.24-.1,.34-.1,.14-.1,.34-.1,.58,.05,.29-.1,.62-.24,.91-.19,.58-.53,1.15-.72,1.68-.48,1.1-1.06,2.16-1.78,3.02-.1,.14-.19,.24-.38,.34,0-.14,0-.24,.05-.34-.05,0-.1-.05-.14,0-.14,.1-.38,.29-.58,.43,.48,.72,.91,1.34,1.3,2.06,.29,.43,.43,.91,.62,1.34-.14-.1-.29-.14-.48-.24,.05,.1,.1,.29,.19,.38,.29,.34,.48,.72,.62,1.15,.1,.19,.19,.43,.34,.62-.05-.38-.19-.72-.29-1.1,.62,.77,.96,1.68,1.15,2.69,.1,.77,.19,1.54,.19,2.35-.05,.53,.05,1.1,.05,1.58,0,.38,.05,.77-.29,1.01-.1,.1-.1,.24-.1,.34-.05,.72-.05,1.34-.1,2.06h-.19c0,.14,0,.34-.05,.48h-.1c-.1-.24-.14-.48-.24-.82h-.05c0,.29,0,.58-.05,.91-.1-.14-.14-.24-.19-.34-.24,0-.24,.19-.24,.34v1.1c-.1-.05-.14-.1-.24-.14-.05,.34-.14,.62-.53,.77,.14-.53-.05-.91-.34-1.3-.1,0-.19,.05-.34,.05v1.78c-.24-.05-.19-.24-.24-.38-.1-.14-.24-.29-.34-.38-.1-.14-.1-.34-.19-.53-.05,.14-.05,.19-.1,.34h-.34s-.1,.1-.05,.14c0,.14,0,.38,.1,.53,.24,.29,.05,.53,.1,.91-.14-.05-.24-.05-.29-.14-.1-.24-.19-.43-.24-.72-.05-.19-.14-.43-.34-.58-.24-.29-.24-.72-.29-1.06-.14-.77-.19-1.54-.29-2.3-.05-.38,.05-.77,.05-1.1,.1-1.1,.05-2.21-.14-3.31-.1-.43-.19-.91-.38-1.3-.34-.82-.77-1.58-1.2-2.4-.19-.29-.43-.48-.67-.72-.48-.43-1.01-.48-1.68-.1-.14,.1-.29,.19-.48,.29-.05-.14-.1-.24-.14-.38-.05,.05-.1,.05-.1,.1-.05,.48-.1,.91-.05,1.39,0,.43,.05,.86,.14,1.34,0-.14,0-.24,.05-.48,.05,.14,.1,.24,.1,.29,.14,1.3,.24,2.64,.34,3.94v1.2c0,.14,0,.34-.19,.43,0-.19-.05-.43-.1-.62-.19,.38-.19,.72-.19,1.1s.05,.77-.24,1.01c-.14,.1-.14,.24-.19,.43-.05-.14-.14-.19-.19-.24-.05,.34-.1,.62-.1,.96,0,.29-.1,.43-.38,.48v.43c-.05,.29-.14,.53-.19,.77Zm-2.93,.62h.05v.34h-.05v-.34Zm.43-34.61h.1c-.05,.1-.05,.19-.05,.29-.05-.05-.1-.05-.14-.05,.05-.1,.05-.14,.1-.24Zm2.06,33.6c0,.38,0,.67-.14,.91-.14-.29-.1-.53,.14-.91Zm.67-.05h-.05v-.34c0,.14,.05,.24,.05,.34Zm.77-.58c-.14-.24-.14-.72-.1-1.06,.14,.38,.1,.72,.1,1.06Zm.14-23.62c-.05,.14-.14,.29-.14,.43-.05,.82-.05,1.58-.1,2.35,0,.1,.05,.19,.05,.24,0,.38,.1,.77,.05,1.06-.14,.58,.05,1.1,.1,1.68,.05-.58-.05-1.1,.19-1.68,0,.67,.1,1.39,.19,2.11,.29-.05,.62-.14,.86-.14,.48-.19,.86-.48,1.2-.82,1.34-1.34,2.26-2.98,2.69-4.8,.19-.77,.19-1.49,.1-2.26-.1-.58-.24-1.1-.67-1.54-.24-.29-.48-.58-.72-.91-.29-.34-.62-.67-.96-1.01-.19-.24-.53-.34-.82-.14-.14,.05-.38,.1-.58,.1-.1,.05-.29,.05-.43,.1-.19,.05-.34,.14-.34,.34,0,.58-.24,1.1-.24,1.73-.05,.96-.14,1.92-.24,2.88-.05,.1-.05,.24-.05,.29h-.14Zm.14,22.75q-.1-.24,0-.53v.53Zm0-6.91v-.24h-.05v.24h.05Zm.1,2.3v.43h.05v-.43h-.05Zm5.04,6.86c.29,.05,.34,.24,.19,.48-.1-.19-.14-.34-.19-.48Zm1.1-2.5c-.1,.29-.24,.53,0,.82,.19-.24,.24-.53,0-.82Zm2.02-16.85c-.05,.19-.05,.34-.05,.38-.05,.1-.1,.19-.14,.29,0,.05,.05,.05,.1,.05,0-.1,0-.19,.05-.34q.29-.1,.05-.38Zm0,17.14v-.34h-.05v.34h.05Zm.1-18.96c.34-.38,.53-.77,.62-1.25-.34,.1-.48,.43-.62,1.25Zm.19,8.07c-.19-.05-.19-.19-.14-.29,.05,.1,.1,.19,.14,.29Zm.58-7.68c-.05,.14-.29,.34-.24,.58-.1,.05-.14,.14-.1,.29,.14-.05,.14-.19,.1-.29,.24-.1,.24-.38,.24-.58Zm0-10.8c-.34,0-.14-.24-.19-.34h.1c.05,.1,.05,.19,.1,.34Zm.14,10.61c.1-.14,.19-.19,.24-.24-.29-.1-.34,0-.24,.24Zm.43-9.31c-.1-.19-.14-.34-.19-.58,.29,.14,.34,.24,.43,.82-.05-.1-.19-.14-.24-.24Zm.29,7.2c-.1,.29-.38,.62-.24,1.06,.29-.62,.34-.77,.24-1.06Zm.19-.38c0-.14,0-.29,.05-.43h-.1v.43h.05Z"/>
      <path class="cls-1" d="M179.54,24.02v-.05s.05-.1,.14-.14c0,0,0,.05,.05,.05-.05,.05-.14,.1-.19,.14Zm6.29,14.55h.1c0,.14,.05,.29,.05,.43,.05,1.06,.14,2.06,.19,3.12,.05,1.15,.05,2.35,.05,3.6,0,.14-.1,.34-.14,.53-.1-.1-.19-.19-.24-.29-.14,.77,.1,1.54,0,2.35h.91c-.19-.14-.24-.14-.67-.19-.05-.24,.1-.24,.29-.24,.38,.05,.82,.1,1.2,.24,.24,.05,.43,.19,.34,.53,.58,.43,1.3,.43,1.97,.77-.1,.05-.1,.1-.24,.19,.29,0,.48-.05,.62,0,.14,.1,.29,.14,.53,.05,0,.1,.1,.19,.14,.34-.53,.14-1.01-.19-1.49-.05,.29,.05,.53,.1,.91,.19-.05,.14,0,.24,.19,.34,.19,.1,.24,.34,.38,.53,.1-.05,.19-.1,.29-.1,.05-.05,.24-.05,.24,0,.1,.29,.38,.19,.72,.29-.48,.24-.82,0-1.2,.05-.05,.05-.14,.1-.19,.24,.34,.24,.67,.24,1.06,.24-.19,.24-.38,.29-.62,.24-.34-.05-.67-.1-1.01-.19,.14,.34,.19,.53,.34,.77,.1,.1,.29,.14,.48,.1,.19-.1,.19-.19,.19-.53h.43c.1,.05,.24,.05,.38,.1-.14,0-.29,.05-.48,.1,.19,.1,.34,.14,.53,.24h-.29c-.24,.1-.53,.24-.72,.38-.1,.05-.14,.14-.14,.19s.14,.1,.29,.19c0,.19,.05,.43,.1,.67-.14,.14-.34,.34-.53,.48-.05,.05-.24,.14-.34,.1-.24-.19-.53-.1-.86-.19-.58-.14-1.2-.29-1.78-.43-.19-.05-.38-.14-.58-.24v.24c-.1,.24-.34,.29-.43,.1-.1-.14-.24-.14-.38-.19-.24-.05-.38-.1-.62-.14-.1-.05-.19-.1-.24-.05-.34,0-.58,.05-.82,.1v.19c-.34-.38-.67-.24-1.01-.19-.19,.05-.29,.05-.48,.05-.34,0-.38,.05-.58,.38-.1-.14-.1-.24-.19-.29-.05,.05-.05,.1-.1,.14-.05,.05-.1,.14-.14,.14s-.1-.1-.1-.14c-.05-.19-.19-.29-.43-.29-.1,0-.19-.14-.34-.24,.05-.1,.1-.19,.1-.29,.05-.05,.05-.14,.05-.19-.24-.1-.48,.14-.67-.1v-.29c.19,0,.38,0,.48,.05q0-.24-.77-.19c.05-.14,.1-.24,.1-.29,.05-.1,.05-.19,.1-.29-.14,0-.24-.05-.34-.05,0,0-.05,.05-.14,.05v-.43c.29,.14,.48,.1,.58-.14-.05-.19-.1-.43,0-.62,.14-.24,.05-.48,0-.72-.1-.53-.24-1.1-.29-1.63-.05-.24,.05-.48,.05-.77,.24-2.06,.19-4.13,0-6.19-.05-.67-.05-1.3-.1-1.97-.05-.53-.1-1.01-.14-1.49-.14-1.73-.29-3.55-.38-5.38v-2.3c.05-1.68,0-3.41,.05-5.14,0-.24-.1-.34-.29-.53,.14-.05,.19-.05,.24-.05,0-.43,.05-.77,.05-1.1,0-.1-.1-.19-.14-.29,.29-.72,.19-1.44,.29-2.16,.05-.19,.05-.38,.1-.58,.05-.14,.14-.29,.29-.29,.24-.05,.29-.19,.38-.34,.05,0,.1-.05,.14-.1,.24-.05,.53-.19,.62-.43,.1-.14,.29-.1,.38,0,.05,.1,.14,.1,.29,.19,.1-.14,.14-.29,.19-.48,.19,.24,.1,.38,.14,.62,.1,.05,.19,.05,.29,.1,.14,.29,.24,.53,.1,.91-.1,.24-.1,.53-.1,.86,.1-.24,.24-.43,.43-.77,0,.24,0,.38,.05,.58,.19-.29,.29-.53,.38-.82,.14,.05,.34,.1,.53,.19-.1-.34,.19-.43,.34-.58,.05-.1,.19-.05,.34-.05,.05-.1,.1-.24,.19-.38,.14,.29,.29,.53,.34,.72,0,.24,.05,.38,.34,.48,0,.19-.05,.38,0,.58,.1,.24,.05,.53-.14,.72-.19,.14-.19,.34-.19,.53,0,.58-.05,1.1-.05,1.68,0,.19-.05,.34-.19,.48-.19,.19-.19,.48-.14,.72v1.58c0,.38,0,.77,.05,1.25,0-.1,.05-.19,.05-.29,.05,0,.1,.05,.14,.05,.05,.19,.1,.29,.1,.48,0,.86-.05,1.68-.05,2.54s.05,1.73,.1,2.59c0,.43,.05,.91-.05,1.34-.14,.58,.05,1.15,.05,1.73,0,.38,0,.72-.05,1.1,0,.43,0,.77,.14,1.1,.05-.14,.1-.29,.14-.48Zm-2.98-17.23c-.1-.19-.1-.29-.14-.43q-.1,.24,.14,.43Zm.86-1.54q.14,.24-.05,.62c-.1-.19-.14-.34-.24-.53,.1-.05,.19-.1,.29-.1Zm1.44,9.12v0Zm1.25-7.78c.1,.38,.05,.58-.29,.82,.1-.34,.19-.53,.29-.82Zm4.56,30.91q-.19,.24-.43,.1c.14-.05,.24-.05,.43-.1Zm.58,1.58c.34-.19,.53-.58,1.01-.34,.14,.29-.19,.29-.29,.48-.19-.05-.48-.05-.72-.14Z"/>
      <path class="cls-1" d="M205.61,24.36c-.24-.58-.1-1.1-.1-1.68,.14-.29,.1-.62,.05-.86,0-.1,0-.19,.05-.29,.05-.14,.19-.34,.34-.53,.29,.53,0,1.1,.14,1.68,.1-.24,.19-.38,.38-.72,.05,.24,.05,.38,.1,.48h.05c-.05-.38-.1-.72-.1-1.1,0-.34,.05-.72,.1-1.1,0,.05,.05,.1,.1,.14,.05-.24,.1-.53,.19-.77,.05,.19,.05,.29,.1,.43h.05c.14-.29,.24-.67,.34-.96h.1c.24,.72,.19,1.39,.34,2.06,.24-.05,.14-.19,.14-.34-.05-.24-.1-.48-.1-.72,.05-.19,.1-.34,.19-.62,.53,.43,.19,.91,.29,1.3,.48-.1,.62-.19,.58-.72-.05-.34,.05-.67,.29-.91,.19-.19,.24-.43,.34-.67,.14-.05,.24,.05,.24,.14,.05,.19,0,.34,.05,.43,0,.24,.05,.43,.05,.62t.1,.05c.05-.14,.1-.29,.19-.38,.24,.34,.24,.53-.05,.77-.14,.19-.14,.43-.1,.62,.1-.1,.19-.24,.29-.48,.05,.53,.1,.96,.1,1.39,0,.72,.24,1.3,.38,1.97,.1,.43,.24,.86,.29,1.3,.1,.82,.14,1.63,.19,2.45,.05,.48,.14,1.01,.19,1.54,.1,.82,.14,1.68,.24,2.5,0,.29,.1,.58,.1,.96,0,1.68-.05,3.36-.1,5.04v1.25c-.1,.86-.24,1.78-.34,2.64-.14,1.68-.34,3.41-.72,5.04-.14,.62-.24,1.2-.48,1.82-.14,.48-.38,.91-.62,1.34,0,.1-.1,.1-.14,.14-.05,0-.1,0-.14,.05-.14,.38-.34,.77-.48,1.15-.05,.1-.05,.29-.14,.38-.1,.1-.24,.14-.1,.24-.19,.19-.24,.38-.43,.48-.24,.05-.43,.1-.29,.38-.19,.19-.34,.38-.53,.53-.29,.24-.58,.34-.82,.53-.38,.29-.77,.48-1.15,.58-.19,.1-.53,.05-.77,.05-.29,0-.58,0-.77,.19-.05,.1-.19,.05-.29,.1-.19,.1-.43-.24-.58,.1-.24,0-.43,0-.62-.1-.29-.24-.58-.19-.91-.1-.34,.14-.62,.05-.96-.1-.29-.1-.53-.14-.82-.19-.14-.1-.34-.14-.43-.34-.24-.24-.53-.48-.86-.48-.1-.19-.14-.43-.24-.58l-.05-.05c-.43-.1-.48-.53-.72-.77-.14-.19-.34-.34-.43-.48-.19-.38-.29-.77-.43-1.15,0-.14-.05-.24-.05-.38-.05-.05-.1-.1-.1-.19-.1-.82-.38-1.58-.58-2.35-.38-1.44-.67-2.93-.86-4.42-.05-.58,0-1.25-.05-1.82-.05-.91-.19-1.82-.14-2.74,.05-1.97-.19-3.94-.24-5.9-.1-1.87-.24-3.79-.34-5.62-.1-1.44-.1-2.83-.1-4.22,0-.48,.05-1.01,.14-1.54,0-.1,.05-.19,.14-.34,.14,.19,.29,.34,.43,.53,.34-.29-.19-.53,.05-.82,.43,.19,.43,.24,.38,.67,0,.19,.05,.38,.05,.58h.1s.1-.14,.1-.24c0-.14-.05-.29-.05-.48,0-.38,.14-.58,.38-.58,.34-.05,.62,.19,.72,.53,0,.19,.05,.38,.05,.58h.1c.05-.19,.1-.34,.19-.58,.1,.14,.14,.19,.24,.34v-.14c.05-.24,.1-.58,.43-.67,.34,.24,.19,.58,.24,.86,.05,.34,0,.62,0,.96,.19-.29,.29-.53,.43-.77,.05-.19,.1-.38,.14-.58,0-.19,0-.38,.29-.43,.14,.29,.1,.62,.43,.86,.05-.19,.1-.38,.19-.62,.14,.38,.14,.72,.1,1.01-.05,.43,0,.86,.05,1.25,.29,1.34,.19,2.69,.24,4.03,.05,.34,.05,.62,.05,1.01-.14-.1-.19-.14-.29-.19,0,.38-.1,.67,.19,.91,.05,0,.05,.05,.05,.1,.1,.77,.38,1.54,.29,2.35-.1,.48-.19,.96-.24,1.49v.91c0,.34,.05,.67,.14,1.06,.05-.34,.1-.62,.14-.96,.05,.14,.1,.14,.1,.19,.05,.62,.05,1.2,.1,1.73,0,.38-.05,.82-.1,1.2,0,.19-.05,.48-.05,.67-.05,.48-.1,.96-.14,1.49-.1,.43,.1,.82,.14,1.25,.48,.34,.29,.82,.24,1.25,0,.62-.05,1.34,0,1.97,0,.29,.14,.58,.29,.82,.05,.29,.19,.48,.24,.77,.19,.62,.48,1.3,.38,1.92-.1,.53,.05,1.01,.29,1.44,.43,.77,.38,.82,1.44,.77,.77-.05,1.25-.38,1.63-1.06,.38-.62,.62-1.3,.77-2.02,.05-.82,.24-1.63,.38-2.45,.19-1.15,.38-2.3,.53-3.41h.29c-.38-1.06-.14-2.11-.14-3.17-.05-.43,0-.86,.05-1.3,0-.19,.05-.29,.14-.48,.05,.19,.05,.34,.1,.58h.1v-2.11c-.1,.29-.14,.58-.14,.96h-.14v-2.16c-.05-.72-.29-1.34-.14-2.11,.05,.38,.1,.77,.19,1.25,.19-.24,.19-.43,.19-.67-.1-.53-.14-1.06-.29-1.54,0,.14,0,.34-.05,.53-.19-.38-.24-.77-.29-1.1-.1-.67-.14-1.3-.19-1.97-.05-.43-.14-.82-.34-1.2-.29-.48-.38-.96-.43-1.58,.38,.19,.19,.67,.62,.82-.05-.19-.05-.24-.05-.38Zm-9.89-1.78c-.05,.14-.14,.24,0,.34q.1-.14,0-.34Zm3.36-.19c.05,.1,.05,.14,.05,.24h.05v-.24h-.1Zm1.06,16.85h-.05v-.24h.05v.24Zm.86,8.3c-.05-.1-.1-.14-.1-.24h-.1c.05,.14,.1,.19,.1,.29,.05,0,.05-.05,.1-.05Zm4.85-3.36c.05-.19,.05-.34,.1-.48,0-.14,0-.29,.05-.43h-.1c0,.14,.05,.29,.05,.43q-.24,.24-.1,.48Zm.14-18.77c-.05-.14-.05-.34-.1-.58-.24,.48-.1,.86,.19,1.1,0-.14-.05-.34-.1-.53Zm.82-4.75s-.1,.1-.14,.19c0,0,0,.05,.05,.19,.14-.14,.24-.24,.1-.38Zm1.54-1.49h-.05c0-.1,.05-.19,.05-.24h.1c-.05,.1-.05,.14-.1,.24Zm.77,18.15v1.01c.14-.58,.14-.67,0-1.01Z"/>
      <path class="cls-1" d="M230.86,30.6l-.05,.1c-.24,.05-.24,.29-.29,.48-.19-.48,.29-.82,0-1.25-.14,.24-.29,.48-.38,.67,0-.19-.1-.38-.19-.58-.05,.29,0,.43,.19,.58-.1,.38-.38,.43-.62,.48-.24-.1,.1-.48-.34-.48,0,.19-.05,.38-.05,.67-.14-.38-.29-.72-.43-1.1-.24,.14-.05,.48-.19,.77-.14-.34-.24-.62-.29-.91-.1,0-.24,0-.38,.05,0,.34-.05,.72-.05,1.1-.34-.19-.24-.48-.19-.67-.24-.24-.38-.43-.67-.72,.05,.24,.05,.38,.05,.58h-.05v-.38c-.05-.14-.05-.24-.1-.34-.1,.29-.05,.58,0,.96,0,.05,.05,.14,.05,.24s-.1,.19-.14,.19-.19,0-.24-.1v-.24c-.05-.19-.1-.48-.1-.67h-.29c0,.1-.05,.14-.05,.24t-.1-.05c-.05-.34-.14-.67-.19-.96,0-.14,0-.24,.05-.34,.19-.19,.19-.48,.19-.72-.05-.38,0-.77,.05-1.15,0,.1,.05,.19,.14,.34,.1-.38,.05-.77-.05-1.1-.05-.48-.1-.96-.14-1.39s-.34-.77-.53-1.15c-.24-.24-.62-.29-.91-.05-.24,.1-.38,.29-.62,.43-.14,.1-.43,.19-.58,.38-.34,.19-.58,.43-.82,.67-.24,.24-.38,.43-.58,.67-.05,.1-.1,.19-.1,.34,.1,0,.19,0,.29,.05,0,.34-.24,.62-.43,.91-.19,.43-.48,.82-.67,1.3-.24,.62-.48,1.3-.62,1.97-.19,.72-.29,1.44-.43,2.11-.05,.19,0,.38-.29,.43-.05,.05-.14,.14-.14,.19-.05,.38-.19,.72-.19,1.1,.05,1.1,0,2.21-.24,3.26v.82c-.05,.14,0,.38-.19,.53-.05,.05,0,.19,0,.29,.1,.53,.24,1.1,.29,1.68,.1,.67,.19,1.39,.24,2.06,0,.34-.05,.72-.1,1.1,.38,.43,.24,.96,.38,1.49,.14,.48,.14,1.01,.19,1.54h-.24c.1,.62,.48,1.06,.91,1.44,.1,.05,.24,.14,.24,.24,.43,.48,.96,.86,1.54,1.15,.29,.19,.62,.29,1.01,.38,.24,.1,.48-.1,.58-.29,.38-.58,.67-1.15,.82-1.73,.19-.58,.34-1.2,.43-1.78,0-.1,.1-.19,.14-.29,.05-.1,.14-.24,.14-.34-.05-.38-.1-.82-.14-1.2-.24-.1-.53-.14-.77-.19,.1-.1,.14-.14,.24-.29-.24,0-.43-.05-.62-.05v-.1c.1,0,.19,0,.43-.1q-.14-.05-.19-.05c-.48-.05-.96-.1-1.44-.24h.82v-.05h-.24c-.19,0-.38,0-.53-.19-.05-.05-.14-.05-.24-.1-.19-.05-.38-.05-.58-.14h1.1l.05-.05c-.1-.05-.14-.1-.24-.1-.34-.05-.67-.14-1.01-.19-.14-.05-.29-.1-.43-.1v-.14c.58-.1,1.15-.24,1.73-.34-.14-.34-.38-.38-.62-.38-.19,0-.38,.05-.43-.19,.1-.14,.19-.24,.29-.38,.38-.1,.82,0,1.2-.29h-.29c-.29,.05-.58,0-.82,0-.34-.1-.67-.14-1.06-.24-.24-.05-.43-.14-.67-.19,0-.19,.05-.34,.24-.34,.24,.05,.48,.05,.86,.05,0,0,.1-.1,.19-.14-.24-.05-.53-.1-.77-.19,.05-.1,.1-.14,.14-.14,.62-.05,1.3-.1,1.92-.14,.67-.05,1.39-.1,2.11-.14,.05,0,.14-.05,.19-.1,.1-.14,.19-.14,.34-.05,.05,0,.05,.05,.1,.05,.77,0,1.54,.05,2.3,.05,.34,0,.58,0,.77-.38,.05,.19,.14,.34,.19,.48,.43,0,.48,.05,.77,.29-.05,.05-.1,.05-.14,.1,0,.1-.05,.14-.05,.19,.05,.05,.14,.1,.14,.1,.1,.05,.14,0,.24,0,.34-.05,.48,.14,.34,.48-.05,.1-.05,.19-.05,.29h.38s.1,.05,.1,.1v.19c-.24,.05-.58,.1-.86,.14,0,.14,0,.34,.05,.53,.14,0,.24-.05,.48-.1-.1,.14-.14,.24-.19,.29-.24,.14-.24,.34-.19,.62,.1,.38,.14,.82,.14,1.2,.1,.48,0,.96,0,1.49,0,.48-.05,.96-.14,1.44-.05,.34-.19,.67-.29,1.01-.1,.62-.19,1.2-.34,1.73-.1,.43-.24,.82-.38,1.15-.38,.77-.72,1.54-1.25,2.26-.29,.34-.62,.67-.96,1.01-.24,.34-.58,.53-.96,.77-.29,.14-.67,.24-1.06,.38-.48,.14-1.06,.14-1.54,.34-.38,.14-.77,.1-1.1,0-.19,0-.38-.24-.58-.29-.05-.05-.24-.14-.29-.1-.19,.14-.43,.05-.62-.05-.34-.1-.62-.24-.96-.29-.29-.1-.48-.19-.62-.43-.05-.05-.1-.14-.14-.19-.43-.24-.86-.38-1.3-.62-.24-.1-.48-.29-.72-.48-.58-.62-1.1-1.2-1.63-1.78-.24-.34-.38-.62-.48-1.01-.05-.29-.19-.58-.24-.86-.19-.58-.38-1.15-.48-1.78-.34-1.58-.53-3.22-.72-4.8-.05-.96-.14-1.87-.19-2.78-.05-.82,.05-1.58,.05-2.35,0-.48,0-1.01,.05-1.49,.19-1.39,.43-2.83,.62-4.32,.14-.82,.29-1.63,.48-2.4,.24-1.1,.67-2.11,1.06-3.17,.05-.05,.05-.1,.05-.14,.38-.14,.34-.53,.43-.77,.1-.53,.29-.96,.62-1.39,.1-.1,.19-.24,.24-.34,.24-.82,.72-1.44,1.25-2.06,.43-.53,.91-.96,1.39-1.39,.38-.38,.91-.62,1.34-1.01,.58-.48,1.2-.53,1.92-.72,.38-.05,.72-.19,1.1-.29,.14,0,.24-.05,.34,0,.24,.05,.43,.19,.67-.05,.38,.1,.86,0,1.2,.29,.24,.14,.43,.19,.67,.24s.48,.14,.72,.24c.1,0,.14,.05,.14,.1,.1,.34,.43,.38,.67,.58,.43,.24,.82,.62,.91,1.15,.1,.24,.19,.43,.43,.58,.24,.19,.43,.58,.24,.96,.19,.24,.53,.34,.53,.82-.14-.14-.29-.29-.48-.34,0,.38,.24,.62,.48,.82,.19,.1,.24,.14,.24,.29,.05,.24,.05,.38,.05,.62,.05,.86,.1,1.73,.14,2.59,0,.72,0,1.44-.14,2.21v.14c-.19,.05-.38,.1-.53,.14,.05-.19,.1-.34,.1-.53s.05-.43-.14-.67c-.1,.48,.05,.86,.05,1.2,.19,.29,.14,.62,.14,1.01Zm-7.3,13.49v.1c-.1,0-.24-.05-.34-.05v-.05h.34Zm1.2-2.35c-.24,.05-.43,.1-.53,.1,.14,.05,.38,.19,.53-.1Zm.86,1.78h0Zm.91-15.07c0,.1,.05,.24,.05,.38,.05,0,.1,0,.1-.05,0-.1-.05-.24-.1-.34h-.05Zm1.39,2.11h.14v.43h-.14v-.43Zm1.78-.86c-.05,.14-.05,.29-.1,.48q.14-.29,.1-.48Zm.38,10.51q0-.1-.05-.19c0-.1-.05-.24-.14-.14-.05,0-.1,.14-.05,.24,0,.05,.1,.1,.14,.14,0,0,.05-.05,.1-.05Zm.34,2.69s-.05-.14-.05-.19h-.05v.19h.1Zm.62-13.01h.05v.34h-.05v-.34Z"/>
      <path class="cls-1" d="M245.54,17.64s.1-.1,.19-.14c.1,.24,.14,.53,.24,.82,.19-.14,.29-.24,.19-.43-.05-.19,0-.29-.05-.48,0-.19,.1-.34,.29-.34-.1-.29-.14-.58-.24-.82,0-.05,.05-.05,.05-.05,.05,.05,.19,.1,.19,.14,.05,.1,.1,.29,.14,.43,.05,.14,.1,.29,.14,.43q.14-.1,.14-.82c.1,.19,.14,.34,.19,.38,.14,.34,.24,.58,.34,.86,.05,.1,.05,.29,.14,.43,.1,.29,.19,.48,.34,.82,.19-.19,.29-.34,.43-.48,.14,.1,.24,.1,.29,.19,.24,.19,.34,.19,.53,0,.14-.1,.24-.14,.34-.29,.29,.19,.38,.53,.48,.82,.1,.24,.19,.48,.53,.58-.05-.34-.1-.58-.14-.82,.34,.19,.43,.48,.48,.82,.29,1.15,.53,2.26,.82,3.41,.1,.58,.19,1.2,.29,1.87,.14,.86,.14,1.73,.38,2.64,.05,.24-.14,.34-.29,.38,.05,.19,.05,.34,.05,.53,.05-.1,.1-.1,.14-.19,0-.05,0-.14,.1-.19,.05,.19,.14,.34,.19,.58,.19,1.25,.43,2.5,.58,3.74,.1,.72,.14,1.44,.29,2.11,0,.67,.14,1.34,.29,2.02,.05,.38,.1,.77-.14,1.1-.05,.14-.05,.34-.05,.48,.05,.43,.1,.82,.34,1.2-.05-.24-.05-.53-.1-.77,.29,.19,.34,.53,.38,.77,.1,.48,.1,.91,.14,1.39,.05,.82,.19,1.63,.29,2.5-.05-.05-.1-.05-.14-.1-.05,0-.1,.05-.1,.05,.05,.72,.05,1.44,.1,2.11,0,.29,.14,.53,.29,.77-.05-.29-.05-.53-.1-.82,.29,.24,.29,.58,.38,.86,.1,.29,.14,.58,.24,.86,.14,.53,.29,1.01,.43,1.54,0,.14,.05,.24,0,.38-.14,.62,0,1.1,.19,1.73,.1,.38,.19,.82,.29,1.2,.05,.29,.05,.48,.05,.77,.14,.1,.24,.29,.19,.48-.1,.14-.34,.24-.53,.38t.1,.05c.05,.19,.05,.34-.14,.38-.14,.1-.24,0-.29-.1-.1-.19-.19-.34-.38-.38-.05,.14-.05,.34-.14,.43-.1,.05-.24,.05-.38,.1,0,.1,0,.19,.05,.34-.05-.05-.1-.05-.1-.1-.1-.19-.14-.34-.38-.34-.05,.1-.05,.24-.05,.48-.19-.19-.29-.34-.48-.48-.05,.14-.14,.34-.19,.48-.05-.1-.14-.19-.19-.29h-.05c0,.14,.05,.29,.14,.43-.34-.05-.38-.29-.58-.48-.14,.05-.24,.1-.38,.14-.05-.1-.1-.19-.14-.24-.05-.05-.14-.1-.14-.14-.05,.1-.14,.14-.14,.19,0,.1,.05,.19,.1,.29,.05,.1,.05,.24,.1,.38l-.05,.05c-.19-.19-.43-.34-.58-.53-.24-.19-.24-.53-.58-.62,0,.19,.05,.38,.05,.53-.34,.05-.43,0-.43-.29-.05-.34-.1-.67,0-1.01,.1-.19,.24-.53-.19-.67v-.29c0-1.3-.43-2.5-.62-3.79-.14-.67-.24-1.44-.38-2.16-.14-1.01-.29-2.02-.38-3.07-.19-1.1-.34-2.26-.48-3.41q-.05-.34-.38-.29c-1.3,.14-2.54,.19-3.84,.38-.34,.05-.67,0-.96,.19,0,0-.1,0-.14-.05-.24-.05-.48-.05-.72-.1,.05,.1,.05,.14,.1,.24-.38-.1-.67-.14-.96-.24-.1,.29-.19,.62-.29,1.01-.05,.53-.24,1.1-.34,1.68-.1,.48-.1,1.06-.24,1.63-.1,.58-.24,1.1-.34,1.68-.1,.29-.14,.62-.24,1.06-.24-.14-.34,0-.38,.19,0,.14-.05,.29-.05,.48-.1,.38-.14,.77-.19,1.15-.05,.19-.05,.34-.1,.67,.14-.14,.29-.24,.48-.34,0,.58,.05,1.15,.05,1.68,0,.34,0,.67-.38,.96v-.48c-.14,.38-.43,.77-.24,1.2-.19,.24,0,.53,0,.72,.05,.24-.05,.43-.1,.67-.1-.14-.14-.24-.24-.43-.1,.43-.19,.77-.24,1.1h.38c.1,.14,.19,.19,.34,.38-.34,.34-.82,.19-1.3,.29,.1,.14,.19,.24,.34,.38-.24,0-.34,0-.48-.19-.05-.05-.19-.05-.29-.1v-.38c-.29-.1-.34-.24-.24-.53v-.38h-.1c0,.19-.05,.34-.1,.53,0,.24-.05,.53-.24,.72-.1,.14-.14,.34-.29,.58-.05-.19-.05-.43-.1-.43-.19-.05-.14-.29-.38-.38,0,.1-.05,.19-.05,.29-.05,.1-.14,.24-.14,.24-.24-.05-.19,.1-.24,.24-.05,.1-.1,.19-.19,.24-.29-.05-.43-.34-.62-.58-.05,.1-.1,.14-.14,.14,0-.43-.58-.24-.62-.67,.34-.29,.86-.58,.62-1.34-.24,.53-.38,1.01-.86,1.3-.1-.05-.29-.14-.48-.14-.05-.19-.05-.43-.05-.58,0-.29-.05-.38-.38-.38,.1-.24,.14-.38,.19-.62,.05-.14,.1-.34,.14-.53,.05-.14,.05-.38,.1-.48,.38-.43,.48-.96,.58-1.54,.14-.58,.19-1.15,.24-1.78,.14-1.39,.34-2.74,.67-4.08,.19-.86,.29-1.73,.43-2.59,.1-.58,.19-1.1,.29-1.68,.29-1.15,.48-2.35,.72-3.5,.14-1.01,.29-2.02,.48-2.98,.29-1.73,.62-3.46,1.1-5.18,.19-.86,.34-1.73,.53-2.59,.1-.86,.29-1.73,.48-2.59,.1-.67,.24-1.3,.43-2.02,.1-.58,.24-1.1,.34-1.68,.05-.29,0-.62,.05-.91,0-.24,.05-.58,.1-.86,.19,.24,.58,.29,.48,.72,.38-.38,.38-.86,.19-1.44,.05,0,.05-.05,.1-.05,.24-.05,.48,.29,.67,.24,.29-.05,.48,.05,.72,.14,0-.05,.1-.1,.14-.19,.14,.29,.34,.34,.58,.29,.29,.24,.1,.58,.14,.86,.58-.1,.34-.67,.58-.86,.38,.38,.86,.53,1.49,.43-.05-.24-.05-.38-.05-.62,.1,.05,.14,.14,.19,.19q.14,.29,.38,.14Zm-10.18,35.09s-.05,.05-.05,.1c-.05,.14,.05,.24,.14,.1,0-.05-.05-.14-.05-.24l-.05,.05Zm2.78-11.14c.1-.53,.19-1.01,.34-1.44-.29,.38-.43,1.06-.34,1.44Zm2.11-24.05s.1-.05,.1,0c.1,.1,.1,.14,0,.24-.14-.1-.19-.14-.1-.24Zm2.26,14.31c-.24,.34-.29,.72-.24,1.1,.14-.38,.24-.72,.29-1.06-.05,0-.05-.05-.05-.05Zm.82-2.11c-.19,.82-.48,1.54-.62,2.26-.14,.67-.14,1.3-.19,1.97t.05,.1c1.34,0,2.69-.43,4.03-.29-.38,.14-.72,.19-1.1,.24-.91,.05-1.82,.14-2.74,.24-.1,0-.19,.05-.24,.1v.1c.29,0,.58,0,.86-.05,.77-.05,1.54-.14,2.26-.24,.34,0,.67-.05,.96-.1,.29,0,.58-.1,.86-.14v-.1c-.19-.05-.29-.1-.48-.14v-.05c.14-.05,.29-.1,.43-.1,0-.14-.05-.29,.05-.29,.19-.1,.14-.29,.14-.48-.19-.82-.34-1.58-.48-2.4-.1-.62-.24-1.3-.29-1.92-.14-1.34-.38-2.74-.62-4.08-.05-.19-.14-.29-.34-.29-.38-.05-.82-.1-1.25-.14-.14,0-.29,.05-.34,.19-.05,.14-.1,.38-.1,.53,.05,.58-.14,1.1-.19,1.63,0,.14-.05,.38-.19,.43-.48,.48-.38,1.15-.53,1.73h.29c-.1,.43-.14,.86-.24,1.3Zm-.77-12.05q-.05,.34,0,.67c.24-.34,.24-.38,0-.67Zm1.06,10.22h.1c-.05,.14-.1,.34-.14,.53,0-.19,0-.38,.05-.53Zm.43-4.03c-.05,.24-.1,.43-.14,.67v.38h.1c-.05-.14-.1-.29-.1-.43,.19-.19,.19-.24,.14-.62Zm.29-6.34s-.05-.05-.05-.1,.05-.1,.1-.1,.1,0,.14,.05c0,.05-.05,.05-.05,.1-.05,0-.1,.05-.14,.05Zm.77,1.15v-.19s-.05,.1-.1,.14t.1,.05Zm.05-1.49q.1,.19,0,.29v-.29Zm1.25,.53c.1,.34,.24,.62,.34,.96,.34-.1,.38-.14,.29-.38-.1-.14-.14-.29-.24-.43-.05-.1-.14-.14-.24-.24-.05,.05-.1,.05-.14,.1Zm4.66,6.67c-.05-.29-.05-.53-.1-.77-.05,.05-.1,.05-.1,.05,.05,.19,.05,.43,.14,.72h.05Zm.34-.62c0,.34,.05,.62,.05,.91,0,.34,.05,.72,.05,1.06h.1c0-.19,.05-.38,0-.58,0-.14,.05-.38-.14-.48,.14-.29,.14-.58-.05-.91Zm.34,2.88v.24h.05v-.24h-.05Zm.38,2.16v0Zm.77,23.28c-.14,.24-.38,.53-.29,.86,.1-.34,.29-.53,.29-.86Zm.29-.67c-.1-.24,.14-.53-.1-.82-.19,.43-.19,1.01,.24,1.63,.19-.34-.05-.53-.14-.82Zm.34,2.11c.1-.1,.14-.19,.24-.34-.05,0-.1,0-.1-.05-.1,.14-.14,.24-.24,.34t.1,.05Zm1.1-1.2v-.14s-.19-.05-.34-.14c.05,.29,.14,.34,.34,.29Zm.1-1.92s-.1,.1-.1,.19c-.05,.1-.05,.14-.1,.29q.24-.19,.19-.48Zm.34-.91v1.06c.24,0,.43-.1,.43-.29,0-.29,0-.62-.29-.77h-.14Z"/>
      <path class="cls-1" d="M262.54,54.36h-.05v-.62c-.1,.05-.14,.05-.14,.05-.19-.29-.29-.58-.43-.86-.05,0-.1,0-.1,.05-.05,.19-.05,.43-.1,.72-.19-.14-.05-.29-.19-.48-.05,.05-.14,.1-.24,.14-.05-.05-.05-.14-.1-.24-.05,.53-.1,1.01-.14,1.49h-.1c-.05-.14-.05-.24-.1-.43-.05,.14-.05,.19-.05,.24-.43-.24-.19-.72-.29-1.01-.14,.24-.29,.58-.53,.96-.05-.14-.1-.29-.19-.43-.1,.14-.19,.24-.29,.34v-.67s-.1-.05-.19-.1c-.19,.53,.1,1.1-.14,1.63,0-.1-.05-.19-.05-.29-.05-1.06-.19-2.16-.24-3.22,0-1.2-.1-2.45-.14-3.65v-1.1c-.05-.77-.1-1.58-.1-2.35v-2.54c-.05-1.58-.1-3.17-.14-4.8,0-1.39-.1-2.69-.1-3.98-.05-1.25-.05-2.45,0-3.6,0-.62,.05-1.15,.1-1.78,.1-1.01,.19-1.97,.29-2.93,.1-.34,.14-.72,.24-1.06,.05-.29,.05-.58,0-.91,0-.05-.05-.1,0-.14,.19-.38,0-.82,0-1.25,0-.58,.05-.62,.53-.82,.05-.05,.1-.05,.1-.05-.1,.48,.19,.86,.1,1.34h.14c0-.24,.05-.48,.05-.67,0-.24,.05-.38,.24-.53,.58-.34,1.1-.62,1.78-.77-.24-.24-.43-.14-.67-.1-.14,.1-.43,.14-.62,.14,1.01-.72,2.21-1.1,3.5-1.15-.14,.34-.43,.29-.67,.43,.38,.14,.77,0,1.15-.14-.14-.1-.19-.19-.29-.24,0-.34,.24-.48,.53-.48,.34-.14,.67-.19,1.1-.29,0,0,.14,.1,.24,.1-.1,.1-.14,.19-.24,.34,.43,.34,.86,.34,1.39,.29h.43c-.19-.29-.43-.34-.62-.34-.05,0-.05,.05-.1,.1,.1,.1,.19,.14,.29,.24-.1-.05-.14-.05-.24-.14-.24-.14-.38-.29-.62-.43,.14-.14,.34-.14,.53-.14,.67,.14,1.2,.34,1.68,.82h.05c.67,.43,1.15,1.1,1.58,1.78,.19,.29,.29,.72,.58,.91,.19,.14,.38,.29,.62,.38-.29-.38-.77-.62-.86-1.25l.24,.24c.19,.14,.34,.29,.53,.43,.14,.19,.34,.38,.53,.58,.05,.1,.19,.14,.34,.24,.1,.1,.14,.19,.14,.34,.05,0,0,.1-.1,.14,.38,.48,.67,1.06,.82,1.73,.05,.34,.19,.62,.34,.96,.05-.05,.1-.05,.14-.1,.1,.58,.24,1.15,.38,1.73-.1-.43,.05-.86-.14-1.3-.14-.34-.14-.77-.14-1.15,.29,.29,.43,.67,.43,1.06-.05,.48,.14,.91,.24,1.34,.05,.1,.14,.24,.14,.43,.05,.77,.1,1.49-.1,2.26-.14,.38-.14,.82-.19,1.2-.05,.05-.1,.24-.1,.34-.1,.14-.1,.34-.1,.58,.05,.29-.1,.62-.24,.91-.19,.58-.53,1.15-.72,1.68-.48,1.1-1.06,2.16-1.78,3.02-.1,.14-.19,.24-.38,.34,0-.14,0-.24,.05-.34-.05,0-.1-.05-.14,0-.14,.1-.38,.29-.58,.43,.48,.72,.91,1.34,1.3,2.06,.29,.43,.43,.91,.62,1.34-.14-.1-.29-.14-.48-.24,.05,.1,.1,.29,.19,.38,.29,.34,.48,.72,.62,1.15,.1,.19,.19,.43,.34,.62-.05-.38-.19-.72-.29-1.1,.62,.77,.96,1.68,1.15,2.69,.1,.77,.19,1.54,.19,2.35-.05,.53,.05,1.1,.05,1.58,0,.38,.05,.77-.29,1.01-.1,.1-.1,.24-.1,.34-.05,.72-.05,1.34-.1,2.06h-.19c0,.14,0,.34-.05,.48h-.1c-.1-.24-.14-.48-.24-.82h-.05c0,.29,0,.58-.05,.91-.1-.14-.14-.24-.19-.34-.24,0-.24,.19-.24,.34v1.1c-.1-.05-.14-.1-.24-.14-.05,.34-.14,.62-.53,.77,.14-.53-.05-.91-.34-1.3-.1,0-.19,.05-.34,.05v1.78c-.24-.05-.19-.24-.24-.38-.1-.14-.24-.29-.34-.38-.1-.14-.1-.34-.19-.53-.05,.14-.05,.19-.1,.34h-.34s-.1,.1-.05,.14c0,.14,0,.38,.1,.53,.24,.29,.05,.53,.1,.91-.14-.05-.24-.05-.29-.14-.1-.24-.19-.43-.24-.72-.05-.19-.14-.43-.34-.58-.24-.29-.24-.72-.29-1.06-.14-.77-.19-1.54-.29-2.3-.05-.38,.05-.77,.05-1.1,.1-1.1,.05-2.21-.14-3.31-.1-.43-.19-.91-.38-1.3-.34-.82-.77-1.58-1.2-2.4-.19-.29-.43-.48-.67-.72-.48-.43-1.01-.48-1.68-.1-.14,.1-.29,.19-.48,.29-.05-.14-.1-.24-.14-.38-.05,.05-.1,.05-.1,.1-.05,.48-.1,.91-.05,1.39,0,.43,.05,.86,.14,1.34,0-.14,0-.24,.05-.48,.05,.14,.1,.24,.1,.29,.14,1.3,.24,2.64,.34,3.94v1.2c0,.14,0,.34-.19,.43,0-.19-.05-.43-.1-.62-.19,.38-.19,.72-.19,1.1s.05,.77-.24,1.01c-.14,.1-.14,.24-.19,.43-.05-.14-.14-.19-.19-.24-.05,.34-.1,.62-.1,.96,0,.29-.1,.43-.38,.48v.43c-.05,.29-.14,.53-.19,.77Zm-2.93,.62h.05v.34h-.05v-.34Zm.43-34.61h.1c-.05,.1-.05,.19-.05,.29-.05-.05-.1-.05-.14-.05,.05-.1,.05-.14,.1-.24Zm2.06,33.6c0,.38,0,.67-.14,.91-.14-.29-.1-.53,.14-.91Zm.67-.05h-.05v-.34c0,.14,.05,.24,.05,.34Zm.77-.58c-.14-.24-.14-.72-.1-1.06,.14,.38,.1,.72,.1,1.06Zm.14-23.62c-.05,.14-.14,.29-.14,.43-.05,.82-.05,1.58-.1,2.35,0,.1,.05,.19,.05,.24,0,.38,.1,.77,.05,1.06-.14,.58,.05,1.1,.1,1.68,.05-.58-.05-1.1,.19-1.68,0,.67,.1,1.39,.19,2.11,.29-.05,.62-.14,.86-.14,.48-.19,.86-.48,1.2-.82,1.34-1.34,2.26-2.98,2.69-4.8,.19-.77,.19-1.49,.1-2.26-.1-.58-.24-1.1-.67-1.54-.24-.29-.48-.58-.72-.91-.29-.34-.62-.67-.96-1.01-.19-.24-.53-.34-.82-.14-.14,.05-.38,.1-.58,.1-.1,.05-.29,.05-.43,.1-.19,.05-.34,.14-.34,.34,0,.58-.24,1.1-.24,1.73-.05,.96-.14,1.92-.24,2.88-.05,.1-.05,.24-.05,.29h-.14Zm.14,22.75q-.1-.24,0-.53v.53Zm0-6.91v-.24h-.05v.24h.05Zm.1,2.3v.43h.05v-.43h-.05Zm5.04,6.86c.29,.05,.34,.24,.19,.48-.1-.19-.14-.34-.19-.48Zm1.1-2.5c-.1,.29-.24,.53,0,.82,.19-.24,.24-.53,0-.82Zm2.02-16.85c-.05,.19-.05,.34-.05,.38-.05,.1-.1,.19-.14,.29,0,.05,.05,.05,.1,.05,0-.1,0-.19,.05-.34q.29-.1,.05-.38Zm0,17.14v-.34h-.05v.34h.05Zm.1-18.96c.34-.38,.53-.77,.62-1.25-.34,.1-.48,.43-.62,1.25Zm.19,8.07c-.19-.05-.19-.19-.14-.29,.05,.1,.1,.19,.14,.29Zm.58-7.68c-.05,.14-.29,.34-.24,.58-.1,.05-.14,.14-.1,.29,.14-.05,.14-.19,.1-.29,.24-.1,.24-.38,.24-.58Zm0-10.8c-.34,0-.14-.24-.19-.34h.1c.05,.1,.05,.19,.1,.34Zm.14,10.61c.1-.14,.19-.19,.24-.24-.29-.1-.34,0-.24,.24Zm.43-9.31c-.1-.19-.14-.34-.19-.58,.29,.14,.34,.24,.43,.82-.05-.1-.19-.14-.24-.24Zm.29,7.2c-.1,.29-.38,.62-.24,1.06,.29-.62,.34-.77,.24-1.06Zm.19-.38c0-.14,0-.29,.05-.43h-.1v.43h.05Z"/>
    </g>
  </g>
</svg>