<?xml version="1.0" encoding="UTF-8"?>
<svg id="Layer_2" data-name="Layer 2" xmlns="http://www.w3.org/2000/svg" viewBox="0 0 258.25 41.89">
  <defs>
    <style>
      .cls-1 {
        fill: #476dad;
      }
    </style>
  </defs>
  <g id="Layer_1-2" data-name="Layer 1">
    <g>
      <path class="cls-1" d="M17.72,14.96l-.05,.1c-.25,.05-.25,.3-.3,.5-.2-.5,.3-.85,0-1.3-.15,.25-.3,.5-.4,.7,0-.2-.1-.4-.2-.6-.05,.3,0,.45,.2,.6-.1,.4-.4,.45-.65,.5-.25-.1,.1-.5-.35-.5,0,.2-.05,.4-.05,.7-.15-.4-.3-.75-.45-1.15-.25,.15-.05,.5-.2,.8-.15-.35-.25-.65-.3-.95-.1,0-.25,0-.4,.05,0,.35-.05,.75-.05,1.15-.35-.2-.25-.5-.2-.7-.25-.25-.4-.45-.7-.75,.05,.25,.05,.4,.05,.6h-.05v-.4c-.05-.15-.05-.25-.1-.35-.1,.3-.05,.6,0,1,0,.05,.05,.15,.05,.25s-.1,.2-.15,.2-.2,0-.25-.1v-.25c-.05-.2-.1-.5-.1-.7h-.3c0,.1-.05,.15-.05,.25t-.1-.05c-.05-.35-.15-.7-.2-1,0-.15,0-.25,.05-.35,.2-.2,.2-.5,.2-.75-.05-.4,0-.8,.05-1.2,0,.1,.05,.2,.15,.35,.1-.4,.05-.8-.05-1.15-.05-.5-.1-1-.15-1.45-.05-.45-.35-.8-.55-1.2-.25-.25-.65-.3-.95-.05-.25,.1-.4,.3-.65,.45-.15,.1-.45,.2-.6,.4-.35,.2-.6,.45-.85,.7-.25,.25-.4,.45-.6,.7-.05,.1-.1,.2-.1,.35,.1,0,.2,0,.3,.05,0,.35-.25,.65-.45,.95-.2,.45-.5,.85-.7,1.35-.25,.65-.5,1.35-.65,2.04-.2,.75-.3,1.5-.45,2.19-.05,.2,0,.4-.3,.45-.05,.05-.15,.15-.15,.2-.05,.4-.2,.75-.2,1.15,.05,1.15,0,2.29-.25,3.39v.85c-.05,.15,0,.4-.2,.55-.05,.05,0,.2,0,.3,.1,.55,.25,1.15,.3,1.75,.1,.7,.2,1.45,.25,2.14,0,.35-.05,.75-.1,1.15,.4,.45,.25,1,.4,1.55,.15,.5,.15,1.05,.2,1.6h-.25c.1,.65,.5,1.1,.95,1.5,.1,.05,.25,.15,.25,.25,.45,.5,1,.9,1.6,1.2,.3,.2,.65,.3,1.05,.4,.25,.1,.5-.1,.6-.3,.4-.6,.7-1.2,.85-1.79,.2-.6,.35-1.25,.45-1.84,0-.1,.1-.2,.15-.3,.05-.1,.15-.25,.15-.35-.05-.4-.1-.85-.15-1.25-.25-.1-.55-.15-.8-.2,.1-.1,.15-.15,.25-.3-.25,0-.45-.05-.65-.05v-.1c.1,0,.2,0,.45-.1q-.15-.05-.2-.05c-.5-.05-1-.1-1.5-.25h.85v-.05h-.25c-.2,0-.4,0-.55-.2-.05-.05-.15-.05-.25-.1-.2-.05-.4-.05-.6-.15h1.15l.05-.05c-.1-.05-.15-.1-.25-.1-.35-.05-.7-.15-1.05-.2-.15-.05-.3-.1-.45-.1v-.15c.6-.1,1.2-.25,1.8-.35-.15-.35-.4-.4-.65-.4-.2,0-.4,.05-.45-.2,.1-.15,.2-.25,.3-.4,.4-.1,.85,0,1.25-.3h-.3c-.3,.05-.6,0-.85,0-.35-.1-.7-.15-1.1-.25-.25-.05-.45-.15-.7-.2,0-.2,.05-.35,.25-.35,.25,.05,.5,.05,.9,.05,0,0,.1-.1,.2-.15-.25-.05-.55-.1-.8-.2,.05-.1,.1-.15,.15-.15,.65-.05,1.35-.1,2-.15,.7-.05,1.45-.1,2.19-.15,.05,0,.15-.05,.2-.1,.1-.15,.2-.15,.35-.05,.05,0,.05,.05,.1,.05,.8,0,1.6,.05,2.39,.05,.35,0,.6,0,.8-.4,.05,.2,.15,.35,.2,.5,.45,0,.5,.05,.8,.3-.05,.05-.1,.05-.15,.1,0,.1-.05,.15-.05,.2,.05,.05,.15,.1,.15,.1,.1,.05,.15,0,.25,0,.35-.05,.5,.15,.35,.5-.05,.1-.05,.2-.05,.3h.4s.1,.05,.1,.1v.2c-.25,.05-.6,.1-.9,.15,0,.15,0,.35,.05,.55,.15,0,.25-.05,.5-.1-.1,.15-.15,.25-.2,.3-.25,.15-.25,.35-.2,.65,.1,.4,.15,.85,.15,1.25,.1,.5,0,1,0,1.55,0,.5-.05,1-.15,1.5-.05,.35-.2,.7-.3,1.05-.1,.65-.2,1.25-.35,1.79-.1,.45-.25,.85-.4,1.2-.4,.8-.75,1.6-1.3,2.34-.3,.35-.65,.7-1,1.05-.25,.35-.6,.55-1,.8-.3,.15-.7,.25-1.1,.4-.5,.15-1.1,.15-1.6,.35-.4,.15-.8,.1-1.15,0-.2,0-.4-.25-.6-.3-.05-.05-.25-.15-.3-.1-.2,.15-.45,.05-.65-.05-.35-.1-.65-.25-1-.3-.3-.1-.5-.2-.65-.45-.05-.05-.1-.15-.15-.2-.45-.25-.9-.4-1.35-.65-.25-.1-.5-.3-.75-.5-.6-.65-1.15-1.25-1.7-1.84-.25-.35-.4-.65-.5-1.05-.05-.3-.2-.6-.25-.9-.2-.6-.4-1.2-.5-1.85-.35-1.65-.55-3.34-.75-4.99-.05-1-.15-1.94-.2-2.89-.05-.85,.05-1.65,.05-2.44,0-.5,0-1.05,.05-1.54,.2-1.45,.45-2.94,.65-4.49,.15-.85,.3-1.7,.5-2.49,.25-1.15,.7-2.19,1.1-3.29,.05-.05,.05-.1,.05-.15,.4-.15,.35-.55,.45-.8,.1-.55,.3-1,.65-1.45,.1-.1,.2-.25,.25-.35,.25-.85,.75-1.5,1.3-2.14,.45-.55,.95-1,1.45-1.45,.4-.4,.95-.65,1.4-1.05,.6-.5,1.25-.55,2-.75,.4-.05,.75-.2,1.15-.3,.15,0,.25-.05,.35,0,.25,.05,.45,.2,.7-.05,.4,.1,.9,0,1.25,.3,.25,.15,.45,.2,.7,.25,.25,.05,.5,.15,.75,.25,.1,0,.15,.05,.15,.1,.1,.35,.45,.4,.7,.6,.45,.25,.85,.65,.95,1.2,.1,.25,.2,.45,.45,.6,.25,.2,.45,.6,.25,1,.2,.25,.55,.35,.55,.85-.15-.15-.3-.3-.5-.35,0,.4,.25,.65,.5,.85,.2,.1,.25,.15,.25,.3,.05,.25,.05,.4,.05,.65,.05,.9,.1,1.8,.15,2.69,0,.75,0,1.5-.15,2.29v.15c-.2,.05-.4,.1-.55,.15,.05-.2,.1-.35,.1-.55s.05-.45-.15-.7c-.1,.5,.05,.9,.05,1.25,.2,.3,.15,.65,.15,1.05Zm-7.58,14.01v.1c-.1,0-.25-.05-.35-.05v-.05h.35Zm1.25-2.44c-.25,.05-.45,.1-.55,.1,.15,.05,.4,.2,.55-.1Zm.9,1.84h0Zm.95-15.66c0,.1,.05,.25,.05,.4,.05,0,.1,0,.1-.05,0-.1-.05-.25-.1-.35h-.05Zm1.45,2.19h.15v.45h-.15v-.45Zm1.84-.9c-.05,.15-.05,.3-.1,.5q.15-.3,.1-.5Zm.4,10.92q0-.1-.05-.2c0-.1-.05-.25-.15-.15-.05,0-.1,.15-.05,.25,0,.05,.1,.1,.15,.15,0,0,.05-.05,.1-.05Zm.35,2.79s-.05-.15-.05-.2h-.05v.2h.1Zm.65-13.51h.05v.35h-.05v-.35Z"/>
      <path class="cls-1" d="M32.98,1.5s.1-.1,.2-.15c.1,.25,.15,.55,.25,.85,.2-.15,.3-.25,.2-.45-.05-.2,0-.3-.05-.5,0-.2,.1-.35,.3-.35-.1-.3-.15-.6-.25-.85,0-.05,.05-.05,.05-.05,.05,.05,.2,.1,.2,.15,.05,.1,.1,.3,.15,.45,.05,.15,.1,.3,.15,.45q.15-.1,.15-.85c.1,.2,.15,.35,.2,.4,.15,.35,.25,.6,.35,.9,.05,.1,.05,.3,.15,.45,.1,.3,.2,.5,.35,.85,.2-.2,.3-.35,.45-.5,.15,.1,.25,.1,.3,.2,.25,.2,.35,.2,.55,0,.15-.1,.25-.15,.35-.3,.3,.2,.4,.55,.5,.85,.1,.25,.2,.5,.55,.6-.05-.35-.1-.6-.15-.85,.35,.2,.45,.5,.5,.85,.3,1.2,.55,2.34,.85,3.54,.1,.6,.2,1.25,.3,1.94,.15,.9,.15,1.79,.4,2.74,.05,.25-.15,.35-.3,.4,.05,.2,.05,.35,.05,.55,.05-.1,.1-.1,.15-.2,0-.05,0-.15,.1-.2,.05,.2,.15,.35,.2,.6,.2,1.3,.45,2.59,.6,3.89,.1,.75,.15,1.5,.3,2.19,0,.7,.15,1.4,.3,2.09,.05,.4,.1,.8-.15,1.15-.05,.15-.05,.35-.05,.5,.05,.45,.1,.85,.35,1.25-.05-.25-.05-.55-.1-.8,.3,.2,.35,.55,.4,.8,.1,.5,.1,.95,.15,1.45,.05,.85,.2,1.7,.3,2.59-.05-.05-.1-.05-.15-.1-.05,0-.1,.05-.1,.05,.05,.75,.05,1.5,.1,2.19,0,.3,.15,.55,.3,.8-.05-.3-.05-.55-.1-.85,.3,.25,.3,.6,.4,.9,.1,.3,.15,.6,.25,.9,.15,.55,.3,1.05,.45,1.6,0,.15,.05,.25,0,.4-.15,.65,0,1.15,.2,1.79,.1,.4,.2,.85,.3,1.25,.05,.3,.05,.5,.05,.8,.15,.1,.25,.3,.2,.5-.1,.15-.35,.25-.55,.4q.05,0,.1,.05c.05,.2,.05,.35-.15,.4-.15,.1-.25,0-.3-.1-.1-.2-.2-.35-.4-.4-.05,.15-.05,.35-.15,.45-.1,.05-.25,.05-.4,.1,0,.1,0,.2,.05,.35-.05-.05-.1-.05-.1-.1-.1-.2-.15-.35-.4-.35-.05,.1-.05,.25-.05,.5-.2-.2-.3-.35-.5-.5-.05,.15-.15,.35-.2,.5-.05-.1-.15-.2-.2-.3h-.05c0,.15,.05,.3,.15,.45-.35-.05-.4-.3-.6-.5-.15,.05-.25,.1-.4,.15-.05-.1-.1-.2-.15-.25s-.15-.1-.15-.15c-.05,.1-.15,.15-.15,.2,0,.1,.05,.2,.1,.3,.05,.1,.05,.25,.1,.4l-.05,.05c-.2-.2-.45-.35-.6-.55-.25-.2-.25-.55-.6-.65,0,.2,.05,.4,.05,.55-.35,.05-.45,0-.45-.3-.05-.35-.1-.7,0-1.05,.1-.2,.25-.55-.2-.7v-.3c0-1.35-.45-2.59-.65-3.94-.15-.7-.25-1.5-.4-2.24-.15-1.05-.3-2.09-.4-3.19-.2-1.15-.35-2.34-.5-3.54q-.05-.35-.4-.3c-1.35,.15-2.64,.2-3.99,.4-.35,.05-.7,0-1,.2,0,0-.1,0-.15-.05-.25-.05-.5-.05-.75-.1,.05,.1,.05,.15,.1,.25-.4-.1-.7-.15-1-.25-.1,.3-.2,.65-.3,1.05-.05,.55-.25,1.15-.35,1.75-.1,.5-.1,1.1-.25,1.7-.1,.6-.25,1.15-.35,1.75-.1,.3-.15,.65-.25,1.1-.25-.15-.35,0-.4,.2,0,.15-.05,.3-.05,.5-.1,.4-.15,.8-.2,1.2-.05,.2-.05,.35-.1,.7,.15-.15,.3-.25,.5-.35,0,.6,.05,1.2,.05,1.75,0,.35,0,.7-.4,1v-.5c-.15,.4-.45,.8-.25,1.25-.2,.25,0,.55,0,.75,.05,.25-.05,.45-.1,.7-.1-.15-.15-.25-.25-.45-.1,.45-.2,.8-.25,1.15h.4c.1,.15,.2,.2,.35,.4-.35,.35-.85,.2-1.35,.3,.1,.15,.2,.25,.35,.4-.25,0-.35,0-.5-.2-.05-.05-.2-.05-.3-.1v-.4c-.3-.1-.35-.25-.25-.55v-.4h-.1c0,.2-.05,.35-.1,.55,0,.25-.05,.55-.25,.75-.1,.15-.15,.35-.3,.6-.05-.2-.05-.45-.1-.45-.2-.05-.15-.3-.4-.4,0,.1-.05,.2-.05,.3-.05,.1-.15,.25-.15,.25-.25-.05-.2,.1-.25,.25-.05,.1-.1,.2-.2,.25-.3-.05-.45-.35-.65-.6-.05,.1-.1,.15-.15,.15,0-.45-.6-.25-.65-.7,.35-.3,.9-.6,.65-1.4-.25,.55-.4,1.05-.9,1.35-.1-.05-.3-.15-.5-.15-.05-.2-.05-.45-.05-.6,0-.3-.05-.4-.4-.4,.1-.25,.15-.4,.2-.65,.05-.15,.1-.35,.15-.55,.05-.15,.05-.4,.1-.5,.4-.45,.5-1,.6-1.6,.15-.6,.2-1.2,.25-1.85,.15-1.45,.35-2.84,.7-4.24,.2-.9,.3-1.79,.45-2.69,.1-.6,.2-1.15,.3-1.75,.3-1.2,.5-2.44,.75-3.64,.15-1.05,.3-2.09,.5-3.09,.3-1.79,.65-3.59,1.15-5.39,.2-.9,.35-1.79,.55-2.69,.1-.9,.3-1.79,.5-2.69,.1-.7,.25-1.35,.45-2.09,.1-.6,.25-1.15,.35-1.75,.05-.3,0-.65,.05-.95,0-.25,.05-.6,.1-.9,.2,.25,.6,.3,.5,.75,.4-.4,.4-.9,.2-1.5,.05,0,.05-.05,.1-.05,.25-.05,.5,.3,.7,.25,.3-.05,.5,.05,.75,.15,0-.05,.1-.1,.15-.2,.15,.3,.35,.35,.6,.3,.3,.25,.1,.6,.15,.9,.6-.1,.35-.7,.6-.9,.4,.4,.9,.55,1.54,.45-.05-.25-.05-.4-.05-.65,.1,.05,.15,.15,.2,.2q.15,.3,.4,.15Zm-10.57,36.45s-.05,.05-.05,.1c-.05,.15,.05,.25,.15,.1,0-.05-.05-.15-.05-.25l-.05,.05Zm2.89-11.57c.1-.55,.2-1.05,.35-1.5-.3,.4-.45,1.1-.35,1.5ZM27.49,1.4s.1-.05,.1,0c.1,.1,.1,.15,0,.25-.15-.1-.2-.15-.1-.25Zm2.34,14.86c-.25,.35-.3,.75-.25,1.15,.15-.4,.25-.75,.3-1.1-.05,0-.05-.05-.05-.05Zm.85-2.19c-.2,.85-.5,1.6-.65,2.34-.15,.7-.15,1.35-.2,2.04t.05,.1c1.4,0,2.79-.45,4.19-.3-.4,.15-.75,.2-1.15,.25-.95,.05-1.89,.15-2.84,.25-.1,0-.2,.05-.25,.1v.1c.3,0,.6,0,.9-.05,.8-.05,1.6-.15,2.34-.25,.35,0,.7-.05,1-.1,.3,0,.6-.1,.9-.15v-.1c-.2-.05-.3-.1-.5-.15v-.05c.15-.05,.3-.1,.45-.1,0-.15-.05-.3,.05-.3,.2-.1,.15-.3,.15-.5-.2-.85-.35-1.65-.5-2.49-.1-.65-.25-1.35-.3-2-.15-1.4-.4-2.84-.65-4.24-.05-.2-.15-.3-.35-.3-.4-.05-.85-.1-1.3-.15-.15,0-.3,.05-.35,.2-.05,.15-.1,.4-.1,.55,.05,.6-.15,1.15-.2,1.7,0,.15-.05,.4-.2,.45-.5,.5-.4,1.2-.55,1.79h.3c-.1,.45-.15,.9-.25,1.35Zm-.8-12.52q-.05,.35,0,.7c.25-.35,.25-.4,0-.7Zm1.1,10.62h.1c-.05,.15-.1,.35-.15,.55,0-.2,0-.4,.05-.55Zm.45-4.19c-.05,.25-.1,.45-.15,.7v.4h.1c-.05-.15-.1-.3-.1-.45,.2-.2,.2-.25,.15-.65Zm.3-6.58s-.05-.05-.05-.1,.05-.1,.1-.1,.1,0,.15,.05c0,.05-.05,.05-.05,.1-.05,0-.1,.05-.15,.05Zm.8,1.2v-.2s-.05,.1-.1,.15q.05,.05,.1,.05Zm.05-1.55q.1,.2,0,.3v-.3Zm1.3,.55c.1,.35,.25,.65,.35,1,.35-.1,.4-.15,.3-.4-.1-.15-.15-.3-.25-.45-.05-.1-.15-.15-.25-.25-.05,.05-.1,.05-.15,.1Zm4.84,6.93c-.05-.3-.05-.55-.1-.8-.05,.05-.1,.05-.1,.05,.05,.2,.05,.45,.15,.75h.05Zm.35-.65c0,.35,.05,.65,.05,.95,0,.35,.05,.75,.05,1.1h.1c0-.2,.05-.4,0-.6,0-.15,.05-.4-.15-.5,.15-.3,.15-.6-.05-.95Zm.35,2.99v.25h.05v-.25h-.05Zm.4,2.24v0Zm.8,24.18c-.15,.25-.4,.55-.3,.9,.1-.35,.3-.55,.3-.9Zm.3-.7c-.1-.25,.15-.55-.1-.85-.2,.45-.2,1.05,.25,1.7,.2-.35-.05-.55-.15-.85Zm.35,2.19c.1-.1,.15-.2,.25-.35-.05,0-.1,0-.1-.05-.1,.15-.15,.25-.25,.35t.1,.05Zm1.15-1.25v-.15s-.2-.05-.35-.15c.05,.3,.15,.35,.35,.3Zm.1-2s-.1,.1-.1,.2c-.05,.1-.05,.15-.1,.3q.25-.2,.2-.5Zm.35-.95v1.1c.25,0,.45-.1,.45-.3,0-.3,0-.65-.3-.8h-.15Z"/>
      <path class="cls-1" d="M55.22,11.07c.2,.6,.45,1.1,.8,1.65,0-.15,0-.35-.05-.5,.2,.2,.35,.5,.5,.7,.5,1.2,1.05,2.44,1.6,3.64,.2,.55,.4,1.1,.6,1.7,0,.05,.05,.1,.05,.15-.2,.55,.1,.9,.4,1.25,.05,.1,.05,.2,.1,.25-.05-.2-.05-.4-.1-.6,.25,.15,.35,.3,.45,.5,.45,1.1,.9,2.19,1.35,3.24,.05,.25,.2,.45,.4,.65,0-.1,.05-.2,0-.25-.2-.2-.15-.45-.1-.7,0-.6,0-1.1-.1-1.7,0,.3,0,.65-.05,1.05-.1-.3-.1-.85-.1-1.3,.05-.3,.15-.6,.15-.9,.05-.3-.05-.55-.15-.85v.6h-.05c-.1-.2-.2-.5-.2-.75-.05-.75-.05-1.5-.05-2.19,0-.35,0-.65-.05-1-.05-1.15-.1-2.24,.1-3.44,.05,.4,.1,.65,.15,1.05,.15-.2,.15-.35,.1-.5-.2-.9-.1-1.85-.15-2.79-.05-.55-.1-1.1-.2-1.7-.1,.65-.1,1.25-.2,1.94,0,0-.05-.05-.1-.05,.05-.75,.1-1.55,.15-2.44,.1,.05,.15,.1,.2,.2,.15-.25,.2-.55,.25-.85,0-.3,.1-.6,.2-.85,.05,.1,.05,.15,.1,.25h.05c.1-.55,.15-1.2,.2-1.8h.1v1.7c.3-.5,.3-1.15,.55-1.75-.05,.2-.05,.35-.1,.45,.05,.05,.1,.1,.1,.05,.35-.15,.7-.35,1-.55,.25-.25,.15-.6,.1-.9,0-.15-.1-.35,0-.55,.15,.1,.2,.25,.15,.4-.05,.5,.1,.9,.2,1.4h.4c.1-.5,.15-1.1,.25-1.65,.25,.35-.1,.75,.25,1.05,0,.4,.25,.65,.5,.95,.2-.4,.15-.8,.15-1.2-.05-.35,.15-.6,.3-.85,.05-.15,.15-.2,.35-.35v1.1s.05,.05,.1,.05c.05-.15,.1-.3,.15-.35,0-.2,.05-.35,.15-.45,.05,.05,.1,.15,.1,.25-.05,1.1-.05,2.14-.1,3.24-.1,1.45-.1,2.79-.05,4.24,0,.65,.1,1.25,.1,1.85,.05,.6,.05,1.2,.1,1.84,.05,1.35,.05,2.69,.1,4.04,.05,1.15,.05,2.34,.1,3.54,.05,.8,.05,1.65,.1,2.44,.05,1.6,.05,3.24,.1,4.84v2.84c0,.3,0,.5,.25,.65,.1,.4-.3,.75-.1,1.2,.15-.25,.25-.45,.4-.6,0,.4-.15,.7-.3,1.05-.1,.15-.15,.3-.1,.45,.05,.35,.1,.7-.05,1.05-.05,.1,0,.2,0,.3,.2,.6,.05,1.2-.3,1.7-.25,.3-.6,.55-.95,.75-.1,.05-.15,.05-.25,.05l-.3-.45c-.1,.05-.25,.1-.45,.2-.05-.2-.15-.4-.25-.55-.35,.1-.1,.35-.15,.55-.15,.05-.3,.1-.5,.25-.15-.2-.3-.35-.45-.6-.2,.2-.2,.35-.2,.65-.15-.1-.2-.2-.25-.25s-.15,0-.25,0c-.05-.05-.15-.15-.2-.25-.1-.25-.3-.2-.45-.1q-.3,.15-.55,.15c-.05-.2-.15-.3-.25-.5,.1-.1,.2-.15,.25-.25,0,0-.05,0-.05-.05-.15-.15-.3-.25-.35-.4-.05-.2,.05-.4,.1-.55,.05-.05,.05-.15,.1-.2-.5-.65-1-1.35-1.45-2.04-.15-.3-.35-.6-.5-.95-.2-.45-.35-1-.5-1.45-.25-.65-.45-1.25-.75-1.84-.7-1.6-1.45-3.14-2.09-4.74-.7-1.8-1.65-3.49-2.34-5.29-.15-.4-.3-.75-.5-1.1,0-.05-.1-.15-.15-.2-.05,1.5,.1,2.94,.05,4.44-.05-.1-.15-.25-.25-.4-.15,.3-.15,.75,0,1.5,.05,.45,.15,.95,.2,1.55,.05-.4,.1-.65,.2-.95,.2,.25,.15,.5,.15,.7,0,.65,0,1.3,.05,1.99v3.14c0,.55,0,1.1,.05,1.7,.05,.4,.15,.85,.25,1.3,.1,.35,.15,.75-.1,1.15q-.1,0-.2-.05c-.25,.35-.3,.7-.35,1.1-.1,.35-.25,.75-.4,1.1-.1,.35-.3,.7-.5,1v-.8c-.25,.3-.25,.6-.4,.9-.3,0-.5,.25-.55,.6-.15-.1-.25-.2-.35-.25-.1,.1-.25,.2-.4,.3-.05-.3-.1-.7-.15-1.05,.1-.1,.25-.15,.45-.35-.15-.05-.3-.1-.4-.1,0-.45,.25-.85,.15-1.35-.3,.3-.35,.6-.4,.9-.05,.6-.1,1.2-.15,1.75t-.05,.15c-.05-.3,.2-.7-.3-.85-.15,.1-.15,.25-.05,.3,.3,.4,.2,.75-.1,1.1-.15,0-.15-.15-.15-.3,0-.4-.2-.7-.5-.95-.15,0-.2-.15-.25-.4-.1,.45-.15,.85-.2,1.3-.15-.2-.2-.4-.25-.55-.2,.15-.35,.3-.5,.5-.05-.15-.15-.3-.1-.4,0-.5-.05-1.05,.15-1.5,.3-.8,.05-1.65,.05-2.49,0-1.4-.05-2.79-.05-4.19,0-1.15-.05-2.24,0-3.39,0-1.7-.25-3.39-.35-5.09-.1-1.75-.15-3.39-.25-5.04-.1-1.05-.25-2.09-.3-3.09-.15-1.45-.35-2.94-.25-4.39,.05-.95,0-1.89,.05-2.84,0-.7,0-1.35,.05-2.04,0-.15,.1-.35,.15-.55,.1,.05,.15,.05,.25,.05,.3,.15,.5,0,.5-.35-.05-.15-.1-.3-.1-.5,0-.05,.1-.1,.15-.2,.05,.05,.1,.15,.15,.2v.15q-.05,.35,.45,.4c0-.1,.05-.2,.05-.3,0-.25,0-.5,.25-.6,.2-.15,.4,.1,.55,.25q.35,.25,.45,.55c.2-.1,.45-.2,.45-.5,0-.35,.25-.45,.55-.45,.05,0,.1-.05,.15-.05,.05,.05,.15,.1,.15,.2,.05,.15,.15,.3,.4,.25,.1,0,.1-.2,.25-.35,.15-.05,.35-.1,.6-.2,.05,.35,.05,.65,.1,1.05,.1,0,.25,0,.4-.05,.05,.1,.1,.25,.15,.45,.1-.15,.15-.3,.25-.4,.05,0,.1,.05,.1,.1,.05,.35,.05,.8,.2,1.15,0-.1,.05-.15,.05-.25h.1c.1,.25,.2,.45,.25,.7,.05,.25,.05,.55,.05,.8,.05,.6,.25,1.15,.55,1.65,.1,.35,.2,.6,.35,.9,.3,.8,.65,1.5,.85,2.29Zm-6.68,27.73s.05,.05,.1,.05v.45c-.15,.05-.25,.1-.4,.15,.15-.25,.2-.45,.3-.65Zm1.25-35.06c0,.35-.05,.65-.05,.9,.25-.45,.25-.5,.05-.9Zm1.7-.3c.05,.3-.4,.55-.05,.85,.25-.25,.1-.55,.05-.85Zm.6,32.86c-.15,.35-.1,.65-.1,1,.2-.3,.25-.6,.1-1Zm.55-24.73c-.1-.2-.2-.35-.2-.6-.05,.05-.1,.05-.1,.05,.05,.2,.1,.35,.15,.55h.15Zm.15-6.43c.05-.25-.05-.45-.25-.65-.1,.45-.1,.5,.25,.65Zm.5,29.37c-.1-.5-.25-1.05-.4-1.55,0-.05-.05-.05-.1-.05-.15,.25-.05,1.35,.1,1.99,.3-.05,.45-.2,.4-.4Zm-.4-7.83s0-.1-.05-.25v.25h.05Zm1.25-16.01h.1c-.05-.15-.1-.2-.15-.35-.15-.3-.25-.7-.45-.95,.1,.25,.15,.6,.3,.85,.05,.05,.1,.05,.15,.1,.05,.15,.05,.2,.05,.35Zm-.1-3.44q-.2-.2-.1-.45c0,.15,.05,.3,.1,.45Zm.05,.35h.05c.05,.15,.1,.25,.1,.45-.1-.05-.15-.1-.2-.15,0-.1,.05-.2,.05-.3Zm.25,.95h.1c0,.1,0,.15,.05,.25l-.05,.05-.05-.05c0-.1-.05-.15-.05-.25Zm1.4,10.27s.1-.05,.15-.05c-.1-.2-.2-.35-.3-.5,0-.25-.1-.45-.25-.6h-.1c.15,.2,.25,.4,.35,.55,.05,.25,.1,.4,.15,.6Zm4.74-7.53h.05v.7h-.05v-.7Zm2.14-7.53h.1c-.05,.2-.05,.45-.05,.7,0,0-.05,0-.05-.05v-.65Zm1.25,35.25c.1,.1,.15,.15,.15,.2,.05,.15-.05,.2-.3,.25,.1-.2,.1-.25,.15-.45Zm.4-2.04s0-.1,.05-.15c0-.05-.05-.15-.05-.2l-.05,.05c0,.1-.05,.2-.05,.3h.1Zm.5,2.24c-.05,.25-.2,.2-.4,.05,.2-.05,.25-.05,.4-.05Zm.25-2.29c-.25,.2-.15,.35,0,.5v-.5Zm-.05-31.07v.35h.05v-.35h-.05Z"/>
      <path class="cls-1" d="M82.15,1.5s.1-.1,.2-.15c.1,.25,.15,.55,.25,.85,.2-.15,.3-.25,.2-.45-.05-.2,0-.3-.05-.5,0-.2,.1-.35,.3-.35-.1-.3-.15-.6-.25-.85,0-.05,.05-.05,.05-.05,.05,.05,.2,.1,.2,.15,.05,.1,.1,.3,.15,.45s.1,.3,.15,.45q.15-.1,.15-.85c.1,.2,.15,.35,.2,.4,.15,.35,.25,.6,.35,.9,.05,.1,.05,.3,.15,.45,.1,.3,.2,.5,.35,.85,.2-.2,.3-.35,.45-.5,.15,.1,.25,.1,.3,.2,.25,.2,.35,.2,.55,0,.15-.1,.25-.15,.35-.3,.3,.2,.4,.55,.5,.85,.1,.25,.2,.5,.55,.6-.05-.35-.1-.6-.15-.85,.35,.2,.45,.5,.5,.85,.3,1.2,.55,2.34,.85,3.54,.1,.6,.2,1.25,.3,1.94,.15,.9,.15,1.79,.4,2.74,.05,.25-.15,.35-.3,.4,.05,.2,.05,.35,.05,.55,.05-.1,.1-.1,.15-.2,0-.05,0-.15,.1-.2,.05,.2,.15,.35,.2,.6,.2,1.3,.45,2.59,.6,3.89,.1,.75,.15,1.5,.3,2.19,0,.7,.15,1.4,.3,2.09,.05,.4,.1,.8-.15,1.15-.05,.15-.05,.35-.05,.5,.05,.45,.1,.85,.35,1.25-.05-.25-.05-.55-.1-.8,.3,.2,.35,.55,.4,.8,.1,.5,.1,.95,.15,1.45,.05,.85,.2,1.7,.3,2.59-.05-.05-.1-.05-.15-.1-.05,0-.1,.05-.1,.05,.05,.75,.05,1.5,.1,2.19,0,.3,.15,.55,.3,.8-.05-.3-.05-.55-.1-.85,.3,.25,.3,.6,.4,.9,.1,.3,.15,.6,.25,.9,.15,.55,.3,1.05,.45,1.6,0,.15,.05,.25,0,.4-.15,.65,0,1.15,.2,1.79,.1,.4,.2,.85,.3,1.25,.05,.3,.05,.5,.05,.8,.15,.1,.25,.3,.2,.5-.1,.15-.35,.25-.55,.4t.1,.05c.05,.2,.05,.35-.15,.4-.15,.1-.25,0-.3-.1-.1-.2-.2-.35-.4-.4-.05,.15-.05,.35-.15,.45-.1,.05-.25,.05-.4,.1,0,.1,0,.2,.05,.35-.05-.05-.1-.05-.1-.1-.1-.2-.15-.35-.4-.35-.05,.1-.05,.25-.05,.5-.2-.2-.3-.35-.5-.5-.05,.15-.15,.35-.2,.5-.05-.1-.15-.2-.2-.3h-.05c0,.15,.05,.3,.15,.45-.35-.05-.4-.3-.6-.5-.15,.05-.25,.1-.4,.15-.05-.1-.1-.2-.15-.25s-.15-.1-.15-.15c-.05,.1-.15,.15-.15,.2,0,.1,.05,.2,.1,.3,.05,.1,.05,.25,.1,.4l-.05,.05c-.2-.2-.45-.35-.6-.55-.25-.2-.25-.55-.6-.65,0,.2,.05,.4,.05,.55-.35,.05-.45,0-.45-.3-.05-.35-.1-.7,0-1.05,.1-.2,.25-.55-.2-.7v-.3c0-1.35-.45-2.59-.65-3.94-.15-.7-.25-1.5-.4-2.24-.15-1.05-.3-2.09-.4-3.19-.2-1.15-.35-2.34-.5-3.54q-.05-.35-.4-.3c-1.35,.15-2.64,.2-3.99,.4-.35,.05-.7,0-1,.2,0,0-.1,0-.15-.05-.25-.05-.5-.05-.75-.1,.05,.1,.05,.15,.1,.25-.4-.1-.7-.15-1-.25-.1,.3-.2,.65-.3,1.05-.05,.55-.25,1.15-.35,1.75-.1,.5-.1,1.1-.25,1.7-.1,.6-.25,1.15-.35,1.75-.1,.3-.15,.65-.25,1.1-.25-.15-.35,0-.4,.2,0,.15-.05,.3-.05,.5-.1,.4-.15,.8-.2,1.2-.05,.2-.05,.35-.1,.7,.15-.15,.3-.25,.5-.35,0,.6,.05,1.2,.05,1.75,0,.35,0,.7-.4,1v-.5c-.15,.4-.45,.8-.25,1.25-.2,.25,0,.55,0,.75,.05,.25-.05,.45-.1,.7-.1-.15-.15-.25-.25-.45-.1,.45-.2,.8-.25,1.15h.4c.1,.15,.2,.2,.35,.4-.35,.35-.85,.2-1.35,.3,.1,.15,.2,.25,.35,.4-.25,0-.35,0-.5-.2-.05-.05-.2-.05-.3-.1v-.4c-.3-.1-.35-.25-.25-.55v-.4h-.1c0,.2-.05,.35-.1,.55,0,.25-.05,.55-.25,.75-.1,.15-.15,.35-.3,.6-.05-.2-.05-.45-.1-.45-.2-.05-.15-.3-.4-.4,0,.1-.05,.2-.05,.3-.05,.1-.15,.25-.15,.25-.25-.05-.2,.1-.25,.25-.05,.1-.1,.2-.2,.25-.3-.05-.45-.35-.65-.6-.05,.1-.1,.15-.15,.15,0-.45-.6-.25-.65-.7,.35-.3,.9-.6,.65-1.4-.25,.55-.4,1.05-.9,1.35-.1-.05-.3-.15-.5-.15-.05-.2-.05-.45-.05-.6,0-.3-.05-.4-.4-.4,.1-.25,.15-.4,.2-.65,.05-.15,.1-.35,.15-.55,.05-.15,.05-.4,.1-.5,.4-.45,.5-1,.6-1.6,.15-.6,.2-1.2,.25-1.85,.15-1.45,.35-2.84,.7-4.24,.2-.9,.3-1.79,.45-2.69,.1-.6,.2-1.15,.3-1.75,.3-1.2,.5-2.44,.75-3.64,.15-1.05,.3-2.09,.5-3.09,.3-1.79,.65-3.59,1.15-5.39,.2-.9,.35-1.79,.55-2.69,.1-.9,.3-1.79,.5-2.69,.1-.7,.25-1.35,.45-2.09,.1-.6,.25-1.15,.35-1.75,.05-.3,0-.65,.05-.95,0-.25,.05-.6,.1-.9,.2,.25,.6,.3,.5,.75,.4-.4,.4-.9,.2-1.5,.05,0,.05-.05,.1-.05,.25-.05,.5,.3,.7,.25,.3-.05,.5,.05,.75,.15,0-.05,.1-.1,.15-.2,.15,.3,.35,.35,.6,.3,.3,.25,.1,.6,.15,.9,.6-.1,.35-.7,.6-.9,.4,.4,.9,.55,1.55,.45-.05-.25-.05-.4-.05-.65,.1,.05,.15,.15,.2,.2q.15,.3,.4,.15Zm-10.57,36.45s-.05,.05-.05,.1c-.05,.15,.05,.25,.15,.1,0-.05-.05-.15-.05-.25l-.05,.05Zm2.89-11.57c.1-.55,.2-1.05,.35-1.5-.3,.4-.45,1.1-.35,1.5Zm2.19-24.98s.1-.05,.1,0c.1,.1,.1,.15,0,.25-.15-.1-.2-.15-.1-.25Zm2.34,14.86c-.25,.35-.3,.75-.25,1.15,.15-.4,.25-.75,.3-1.1-.05,0-.05-.05-.05-.05Zm.85-2.19c-.2,.85-.5,1.6-.65,2.34-.15,.7-.15,1.35-.2,2.04t.05,.1c1.4,0,2.79-.45,4.19-.3-.4,.15-.75,.2-1.15,.25-.95,.05-1.89,.15-2.84,.25-.1,0-.2,.05-.25,.1v.1c.3,0,.6,0,.9-.05,.8-.05,1.6-.15,2.34-.25,.35,0,.7-.05,1-.1,.3,0,.6-.1,.9-.15v-.1c-.2-.05-.3-.1-.5-.15v-.05c.15-.05,.3-.1,.45-.1,0-.15-.05-.3,.05-.3,.2-.1,.15-.3,.15-.5-.2-.85-.35-1.65-.5-2.49-.1-.65-.25-1.35-.3-2-.15-1.4-.4-2.84-.65-4.24-.05-.2-.15-.3-.35-.3-.4-.05-.85-.1-1.3-.15-.15,0-.3,.05-.35,.2-.05,.15-.1,.4-.1,.55,.05,.6-.15,1.15-.2,1.7,0,.15-.05,.4-.2,.45-.5,.5-.4,1.2-.55,1.79h.3c-.1,.45-.15,.9-.25,1.35Zm-.8-12.52q-.05,.35,0,.7c.25-.35,.25-.4,0-.7Zm1.1,10.62h.1c-.05,.15-.1,.35-.15,.55,0-.2,0-.4,.05-.55Zm.45-4.19c-.05,.25-.1,.45-.15,.7v.4h.1c-.05-.15-.1-.3-.1-.45,.2-.2,.2-.25,.15-.65Zm.3-6.58s-.05-.05-.05-.1,.05-.1,.1-.1,.1,0,.15,.05c0,.05-.05,.05-.05,.1-.05,0-.1,.05-.15,.05Zm.8,1.2v-.2c-.05,.05-.05,.1-.1,.15t.1,.05Zm.05-1.55q.1,.2,0,.3v-.3Zm1.3,.55c.1,.35,.25,.65,.35,1,.35-.1,.4-.15,.3-.4-.1-.15-.15-.3-.25-.45-.05-.1-.15-.15-.25-.25-.05,.05-.1,.05-.15,.1Zm4.84,6.93c-.05-.3-.05-.55-.1-.8-.05,.05-.1,.05-.1,.05,.05,.2,.05,.45,.15,.75h.05Zm.35-.65c0,.35,.05,.65,.05,.95,0,.35,.05,.75,.05,1.1h.1c0-.2,.05-.4,0-.6,0-.15,.05-.4-.15-.5,.15-.3,.15-.6-.05-.95Zm.35,2.99v.25h.05v-.25h-.05Zm.4,2.24v0Zm.8,24.18c-.15,.25-.4,.55-.3,.9,.1-.35,.3-.55,.3-.9Zm.3-.7c-.1-.25,.15-.55-.1-.85-.2,.45-.2,1.05,.25,1.7,.2-.35-.05-.55-.15-.85Zm.35,2.19c.1-.1,.15-.2,.25-.35-.05,0-.1,0-.1-.05-.1,.15-.15,.25-.25,.35t.1,.05Zm1.15-1.25v-.15s-.2-.05-.35-.15c.05,.3,.15,.35,.35,.3Zm.1-2s-.1,.1-.1,.2c-.05,.1-.05,.15-.1,.3q.25-.2,.2-.5Zm.35-.95v1.1c.25,0,.45-.1,.45-.3,0-.3,0-.65-.3-.8h-.15Z"/>
      <path class="cls-1" d="M95.22,4.14c.1-.15,.15-.25,.25-.4,.2,.25,.2,.4,.05,.6-.15-.1-.2-.15-.3-.2Zm13.41-.9c.35,.2,.75,.25,1.05,.6,0,.05,.05,.05,.1,.1,.65,.2,1.25,.45,1.8,.8-.15-.2-.35-.45-.55-.7l.05-.05c.1,.05,.2,.05,.3,.15,.35,.35,.75,.75,1.15,1.15,.3,.3,.7,.65,.9,.95,.3,.45,.55,.9,.75,1.4,.1,.25,.2,.6-.1,.9-.05,.05-.05,.15,0,.15,0,.1,.05,.25,.1,.35,.1,.25,.25,.55,.35,.8,.1,.25,.1,.55,.15,.85,0,.25,0,.55,.05,.75,0,.65,.15,1.3,.4,1.84v.15c-.05,.65,.25,1.2,.4,1.85,0-.5-.05-.95-.1-1.45h.1c0,.25,.15,.55,.2,.75,.1,.2,.15,.4,.15,.55,.15,1.45,.2,2.89,.1,4.34-.05,.2,0,.45,0,.7,0,.65-.05,1.25-.05,1.84,0,.05-.05,.1,0,.15,.15,.45,.05,.95-.05,1.45,0,.15,.05,.35,0,.5-.05,.6-.15,1.15-.25,1.7-.15,.85-.35,1.7-.55,2.49,0,.15-.05,.3-.1,.5-.05,.3-.1,.6-.2,.9-.05,.35-.1,.65-.15,1-.1,.3-.25,.6-.3,.9-.1,.3-.2,.5-.45,.65,0-.1,0-.2,.05-.3,.2-.35,.3-.65,.15-1.05-.6,.3-.6,.9-.75,1.45,.1-.05,.15-.15,.2-.2,.05-.1,.1-.1,.2-.25-.05,.65-.35,1.15-.65,1.8,.4-.25,.35-.75,.75-.85,.05,.35-.1,.65-.35,.9-.2,.3-.4,.65-.55,1-.35,.65-.75,1.3-1.25,1.84-.2,.2-.5,.35-.4,.7,.05,.05-.05,.15-.1,.15-.25,.4-.6,.75-1,.95-.45,.35-.8,.7-1.3,.85-.55,.25-1,.45-1.55,.6-.7,.3-1.4,.6-2.14,.8-.9,.3-1.85,.7-2.89,.8-.25,.05-.5,.1-.65-.2-.05-.15-.2-.15-.3,0,0,.1,0,.2-.05,.25-.45-.05-.6-.15-.85-.55-.05,.1-.15,.1-.15,.2-.05,.25-.05,.5-.1,.8-.05-.1-.15-.15-.2-.25-.15,.05-.2,.2-.35,0-.25-.2-.5-.5-.8-.8,.05-.05,.15-.1,.3-.2-.4-.1-.85,.05-1.1-.45,.1-.15,.15-.35,.3-.55-.15,0-.3-.05-.4-.05q-.35,.05-.35-.35l-.05-.05c-.15-.05-.4-.1-.55-.2,0-.3,.4-.2,.5-.45-.2-.1-.4-.2-.7-.25,.2-.1,.3-.15,.4-.2-.1-.05-.15-.15-.25-.2t.1-.05h1.15c0-.2-.05-.35-.05-.45-.05-.15-.15-.2-.3-.25-.45-.1-.85-.25-1.3-.4-.05-.05-.15-.15-.1-.2,0-.05,.1-.15,.15-.15,.1-.05,.25,0,.4,0s.3,0,.5-.1c-.2-.1-.35-.2-.5-.25,.1-.3,.25-.35,.5-.25,.8,.25,.6,.25,.85-.5,.1,.15,.1,.3,.2,.45h.7c.15-.35-.15-.55-.35-.75l.05-.05s.15,0,.25-.05c.15-.65,.15-1.25,.15-1.89v-2.84c0-.4-.05-.75-.05-1.15,0-.7-.05-1.45-.05-2.19v-1.6c0-.8,0-1.55-.05-2.29-.05-.85-.15-1.75-.2-2.59-.05-.95-.05-1.84-.1-2.74v-2.09c0-1.05,0-2.14,.05-3.24,0-1.3,.05-2.54,.05-3.84v-.45c-.65,.15-1.25,.3-1.84,.45-.25-.2-.05-.3-.05-.5-.3,.05-.55,.05-.9,.1,0-.25,0-.4,.05-.7-.15,0-.3,.05-.5,.05-.15-.2-.1-.4,.25-.6-.1-.3-.3-.45-.2-.8,.05,0-.05-.1-.1-.2,.15-.05,.3-.1,.45-.2v-.05h-.45c.15-.25,.35-.45,.5-.6,.2-.2,.25-.25,.05-.5-.1-.2-.15-.5-.3-.7-.1-.2-.2-.35-.25-.45,.05-.15,.2-.25,.35-.45h-.5c.2-.35,.5-.45,.85-.5,.45-.05,.95-.2,1.4,0,.1,.05,.2,.05,.25,0,.7-.1,1.3-.25,1.99-.15,.2,.05,.3,0,.5-.05,.45-.1,.85-.2,1.3-.25,.1-.05,.2-.1,.25-.1,.25-.1,.45-.1,.6,.05,.25,.25,.6,.3,.9,.15,.1-.05,.2-.05,.25-.05-.3-.1-.6-.2-.9-.25v-.15c.1,0,.25-.05,.45-.05,.6,.05,1.25,.1,1.85,.2,.9,.15,1.75,.3,2.54,.7,.3,.1,.6,.2,.85,.5-.15,.05-.2,.1-.3,.15,0-.15-.15-.2-.4-.05,.25,0,.35,0,.4,.05,.1,.05,.2,.15,.3,.2Zm-10.92-.75s-.15-.05-.25-.05l-.1,.1h.35v-.05Zm.8,2.59c-.15,0-.35,.05-.5,.1v.1c.15-.05,.4,.15,.55-.1,0,0,0-.05-.05-.1Zm-.25,33.21c-.1,0-.2,.1-.2,.2-.05,.15,.1,.2,.25,.2,.2,0,.3-.15,.5-.4h-.55Zm.7,1.2c-.25-.25-.5-.25-.85-.2-.05,.05-.05,.1-.05,.15,.3,.05,.6,.1,.85,.15,.05,0,.05-.05,.05-.1Zm-.85-2.99c.25,.25,.5,.15,.8,0-.25,0-.5-.05-.8-.1v.1Zm1.45,3.49c-.1-.05-.15-.2-.2-.2-.25,0-.55,.05-.9,.05,.5,.25,.75,.3,1.1,.15Zm.8-37.65c-.1,.05-.2,.05-.35,.05v.05h.35v-.1Zm1.25,13.02h-.1l.05,.05h.05v-.05Zm0-12.96c.4,.1,.7,.05,1-.25-.6-.2-.8-.2-1,.25Zm2.54,38.2s-.15-.05-.25-.05c-.3,.05-.65,.1-.95,.15-.3,.05-.5,.1-.7,.3,.7,0,1.35,.1,1.95-.3,0-.05-.05-.05-.05-.1Zm-.65-31.37c-.05,.35-.05,.7,.1,1,0-.3,0-.65,.05-.95-.05,0-.1,0-.15-.05Zm.15,11.22v0Zm.05,9.72c-.05,.45,0,.85,.1,1.25v-1.25h-.1Zm.55-17.35v.35h.05v-.3s-.05,0-.05-.05Zm.1,1.4h-.05c-.05,.15-.05,.3-.05,.5,.05-.2,.15-.3,.1-.5Zm2.04,19.55c1.2-1.3,2.04-2.74,2.49-4.44,.3-1,.45-1.94,.75-2.94,.05-.3,.15-.6,.2-.9,.25-1,.35-1.99,.35-2.99,0-1.05,0-2.09,.1-3.14,.05-1.25-.05-2.59-.25-3.84-.2-1.2-.4-2.39-.65-3.64-.15-1.4-.85-2.54-2.09-3.24-.35-.2-.75-.4-1.1-.55-.45-.25-.9-.4-1.45-.45v.5c0,.5,0,.95-.05,1.4-.15,1.5-.1,3.09-.2,4.59,0,.1,.05,.2,.05,.3,0,.2,.05,.5,.05,.75-.05,1.25-.05,2.54,.05,3.84,.1,1.35,.2,2.59,.25,3.84,.05,1,.05,1.95,.05,2.89,0,1.5,.05,2.99,0,4.49,0,1.05-.1,2.19-.1,3.24,0,.35,.05,.7,.1,1.05,.65-.1,1.05-.35,1.45-.75Zm-1.75-9.62v-.45q-.15,.25,0,.45Zm0,10.47s.05-.1,.05-.15c0-.1-.05-.15-.1-.2,0,.05-.05,.05-.05,.05,0,.1,.05,.2,.05,.3h.05Zm0-8.53v0Zm1.2-23.94s-.15-.05-.2-.05v.05s.1,.05,.2,.1v-.1Zm-.2,37.95c.2-.05,.45-.05,.7-.4-.4-.05-.55,.25-.7,.4Zm1.45-37.55c.1,.05,.25,.1,.35,.15v-.15c-.1,0-.2-.05-.35-.05v.05Zm2.14,34.71c.05-.1,.1-.15,.15-.2l-.05-.05-.15,.15s.05,.05,.05,.1Zm1.2-33.51c-.3,0-.7-.2-1-.7,.4,.2,.7,.4,1,.7Zm-.9,34.76c.15-.1,.2-.15,.3-.2l-.05-.05c-.1,.05-.15,.1-.3,.15t.05,.1Zm2.19-2.34c0-.2,.1-.35,.2-.45,.15-.1,.1-.15,0-.2q-.5,.4-.65,1.15c.2-.15,.45-.25,.45-.5Zm.85-1.65c-.05,.1-.15,.2-.2,.3,.2,0,.25-.1,.2-.3Zm.3-28.37c-.1-.15-.25-.25-.35-.4q.1,.35,.35,.4Zm.9,1.2c-.1-.15-.25-.3-.45-.5-.1,.45-.05,.55,.3,.9,.05-.15,.1-.25,.15-.4Zm.6,22.99c.25-.8,.25-1,0-1.35-.15,.4-.25,.8-.4,1.25,.15-.1,.2-.1,.25-.15,.05,.1,.1,.15,.15,.25Zm.25-21.04c-.25-.35-.3-.4-.1-.85,.05,.3,.1,.55,.1,.85Zm.05,13.56v-.2s0-.05-.05-.05v.2l.05,.05Zm.85,1.05c0,.25-.05,.55-.1,.9h.1c0-.3,.05-.6,.1-.9h-.1Zm0-.85c.25-.2,.2-.4,.15-.6-.1-.4-.15-.85-.05-1.25,0-.25,.2-.5-.05-.8-.1,.9-.15,1.75-.05,2.64Z"/>
      <path class="cls-1" d="M125.94,3.84c.3-.2,.65-.3,1.05-.25,.4,.05,.75-.1,1.15-.15,.3-.1,.65-.05,.95,.1,.1,.05,.2,.05,.3,.05,.25,.05,.45,.05,.7,.05,.15,.05,.4,.1,.55,.1,.45-.05,.7,.35,1,.3,.3,.25,.55,.45,.8,.65,.1-.3,.35-.3,.5-.2,.4,.15,.8,.3,.95,.7,.05,.1,.15,.2,.2,.25,.2,.15,.5,.3,.65,.55,.1,.1,.2,.3,.25,.45,.1,.45,.25,.9,.65,1.25,.15,.1,.15,.2,.2,.35,.25,.5,.5,1,.6,1.54,.05,.6,.15,1.2,.25,1.8,.1,.45,.2,.9,.35,1.35,.35,.65,.45,1.35,.6,2.09,.2,.85,.25,1.7,.3,2.59,0,.45-.1,.9-.1,1.35-.05,.65-.05,1.2-.05,1.79-.05,.95-.05,1.9-.15,2.79-.05,.6-.15,1.2-.25,1.84-.3,1.65-.8,3.24-1.25,4.94-.2,.85-.45,1.7-.75,2.49-.2,.6-.5,1.15-.7,1.65-.05,.15-.2,.35-.2,.45,.05,.25-.1,.45-.25,.65-.35,.5-.7,1-1.1,1.45-.2,.2-.4,.4-.7,.55-.2,.15-.5,.3-.8,.5-.1,0-.25,.1-.25,.2-.1,.3-.4,.45-.6,.7-.05,0-.15,.1-.25,.05-.3-.05-.45,.1-.7,.2-.45,.2-.9,.45-1.35,.65-.3,.05-.65,.05-1.05,0-.45,0-.85-.05-1.3-.1-.05,0-.1,.05-.2,.1-.2-.3-.45-.5-.85-.45-.2,0-.45,0-.65-.1-.35-.25-.7-.45-1.05-.75-.4-.3-.65-.65-.9-.95-.15-.2-.35-.3-.5-.45-.5-.3-.8-.8-1.1-1.25-.4-.5-.55-1-.6-1.6-.05-.2-.2-.35-.35-.45-.15-.2-.25-.35-.3-.6-.25-1.35-.4-2.69-.9-3.94-.3-.75-.4-1.6-.65-2.34-.05-.15-.05-.25-.05-.4,0-.3-.05-.65-.05-1,0-.15,.05-.35,.05-.5,0-.05,.05-.1,0-.15-.1-.5,.15-1,.15-1.5v-2.89c.05-1.25,.05-2.49,.15-3.74,.1-1.3,.25-2.64,.6-3.89,.15-.65,.3-1.3,.45-1.89,0-.1,0-.2,.05-.25,.4-.3,.35-.8,.55-1.15,.15-.3,.3-.65,.45-.95,.3-.55,.65-1.05,.95-1.55,.25-.25,.45-.5,.65-.75,.15-.25,.4-.45,.65-.6,.15-.05,.3-.1,.45-.2,.1-.05,.3-.05,.25-.3-.05,0,.05-.1,.05-.1,.35-.25,.65-.4,.95-.6,.1-.05,.2-.1,.25-.15,.2-.15,.35-.2,.65-.15-.1,0-.2,0-.05,.25,0-.15,.05-.2,.05-.25,.3,.05,.45-.15,.65-.25Zm-4.59,10.22c.15-.45,.3-.8,.35-1.2-.3,.45-.4,.85-.35,1.2Zm8.68,16.61c.1-.15,.15-.35,.15-.5,.15-.4,.3-.85,.4-1.3,.2-.7,.55-1.35,.65-2.09,.05-.05,.05-.1,.1-.1,.3-.05,.3-.35,.4-.6,.15-.4,.25-.85,.3-1.3,.05-.3,.05-.65,0-.9-.05-.35-.1-.6-.1-.85,.05-1.25,.05-2.44,.15-3.64,0-.3,.05-.6,.15-.85,.15-.35,.2-.6,.15-.9-.05-.2-.1-.45-.15-.65-.25-1.2-.55-2.39-.75-3.54-.1-.45-.05-.95-.1-1.4v-.25c-.15-.55-.3-1.15-.55-1.65-.1-.15-.2-.25-.35-.25-.4,.05-.75-.05-.75-.55,0-.15-.15-.2-.3-.15-.15,.25,.3,.4,.05,.75-.2-.3-.45-.5-.65-.75-.25-.05-.45-.1-.7-.15-.15-.05-.35-.1-.5-.05-.35,.1-.65,.2-1,.4-.25,.15-.5,.3-.55,.6-.05,.2-.25,.35-.35,.5-.2,.4-.5,.8-.65,1.2-.25,.6-.35,1.25-.55,1.9-.1,.4-.2,.75-.2,1.1-.1,.55-.25,1.1-.3,1.65-.05,1.05-.05,2.09-.1,3.14,0,.3-.05,.55-.05,.85l-.1,.1c-.05-.1-.15-.15-.25-.35-.05,.25-.1,.4-.1,.6,0,.8,.05,1.55,.05,2.34,0,.1,.05,.2,.05,.3h.05c.05-.25,.15-.45,.2-.7,0,0,.05,.05,.1,.05,0,.4,.05,.8-.15,1.2-.15,.25-.2,.5-.2,.8,0,.6,.2,1.15,.35,1.75,.4,1,.65,1.99,.8,2.99q.1,.45-.2,.8c.15,.4,.3,.8,.4,1.2,.3,1.1,.9,1.94,1.84,2.54,.3,.15,.55,.3,.8,.2,.6-.3,1.2-.55,1.5-1.15,.3-.5,.65-1,.75-1.65l.2,.2c.35-.5,.5-1.05,.65-1.6l-.05-.05c-.15,.3-.3,.55-.4,.8-.05,0-.1-.05-.15-.05Zm2.29-11.22c0,.15,0,.3-.05,.45h.15v-.45h-.1Zm.4-14.36c-.1,0-.2,0-.3-.05v.05s.15,.05,.25,.1c0-.05,0-.1,.05-.1Zm-.3,11.32v.3s.05,0,.05-.05v-.25h-.05Z"/>
      <path class="cls-1" d="M144.49,39.64h-.05v-.65c-.1,.05-.15,.05-.15,.05-.2-.3-.3-.6-.45-.9-.05,0-.1,0-.1,.05-.05,.2-.05,.45-.1,.75-.2-.15-.05-.3-.2-.5-.05,.05-.15,.1-.25,.15-.05-.05-.05-.15-.1-.25-.05,.55-.1,1.05-.15,1.54h-.1c-.05-.15-.05-.25-.1-.45-.05,.15-.05,.2-.05,.25-.45-.25-.2-.75-.3-1.05-.15,.25-.3,.6-.55,1-.05-.15-.1-.3-.2-.45-.1,.15-.2,.25-.3,.35v-.7s-.1-.05-.2-.1c-.2,.55,.1,1.15-.15,1.7,0-.1-.05-.2-.05-.3-.05-1.1-.2-2.24-.25-3.34,0-1.25-.1-2.54-.15-3.79v-1.15c-.05-.8-.1-1.65-.1-2.44v-2.64c-.05-1.65-.1-3.29-.15-4.99,0-1.45-.1-2.79-.1-4.14-.05-1.3-.05-2.54,0-3.74,0-.65,.05-1.2,.1-1.84,.1-1.05,.2-2.04,.3-3.04,.1-.35,.15-.75,.25-1.1,.05-.3,.05-.6,0-.95,0-.05-.05-.1,0-.15,.2-.4,0-.85,0-1.3,0-.6,.05-.65,.55-.85,.05-.05,.1-.05,.1-.05-.1,.5,.2,.9,.1,1.4h.15c0-.25,.05-.5,.05-.7,0-.25,.05-.4,.25-.55,.6-.35,1.15-.65,1.84-.8-.25-.25-.45-.15-.7-.1-.15,.1-.45,.15-.65,.15,1.05-.75,2.29-1.15,3.64-1.2-.15,.35-.45,.3-.7,.45,.4,.15,.8,0,1.2-.15-.15-.1-.2-.2-.3-.25,0-.35,.25-.5,.55-.5,.35-.15,.7-.2,1.15-.3,0,0,.15,.1,.25,.1-.1,.1-.15,.2-.25,.35,.45,.35,.9,.35,1.45,.3h.45c-.2-.3-.45-.35-.65-.35-.05,0-.05,.05-.1,.1,.1,.1,.2,.15,.3,.25-.1-.05-.15-.05-.25-.15-.25-.15-.4-.3-.65-.45,.15-.15,.35-.15,.55-.15,.7,.15,1.25,.35,1.75,.85h.05c.7,.45,1.2,1.15,1.65,1.84,.2,.3,.3,.75,.6,.95,.2,.15,.4,.3,.65,.4-.3-.4-.8-.65-.9-1.3l.25,.25c.2,.15,.35,.3,.55,.45,.15,.2,.35,.4,.55,.6,.05,.1,.2,.15,.35,.25,.1,.1,.15,.2,.15,.35,.05,0,0,.1-.1,.15,.4,.5,.7,1.1,.85,1.79,.05,.35,.2,.65,.35,1,.05-.05,.1-.05,.15-.1,.1,.6,.25,1.2,.4,1.8-.1-.45,.05-.9-.15-1.35-.15-.35-.15-.8-.15-1.2,.3,.3,.45,.7,.45,1.1-.05,.5,.15,.95,.25,1.4,.05,.1,.15,.25,.15,.45,.05,.8,.1,1.55-.1,2.34-.15,.4-.15,.85-.2,1.25-.05,.05-.1,.25-.1,.35-.1,.15-.1,.35-.1,.6,.05,.3-.1,.65-.25,.95-.2,.6-.55,1.2-.75,1.75-.5,1.15-1.1,2.24-1.85,3.14-.1,.15-.2,.25-.4,.35,0-.15,0-.25,.05-.35-.05,0-.1-.05-.15,0-.15,.1-.4,.3-.6,.45,.5,.75,.95,1.4,1.35,2.14,.3,.45,.45,.95,.65,1.4-.15-.1-.3-.15-.5-.25,.05,.1,.1,.3,.2,.4,.3,.35,.5,.75,.65,1.2,.1,.2,.2,.45,.35,.65-.05-.4-.2-.75-.3-1.15,.65,.8,1,1.75,1.2,2.79,.1,.8,.2,1.6,.2,2.44-.05,.55,.05,1.15,.05,1.65,0,.4,.05,.8-.3,1.05-.1,.1-.1,.25-.1,.35-.05,.75-.05,1.4-.1,2.14h-.2c0,.15,0,.35-.05,.5h-.1c-.1-.25-.15-.5-.25-.85h-.05c0,.3,0,.6-.05,.95-.1-.15-.15-.25-.2-.35-.25,0-.25,.2-.25,.35v1.15c-.1-.05-.15-.1-.25-.15-.05,.35-.15,.65-.55,.8,.15-.55-.05-.95-.35-1.35-.1,0-.2,.05-.35,.05v1.84c-.25-.05-.2-.25-.25-.4-.1-.15-.25-.3-.35-.4-.1-.15-.1-.35-.2-.55-.05,.15-.05,.2-.1,.35h-.35s-.1,.1-.05,.15c0,.15,0,.4,.1,.55,.25,.3,.05,.55,.1,.95-.15-.05-.25-.05-.3-.15-.1-.25-.2-.45-.25-.75-.05-.2-.15-.45-.35-.6-.25-.3-.25-.75-.3-1.1-.15-.8-.2-1.6-.3-2.39-.05-.4,.05-.8,.05-1.15,.1-1.15,.05-2.29-.15-3.44-.1-.45-.2-.95-.4-1.35-.35-.85-.8-1.65-1.25-2.49-.2-.3-.45-.5-.7-.75-.5-.45-1.05-.5-1.75-.1-.15,.1-.3,.2-.5,.3-.05-.15-.1-.25-.15-.4-.05,.05-.1,.05-.1,.1-.05,.5-.1,.95-.05,1.45,0,.45,.05,.9,.15,1.4,0-.15,0-.25,.05-.5,.05,.15,.1,.25,.1,.3,.15,1.35,.25,2.74,.35,4.09v1.25c0,.15,0,.35-.2,.45,0-.2-.05-.45-.1-.65-.2,.4-.2,.75-.2,1.15s.05,.8-.25,1.05c-.15,.1-.15,.25-.2,.45-.05-.15-.15-.2-.2-.25-.05,.35-.1,.65-.1,1,0,.3-.1,.45-.4,.5v.45c-.05,.3-.15,.55-.2,.8Zm-3.04,.65h.05v.35h-.05v-.35Zm.45-35.95h.1c-.05,.1-.05,.2-.05,.3-.05-.05-.1-.05-.15-.05,.05-.1,.05-.15,.1-.25Zm2.14,34.91c0,.4,0,.7-.15,.95-.15-.3-.1-.55,.15-.95Zm.7-.05h-.05v-.35c0,.15,.05,.25,.05,.35Zm.8-.6c-.15-.25-.15-.75-.1-1.1,.15,.4,.1,.75,.1,1.1Zm.15-24.53c-.05,.15-.15,.3-.15,.45-.05,.85-.05,1.65-.1,2.44,0,.1,.05,.2,.05,.25,0,.4,.1,.8,.05,1.1-.15,.6,.05,1.15,.1,1.75,.05-.6-.05-1.15,.2-1.75,0,.7,.1,1.45,.2,2.19,.3-.05,.65-.15,.9-.15,.5-.2,.9-.5,1.25-.85,1.4-1.4,2.34-3.09,2.79-4.99,.2-.8,.2-1.55,.1-2.34-.1-.6-.25-1.15-.7-1.6-.25-.3-.5-.6-.75-.95-.3-.35-.65-.7-1-1.05-.2-.25-.55-.35-.85-.15-.15,.05-.4,.1-.6,.1-.1,.05-.3,.05-.45,.1-.2,.05-.35,.15-.35,.35,0,.6-.25,1.15-.25,1.79-.05,1-.15,1.99-.25,2.99-.05,.1-.05,.25-.05,.3h-.15Zm.15,23.64q-.1-.25,0-.55v.55Zm0-7.18v-.25h-.05v.25h.05Zm.1,2.39v.45h.05v-.45h-.05Zm5.24,7.13c.3,.05,.35,.25,.2,.5-.1-.2-.15-.35-.2-.5Zm1.15-2.59c-.1,.3-.25,.55,0,.85,.2-.25,.25-.55,0-.85Zm2.09-17.5c-.05,.2-.05,.35-.05,.4l-.15,.3s.05,.05,.1,.05c0-.1,0-.2,.05-.35q.3-.1,.05-.4Zm0,17.8v-.35h-.05v.35h.05Zm.1-19.7c.35-.4,.55-.8,.65-1.3-.35,.1-.5,.45-.65,1.3Zm.2,8.38c-.2-.05-.2-.2-.15-.3,.05,.1,.1,.2,.15,.3Zm.6-7.98c-.05,.15-.3,.35-.25,.6-.1,.05-.15,.15-.1,.3,.15-.05,.15-.2,.1-.3,.25-.1,.25-.4,.25-.6Zm0-11.22c-.35,0-.15-.25-.2-.35h.1c.05,.1,.05,.2,.1,.35Zm.15,11.02c.1-.15,.2-.2,.25-.25-.3-.1-.35,0-.25,.25Zm.45-9.67c-.1-.2-.15-.35-.2-.6,.3,.15,.35,.25,.45,.85-.05-.1-.2-.15-.25-.25Zm.3,7.48c-.1,.3-.4,.65-.25,1.1,.3-.65,.35-.8,.25-1.1Zm.2-.4c0-.15,0-.3,.05-.45h-.1v.45h.05Z"/>
      <path class="cls-1" d="M174.51,36.65c-.1,.1-.15,.2-.25,.3-.3-.2-.4-.6-.65-.9,.2-.05,.4-.15,.6-.25-.25-.2-.2-.6-.55-.7-.05-.05-.05-.3-.05-.4,.15-.4,0-.7,0-1.05-.45-2.54-1.25-4.99-1.89-7.48-.3-1.05-.65-2.04-.9-3.09-.55-1.84-1.05-3.69-1.4-5.58-.05-.3-.2-.65-.25-1-.05-.5-.1-1-.2-1.45-.05-.15-.05-.35-.1-.5-.35-1.4-.55-2.79-.65-4.24-.05-.6-.2-1.2-.25-1.79-.1-.75-.05-1.45-.1-2.09-.05-.35-.1-.65-.1-.95,0-.4,0-.85,.05-1.25,0-.05,.1-.1,.15-.2,.3,.2,.2,.6,.3,.85,.35-.1,.3-.3,.3-.55-.05-.5,.15-.75,.65-.75,.15,0,.3-.1,.4-.2,.15,0,.2,.15,.15,.3-.05,.1-.15,.2-.2,.3,0,.05,.05,.05,.05,.1,.25-.15,.45-.3,.8-.45,.1,.1,.3,.25,.5,.45,0-.15-.05-.35,0-.45,.1-.15,.3-.2,.45-.3,.05,.1,.15,.2,.3,.4v-.45h.05c.1,.15,.15,.4,.3,.6,.15-.1,.25-.15,.4-.15,.1,.5,.05,1.05,.5,1.55,.1-.45,.25-.8,.15-1.15,0-.05-.05-.05-.1-.05-.05,.1-.1,.2-.15,.35-.1-.45-.05-.55,.35-.65,.1,0,.2-.05,.3-.1,.05,.05,.05,.1,.05,.15-.25,.4-.2,.85-.1,1.3,.05,.4,.1,.8-.05,1.15l-.15-.6h-.05c-.05,.6-.2,1.2,.25,1.7,.15,.15,.2,.35,.2,.5,0,1.15,.25,2.19,.45,3.29,.2,1.5,.5,2.94,.75,4.44,.1,.3,.05,.65,.1,.95,0,.1,.05,.2,.05,.2,.25,.5,.4,1,.45,1.54v.3c.45,1.35,.85,2.69,1.25,4.09,.15,.65,.3,1.3,.25,1.99,0,.15,.05,.25,.05,.4,.45-.05,.6-.2,.55-.9-.1,.15-.2,.25-.3,.35,0-.15-.05-.25,0-.4,.2-1.15,.45-2.34,.7-3.49,0-.05,.05-.15,.05-.2-.05-.85,.15-1.6,.3-2.39,0-.2,.05-.4,.1-.5,.3-.65,.5-1.25,.5-1.99,.05,.1,.1,.1,.15,.2,0-.7,.1-1.3,.15-1.94h-.1c-.05,.3-.05,.6-.1,.9h-.1c-.05-.15-.1-.2-.1-.35-.05-.5,0-1,.25-1.45,.15-.25,.1-.65,.45-.8,0-.05,0-.2-.1-.15v-.2c.15-.65,.3-1.3,.5-1.89,.05-.05,.05-.15,.1-.25,.1-.05,.2-.1,.2-.2-.05-.45,.2-.85,.25-1.3,0-.45,.05-.9,.1-1.4,.05-.35,.05-.75,.1-1.2,0-.2,.1-.45,.1-.65,.2-.3,.55-.25,.9-.45v-1.55c.3,0,.25,.4,.55,.45v-.65c.2,.05,.3,.1,.45,.15v-.4c.05,.2,.1,.3,.2,.4,.2-.05,.4-.15,.6-.3,.1,.1,.25,.2,.5,.3,.05,.4,.05,.8,.15,1.25,.05,0,.1-.05,.2-.1,.05,.2,.1,.35,.15,.55,.15-.15,0-.35,0-.5,.1,0,.15,.05,.3,.1-.15-.4-.3-.7-.4-1.05,.15-.2,.55-.35,.3-.8-.1,0-.2,.05-.25,.05-.05-.25-.05-.45-.15-.8,.35,.3,.65,.45,.9,.75,0,0-.05,.1-.1,.2,.45,.15,.4,.15,.45,.6,.1,.75,.1,1.55,.5,2.24,.2,.3,.25,.65,.1,1.05-.05-.1-.1-.2-.2-.3-.05,.5-.25,1,.05,1.45-.05,.35-.1,.7-.15,1.05,0,.2-.1,.45-.15,.65-.05,.35-.1,.65-.15,.95-.15,.65-.35,1.2-.5,1.85-.35,1.15-.45,2.39-.55,3.54-.05,1.4-.4,2.69-.65,4.04-.15,.7-.25,1.4-.3,2.09-.1,.45-.2,.95-.3,1.45-.2,1.2-.45,2.34-.65,3.49-.2,1.25-.4,2.39-.65,3.59-.15,1.05-.4,2.09-.6,3.14-.15,.95-.3,1.9-.45,2.84,0,.25-.2,.45,0,.75-.15,.55-.3,1.15-.5,1.7-.05,.1-.15,.2,0,.35l-.1,.15c-.3-.05-.35,.2-.5,.35-.05,.05-.2,.1-.25,.15-.15,0-.35,.1-.5,.15-.05,.05-.2,.1-.3,.1,0,0-.05-.2-.05-.25v-.25c-.3-.2-.55,.1-.85,.1-.05,0-.05,.15-.1,.3-.25-.05-.4-.2-.5-.4,.15-.2,.5,.15,.6-.25-.35-.05-.65-.15-.95-.2-.1,.25-.25,.5-.4,.75-.1-.1-.1-.2-.1-.3-.4,.1-.55-.2-.75-.45-.1-.2-.15-.4-.5-.25-.1,.05-.35-.05-.55-.1v-.1s.1-.05,.15-.1c.3-.25,.35-.55,.2-1-.1-.05-.15-.2-.25-.35-.05-.1-.1-.2-.1-.4Zm0,1.3q-.15,0-.3-.65h-.5c.05-.15,.05-.25,.05-.35,.3,0,.6,.05,.85,.1-.05,.35-.1,.6-.1,.9Zm.4-20.64c-.05-.1-.05-.15-.05-.25-.05-.05-.1-.05-.15-.1,.05,.2,.05,.25,.1,.4t.1-.05Zm.25,1.35c0,.1,.05,.2,.05,.3,0,0,.05-.05,.1-.05-.05-.05-.05-.15-.05-.25h-.1Zm1.6,19.6c0,.15,0,.3,.05,.5,.2-.15,.3-.2,.4-.35-.1-.25-.25-.2-.45-.15Zm1.79-17.25c0-.2,.05-.4,.1-.6h-.05c-.05,.2-.05,.4-.1,.55l.05,.05Zm2.34,16.46q.1-.25,.6-.3c-.2,.1-.35,.2-.6,.3Zm.2-32.36c0,.1,.05,.2,.05,.3,0-.05,.05-.05,.1-.05-.05-.1-.05-.2-.05-.25h-.1Zm.5,31.17s.05,.1,.05,.1c-.1,.2-.25,.15-.5,.05,.2-.1,.3-.1,.45-.15Zm1.35-32.51c-.1-.05-.15-.1-.3-.2,.1,.3,.2,.6,.3,.9,.1-.15,.15-.25,.2-.25,.1,0,.15,.05,.25,.1,0-.45-.15-.75-.4-1.2,0,.25,0,.45-.05,.65Z"/>
      <path class="cls-1" d="M194.26,24.63c.05,.1,.05,.2,.05,.3,.05,.5,.05,1,.1,1.5v.05c-.05,.75,.15,1.5,.25,2.24,.1,.8,.1,1.65-.05,2.49-.1-.1-.15-.1-.25-.2-.15,.8,0,1.55-.05,2.39,.5-.4,.15-.95,.35-1.4,.1,.05,.15,.1,.15,.2,.05,.35,.05,.75-.2,1.1-.15,.15-.15,.35-.2,.5-.05,.5,0,.95-.2,1.4-.1,.25-.05,.5-.1,.75-.05,.15-.1,.35-.2,.5-.2,.1-.25,.25-.25,.45-.05,.5-.05,.95-.15,1.45-.05-.05-.05-.15-.05-.25v-1.2c0-.1-.05-.25-.05-.35h-.1c-.1,.65-.15,1.25-.25,1.85-.3,.15-.35,.25-.55,.8-.1-.15-.15-.25-.25-.4-.35,.2-.1,.65-.3,.85-.2-.05-.25-.2-.25-.4-.05-.35-.05-.7-.15-1.05-.05-.35,0-.7,.1-1.05,.1-.15,.2-.3,0-.5-.1,.3-.2,.65-.35,1-.25,0-.25,.3-.3,.6-.05,.2,0,.5,0,.75h-.25c.05,.25,.15,.55,.25,.8-.55-.3-.3-.85-.5-1.3-.15-.4-.1-.95-.15-1.4-.1-.1-.15,.4-.35,0-.1,.3-.1,.6-.15,.8,0,.3,0,.55-.25,.75-.15,.1-.2,.35-.2,.55,0,.3-.1,.5-.4,.6-.1-.25-.25-.55-.1-.95,.05,.15,.15,.25,.25,.35,.15-.35-.05-.6-.2-.85-.1-.2-.15-.4-.15-.6v-.2c0-.7,0-1.45,.05-2.14,0-.25,.05-.45,.1-.7,0-.15,.05-.4,.05-.6,.1-1.94-.05-3.84-.15-5.68-.2-1.7-.25-3.34-.35-4.99,0-2.29-.15-4.64-.35-6.93-.1-2.39-.05-4.74-.05-7.08,0-.8,.15-1.65,.2-2.49,.05-.6,.1-1.25,.2-1.84,0-.45,.1-.95,.2-1.45,.15,.1,.25,.1,.35,.2q0-.6,.2-.65c.05,.5-.25,.95-.05,1.45,.25-.15,.15-.45,.25-.6,.1-.2,.15-.4,.3-.65,.1,.2,.15,.35,.25,.55,.05-.2,.1-.25,.1-.35q.15,.25,.5,.15c-.1-.2-.15-.4-.25-.65q.55,.1,.65,.45c0,.2,.05,.25,.2,.3,.2,0,.2-.1,.25-.25,0-.1,0-.25,.05-.4,.15,.1,.2,.25,.35,.35,.15-.25,.35-.35,.7-.35,.15,.15,.15,.3,0,.5-.05,.05-.1,.2-.2,.35,.35,0,.45-.25,.65-.35l.4,.2c0-.15,0-.25,.05-.45,0,.1,.05,.15,.05,.2v1c.3-.1,.15-.4,.25-.5,.1-.2,.15-.4,.3-.6,.15,.3,.25,.5,.3,.65h-.05c-.05,.45-.15,.8-.15,1.2,0,.9-.05,1.8-.25,2.64-.25,1.05-.3,2.09-.2,3.14,.05,.65,0,1.25-.05,1.85-.1,.85-.15,1.7-.2,2.54v.35c.05,.65,.1,1.25,.2,1.9,.15-1.1-.1-2.19,.2-3.29v1.84c0,.15-.05,.3,0,.4,.25,1.15,.25,2.29,.1,3.44-.05,.75-.05,1.5,.05,2.24,.05,.6,.1,1.2-.05,1.84-.15,.9-.05,1.79,.1,2.69,.05-.8,0-1.6,.2-2.34Zm-.7-15.01v-.85h-.05c-.05,.3-.05,.55-.05,.85h.1Zm.25,9.82c-.2,.45-.05,.85,.05,1.25,.05-.4,.05-.85-.05-1.25Zm.55,9.12c0-.2-.05-.4-.05-.6h-.1c0,.2,0,.4,.05,.6h.1Zm.3,5.88h-.05c0-.15,0-.25,.05-.4h.05c-.05,.15-.05,.25-.05,.4Z"/>
      <path class="cls-1" d="M215.95,11.27c.15,.2,.2,.4,.3,.55,.35,.9,.65,1.85,.8,2.74,.1,.5,0,1.05,0,1.55,0,.3,0,.6-.1,.9-.05,.35,.05,.7,.2,1.1,0,.1-.05,.3-.05,.45h.1c-.05-.15-.05-.35-.05-.45,0-.25,0-.45,.1-.65,0,0,.05-.05,.1-.05,.05,.1,.1,.15,.1,.25,.05,.95,.1,1.89,.2,2.89,0,.4,.05,.75,.05,1.15,.05,.6,.05,1.2-.05,1.79-.15,.35-.15,.7-.2,1.05-.1,0-.2-.05-.25-.05s-.1,.1-.15,.15c.05-.25,.05-.55,.1-.8-.35,.85-.4,1.85-.55,2.79,.15-.25,.25-.45,.35-.7l.1,.05v.05c0,.15,0,.3-.05,.5-.75,2.69-1.8,5.29-2.69,7.93,0,.05-.05,.05-.1,.15-.05-.2-.1-.35-.1-.45,.1-.15,.25-.3,.15-.45,.05-.1,.15-.25,0-.35v.35c-.25,.1-.1,.3-.15,.45-.25,.05-.3,.25-.3,.4-.15,.55-.55,.95-.9,1.25-.05,.05-.1,.1-.15,.2v.05h.3s-.05,.15-.1,.2c-.15,.2-.4,.3-.5,.55-.15,.2-.35,.35-.55,.4-.35,.15-.35,.1-.25,.45-.05,.05-.05,.1-.1,.15q.5-.35,.8-.3c-.25,.45-.7,.65-1.1,.9-.05-.15-.15-.25-.4-.15-.25,.05-.5,.1-.8,.2q-.2,.1-.15,.3c.45-.1,.9-.2,1.35-.35-.3,.25-.6,.4-.95,.6-.5,.25-1.15,.45-1.75,.4-.1,0-.2-.1-.35-.2-.1,.05-.2,.15-.4,.25,.2,.2,.2,.25-.05,.3-.3,.1-.6,.15-.95,.25-.15,0-.4,.05-.6,.05-.15,0-.3-.1-.45-.15,.05-.15,.05-.2,.15-.25-.3,0-.55,.1-.9,.1-.2,.05-.5,.1-.75,.1-.5,0-1,0-1.5-.05-.55-.05-1.1-.15-1.6-.2-.3,0-.55-.05-.8-.05-.2-.05-.5,.05-.45-.3-.25-.05-.4-.05-.6-.1-.25-.05-.5-.05-.7-.15,.4,0,.85,0,1.3-.05v-.1c-.45-.25-1.05-.1-1.6-.35,.05,0,.15,0,.25-.1-.2-.05-.3-.1-.4-.1q0-.15-.05-.3s.05-.05,.05-.1l.05-.05c-.1-.05-.25-.15-.45-.3,.45-.15,.85,.05,1.3-.05-.05-.25-.25-.55,0-.85-.25,0-.5-.1-.7-.15v-.2c-.2-.15-.5-.05-.65-.3,.5-.25,1,.15,1.6-.25-.45-.05-.85,.1-1.15-.15,.15-.3,.45-.2,.65-.15-.7-.1-1.45-.2-2.09-.3,.4-.1,.8-.45,1.25-.25v-.15c-.25-.05-.55-.15-.8-.3,.05,.05,.05,0,.1,0,1.1-.05,2.24-.05,3.34-.05h.25c.2,0,.35-.1,.35-.3v-.05c.1-1.4,.25-2.79,.25-4.19-.05-2.04-.05-4.14,0-6.28,.05-2.34-.1-4.64-.3-6.93-.15-1.55-.2-3.04-.25-4.54,0-.75,.05-1.5,.05-2.19,0-.1,0-.2,.05-.3-.05-.45-.05-.4-.5-.5s-.9-.15-1.3-.25c-.15-.3,.1-.45,.2-.65q-.45-.15-.8-.05c.05,.1,.35,.25,.15,.45-.05,0-.15,.05-.15,0-.1-.15-.15-.3-.15-.4-.15-.2-.3,.3-.5,0-.2-.15-.25-.25-.15-.45q-.4-.1-.5-.65c.25,.2,.35,.3,.45,.4,.1,.1,.2,.2,.3,.25s.25,.05,.3,0c.1-.05,.1-.25,.05-.35,0-.05-.1-.1-.2-.1-.15,0-.4,0-.4-.15-.05-.2,.05-.35,.05-.55-.4-.35-.4-.6,.05-1,.05,.2,.15,.4,.25,.6,.5-.5,.5-.65,.1-1.05v.35c-.25-.15-.3-.35-.25-.5,0-.2,.1-.35,.15-.45,.1-.1,.35-.2,.45,0,.2,.1,.35,.3,.5,.5,.05,.05,.15,.15,.3,.35,0-.2,0-.3,.05-.4,.1,0,.3,.05,.45,.05,0-.35,0-.4-.3-.4-.35-.05-.6-.15-.85-.5,.2-.35,.65-.05,1-.25-.4-.2-.75-.2-1.15-.2,.1-.3,.2-.55,.25-.85,.45,.05,.8,.3,1.2,.4,.7,.15,1.35,.25,2.04,0,.1,0,.1-.1,.15-.15,.25-.25,.35-.2,.45,0,.15,.2,.3,.15,.5,.15,.3-.1,.6-.15,.85,.05,.25,.2,.5,.15,.75,.05,.3-.1,.55-.1,.8,.1,.2,.15,.35,.2,.55,.05,.1-.05,.2,0,.3,0,.15,0,.25-.05,.45-.1,.15,.3,.4,.45,.75,.55,1.1,.35,2.09,.9,2.84,1.75,.3,.35,.55,.8,.85,1.15,.1,.2,.3,.45,.6,.5-.05-.05-.05-.1-.05-.25,1,.3,1.85,.9,2.59,1.55,.15,.1,.2,.45,.25,.65,0,.25-.1,.55,.25,.65,.1,0,.05,.1,.1,.2,.15,.55,.5,.95,.75,1.35-.1,.3,.1,.55,.25,.8,0-.25-.1-.5-.25-.8,0-.1,.05-.15,.1-.25Zm-17.75-7.03c.1,0,.15,0,.2-.05l.05,.05h-.25Zm.45,2.09s-.15,.05-.2,.1c-.1,.1,0,.2,.1,.25,.25,.1,.5,.2,.85-.1-.3-.1-.5-.15-.75-.25Zm2.09-.45c-.35-.2-.7,0-1.05,0,.45,.1,.75,.15,1.05,0Zm-.45,33.06s.1,0,.15-.05v-.05h-.3c.1,.05,.1,.1,.15,.1Zm1.15-35.06c-.3-.1-.6-.1-.95-.05-.1-.05-.2-.05-.3-.05,.4,.1,.85,.15,1.25,.1Zm2.79,16.96c-.05-.45-.05-.9-.1-1.35h-.1c.05,.45,.05,.9,.1,1.3,0,.05,.05,.05,.1,.05Zm.15-17.05c.1,.2,.25,.15,.45-.05-.15,0-.3,0-.4-.05,0,.05-.05,.1-.05,.1Zm1.65,25.98c-.05,.3-.05,.6-.05,.9h.05c0-.3,0-.6,.05-.9h-.05Zm1.55,3.99c.5-.35,.9-.85,1.15-1.3,.7-1.3,1.15-2.64,1.6-3.89,.3-.8,.45-1.65,.8-2.39,.55-1.65,.8-3.24,.75-4.99v-1.05c-.1-1-.15-2-.25-2.94s-.2-1.89-.55-2.79c-.05-.1-.15-.25-.15-.35,.05-.4-.2-.7-.5-.95-.3-.3-.55-.65-1-.8-.1,0-.2-.05-.25-.15-.65-.6-1.3-1.15-1.95-1.7-.25-.25-.5-.45-.9-.55-.05,1.1-.15,2.19,0,3.24,0-.3,.1-.6,.1-.9,.05,0,.1-.05,.15-.05,0,.1,.1,.25,.1,.35,.05,.7,.05,1.5,.1,2.19,.1,1,.05,2,.2,2.89,.2,1.6,.2,3.14,.25,4.69-.05,1-.05,2-.05,2.94v4.24c0,.4-.1,.75-.15,1.2-.05,.1-.05,.25-.05,.4,.05,.55,.1,1.2,.1,1.79-.05,.3-.05,.65-.1,1.05,.2-.1,.4-.15,.6-.2Zm-.8-5.09v.45h.05v-.45h-.05Zm.55,10.82c-.15,0-.25,.05-.4,.1v.05c.15,0,.25,0,.4-.05v-.1Zm.1-35.11h.25v-.05s-.15-.05-.25-.05v.1Zm4.34,31.86v.15c.15-.05,.25-.1,.4-.15-.2-.2-.3-.2-.4,0Zm.45-28.62c.15,.15,.25,.15,.35,.25,0-.05,0-.1,.05-.1-.05-.05-.2-.1-.35-.25-.05,.05-.05,.1-.05,.1Zm1.75,27.68c-.1,.45-.3,.75-.55,1.05-.15,.15-.3,.25-.5,.15,0-.05,.05-.15,.05-.25,.3-.3,.5-.7,1-.95Zm.05-25.38s.05,0,.05-.05l-.2-.2c.05-.1,.05-.25-.2-.4,.1,.2,.15,.3,.2,.35l.15,.3Zm2.39,17.4c.05-.15,.1-.25,.1-.35,0-.05-.05-.05-.05-.05-.05,.15-.1,.25-.1,.35,0,.05,.05,.05,.05,.05Z"/>
      <path class="cls-1" d="M233.41,36.25c-.25,.05-.45,.15-.7,.2,0,.05,0,.15-.05,.35,.5,.05,.95,.1,1.55,.15-.25,.1-.25,.3-.2,.45-.35,.25-.7-.1-1.1,.1,.25,.15,.3,.25,.45,.3,.6,.1,1.2,.25,1.79,.4,.05,.1,.05,.25-.2,.3h-.6c-.15,0-.3,.05-.55,.05,.25,.25,.6,.2,.85,.25-.2,.15-.6,.25-1,.2-.35,0-.7,0-1.05,.15-.2,.05-.45,0-.7,.05-.6,0-1.3,0-1.9,.1-.95,.1-1.84,.1-2.79,.1-.8-.05-1.55-.1-2.24,.2h-.3s-.15-.05-.15-.05c-.2,.2-.35,.4-.5,.6,.05,.1,.1,.3,.15,.4-.1,.15-.2,.2-.35,.05-.05-.05-.1-.1-.15-.15-.05-.1-.15-.15-.25-.2-.05,.15-.1,.25-.15,.3-.05,0-.2-.1-.35-.1-.1,0-.2,.05-.35-.15,.1-.3,.7-.2,.65-.65-.2,0-.3,.05-.4,.1s-.25,.1-.35,.05-.25-.2-.45-.05c0,.05-.1,0-.1,0q-.35-.1-.55,.05c-.15-.15-.3-.2-.1-.4,.05-.1,.1-.2,.05-.25-.2-.4-.1-.9-.25-1.35-.05-.2-.2-.4-.15-.5,.05-.2,.05-.35,0-.5-.05-.15-.15-.3-.25-.5,0-.05,.1-.2,.15-.3,0-.15,0-.25-.2-.4-.35-.2-.45-.65-.15-.95,.15-.3,.15-.5,.15-.75-.05-1.15-.05-2.34-.05-3.49v-3.04c-.05-1.2-.05-2.34-.05-3.54,0-.35,.05-.65-.4-.85,.15-.05,.25-.05,.35-.1-.05-.35-.3-.3-.5-.3q-.1-.35,.3-.35c.15-.2,.15-.45-.05-.65-.15-.25-.35-.4-.5-.65-.05-.15-.05-.3,.15-.35,.1-.05,.25-.05,.35-.05,.15-.5,.05-.7-.25-.95,.15-.05,.2-.15,.4-.15,0-.6,0-1.2-.05-1.79,0-.5,0-1-.05-1.55v-1.2c.05-.95,0-1.89,.05-2.89,.05-1.3,.1-2.64,.15-3.94,0-.2,.05-.35,.05-.5,.05-.55,.05-.6-.45-.7-.05-.05-.15-.05-.2-.1-.05,0-.05-.1-.05-.2,.25,0,.4,0,.7-.05-.15-.3-.25-.55-.35-.9,.4-.25,.6-.6,.4-1.1v-.55c.25-.15,.4-.3,.25-.65,0-.05,.05-.15,.15-.25,.1-.15,.25-.25,.45-.35,.05-.15,.15-.25,.3-.4,.2-.05,.45-.05,.65,.2,0,.1,.2,.1,.35,.1s.35-.05,.55-.1c.25,.3,.6,.3,.95,.3,.25,0,.4-.05,.65-.05,.65-.05,1.25-.05,1.94-.1-.1,.1-.15,.15-.2,.15,.4,.05,.75-.05,1.15-.15,.45-.1,.9-.15,1.3-.25,.1,0,.25,0,.4,.1,.2,.1,.4,.05,.65-.05-.1-.25-.1-.5-.2-.75-.3,.15-.05,.5-.35,.6,0-.05-.05-.15-.05-.2-.7,.25-1.35,.2-2.09,.2,.2-.05,.35-.1,.55-.15,.6-.05,1.1-.25,1.6-.6,.15-.1,.45-.1,.7-.2-.1,.4,0,.75,.2,1.05,.25-.05,.45-.05,.6-.4h-.15v-.55c.3-.1,.45,0,.55,.3,.15,.4,.45,.6,.8,.75h.05c.15,.4,.5,.35,.8,.35s.5,.15,.6,.4c-.4,.2-.8,.1-1.2-.25-.1,.45,0,.55,.35,.6,.4,.05,.75,.15,.9,.5,.2,.2,.35,.25,.55,.15,.2-.1,.3,.05,.45,.2-.2,.15-.25,.35,.05,.6-.2,0-.25,0-.35,.05,.05,.15,.1,.3,.15,.45-.05,.1-.3,.1-.2,.4,.1,.1,.1,.25,.2,.45-.1,0-.1-.1-.2-.1-.1,.05-.2,.1-.3,.1-.05,.05-.05,.1-.05,.25h-.4c.15,.2,.3,.4,.4,.6,.25-.1,.4-.15,.3-.4,.15-.1,.35-.3,.6-.15,.2,.6-.1,1-.4,1.45-.25-.05-.5-.1-.7-.2-.1,0-.25-.05-.25-.15-.1-.15-.3-.2-.45-.2-.2,0-.45,0-.65-.05,.1,.3-.15,.5-.25,.7-.35,0-.45-.25-.55-.5-.1,0-.25,.1-.3,.05-.2-.2-.5-.15-.7-.1-1.1,.1-2.14,.25-3.24,.45-.35,.05-.65,.05-1,.15-.15,0-.3,.15-.3,.35-.05,.2-.1,.4-.2,.55-.3,.95-.35,1.1-.3,2.04,.1-.3,.2-.6,.25-.85h.1c0,.1,.05,.25,.05,.45-.05,1.45-.1,2.99-.1,4.54,0,.55-.25,1.15-.1,1.75,0,.15-.05,.3,.1,.45,.1,.05,.05,.35,.1,.5v.4c.3,.05,.5,.05,.75,.05,.05,0,.05,.1,.1,.15-.1,0-.3-.05-.5-.05v.1c.2,0,.4,0,.5-.05,.35-.05,.65-.05,.95-.1,.15-.05,.35-.05,.45-.15,.25-.15,.45-.15,.65,.05,.1,.1,.2,.15,.4,.1,.5-.05,1.05-.15,1.4-.6-.1-.15-.15-.25-.2-.35,.05-.05,.15-.05,.15-.05,.1,.1,.2,.25,.2,.4,.1,.15,.2,.3,.45,.25,.05,.25,.1,.4,.15,.65,.2-.3,0-.7,.4-.7v-.05c-.1,.45-.2,.9,0,1.4,0,.1-.05,.25-.05,.35,.4,0,.6,.2,.7,.55-.1-.1-.25-.15-.35-.3-.05,.35,.15,.25,.35,.3,.3,.05,.6,0,.9,.25,.05,.2,.1,.45,.15,.7-.05,0-.1,.05-.15,.1,.1,.1,.15,.15,.25,.2-.1,.1-.1,.2-.2,.3-.05,0-.15-.05-.3-.1v.5h-.2c-.15,.15-.05,.35,.2,.6,.2,0,.4-.05,.55-.05,.05,0,.05,.05,.05,.1,.15,.95-.25,1-1.05,.75-.25-.1-.55-.2-.85-.3-.1,.25-.25,.4-.3,.55-.1,.2-.05,.35-.1,.65-.15-.3-.35-.55-.55-.85-.05,.15-.1,.25-.15,.35-.1,0-.15,0-.3-.05,.15,.25,.15,.45-.05,.7-.05,.05-.05,.2-.05,.4-.4-.3-.35-.85-.7-1.25,.05,.4,.1,.7,.15,1.1-.25-.25-.3-.45-.4-.7-.15-.45-.2-.45-.7-.45-.6,0-1.3,.1-1.95,.2-.4,.05-.55,.25-.55,.6-.1,.6-.1,1.25-.2,1.89,0,.15-.05,.35-.1,.45v.2c-.05,.35-.05,.7-.1,1.1,.4,0,.45,.3,.4,.65,0,.45,0,.95-.05,1.45,0,.3-.05,.65-.25,.95-.15,.35,0,.7,0,1.05,.1-.05,.15-.15,.2-.3,.25,.5,.1,1,.25,1.55,.8,.1,1.6,.1,2.49-.15-.15,.2-.2,.3-.25,.4,0,.05,.05,.1,.1,.1,.35,0,.7-.05,1.05-.05,.45,0,.9,0,1.3,.05h.05c.4,.25,.85,.3,1.35,.3-.25,.2-.25,.25-.65,.2-.15-.05-.3-.1-.35,.15,.1,0,.15,.05,.25,.05,.15,.05,.35,.05,.5,.05,.45,0,.8,.35,.95,.75,.05,.15,.25,.25,.4,.4,0,.1,0,.25-.2,.3Zm-7.53-6.53v.3h.05v-.3h-.05Zm3.14-11.52c-.35-.25-.8,.15-1.25-.05,.55-.3,1.05-.55,1.65-.6-.15,.2-.3,.45-.4,.65Zm1.5,17.15h.2v-.05h-.2v.05Zm1.4-17.15c-.05-.45-.25-.7-.75-.95,.35-.1,.5,.1,.6,.2,.15,.15,.3,.25,.55,.25,.15,.2,.3,.4,.45,.6,.05-.25-.05-.4-.2-.55-.05-.05-.2-.05-.3-.05,.05-.1,.1-.25,.15-.45,.3,.25,.5,.4,.65,.75,.05,.1,.1,.3,.05,.35-.15,.1-.4,.2-.45,.15-.25-.1-.3,0-.4,.05-.1-.15-.2-.25-.35-.4v.05Zm-.1-17.1c-.2,.05-.4,.15-.5-.1,.15,.05,.3,.05,.5,.1Zm-.2,21.29c-.05-.05-.1-.15-.15-.2-.05,0-.05,.05-.05,.05,0,.05,.05,.15,.1,.2,.05,0,.05-.05,.1-.05Zm-.05-1.05c.2,.15,.3,.15,.6-.1-.25-.05-.4-.1-.6-.15-.1,.1-.15,.15,0,.25Zm.6-19.6q-.25,.2-.35-.15c.1,.05,.2,.1,.35,.15Zm.15-.35s-.05,.1-.05,.1c-.1,0-.15-.05-.25-.1,.05-.05,.05-.1,.1-.15,.1,.05,.15,.1,.2,.15Zm.8,18.1c-.4-.05-.65-.05-.9-.1-.1-.2,0-.3,.05-.35,.2-.05,.45-.15,.65-.3,.05,.25,.1,.5,.2,.75Zm-.85-14.31h.2v-.05h-.2v.05Zm.8,19c-.35,.1-.55-.15-.75-.25,0-.05,0-.1,.05-.1,.2,.1,.4,.2,.7,.35Zm.2-3.84c-.5-.1-.65-.35-.7-.75,.35,.15,.6,.35,.7,.75Zm-.4-15.86c.3,.1,.65,.1,1,0-.25-.25-.55-.45-.9-.45,.05,.1,.1,.15,.1,.2-.1,.05-.15,.1-.2,.15v.1Zm.2,19s.1-.1,.15-.2c-.05,0-.05-.05-.05-.1-.05,.1-.1,.15-.2,.2l.1,.1Zm.1,14.81c.15,0,.35-.05,.5-.1,0,0,0-.05-.05-.1-.15,0-.35,.05-.5,.05,0,.05,.05,.1,.05,.15Zm.5-29.67c-.15-.25-.35-.4-.5-.5t.05-.1c.25,.1,.45,.15,.45,.6Zm.1-4.99q.2-.2,.45,.1c-.15-.05-.3-.05-.45-.1Z"/>
      <path class="cls-1" d="M248.62,2.69c.35,.1,.7-.15,1.05,.15,.05-.1,.15-.15,.25-.35,.2,.3,.3,.45,.5,.75,.1-.25,.15-.35,.15-.45h.05c.25,.05,.45,.05,.65,.15,.45,.25,.9,.45,1.4,.55,.15,.05,.3,.1,.3,.3,0,.05,.1,.1,.15,.15,.3,.05,.45,.25,.55,.55,.5,0,.7,.3,.8,.75,0,.05,.05,.1,.05,.1,.35,.15,.35,.55,.55,.8,.15,.25,.25,.5,.35,.75s.1,.5,.2,.8c.2,.5,.4,.95,.6,1.45,.35,.9,.7,1.84,1.05,2.79,.4,1.5,.65,3.04,.85,4.49,.1,.8,.1,1.7,.15,2.49,0,.6-.05,1.2-.05,1.84-.05,1.2-.15,2.34-.45,3.54-.1,.55-.2,1.1-.35,1.65-.1,.35-.15,.7-.45,1.05-.1,.1-.1,.3-.1,.45-.1,.2-.15,.4-.2,.55-.2,.5-.4,.95-.6,1.45-.1,.3-.1,.55-.2,.8-.2,.65-.4,1.25-.65,1.85-.15,.45-.4,.9-.6,1.35-.05,.25-.1,.5-.2,.75-.2,.25-.35,.55-.55,.8-.35,.55-.75,1.05-1.25,1.4-.25,.15-.55,.3-.7,.55-.3,.35-.65,.55-1.05,.7-.25,.1-.45,.15-.7,.2,.05,.05,.1,.15,.15,.2-.15,.1-.2,.15-.35,.2,.05,.1,.1,.2,.15,.35h-1.05c-.15,.45-.45,.65-.9,.6,.05,.1,.1,.15,.1,.2-.6,.1-1.15,.25-1.75,.3v-.05c.1-.15,.2-.3,.35-.4-.25-.05-.45-.05-.7,.15-.1,.2-.5,.05-.5,.4-.3,0-.55-.05-.8-.25-.1-.1-.2-.15-.3-.1-.25,0-.4-.1-.6-.25-.2-.2-.45-.4-.7-.55-.05-.05-.15-.05-.25-.05-.3,0-.55-.1-.7-.3-.35-.4-.75-.7-1.1-1.05-.15-.25-.4-.45-.45-.75,0-.2-.1-.4-.25-.55-.3-.3-.65-.45-.7-.85-.4-.25-.35-.65-.45-1-.05-.15-.05-.3-.15-.45-.25-.3-.35-.65-.45-1-.25-.75-.55-1.45-.8-2.14-.45-1.6-.85-3.29-1-4.94,0-.25,.05-.55,.05-.75,0-1.7,.05-3.29,.05-4.94,0-.4,.05-.75,.1-1.1,.05-.75,.1-1.55,.15-2.34,0-.2,.1-.5,.1-.7,.05-.5,.1-1,.1-1.5-.05-1.05,.15-2.09,.45-3.14,.15-.4,.2-.8,.45-1.1,.05,0,.05-.05,.05-.1,.1-.2,.1-.35,.2-.5,.65-1.1,1.4-2.09,2.29-2.99,.5-.5,1-1,1.5-1.4,.35-.35,.75-.5,1.1-.75,.25-.1,.4-.35,.65-.5,.15-.1,.4-.25,.55-.3,.25-.05,.4-.05,.55-.15,.3-.3,.65-.15,.95-.25,.3-.1,.65-.15,.95-.05,.1,0,.2,0,.25-.05,.4-.05,.8-.1,1.2-.1,0-.05,0-.1-.05-.15Zm-6.83,11.92v.35h.05v-.35h-.05Zm.7,6.63v-.7h-.05v.7h.05Zm7.33,8.98c.25-.75,.45-1.4,.7-2.14,.1-.35,.25-.75,.45-1.1,.5-1,.95-2.09,1.3-3.14,.1-.4,.15-.8,.15-1.25,0-.65-.05-1.3,.05-1.9,.15-.75,.15-1.45,.2-2.14,.05-.4,.05-.75,.1-1.1,.15-1-.1-1.94-.4-2.84-.4-1-.9-1.95-1.25-2.99-.1-.4-.2-.75-.3-1.15-.05-.45-.15-.8-.3-1.1-.05-.05-.15-.1-.25-.2-.05,.3-.1,.5-.15,.8-.1-.05-.25-.1-.35-.15-.1,.2-.25,.25-.35,.4-.45-.1-.65-.5-.9-.7-.4-.3-.4-.7-.45-1.1h-.5c.15,.15,.25,.25,.4,.45-.2-.05-.35-.05-.45-.1-.15-.1-.4-.15-.6-.15-.2-.05-.35,.05-.4,.15,0,.3-.25,.4-.45,.55-.45,.35-1,.7-1.45,1-.1,.1-.2,.15-.25,.2-.15,.35-.35,.6-.5,.85-.1,.25-.25,.45-.3,.65-.2,.95-.4,1.84-.5,2.74-.15,1-.15,2-.15,2.94,0,.1,0,.2-.05,.35-.05,.65-.15,1.35-.2,2,0,.15,0,.25,.05,.3,.05,1,.1,1.99-.05,2.94-.1,.35-.15,.75-.1,1.15,.15,1.05,.05,2.19,.25,3.19,.05,.1,0,.2,0,.3,.1,.5,.1,1.05,.45,1.5,0-.5-.4-.95-.25-1.5,.05,.05,.15,.1,.15,.2,.15,.3,.2,.6,.35,.9,.1,.3,.2,.5,0,.75-.1,.1-.15,.3,.05,.35,.05-.05,.15-.1,.2-.2,.1,.2,.2,.3,.3,.5-.15,.05-.25,.1-.35,.15,.55,1.2,.8,2.54,2.04,3.24,.25-.05,.4-.2,.65-.25,.45-.05,.85-.2,1.3-.4,1.2-.55,1.99-1.5,2.39-2.74,.05-.05,.05-.15,.05-.25-.1,.1-.25,.15-.45,.3,.05-.15,.1-.25,.1-.25Zm4.74-5.14c-.05,.1-.05,.2-.1,.3h.1c0-.1,.05-.15,.05-.25l-.05-.05Z"/>
    </g>
  </g>
</svg>